<svg viewBox="0 0 48 48"><defs><linearGradient id="linearGradient3764" y1="1" x2="0" y2="47" gradientUnits="userSpaceOnUse"><stop stop-color="#00c9d4" stop-opacity="1"/><stop offset="1" stop-color="#00b5c0" stop-opacity="1"/></linearGradient><clipPath id="clipPath-229205154"><g transform="translate(0,-1004.3622)"><path d="m 24 1005.37 c -1.045 0 -2.023 0.287 -2.856 0.784 l -15.339 8.708 c -0.017 0.013 -0.035 0.013 -0.052 0.021 -1.852 1.051 -2.847 3 -2.746 4.968 l 0 17.02 c -0.056 1.013 0.175 2.049 0.729 2.993 0.532 0.903 1.288 1.602 2.161 2.061 l 15.246 8.653 c 0.832 0.497 1.811 0.784 2.856 0.784 1.045 0 2.023 -0.287 2.856 -0.784 l 15.246 -8.653 c 0.873 -0.46 1.629 -1.158 2.161 -2.061 0.554 -0.944 0.785 -1.981 0.729 -2.993 l 0 -17.01 c 0.056 -1.012 -0.175 -2.052 -0.729 -2.993 -0.532 -0.906 -1.288 -1.604 -2.161 -2.064 l -15.246 -8.653 c -0.832 -0.497 -1.811 -0.784 -2.856 -0.784 z" fill="#1890d0"/></g></clipPath><clipPath id="clipPath-239038499"><g transform="translate(0,-1004.3622)"><path d="m 24 1005.37 c -1.045 0 -2.023 0.287 -2.856 0.784 l -15.339 8.708 c -0.017 0.013 -0.035 0.013 -0.052 0.021 -1.852 1.051 -2.847 3 -2.746 4.968 l 0 17.02 c -0.056 1.013 0.175 2.049 0.729 2.993 0.532 0.903 1.288 1.602 2.161 2.061 l 15.246 8.653 c 0.832 0.497 1.811 0.784 2.856 0.784 1.045 0 2.023 -0.287 2.856 -0.784 l 15.246 -8.653 c 0.873 -0.46 1.629 -1.158 2.161 -2.061 0.554 -0.944 0.785 -1.981 0.729 -2.993 l 0 -17.01 c 0.056 -1.012 -0.175 -2.052 -0.729 -2.993 -0.532 -0.906 -1.288 -1.604 -2.161 -2.064 l -15.246 -8.653 c -0.832 -0.497 -1.811 -0.784 -2.856 -0.784 z" fill="#1890d0"/></g></clipPath><filter id="filter-209361169"><feGaussianBlur stdDeviation="0.35"/></filter></defs><g><g transform="translate(0,-1004.3622)"><path d="m 45 1037.36 c 0.056 1.013 -0.196 2.056 -0.75 3 -0.532 0.903 -1.283 1.603 -2.156 2.063 l -15.25 8.656 c -0.832 0.497 -1.799 0.781 -2.844 0.781 -1.045 0 -2.01 -0.284 -2.844 -0.781 l -15.25 -8.656 c -0.873 -0.46 -1.625 -1.159 -2.156 -2.063 -0.416 -0.708 -0.677 -1.485 -0.75 -2.25 -0.004 0.932 0.242 1.884 0.75 2.75 0.532 0.903 1.283 1.603 2.156 2.063 l 15.25 8.656 c 0.832 0.497 1.799 0.781 2.844 0.781 1.045 0 2.01 -0.284 2.844 -0.781 l 15.25 -8.656 c 0.873 -0.46 1.625 -1.159 2.156 -2.063 0.554 -0.944 0.806 -1.987 0.75 -3 l 0 -0.5 z" opacity="0.05"/><path d="m 45 1036.86 c 0.015 0.263 -0.004 0.516 -0.031 0.781 -0.036 0.844 -0.259 1.685 -0.719 2.469 -0.532 0.903 -1.283 1.603 -2.156 2.063 l -15.25 8.656 c -0.832 0.497 -1.799 0.781 -2.844 0.781 -1.045 0 -2.01 -0.284 -2.844 -0.781 l -15.25 -8.656 c -0.873 -0.46 -1.625 -1.159 -2.156 -2.063 -0.414 -0.705 -0.621 -1.46 -0.688 -2.219 -0.014 -0.092 -0.054 -0.189 -0.063 -0.281 -0.004 0.932 0.242 1.884 0.75 2.75 0.532 0.903 1.283 1.603 2.156 2.063 l 15.25 8.656 c 0.832 0.497 1.799 0.781 2.844 0.781 1.045 0 2.01 -0.284 2.844 -0.781 l 15.25 -8.656 c 0.873 -0.46 1.625 -1.159 2.156 -2.063 0.554 -0.944 0.806 -1.987 0.75 -3 l 0 -0.5 z m -41.813 1.625 c 0.057 0.219 0.132 0.442 0.219 0.656 -0.088 -0.216 -0.16 -0.436 -0.219 -0.656 z m 0.219 0.656 c 0.099 0.243 0.206 0.484 0.344 0.719 -0.139 -0.236 -0.243 -0.472 -0.344 -0.719 z m 41.41 -0.656 c -0.059 0.221 -0.131 0.441 -0.219 0.656 0.087 -0.215 0.161 -0.437 0.219 -0.656 z m -0.219 0.656 c -0.101 0.246 -0.205 0.483 -0.344 0.719 0.138 -0.235 0.245 -0.476 0.344 -0.719 z" opacity="0.1"/><path d="m 3.03 1037.64 c 0.035 0.844 0.259 1.685 0.719 2.469 0.532 0.903 1.283 1.603 2.156 2.063 l 15.25 8.656 c 0.832 0.497 1.799 0.781 2.844 0.781 1.045 0 2.01 -0.284 2.844 -0.781 l 15.25 -8.656 c 0.873 -0.46 1.625 -1.159 2.156 -2.063 0.46 -0.784 0.683 -1.624 0.719 -2.469 -0.067 0.763 -0.303 1.511 -0.719 2.219 -0.532 0.903 -1.283 1.603 -2.156 2.063 l -15.25 8.656 c -0.832 0.497 -1.799 0.781 -2.844 0.781 -1.045 0 -2.01 -0.284 -2.844 -0.781 l -15.25 -8.656 c -0.873 -0.46 -1.625 -1.159 -2.156 -2.063 -0.416 -0.708 -0.651 -1.456 -0.719 -2.219 z" opacity="0.2"/></g></g><g><path d="m 24 46.996 c 1.045 0 2.023 -0.287 2.856 -0.784 l 15.339 -8.708 c 0.017 -0.013 0.035 -0.013 0.052 -0.021 1.852 -1.051 2.847 -3 2.746 -4.968 l 0 -17.02 c 0.056 -1.013 -0.175 -2.049 -0.729 -2.993 -0.532 -0.903 -1.288 -1.602 -2.161 -2.061 l -15.246 -8.653 c -0.832 -0.497 -1.811 -0.784 -2.856 -0.784 -1.045 0 -2.023 0.287 -2.856 0.784 l -15.246 8.653 c -0.873 0.46 -1.629 1.158 -2.161 2.061 -0.554 0.944 -0.785 1.981 -0.729 2.993 l 0 17.01 c -0.056 1.012 0.175 2.051 0.729 2.993 0.532 0.906 1.288 1.604 2.161 2.064 l 15.246 8.653 c 0.832 0.497 1.811 0.785 2.856 0.785 z" fill="url(#linearGradient3764)" fill-opacity="1"/></g><g><g clip-path="url(#clipPath-229205154)"><g opacity="0.25"><g transform="translate(0,1)"><g filter="url(#filter-209361169)"><!-- color: #00c9d4 --><g><path d="m 23.535 9 c -1.23 0.02 -2.406 0.125 -3.105 0.316 c -2.781 0.754 -4.602 1.758 -6.645 3.664 c -3.551 3.316 -5.113 7.438 -4.727 12.461 c 0.137 1.805 1.016 4.57 1.945 6.102 c 1.941 3.215 4.754 5.477 8.27 6.637 c 1.656 0.551 4 0.91 5.133 0.793 c 0.293 -0.031 1.043 -0.102 1.664 -0.16 c 1.566 -0.148 3.219 -0.688 5.094 -1.656 c 1.313 -0.676 1.926 -1.148 3.383 -2.602 c 2.297 -2.297 3.293 -3.98 4.133 -7.03 c 0.438 -1.582 0.426 -5.641 -0.023 -7.254 c -1.508 -5.465 -5.477 -9.422 -10.957 -10.937 c -0.902 -0.246 -2.582 -0.359 -4.164 -0.332 m -0.746 5.656 c 0.211 -0.02 0.824 0.074 1.48 0.227 c 1.156 0.273 1.387 0.387 1.531 0.777 c 0.141 0.363 0.398 0.523 1.285 0.777 c 1.145 0.328 2.668 1.207 2.992 1.73 c 0.145 0.234 -0.027 0.57 -0.836 1.641 c -0.559 0.742 -1.098 1.348 -1.195 1.348 c -0.098 0 -0.664 -0.246 -1.262 -0.543 c -1.438 -0.723 -2.859 -0.973 -3.801 -0.668 c -0.516 0.172 -0.727 0.348 -0.766 0.641 c -0.074 0.508 0.484 0.75 3.055 1.359 c 3.977 0.934 5.457 2.27 5.449 4.902 c -0.008 2.383 -1.559 4.277 -4.047 4.945 c -0.574 0.152 -0.758 0.285 -0.758 0.559 c 0 0.602 -0.336 1.051 -0.762 1.016 c -0.215 -0.016 -0.789 -0.063 -1.277 -0.102 c -1.012 -0.074 -1.34 -0.281 -1.34 -0.828 c 0 -0.332 -0.203 -0.449 -1.379 -0.789 c -1.461 -0.426 -3.777 -1.668 -3.777 -2.031 c 0 -0.316 1.934 -3.137 2.152 -3.137 c 0.102 0 0.457 0.203 0.789 0.453 c 1.438 1.098 4.625 1.695 5.555 1.043 c 0.492 -0.34 0.523 -1.066 0.059 -1.313 c -0.191 -0.102 -1.355 -0.426 -2.586 -0.715 c -2.621 -0.625 -3.742 -1.145 -4.586 -2.125 c -1.195 -1.395 -1.348 -3.078 -0.445 -4.82 c 0.652 -1.25 1.578 -2.066 2.918 -2.563 c 1.141 -0.418 1.301 -0.563 1.301 -1.152 c 0 -0.273 0.082 -0.555 0.184 -0.617 c 0.012 -0.008 0.039 -0.012 0.066 -0.016 m 0 0" fill="#000"/></g></g></g></g></g></g><g><g clip-path="url(#clipPath-239038499)"><!-- color: #00c9d4 --><g><path d="m 23.535 9 c -1.23 0.02 -2.406 0.125 -3.105 0.316 c -2.781 0.754 -4.602 1.758 -6.645 3.664 c -3.551 3.316 -5.113 7.438 -4.727 12.461 c 0.137 1.805 1.016 4.57 1.945 6.102 c 1.941 3.215 4.754 5.477 8.27 6.637 c 1.656 0.551 4 0.91 5.133 0.793 c 0.293 -0.031 1.043 -0.102 1.664 -0.16 c 1.566 -0.148 3.219 -0.688 5.094 -1.656 c 1.313 -0.676 1.926 -1.148 3.383 -2.602 c 2.297 -2.297 3.293 -3.98 4.133 -7.03 c 0.438 -1.582 0.426 -5.641 -0.023 -7.254 c -1.508 -5.465 -5.477 -9.422 -10.957 -10.937 c -0.902 -0.246 -2.582 -0.359 -4.164 -0.332 m -0.746 5.656 c 0.211 -0.02 0.824 0.074 1.48 0.227 c 1.156 0.273 1.387 0.387 1.531 0.777 c 0.141 0.363 0.398 0.523 1.285 0.777 c 1.145 0.328 2.668 1.207 2.992 1.73 c 0.145 0.234 -0.027 0.57 -0.836 1.641 c -0.559 0.742 -1.098 1.348 -1.195 1.348 c -0.098 0 -0.664 -0.246 -1.262 -0.543 c -1.438 -0.723 -2.859 -0.973 -3.801 -0.668 c -0.516 0.172 -0.727 0.348 -0.766 0.641 c -0.074 0.508 0.484 0.75 3.055 1.359 c 3.977 0.934 5.457 2.27 5.449 4.902 c -0.008 2.383 -1.559 4.277 -4.047 4.945 c -0.574 0.152 -0.758 0.285 -0.758 0.559 c 0 0.602 -0.336 1.051 -0.762 1.016 c -0.215 -0.016 -0.789 -0.063 -1.277 -0.102 c -1.012 -0.074 -1.34 -0.281 -1.34 -0.828 c 0 -0.332 -0.203 -0.449 -1.379 -0.789 c -1.461 -0.426 -3.777 -1.668 -3.777 -2.031 c 0 -0.316 1.934 -3.137 2.152 -3.137 c 0.102 0 0.457 0.203 0.789 0.453 c 1.438 1.098 4.625 1.695 5.555 1.043 c 0.492 -0.34 0.523 -1.066 0.059 -1.313 c -0.191 -0.102 -1.355 -0.426 -2.586 -0.715 c -2.621 -0.625 -3.742 -1.145 -4.586 -2.125 c -1.195 -1.395 -1.348 -3.078 -0.445 -4.82 c 0.652 -1.25 1.578 -2.066 2.918 -2.563 c 1.141 -0.418 1.301 -0.563 1.301 -1.152 c 0 -0.273 0.082 -0.555 0.184 -0.617 c 0.012 -0.008 0.039 -0.012 0.066 -0.016 m 0 0" fill="#f9f9f9"/></g></g></g><g><path d="m 24 1 c -1.045 0 -2.01 0.284 -2.844 0.781 l -15.344 8.719 c -0.017 0.013 -0.045 0.023 -0.063 0.031 c -1.852 1.051 -2.851 3 -2.75 4.969 l 0 1 c -0.101 -1.966 0.898 -3.918 2.75 -4.969 c 0.017 -0.008 0.045 -0.018 0.063 -0.031 l 15.344 -8.719 c 0.832 -0.497 1.799 -0.781 2.844 -0.781 c 1.045 0 2.01 0.284 2.844 0.781 l 15.25 8.656 c 0.873 0.46 1.625 1.156 2.156 2.063 c 0.554 0.942 0.806 1.988 0.75 3 l 0 -1 c 0.056 -1.012 -0.196 -2.058 -0.75 -3 c -0.532 -0.906 -1.283 -1.603 -2.156 -2.063 l -15.25 -8.656 c -0.832 -0.497 -1.799 -0.781 -2.844 -0.781 z" opacity="0.2" fill="#fff"/></g></svg>