<svg viewBox="0 0 48 48"><defs><linearGradient id="linearGradient3764" y1="1" x2="0" y2="47" gradientUnits="userSpaceOnUse"><stop stop-color="#00c9d4" stop-opacity="1"/><stop offset="1" stop-color="#00b5c0" stop-opacity="1"/></linearGradient><clipPath id="clipPath-645759774"><g transform="translate(0,-1004.3622)"><path d="m 24 1005.37 c -1.045 0 -2.023 0.287 -2.856 0.784 l -15.339 8.708 c -0.017 0.013 -0.035 0.013 -0.052 0.021 -1.852 1.051 -2.847 3 -2.746 4.968 l 0 17.02 c -0.056 1.013 0.175 2.049 0.729 2.993 0.532 0.903 1.288 1.602 2.161 2.061 l 15.246 8.653 c 0.832 0.497 1.811 0.784 2.856 0.784 1.045 0 2.023 -0.287 2.856 -0.784 l 15.246 -8.653 c 0.873 -0.46 1.629 -1.158 2.161 -2.061 0.554 -0.944 0.785 -1.981 0.729 -2.993 l 0 -17.01 c 0.056 -1.012 -0.175 -2.052 -0.729 -2.993 -0.532 -0.906 -1.288 -1.604 -2.161 -2.064 l -15.246 -8.653 c -0.832 -0.497 -1.811 -0.784 -2.856 -0.784 z" fill="#1890d0"/></g></clipPath><clipPath id="clipPath-655056014"><g transform="translate(0,-1004.3622)"><path d="m 24 1005.37 c -1.045 0 -2.023 0.287 -2.856 0.784 l -15.339 8.708 c -0.017 0.013 -0.035 0.013 -0.052 0.021 -1.852 1.051 -2.847 3 -2.746 4.968 l 0 17.02 c -0.056 1.013 0.175 2.049 0.729 2.993 0.532 0.903 1.288 1.602 2.161 2.061 l 15.246 8.653 c 0.832 0.497 1.811 0.784 2.856 0.784 1.045 0 2.023 -0.287 2.856 -0.784 l 15.246 -8.653 c 0.873 -0.46 1.629 -1.158 2.161 -2.061 0.554 -0.944 0.785 -1.981 0.729 -2.993 l 0 -17.01 c 0.056 -1.012 -0.175 -2.052 -0.729 -2.993 -0.532 -0.906 -1.288 -1.604 -2.161 -2.064 l -15.246 -8.653 c -0.832 -0.497 -1.811 -0.784 -2.856 -0.784 z" fill="#1890d0"/></g></clipPath><filter id="filter-625974023"><feGaussianBlur stdDeviation="0.35"/></filter></defs><g><g transform="translate(0,-1004.3622)"><path d="m 45 1037.36 c 0.056 1.013 -0.196 2.056 -0.75 3 -0.532 0.903 -1.283 1.603 -2.156 2.063 l -15.25 8.656 c -0.832 0.497 -1.799 0.781 -2.844 0.781 -1.045 0 -2.01 -0.284 -2.844 -0.781 l -15.25 -8.656 c -0.873 -0.46 -1.625 -1.159 -2.156 -2.063 -0.416 -0.708 -0.677 -1.485 -0.75 -2.25 -0.004 0.932 0.242 1.884 0.75 2.75 0.532 0.903 1.283 1.603 2.156 2.063 l 15.25 8.656 c 0.832 0.497 1.799 0.781 2.844 0.781 1.045 0 2.01 -0.284 2.844 -0.781 l 15.25 -8.656 c 0.873 -0.46 1.625 -1.159 2.156 -2.063 0.554 -0.944 0.806 -1.987 0.75 -3 l 0 -0.5 z" opacity="0.05"/><path d="m 45 1036.86 c 0.015 0.263 -0.004 0.516 -0.031 0.781 -0.036 0.844 -0.259 1.685 -0.719 2.469 -0.532 0.903 -1.283 1.603 -2.156 2.063 l -15.25 8.656 c -0.832 0.497 -1.799 0.781 -2.844 0.781 -1.045 0 -2.01 -0.284 -2.844 -0.781 l -15.25 -8.656 c -0.873 -0.46 -1.625 -1.159 -2.156 -2.063 -0.414 -0.705 -0.621 -1.46 -0.688 -2.219 -0.014 -0.092 -0.054 -0.189 -0.063 -0.281 -0.004 0.932 0.242 1.884 0.75 2.75 0.532 0.903 1.283 1.603 2.156 2.063 l 15.25 8.656 c 0.832 0.497 1.799 0.781 2.844 0.781 1.045 0 2.01 -0.284 2.844 -0.781 l 15.25 -8.656 c 0.873 -0.46 1.625 -1.159 2.156 -2.063 0.554 -0.944 0.806 -1.987 0.75 -3 l 0 -0.5 z m -41.813 1.625 c 0.057 0.219 0.132 0.442 0.219 0.656 -0.088 -0.216 -0.16 -0.436 -0.219 -0.656 z m 0.219 0.656 c 0.099 0.243 0.206 0.484 0.344 0.719 -0.139 -0.236 -0.243 -0.472 -0.344 -0.719 z m 41.41 -0.656 c -0.059 0.221 -0.131 0.441 -0.219 0.656 0.087 -0.215 0.161 -0.437 0.219 -0.656 z m -0.219 0.656 c -0.101 0.246 -0.205 0.483 -0.344 0.719 0.138 -0.235 0.245 -0.476 0.344 -0.719 z" opacity="0.1"/><path d="m 3.03 1037.64 c 0.035 0.844 0.259 1.685 0.719 2.469 0.532 0.903 1.283 1.603 2.156 2.063 l 15.25 8.656 c 0.832 0.497 1.799 0.781 2.844 0.781 1.045 0 2.01 -0.284 2.844 -0.781 l 15.25 -8.656 c 0.873 -0.46 1.625 -1.159 2.156 -2.063 0.46 -0.784 0.683 -1.624 0.719 -2.469 -0.067 0.763 -0.303 1.511 -0.719 2.219 -0.532 0.903 -1.283 1.603 -2.156 2.063 l -15.25 8.656 c -0.832 0.497 -1.799 0.781 -2.844 0.781 -1.045 0 -2.01 -0.284 -2.844 -0.781 l -15.25 -8.656 c -0.873 -0.46 -1.625 -1.159 -2.156 -2.063 -0.416 -0.708 -0.651 -1.456 -0.719 -2.219 z" opacity="0.2"/></g></g><g><path d="m 24 46.996 c 1.045 0 2.023 -0.287 2.856 -0.784 l 15.339 -8.708 c 0.017 -0.013 0.035 -0.013 0.052 -0.021 1.852 -1.051 2.847 -3 2.746 -4.968 l 0 -17.02 c 0.056 -1.013 -0.175 -2.049 -0.729 -2.993 -0.532 -0.903 -1.288 -1.602 -2.161 -2.061 l -15.246 -8.653 c -0.832 -0.497 -1.811 -0.784 -2.856 -0.784 -1.045 0 -2.023 0.287 -2.856 0.784 l -15.246 8.653 c -0.873 0.46 -1.629 1.158 -2.161 2.061 -0.554 0.944 -0.785 1.981 -0.729 2.993 l 0 17.01 c -0.056 1.012 0.175 2.051 0.729 2.993 0.532 0.906 1.288 1.604 2.161 2.064 l 15.246 8.653 c 0.832 0.497 1.811 0.785 2.856 0.785 z" fill="url(#linearGradient3764)" fill-opacity="1"/></g><g><g clip-path="url(#clipPath-645759774)"><g opacity="0.25"><g transform="translate(0,1)"><g filter="url(#filter-625974023)"><!-- color: #00c9d4 --><path d="m 28.332 24 c 0 -1.195 -0.422 -2.219 -1.27 -3.063 c -0.844 -0.848 -1.867 -1.27 -3.063 -1.27 c -1.195 0 -2.219 0.422 -3.063 1.27 -0.848 0.844 -1.27 1.867 -1.27 3.063 0 1.195 0.422 2.219 1.27 3.063 0.844 0.848 1.867 1.27 3.063 1.27 1.195 0 2.219 -0.422 3.063 -1.27 c 0.848 -0.844 1.27 -1.867 1.27 -3.063 z m 8.668 -1.844 l 0 3.758 c 0 0.133 -0.047 0.266 -0.137 0.387 -0.09 0.125 -0.203 0.199 -0.34 0.223 l -3.129 0.473 c -0.215 0.609 -0.434 1.121 -0.66 1.539 0.395 0.566 1 1.344 1.813 2.336 0.109 0.137 0.168 0.277 0.168 0.426 0 0.145 -0.051 0.273 -0.152 0.387 -0.305 0.418 -0.863 1.027 -1.676 1.828 -0.813 0.801 -1.344 1.203 -1.59 1.203 -0.137 0 -0.285 -0.051 -0.441 -0.152 l -2.336 -1.828 c -0.496 0.258 -1.012 0.473 -1.539 0.645 -0.184 1.531 -0.344 2.582 -0.492 3.145 c -0.078 0.316 -0.281 0.477 -0.609 0.477 l -3.758 0 c -0.156 0 -0.297 -0.047 -0.414 -0.145 -0.117 -0.098 -0.184 -0.219 -0.195 -0.363 l -0.473 -3.113 c -0.555 -0.184 -1.063 -0.391 -1.523 -0.629 l -2.387 1.813 c -0.113 0.102 -0.254 0.152 -0.426 0.152 -0.156 0 -0.297 -0.063 -0.422 -0.188 c -1.625 -0.527 -2.902 -1.527 -2.793 -2.844 c -0.078 -0.113 -0.117 -0.242 -0.117 -0.387 0 -0.137 0.043 -0.266 0.133 -0.391 0.172 -0.238 0.457 -0.613 0.863 -1.125 0.406 -0.516 0.711 -0.914 0.914 -1.195 -0.305 -0.563 -0.535 -1.121 -0.691 -1.676 l -3.098 -0.457 c -0.148 -0.02 -0.266 -0.094 -0.355 -0.211 -0.09 -0.117 -0.137 -0.25 -0.137 -0.398 l 0 -3.758 c 0 -0.133 0.047 -0.266 0.137 -0.387 0.09 -0.125 0.195 -0.199 0.32 -0.223 l 3.148 -0.473 c 0.16 -0.52 0.379 -1.039 0.66 -1.559 -0.449 -0.641 -1.055 -1.422 -1.813 -2.336 -0.109 -0.133 -0.168 -0.27 -0.168 -0.406 0 -0.109 0.051 -0.242 0.152 -0.387 0.293 -0.406 0.852 -1.012 1.668 -1.82 0.816 -0.809 1.352 -1.211 1.598 -1.211 0.148 0 0.297 0.059 0.441 0.168 l 2.336 1.813 c 0.496 -0.258 1.012 -0.473 1.539 -0.645 0.184 -1.531 0.344 -2.582 0.492 -3.145 c 0.078 -0.316 0.281 -0.477 0.609 -0.477 l 3.758 0 c 0.156 0 0.297 0.047 0.414 0.145 0.117 0.098 0.184 0.219 0.195 0.363 l 0.473 3.113 c 0.555 0.184 1.063 0.391 1.523 0.629 l 2.406 -1.813 c 0.102 -0.102 0.234 -0.152 0.406 -0.152 0.145 0 0.285 0.059 0.422 0.168 1.746 0.941 2.848 2.129 2.793 2.879 0.078 0.09 0.117 0.215 0.117 0.371 0 0.137 -0.043 0.266 -0.133 0.391 -0.172 0.238 -0.457 0.613 -0.863 1.125 -0.406 0.516 -0.711 0.914 -0.914 1.195 0.293 0.563 0.523 1.117 0.691 1.656 l 3.098 0.477 c 0.148 0.02 0.266 0.094 0.355 0.211 c 0.09 0.117 0.137 0.25 0.137 0.398 z m 0 0" fill="#000"/><path d="m 24 9 c -8.272 0 -15 6.728 -15 15 0 8.272 6.728 15 15 15 8.272 0 15 -6.728 15 -15 0 -8.272 -6.728 -15 -15 -15 z m 0 2 c 7.189 0 13 5.811 13 13 0 7.189 -5.811 13 -13 13 -7.189 0 -13 -5.811 -13 -13 0 -7.189 5.811 -13 13 -13 z" color="#000" fill="#000"/></g></g></g></g></g><g><g clip-path="url(#clipPath-655056014)"><!-- color: #00c9d4 --><path d="m 28.332 24 c 0 -1.195 -0.422 -2.219 -1.27 -3.063 c -0.844 -0.848 -1.867 -1.27 -3.063 -1.27 c -1.195 0 -2.219 0.422 -3.063 1.27 -0.848 0.844 -1.27 1.867 -1.27 3.063 0 1.195 0.422 2.219 1.27 3.063 0.844 0.848 1.867 1.27 3.063 1.27 1.195 0 2.219 -0.422 3.063 -1.27 c 0.848 -0.844 1.27 -1.867 1.27 -3.063 z m 8.668 -1.844 l 0 3.758 c 0 0.133 -0.047 0.266 -0.137 0.387 -0.09 0.125 -0.203 0.199 -0.34 0.223 l -3.129 0.473 c -0.215 0.609 -0.434 1.121 -0.66 1.539 0.395 0.566 1 1.344 1.813 2.336 0.109 0.137 0.168 0.277 0.168 0.426 0 0.145 -0.051 0.273 -0.152 0.387 -0.305 0.418 -0.863 1.027 -1.676 1.828 -0.813 0.801 -1.344 1.203 -1.59 1.203 -0.137 0 -0.285 -0.051 -0.441 -0.152 l -2.336 -1.828 c -0.496 0.258 -1.012 0.473 -1.539 0.645 -0.184 1.531 -0.344 2.582 -0.492 3.145 c -0.078 0.316 -0.281 0.477 -0.609 0.477 l -3.758 0 c -0.156 0 -0.297 -0.047 -0.414 -0.145 -0.117 -0.098 -0.184 -0.219 -0.195 -0.363 l -0.473 -3.113 c -0.555 -0.184 -1.063 -0.391 -1.523 -0.629 l -2.387 1.813 c -0.113 0.102 -0.254 0.152 -0.426 0.152 -0.156 0 -0.297 -0.063 -0.422 -0.188 c -1.625 -0.527 -2.902 -1.527 -2.793 -2.844 c -0.078 -0.113 -0.117 -0.242 -0.117 -0.387 0 -0.137 0.043 -0.266 0.133 -0.391 0.172 -0.238 0.457 -0.613 0.863 -1.125 0.406 -0.516 0.711 -0.914 0.914 -1.195 -0.305 -0.563 -0.535 -1.121 -0.691 -1.676 l -3.098 -0.457 c -0.148 -0.02 -0.266 -0.094 -0.355 -0.211 -0.09 -0.117 -0.137 -0.25 -0.137 -0.398 l 0 -3.758 c 0 -0.133 0.047 -0.266 0.137 -0.387 0.09 -0.125 0.195 -0.199 0.32 -0.223 l 3.148 -0.473 c 0.16 -0.52 0.379 -1.039 0.66 -1.559 -0.449 -0.641 -1.055 -1.422 -1.813 -2.336 -0.109 -0.133 -0.168 -0.27 -0.168 -0.406 0 -0.109 0.051 -0.242 0.152 -0.387 0.293 -0.406 0.852 -1.012 1.668 -1.82 0.816 -0.809 1.352 -1.211 1.598 -1.211 0.148 0 0.297 0.059 0.441 0.168 l 2.336 1.813 c 0.496 -0.258 1.012 -0.473 1.539 -0.645 0.184 -1.531 0.344 -2.582 0.492 -3.145 c 0.078 -0.316 0.281 -0.477 0.609 -0.477 l 3.758 0 c 0.156 0 0.297 0.047 0.414 0.145 0.117 0.098 0.184 0.219 0.195 0.363 l 0.473 3.113 c 0.555 0.184 1.063 0.391 1.523 0.629 l 2.406 -1.813 c 0.102 -0.102 0.234 -0.152 0.406 -0.152 0.145 0 0.285 0.059 0.422 0.168 1.746 0.941 2.848 2.129 2.793 2.879 0.078 0.09 0.117 0.215 0.117 0.371 0 0.137 -0.043 0.266 -0.133 0.391 -0.172 0.238 -0.457 0.613 -0.863 1.125 -0.406 0.516 -0.711 0.914 -0.914 1.195 0.293 0.563 0.523 1.117 0.691 1.656 l 3.098 0.477 c 0.148 0.02 0.266 0.094 0.355 0.211 c 0.09 0.117 0.137 0.25 0.137 0.398 z m 0 0" fill="#f9f9f9"/><path d="m 24 9 c -8.272 0 -15 6.728 -15 15 0 8.272 6.728 15 15 15 8.272 0 15 -6.728 15 -15 0 -8.272 -6.728 -15 -15 -15 z m 0 2 c 7.189 0 13 5.811 13 13 0 7.189 -5.811 13 -13 13 -7.189 0 -13 -5.811 -13 -13 0 -7.189 5.811 -13 13 -13 z" color="#000" fill="#f9f9f9"/></g></g><g><path d="m 24 1 c -1.045 0 -2.01 0.284 -2.844 0.781 l -15.344 8.719 c -0.017 0.013 -0.045 0.023 -0.063 0.031 c -1.852 1.051 -2.851 3 -2.75 4.969 l 0 1 c -0.101 -1.966 0.898 -3.918 2.75 -4.969 c 0.017 -0.008 0.045 -0.018 0.063 -0.031 l 15.344 -8.719 c 0.832 -0.497 1.799 -0.781 2.844 -0.781 c 1.045 0 2.01 0.284 2.844 0.781 l 15.25 8.656 c 0.873 0.46 1.625 1.156 2.156 2.063 c 0.554 0.942 0.806 1.988 0.75 3 l 0 -1 c 0.056 -1.012 -0.196 -2.058 -0.75 -3 c -0.532 -0.906 -1.283 -1.603 -2.156 -2.063 l -15.25 -8.656 c -0.832 -0.497 -1.799 -0.781 -2.844 -0.781 z" opacity="0.2" fill="#fff"/></g></svg>