<svg viewBox="0 0 48 48"><defs><linearGradient id="linearGradient3764" y1="1" x2="0" y2="47" gradientUnits="userSpaceOnUse"><stop stop-color="#7ce55b" stop-opacity="1"/><stop offset="1" stop-color="#6ee24a" stop-opacity="1"/></linearGradient><clipPath id="clipPath-794332673"><g transform="translate(0,-1004.3622)"><path d="m 24 1005.37 c -1.045 0 -2.023 0.287 -2.856 0.784 l -15.339 8.708 c -0.017 0.013 -0.035 0.013 -0.052 0.021 -1.852 1.051 -2.847 3 -2.746 4.968 l 0 17.02 c -0.056 1.013 0.175 2.049 0.729 2.993 0.532 0.903 1.288 1.602 2.161 2.061 l 15.246 8.653 c 0.832 0.497 1.811 0.784 2.856 0.784 1.045 0 2.023 -0.287 2.856 -0.784 l 15.246 -8.653 c 0.873 -0.46 1.629 -1.158 2.161 -2.061 0.554 -0.944 0.785 -1.981 0.729 -2.993 l 0 -17.01 c 0.056 -1.012 -0.175 -2.052 -0.729 -2.993 -0.532 -0.906 -1.288 -1.604 -2.161 -2.064 l -15.246 -8.653 c -0.832 -0.497 -1.811 -0.784 -2.856 -0.784 z" fill="#1890d0"/></g></clipPath><clipPath id="clipPath-813861340"><g transform="translate(0,-1004.3622)"><path d="m 24 1005.37 c -1.045 0 -2.023 0.287 -2.856 0.784 l -15.339 8.708 c -0.017 0.013 -0.035 0.013 -0.052 0.021 -1.852 1.051 -2.847 3 -2.746 4.968 l 0 17.02 c -0.056 1.013 0.175 2.049 0.729 2.993 0.532 0.903 1.288 1.602 2.161 2.061 l 15.246 8.653 c 0.832 0.497 1.811 0.784 2.856 0.784 1.045 0 2.023 -0.287 2.856 -0.784 l 15.246 -8.653 c 0.873 -0.46 1.629 -1.158 2.161 -2.061 0.554 -0.944 0.785 -1.981 0.729 -2.993 l 0 -17.01 c 0.056 -1.012 -0.175 -2.052 -0.729 -2.993 -0.532 -0.906 -1.288 -1.604 -2.161 -2.064 l -15.246 -8.653 c -0.832 -0.497 -1.811 -0.784 -2.856 -0.784 z" fill="#1890d0"/></g></clipPath><filter id="filter-752825777"><feGaussianBlur stdDeviation="0.35"/></filter></defs><g><g transform="translate(0,-1004.3622)"><path d="m 45 1037.36 c 0.056 1.013 -0.196 2.056 -0.75 3 -0.532 0.903 -1.283 1.603 -2.156 2.063 l -15.25 8.656 c -0.832 0.497 -1.799 0.781 -2.844 0.781 -1.045 0 -2.01 -0.284 -2.844 -0.781 l -15.25 -8.656 c -0.873 -0.46 -1.625 -1.159 -2.156 -2.063 -0.416 -0.708 -0.677 -1.485 -0.75 -2.25 -0.004 0.932 0.242 1.884 0.75 2.75 0.532 0.903 1.283 1.603 2.156 2.063 l 15.25 8.656 c 0.832 0.497 1.799 0.781 2.844 0.781 1.045 0 2.01 -0.284 2.844 -0.781 l 15.25 -8.656 c 0.873 -0.46 1.625 -1.159 2.156 -2.063 0.554 -0.944 0.806 -1.987 0.75 -3 l 0 -0.5 z" opacity="0.05"/><path d="m 45 1036.86 c 0.015 0.263 -0.004 0.516 -0.031 0.781 -0.036 0.844 -0.259 1.685 -0.719 2.469 -0.532 0.903 -1.283 1.603 -2.156 2.063 l -15.25 8.656 c -0.832 0.497 -1.799 0.781 -2.844 0.781 -1.045 0 -2.01 -0.284 -2.844 -0.781 l -15.25 -8.656 c -0.873 -0.46 -1.625 -1.159 -2.156 -2.063 -0.414 -0.705 -0.621 -1.46 -0.688 -2.219 -0.014 -0.092 -0.054 -0.189 -0.063 -0.281 -0.004 0.932 0.242 1.884 0.75 2.75 0.532 0.903 1.283 1.603 2.156 2.063 l 15.25 8.656 c 0.832 0.497 1.799 0.781 2.844 0.781 1.045 0 2.01 -0.284 2.844 -0.781 l 15.25 -8.656 c 0.873 -0.46 1.625 -1.159 2.156 -2.063 0.554 -0.944 0.806 -1.987 0.75 -3 l 0 -0.5 z m -41.813 1.625 c 0.057 0.219 0.132 0.442 0.219 0.656 -0.088 -0.216 -0.16 -0.436 -0.219 -0.656 z m 0.219 0.656 c 0.099 0.243 0.206 0.484 0.344 0.719 -0.139 -0.236 -0.243 -0.472 -0.344 -0.719 z m 41.41 -0.656 c -0.059 0.221 -0.131 0.441 -0.219 0.656 0.087 -0.215 0.161 -0.437 0.219 -0.656 z m -0.219 0.656 c -0.101 0.246 -0.205 0.483 -0.344 0.719 0.138 -0.235 0.245 -0.476 0.344 -0.719 z" opacity="0.1"/><path d="m 3.03 1037.64 c 0.035 0.844 0.259 1.685 0.719 2.469 0.532 0.903 1.283 1.603 2.156 2.063 l 15.25 8.656 c 0.832 0.497 1.799 0.781 2.844 0.781 1.045 0 2.01 -0.284 2.844 -0.781 l 15.25 -8.656 c 0.873 -0.46 1.625 -1.159 2.156 -2.063 0.46 -0.784 0.683 -1.624 0.719 -2.469 -0.067 0.763 -0.303 1.511 -0.719 2.219 -0.532 0.903 -1.283 1.603 -2.156 2.063 l -15.25 8.656 c -0.832 0.497 -1.799 0.781 -2.844 0.781 -1.045 0 -2.01 -0.284 -2.844 -0.781 l -15.25 -8.656 c -0.873 -0.46 -1.625 -1.159 -2.156 -2.063 -0.416 -0.708 -0.651 -1.456 -0.719 -2.219 z" opacity="0.2"/></g></g><g><path d="m 24 46.996 c 1.045 0 2.023 -0.287 2.856 -0.784 l 15.339 -8.708 c 0.017 -0.013 0.035 -0.013 0.052 -0.021 1.852 -1.051 2.847 -3 2.746 -4.968 l 0 -17.02 c 0.056 -1.013 -0.175 -2.049 -0.729 -2.993 -0.532 -0.903 -1.288 -1.602 -2.161 -2.061 l -15.246 -8.653 c -0.832 -0.497 -1.811 -0.784 -2.856 -0.784 -1.045 0 -2.023 0.287 -2.856 0.784 l -15.246 8.653 c -0.873 0.46 -1.629 1.158 -2.161 2.061 -0.554 0.944 -0.785 1.981 -0.729 2.993 l 0 17.01 c -0.056 1.012 0.175 2.051 0.729 2.993 0.532 0.906 1.288 1.604 2.161 2.064 l 15.246 8.653 c 0.832 0.497 1.811 0.785 2.856 0.785 z" fill="url(#linearGradient3764)" fill-opacity="1"/></g><g><g clip-path="url(#clipPath-794332673)"><g opacity="0.25"><g transform="translate(0,1)"><g filter="url(#filter-752825777)"><!-- color: #7ce55b --><g><path d="m 19.594 30.777 c -0.434 -0.23 -0.949 -0.594 -1.113 -1.02 c -0.008 -0.02 -0.008 -0.027 0.004 -0.031 c 0.004 0 0.156 -0.074 0.34 -0.156 c 2.559 -1.285 9.148 -2.176 12.582 -2.637 c 0.098 0.543 0.133 1.281 -0.281 1.691 c -2.719 2.699 -9.508 3.246 -11.531 2.156 m 0 -0.004" fill="#000"/><path d="m 28.891 27.984 c -0.543 0.641 -1.309 1.059 -2.082 1.391 c 0.211 0.551 0.617 1.152 1.273 1.242 c 0.348 0.031 0.809 0.012 0.973 -0.344 c 0.258 -0.5 0.18 -1.082 0.129 -1.617 c -0.039 -0.242 -0.121 -0.484 -0.293 -0.672 m -7.84 1.949 c -0.031 0.723 0.309 1.535 1.047 1.824 c 0.5 0.203 1.07 -0.148 1.234 -0.613 c 0.117 -0.289 0.215 -0.719 0.082 -0.965 c -0.793 0.047 -1.598 -0.035 -2.363 -0.246 m 5.379 -0.422 c -0.805 0.273 -1.633 0.48 -2.473 0.617 c 0.043 0.734 0.414 1.555 1.184 1.82 c 0.535 0.18 1.133 -0.148 1.336 -0.637 c 0.277 -0.566 0.207 -1.238 -0.047 -1.801 m 0 0" fill="#000"/><path d="m 22.84 20.445 c -1.703 0.301 -3.32 1.23 -4.207 2.676 c -0.969 1.543 -0.918 3.602 0.051 5.129 c 0.715 0.871 1.934 1.066 3.01 1.238 c 1.973 0.246 3.98 -0.223 5.754 -1.047 c 0.844 -0.43 1.676 -0.992 2.164 -1.801 c 0.406 -0.809 0.207 -1.746 0.012 -2.582 c -0.391 -1.453 -1.449 -2.777 -2.938 -3.328 c -1.207 -0.484 -2.57 -0.531 -3.844 -0.285 m -1.84 3.418 c 0.766 -0.137 1.387 0.543 1.633 1.164 c 0.285 0.738 0.316 1.711 -0.313 2.297 c -0.496 0.457 -1.332 0.316 -1.738 -0.18 c -0.621 -0.676 -0.68 -1.684 -0.441 -2.516 c 0.129 -0.371 0.441 -0.703 0.859 -0.766 m 4.621 -0.625 c 0.938 -0.188 1.758 0.656 1.867 1.496 c 0.156 0.742 -0.289 1.609 -1.109 1.754 c -1.023 0.195 -1.926 -0.75 -1.914 -1.691 c -0.035 -0.691 0.414 -1.414 1.156 -1.559 m 0 0" fill="#000"/><path d="m 14.574 23.01 c -1.32 0.25 -2.133 1.57 -2.074 2.809 c -0.043 1.43 1.109 2.805 2.621 2.93 c 1.07 0.129 2.109 -0.539 2.66 -1.379 c -0.32 -0.965 -0.359 -2.02 -0.129 -3 c -0.543 -1.027 -1.754 -1.66 -2.949 -1.379 c -0.043 0.008 -0.086 0.016 -0.129 0.027 m 17.797 -3.207 c -1.918 0.422 -2.73 2.973 -1.563 4.434 c 0.746 1.07 2.32 1.848 3.578 1.105 c 1.594 -0.844 2.191 -3.129 0.938 -4.473 c -0.699 -0.816 -1.859 -1.266 -2.953 -1.066 m -0.332 2.254 c 1.066 -0.207 1.023 1.531 -0.016 1.305 c -0.754 -0.141 -0.719 -1.184 0.016 -1.305 m -15.633 3.03 c 1.082 -0.23 1.047 1.52 0.008 1.305 c -0.738 -0.121 -0.742 -1.176 -0.008 -1.305 m 0 0" fill="#000"/><path d="m 13.852 19.488 c -0.039 0.008 -0.078 0.016 -0.117 0.035 c -0.789 0.211 -2.078 0.992 -1.648 1.871 c 0.809 0.438 1.289 -0.914 2.164 -0.805 c 1.246 0.176 0.805 -1.34 -0.395 -1.094 m 18.82 -3.426 c -0.68 0.129 -1.281 1.207 -0.23 1.184 c 0.746 -0.227 1.469 0.113 2.16 0.348 c 0.688 -0.59 -0.191 -1.277 -0.797 -1.457 c -0.309 -0.133 -0.668 -0.199 -0.996 -0.086 c -0.047 -0.004 -0.094 0.004 -0.137 0.012 m 0 0" fill="#000"/></g></g></g></g></g></g><g><g clip-path="url(#clipPath-813861340)"><!-- color: #7ce55b --><g><path d="m 19.594 30.777 c -0.434 -0.23 -0.949 -0.594 -1.113 -1.02 c -0.008 -0.02 -0.008 -0.027 0.004 -0.031 c 0.004 0 0.156 -0.074 0.34 -0.156 c 2.559 -1.285 9.148 -2.176 12.582 -2.637 c 0.098 0.543 0.133 1.281 -0.281 1.691 c -2.719 2.699 -9.508 3.246 -11.531 2.156 m 0 -0.004" fill="#3c5833"/><path d="m 28.891 27.984 c -0.543 0.641 -1.309 1.059 -2.082 1.391 c 0.211 0.551 0.617 1.152 1.273 1.242 c 0.348 0.031 0.809 0.012 0.973 -0.344 c 0.258 -0.5 0.18 -1.082 0.129 -1.617 c -0.039 -0.242 -0.121 -0.484 -0.293 -0.672 m -7.84 1.949 c -0.031 0.723 0.309 1.535 1.047 1.824 c 0.5 0.203 1.07 -0.148 1.234 -0.613 c 0.117 -0.289 0.215 -0.719 0.082 -0.965 c -0.793 0.047 -1.598 -0.035 -2.363 -0.246 m 5.379 -0.422 c -0.805 0.273 -1.633 0.48 -2.473 0.617 c 0.043 0.734 0.414 1.555 1.184 1.82 c 0.535 0.18 1.133 -0.148 1.336 -0.637 c 0.277 -0.566 0.207 -1.238 -0.047 -1.801 m 0 0" fill="#f9f9f9"/><path d="m 22.84 20.445 c -1.703 0.301 -3.32 1.23 -4.207 2.676 c -0.969 1.543 -0.918 3.602 0.051 5.129 c 0.715 0.871 1.934 1.066 3.01 1.238 c 1.973 0.246 3.98 -0.223 5.754 -1.047 c 0.844 -0.43 1.676 -0.992 2.164 -1.801 c 0.406 -0.809 0.207 -1.746 0.012 -2.582 c -0.391 -1.453 -1.449 -2.777 -2.938 -3.328 c -1.207 -0.484 -2.57 -0.531 -3.844 -0.285 m -1.84 3.418 c 0.766 -0.137 1.387 0.543 1.633 1.164 c 0.285 0.738 0.316 1.711 -0.313 2.297 c -0.496 0.457 -1.332 0.316 -1.738 -0.18 c -0.621 -0.676 -0.68 -1.684 -0.441 -2.516 c 0.129 -0.371 0.441 -0.703 0.859 -0.766 m 4.621 -0.625 c 0.938 -0.188 1.758 0.656 1.867 1.496 c 0.156 0.742 -0.289 1.609 -1.109 1.754 c -1.023 0.195 -1.926 -0.75 -1.914 -1.691 c -0.035 -0.691 0.414 -1.414 1.156 -1.559 m 0 0" fill="#f9ff86"/><path d="m 14.574 23.01 c -1.32 0.25 -2.133 1.57 -2.074 2.809 c -0.043 1.43 1.109 2.805 2.621 2.93 c 1.07 0.129 2.109 -0.539 2.66 -1.379 c -0.32 -0.965 -0.359 -2.02 -0.129 -3 c -0.543 -1.027 -1.754 -1.66 -2.949 -1.379 c -0.043 0.008 -0.086 0.016 -0.129 0.027 m 17.797 -3.207 c -1.918 0.422 -2.73 2.973 -1.563 4.434 c 0.746 1.07 2.32 1.848 3.578 1.105 c 1.594 -0.844 2.191 -3.129 0.938 -4.473 c -0.699 -0.816 -1.859 -1.266 -2.953 -1.066 m -0.332 2.254 c 1.066 -0.207 1.023 1.531 -0.016 1.305 c -0.754 -0.141 -0.719 -1.184 0.016 -1.305 m -15.633 3.03 c 1.082 -0.23 1.047 1.52 0.008 1.305 c -0.738 -0.121 -0.742 -1.176 -0.008 -1.305 m 0 0" fill="#f9f9f9"/><path d="m 13.852 19.488 c -0.039 0.008 -0.078 0.016 -0.117 0.035 c -0.789 0.211 -2.078 0.992 -1.648 1.871 c 0.809 0.438 1.289 -0.914 2.164 -0.805 c 1.246 0.176 0.805 -1.34 -0.395 -1.094 m 18.82 -3.426 c -0.68 0.129 -1.281 1.207 -0.23 1.184 c 0.746 -0.227 1.469 0.113 2.16 0.348 c 0.688 -0.59 -0.191 -1.277 -0.797 -1.457 c -0.309 -0.133 -0.668 -0.199 -0.996 -0.086 c -0.047 -0.004 -0.094 0.004 -0.137 0.012 m 0 0" fill="#3c5833"/></g></g></g><g><path d="m 24 1 c -1.045 0 -2.01 0.284 -2.844 0.781 l -15.344 8.719 c -0.017 0.013 -0.045 0.023 -0.063 0.031 c -1.852 1.051 -2.851 3 -2.75 4.969 l 0 1 c -0.101 -1.966 0.898 -3.918 2.75 -4.969 c 0.017 -0.008 0.045 -0.018 0.063 -0.031 l 15.344 -8.719 c 0.832 -0.497 1.799 -0.781 2.844 -0.781 c 1.045 0 2.01 0.284 2.844 0.781 l 15.25 8.656 c 0.873 0.46 1.625 1.156 2.156 2.063 c 0.554 0.942 0.806 1.988 0.75 3 l 0 -1 c 0.056 -1.012 -0.196 -2.058 -0.75 -3 c -0.532 -0.906 -1.283 -1.603 -2.156 -2.063 l -15.25 -8.656 c -0.832 -0.497 -1.799 -0.781 -2.844 -0.781 z" opacity="0.2" fill="#fff"/></g></svg>