<svg viewBox="0 0 48 48"><defs><linearGradient id="linearGradient3764" y1="1" x2="0" y2="47" gradientUnits="userSpaceOnUse"><stop stop-color="#c00033" stop-opacity="1"/><stop offset="1" stop-color="#ac002d" stop-opacity="1"/></linearGradient><clipPath id="clipPath-045205903"><g transform="translate(0,-1004.3622)"><path d="m 24 1005.37 c -1.045 0 -2.023 0.287 -2.856 0.784 l -15.339 8.708 c -0.017 0.013 -0.035 0.013 -0.052 0.021 -1.852 1.051 -2.847 3 -2.746 4.968 l 0 17.02 c -0.056 1.013 0.175 2.049 0.729 2.993 0.532 0.903 1.288 1.602 2.161 2.061 l 15.246 8.653 c 0.832 0.497 1.811 0.784 2.856 0.784 1.045 0 2.023 -0.287 2.856 -0.784 l 15.246 -8.653 c 0.873 -0.46 1.629 -1.158 2.161 -2.061 0.554 -0.944 0.785 -1.981 0.729 -2.993 l 0 -17.01 c 0.056 -1.012 -0.175 -2.052 -0.729 -2.993 -0.532 -0.906 -1.288 -1.604 -2.161 -2.064 l -15.246 -8.653 c -0.832 -0.497 -1.811 -0.784 -2.856 -0.784 z" fill="#1890d0"/></g></clipPath><clipPath id="clipPath-054818441"><g transform="translate(0,-1004.3622)"><path d="m 24 1005.37 c -1.045 0 -2.023 0.287 -2.856 0.784 l -15.339 8.708 c -0.017 0.013 -0.035 0.013 -0.052 0.021 -1.852 1.051 -2.847 3 -2.746 4.968 l 0 17.02 c -0.056 1.013 0.175 2.049 0.729 2.993 0.532 0.903 1.288 1.602 2.161 2.061 l 15.246 8.653 c 0.832 0.497 1.811 0.784 2.856 0.784 1.045 0 2.023 -0.287 2.856 -0.784 l 15.246 -8.653 c 0.873 -0.46 1.629 -1.158 2.161 -2.061 0.554 -0.944 0.785 -1.981 0.729 -2.993 l 0 -17.01 c 0.056 -1.012 -0.175 -2.052 -0.729 -2.993 -0.532 -0.906 -1.288 -1.604 -2.161 -2.064 l -15.246 -8.653 c -0.832 -0.497 -1.811 -0.784 -2.856 -0.784 z" fill="#1890d0"/></g></clipPath><filter id="filter-025525775"><feGaussianBlur stdDeviation="0.35"/></filter></defs><g><g transform="translate(0,-1004.3622)"><path d="m 45 1037.36 c 0.056 1.013 -0.196 2.056 -0.75 3 -0.532 0.903 -1.283 1.603 -2.156 2.063 l -15.25 8.656 c -0.832 0.497 -1.799 0.781 -2.844 0.781 -1.045 0 -2.01 -0.284 -2.844 -0.781 l -15.25 -8.656 c -0.873 -0.46 -1.625 -1.159 -2.156 -2.063 -0.416 -0.708 -0.677 -1.485 -0.75 -2.25 -0.004 0.932 0.242 1.884 0.75 2.75 0.532 0.903 1.283 1.603 2.156 2.063 l 15.25 8.656 c 0.832 0.497 1.799 0.781 2.844 0.781 1.045 0 2.01 -0.284 2.844 -0.781 l 15.25 -8.656 c 0.873 -0.46 1.625 -1.159 2.156 -2.063 0.554 -0.944 0.806 -1.987 0.75 -3 l 0 -0.5 z" opacity="0.05"/><path d="m 45 1036.86 c 0.015 0.263 -0.004 0.516 -0.031 0.781 -0.036 0.844 -0.259 1.685 -0.719 2.469 -0.532 0.903 -1.283 1.603 -2.156 2.063 l -15.25 8.656 c -0.832 0.497 -1.799 0.781 -2.844 0.781 -1.045 0 -2.01 -0.284 -2.844 -0.781 l -15.25 -8.656 c -0.873 -0.46 -1.625 -1.159 -2.156 -2.063 -0.414 -0.705 -0.621 -1.46 -0.688 -2.219 -0.014 -0.092 -0.054 -0.189 -0.063 -0.281 -0.004 0.932 0.242 1.884 0.75 2.75 0.532 0.903 1.283 1.603 2.156 2.063 l 15.25 8.656 c 0.832 0.497 1.799 0.781 2.844 0.781 1.045 0 2.01 -0.284 2.844 -0.781 l 15.25 -8.656 c 0.873 -0.46 1.625 -1.159 2.156 -2.063 0.554 -0.944 0.806 -1.987 0.75 -3 l 0 -0.5 z m -41.813 1.625 c 0.057 0.219 0.132 0.442 0.219 0.656 -0.088 -0.216 -0.16 -0.436 -0.219 -0.656 z m 0.219 0.656 c 0.099 0.243 0.206 0.484 0.344 0.719 -0.139 -0.236 -0.243 -0.472 -0.344 -0.719 z m 41.41 -0.656 c -0.059 0.221 -0.131 0.441 -0.219 0.656 0.087 -0.215 0.161 -0.437 0.219 -0.656 z m -0.219 0.656 c -0.101 0.246 -0.205 0.483 -0.344 0.719 0.138 -0.235 0.245 -0.476 0.344 -0.719 z" opacity="0.1"/><path d="m 3.03 1037.64 c 0.035 0.844 0.259 1.685 0.719 2.469 0.532 0.903 1.283 1.603 2.156 2.063 l 15.25 8.656 c 0.832 0.497 1.799 0.781 2.844 0.781 1.045 0 2.01 -0.284 2.844 -0.781 l 15.25 -8.656 c 0.873 -0.46 1.625 -1.159 2.156 -2.063 0.46 -0.784 0.683 -1.624 0.719 -2.469 -0.067 0.763 -0.303 1.511 -0.719 2.219 -0.532 0.903 -1.283 1.603 -2.156 2.063 l -15.25 8.656 c -0.832 0.497 -1.799 0.781 -2.844 0.781 -1.045 0 -2.01 -0.284 -2.844 -0.781 l -15.25 -8.656 c -0.873 -0.46 -1.625 -1.159 -2.156 -2.063 -0.416 -0.708 -0.651 -1.456 -0.719 -2.219 z" opacity="0.2"/></g></g><g><path d="m 24 46.996 c 1.045 0 2.023 -0.287 2.856 -0.784 l 15.339 -8.708 c 0.017 -0.013 0.035 -0.013 0.052 -0.021 1.852 -1.051 2.847 -3 2.746 -4.968 l 0 -17.02 c 0.056 -1.013 -0.175 -2.049 -0.729 -2.993 -0.532 -0.903 -1.288 -1.602 -2.161 -2.061 l -15.246 -8.653 c -0.832 -0.497 -1.811 -0.784 -2.856 -0.784 -1.045 0 -2.023 0.287 -2.856 0.784 l -15.246 8.653 c -0.873 0.46 -1.629 1.158 -2.161 2.061 -0.554 0.944 -0.785 1.981 -0.729 2.993 l 0 17.01 c -0.056 1.012 0.175 2.051 0.729 2.993 0.532 0.906 1.288 1.604 2.161 2.064 l 15.246 8.653 c 0.832 0.497 1.811 0.785 2.856 0.785 z" fill="url(#linearGradient3764)" fill-opacity="1"/></g><g><g clip-path="url(#clipPath-045205903)"><g opacity="0.25"><g transform="translate(0,1)"><g filter="url(#filter-025525775)"><!-- color: #c00033 --><g><path d="m 20.07 11.25 c -0.113 0 -4.598 2.66 -4.77 2.832 c -0.094 0.09 -0.074 0.16 0.141 0.516 c 2.367 3.898 3.945 6.594 3.891 6.641 c -0.035 0.035 -1.465 0.016 -3.168 -0.035 c -1.707 -0.055 -3.496 -0.102 -3.98 -0.105 l -0.875 -0.004 l -0.043 2.848 c -0.027 1.676 -0.02 2.875 0.023 2.918 c 0.063 0.07 5.04 -0.043 7.086 -0.16 c 0.707 -0.039 0.855 -0.027 0.891 0.066 c 0.027 0.066 -0.293 0.68 -0.742 1.426 c -0.43 0.719 -1.355 2.266 -2.051 3.43 c -0.695 1.164 -1.25 2.156 -1.23 2.207 c 0.047 0.129 4.594 2.797 4.773 2.801 c 0.141 0.004 1.176 -1.879 3.543 -6.43 c 0.176 -0.34 0.371 -0.617 0.434 -0.617 c 0.066 0 0.762 1.25 1.793 3.215 c 2.129 4.066 2.07 3.953 2.109 3.953 c 0.02 0 0.52 -0.293 1.113 -0.648 c 0.59 -0.352 1.68 -1 2.418 -1.441 c 0.738 -0.438 1.344 -0.828 1.344 -0.867 c 0 -0.039 -0.703 -1.246 -1.566 -2.684 c -0.863 -1.438 -1.797 -2.996 -2.074 -3.465 c -0.289 -0.48 -0.484 -0.883 -0.449 -0.922 c 0.039 -0.039 1.781 -0.016 3.988 0.047 c 2.156 0.066 3.953 0.094 3.988 0.059 c 0.086 -0.082 0.133 -5.719 0.051 -5.773 c -0.035 -0.023 -1.68 0.012 -3.648 0.074 c -4.281 0.141 -4.375 0.141 -4.375 0.039 c 0 -0.047 0.688 -1.223 1.527 -2.617 c 2.504 -4.164 2.629 -4.379 2.594 -4.434 c -0.016 -0.031 -0.449 -0.301 -0.961 -0.602 c -0.512 -0.297 -1.582 -0.934 -2.379 -1.406 c -0.801 -0.473 -1.488 -0.859 -1.527 -0.859 c -0.063 0 -1.59 2.82 -3.234 5.984 c -0.391 0.75 -0.633 1.137 -0.707 1.125 c -0.059 -0.012 -0.945 -1.613 -1.965 -3.563 c -1.059 -2.02 -1.902 -3.547 -1.961 -3.547 m 0 0" stroke="#f9f9f9" stroke-width="0.5" fill="#000"/></g></g></g></g></g></g><g><g clip-path="url(#clipPath-054818441)"><!-- color: #c00033 --><g><path d="m 20.07 11.25 c -0.113 0 -4.598 2.66 -4.77 2.832 c -0.094 0.09 -0.074 0.16 0.141 0.516 c 2.367 3.898 3.945 6.594 3.891 6.641 c -0.035 0.035 -1.465 0.016 -3.168 -0.035 c -1.707 -0.055 -3.496 -0.102 -3.98 -0.105 l -0.875 -0.004 l -0.043 2.848 c -0.027 1.676 -0.02 2.875 0.023 2.918 c 0.063 0.07 5.04 -0.043 7.086 -0.16 c 0.707 -0.039 0.855 -0.027 0.891 0.066 c 0.027 0.066 -0.293 0.68 -0.742 1.426 c -0.43 0.719 -1.355 2.266 -2.051 3.43 c -0.695 1.164 -1.25 2.156 -1.23 2.207 c 0.047 0.129 4.594 2.797 4.773 2.801 c 0.141 0.004 1.176 -1.879 3.543 -6.43 c 0.176 -0.34 0.371 -0.617 0.434 -0.617 c 0.066 0 0.762 1.25 1.793 3.215 c 2.129 4.066 2.07 3.953 2.109 3.953 c 0.02 0 0.52 -0.293 1.113 -0.648 c 0.59 -0.352 1.68 -1 2.418 -1.441 c 0.738 -0.438 1.344 -0.828 1.344 -0.867 c 0 -0.039 -0.703 -1.246 -1.566 -2.684 c -0.863 -1.438 -1.797 -2.996 -2.074 -3.465 c -0.289 -0.48 -0.484 -0.883 -0.449 -0.922 c 0.039 -0.039 1.781 -0.016 3.988 0.047 c 2.156 0.066 3.953 0.094 3.988 0.059 c 0.086 -0.082 0.133 -5.719 0.051 -5.773 c -0.035 -0.023 -1.68 0.012 -3.648 0.074 c -4.281 0.141 -4.375 0.141 -4.375 0.039 c 0 -0.047 0.688 -1.223 1.527 -2.617 c 2.504 -4.164 2.629 -4.379 2.594 -4.434 c -0.016 -0.031 -0.449 -0.301 -0.961 -0.602 c -0.512 -0.297 -1.582 -0.934 -2.379 -1.406 c -0.801 -0.473 -1.488 -0.859 -1.527 -0.859 c -0.063 0 -1.59 2.82 -3.234 5.984 c -0.391 0.75 -0.633 1.137 -0.707 1.125 c -0.059 -0.012 -0.945 -1.613 -1.965 -3.563 c -1.059 -2.02 -1.902 -3.547 -1.961 -3.547 m 0 0" fill="#f9f9f9" stroke="#f9f9f9" stroke-width="0.5"/></g></g></g><g><path d="m 24 1 c -1.045 0 -2.01 0.284 -2.844 0.781 l -15.344 8.719 c -0.017 0.013 -0.045 0.023 -0.063 0.031 c -1.852 1.051 -2.851 3 -2.75 4.969 l 0 1 c -0.101 -1.966 0.898 -3.918 2.75 -4.969 c 0.017 -0.008 0.045 -0.018 0.063 -0.031 l 15.344 -8.719 c 0.832 -0.497 1.799 -0.781 2.844 -0.781 c 1.045 0 2.01 0.284 2.844 0.781 l 15.25 8.656 c 0.873 0.46 1.625 1.156 2.156 2.063 c 0.554 0.942 0.806 1.988 0.75 3 l 0 -1 c 0.056 -1.012 -0.196 -2.058 -0.75 -3 c -0.532 -0.906 -1.283 -1.603 -2.156 -2.063 l -15.25 -8.656 c -0.832 -0.497 -1.799 -0.781 -2.844 -0.781 z" opacity="0.2" fill="#fff"/></g></svg>