<?xml version="1.0" encoding="UTF-8" standalone="no"?>
<svg
   xmlns:dc="http://purl.org/dc/elements/1.1/"
   xmlns:cc="http://creativecommons.org/ns#"
   xmlns:rdf="http://www.w3.org/1999/02/22-rdf-syntax-ns#"
   xmlns:svg="http://www.w3.org/2000/svg"
   xmlns="http://www.w3.org/2000/svg"
   xmlns:sodipodi="http://sodipodi.sourceforge.net/DTD/sodipodi-0.dtd"
   xmlns:inkscape="http://www.inkscape.org/namespaces/inkscape"
   viewBox="0 0 48 48"
   id="svg2"
   version="1.1"
   inkscape:version="0.48.4 r9939"
   width="100%"
   height="100%"
   sodipodi:docname="com_android_deskclock.svg">
  <metadata
     id="metadata88">
    <rdf:RDF>
      <cc:Work
         rdf:about="">
        <dc:format>image/svg+xml</dc:format>
        <dc:type
           rdf:resource="http://purl.org/dc/dcmitype/StillImage" />
      </cc:Work>
    </rdf:RDF>
  </metadata>
  <sodipodi:namedview
     pagecolor="#ffffff"
     bordercolor="#666666"
     borderopacity="1"
     objecttolerance="10"
     gridtolerance="10"
     guidetolerance="10"
     inkscape:pageopacity="0"
     inkscape:pageshadow="2"
     inkscape:window-width="1280"
     inkscape:window-height="960"
     id="namedview86"
     showgrid="false"
     inkscape:zoom="9.8333333"
     inkscape:cx="24.250686"
     inkscape:cy="31.665647"
     inkscape:window-x="0"
     inkscape:window-y="0"
     inkscape:window-maximized="1"
     inkscape:current-layer="svg2" />
  <defs
     id="defs4">
    <linearGradient
       id="1"
       gradientUnits="userSpaceOnUse"
       x1="24"
       y1="1005.36"
       x2="25"
       y2="1051.36"
       gradientTransform="translate(0,-1004.3622)">
      <stop
         stop-opacity="0"
         id="stop7" />
      <stop
         offset="1"
         id="stop9" />
    </linearGradient>
    <clipPath
       id="clipPath-304324786">
      <g
         transform="translate(0,-1004.3622)"
         id="g12">
        <path
           d="m 24 1005.37 c -1.045 0 -2.023 0.287 -2.856 0.784 l -15.339 8.708 c -0.017 0.013 -0.035 0.013 -0.052 0.021 -1.852 1.051 -2.847 3 -2.746 4.968 l 0 17.02 c -0.056 1.013 0.175 2.049 0.729 2.993 0.532 0.903 1.288 1.602 2.161 2.061 l 15.246 8.653 c 0.832 0.497 1.811 0.784 2.856 0.784 1.045 0 2.023 -0.287 2.856 -0.784 l 15.246 -8.653 c 0.873 -0.46 1.629 -1.158 2.161 -2.061 0.554 -0.944 0.785 -1.981 0.729 -2.993 l 0 -17.01 c 0.056 -1.012 -0.175 -2.052 -0.729 -2.993 -0.532 -0.906 -1.288 -1.604 -2.161 -2.064 l -15.246 -8.653 c -0.832 -0.497 -1.811 -0.784 -2.856 -0.784 z"
           fill="#1890d0"
           id="path14" />
      </g>
    </clipPath>
    <clipPath
       id="clipPath-312312344">
      <g
         transform="translate(0,-1004.3622)"
         id="g17">
        <path
           d="m 24 1005.37 c -1.045 0 -2.023 0.287 -2.856 0.784 l -15.339 8.708 c -0.017 0.013 -0.035 0.013 -0.052 0.021 -1.852 1.051 -2.847 3 -2.746 4.968 l 0 17.02 c -0.056 1.013 0.175 2.049 0.729 2.993 0.532 0.903 1.288 1.602 2.161 2.061 l 15.246 8.653 c 0.832 0.497 1.811 0.784 2.856 0.784 1.045 0 2.023 -0.287 2.856 -0.784 l 15.246 -8.653 c 0.873 -0.46 1.629 -1.158 2.161 -2.061 0.554 -0.944 0.785 -1.981 0.729 -2.993 l 0 -17.01 c 0.056 -1.012 -0.175 -2.052 -0.729 -2.993 -0.532 -0.906 -1.288 -1.604 -2.161 -2.064 l -15.246 -8.653 c -0.832 -0.497 -1.811 -0.784 -2.856 -0.784 z"
           fill="#1890d0"
           id="path19" />
      </g>
    </clipPath>
    <filter
       id="filter-283960403">
      <feGaussianBlur
         stdDeviation="0.35"
         id="feGaussianBlur22" />
    </filter>
    <filter
       inkscape:collect="always"
       id="filter3907">
      <feGaussianBlur
         inkscape:collect="always"
         stdDeviation="0.17347522"
         id="feGaussianBlur3909" />
    </filter>
  </defs>
  <g
     id="g24">
    <g
       transform="translate(0,-1004.3622)"
       id="g26">
      <path
         d="m 45 1037.36 c 0.056 1.013 -0.196 2.056 -0.75 3 -0.532 0.903 -1.283 1.603 -2.156 2.063 l -15.25 8.656 c -0.832 0.497 -1.799 0.781 -2.844 0.781 -1.045 0 -2.01 -0.284 -2.844 -0.781 l -15.25 -8.656 c -0.873 -0.46 -1.625 -1.159 -2.156 -2.063 -0.416 -0.708 -0.677 -1.485 -0.75 -2.25 -0.004 0.932 0.242 1.884 0.75 2.75 0.532 0.903 1.283 1.603 2.156 2.063 l 15.25 8.656 c 0.832 0.497 1.799 0.781 2.844 0.781 1.045 0 2.01 -0.284 2.844 -0.781 l 15.25 -8.656 c 0.873 -0.46 1.625 -1.159 2.156 -2.063 0.554 -0.944 0.806 -1.987 0.75 -3 l 0 -0.5 z"
         opacity="0.05"
         id="path28" />
      <path
         d="m 45 1036.86 c 0.015 0.263 -0.004 0.516 -0.031 0.781 -0.036 0.844 -0.259 1.685 -0.719 2.469 -0.532 0.903 -1.283 1.603 -2.156 2.063 l -15.25 8.656 c -0.832 0.497 -1.799 0.781 -2.844 0.781 -1.045 0 -2.01 -0.284 -2.844 -0.781 l -15.25 -8.656 c -0.873 -0.46 -1.625 -1.159 -2.156 -2.063 -0.414 -0.705 -0.621 -1.46 -0.688 -2.219 -0.014 -0.092 -0.054 -0.189 -0.063 -0.281 -0.004 0.932 0.242 1.884 0.75 2.75 0.532 0.903 1.283 1.603 2.156 2.063 l 15.25 8.656 c 0.832 0.497 1.799 0.781 2.844 0.781 1.045 0 2.01 -0.284 2.844 -0.781 l 15.25 -8.656 c 0.873 -0.46 1.625 -1.159 2.156 -2.063 0.554 -0.944 0.806 -1.987 0.75 -3 l 0 -0.5 z m -41.813 1.625 c 0.057 0.219 0.132 0.442 0.219 0.656 -0.088 -0.216 -0.16 -0.436 -0.219 -0.656 z m 0.219 0.656 c 0.099 0.243 0.206 0.484 0.344 0.719 -0.139 -0.236 -0.243 -0.472 -0.344 -0.719 z m 41.41 -0.656 c -0.059 0.221 -0.131 0.441 -0.219 0.656 0.087 -0.215 0.161 -0.437 0.219 -0.656 z m -0.219 0.656 c -0.101 0.246 -0.205 0.483 -0.344 0.719 0.138 -0.235 0.245 -0.476 0.344 -0.719 z"
         opacity="0.1"
         id="path30" />
      <path
         d="m 3.03 1037.64 c 0.035 0.844 0.259 1.685 0.719 2.469 0.532 0.903 1.283 1.603 2.156 2.063 l 15.25 8.656 c 0.832 0.497 1.799 0.781 2.844 0.781 1.045 0 2.01 -0.284 2.844 -0.781 l 15.25 -8.656 c 0.873 -0.46 1.625 -1.159 2.156 -2.063 0.46 -0.784 0.683 -1.624 0.719 -2.469 -0.067 0.763 -0.303 1.511 -0.719 2.219 -0.532 0.903 -1.283 1.603 -2.156 2.063 l -15.25 8.656 c -0.832 0.497 -1.799 0.781 -2.844 0.781 -1.045 0 -2.01 -0.284 -2.844 -0.781 l -15.25 -8.656 c -0.873 -0.46 -1.625 -1.159 -2.156 -2.063 -0.416 -0.708 -0.651 -1.456 -0.719 -2.219 z"
         opacity="0.2"
         id="path32" />
    </g>
  </g>
  <g
     id="g34">
    <g
       transform="translate(0,-1004.3622)"
       id="g36">
      <path
         d="m 24 1005.37 c -1.045 0 -2.023 0.287 -2.856 0.784 l -15.339 8.708 c -0.017 0.013 -0.035 0.013 -0.052 0.021 -1.852 1.051 -2.847 3 -2.746 4.968 l 0 17.02 c -0.056 1.013 0.175 2.049 0.729 2.993 0.532 0.903 1.288 1.602 2.161 2.061 l 15.246 8.653 c 0.832 0.497 1.811 0.784 2.856 0.784 1.045 0 2.023 -0.287 2.856 -0.784 l 15.246 -8.653 c 0.873 -0.46 1.629 -1.158 2.161 -2.061 0.554 -0.944 0.785 -1.981 0.729 -2.993 l 0 -17.01 c 0.056 -1.012 -0.175 -2.052 -0.729 -2.993 -0.532 -0.906 -1.288 -1.604 -2.161 -2.064 l -15.246 -8.653 c -0.832 -0.497 -1.811 -0.784 -2.856 -0.784 z"
         id="path38"
         fill="#32ad98" />
    </g>
  </g>
  <path
     style="fill:#636363;fill-opacity:0.24705882;filter:url(#filter3907)"
     inkscape:connector-curvature="0"
     d="m 23.999876,4.8545483 c -0.915612,0 -1.77252,0.2514648 -2.502381,0.6869283 L 8.0577077,13.171287 c -0.014895,0.01139 -0.030667,0.01139 -0.045562,0.0184 -1.6226929,0.920869 -2.494496,2.628552 -2.4060014,4.352882 l 0,14.912653 c -0.049066,0.887574 0.1533322,1.795301 0.6387382,2.622419 0.4661299,0.791194 1.128525,1.403646 1.8934337,1.805815 l 13.3583014,7.58162 c 0.728986,0.435464 1.58677,0.686929 2.502382,0.686929 0.915612,0 1.77252,-0.251465 2.502382,-0.686929 l 13.358302,-7.58162 c 0.764908,-0.403045 1.427303,-1.014621 1.893433,-1.805815 0.485406,-0.827118 0.687805,-1.735721 0.638738,-2.622419 l 0,-14.903891 c 0.04907,-0.886698 -0.153332,-1.797929 -0.638738,-2.622419 -0.46613,-0.793822 -1.128525,-1.405399 -1.893433,-1.808443 L 26.501382,5.538848 C 25.772397,5.1033846 24.914612,4.8519197 23.999,4.8519197 z"
     id="path3096" />
  <g
     id="g40"
     transform="translate(0.001162,0.007)">
    <path
       d="M 24,1 C 22.955,1 21.977,1.287 21.144,1.784 L 5.805,10.492 c -0.017,0.013 -0.035,0.013 -0.052,0.021 -1.852,1.051 -2.847,3 -2.746,4.968 l 0,17.02 c -0.056,1.013 0.175,2.049 0.729,2.993 0.532,0.904 1.288,1.602 2.161,2.061 l 15.246,8.653 c 0.832,0.497 1.811,0.785 2.856,0.785 1.045,0 2.023,-0.287 2.856,-0.785 l 15.246,-8.653 c 0.873,-0.46 1.629,-1.158 2.161,-2.061 0.554,-0.944 0.785,-1.981 0.729,-2.993 l 0,-17.01 C 45.047,14.479 44.816,13.439 44.262,12.498 43.73,11.592 42.974,10.894 42.101,10.434 L 26.855,1.781 C 26.023,1.284 25.044,0.996 23.999,0.996 z"
       id="path42"
       style="opacity:0.15;fill:url(#1)"
       inkscape:connector-curvature="0" />
  </g>
  <g
     id="use3065"
     transform="matrix(0.87618404,0,0,0.87618404,2.9714593,2.9718679)"
     style="fill:#eaeaea;fill-opacity:1">
    <g
       id="g3069"
       transform="translate(0,-1004.3622)"
       style="fill:#eaeaea;fill-opacity:1">
      <path
         id="path3071"
         d="m 24,1005.37 c -1.045,0 -2.023,0.287 -2.856,0.784 l -15.339,8.708 c -0.017,0.013 -0.035,0.013 -0.052,0.021 -1.852,1.051 -2.847,3 -2.746,4.968 l 0,17.02 c -0.056,1.013 0.175,2.049 0.729,2.993 0.532,0.903 1.288,1.602 2.161,2.061 l 15.246,8.653 c 0.832,0.497 1.811,0.784 2.856,0.784 1.045,0 2.023,-0.287 2.856,-0.784 l 15.246,-8.653 c 0.873,-0.46 1.629,-1.158 2.161,-2.061 0.554,-0.944 0.785,-1.981 0.729,-2.993 l 0,-17.01 c 0.056,-1.012 -0.175,-2.052 -0.729,-2.993 -0.532,-0.906 -1.288,-1.604 -2.161,-2.064 l -15.246,-8.653 c -0.832,-0.497 -1.811,-0.784 -2.856,-0.784 z"
         inkscape:connector-curvature="0"
         style="fill:#eaeaea;fill-opacity:1" />
    </g>
  </g>
  <path
     style="fill:#2d2d2d"
     inkscape:connector-curvature="0"
     id="path74"
     d="M 22.438,23.73 17.27,18.562 c -0.359,-0.359 -0.359,-0.938 0,-1.293 0.355,-0.359 0.934,-0.359 1.293,0 l 5.168,5.168 c 0.359,0.359 0.359,0.938 0,1.293 -0.355,0.359 -0.934,0.359 -1.293,0 m 0,0" />
  <path
     style="fill:#2d2d2d"
     inkscape:connector-curvature="0"
     id="path76"
     d="m 23.934,23 13.13,0 c 0.516,0 0.938,0.418 0.938,0.934 l 0,0.129 c 0,0.516 -0.422,0.934 -0.938,0.934 l -13.13,0 C 23.418,24.997 23,24.579 23,24.063 l 0,-0.129 C 23,23.418 23.418,23 23.934,23 m 0,0" />
  <path
     style="fill:#3085ab"
     inkscape:connector-curvature="0"
     id="path78"
     d="m 16.555,36.25 7.06,-13 c 0.133,-0.238 0.418,-0.32 0.645,-0.184 0.227,0.137 0.301,0.445 0.172,0.684 l -7.06,13 c -0.129,0.238 -0.418,0.32 -0.645,0.184 -0.223,-0.141 -0.301,-0.445 -0.172,-0.684 m 0,0" />
  <path
     style="fill:#2d2d2d"
     inkscape:connector-curvature="0"
     id="path80"
     d="m 27,24 c 0,1.656 -1.344,2.996 -3,2.996 -1.656,0 -3,-1.34 -3,-2.996 0,-1.66 1.344,-3 3,-3 1.66,0 3,1.344 3,3 m 0,0" />
  <g
     id="g82">
    <path
       d="m 24 1 c -1.045 0 -2.01 0.284 -2.844 0.781 l -15.344 8.719 c -0.017 0.013 -0.045 0.023 -0.063 0.031 c -1.852 1.051 -2.851 3 -2.75 4.969 l 0 1 c -0.101 -1.966 0.898 -3.918 2.75 -4.969 c 0.017 -0.008 0.045 -0.018 0.063 -0.031 l 15.344 -8.719 c 0.832 -0.497 1.799 -0.781 2.844 -0.781 c 1.045 0 2.01 0.284 2.844 0.781 l 15.25 8.656 c 0.873 0.46 1.625 1.156 2.156 2.063 c 0.554 0.942 0.806 1.988 0.75 3 l 0 -1 c 0.056 -1.012 -0.196 -2.058 -0.75 -3 c -0.532 -0.906 -1.283 -1.603 -2.156 -2.063 l -15.25 -8.656 c -0.832 -0.497 -1.799 -0.781 -2.844 -0.781 z"
       opacity="0.2"
       fill="#fff"
       id="path84" />
  </g>
</svg>
