<svg viewBox="0 0 48 48"><defs><linearGradient id="linearGradient3764" y1="1" x2="0" y2="47" gradientUnits="userSpaceOnUse"><stop stop-color="#535353" stop-opacity="1"/><stop offset="1" stop-color="#494949" stop-opacity="1"/></linearGradient><clipPath id="clipPath-719223852"><g transform="translate(0,-1004.3622)"><path d="m 24 1005.37 c -1.045 0 -2.023 0.287 -2.856 0.784 l -15.339 8.708 c -0.017 0.013 -0.035 0.013 -0.052 0.021 -1.852 1.051 -2.847 3 -2.746 4.968 l 0 17.02 c -0.056 1.013 0.175 2.049 0.729 2.993 0.532 0.903 1.288 1.602 2.161 2.061 l 15.246 8.653 c 0.832 0.497 1.811 0.784 2.856 0.784 1.045 0 2.023 -0.287 2.856 -0.784 l 15.246 -8.653 c 0.873 -0.46 1.629 -1.158 2.161 -2.061 0.554 -0.944 0.785 -1.981 0.729 -2.993 l 0 -17.01 c 0.056 -1.012 -0.175 -2.052 -0.729 -2.993 -0.532 -0.906 -1.288 -1.604 -2.161 -2.064 l -15.246 -8.653 c -0.832 -0.497 -1.811 -0.784 -2.856 -0.784 z" fill="#1890d0"/></g></clipPath><clipPath id="clipPath-729058250"><g transform="translate(0,-1004.3622)"><path d="m 24 1005.37 c -1.045 0 -2.023 0.287 -2.856 0.784 l -15.339 8.708 c -0.017 0.013 -0.035 0.013 -0.052 0.021 -1.852 1.051 -2.847 3 -2.746 4.968 l 0 17.02 c -0.056 1.013 0.175 2.049 0.729 2.993 0.532 0.903 1.288 1.602 2.161 2.061 l 15.246 8.653 c 0.832 0.497 1.811 0.784 2.856 0.784 1.045 0 2.023 -0.287 2.856 -0.784 l 15.246 -8.653 c 0.873 -0.46 1.629 -1.158 2.161 -2.061 0.554 -0.944 0.785 -1.981 0.729 -2.993 l 0 -17.01 c 0.056 -1.012 -0.175 -2.052 -0.729 -2.993 -0.532 -0.906 -1.288 -1.604 -2.161 -2.064 l -15.246 -8.653 c -0.832 -0.497 -1.811 -0.784 -2.856 -0.784 z" fill="#1890d0"/></g></clipPath><filter id="filter-698885741"><feGaussianBlur stdDeviation="0.35"/></filter></defs><g><g transform="translate(0,-1004.3622)"><path d="m 45 1037.36 c 0.056 1.013 -0.196 2.056 -0.75 3 -0.532 0.903 -1.283 1.603 -2.156 2.063 l -15.25 8.656 c -0.832 0.497 -1.799 0.781 -2.844 0.781 -1.045 0 -2.01 -0.284 -2.844 -0.781 l -15.25 -8.656 c -0.873 -0.46 -1.625 -1.159 -2.156 -2.063 -0.416 -0.708 -0.677 -1.485 -0.75 -2.25 -0.004 0.932 0.242 1.884 0.75 2.75 0.532 0.903 1.283 1.603 2.156 2.063 l 15.25 8.656 c 0.832 0.497 1.799 0.781 2.844 0.781 1.045 0 2.01 -0.284 2.844 -0.781 l 15.25 -8.656 c 0.873 -0.46 1.625 -1.159 2.156 -2.063 0.554 -0.944 0.806 -1.987 0.75 -3 l 0 -0.5 z" opacity="0.05"/><path d="m 45 1036.86 c 0.015 0.263 -0.004 0.516 -0.031 0.781 -0.036 0.844 -0.259 1.685 -0.719 2.469 -0.532 0.903 -1.283 1.603 -2.156 2.063 l -15.25 8.656 c -0.832 0.497 -1.799 0.781 -2.844 0.781 -1.045 0 -2.01 -0.284 -2.844 -0.781 l -15.25 -8.656 c -0.873 -0.46 -1.625 -1.159 -2.156 -2.063 -0.414 -0.705 -0.621 -1.46 -0.688 -2.219 -0.014 -0.092 -0.054 -0.189 -0.063 -0.281 -0.004 0.932 0.242 1.884 0.75 2.75 0.532 0.903 1.283 1.603 2.156 2.063 l 15.25 8.656 c 0.832 0.497 1.799 0.781 2.844 0.781 1.045 0 2.01 -0.284 2.844 -0.781 l 15.25 -8.656 c 0.873 -0.46 1.625 -1.159 2.156 -2.063 0.554 -0.944 0.806 -1.987 0.75 -3 l 0 -0.5 z m -41.813 1.625 c 0.057 0.219 0.132 0.442 0.219 0.656 -0.088 -0.216 -0.16 -0.436 -0.219 -0.656 z m 0.219 0.656 c 0.099 0.243 0.206 0.484 0.344 0.719 -0.139 -0.236 -0.243 -0.472 -0.344 -0.719 z m 41.41 -0.656 c -0.059 0.221 -0.131 0.441 -0.219 0.656 0.087 -0.215 0.161 -0.437 0.219 -0.656 z m -0.219 0.656 c -0.101 0.246 -0.205 0.483 -0.344 0.719 0.138 -0.235 0.245 -0.476 0.344 -0.719 z" opacity="0.1"/><path d="m 3.03 1037.64 c 0.035 0.844 0.259 1.685 0.719 2.469 0.532 0.903 1.283 1.603 2.156 2.063 l 15.25 8.656 c 0.832 0.497 1.799 0.781 2.844 0.781 1.045 0 2.01 -0.284 2.844 -0.781 l 15.25 -8.656 c 0.873 -0.46 1.625 -1.159 2.156 -2.063 0.46 -0.784 0.683 -1.624 0.719 -2.469 -0.067 0.763 -0.303 1.511 -0.719 2.219 -0.532 0.903 -1.283 1.603 -2.156 2.063 l -15.25 8.656 c -0.832 0.497 -1.799 0.781 -2.844 0.781 -1.045 0 -2.01 -0.284 -2.844 -0.781 l -15.25 -8.656 c -0.873 -0.46 -1.625 -1.159 -2.156 -2.063 -0.416 -0.708 -0.651 -1.456 -0.719 -2.219 z" opacity="0.2"/></g></g><g><path d="m 24 46.996 c 1.045 0 2.023 -0.287 2.856 -0.784 l 15.339 -8.708 c 0.017 -0.013 0.035 -0.013 0.052 -0.021 1.852 -1.051 2.847 -3 2.746 -4.968 l 0 -17.02 c 0.056 -1.013 -0.175 -2.049 -0.729 -2.993 -0.532 -0.903 -1.288 -1.602 -2.161 -2.061 l -15.246 -8.653 c -0.832 -0.497 -1.811 -0.784 -2.856 -0.784 -1.045 0 -2.023 0.287 -2.856 0.784 l -15.246 8.653 c -0.873 0.46 -1.629 1.158 -2.161 2.061 -0.554 0.944 -0.785 1.981 -0.729 2.993 l 0 17.01 c -0.056 1.012 0.175 2.051 0.729 2.993 0.532 0.906 1.288 1.604 2.161 2.064 l 15.246 8.653 c 0.832 0.497 1.811 0.785 2.856 0.785 z" fill="url(#linearGradient3764)" fill-opacity="1"/></g><g><g clip-path="url(#clipPath-719223852)"><g opacity="0.25"><g transform="translate(0,1)"><g filter="url(#filter-698885741)"><!-- color: #535353 --><path d="m 16.754 24.316 c 0 1.453 -1.176 2.637 -2.629 2.637 -1.449 0 -2.625 -1.184 -2.625 -2.637 0 -1.457 1.176 -2.641 2.625 -2.641 1.453 0 2.629 1.184 2.629 2.641 z m 0 0" stroke="#f9f9f9" stroke-width="0.999" fill="#000"/><path d="m 24.969 14.375 c -0.48 0.049 -0.941 0.194 -1.375 0.469 -0.008 0.003 -0.024 -0.004 -0.031 0 -0.012 0.008 -0.019 0.023 -0.031 0.031 l 0 0.031 c -1.01 0.488 -1.497 1.486 -1.688 2.594 -0.196 1.14 -0.129 2.452 -0.063 3.75 l 1 -0.063 c -0.066 -1.292 -0.136 -2.558 0.031 -3.531 0.167 -0.974 0.496 -1.6 1.188 -1.906 l 0.063 0 0.031 -0.031 c 0.616 -0.41 1.313 -0.438 2.188 -0.25 0.874 0.188 1.874 0.606 2.875 1 l 0.375 -0.938 c -0.983 -0.387 -2.02 -0.814 -3.03 -1.031 -0.507 -0.109 -1.028 -0.176 -1.531 -0.125 z" color="#000" fill="#000"/><path d="m 34.902 28.16 c 0 4.055 -4.855 7.344 -10.84 7.344 -5.988 0 -10.844 -3.289 -10.844 -7.344 0 -4.059 4.855 -7.348 10.844 -7.348 5.984 0 10.84 3.289 10.84 7.348 z m 0 0" stroke="#f9f9f9" stroke-linecap="round" stroke-width="0.999" fill="#000"/><path d="m 33.387 16.887 c 0 1.32 -1.031 2.391 -2.309 2.391 -1.277 0 -2.309 -1.07 -2.309 -2.391 0 -1.32 1.031 -2.391 2.309 -2.391 1.277 0 2.309 1.07 2.309 2.391 z m 0 0" stroke="#f9f9f9" stroke-linecap="round" stroke-width="0.999" fill="#000"/><path d="m 21.12 26.676 c 0 0.84 -0.691 1.523 -1.547 1.523 -0.855 0 -1.547 -0.684 -1.547 -1.523 0 -0.84 0.691 -1.52 1.547 -1.52 0.855 0 1.547 0.68 1.547 1.52 z m 0 0" fill="#000"/><path d="m 29.17 26.547 c 0 0.84 -0.691 1.523 -1.547 1.523 -0.855 0 -1.551 -0.684 -1.547 -1.523 -0.004 -0.84 0.691 -1.523 1.547 -1.523 0.855 0 1.547 0.684 1.547 1.523 z m 0 0" fill="#000"/><path d="M 19.375 30.22 A 0.5 0.5 0 0 0 19.19 31.13 c 1.792 1.214 3.439 1.612 4.938 1.5 1.498 -0.112 2.83 -0.702 4.094 -1.375 A 0.5 0.5 0 1 0 27.75 30.375 c -1.221 0.651 -2.411 1.154 -3.688 1.25 -1.277 0.096 -2.667 -0.198 -4.313 -1.313 a 0.5 0.5 0 0 0 -0.375 -0.094 z" color="#000" fill="#000"/><path d="m 36.754 24.34 c 0 1.457 -1.176 2.637 -2.629 2.637 -1.449 0 -2.625 -1.18 -2.625 -2.637 0 -1.457 1.176 -2.637 2.625 -2.637 1.453 0 2.629 1.18 2.629 2.637 z m 0 0" stroke="#f9f9f9" stroke-width="0.999" fill="#000"/></g></g></g></g></g><g><g clip-path="url(#clipPath-729058250)"><!-- color: #535353 --><path d="m 16.754 24.316 c 0 1.453 -1.176 2.637 -2.629 2.637 -1.449 0 -2.625 -1.184 -2.625 -2.637 0 -1.457 1.176 -2.641 2.625 -2.641 1.453 0 2.629 1.184 2.629 2.641 z m 0 0" fill="#f9f9f9" stroke="#f9f9f9" stroke-width="0.999"/><path d="m 24.969 14.375 c -0.48 0.049 -0.941 0.194 -1.375 0.469 -0.008 0.003 -0.024 -0.004 -0.031 0 -0.012 0.008 -0.019 0.023 -0.031 0.031 l 0 0.031 c -1.01 0.488 -1.497 1.486 -1.688 2.594 -0.196 1.14 -0.129 2.452 -0.063 3.75 l 1 -0.063 c -0.066 -1.292 -0.136 -2.558 0.031 -3.531 0.167 -0.974 0.496 -1.6 1.188 -1.906 l 0.063 0 0.031 -0.031 c 0.616 -0.41 1.313 -0.438 2.188 -0.25 0.874 0.188 1.874 0.606 2.875 1 l 0.375 -0.938 c -0.983 -0.387 -2.02 -0.814 -3.03 -1.031 -0.507 -0.109 -1.028 -0.176 -1.531 -0.125 z" color="#000" fill="#f9f9f9"/><path d="m 34.902 28.16 c 0 4.055 -4.855 7.344 -10.84 7.344 -5.988 0 -10.844 -3.289 -10.844 -7.344 0 -4.059 4.855 -7.348 10.844 -7.348 5.984 0 10.84 3.289 10.84 7.348 z m 0 0" fill="#f9f9f9" stroke="#f9f9f9" stroke-linecap="round" stroke-width="0.999"/><path d="m 33.387 16.887 c 0 1.32 -1.031 2.391 -2.309 2.391 -1.277 0 -2.309 -1.07 -2.309 -2.391 0 -1.32 1.031 -2.391 2.309 -2.391 1.277 0 2.309 1.07 2.309 2.391 z m 0 0" fill="#f9f9f9" stroke="#f9f9f9" stroke-linecap="round" stroke-width="0.999"/><path d="m 21.12 26.676 c 0 0.84 -0.691 1.523 -1.547 1.523 -0.855 0 -1.547 -0.684 -1.547 -1.523 0 -0.84 0.691 -1.52 1.547 -1.52 0.855 0 1.547 0.68 1.547 1.52 z m 0 0" fill="#777"/><path d="m 29.17 26.547 c 0 0.84 -0.691 1.523 -1.547 1.523 -0.855 0 -1.551 -0.684 -1.547 -1.523 -0.004 -0.84 0.691 -1.523 1.547 -1.523 0.855 0 1.547 0.684 1.547 1.523 z m 0 0" fill="#777"/><path d="M 19.375 30.22 A 0.5 0.5 0 0 0 19.19 31.13 c 1.792 1.214 3.439 1.612 4.938 1.5 1.498 -0.112 2.83 -0.702 4.094 -1.375 A 0.5 0.5 0 1 0 27.75 30.375 c -1.221 0.651 -2.411 1.154 -3.688 1.25 -1.277 0.096 -2.667 -0.198 -4.313 -1.313 a 0.5 0.5 0 0 0 -0.375 -0.094 z" color="#000" fill="#777"/><path d="m 36.754 24.34 c 0 1.457 -1.176 2.637 -2.629 2.637 -1.449 0 -2.625 -1.18 -2.625 -2.637 0 -1.457 1.176 -2.637 2.625 -2.637 1.453 0 2.629 1.18 2.629 2.637 z m 0 0" fill="#f9f9f9" stroke="#f9f9f9" stroke-width="0.999"/></g></g><g><path d="m 24 1 c -1.045 0 -2.01 0.284 -2.844 0.781 l -15.344 8.719 c -0.017 0.013 -0.045 0.023 -0.063 0.031 c -1.852 1.051 -2.851 3 -2.75 4.969 l 0 1 c -0.101 -1.966 0.898 -3.918 2.75 -4.969 c 0.017 -0.008 0.045 -0.018 0.063 -0.031 l 15.344 -8.719 c 0.832 -0.497 1.799 -0.781 2.844 -0.781 c 1.045 0 2.01 0.284 2.844 0.781 l 15.25 8.656 c 0.873 0.46 1.625 1.156 2.156 2.063 c 0.554 0.942 0.806 1.988 0.75 3 l 0 -1 c 0.056 -1.012 -0.196 -2.058 -0.75 -3 c -0.532 -0.906 -1.283 -1.603 -2.156 -2.063 l -15.25 -8.656 c -0.832 -0.497 -1.799 -0.781 -2.844 -0.781 z" opacity="0.2" fill="#fff"/></g></svg>