<svg viewBox="0 0 48 48"><defs><linearGradient id="linearGradient3764" y1="1" x2="0" y2="47" gradientUnits="userSpaceOnUse"><stop stop-color="#ffd401" stop-opacity="1"/><stop offset="1" stop-color="#ecc200" stop-opacity="1"/></linearGradient><clipPath id="clipPath-432753235"><g transform="translate(0,-1004.3622)"><path d="m 24 1005.37 c -1.045 0 -2.023 0.287 -2.856 0.784 l -15.339 8.708 c -0.017 0.013 -0.035 0.013 -0.052 0.021 -1.852 1.051 -2.847 3 -2.746 4.968 l 0 17.02 c -0.056 1.013 0.175 2.049 0.729 2.993 0.532 0.903 1.288 1.602 2.161 2.061 l 15.246 8.653 c 0.832 0.497 1.811 0.784 2.856 0.784 1.045 0 2.023 -0.287 2.856 -0.784 l 15.246 -8.653 c 0.873 -0.46 1.629 -1.158 2.161 -2.061 0.554 -0.944 0.785 -1.981 0.729 -2.993 l 0 -17.01 c 0.056 -1.012 -0.175 -2.052 -0.729 -2.993 -0.532 -0.906 -1.288 -1.604 -2.161 -2.064 l -15.246 -8.653 c -0.832 -0.497 -1.811 -0.784 -2.856 -0.784 z" fill="#1890d0"/></g></clipPath><clipPath id="clipPath-441907154"><g transform="translate(0,-1004.3622)"><path d="m 24 1005.37 c -1.045 0 -2.023 0.287 -2.856 0.784 l -15.339 8.708 c -0.017 0.013 -0.035 0.013 -0.052 0.021 -1.852 1.051 -2.847 3 -2.746 4.968 l 0 17.02 c -0.056 1.013 0.175 2.049 0.729 2.993 0.532 0.903 1.288 1.602 2.161 2.061 l 15.246 8.653 c 0.832 0.497 1.811 0.784 2.856 0.784 1.045 0 2.023 -0.287 2.856 -0.784 l 15.246 -8.653 c 0.873 -0.46 1.629 -1.158 2.161 -2.061 0.554 -0.944 0.785 -1.981 0.729 -2.993 l 0 -17.01 c 0.056 -1.012 -0.175 -2.052 -0.729 -2.993 -0.532 -0.906 -1.288 -1.604 -2.161 -2.064 l -15.246 -8.653 c -0.832 -0.497 -1.811 -0.784 -2.856 -0.784 z" fill="#1890d0"/></g></clipPath><filter id="filter-413640402"><feGaussianBlur stdDeviation="0.35"/></filter></defs><g><g transform="translate(0,-1004.3622)"><path d="m 45 1037.36 c 0.056 1.013 -0.196 2.056 -0.75 3 -0.532 0.903 -1.283 1.603 -2.156 2.063 l -15.25 8.656 c -0.832 0.497 -1.799 0.781 -2.844 0.781 -1.045 0 -2.01 -0.284 -2.844 -0.781 l -15.25 -8.656 c -0.873 -0.46 -1.625 -1.159 -2.156 -2.063 -0.416 -0.708 -0.677 -1.485 -0.75 -2.25 -0.004 0.932 0.242 1.884 0.75 2.75 0.532 0.903 1.283 1.603 2.156 2.063 l 15.25 8.656 c 0.832 0.497 1.799 0.781 2.844 0.781 1.045 0 2.01 -0.284 2.844 -0.781 l 15.25 -8.656 c 0.873 -0.46 1.625 -1.159 2.156 -2.063 0.554 -0.944 0.806 -1.987 0.75 -3 l 0 -0.5 z" opacity="0.05"/><path d="m 45 1036.86 c 0.015 0.263 -0.004 0.516 -0.031 0.781 -0.036 0.844 -0.259 1.685 -0.719 2.469 -0.532 0.903 -1.283 1.603 -2.156 2.063 l -15.25 8.656 c -0.832 0.497 -1.799 0.781 -2.844 0.781 -1.045 0 -2.01 -0.284 -2.844 -0.781 l -15.25 -8.656 c -0.873 -0.46 -1.625 -1.159 -2.156 -2.063 -0.414 -0.705 -0.621 -1.46 -0.688 -2.219 -0.014 -0.092 -0.054 -0.189 -0.063 -0.281 -0.004 0.932 0.242 1.884 0.75 2.75 0.532 0.903 1.283 1.603 2.156 2.063 l 15.25 8.656 c 0.832 0.497 1.799 0.781 2.844 0.781 1.045 0 2.01 -0.284 2.844 -0.781 l 15.25 -8.656 c 0.873 -0.46 1.625 -1.159 2.156 -2.063 0.554 -0.944 0.806 -1.987 0.75 -3 l 0 -0.5 z m -41.813 1.625 c 0.057 0.219 0.132 0.442 0.219 0.656 -0.088 -0.216 -0.16 -0.436 -0.219 -0.656 z m 0.219 0.656 c 0.099 0.243 0.206 0.484 0.344 0.719 -0.139 -0.236 -0.243 -0.472 -0.344 -0.719 z m 41.41 -0.656 c -0.059 0.221 -0.131 0.441 -0.219 0.656 0.087 -0.215 0.161 -0.437 0.219 -0.656 z m -0.219 0.656 c -0.101 0.246 -0.205 0.483 -0.344 0.719 0.138 -0.235 0.245 -0.476 0.344 -0.719 z" opacity="0.1"/><path d="m 3.03 1037.64 c 0.035 0.844 0.259 1.685 0.719 2.469 0.532 0.903 1.283 1.603 2.156 2.063 l 15.25 8.656 c 0.832 0.497 1.799 0.781 2.844 0.781 1.045 0 2.01 -0.284 2.844 -0.781 l 15.25 -8.656 c 0.873 -0.46 1.625 -1.159 2.156 -2.063 0.46 -0.784 0.683 -1.624 0.719 -2.469 -0.067 0.763 -0.303 1.511 -0.719 2.219 -0.532 0.903 -1.283 1.603 -2.156 2.063 l -15.25 8.656 c -0.832 0.497 -1.799 0.781 -2.844 0.781 -1.045 0 -2.01 -0.284 -2.844 -0.781 l -15.25 -8.656 c -0.873 -0.46 -1.625 -1.159 -2.156 -2.063 -0.416 -0.708 -0.651 -1.456 -0.719 -2.219 z" opacity="0.2"/></g></g><g><path d="m 24 46.996 c 1.045 0 2.023 -0.287 2.856 -0.784 l 15.339 -8.708 c 0.017 -0.013 0.035 -0.013 0.052 -0.021 1.852 -1.051 2.847 -3 2.746 -4.968 l 0 -17.02 c 0.056 -1.013 -0.175 -2.049 -0.729 -2.993 -0.532 -0.903 -1.288 -1.602 -2.161 -2.061 l -15.246 -8.653 c -0.832 -0.497 -1.811 -0.784 -2.856 -0.784 -1.045 0 -2.023 0.287 -2.856 0.784 l -15.246 8.653 c -0.873 0.46 -1.629 1.158 -2.161 2.061 -0.554 0.944 -0.785 1.981 -0.729 2.993 l 0 17.01 c -0.056 1.012 0.175 2.051 0.729 2.993 0.532 0.906 1.288 1.604 2.161 2.064 l 15.246 8.653 c 0.832 0.497 1.811 0.785 2.856 0.785 z" fill="url(#linearGradient3764)" fill-opacity="1"/></g><g><g clip-path="url(#clipPath-432753235)"><g opacity="0.25"><g transform="translate(0,1)"><g filter="url(#filter-413640402)"><!-- color: #ffd401 --><g><path d="m 11 11 l 0 26 l 26 0 l 0 -26 m -25 1 l 24 0 l 0 24 l -24 0 m 0 -24" fill="#000"/><path d="m 12 11.996 l 12 0 l 0 12 l -12 0 m 0 -12" fill="#000"/><path d="m 24 11.996 l 12 0 l 0 12 l -12 0 m 0 -12" fill="#000"/><path d="m 12 24 l 12 0 l 0 12 l -12 0 m 0 -12" fill="#000"/><path d="m 24 24 l 12 0 l 0 12 l -12 0 m 0 -12" fill="#000"/><path d="m 22 33 l -1 0 l 0 2 l -2 0 l 0 -2 l -4 0 l 0 -2 l 3.5 -6 l 2.5 0 l 0 6 l 1 0 l 0 2 m -3 -2 l 0 -4 l -2 4" fill="#000"/><path d="m 21 23 l -6 0 l 0 -2 c 3.117 -3.117 4.891 -4.234 3.539 -5.582 c -0.629 -0.629 -1.336 -0.113 -2.539 0.582 l -1 -2 c 1.77 -1.172 3.695 -1.324 5 0 c 2.691 2.73 -1.125 5.367 -2.559 7 c 1.504 0 2.055 0 3.559 0" fill="#000"/><path d="m 30 25 c -1.656 0 -3 1.344 -3 3 c 0 0.773 0.52 1.469 1 2 c -0.48 0.531 -1 1.227 -1 2 c 0 1.656 1.344 3 3 3 c 1.656 0 3 -1.344 3 -3 c 0 -0.773 -0.52 -1.469 -1 -2 c 0.48 -0.531 1 -1.227 1 -2 c 0 -1.656 -1.344 -3 -3 -3 m 0 2 c 0.551 0 1 0.449 1 1 c 0 0.551 -0.664 1 -1 1 c -0.336 0 -1 -0.449 -1 -1 c 0 -0.551 0.449 -1 1 -1 m 0 4 c 0.367 0 1 0.449 1 1 c 0 0.551 -0.449 1 -1 1 c -0.551 0 -1 -0.449 -1 -1 c 0 -0.551 0.633 -1 1 -1 m 0 0" fill="#000"/></g></g></g></g></g></g><g><g clip-path="url(#clipPath-441907154)"><!-- color: #ffd401 --><g><path d="m 11 11 l 0 26 l 26 0 l 0 -26 m -25 1 l 24 0 l 0 24 l -24 0 m 0 -24" fill="#b9b095"/><path d="m 12 11.996 l 12 0 l 0 12 l -12 0 m 0 -12" fill="#ececd4"/><path d="m 24 11.996 l 12 0 l 0 12 l -12 0 m 0 -12" fill="#e5d6ab"/><path d="m 12 24 l 12 0 l 0 12 l -12 0 m 0 -12" fill="#ffcf53"/><path d="m 24 24 l 12 0 l 0 12 l -12 0 m 0 -12" fill="#ffb95c"/><path d="m 22 33 l -1 0 l 0 2 l -2 0 l 0 -2 l -4 0 l 0 -2 l 3.5 -6 l 2.5 0 l 0 6 l 1 0 l 0 2 m -3 -2 l 0 -4 l -2 4" fill="#96814d"/><path d="m 21 23 l -6 0 l 0 -2 c 3.117 -3.117 4.891 -4.234 3.539 -5.582 c -0.629 -0.629 -1.336 -0.113 -2.539 0.582 l -1 -2 c 1.77 -1.172 3.695 -1.324 5 0 c 2.691 2.73 -1.125 5.367 -2.559 7 c 1.504 0 2.055 0 3.559 0" fill="#96814d"/><path d="m 30 25 c -1.656 0 -3 1.344 -3 3 c 0 0.773 0.52 1.469 1 2 c -0.48 0.531 -1 1.227 -1 2 c 0 1.656 1.344 3 3 3 c 1.656 0 3 -1.344 3 -3 c 0 -0.773 -0.52 -1.469 -1 -2 c 0.48 -0.531 1 -1.227 1 -2 c 0 -1.656 -1.344 -3 -3 -3 m 0 2 c 0.551 0 1 0.449 1 1 c 0 0.551 -0.664 1 -1 1 c -0.336 0 -1 -0.449 -1 -1 c 0 -0.551 0.449 -1 1 -1 m 0 4 c 0.367 0 1 0.449 1 1 c 0 0.551 -0.449 1 -1 1 c -0.551 0 -1 -0.449 -1 -1 c 0 -0.551 0.633 -1 1 -1 m 0 0" fill="#96814d"/></g></g></g><g><path d="m 24 1 c -1.045 0 -2.01 0.284 -2.844 0.781 l -15.344 8.719 c -0.017 0.013 -0.045 0.023 -0.063 0.031 c -1.852 1.051 -2.851 3 -2.75 4.969 l 0 1 c -0.101 -1.966 0.898 -3.918 2.75 -4.969 c 0.017 -0.008 0.045 -0.018 0.063 -0.031 l 15.344 -8.719 c 0.832 -0.497 1.799 -0.781 2.844 -0.781 c 1.045 0 2.01 0.284 2.844 0.781 l 15.25 8.656 c 0.873 0.46 1.625 1.156 2.156 2.063 c 0.554 0.942 0.806 1.988 0.75 3 l 0 -1 c 0.056 -1.012 -0.196 -2.058 -0.75 -3 c -0.532 -0.906 -1.283 -1.603 -2.156 -2.063 l -15.25 -8.656 c -0.832 -0.497 -1.799 -0.781 -2.844 -0.781 z" opacity="0.2" fill="#fff"/></g></svg>