<svg viewBox="0 0 48 48"><defs><linearGradient id="linearGradient3764" y1="1" x2="0" y2="47" gradientUnits="userSpaceOnUse"><stop stop-color="#10b8f8" stop-opacity="1"/><stop offset="1" stop-color="#07afed" stop-opacity="1"/></linearGradient><clipPath id="clipPath-755041856"><g transform="translate(0,-1004.3622)"><path d="m 24 1005.37 c -1.045 0 -2.023 0.287 -2.856 0.784 l -15.339 8.708 c -0.017 0.013 -0.035 0.013 -0.052 0.021 -1.852 1.051 -2.847 3 -2.746 4.968 l 0 17.02 c -0.056 1.013 0.175 2.049 0.729 2.993 0.532 0.903 1.288 1.602 2.161 2.061 l 15.246 8.653 c 0.832 0.497 1.811 0.784 2.856 0.784 1.045 0 2.023 -0.287 2.856 -0.784 l 15.246 -8.653 c 0.873 -0.46 1.629 -1.158 2.161 -2.061 0.554 -0.944 0.785 -1.981 0.729 -2.993 l 0 -17.01 c 0.056 -1.012 -0.175 -2.052 -0.729 -2.993 -0.532 -0.906 -1.288 -1.604 -2.161 -2.064 l -15.246 -8.653 c -0.832 -0.497 -1.811 -0.784 -2.856 -0.784 z" fill="#1890d0"/></g></clipPath><clipPath id="clipPath-763717390"><g transform="translate(0,-1004.3622)"><path d="m 24 1005.37 c -1.045 0 -2.023 0.287 -2.856 0.784 l -15.339 8.708 c -0.017 0.013 -0.035 0.013 -0.052 0.021 -1.852 1.051 -2.847 3 -2.746 4.968 l 0 17.02 c -0.056 1.013 0.175 2.049 0.729 2.993 0.532 0.903 1.288 1.602 2.161 2.061 l 15.246 8.653 c 0.832 0.497 1.811 0.784 2.856 0.784 1.045 0 2.023 -0.287 2.856 -0.784 l 15.246 -8.653 c 0.873 -0.46 1.629 -1.158 2.161 -2.061 0.554 -0.944 0.785 -1.981 0.729 -2.993 l 0 -17.01 c 0.056 -1.012 -0.175 -2.052 -0.729 -2.993 -0.532 -0.906 -1.288 -1.604 -2.161 -2.064 l -15.246 -8.653 c -0.832 -0.497 -1.811 -0.784 -2.856 -0.784 z" fill="#1890d0"/></g></clipPath><filter id="filter-736276131"><feGaussianBlur stdDeviation="0.35"/></filter></defs><g><g transform="translate(0,-1004.3622)"><path d="m 45 1037.36 c 0.056 1.013 -0.196 2.056 -0.75 3 -0.532 0.903 -1.283 1.603 -2.156 2.063 l -15.25 8.656 c -0.832 0.497 -1.799 0.781 -2.844 0.781 -1.045 0 -2.01 -0.284 -2.844 -0.781 l -15.25 -8.656 c -0.873 -0.46 -1.625 -1.159 -2.156 -2.063 -0.416 -0.708 -0.677 -1.485 -0.75 -2.25 -0.004 0.932 0.242 1.884 0.75 2.75 0.532 0.903 1.283 1.603 2.156 2.063 l 15.25 8.656 c 0.832 0.497 1.799 0.781 2.844 0.781 1.045 0 2.01 -0.284 2.844 -0.781 l 15.25 -8.656 c 0.873 -0.46 1.625 -1.159 2.156 -2.063 0.554 -0.944 0.806 -1.987 0.75 -3 l 0 -0.5 z" opacity="0.05"/><path d="m 45 1036.86 c 0.015 0.263 -0.004 0.516 -0.031 0.781 -0.036 0.844 -0.259 1.685 -0.719 2.469 -0.532 0.903 -1.283 1.603 -2.156 2.063 l -15.25 8.656 c -0.832 0.497 -1.799 0.781 -2.844 0.781 -1.045 0 -2.01 -0.284 -2.844 -0.781 l -15.25 -8.656 c -0.873 -0.46 -1.625 -1.159 -2.156 -2.063 -0.414 -0.705 -0.621 -1.46 -0.688 -2.219 -0.014 -0.092 -0.054 -0.189 -0.063 -0.281 -0.004 0.932 0.242 1.884 0.75 2.75 0.532 0.903 1.283 1.603 2.156 2.063 l 15.25 8.656 c 0.832 0.497 1.799 0.781 2.844 0.781 1.045 0 2.01 -0.284 2.844 -0.781 l 15.25 -8.656 c 0.873 -0.46 1.625 -1.159 2.156 -2.063 0.554 -0.944 0.806 -1.987 0.75 -3 l 0 -0.5 z m -41.813 1.625 c 0.057 0.219 0.132 0.442 0.219 0.656 -0.088 -0.216 -0.16 -0.436 -0.219 -0.656 z m 0.219 0.656 c 0.099 0.243 0.206 0.484 0.344 0.719 -0.139 -0.236 -0.243 -0.472 -0.344 -0.719 z m 41.41 -0.656 c -0.059 0.221 -0.131 0.441 -0.219 0.656 0.087 -0.215 0.161 -0.437 0.219 -0.656 z m -0.219 0.656 c -0.101 0.246 -0.205 0.483 -0.344 0.719 0.138 -0.235 0.245 -0.476 0.344 -0.719 z" opacity="0.1"/><path d="m 3.03 1037.64 c 0.035 0.844 0.259 1.685 0.719 2.469 0.532 0.903 1.283 1.603 2.156 2.063 l 15.25 8.656 c 0.832 0.497 1.799 0.781 2.844 0.781 1.045 0 2.01 -0.284 2.844 -0.781 l 15.25 -8.656 c 0.873 -0.46 1.625 -1.159 2.156 -2.063 0.46 -0.784 0.683 -1.624 0.719 -2.469 -0.067 0.763 -0.303 1.511 -0.719 2.219 -0.532 0.903 -1.283 1.603 -2.156 2.063 l -15.25 8.656 c -0.832 0.497 -1.799 0.781 -2.844 0.781 -1.045 0 -2.01 -0.284 -2.844 -0.781 l -15.25 -8.656 c -0.873 -0.46 -1.625 -1.159 -2.156 -2.063 -0.416 -0.708 -0.651 -1.456 -0.719 -2.219 z" opacity="0.2"/></g></g><g><path d="m 24 46.996 c 1.045 0 2.023 -0.287 2.856 -0.784 l 15.339 -8.708 c 0.017 -0.013 0.035 -0.013 0.052 -0.021 1.852 -1.051 2.847 -3 2.746 -4.968 l 0 -17.02 c 0.056 -1.013 -0.175 -2.049 -0.729 -2.993 -0.532 -0.903 -1.288 -1.602 -2.161 -2.061 l -15.246 -8.653 c -0.832 -0.497 -1.811 -0.784 -2.856 -0.784 -1.045 0 -2.023 0.287 -2.856 0.784 l -15.246 8.653 c -0.873 0.46 -1.629 1.158 -2.161 2.061 -0.554 0.944 -0.785 1.981 -0.729 2.993 l 0 17.01 c -0.056 1.012 0.175 2.051 0.729 2.993 0.532 0.906 1.288 1.604 2.161 2.064 l 15.246 8.653 c 0.832 0.497 1.811 0.785 2.856 0.785 z" fill="url(#linearGradient3764)" fill-opacity="1"/></g><g><g clip-path="url(#clipPath-755041856)"><g opacity="0.25"><g transform="translate(0,1)"><g filter="url(#filter-736276131)"><!-- color: #10b8f8 --><g><path d="m 18.16 11 c -1.527 -0.012 -3.035 0.484 -4.316 1.441 c -0.34 0.254 -0.941 0.828 -1.219 1.168 c -1.359 1.664 -1.906 3.863 -1.48 5.984 c 0.098 0.469 0.34 1.188 0.563 1.672 l 0.184 0.391 l -0.07 0.477 c -0.297 1.969 -0.117 4 0.516 5.852 c 1.242 3.629 4.066 6.453 7.691 7.695 c 1.852 0.637 3.883 0.813 5.852 0.516 l 0.477 -0.07 l 0.391 0.184 c 0.719 0.336 1.582 0.586 2.332 0.668 c 0.414 0.047 1.504 0.02 1.906 -0.051 c 1.488 -0.25 2.762 -0.887 3.824 -1.914 c 1.363 -1.32 2.113 -2.98 2.188 -4.875 c 0.051 -1.16 -0.184 -2.305 -0.695 -3.391 l -0.184 -0.391 l 0.074 -0.477 c 0.297 -1.969 0.117 -4 -0.516 -5.852 c -1.242 -3.629 -4.066 -6.453 -7.691 -7.695 c -1.852 -0.637 -3.883 -0.813 -5.852 -0.516 l -0.477 0.074 l -0.391 -0.184 c -1 -0.473 -2.059 -0.703 -3.105 -0.707 m 5.598 7.156 c 2.328 0 4.375 1.039 6.02 2.695 c 0.488 0.488 1.043 1.18 1.168 1.461 c 0.141 0.309 0.066 0.73 -0.176 0.98 c -0.188 0.191 -0.328 0.258 -0.594 0.281 c -0.32 0.023 -0.477 0.164 -0.902 -0.207 c -0.93 -0.824 -1.859 -1.582 -2.957 -1.945 c -0.941 -0.313 -1.656 -0.43 -2.668 -0.43 c -1.016 0 -1.73 0.117 -2.676 0.43 c -1.094 0.363 -2.01 0.898 -2.949 1.723 c -0.191 0.168 -0.41 0.336 -0.488 0.371 c -0.152 0.07 -0.457 0.082 -0.633 0.031 c -0.488 -0.148 -0.766 -0.77 -0.555 -1.234 c 0.129 -0.281 0.68 -0.973 1.168 -1.461 c 1.652 -1.656 3.91 -2.695 6.238 -2.695 m -0.082 5.332 c 1.355 0.012 2.68 0.449 3.809 1.305 c 0.316 0.242 0.434 0.379 0.512 0.613 c 0.117 0.344 0.008 0.738 -0.273 0.992 c -0.195 0.18 -0.363 0.242 -0.621 0.246 c -0.199 0 -0.266 -0.023 -0.746 -0.254 c -0.598 -0.289 -1.01 -0.434 -1.578 -0.547 c -0.34 -0.07 -0.512 -0.082 -1.125 -0.082 c -0.617 0 -0.789 0.016 -1.125 0.082 c -0.566 0.113 -0.98 0.254 -1.57 0.539 c -0.559 0.266 -0.734 0.309 -1 0.234 c -0.172 -0.047 -0.219 -0.074 -0.41 -0.25 c -0.344 -0.309 -0.383 -0.871 -0.09 -1.254 c 0.281 -0.367 1.477 -1.07 2.227 -1.313 c 0.66 -0.211 1.332 -0.316 1.992 -0.313 m -0.168 4.688 c 0.453 0 0.848 0.211 1.105 0.594 c 0.168 0.254 0.219 0.43 0.219 0.762 c -0.004 0.348 -0.105 0.609 -0.34 0.867 c -0.258 0.281 -0.551 0.418 -0.926 0.43 c -0.18 0.016 -0.348 -0.012 -0.441 -0.035 c -0.57 -0.188 -0.938 -0.68 -0.941 -1.262 c -0.004 -0.332 0.047 -0.508 0.215 -0.762 c 0.258 -0.383 0.652 -0.594 1.109 -0.594 m 0 0" fill="#000"/></g></g></g></g></g></g><g><g clip-path="url(#clipPath-763717390)"><!-- color: #10b8f8 --><g><path d="m 18.16 11 c -1.527 -0.012 -3.035 0.484 -4.316 1.441 c -0.34 0.254 -0.941 0.828 -1.219 1.168 c -1.359 1.664 -1.906 3.863 -1.48 5.984 c 0.098 0.469 0.34 1.188 0.563 1.672 l 0.184 0.391 l -0.07 0.477 c -0.297 1.969 -0.117 4 0.516 5.852 c 1.242 3.629 4.066 6.453 7.691 7.695 c 1.852 0.637 3.883 0.813 5.852 0.516 l 0.477 -0.07 l 0.391 0.184 c 0.719 0.336 1.582 0.586 2.332 0.668 c 0.414 0.047 1.504 0.02 1.906 -0.051 c 1.488 -0.25 2.762 -0.887 3.824 -1.914 c 1.363 -1.32 2.113 -2.98 2.188 -4.875 c 0.051 -1.16 -0.184 -2.305 -0.695 -3.391 l -0.184 -0.391 l 0.074 -0.477 c 0.297 -1.969 0.117 -4 -0.516 -5.852 c -1.242 -3.629 -4.066 -6.453 -7.691 -7.695 c -1.852 -0.637 -3.883 -0.813 -5.852 -0.516 l -0.477 0.074 l -0.391 -0.184 c -1 -0.473 -2.059 -0.703 -3.105 -0.707 m 5.598 7.156 c 2.328 0 4.375 1.039 6.02 2.695 c 0.488 0.488 1.043 1.18 1.168 1.461 c 0.141 0.309 0.066 0.73 -0.176 0.98 c -0.188 0.191 -0.328 0.258 -0.594 0.281 c -0.32 0.023 -0.477 0.164 -0.902 -0.207 c -0.93 -0.824 -1.859 -1.582 -2.957 -1.945 c -0.941 -0.313 -1.656 -0.43 -2.668 -0.43 c -1.016 0 -1.73 0.117 -2.676 0.43 c -1.094 0.363 -2.01 0.898 -2.949 1.723 c -0.191 0.168 -0.41 0.336 -0.488 0.371 c -0.152 0.07 -0.457 0.082 -0.633 0.031 c -0.488 -0.148 -0.766 -0.77 -0.555 -1.234 c 0.129 -0.281 0.68 -0.973 1.168 -1.461 c 1.652 -1.656 3.91 -2.695 6.238 -2.695 m -0.082 5.332 c 1.355 0.012 2.68 0.449 3.809 1.305 c 0.316 0.242 0.434 0.379 0.512 0.613 c 0.117 0.344 0.008 0.738 -0.273 0.992 c -0.195 0.18 -0.363 0.242 -0.621 0.246 c -0.199 0 -0.266 -0.023 -0.746 -0.254 c -0.598 -0.289 -1.01 -0.434 -1.578 -0.547 c -0.34 -0.07 -0.512 -0.082 -1.125 -0.082 c -0.617 0 -0.789 0.016 -1.125 0.082 c -0.566 0.113 -0.98 0.254 -1.57 0.539 c -0.559 0.266 -0.734 0.309 -1 0.234 c -0.172 -0.047 -0.219 -0.074 -0.41 -0.25 c -0.344 -0.309 -0.383 -0.871 -0.09 -1.254 c 0.281 -0.367 1.477 -1.07 2.227 -1.313 c 0.66 -0.211 1.332 -0.316 1.992 -0.313 m -0.168 4.688 c 0.453 0 0.848 0.211 1.105 0.594 c 0.168 0.254 0.219 0.43 0.219 0.762 c -0.004 0.348 -0.105 0.609 -0.34 0.867 c -0.258 0.281 -0.551 0.418 -0.926 0.43 c -0.18 0.016 -0.348 -0.012 -0.441 -0.035 c -0.57 -0.188 -0.938 -0.68 -0.941 -1.262 c -0.004 -0.332 0.047 -0.508 0.215 -0.762 c 0.258 -0.383 0.652 -0.594 1.109 -0.594 m 0 0" fill="#f9f9f9"/></g></g></g><g><path d="m 24 1 c -1.045 0 -2.01 0.284 -2.844 0.781 l -15.344 8.719 c -0.017 0.013 -0.045 0.023 -0.063 0.031 c -1.852 1.051 -2.851 3 -2.75 4.969 l 0 1 c -0.101 -1.966 0.898 -3.918 2.75 -4.969 c 0.017 -0.008 0.045 -0.018 0.063 -0.031 l 15.344 -8.719 c 0.832 -0.497 1.799 -0.781 2.844 -0.781 c 1.045 0 2.01 0.284 2.844 0.781 l 15.25 8.656 c 0.873 0.46 1.625 1.156 2.156 2.063 c 0.554 0.942 0.806 1.988 0.75 3 l 0 -1 c 0.056 -1.012 -0.196 -2.058 -0.75 -3 c -0.532 -0.906 -1.283 -1.603 -2.156 -2.063 l -15.25 -8.656 c -0.832 -0.497 -1.799 -0.781 -2.844 -0.781 z" opacity="0.2" fill="#fff"/></g></svg>