<svg viewBox="0 0 48 48"><defs><linearGradient id="linearGradient3764" y1="1" x2="0" y2="47" gradientUnits="userSpaceOnUse"><stop stop-color="#f96f23" stop-opacity="1"/><stop offset="1" stop-color="#f86210" stop-opacity="1"/></linearGradient><clipPath id="clipPath-319465229"><g transform="translate(0,-1004.3622)"><path d="m 24 1005.37 c -1.045 0 -2.023 0.287 -2.856 0.784 l -15.339 8.708 c -0.017 0.013 -0.035 0.013 -0.052 0.021 -1.852 1.051 -2.847 3 -2.746 4.968 l 0 17.02 c -0.056 1.013 0.175 2.049 0.729 2.993 0.532 0.903 1.288 1.602 2.161 2.061 l 15.246 8.653 c 0.832 0.497 1.811 0.784 2.856 0.784 1.045 0 2.023 -0.287 2.856 -0.784 l 15.246 -8.653 c 0.873 -0.46 1.629 -1.158 2.161 -2.061 0.554 -0.944 0.785 -1.981 0.729 -2.993 l 0 -17.01 c 0.056 -1.012 -0.175 -2.052 -0.729 -2.993 -0.532 -0.906 -1.288 -1.604 -2.161 -2.064 l -15.246 -8.653 c -0.832 -0.497 -1.811 -0.784 -2.856 -0.784 z" fill="#1890d0"/></g></clipPath><clipPath id="clipPath-328122051"><g transform="translate(0,-1004.3622)"><path d="m 24 1005.37 c -1.045 0 -2.023 0.287 -2.856 0.784 l -15.339 8.708 c -0.017 0.013 -0.035 0.013 -0.052 0.021 -1.852 1.051 -2.847 3 -2.746 4.968 l 0 17.02 c -0.056 1.013 0.175 2.049 0.729 2.993 0.532 0.903 1.288 1.602 2.161 2.061 l 15.246 8.653 c 0.832 0.497 1.811 0.784 2.856 0.784 1.045 0 2.023 -0.287 2.856 -0.784 l 15.246 -8.653 c 0.873 -0.46 1.629 -1.158 2.161 -2.061 0.554 -0.944 0.785 -1.981 0.729 -2.993 l 0 -17.01 c 0.056 -1.012 -0.175 -2.052 -0.729 -2.993 -0.532 -0.906 -1.288 -1.604 -2.161 -2.064 l -15.246 -8.653 c -0.832 -0.497 -1.811 -0.784 -2.856 -0.784 z" fill="#1890d0"/></g></clipPath><filter id="filter-301002741"><feGaussianBlur stdDeviation="0.35"/></filter></defs><g><g transform="translate(0,-1004.3622)"><path d="m 45 1037.36 c 0.056 1.013 -0.196 2.056 -0.75 3 -0.532 0.903 -1.283 1.603 -2.156 2.063 l -15.25 8.656 c -0.832 0.497 -1.799 0.781 -2.844 0.781 -1.045 0 -2.01 -0.284 -2.844 -0.781 l -15.25 -8.656 c -0.873 -0.46 -1.625 -1.159 -2.156 -2.063 -0.416 -0.708 -0.677 -1.485 -0.75 -2.25 -0.004 0.932 0.242 1.884 0.75 2.75 0.532 0.903 1.283 1.603 2.156 2.063 l 15.25 8.656 c 0.832 0.497 1.799 0.781 2.844 0.781 1.045 0 2.01 -0.284 2.844 -0.781 l 15.25 -8.656 c 0.873 -0.46 1.625 -1.159 2.156 -2.063 0.554 -0.944 0.806 -1.987 0.75 -3 l 0 -0.5 z" opacity="0.05"/><path d="m 45 1036.86 c 0.015 0.263 -0.004 0.516 -0.031 0.781 -0.036 0.844 -0.259 1.685 -0.719 2.469 -0.532 0.903 -1.283 1.603 -2.156 2.063 l -15.25 8.656 c -0.832 0.497 -1.799 0.781 -2.844 0.781 -1.045 0 -2.01 -0.284 -2.844 -0.781 l -15.25 -8.656 c -0.873 -0.46 -1.625 -1.159 -2.156 -2.063 -0.414 -0.705 -0.621 -1.46 -0.688 -2.219 -0.014 -0.092 -0.054 -0.189 -0.063 -0.281 -0.004 0.932 0.242 1.884 0.75 2.75 0.532 0.903 1.283 1.603 2.156 2.063 l 15.25 8.656 c 0.832 0.497 1.799 0.781 2.844 0.781 1.045 0 2.01 -0.284 2.844 -0.781 l 15.25 -8.656 c 0.873 -0.46 1.625 -1.159 2.156 -2.063 0.554 -0.944 0.806 -1.987 0.75 -3 l 0 -0.5 z m -41.813 1.625 c 0.057 0.219 0.132 0.442 0.219 0.656 -0.088 -0.216 -0.16 -0.436 -0.219 -0.656 z m 0.219 0.656 c 0.099 0.243 0.206 0.484 0.344 0.719 -0.139 -0.236 -0.243 -0.472 -0.344 -0.719 z m 41.41 -0.656 c -0.059 0.221 -0.131 0.441 -0.219 0.656 0.087 -0.215 0.161 -0.437 0.219 -0.656 z m -0.219 0.656 c -0.101 0.246 -0.205 0.483 -0.344 0.719 0.138 -0.235 0.245 -0.476 0.344 -0.719 z" opacity="0.1"/><path d="m 3.03 1037.64 c 0.035 0.844 0.259 1.685 0.719 2.469 0.532 0.903 1.283 1.603 2.156 2.063 l 15.25 8.656 c 0.832 0.497 1.799 0.781 2.844 0.781 1.045 0 2.01 -0.284 2.844 -0.781 l 15.25 -8.656 c 0.873 -0.46 1.625 -1.159 2.156 -2.063 0.46 -0.784 0.683 -1.624 0.719 -2.469 -0.067 0.763 -0.303 1.511 -0.719 2.219 -0.532 0.903 -1.283 1.603 -2.156 2.063 l -15.25 8.656 c -0.832 0.497 -1.799 0.781 -2.844 0.781 -1.045 0 -2.01 -0.284 -2.844 -0.781 l -15.25 -8.656 c -0.873 -0.46 -1.625 -1.159 -2.156 -2.063 -0.416 -0.708 -0.651 -1.456 -0.719 -2.219 z" opacity="0.2"/></g></g><g><path d="m 24 46.996 c 1.045 0 2.023 -0.287 2.856 -0.784 l 15.339 -8.708 c 0.017 -0.013 0.035 -0.013 0.052 -0.021 1.852 -1.051 2.847 -3 2.746 -4.968 l 0 -17.02 c 0.056 -1.013 -0.175 -2.049 -0.729 -2.993 -0.532 -0.903 -1.288 -1.602 -2.161 -2.061 l -15.246 -8.653 c -0.832 -0.497 -1.811 -0.784 -2.856 -0.784 -1.045 0 -2.023 0.287 -2.856 0.784 l -15.246 8.653 c -0.873 0.46 -1.629 1.158 -2.161 2.061 -0.554 0.944 -0.785 1.981 -0.729 2.993 l 0 17.01 c -0.056 1.012 0.175 2.051 0.729 2.993 0.532 0.906 1.288 1.604 2.161 2.064 l 15.246 8.653 c 0.832 0.497 1.811 0.785 2.856 0.785 z" fill="url(#linearGradient3764)" fill-opacity="1"/></g><g><g clip-path="url(#clipPath-319465229)"><g opacity="0.25"><g transform="translate(0,1)"><g filter="url(#filter-301002741)"><!-- color: #f96f23 --><g><path d="m 11.445 24.03 c -0.063 0 -0.113 0.051 -0.121 0.129 l -0.219 1.789 l 0.219 1.762 c 0.008 0.074 0.059 0.125 0.121 0.125 c 0.059 0 0.109 -0.051 0.117 -0.125 l 0.262 -1.762 l -0.262 -1.793 c -0.008 -0.074 -0.117 -0.184 -0.117 -0.125 m 4 5.578 c 0 0.109 0.195 -0.09 0.203 -0.211 l 0.281 -3.445 l -0.281 -3.277 c -0.008 -0.121 -0.094 -0.211 -0.203 -0.211 c -0.105 0 -0.176 0.094 -0.199 0.211 l -0.25 3.277 l 0.25 3.445 c 0.008 0.121 0.094 0.211 0.199 0.211 m -2 -0.188 c 0.078 0 0.141 -0.066 0.148 -0.156 l 0.32 -3.313 l -0.32 -3.438 c -0.008 -0.09 -0.07 -0.156 -0.148 -0.156 c -0.078 0 -0.145 0.066 -0.152 0.156 c 0 0 -0.277 3.438 -0.277 3.438 l 0.277 3.309 c 0.008 0.094 0.152 0.238 0.152 0.16 m 8.01 -10.73 c -0.195 0 -0.352 0.168 -0.355 0.383 l -0.156 6.883 l 0.156 3.313 c 0.004 0.211 0.16 0.379 0.355 0.379 c 0.195 0 0.57 -0.379 0.355 -0.379 l 0.18 -3.316 l -0.18 -6.883 c -0.004 -0.215 -0.355 -0.574 -0.355 -0.383 m -4 10.957 c 0.137 0 0.246 -0.117 0.254 -0.27 l 0.246 -3.418 l -0.246 -6.551 c -0.008 -0.148 -0.117 -0.266 -0.254 -0.266 c -0.137 0 -0.246 0.117 -0.254 0.266 c 0 0.004 -0.219 6.551 -0.219 6.551 l 0.219 3.422 c 0.012 0.148 0.117 0.266 0.254 0.266 m 2.305 0.035 l 0.215 -3.363 l -0.215 -7.336 c -0.004 -0.18 -0.137 -0.324 -0.301 -0.324 c -0.168 0 -0.301 0.145 -0.305 0.324 l -0.188 7.336 l 0.188 3.363 c 0.012 0.18 0.137 0.324 0.305 0.324 c 0.164 0 0.297 -0.141 0.305 -0.324 m 15.516 -7.949 c -0.504 0 -0.988 0.109 -1.426 0.305 c -0.293 -3.574 -3.082 -6.379 -6.484 -6.379 c -0.832 0 -1.645 0.176 -2.359 0.477 c -0.281 0.113 -0.355 0.234 -0.355 0.465 l 0 12.59 c 0 0.242 0.176 0.445 0.398 0.469 c 0.008 0 10.16 0 10.227 0 c 2.039 0 3.691 -1.777 3.691 -3.965 c 0 -2.191 -1.652 -3.969 -3.691 -3.969 m -11.816 -5.137 c -0.223 0 -0.402 0.195 -0.406 0.438 l -0.168 8.934 l 0.168 3.246 c 0.004 0.234 0.184 0.43 0.406 0.43 c 0.223 0 0.402 -0.195 0.406 -0.434 l 0.18 -3.246 l -0.18 -8.934 c -0.004 -0.242 -0.184 -0.438 -0.406 -0.438 m 0 0.004" fill="#000"/></g></g></g></g></g></g><g><g clip-path="url(#clipPath-328122051)"><!-- color: #f96f23 --><g><path d="m 11.445 24.03 c -0.063 0 -0.113 0.051 -0.121 0.129 l -0.219 1.789 l 0.219 1.762 c 0.008 0.074 0.059 0.125 0.121 0.125 c 0.059 0 0.109 -0.051 0.117 -0.125 l 0.262 -1.762 l -0.262 -1.793 c -0.008 -0.074 -0.117 -0.184 -0.117 -0.125 m 4 5.578 c 0 0.109 0.195 -0.09 0.203 -0.211 l 0.281 -3.445 l -0.281 -3.277 c -0.008 -0.121 -0.094 -0.211 -0.203 -0.211 c -0.105 0 -0.176 0.094 -0.199 0.211 l -0.25 3.277 l 0.25 3.445 c 0.008 0.121 0.094 0.211 0.199 0.211 m -2 -0.188 c 0.078 0 0.141 -0.066 0.148 -0.156 l 0.32 -3.313 l -0.32 -3.438 c -0.008 -0.09 -0.07 -0.156 -0.148 -0.156 c -0.078 0 -0.145 0.066 -0.152 0.156 c 0 0 -0.277 3.438 -0.277 3.438 l 0.277 3.309 c 0.008 0.094 0.152 0.238 0.152 0.16 m 8.01 -10.73 c -0.195 0 -0.352 0.168 -0.355 0.383 l -0.156 6.883 l 0.156 3.313 c 0.004 0.211 0.16 0.379 0.355 0.379 c 0.195 0 0.57 -0.379 0.355 -0.379 l 0.18 -3.316 l -0.18 -6.883 c -0.004 -0.215 -0.355 -0.574 -0.355 -0.383 m -4 10.957 c 0.137 0 0.246 -0.117 0.254 -0.27 l 0.246 -3.418 l -0.246 -6.551 c -0.008 -0.148 -0.117 -0.266 -0.254 -0.266 c -0.137 0 -0.246 0.117 -0.254 0.266 c 0 0.004 -0.219 6.551 -0.219 6.551 l 0.219 3.422 c 0.012 0.148 0.117 0.266 0.254 0.266 m 2.305 0.035 l 0.215 -3.363 l -0.215 -7.336 c -0.004 -0.18 -0.137 -0.324 -0.301 -0.324 c -0.168 0 -0.301 0.145 -0.305 0.324 l -0.188 7.336 l 0.188 3.363 c 0.012 0.18 0.137 0.324 0.305 0.324 c 0.164 0 0.297 -0.141 0.305 -0.324 m 15.516 -7.949 c -0.504 0 -0.988 0.109 -1.426 0.305 c -0.293 -3.574 -3.082 -6.379 -6.484 -6.379 c -0.832 0 -1.645 0.176 -2.359 0.477 c -0.281 0.113 -0.355 0.234 -0.355 0.465 l 0 12.59 c 0 0.242 0.176 0.445 0.398 0.469 c 0.008 0 10.16 0 10.227 0 c 2.039 0 3.691 -1.777 3.691 -3.965 c 0 -2.191 -1.652 -3.969 -3.691 -3.969 m -11.816 -5.137 c -0.223 0 -0.402 0.195 -0.406 0.438 l -0.168 8.934 l 0.168 3.246 c 0.004 0.234 0.184 0.43 0.406 0.43 c 0.223 0 0.402 -0.195 0.406 -0.434 l 0.18 -3.246 l -0.18 -8.934 c -0.004 -0.242 -0.184 -0.438 -0.406 -0.438 m 0 0.004" fill="#f9f9f9"/></g></g></g><g><path d="m 24 1 c -1.045 0 -2.01 0.284 -2.844 0.781 l -15.344 8.719 c -0.017 0.013 -0.045 0.023 -0.063 0.031 c -1.852 1.051 -2.851 3 -2.75 4.969 l 0 1 c -0.101 -1.966 0.898 -3.918 2.75 -4.969 c 0.017 -0.008 0.045 -0.018 0.063 -0.031 l 15.344 -8.719 c 0.832 -0.497 1.799 -0.781 2.844 -0.781 c 1.045 0 2.01 0.284 2.844 0.781 l 15.25 8.656 c 0.873 0.46 1.625 1.156 2.156 2.063 c 0.554 0.942 0.806 1.988 0.75 3 l 0 -1 c 0.056 -1.012 -0.196 -2.058 -0.75 -3 c -0.532 -0.906 -1.283 -1.603 -2.156 -2.063 l -15.25 -8.656 c -0.832 -0.497 -1.799 -0.781 -2.844 -0.781 z" opacity="0.2" fill="#fff"/></g></svg>