<svg viewBox="0 0 48 48"><defs><linearGradient id="linearGradient3764" y1="1" x2="0" y2="47" gradientUnits="userSpaceOnUse"><stop stop-color="#518aeb" stop-opacity="1"/><stop offset="1" stop-color="#3f7fe9" stop-opacity="1"/></linearGradient><clipPath id="clipPath-816505429"><g transform="translate(0,-1004.3622)"><path d="m 24 1005.37 c -1.045 0 -2.023 0.287 -2.856 0.784 l -15.339 8.708 c -0.017 0.013 -0.035 0.013 -0.052 0.021 -1.852 1.051 -2.847 3 -2.746 4.968 l 0 17.02 c -0.056 1.013 0.175 2.049 0.729 2.993 0.532 0.903 1.288 1.602 2.161 2.061 l 15.246 8.653 c 0.832 0.497 1.811 0.784 2.856 0.784 1.045 0 2.023 -0.287 2.856 -0.784 l 15.246 -8.653 c 0.873 -0.46 1.629 -1.158 2.161 -2.061 0.554 -0.944 0.785 -1.981 0.729 -2.993 l 0 -17.01 c 0.056 -1.012 -0.175 -2.052 -0.729 -2.993 -0.532 -0.906 -1.288 -1.604 -2.161 -2.064 l -15.246 -8.653 c -0.832 -0.497 -1.811 -0.784 -2.856 -0.784 z" fill="#1890d0"/></g></clipPath><clipPath id="clipPath-825253488"><g transform="translate(0,-1004.3622)"><path d="m 24 1005.37 c -1.045 0 -2.023 0.287 -2.856 0.784 l -15.339 8.708 c -0.017 0.013 -0.035 0.013 -0.052 0.021 -1.852 1.051 -2.847 3 -2.746 4.968 l 0 17.02 c -0.056 1.013 0.175 2.049 0.729 2.993 0.532 0.903 1.288 1.602 2.161 2.061 l 15.246 8.653 c 0.832 0.497 1.811 0.784 2.856 0.784 1.045 0 2.023 -0.287 2.856 -0.784 l 15.246 -8.653 c 0.873 -0.46 1.629 -1.158 2.161 -2.061 0.554 -0.944 0.785 -1.981 0.729 -2.993 l 0 -17.01 c 0.056 -1.012 -0.175 -2.052 -0.729 -2.993 -0.532 -0.906 -1.288 -1.604 -2.161 -2.064 l -15.246 -8.653 c -0.832 -0.497 -1.811 -0.784 -2.856 -0.784 z" fill="#1890d0"/></g></clipPath><filter id="filter-797874654"><feGaussianBlur stdDeviation="0.35"/></filter></defs><g><g transform="translate(0,-1004.3622)"><path d="m 45 1037.36 c 0.056 1.013 -0.196 2.056 -0.75 3 -0.532 0.903 -1.283 1.603 -2.156 2.063 l -15.25 8.656 c -0.832 0.497 -1.799 0.781 -2.844 0.781 -1.045 0 -2.01 -0.284 -2.844 -0.781 l -15.25 -8.656 c -0.873 -0.46 -1.625 -1.159 -2.156 -2.063 -0.416 -0.708 -0.677 -1.485 -0.75 -2.25 -0.004 0.932 0.242 1.884 0.75 2.75 0.532 0.903 1.283 1.603 2.156 2.063 l 15.25 8.656 c 0.832 0.497 1.799 0.781 2.844 0.781 1.045 0 2.01 -0.284 2.844 -0.781 l 15.25 -8.656 c 0.873 -0.46 1.625 -1.159 2.156 -2.063 0.554 -0.944 0.806 -1.987 0.75 -3 l 0 -0.5 z" opacity="0.05"/><path d="m 45 1036.86 c 0.015 0.263 -0.004 0.516 -0.031 0.781 -0.036 0.844 -0.259 1.685 -0.719 2.469 -0.532 0.903 -1.283 1.603 -2.156 2.063 l -15.25 8.656 c -0.832 0.497 -1.799 0.781 -2.844 0.781 -1.045 0 -2.01 -0.284 -2.844 -0.781 l -15.25 -8.656 c -0.873 -0.46 -1.625 -1.159 -2.156 -2.063 -0.414 -0.705 -0.621 -1.46 -0.688 -2.219 -0.014 -0.092 -0.054 -0.189 -0.063 -0.281 -0.004 0.932 0.242 1.884 0.75 2.75 0.532 0.903 1.283 1.603 2.156 2.063 l 15.25 8.656 c 0.832 0.497 1.799 0.781 2.844 0.781 1.045 0 2.01 -0.284 2.844 -0.781 l 15.25 -8.656 c 0.873 -0.46 1.625 -1.159 2.156 -2.063 0.554 -0.944 0.806 -1.987 0.75 -3 l 0 -0.5 z m -41.813 1.625 c 0.057 0.219 0.132 0.442 0.219 0.656 -0.088 -0.216 -0.16 -0.436 -0.219 -0.656 z m 0.219 0.656 c 0.099 0.243 0.206 0.484 0.344 0.719 -0.139 -0.236 -0.243 -0.472 -0.344 -0.719 z m 41.41 -0.656 c -0.059 0.221 -0.131 0.441 -0.219 0.656 0.087 -0.215 0.161 -0.437 0.219 -0.656 z m -0.219 0.656 c -0.101 0.246 -0.205 0.483 -0.344 0.719 0.138 -0.235 0.245 -0.476 0.344 -0.719 z" opacity="0.1"/><path d="m 3.03 1037.64 c 0.035 0.844 0.259 1.685 0.719 2.469 0.532 0.903 1.283 1.603 2.156 2.063 l 15.25 8.656 c 0.832 0.497 1.799 0.781 2.844 0.781 1.045 0 2.01 -0.284 2.844 -0.781 l 15.25 -8.656 c 0.873 -0.46 1.625 -1.159 2.156 -2.063 0.46 -0.784 0.683 -1.624 0.719 -2.469 -0.067 0.763 -0.303 1.511 -0.719 2.219 -0.532 0.903 -1.283 1.603 -2.156 2.063 l -15.25 8.656 c -0.832 0.497 -1.799 0.781 -2.844 0.781 -1.045 0 -2.01 -0.284 -2.844 -0.781 l -15.25 -8.656 c -0.873 -0.46 -1.625 -1.159 -2.156 -2.063 -0.416 -0.708 -0.651 -1.456 -0.719 -2.219 z" opacity="0.2"/></g></g><g><path d="m 24 46.996 c 1.045 0 2.023 -0.287 2.856 -0.784 l 15.339 -8.708 c 0.017 -0.013 0.035 -0.013 0.052 -0.021 1.852 -1.051 2.847 -3 2.746 -4.968 l 0 -17.02 c 0.056 -1.013 -0.175 -2.049 -0.729 -2.993 -0.532 -0.903 -1.288 -1.602 -2.161 -2.061 l -15.246 -8.653 c -0.832 -0.497 -1.811 -0.784 -2.856 -0.784 -1.045 0 -2.023 0.287 -2.856 0.784 l -15.246 8.653 c -0.873 0.46 -1.629 1.158 -2.161 2.061 -0.554 0.944 -0.785 1.981 -0.729 2.993 l 0 17.01 c -0.056 1.012 0.175 2.051 0.729 2.993 0.532 0.906 1.288 1.604 2.161 2.064 l 15.246 8.653 c 0.832 0.497 1.811 0.785 2.856 0.785 z" fill="url(#linearGradient3764)" fill-opacity="1"/></g><g><g clip-path="url(#clipPath-816505429)"><g opacity="0.25"><g transform="translate(0,1)"><g filter="url(#filter-797874654)"><!-- color: #518aeb --><path d="m 12 15 24 0 0 18 -24 0 z m 0 0" fill="#000"/><path d="m 19 33 10 0 0 3 -10 0 z m 0 0" fill="#000"/><path d="m 23.719 28.16 c -2.02 0.156 -3.574 1.848 -3.563 3.875 0 0.328 0.043 0.652 0.125 0.969 l 7.438 0 c 0.094 -0.316 0.145 -0.641 0.156 -0.969 0.008 -1.078 -0.438 -2.113 -1.23 -2.848 -0.789 -0.738 -1.848 -1.109 -2.926 -1.027 z m 0 0" fill="#000"/><path d="m 23.781 29 c -1.57 0.113 -2.785 1.426 -2.781 3 c 0.004 0.34 0.07 0.68 0.188 1 l 5.625 0 c 0.117 -0.32 0.184 -0.66 0.188 -1 0.004 -0.836 -0.344 -1.633 -0.953 -2.203 -0.613 -0.57 -1.434 -0.859 -2.266 -0.797 z m 0 0" fill="#000"/><path d="m 28 29 4.727 -0.129 c -0.969 -3.938 -4.484 -6.871 -8.719 -6.871 c -2.75 0 -5.176 1.254 -6.828 3.191 l 3.02 5.234 c 0.09 -0.559 0.289 -1.098 0.605 -1.57 0.316 -0.473 0.746 -0.875 1.273 -1.18 0.465 -0.266 0.953 -0.434 1.449 -0.496 0.5 -0.063 1.012 -0.02 1.488 0.105 0.48 0.129 0.93 0.344 1.328 0.645 c 0.328 0.246 1.418 0.719 1.66 1.07 z m 0 0" fill="#000"/><path d="m 26.438 28 c 0.441 0.355 0.777 0.801 1.031 1.313 0.254 0.512 0.406 1.078 0.406 1.688 0 0.535 -0.117 1.07 -0.313 1.531 -0.07 0.164 -0.156 0.316 -0.25 0.469 l 5.469 0 c 0.363 -1.672 0.25 -3.418 -0.313 -5 z m 0 0" fill="#000"/><path d="m 17.781 24.531 c -2.281 2.188 -3.246 5.414 -2.563 8.469 l 5.5 0 c -0.188 -0.313 -0.344 -0.652 -0.438 -1 -0.129 -0.477 -0.188 -0.969 -0.125 -1.469 0.051 -0.406 0.223 -0.801 0.406 -1.188 z m 0 0" fill="#000"/><path d="m 23.719 27.16 c -2.02 0.156 -3.574 1.848 -3.563 3.875 -0.004 0.691 0.18 1.371 0.531 1.969 l 6.625 0 c 0.359 -0.594 0.555 -1.273 0.563 -1.969 0.008 -1.078 -0.438 -2.113 -1.23 -2.848 -0.789 -0.738 -1.848 -1.109 -2.926 -1.027 z m 0 0" fill="#000"/><path d="m 23.781 28 c -1.57 0.113 -2.785 1.426 -2.781 3 c -0.004 0.734 0.262 1.449 0.75 2 l 4.469 0 c 0.5 -0.547 0.777 -1.258 0.781 -2 0.004 -0.836 -0.344 -1.633 -0.953 -2.203 -0.613 -0.57 -1.434 -0.859 -2.266 -0.797 z m 0 0" fill="#000"/><path d="m 13 14 c -1.109 0 -2 0.891 -2 2 l 0 16 c 0 1.109 0.891 2 2 2 l 22 0 c 1.109 0 2 -0.891 2 -2 l 0 -16 c 0 -1.109 -0.891 -2 -2 -2 z m 0 2 22 0 0 16 -22 0 z m 0 0" fill="#000"/></g></g></g></g></g><g><g clip-path="url(#clipPath-825253488)"><!-- color: #518aeb --><path d="m 12 15 24 0 0 18 -24 0 z m 0 0" fill="#f9f9f9"/><path d="m 19 33 10 0 0 3 -10 0 z m 0 0" fill="#d8d8d8"/><path d="m 23.719 28.16 c -2.02 0.156 -3.574 1.848 -3.563 3.875 0 0.328 0.043 0.652 0.125 0.969 l 7.438 0 c 0.094 -0.316 0.145 -0.641 0.156 -0.969 0.008 -1.078 -0.438 -2.113 -1.23 -2.848 -0.789 -0.738 -1.848 -1.109 -2.926 -1.027 z m 0 0" fill="#f9f9f9"/><path d="m 23.781 29 c -1.57 0.113 -2.785 1.426 -2.781 3 c 0.004 0.34 0.07 0.68 0.188 1 l 5.625 0 c 0.117 -0.32 0.184 -0.66 0.188 -1 0.004 -0.836 -0.344 -1.633 -0.953 -2.203 -0.613 -0.57 -1.434 -0.859 -2.266 -0.797 z m 0 0" fill="#7fb7cd"/><path d="m 28 29 4.727 -0.129 c -0.969 -3.938 -4.484 -6.871 -8.719 -6.871 c -2.75 0 -5.176 1.254 -6.828 3.191 l 3.02 5.234 c 0.09 -0.559 0.289 -1.098 0.605 -1.57 0.316 -0.473 0.746 -0.875 1.273 -1.18 0.465 -0.266 0.953 -0.434 1.449 -0.496 0.5 -0.063 1.012 -0.02 1.488 0.105 0.48 0.129 0.93 0.344 1.328 0.645 c 0.328 0.246 1.418 0.719 1.66 1.07 z m 0 0" fill="#d84336"/><path d="m 26.438 28 c 0.441 0.355 0.777 0.801 1.031 1.313 0.254 0.512 0.406 1.078 0.406 1.688 0 0.535 -0.117 1.07 -0.313 1.531 -0.07 0.164 -0.156 0.316 -0.25 0.469 l 5.469 0 c 0.363 -1.672 0.25 -3.418 -0.313 -5 z m 0 0" fill="#e3a500"/><path d="m 17.781 24.531 c -2.281 2.188 -3.246 5.414 -2.563 8.469 l 5.5 0 c -0.188 -0.313 -0.344 -0.652 -0.438 -1 -0.129 -0.477 -0.188 -0.969 -0.125 -1.469 0.051 -0.406 0.223 -0.801 0.406 -1.188 z m 0 0" fill="#0f8e52"/><path d="m 23.719 27.16 c -2.02 0.156 -3.574 1.848 -3.563 3.875 -0.004 0.691 0.18 1.371 0.531 1.969 l 6.625 0 c 0.359 -0.594 0.555 -1.273 0.563 -1.969 0.008 -1.078 -0.438 -2.113 -1.23 -2.848 -0.789 -0.738 -1.848 -1.109 -2.926 -1.027 z m 0 0" fill="#f9f9f9"/><path d="m 23.781 28 c -1.57 0.113 -2.785 1.426 -2.781 3 c -0.004 0.734 0.262 1.449 0.75 2 l 4.469 0 c 0.5 -0.547 0.777 -1.258 0.781 -2 0.004 -0.836 -0.344 -1.633 -0.953 -2.203 -0.613 -0.57 -1.434 -0.859 -2.266 -0.797 z m 0 0" fill="#3e7fe7"/><path d="m 13 14 c -1.109 0 -2 0.891 -2 2 l 0 16 c 0 1.109 0.891 2 2 2 l 22 0 c 1.109 0 2 -0.891 2 -2 l 0 -16 c 0 -1.109 -0.891 -2 -2 -2 z m 0 2 22 0 0 16 -22 0 z m 0 0" fill="#d8d8d8"/></g></g><g><path d="m 24 1 c -1.045 0 -2.01 0.284 -2.844 0.781 l -15.344 8.719 c -0.017 0.013 -0.045 0.023 -0.063 0.031 c -1.852 1.051 -2.851 3 -2.75 4.969 l 0 1 c -0.101 -1.966 0.898 -3.918 2.75 -4.969 c 0.017 -0.008 0.045 -0.018 0.063 -0.031 l 15.344 -8.719 c 0.832 -0.497 1.799 -0.781 2.844 -0.781 c 1.045 0 2.01 0.284 2.844 0.781 l 15.25 8.656 c 0.873 0.46 1.625 1.156 2.156 2.063 c 0.554 0.942 0.806 1.988 0.75 3 l 0 -1 c 0.056 -1.012 -0.196 -2.058 -0.75 -3 c -0.532 -0.906 -1.283 -1.603 -2.156 -2.063 l -15.25 -8.656 c -0.832 -0.497 -1.799 -0.781 -2.844 -0.781 z" opacity="0.2" fill="#fff"/></g></svg>