<svg viewBox="0 0 48 48"><defs><linearGradient id="linearGradient3764" y1="1" x2="0" y2="47" gradientUnits="userSpaceOnUse"><stop stop-color="#74b36b" stop-opacity="1"/><stop offset="1" stop-color="#67ac5e" stop-opacity="1"/></linearGradient><clipPath id="clipPath-957333034"><g transform="translate(0,-1004.3622)"><path d="m 24 1005.37 c -1.045 0 -2.023 0.287 -2.856 0.784 l -15.339 8.708 c -0.017 0.013 -0.035 0.013 -0.052 0.021 -1.852 1.051 -2.847 3 -2.746 4.968 l 0 17.02 c -0.056 1.013 0.175 2.049 0.729 2.993 0.532 0.903 1.288 1.602 2.161 2.061 l 15.246 8.653 c 0.832 0.497 1.811 0.784 2.856 0.784 1.045 0 2.023 -0.287 2.856 -0.784 l 15.246 -8.653 c 0.873 -0.46 1.629 -1.158 2.161 -2.061 0.554 -0.944 0.785 -1.981 0.729 -2.993 l 0 -17.01 c 0.056 -1.012 -0.175 -2.052 -0.729 -2.993 -0.532 -0.906 -1.288 -1.604 -2.161 -2.064 l -15.246 -8.653 c -0.832 -0.497 -1.811 -0.784 -2.856 -0.784 z" fill="#1890d0"/></g></clipPath><clipPath id="clipPath-966253396"><g transform="translate(0,-1004.3622)"><path d="m 24 1005.37 c -1.045 0 -2.023 0.287 -2.856 0.784 l -15.339 8.708 c -0.017 0.013 -0.035 0.013 -0.052 0.021 -1.852 1.051 -2.847 3 -2.746 4.968 l 0 17.02 c -0.056 1.013 0.175 2.049 0.729 2.993 0.532 0.903 1.288 1.602 2.161 2.061 l 15.246 8.653 c 0.832 0.497 1.811 0.784 2.856 0.784 1.045 0 2.023 -0.287 2.856 -0.784 l 15.246 -8.653 c 0.873 -0.46 1.629 -1.158 2.161 -2.061 0.554 -0.944 0.785 -1.981 0.729 -2.993 l 0 -17.01 c 0.056 -1.012 -0.175 -2.052 -0.729 -2.993 -0.532 -0.906 -1.288 -1.604 -2.161 -2.064 l -15.246 -8.653 c -0.832 -0.497 -1.811 -0.784 -2.856 -0.784 z" fill="#1890d0"/></g></clipPath><filter id="filter-938417422"><feGaussianBlur stdDeviation="0.35"/></filter></defs><g><g transform="translate(0,-1004.3622)"><path d="m 45 1037.36 c 0.056 1.013 -0.196 2.056 -0.75 3 -0.532 0.903 -1.283 1.603 -2.156 2.063 l -15.25 8.656 c -0.832 0.497 -1.799 0.781 -2.844 0.781 -1.045 0 -2.01 -0.284 -2.844 -0.781 l -15.25 -8.656 c -0.873 -0.46 -1.625 -1.159 -2.156 -2.063 -0.416 -0.708 -0.677 -1.485 -0.75 -2.25 -0.004 0.932 0.242 1.884 0.75 2.75 0.532 0.903 1.283 1.603 2.156 2.063 l 15.25 8.656 c 0.832 0.497 1.799 0.781 2.844 0.781 1.045 0 2.01 -0.284 2.844 -0.781 l 15.25 -8.656 c 0.873 -0.46 1.625 -1.159 2.156 -2.063 0.554 -0.944 0.806 -1.987 0.75 -3 l 0 -0.5 z" opacity="0.05"/><path d="m 45 1036.86 c 0.015 0.263 -0.004 0.516 -0.031 0.781 -0.036 0.844 -0.259 1.685 -0.719 2.469 -0.532 0.903 -1.283 1.603 -2.156 2.063 l -15.25 8.656 c -0.832 0.497 -1.799 0.781 -2.844 0.781 -1.045 0 -2.01 -0.284 -2.844 -0.781 l -15.25 -8.656 c -0.873 -0.46 -1.625 -1.159 -2.156 -2.063 -0.414 -0.705 -0.621 -1.46 -0.688 -2.219 -0.014 -0.092 -0.054 -0.189 -0.063 -0.281 -0.004 0.932 0.242 1.884 0.75 2.75 0.532 0.903 1.283 1.603 2.156 2.063 l 15.25 8.656 c 0.832 0.497 1.799 0.781 2.844 0.781 1.045 0 2.01 -0.284 2.844 -0.781 l 15.25 -8.656 c 0.873 -0.46 1.625 -1.159 2.156 -2.063 0.554 -0.944 0.806 -1.987 0.75 -3 l 0 -0.5 z m -41.813 1.625 c 0.057 0.219 0.132 0.442 0.219 0.656 -0.088 -0.216 -0.16 -0.436 -0.219 -0.656 z m 0.219 0.656 c 0.099 0.243 0.206 0.484 0.344 0.719 -0.139 -0.236 -0.243 -0.472 -0.344 -0.719 z m 41.41 -0.656 c -0.059 0.221 -0.131 0.441 -0.219 0.656 0.087 -0.215 0.161 -0.437 0.219 -0.656 z m -0.219 0.656 c -0.101 0.246 -0.205 0.483 -0.344 0.719 0.138 -0.235 0.245 -0.476 0.344 -0.719 z" opacity="0.1"/><path d="m 3.03 1037.64 c 0.035 0.844 0.259 1.685 0.719 2.469 0.532 0.903 1.283 1.603 2.156 2.063 l 15.25 8.656 c 0.832 0.497 1.799 0.781 2.844 0.781 1.045 0 2.01 -0.284 2.844 -0.781 l 15.25 -8.656 c 0.873 -0.46 1.625 -1.159 2.156 -2.063 0.46 -0.784 0.683 -1.624 0.719 -2.469 -0.067 0.763 -0.303 1.511 -0.719 2.219 -0.532 0.903 -1.283 1.603 -2.156 2.063 l -15.25 8.656 c -0.832 0.497 -1.799 0.781 -2.844 0.781 -1.045 0 -2.01 -0.284 -2.844 -0.781 l -15.25 -8.656 c -0.873 -0.46 -1.625 -1.159 -2.156 -2.063 -0.416 -0.708 -0.651 -1.456 -0.719 -2.219 z" opacity="0.2"/></g></g><g><path d="m 24 46.996 c 1.045 0 2.023 -0.287 2.856 -0.784 l 15.339 -8.708 c 0.017 -0.013 0.035 -0.013 0.052 -0.021 1.852 -1.051 2.847 -3 2.746 -4.968 l 0 -17.02 c 0.056 -1.013 -0.175 -2.049 -0.729 -2.993 -0.532 -0.903 -1.288 -1.602 -2.161 -2.061 l -15.246 -8.653 c -0.832 -0.497 -1.811 -0.784 -2.856 -0.784 -1.045 0 -2.023 0.287 -2.856 0.784 l -15.246 8.653 c -0.873 0.46 -1.629 1.158 -2.161 2.061 -0.554 0.944 -0.785 1.981 -0.729 2.993 l 0 17.01 c -0.056 1.012 0.175 2.051 0.729 2.993 0.532 0.906 1.288 1.604 2.161 2.064 l 15.246 8.653 c 0.832 0.497 1.811 0.785 2.856 0.785 z" fill="url(#linearGradient3764)" fill-opacity="1"/></g><g><g clip-path="url(#clipPath-957333034)"><g opacity="0.25"><g transform="translate(0,1)"><g filter="url(#filter-938417422)"><!-- color: #74b36b --><g><path d="m 25.23 11.371 c -6.313 0 -11.426 5.074 -11.426 11.328 c 0 2.141 0.598 4.145 1.641 5.852 l -2.063 6.074 l 6.324 -2.01 c 1.637 0.898 3.52 1.41 5.523 1.41 c 6.309 0 11.422 -5.07 11.422 -11.328 c 0 -6.254 -5.113 -11.328 -11.422 -11.328 m 0 20.852 c -1.953 0 -3.77 -0.578 -5.285 -1.574 l -3.691 1.172 l 1.199 -3.535 c -1.148 -1.57 -1.828 -3.5 -1.828 -5.586 c 0 -5.25 4.309 -9.523 9.605 -9.523 c 5.293 0 9.602 4.273 9.602 9.523 c 0 5.254 -4.309 9.523 -9.602 9.523 m 0 0" fill-rule="evenodd" fill="#000"/><path d="m 22.547 18.02 c -0.188 -0.441 -0.328 -0.457 -0.613 -0.473 c -0.098 -0.004 -0.207 -0.008 -0.32 -0.008 c -0.371 0 -0.75 0.109 -0.98 0.34 c -0.281 0.285 -0.98 0.949 -0.98 2.316 c 0 1.367 1 2.688 1.141 2.871 c 0.141 0.188 1.961 3.03 4.785 4.191 c 2.207 0.906 2.863 0.828 3.367 0.719 c 0.73 -0.16 1.652 -0.695 1.883 -1.344 c 0.234 -0.648 0.234 -1.203 0.164 -1.32 c -0.07 -0.113 -0.258 -0.184 -0.535 -0.324 c -0.281 -0.137 -1.656 -0.809 -1.914 -0.902 c -0.258 -0.094 -0.496 -0.063 -0.691 0.207 c -0.273 0.375 -0.535 0.758 -0.754 0.984 c -0.168 0.18 -0.441 0.207 -0.68 0.105 c -0.309 -0.129 -1.18 -0.434 -2.25 -1.379 c -0.832 -0.734 -1.395 -1.645 -1.559 -1.922 c -0.164 -0.277 -0.016 -0.441 0.113 -0.594 c 0.141 -0.172 0.273 -0.297 0.414 -0.457 c 0.141 -0.164 0.219 -0.25 0.313 -0.438 c 0.094 -0.184 0.031 -0.375 -0.039 -0.512 c -0.07 -0.141 -0.633 -1.508 -0.863 -2.063 m 0 0" fill-rule="evenodd" fill="#000"/></g></g></g></g></g></g><g><g clip-path="url(#clipPath-966253396)"><!-- color: #74b36b --><g><path d="m 25.23 11.371 c -6.313 0 -11.426 5.074 -11.426 11.328 c 0 2.141 0.598 4.145 1.641 5.852 l -2.063 6.074 l 6.324 -2.01 c 1.637 0.898 3.52 1.41 5.523 1.41 c 6.309 0 11.422 -5.07 11.422 -11.328 c 0 -6.254 -5.113 -11.328 -11.422 -11.328 m 0 20.852 c -1.953 0 -3.77 -0.578 -5.285 -1.574 l -3.691 1.172 l 1.199 -3.535 c -1.148 -1.57 -1.828 -3.5 -1.828 -5.586 c 0 -5.25 4.309 -9.523 9.605 -9.523 c 5.293 0 9.602 4.273 9.602 9.523 c 0 5.254 -4.309 9.523 -9.602 9.523 m 0 0" fill="#fff" fill-rule="evenodd"/><path d="m 22.547 18.02 c -0.188 -0.441 -0.328 -0.457 -0.613 -0.473 c -0.098 -0.004 -0.207 -0.008 -0.32 -0.008 c -0.371 0 -0.75 0.109 -0.98 0.34 c -0.281 0.285 -0.98 0.949 -0.98 2.316 c 0 1.367 1 2.688 1.141 2.871 c 0.141 0.188 1.961 3.03 4.785 4.191 c 2.207 0.906 2.863 0.828 3.367 0.719 c 0.73 -0.16 1.652 -0.695 1.883 -1.344 c 0.234 -0.648 0.234 -1.203 0.164 -1.32 c -0.07 -0.113 -0.258 -0.184 -0.535 -0.324 c -0.281 -0.137 -1.656 -0.809 -1.914 -0.902 c -0.258 -0.094 -0.496 -0.063 -0.691 0.207 c -0.273 0.375 -0.535 0.758 -0.754 0.984 c -0.168 0.18 -0.441 0.207 -0.68 0.105 c -0.309 -0.129 -1.18 -0.434 -2.25 -1.379 c -0.832 -0.734 -1.395 -1.645 -1.559 -1.922 c -0.164 -0.277 -0.016 -0.441 0.113 -0.594 c 0.141 -0.172 0.273 -0.297 0.414 -0.457 c 0.141 -0.164 0.219 -0.25 0.313 -0.438 c 0.094 -0.184 0.031 -0.375 -0.039 -0.512 c -0.07 -0.141 -0.633 -1.508 -0.863 -2.063 m 0 0" fill="#fff" fill-rule="evenodd"/></g></g></g><g><path d="m 24 1 c -1.045 0 -2.01 0.284 -2.844 0.781 l -15.344 8.719 c -0.017 0.013 -0.045 0.023 -0.063 0.031 c -1.852 1.051 -2.851 3 -2.75 4.969 l 0 1 c -0.101 -1.966 0.898 -3.918 2.75 -4.969 c 0.017 -0.008 0.045 -0.018 0.063 -0.031 l 15.344 -8.719 c 0.832 -0.497 1.799 -0.781 2.844 -0.781 c 1.045 0 2.01 0.284 2.844 0.781 l 15.25 8.656 c 0.873 0.46 1.625 1.156 2.156 2.063 c 0.554 0.942 0.806 1.988 0.75 3 l 0 -1 c 0.056 -1.012 -0.196 -2.058 -0.75 -3 c -0.532 -0.906 -1.283 -1.603 -2.156 -2.063 l -15.25 -8.656 c -0.832 -0.497 -1.799 -0.781 -2.844 -0.781 z" opacity="0.2" fill="#fff"/></g></svg>