<svg viewBox="0 0 48 48"><defs><linearGradient id="linearGradient3764" y1="1" x2="0" y2="47" gradientUnits="userSpaceOnUse"><stop stop-color="#db5441" stop-opacity="1"/><stop offset="1" stop-color="#d84430" stop-opacity="1"/></linearGradient><clipPath id="clipPath-853319168"><g transform="translate(0,-1004.3622)"><path d="m 24 1005.37 c -1.045 0 -2.023 0.287 -2.856 0.784 l -15.339 8.708 c -0.017 0.013 -0.035 0.013 -0.052 0.021 -1.852 1.051 -2.847 3 -2.746 4.968 l 0 17.02 c -0.056 1.013 0.175 2.049 0.729 2.993 0.532 0.903 1.288 1.602 2.161 2.061 l 15.246 8.653 c 0.832 0.497 1.811 0.784 2.856 0.784 1.045 0 2.023 -0.287 2.856 -0.784 l 15.246 -8.653 c 0.873 -0.46 1.629 -1.158 2.161 -2.061 0.554 -0.944 0.785 -1.981 0.729 -2.993 l 0 -17.01 c 0.056 -1.012 -0.175 -2.052 -0.729 -2.993 -0.532 -0.906 -1.288 -1.604 -2.161 -2.064 l -15.246 -8.653 c -0.832 -0.497 -1.811 -0.784 -2.856 -0.784 z" fill="#1890d0"/></g></clipPath><clipPath id="clipPath-862321009"><g transform="translate(0,-1004.3622)"><path d="m 24 1005.37 c -1.045 0 -2.023 0.287 -2.856 0.784 l -15.339 8.708 c -0.017 0.013 -0.035 0.013 -0.052 0.021 -1.852 1.051 -2.847 3 -2.746 4.968 l 0 17.02 c -0.056 1.013 0.175 2.049 0.729 2.993 0.532 0.903 1.288 1.602 2.161 2.061 l 15.246 8.653 c 0.832 0.497 1.811 0.784 2.856 0.784 1.045 0 2.023 -0.287 2.856 -0.784 l 15.246 -8.653 c 0.873 -0.46 1.629 -1.158 2.161 -2.061 0.554 -0.944 0.785 -1.981 0.729 -2.993 l 0 -17.01 c 0.056 -1.012 -0.175 -2.052 -0.729 -2.993 -0.532 -0.906 -1.288 -1.604 -2.161 -2.064 l -15.246 -8.653 c -0.832 -0.497 -1.811 -0.784 -2.856 -0.784 z" fill="#1890d0"/></g></clipPath><filter id="filter-833757246"><feGaussianBlur stdDeviation="0.35"/></filter></defs><g><g transform="translate(0,-1004.3622)"><path d="m 45 1037.36 c 0.056 1.013 -0.196 2.056 -0.75 3 -0.532 0.903 -1.283 1.603 -2.156 2.063 l -15.25 8.656 c -0.832 0.497 -1.799 0.781 -2.844 0.781 -1.045 0 -2.01 -0.284 -2.844 -0.781 l -15.25 -8.656 c -0.873 -0.46 -1.625 -1.159 -2.156 -2.063 -0.416 -0.708 -0.677 -1.485 -0.75 -2.25 -0.004 0.932 0.242 1.884 0.75 2.75 0.532 0.903 1.283 1.603 2.156 2.063 l 15.25 8.656 c 0.832 0.497 1.799 0.781 2.844 0.781 1.045 0 2.01 -0.284 2.844 -0.781 l 15.25 -8.656 c 0.873 -0.46 1.625 -1.159 2.156 -2.063 0.554 -0.944 0.806 -1.987 0.75 -3 l 0 -0.5 z" opacity="0.05"/><path d="m 45 1036.86 c 0.015 0.263 -0.004 0.516 -0.031 0.781 -0.036 0.844 -0.259 1.685 -0.719 2.469 -0.532 0.903 -1.283 1.603 -2.156 2.063 l -15.25 8.656 c -0.832 0.497 -1.799 0.781 -2.844 0.781 -1.045 0 -2.01 -0.284 -2.844 -0.781 l -15.25 -8.656 c -0.873 -0.46 -1.625 -1.159 -2.156 -2.063 -0.414 -0.705 -0.621 -1.46 -0.688 -2.219 -0.014 -0.092 -0.054 -0.189 -0.063 -0.281 -0.004 0.932 0.242 1.884 0.75 2.75 0.532 0.903 1.283 1.603 2.156 2.063 l 15.25 8.656 c 0.832 0.497 1.799 0.781 2.844 0.781 1.045 0 2.01 -0.284 2.844 -0.781 l 15.25 -8.656 c 0.873 -0.46 1.625 -1.159 2.156 -2.063 0.554 -0.944 0.806 -1.987 0.75 -3 l 0 -0.5 z m -41.813 1.625 c 0.057 0.219 0.132 0.442 0.219 0.656 -0.088 -0.216 -0.16 -0.436 -0.219 -0.656 z m 0.219 0.656 c 0.099 0.243 0.206 0.484 0.344 0.719 -0.139 -0.236 -0.243 -0.472 -0.344 -0.719 z m 41.41 -0.656 c -0.059 0.221 -0.131 0.441 -0.219 0.656 0.087 -0.215 0.161 -0.437 0.219 -0.656 z m -0.219 0.656 c -0.101 0.246 -0.205 0.483 -0.344 0.719 0.138 -0.235 0.245 -0.476 0.344 -0.719 z" opacity="0.1"/><path d="m 3.03 1037.64 c 0.035 0.844 0.259 1.685 0.719 2.469 0.532 0.903 1.283 1.603 2.156 2.063 l 15.25 8.656 c 0.832 0.497 1.799 0.781 2.844 0.781 1.045 0 2.01 -0.284 2.844 -0.781 l 15.25 -8.656 c 0.873 -0.46 1.625 -1.159 2.156 -2.063 0.46 -0.784 0.683 -1.624 0.719 -2.469 -0.067 0.763 -0.303 1.511 -0.719 2.219 -0.532 0.903 -1.283 1.603 -2.156 2.063 l -15.25 8.656 c -0.832 0.497 -1.799 0.781 -2.844 0.781 -1.045 0 -2.01 -0.284 -2.844 -0.781 l -15.25 -8.656 c -0.873 -0.46 -1.625 -1.159 -2.156 -2.063 -0.416 -0.708 -0.651 -1.456 -0.719 -2.219 z" opacity="0.2"/></g></g><g><path d="m 24 46.996 c 1.045 0 2.023 -0.287 2.856 -0.784 l 15.339 -8.708 c 0.017 -0.013 0.035 -0.013 0.052 -0.021 1.852 -1.051 2.847 -3 2.746 -4.968 l 0 -17.02 c 0.056 -1.013 -0.175 -2.049 -0.729 -2.993 -0.532 -0.903 -1.288 -1.602 -2.161 -2.061 l -15.246 -8.653 c -0.832 -0.497 -1.811 -0.784 -2.856 -0.784 -1.045 0 -2.023 0.287 -2.856 0.784 l -15.246 8.653 c -0.873 0.46 -1.629 1.158 -2.161 2.061 -0.554 0.944 -0.785 1.981 -0.729 2.993 l 0 17.01 c -0.056 1.012 0.175 2.051 0.729 2.993 0.532 0.906 1.288 1.604 2.161 2.064 l 15.246 8.653 c 0.832 0.497 1.811 0.785 2.856 0.785 z" fill="url(#linearGradient3764)" fill-opacity="1"/></g><g><g clip-path="url(#clipPath-853319168)"><g opacity="0.25"><g transform="translate(0,1)"><g filter="url(#filter-833757246)"><!-- color: #db5441 --><g><path d="m 21.04 13.13 c 0.191 0.148 0.418 0.348 0.676 0.598 c 0.258 0.23 0.508 0.527 0.742 0.883 c 0.238 0.336 0.441 0.734 0.613 1.195 c 0.172 0.465 0.258 0.988 0.258 1.578 c 0 0.586 -0.074 1.102 -0.227 1.543 c -0.148 0.441 -0.355 0.84 -0.613 1.195 c -0.258 0.336 -0.547 0.652 -0.871 0.945 c -0.32 0.273 -0.656 0.535 -1 0.789 c -0.215 0.207 -0.418 0.43 -0.613 0.66 c -0.191 0.23 -0.289 0.523 -0.289 0.883 c 0 0.355 0.098 0.641 0.289 0.848 c 0.195 0.191 0.379 0.359 0.551 0.504 l 1.16 0.883 c 0.344 0.293 0.68 0.59 1 0.883 c 0.344 0.293 0.637 0.609 0.871 0.945 c 0.258 0.336 0.465 0.715 0.613 1.133 c 0.152 0.422 0.227 0.902 0.227 1.449 c 0 0.734 -0.184 1.461 -0.547 2.172 c -0.367 0.715 -0.906 1.344 -1.613 1.891 c -0.711 0.566 -1.605 1.02 -2.68 1.355 c -1.055 0.355 -2.27 0.535 -3.645 0.535 c -1.164 0 -2.184 -0.125 -3.066 -0.379 c -0.859 -0.25 -1.582 -0.586 -2.16 -1.01 c -0.582 -0.418 -1.012 -0.902 -1.293 -1.449 c -0.277 -0.523 -0.418 -1.082 -0.418 -1.668 c 0 -0.566 0.184 -1.219 0.547 -1.953 c 0.348 -0.715 0.992 -1.344 1.938 -1.891 c 0.496 -0.293 1.023 -0.535 1.582 -0.723 c 0.578 -0.168 1.148 -0.305 1.707 -0.41 c 0.563 -0.105 1.086 -0.18 1.582 -0.223 c 0.496 -0.039 0.926 -0.07 1.289 -0.094 c -0.234 -0.293 -0.461 -0.598 -0.676 -0.914 c -0.195 -0.336 -0.289 -0.742 -0.289 -1.227 c 0 -0.273 0.031 -0.492 0.094 -0.66 c 0.066 -0.191 0.141 -0.379 0.227 -0.566 c -0.172 0.02 -0.344 0.039 -0.516 0.063 c -0.172 0 -0.344 0 -0.516 0 c -0.859 0 -1.625 -0.137 -2.289 -0.41 c -0.668 -0.293 -1.227 -0.672 -1.68 -1.133 c -0.453 -0.465 -0.797 -0.988 -1.031 -1.578 c -0.238 -0.609 -0.355 -1.215 -0.355 -1.824 c 0 -0.734 0.172 -1.473 0.516 -2.207 c 0.344 -0.754 0.859 -1.426 1.551 -2.02 c 0.922 -0.734 1.891 -1.207 2.902 -1.418 c 1.031 -0.207 1.988 -0.313 2.871 -0.313 l 6.645 0 l -2.063 1.133 l -2 0 m -3.551 8.883 c 0.41 0 0.809 -0.086 1.195 -0.254 c 0.406 -0.168 0.742 -0.375 1 -0.629 c 0.363 -0.355 0.59 -0.754 0.676 -1.195 c 0.086 -0.441 0.129 -0.809 0.129 -1.105 c 0 -0.566 -0.086 -1.184 -0.258 -1.855 c -0.172 -0.672 -0.43 -1.305 -0.773 -1.891 c -0.344 -0.59 -0.773 -1.07 -1.289 -1.449 c -0.496 -0.398 -1.078 -0.598 -1.742 -0.598 c -0.43 0 -0.852 0.094 -1.258 0.281 c -0.41 0.191 -0.742 0.441 -1 0.758 c -0.277 0.336 -0.473 0.703 -0.578 1.102 c -0.086 0.398 -0.129 0.809 -0.129 1.23 c 0 0.523 0.074 1.109 0.227 1.762 c 0.172 0.652 0.418 1.262 0.742 1.828 c 0.344 0.566 0.762 1.051 1.258 1.449 c 0.516 0.375 1.117 0.566 1.805 0.566 m 4.777 9.258 c 0 -0.398 -0.078 -0.766 -0.227 -1.102 c -0.129 -0.313 -0.336 -0.629 -0.613 -0.945 c -0.281 -0.313 -0.645 -0.641 -1.098 -0.977 c -0.453 -0.336 -0.98 -0.711 -1.582 -1.133 c -0.129 -0.02 -0.246 -0.031 -0.355 -0.031 c -0.086 0 -0.215 0 -0.387 0 c -0.063 0 -0.215 0 -0.449 0 c -0.238 0.02 -0.516 0.043 -0.84 0.063 c -0.324 0.043 -0.668 0.094 -1.031 0.16 c -0.367 0.082 -0.723 0.176 -1.066 0.281 c -0.172 0.063 -0.418 0.156 -0.742 0.285 c -0.301 0.145 -0.602 0.344 -0.902 0.598 c -0.301 0.25 -0.57 0.566 -0.809 0.945 c -0.215 0.379 -0.32 0.848 -0.32 1.418 c 0 1.133 0.504 2.055 1.516 2.77 c 1.031 0.715 2.418 1.07 4.16 1.07 c 1.551 0 2.723 -0.324 3.52 -0.977 c 0.816 -0.629 1.227 -1.438 1.227 -2.426" fill="#000"/><path d="m 34 16.723 l 0 5.262 l 5 0 l 0 2 l -5 0 l 0 5 l -2 0 l 0 -5 l -5 0 l 0 -2 l 5 0 l 0 -5.262" fill="#000"/></g></g></g></g></g></g><g><g clip-path="url(#clipPath-862321009)"><!-- color: #db5441 --><g><path d="m 21.04 13.13 c 0.191 0.148 0.418 0.348 0.676 0.598 c 0.258 0.23 0.508 0.527 0.742 0.883 c 0.238 0.336 0.441 0.734 0.613 1.195 c 0.172 0.465 0.258 0.988 0.258 1.578 c 0 0.586 -0.074 1.102 -0.227 1.543 c -0.148 0.441 -0.355 0.84 -0.613 1.195 c -0.258 0.336 -0.547 0.652 -0.871 0.945 c -0.32 0.273 -0.656 0.535 -1 0.789 c -0.215 0.207 -0.418 0.43 -0.613 0.66 c -0.191 0.23 -0.289 0.523 -0.289 0.883 c 0 0.355 0.098 0.641 0.289 0.848 c 0.195 0.191 0.379 0.359 0.551 0.504 l 1.16 0.883 c 0.344 0.293 0.68 0.59 1 0.883 c 0.344 0.293 0.637 0.609 0.871 0.945 c 0.258 0.336 0.465 0.715 0.613 1.133 c 0.152 0.422 0.227 0.902 0.227 1.449 c 0 0.734 -0.184 1.461 -0.547 2.172 c -0.367 0.715 -0.906 1.344 -1.613 1.891 c -0.711 0.566 -1.605 1.02 -2.68 1.355 c -1.055 0.355 -2.27 0.535 -3.645 0.535 c -1.164 0 -2.184 -0.125 -3.066 -0.379 c -0.859 -0.25 -1.582 -0.586 -2.16 -1.01 c -0.582 -0.418 -1.012 -0.902 -1.293 -1.449 c -0.277 -0.523 -0.418 -1.082 -0.418 -1.668 c 0 -0.566 0.184 -1.219 0.547 -1.953 c 0.348 -0.715 0.992 -1.344 1.938 -1.891 c 0.496 -0.293 1.023 -0.535 1.582 -0.723 c 0.578 -0.168 1.148 -0.305 1.707 -0.41 c 0.563 -0.105 1.086 -0.18 1.582 -0.223 c 0.496 -0.039 0.926 -0.07 1.289 -0.094 c -0.234 -0.293 -0.461 -0.598 -0.676 -0.914 c -0.195 -0.336 -0.289 -0.742 -0.289 -1.227 c 0 -0.273 0.031 -0.492 0.094 -0.66 c 0.066 -0.191 0.141 -0.379 0.227 -0.566 c -0.172 0.02 -0.344 0.039 -0.516 0.063 c -0.172 0 -0.344 0 -0.516 0 c -0.859 0 -1.625 -0.137 -2.289 -0.41 c -0.668 -0.293 -1.227 -0.672 -1.68 -1.133 c -0.453 -0.465 -0.797 -0.988 -1.031 -1.578 c -0.238 -0.609 -0.355 -1.215 -0.355 -1.824 c 0 -0.734 0.172 -1.473 0.516 -2.207 c 0.344 -0.754 0.859 -1.426 1.551 -2.02 c 0.922 -0.734 1.891 -1.207 2.902 -1.418 c 1.031 -0.207 1.988 -0.313 2.871 -0.313 l 6.645 0 l -2.063 1.133 l -2 0 m -3.551 8.883 c 0.41 0 0.809 -0.086 1.195 -0.254 c 0.406 -0.168 0.742 -0.375 1 -0.629 c 0.363 -0.355 0.59 -0.754 0.676 -1.195 c 0.086 -0.441 0.129 -0.809 0.129 -1.105 c 0 -0.566 -0.086 -1.184 -0.258 -1.855 c -0.172 -0.672 -0.43 -1.305 -0.773 -1.891 c -0.344 -0.59 -0.773 -1.07 -1.289 -1.449 c -0.496 -0.398 -1.078 -0.598 -1.742 -0.598 c -0.43 0 -0.852 0.094 -1.258 0.281 c -0.41 0.191 -0.742 0.441 -1 0.758 c -0.277 0.336 -0.473 0.703 -0.578 1.102 c -0.086 0.398 -0.129 0.809 -0.129 1.23 c 0 0.523 0.074 1.109 0.227 1.762 c 0.172 0.652 0.418 1.262 0.742 1.828 c 0.344 0.566 0.762 1.051 1.258 1.449 c 0.516 0.375 1.117 0.566 1.805 0.566 m 4.777 9.258 c 0 -0.398 -0.078 -0.766 -0.227 -1.102 c -0.129 -0.313 -0.336 -0.629 -0.613 -0.945 c -0.281 -0.313 -0.645 -0.641 -1.098 -0.977 c -0.453 -0.336 -0.98 -0.711 -1.582 -1.133 c -0.129 -0.02 -0.246 -0.031 -0.355 -0.031 c -0.086 0 -0.215 0 -0.387 0 c -0.063 0 -0.215 0 -0.449 0 c -0.238 0.02 -0.516 0.043 -0.84 0.063 c -0.324 0.043 -0.668 0.094 -1.031 0.16 c -0.367 0.082 -0.723 0.176 -1.066 0.281 c -0.172 0.063 -0.418 0.156 -0.742 0.285 c -0.301 0.145 -0.602 0.344 -0.902 0.598 c -0.301 0.25 -0.57 0.566 -0.809 0.945 c -0.215 0.379 -0.32 0.848 -0.32 1.418 c 0 1.133 0.504 2.055 1.516 2.77 c 1.031 0.715 2.418 1.07 4.16 1.07 c 1.551 0 2.723 -0.324 3.52 -0.977 c 0.816 -0.629 1.227 -1.438 1.227 -2.426" fill="#f9f9f9"/><path d="m 34 16.723 l 0 5.262 l 5 0 l 0 2 l -5 0 l 0 5 l -2 0 l 0 -5 l -5 0 l 0 -2 l 5 0 l 0 -5.262" fill="#f9f9f9"/></g></g></g><g><path d="m 24 1 c -1.045 0 -2.01 0.284 -2.844 0.781 l -15.344 8.719 c -0.017 0.013 -0.045 0.023 -0.063 0.031 c -1.852 1.051 -2.851 3 -2.75 4.969 l 0 1 c -0.101 -1.966 0.898 -3.918 2.75 -4.969 c 0.017 -0.008 0.045 -0.018 0.063 -0.031 l 15.344 -8.719 c 0.832 -0.497 1.799 -0.781 2.844 -0.781 c 1.045 0 2.01 0.284 2.844 0.781 l 15.25 8.656 c 0.873 0.46 1.625 1.156 2.156 2.063 c 0.554 0.942 0.806 1.988 0.75 3 l 0 -1 c 0.056 -1.012 -0.196 -2.058 -0.75 -3 c -0.532 -0.906 -1.283 -1.603 -2.156 -2.063 l -15.25 -8.656 c -0.832 -0.497 -1.799 -0.781 -2.844 -0.781 z" opacity="0.2" fill="#fff"/></g></svg>