<svg viewBox="0 0 48 48"><defs><linearGradient id="linearGradient3764" y1="1" x2="0" y2="47" gradientUnits="userSpaceOnUse"><stop stop-color="#9b75b7" stop-opacity="1"/><stop offset="1" stop-color="#9168b0" stop-opacity="1"/></linearGradient><clipPath id="clipPath-845268264"><g transform="translate(0,-1004.3622)"><path d="m 24 1005.37 c -1.045 0 -2.023 0.287 -2.856 0.784 l -15.339 8.708 c -0.017 0.013 -0.035 0.013 -0.052 0.021 -1.852 1.051 -2.847 3 -2.746 4.968 l 0 17.02 c -0.056 1.013 0.175 2.049 0.729 2.993 0.532 0.903 1.288 1.602 2.161 2.061 l 15.246 8.653 c 0.832 0.497 1.811 0.784 2.856 0.784 1.045 0 2.023 -0.287 2.856 -0.784 l 15.246 -8.653 c 0.873 -0.46 1.629 -1.158 2.161 -2.061 0.554 -0.944 0.785 -1.981 0.729 -2.993 l 0 -17.01 c 0.056 -1.012 -0.175 -2.052 -0.729 -2.993 -0.532 -0.906 -1.288 -1.604 -2.161 -2.064 l -15.246 -8.653 c -0.832 -0.497 -1.811 -0.784 -2.856 -0.784 z" fill="#1890d0"/></g></clipPath><clipPath id="clipPath-865092459"><g transform="translate(0,-1004.3622)"><path d="m 24 1005.37 c -1.045 0 -2.023 0.287 -2.856 0.784 l -15.339 8.708 c -0.017 0.013 -0.035 0.013 -0.052 0.021 -1.852 1.051 -2.847 3 -2.746 4.968 l 0 17.02 c -0.056 1.013 0.175 2.049 0.729 2.993 0.532 0.903 1.288 1.602 2.161 2.061 l 15.246 8.653 c 0.832 0.497 1.811 0.784 2.856 0.784 1.045 0 2.023 -0.287 2.856 -0.784 l 15.246 -8.653 c 0.873 -0.46 1.629 -1.158 2.161 -2.061 0.554 -0.944 0.785 -1.981 0.729 -2.993 l 0 -17.01 c 0.056 -1.012 -0.175 -2.052 -0.729 -2.993 -0.532 -0.906 -1.288 -1.604 -2.161 -2.064 l -15.246 -8.653 c -0.832 -0.497 -1.811 -0.784 -2.856 -0.784 z" fill="#1890d0"/></g></clipPath><filter id="filter-803036158"><feGaussianBlur stdDeviation="0.35"/></filter></defs><g><g transform="translate(0,-1004.3622)"><path d="m 45 1037.36 c 0.056 1.013 -0.196 2.056 -0.75 3 -0.532 0.903 -1.283 1.603 -2.156 2.063 l -15.25 8.656 c -0.832 0.497 -1.799 0.781 -2.844 0.781 -1.045 0 -2.01 -0.284 -2.844 -0.781 l -15.25 -8.656 c -0.873 -0.46 -1.625 -1.159 -2.156 -2.063 -0.416 -0.708 -0.677 -1.485 -0.75 -2.25 -0.004 0.932 0.242 1.884 0.75 2.75 0.532 0.903 1.283 1.603 2.156 2.063 l 15.25 8.656 c 0.832 0.497 1.799 0.781 2.844 0.781 1.045 0 2.01 -0.284 2.844 -0.781 l 15.25 -8.656 c 0.873 -0.46 1.625 -1.159 2.156 -2.063 0.554 -0.944 0.806 -1.987 0.75 -3 l 0 -0.5 z" opacity="0.05"/><path d="m 45 1036.86 c 0.015 0.263 -0.004 0.516 -0.031 0.781 -0.036 0.844 -0.259 1.685 -0.719 2.469 -0.532 0.903 -1.283 1.603 -2.156 2.063 l -15.25 8.656 c -0.832 0.497 -1.799 0.781 -2.844 0.781 -1.045 0 -2.01 -0.284 -2.844 -0.781 l -15.25 -8.656 c -0.873 -0.46 -1.625 -1.159 -2.156 -2.063 -0.414 -0.705 -0.621 -1.46 -0.688 -2.219 -0.014 -0.092 -0.054 -0.189 -0.063 -0.281 -0.004 0.932 0.242 1.884 0.75 2.75 0.532 0.903 1.283 1.603 2.156 2.063 l 15.25 8.656 c 0.832 0.497 1.799 0.781 2.844 0.781 1.045 0 2.01 -0.284 2.844 -0.781 l 15.25 -8.656 c 0.873 -0.46 1.625 -1.159 2.156 -2.063 0.554 -0.944 0.806 -1.987 0.75 -3 l 0 -0.5 z m -41.813 1.625 c 0.057 0.219 0.132 0.442 0.219 0.656 -0.088 -0.216 -0.16 -0.436 -0.219 -0.656 z m 0.219 0.656 c 0.099 0.243 0.206 0.484 0.344 0.719 -0.139 -0.236 -0.243 -0.472 -0.344 -0.719 z m 41.41 -0.656 c -0.059 0.221 -0.131 0.441 -0.219 0.656 0.087 -0.215 0.161 -0.437 0.219 -0.656 z m -0.219 0.656 c -0.101 0.246 -0.205 0.483 -0.344 0.719 0.138 -0.235 0.245 -0.476 0.344 -0.719 z" opacity="0.1"/><path d="m 3.03 1037.64 c 0.035 0.844 0.259 1.685 0.719 2.469 0.532 0.903 1.283 1.603 2.156 2.063 l 15.25 8.656 c 0.832 0.497 1.799 0.781 2.844 0.781 1.045 0 2.01 -0.284 2.844 -0.781 l 15.25 -8.656 c 0.873 -0.46 1.625 -1.159 2.156 -2.063 0.46 -0.784 0.683 -1.624 0.719 -2.469 -0.067 0.763 -0.303 1.511 -0.719 2.219 -0.532 0.903 -1.283 1.603 -2.156 2.063 l -15.25 8.656 c -0.832 0.497 -1.799 0.781 -2.844 0.781 -1.045 0 -2.01 -0.284 -2.844 -0.781 l -15.25 -8.656 c -0.873 -0.46 -1.625 -1.159 -2.156 -2.063 -0.416 -0.708 -0.651 -1.456 -0.719 -2.219 z" opacity="0.2"/></g></g><g><path d="m 24 46.996 c 1.045 0 2.023 -0.287 2.856 -0.784 l 15.339 -8.708 c 0.017 -0.013 0.035 -0.013 0.052 -0.021 1.852 -1.051 2.847 -3 2.746 -4.968 l 0 -17.02 c 0.056 -1.013 -0.175 -2.049 -0.729 -2.993 -0.532 -0.903 -1.288 -1.602 -2.161 -2.061 l -15.246 -8.653 c -0.832 -0.497 -1.811 -0.784 -2.856 -0.784 -1.045 0 -2.023 0.287 -2.856 0.784 l -15.246 8.653 c -0.873 0.46 -1.629 1.158 -2.161 2.061 -0.554 0.944 -0.785 1.981 -0.729 2.993 l 0 17.01 c -0.056 1.012 0.175 2.051 0.729 2.993 0.532 0.906 1.288 1.604 2.161 2.064 l 15.246 8.653 c 0.832 0.497 1.811 0.785 2.856 0.785 z" fill="url(#linearGradient3764)" fill-opacity="1"/></g><g><g clip-path="url(#clipPath-845268264)"><g opacity="0.25"><g transform="translate(0,1)"><g filter="url(#filter-803036158)"><!-- color: #9b75b7 --><g><path d="m 25.598 10.01 c -0.512 0.031 -0.672 0.172 -0.672 0.449 c 0 0.375 0.828 0.754 2.535 1.168 c 1.48 0.359 3.289 1.152 4.328 1.879 c 2.16 1.52 4.172 4.66 4.492 7.03 c 0.328 2.41 0.445 2.68 1.18 2.68 c 0.547 0 0.613 -0.293 0.43 -2.043 c -0.594 -5.664 -5.527 -10.676 -10.945 -11.12 c -0.602 -0.051 -1.039 -0.066 -1.348 -0.047 m -9.289 0.426 c -1.406 0.074 -3.352 1.629 -4.059 3.309 c -0.41 0.973 -0.359 1.375 0.492 3.199 c 3.383 7.27 8.852 12.863 17.1 17.484 c 3.277 1.836 3.512 1.875 5.059 1.086 c 1.613 -0.816 3.102 -2.73 3.102 -3.992 c 0 -0.934 -0.469 -1.434 -3.16 -3.379 c -1.738 -1.25 -3.348 -2.277 -3.582 -2.277 c -0.23 0 -1 0.594 -1.719 1.32 c -0.715 0.73 -1.629 1.324 -2.02 1.324 c -2.648 0 -7.98 -5.246 -7.98 -7.844 c 0 -0.387 0.605 -1.281 1.348 -1.984 c 0.738 -0.707 1.332 -1.543 1.32 -1.867 c -0.012 -0.324 -1.012 -1.867 -2.223 -3.426 c -1.809 -2.328 -2.418 -2.859 -3.402 -2.953 c -0.086 -0.008 -0.18 -0.008 -0.277 0 m 10.168 2.586 c -0.379 0.027 -0.41 0.195 -0.336 0.578 c 0.09 0.469 0.633 0.809 1.645 1.016 c 2.797 0.574 5.602 3.609 5.602 6.074 c 0 0.492 0.117 1.016 0.262 1.156 c 0.602 0.59 1.074 -0.121 1.047 -1.547 c -0.063 -3.316 -3.422 -6.695 -7.125 -7.184 c -0.52 -0.066 -0.867 -0.109 -1.094 -0.094 m 1.082 3.168 c -0.445 0.031 -0.711 0.227 -0.711 0.59 c 0 0.211 0.609 0.637 1.359 0.945 c 0.934 0.383 1.531 0.973 1.922 1.891 c 0.594 1.398 1.207 1.703 1.563 0.789 c 0.379 -0.973 -0.992 -3.145 -2.402 -3.805 c -0.672 -0.313 -1.289 -0.441 -1.73 -0.41 m 0 0" fill="#000" stroke="none" fill-rule="nonzero" fill-opacity="1"/></g></g></g></g></g></g><g><g clip-path="url(#clipPath-865092459)"><!-- color: #9b75b7 --><g><path d="m 25.598 10.01 c -0.512 0.031 -0.672 0.172 -0.672 0.449 c 0 0.375 0.828 0.754 2.535 1.168 c 1.48 0.359 3.289 1.152 4.328 1.879 c 2.16 1.52 4.172 4.66 4.492 7.03 c 0.328 2.41 0.445 2.68 1.18 2.68 c 0.547 0 0.613 -0.293 0.43 -2.043 c -0.594 -5.664 -5.527 -10.676 -10.945 -11.12 c -0.602 -0.051 -1.039 -0.066 -1.348 -0.047 m -9.289 0.426 c -1.406 0.074 -3.352 1.629 -4.059 3.309 c -0.41 0.973 -0.359 1.375 0.492 3.199 c 3.383 7.27 8.852 12.863 17.1 17.484 c 3.277 1.836 3.512 1.875 5.059 1.086 c 1.613 -0.816 3.102 -2.73 3.102 -3.992 c 0 -0.934 -0.469 -1.434 -3.16 -3.379 c -1.738 -1.25 -3.348 -2.277 -3.582 -2.277 c -0.23 0 -1 0.594 -1.719 1.32 c -0.715 0.73 -1.629 1.324 -2.02 1.324 c -2.648 0 -7.98 -5.246 -7.98 -7.844 c 0 -0.387 0.605 -1.281 1.348 -1.984 c 0.738 -0.707 1.332 -1.543 1.32 -1.867 c -0.012 -0.324 -1.012 -1.867 -2.223 -3.426 c -1.809 -2.328 -2.418 -2.859 -3.402 -2.953 c -0.086 -0.008 -0.18 -0.008 -0.277 0 m 10.168 2.586 c -0.379 0.027 -0.41 0.195 -0.336 0.578 c 0.09 0.469 0.633 0.809 1.645 1.016 c 2.797 0.574 5.602 3.609 5.602 6.074 c 0 0.492 0.117 1.016 0.262 1.156 c 0.602 0.59 1.074 -0.121 1.047 -1.547 c -0.063 -3.316 -3.422 -6.695 -7.125 -7.184 c -0.52 -0.066 -0.867 -0.109 -1.094 -0.094 m 1.082 3.168 c -0.445 0.031 -0.711 0.227 -0.711 0.59 c 0 0.211 0.609 0.637 1.359 0.945 c 0.934 0.383 1.531 0.973 1.922 1.891 c 0.594 1.398 1.207 1.703 1.563 0.789 c 0.379 -0.973 -0.992 -3.145 -2.402 -3.805 c -0.672 -0.313 -1.289 -0.441 -1.73 -0.41 m 0 0" fill="#f9f9f9" stroke="none" fill-rule="nonzero" fill-opacity="1"/></g></g></g><g><path d="m 24 1 c -1.045 0 -2.01 0.284 -2.844 0.781 l -15.344 8.719 c -0.017 0.013 -0.045 0.023 -0.063 0.031 c -1.852 1.051 -2.851 3 -2.75 4.969 l 0 1 c -0.101 -1.966 0.898 -3.918 2.75 -4.969 c 0.017 -0.008 0.045 -0.018 0.063 -0.031 l 15.344 -8.719 c 0.832 -0.497 1.799 -0.781 2.844 -0.781 c 1.045 0 2.01 0.284 2.844 0.781 l 15.25 8.656 c 0.873 0.46 1.625 1.156 2.156 2.063 c 0.554 0.942 0.806 1.988 0.75 3 l 0 -1 c 0.056 -1.012 -0.196 -2.058 -0.75 -3 c -0.532 -0.906 -1.283 -1.603 -2.156 -2.063 l -15.25 -8.656 c -0.832 -0.497 -1.799 -0.781 -2.844 -0.781 z" opacity="0.2" fill="#fff"/></g></svg>