<svg viewBox="0 0 48 48"><defs><linearGradient id="linearGradient3764" y1="1" x2="0" y2="47" gradientUnits="userSpaceOnUse"><stop stop-color="#1e96c8" stop-opacity="1"/><stop offset="1" stop-color="#1c89b6" stop-opacity="1"/></linearGradient><clipPath id="clipPath-323383843"><g transform="translate(0,-1004.3622)"><path d="m 24 1005.37 c -1.045 0 -2.023 0.287 -2.856 0.784 l -15.339 8.708 c -0.017 0.013 -0.035 0.013 -0.052 0.021 -1.852 1.051 -2.847 3 -2.746 4.968 l 0 17.02 c -0.056 1.013 0.175 2.049 0.729 2.993 0.532 0.903 1.288 1.602 2.161 2.061 l 15.246 8.653 c 0.832 0.497 1.811 0.784 2.856 0.784 1.045 0 2.023 -0.287 2.856 -0.784 l 15.246 -8.653 c 0.873 -0.46 1.629 -1.158 2.161 -2.061 0.554 -0.944 0.785 -1.981 0.729 -2.993 l 0 -17.01 c 0.056 -1.012 -0.175 -2.052 -0.729 -2.993 -0.532 -0.906 -1.288 -1.604 -2.161 -2.064 l -15.246 -8.653 c -0.832 -0.497 -1.811 -0.784 -2.856 -0.784 z" fill="#1890d0"/></g></clipPath><clipPath id="clipPath-332216093"><g transform="translate(0,-1004.3622)"><path d="m 24 1005.37 c -1.045 0 -2.023 0.287 -2.856 0.784 l -15.339 8.708 c -0.017 0.013 -0.035 0.013 -0.052 0.021 -1.852 1.051 -2.847 3 -2.746 4.968 l 0 17.02 c -0.056 1.013 0.175 2.049 0.729 2.993 0.532 0.903 1.288 1.602 2.161 2.061 l 15.246 8.653 c 0.832 0.497 1.811 0.784 2.856 0.784 1.045 0 2.023 -0.287 2.856 -0.784 l 15.246 -8.653 c 0.873 -0.46 1.629 -1.158 2.161 -2.061 0.554 -0.944 0.785 -1.981 0.729 -2.993 l 0 -17.01 c 0.056 -1.012 -0.175 -2.052 -0.729 -2.993 -0.532 -0.906 -1.288 -1.604 -2.161 -2.064 l -15.246 -8.653 c -0.832 -0.497 -1.811 -0.784 -2.856 -0.784 z" fill="#1890d0"/></g></clipPath><filter id="filter-304373983"><feGaussianBlur stdDeviation="0.35"/></filter></defs><g><g transform="translate(0,-1004.3622)"><path d="m 45 1037.36 c 0.056 1.013 -0.196 2.056 -0.75 3 -0.532 0.903 -1.283 1.603 -2.156 2.063 l -15.25 8.656 c -0.832 0.497 -1.799 0.781 -2.844 0.781 -1.045 0 -2.01 -0.284 -2.844 -0.781 l -15.25 -8.656 c -0.873 -0.46 -1.625 -1.159 -2.156 -2.063 -0.416 -0.708 -0.677 -1.485 -0.75 -2.25 -0.004 0.932 0.242 1.884 0.75 2.75 0.532 0.903 1.283 1.603 2.156 2.063 l 15.25 8.656 c 0.832 0.497 1.799 0.781 2.844 0.781 1.045 0 2.01 -0.284 2.844 -0.781 l 15.25 -8.656 c 0.873 -0.46 1.625 -1.159 2.156 -2.063 0.554 -0.944 0.806 -1.987 0.75 -3 l 0 -0.5 z" opacity="0.05"/><path d="m 45 1036.86 c 0.015 0.263 -0.004 0.516 -0.031 0.781 -0.036 0.844 -0.259 1.685 -0.719 2.469 -0.532 0.903 -1.283 1.603 -2.156 2.063 l -15.25 8.656 c -0.832 0.497 -1.799 0.781 -2.844 0.781 -1.045 0 -2.01 -0.284 -2.844 -0.781 l -15.25 -8.656 c -0.873 -0.46 -1.625 -1.159 -2.156 -2.063 -0.414 -0.705 -0.621 -1.46 -0.688 -2.219 -0.014 -0.092 -0.054 -0.189 -0.063 -0.281 -0.004 0.932 0.242 1.884 0.75 2.75 0.532 0.903 1.283 1.603 2.156 2.063 l 15.25 8.656 c 0.832 0.497 1.799 0.781 2.844 0.781 1.045 0 2.01 -0.284 2.844 -0.781 l 15.25 -8.656 c 0.873 -0.46 1.625 -1.159 2.156 -2.063 0.554 -0.944 0.806 -1.987 0.75 -3 l 0 -0.5 z m -41.813 1.625 c 0.057 0.219 0.132 0.442 0.219 0.656 -0.088 -0.216 -0.16 -0.436 -0.219 -0.656 z m 0.219 0.656 c 0.099 0.243 0.206 0.484 0.344 0.719 -0.139 -0.236 -0.243 -0.472 -0.344 -0.719 z m 41.41 -0.656 c -0.059 0.221 -0.131 0.441 -0.219 0.656 0.087 -0.215 0.161 -0.437 0.219 -0.656 z m -0.219 0.656 c -0.101 0.246 -0.205 0.483 -0.344 0.719 0.138 -0.235 0.245 -0.476 0.344 -0.719 z" opacity="0.1"/><path d="m 3.03 1037.64 c 0.035 0.844 0.259 1.685 0.719 2.469 0.532 0.903 1.283 1.603 2.156 2.063 l 15.25 8.656 c 0.832 0.497 1.799 0.781 2.844 0.781 1.045 0 2.01 -0.284 2.844 -0.781 l 15.25 -8.656 c 0.873 -0.46 1.625 -1.159 2.156 -2.063 0.46 -0.784 0.683 -1.624 0.719 -2.469 -0.067 0.763 -0.303 1.511 -0.719 2.219 -0.532 0.903 -1.283 1.603 -2.156 2.063 l -15.25 8.656 c -0.832 0.497 -1.799 0.781 -2.844 0.781 -1.045 0 -2.01 -0.284 -2.844 -0.781 l -15.25 -8.656 c -0.873 -0.46 -1.625 -1.159 -2.156 -2.063 -0.416 -0.708 -0.651 -1.456 -0.719 -2.219 z" opacity="0.2"/></g></g><g><path d="m 24 46.996 c 1.045 0 2.023 -0.287 2.856 -0.784 l 15.339 -8.708 c 0.017 -0.013 0.035 -0.013 0.052 -0.021 1.852 -1.051 2.847 -3 2.746 -4.968 l 0 -17.02 c 0.056 -1.013 -0.175 -2.049 -0.729 -2.993 -0.532 -0.903 -1.288 -1.602 -2.161 -2.061 l -15.246 -8.653 c -0.832 -0.497 -1.811 -0.784 -2.856 -0.784 -1.045 0 -2.023 0.287 -2.856 0.784 l -15.246 8.653 c -0.873 0.46 -1.629 1.158 -2.161 2.061 -0.554 0.944 -0.785 1.981 -0.729 2.993 l 0 17.01 c -0.056 1.012 0.175 2.051 0.729 2.993 0.532 0.906 1.288 1.604 2.161 2.064 l 15.246 8.653 c 0.832 0.497 1.811 0.785 2.856 0.785 z" fill="url(#linearGradient3764)" fill-opacity="1"/></g><g><g clip-path="url(#clipPath-323383843)"><g opacity="0.25"><g transform="translate(0,1)"><g filter="url(#filter-304373983)"><!-- color: #1e96c8 --><g><path d="m 16.15 18.379 c 0.238 -0.34 0.773 -1.027 1.188 -1.523 l 0.301 -0.387 l 5.063 0 l 2.559 -3.43 c 0.988 -1.598 1.922 -3.059 2.082 -3.242 c 0.637 -0.738 1.949 -0.094 1.938 0.957 l -3.605 5.621 l 2.375 0.055 c 1.309 0.027 2.375 0.094 2.375 0.145 c 0 0.055 0.559 -0.094 0.305 0.309 c -0.258 0.406 -0.598 1.047 -0.754 1.426 l -0.289 0.691 l -13.965 0 m 0.43 -0.621" fill="#000"/><path d="m 12.84 36.457 c -0.207 -0.297 -0.422 -1.016 -0.488 -1.602 c -0.063 -0.582 -0.145 -1.371 -0.184 -1.754 c -0.133 -1.277 0.828 -6.5 1.234 -8.145 c 0.219 -0.891 0.699 -2.371 1.066 -3.289 l 0.664 -1.668 l 10.125 0 l 0 1.383 c -0.004 1.949 -0.434 3.348 1.293 5.324 l 1.297 1.488 c -1.93 -2.035 -1.363 -4.527 -1.324 -6.93 c -0.004 -0.406 -0.016 -1.266 1.266 -1.266 c 1.211 0 2.02 0.035 1.902 0.332 c -0.34 0.883 -0.523 2.332 -0.438 3.414 c 0.125 1.547 0.773 2.668 2.406 4.168 c 2.242 2.055 2.281 4.266 2.387 5.078 c 0.148 1.102 -0.297 2.336 -1.133 3.172 c -0.586 0.582 -0.969 0.711 -2.355 0.793 l -2.473 0.109 l -0.891 -1.855 c -1.047 -2.191 -1.516 -3.477 -1.844 -5.094 c -0.133 -0.652 -0.277 -1.133 -0.32 -1.07 c -0.07 0.098 0.578 5.766 0.84 7.344 l 0.102 0.625 l -5.973 -0.016 c -6.473 -0.016 -6.809 -0.023 -7.16 -0.539 m 0 -0.004" fill="#000"/></g></g></g></g></g></g><g><g clip-path="url(#clipPath-332216093)"><!-- color: #1e96c8 --><g><path d="m 16.15 18.379 c 0.238 -0.34 0.773 -1.027 1.188 -1.523 l 0.301 -0.387 l 5.063 0 l 2.559 -3.43 c 0.988 -1.598 1.922 -3.059 2.082 -3.242 c 0.637 -0.738 1.949 -0.094 1.938 0.957 l -3.605 5.621 l 2.375 0.055 c 1.309 0.027 2.375 0.094 2.375 0.145 c 0 0.055 0.559 -0.094 0.305 0.309 c -0.258 0.406 -0.598 1.047 -0.754 1.426 l -0.289 0.691 l -13.965 0 m 0.43 -0.621" fill="#70c544"/><path d="m 12.84 36.457 c -0.207 -0.297 -0.422 -1.016 -0.488 -1.602 c -0.063 -0.582 -0.145 -1.371 -0.184 -1.754 c -0.133 -1.277 0.828 -6.5 1.234 -8.145 c 0.219 -0.891 0.699 -2.371 1.066 -3.289 l 0.664 -1.668 l 10.125 0 l 0 1.383 c -0.004 1.949 -0.434 3.348 1.293 5.324 l 1.297 1.488 c -1.93 -2.035 -1.363 -4.527 -1.324 -6.93 c -0.004 -0.406 -0.016 -1.266 1.266 -1.266 c 1.211 0 2.02 0.035 1.902 0.332 c -0.34 0.883 -0.523 2.332 -0.438 3.414 c 0.125 1.547 0.773 2.668 2.406 4.168 c 2.242 2.055 2.281 4.266 2.387 5.078 c 0.148 1.102 -0.297 2.336 -1.133 3.172 c -0.586 0.582 -0.969 0.711 -2.355 0.793 l -2.473 0.109 l -0.891 -1.855 c -1.047 -2.191 -1.516 -3.477 -1.844 -5.094 c -0.133 -0.652 -0.277 -1.133 -0.32 -1.07 c -0.07 0.098 0.578 5.766 0.84 7.344 l 0.102 0.625 l -5.973 -0.016 c -6.473 -0.016 -6.809 -0.023 -7.16 -0.539 m 0 -0.004" fill="#f3d481"/></g></g></g><g><path d="m 24 1 c -1.045 0 -2.01 0.284 -2.844 0.781 l -15.344 8.719 c -0.017 0.013 -0.045 0.023 -0.063 0.031 c -1.852 1.051 -2.851 3 -2.75 4.969 l 0 1 c -0.101 -1.966 0.898 -3.918 2.75 -4.969 c 0.017 -0.008 0.045 -0.018 0.063 -0.031 l 15.344 -8.719 c 0.832 -0.497 1.799 -0.781 2.844 -0.781 c 1.045 0 2.01 0.284 2.844 0.781 l 15.25 8.656 c 0.873 0.46 1.625 1.156 2.156 2.063 c 0.554 0.942 0.806 1.988 0.75 3 l 0 -1 c 0.056 -1.012 -0.196 -2.058 -0.75 -3 c -0.532 -0.906 -1.283 -1.603 -2.156 -2.063 l -15.25 -8.656 c -0.832 -0.497 -1.799 -0.781 -2.844 -0.781 z" opacity="0.2" fill="#fff"/></g></svg>