<svg viewBox="0 0 48 48"><defs><linearGradient id="linearGradient3764" y1="1" x2="0" y2="47" gradientUnits="userSpaceOnUse"><stop stop-color="#5f9af3" stop-opacity="1"/><stop offset="1" stop-color="#4d8ff1" stop-opacity="1"/></linearGradient><clipPath id="clipPath-948564408"><g transform="translate(0,-1004.3622)"><path d="m 24 1005.37 c -1.045 0 -2.023 0.287 -2.856 0.784 l -15.339 8.708 c -0.017 0.013 -0.035 0.013 -0.052 0.021 -1.852 1.051 -2.847 3 -2.746 4.968 l 0 17.02 c -0.056 1.013 0.175 2.049 0.729 2.993 0.532 0.903 1.288 1.602 2.161 2.061 l 15.246 8.653 c 0.832 0.497 1.811 0.784 2.856 0.784 1.045 0 2.023 -0.287 2.856 -0.784 l 15.246 -8.653 c 0.873 -0.46 1.629 -1.158 2.161 -2.061 0.554 -0.944 0.785 -1.981 0.729 -2.993 l 0 -17.01 c 0.056 -1.012 -0.175 -2.052 -0.729 -2.993 -0.532 -0.906 -1.288 -1.604 -2.161 -2.064 l -15.246 -8.653 c -0.832 -0.497 -1.811 -0.784 -2.856 -0.784 z" fill="#1890d0"/></g></clipPath><clipPath id="clipPath-957534134"><g transform="translate(0,-1004.3622)"><path d="m 24 1005.37 c -1.045 0 -2.023 0.287 -2.856 0.784 l -15.339 8.708 c -0.017 0.013 -0.035 0.013 -0.052 0.021 -1.852 1.051 -2.847 3 -2.746 4.968 l 0 17.02 c -0.056 1.013 0.175 2.049 0.729 2.993 0.532 0.903 1.288 1.602 2.161 2.061 l 15.246 8.653 c 0.832 0.497 1.811 0.784 2.856 0.784 1.045 0 2.023 -0.287 2.856 -0.784 l 15.246 -8.653 c 0.873 -0.46 1.629 -1.158 2.161 -2.061 0.554 -0.944 0.785 -1.981 0.729 -2.993 l 0 -17.01 c 0.056 -1.012 -0.175 -2.052 -0.729 -2.993 -0.532 -0.906 -1.288 -1.604 -2.161 -2.064 l -15.246 -8.653 c -0.832 -0.497 -1.811 -0.784 -2.856 -0.784 z" fill="#1890d0"/></g></clipPath><filter id="filter-929280720"><feGaussianBlur stdDeviation="0.35"/></filter></defs><g><g transform="translate(0,-1004.3622)"><path d="m 45 1037.36 c 0.056 1.013 -0.196 2.056 -0.75 3 -0.532 0.903 -1.283 1.603 -2.156 2.063 l -15.25 8.656 c -0.832 0.497 -1.799 0.781 -2.844 0.781 -1.045 0 -2.01 -0.284 -2.844 -0.781 l -15.25 -8.656 c -0.873 -0.46 -1.625 -1.159 -2.156 -2.063 -0.416 -0.708 -0.677 -1.485 -0.75 -2.25 -0.004 0.932 0.242 1.884 0.75 2.75 0.532 0.903 1.283 1.603 2.156 2.063 l 15.25 8.656 c 0.832 0.497 1.799 0.781 2.844 0.781 1.045 0 2.01 -0.284 2.844 -0.781 l 15.25 -8.656 c 0.873 -0.46 1.625 -1.159 2.156 -2.063 0.554 -0.944 0.806 -1.987 0.75 -3 l 0 -0.5 z" opacity="0.05"/><path d="m 45 1036.86 c 0.015 0.263 -0.004 0.516 -0.031 0.781 -0.036 0.844 -0.259 1.685 -0.719 2.469 -0.532 0.903 -1.283 1.603 -2.156 2.063 l -15.25 8.656 c -0.832 0.497 -1.799 0.781 -2.844 0.781 -1.045 0 -2.01 -0.284 -2.844 -0.781 l -15.25 -8.656 c -0.873 -0.46 -1.625 -1.159 -2.156 -2.063 -0.414 -0.705 -0.621 -1.46 -0.688 -2.219 -0.014 -0.092 -0.054 -0.189 -0.063 -0.281 -0.004 0.932 0.242 1.884 0.75 2.75 0.532 0.903 1.283 1.603 2.156 2.063 l 15.25 8.656 c 0.832 0.497 1.799 0.781 2.844 0.781 1.045 0 2.01 -0.284 2.844 -0.781 l 15.25 -8.656 c 0.873 -0.46 1.625 -1.159 2.156 -2.063 0.554 -0.944 0.806 -1.987 0.75 -3 l 0 -0.5 z m -41.813 1.625 c 0.057 0.219 0.132 0.442 0.219 0.656 -0.088 -0.216 -0.16 -0.436 -0.219 -0.656 z m 0.219 0.656 c 0.099 0.243 0.206 0.484 0.344 0.719 -0.139 -0.236 -0.243 -0.472 -0.344 -0.719 z m 41.41 -0.656 c -0.059 0.221 -0.131 0.441 -0.219 0.656 0.087 -0.215 0.161 -0.437 0.219 -0.656 z m -0.219 0.656 c -0.101 0.246 -0.205 0.483 -0.344 0.719 0.138 -0.235 0.245 -0.476 0.344 -0.719 z" opacity="0.1"/><path d="m 3.03 1037.64 c 0.035 0.844 0.259 1.685 0.719 2.469 0.532 0.903 1.283 1.603 2.156 2.063 l 15.25 8.656 c 0.832 0.497 1.799 0.781 2.844 0.781 1.045 0 2.01 -0.284 2.844 -0.781 l 15.25 -8.656 c 0.873 -0.46 1.625 -1.159 2.156 -2.063 0.46 -0.784 0.683 -1.624 0.719 -2.469 -0.067 0.763 -0.303 1.511 -0.719 2.219 -0.532 0.903 -1.283 1.603 -2.156 2.063 l -15.25 8.656 c -0.832 0.497 -1.799 0.781 -2.844 0.781 -1.045 0 -2.01 -0.284 -2.844 -0.781 l -15.25 -8.656 c -0.873 -0.46 -1.625 -1.159 -2.156 -2.063 -0.416 -0.708 -0.651 -1.456 -0.719 -2.219 z" opacity="0.2"/></g></g><g><path d="m 24 46.996 c 1.045 0 2.023 -0.287 2.856 -0.784 l 15.339 -8.708 c 0.017 -0.013 0.035 -0.013 0.052 -0.021 1.852 -1.051 2.847 -3 2.746 -4.968 l 0 -17.02 c 0.056 -1.013 -0.175 -2.049 -0.729 -2.993 -0.532 -0.903 -1.288 -1.602 -2.161 -2.061 l -15.246 -8.653 c -0.832 -0.497 -1.811 -0.784 -2.856 -0.784 -1.045 0 -2.023 0.287 -2.856 0.784 l -15.246 8.653 c -0.873 0.46 -1.629 1.158 -2.161 2.061 -0.554 0.944 -0.785 1.981 -0.729 2.993 l 0 17.01 c -0.056 1.012 0.175 2.051 0.729 2.993 0.532 0.906 1.288 1.604 2.161 2.064 l 15.246 8.653 c 0.832 0.497 1.811 0.785 2.856 0.785 z" fill="url(#linearGradient3764)" fill-opacity="1"/></g><g><g clip-path="url(#clipPath-948564408)"><g opacity="0.25"><g transform="translate(0,1)"><g filter="url(#filter-929280720)"><!-- color: #5f9af3 --><g><path d="m 27.961 12.227 c 0.191 0.16 0.414 0.379 0.672 0.648 c 0.258 0.25 0.504 0.57 0.738 0.957 c 0.234 0.363 0.438 0.797 0.609 1.297 c 0.172 0.5 0.258 1.07 0.258 1.707 c 0 0.637 -0.078 1.191 -0.227 1.672 c -0.148 0.477 -0.352 0.91 -0.609 1.297 c -0.258 0.363 -0.543 0.703 -0.867 1.023 c -0.32 0.293 -0.648 0.578 -0.992 0.852 c -0.215 0.227 -0.418 0.465 -0.609 0.715 c -0.191 0.254 -0.289 0.57 -0.289 0.957 c 0 0.387 0.098 0.695 0.289 0.922 c 0.191 0.203 0.375 0.387 0.547 0.547 l 1.152 0.953 c 0.344 0.32 0.672 0.637 0.996 0.957 c 0.34 0.316 0.629 0.66 0.863 1.023 c 0.258 0.363 0.461 0.773 0.609 1.227 c 0.148 0.457 0.227 0.98 0.227 1.57 c 0 0.797 -0.184 1.582 -0.547 2.355 c -0.363 0.773 -0.898 1.457 -1.602 2.047 c -0.707 0.613 -1.594 1.102 -2.664 1.469 c -1.047 0.387 -2.254 0.578 -3.621 0.578 c -1.156 0 -2.172 -0.137 -3.047 -0.41 c -0.855 -0.273 -1.57 -0.637 -2.148 -1.09 c -0.578 -0.457 -1 -0.98 -1.281 -1.57 c -0.277 -0.57 -0.418 -1.172 -0.418 -1.809 c 0 -0.613 0.184 -1.32 0.547 -2.117 c 0.34 -0.773 0.98 -1.453 1.922 -2.047 c 0.492 -0.316 1.016 -0.578 1.57 -0.785 c 0.578 -0.18 1.145 -0.328 1.699 -0.441 c 0.559 -0.113 1.082 -0.195 1.574 -0.238 c 0.488 -0.047 0.918 -0.082 1.281 -0.105 c -0.234 -0.316 -0.461 -0.648 -0.676 -0.988 c -0.191 -0.363 -0.285 -0.809 -0.285 -1.332 c 0 -0.293 0.031 -0.531 0.094 -0.715 c 0.066 -0.203 0.141 -0.41 0.227 -0.613 c -0.172 0.023 -0.344 0.043 -0.516 0.066 c -0.168 0 -0.34 0 -0.512 0 c -0.855 0 -1.613 -0.148 -2.277 -0.441 c -0.66 -0.32 -1.219 -0.73 -1.668 -1.23 c -0.449 -0.5 -0.789 -1.066 -1.023 -1.703 c -0.234 -0.66 -0.355 -1.32 -0.355 -1.98 c 0 -0.797 0.172 -1.594 0.516 -2.391 c 0.34 -0.816 0.855 -1.547 1.539 -2.184 c 0.918 -0.793 1.879 -1.305 2.887 -1.535 c 1.023 -0.227 1.977 -0.34 2.852 -0.34 l 6.605 0 l -2.051 1.227 l -1.988 0 m -3.527 9.625 c 0.406 0 0.801 -0.094 1.188 -0.273 c 0.402 -0.184 0.734 -0.41 0.992 -0.684 c 0.363 -0.387 0.586 -0.82 0.672 -1.297 c 0.086 -0.477 0.129 -0.875 0.129 -1.195 c 0 -0.613 -0.086 -1.285 -0.254 -2.01 c -0.172 -0.727 -0.43 -1.41 -0.77 -2.047 c -0.344 -0.637 -0.77 -1.16 -1.285 -1.57 c -0.492 -0.43 -1.066 -0.648 -1.73 -0.648 c -0.43 0 -0.844 0.102 -1.25 0.309 c -0.406 0.203 -0.738 0.477 -0.996 0.82 c -0.277 0.363 -0.469 0.762 -0.574 1.191 c -0.086 0.434 -0.129 0.875 -0.129 1.332 c 0 0.566 0.074 1.207 0.223 1.91 c 0.172 0.707 0.418 1.363 0.738 1.98 c 0.344 0.613 0.758 1.137 1.25 1.566 c 0.512 0.41 1.113 0.617 1.797 0.617 m 4.746 10.03 c 0 -0.434 -0.074 -0.832 -0.227 -1.195 c -0.129 -0.34 -0.332 -0.684 -0.609 -1.023 c -0.277 -0.34 -0.641 -0.695 -1.09 -1.059 c -0.449 -0.363 -0.973 -0.773 -1.57 -1.227 c -0.129 -0.023 -0.246 -0.035 -0.352 -0.035 c -0.086 0 -0.215 0 -0.387 0 c -0.063 0 -0.215 0 -0.449 0 c -0.234 0.023 -0.512 0.047 -0.832 0.066 c -0.32 0.047 -0.664 0.105 -1.027 0.172 c -0.363 0.09 -0.715 0.195 -1.059 0.309 c -0.172 0.066 -0.414 0.168 -0.738 0.305 c -0.297 0.16 -0.598 0.375 -0.895 0.648 c -0.301 0.273 -0.566 0.617 -0.805 1.023 c -0.211 0.41 -0.32 0.922 -0.32 1.535 c 0 1.23 0.504 2.23 1.508 3 c 1.027 0.773 2.406 1.16 4.137 1.16 c 1.539 0 2.703 -0.352 3.496 -1.059 c 0.813 -0.68 1.219 -1.559 1.219 -2.625" fill="#000"/></g></g></g></g></g></g><g><g clip-path="url(#clipPath-957534134)"><!-- color: #5f9af3 --><g><path d="m 27.961 12.227 c 0.191 0.16 0.414 0.379 0.672 0.648 c 0.258 0.25 0.504 0.57 0.738 0.957 c 0.234 0.363 0.438 0.797 0.609 1.297 c 0.172 0.5 0.258 1.07 0.258 1.707 c 0 0.637 -0.078 1.191 -0.227 1.672 c -0.148 0.477 -0.352 0.91 -0.609 1.297 c -0.258 0.363 -0.543 0.703 -0.867 1.023 c -0.32 0.293 -0.648 0.578 -0.992 0.852 c -0.215 0.227 -0.418 0.465 -0.609 0.715 c -0.191 0.254 -0.289 0.57 -0.289 0.957 c 0 0.387 0.098 0.695 0.289 0.922 c 0.191 0.203 0.375 0.387 0.547 0.547 l 1.152 0.953 c 0.344 0.32 0.672 0.637 0.996 0.957 c 0.34 0.316 0.629 0.66 0.863 1.023 c 0.258 0.363 0.461 0.773 0.609 1.227 c 0.148 0.457 0.227 0.98 0.227 1.57 c 0 0.797 -0.184 1.582 -0.547 2.355 c -0.363 0.773 -0.898 1.457 -1.602 2.047 c -0.707 0.613 -1.594 1.102 -2.664 1.469 c -1.047 0.387 -2.254 0.578 -3.621 0.578 c -1.156 0 -2.172 -0.137 -3.047 -0.41 c -0.855 -0.273 -1.57 -0.637 -2.148 -1.09 c -0.578 -0.457 -1 -0.98 -1.281 -1.57 c -0.277 -0.57 -0.418 -1.172 -0.418 -1.809 c 0 -0.613 0.184 -1.32 0.547 -2.117 c 0.34 -0.773 0.98 -1.453 1.922 -2.047 c 0.492 -0.316 1.016 -0.578 1.57 -0.785 c 0.578 -0.18 1.145 -0.328 1.699 -0.441 c 0.559 -0.113 1.082 -0.195 1.574 -0.238 c 0.488 -0.047 0.918 -0.082 1.281 -0.105 c -0.234 -0.316 -0.461 -0.648 -0.676 -0.988 c -0.191 -0.363 -0.285 -0.809 -0.285 -1.332 c 0 -0.293 0.031 -0.531 0.094 -0.715 c 0.066 -0.203 0.141 -0.41 0.227 -0.613 c -0.172 0.023 -0.344 0.043 -0.516 0.066 c -0.168 0 -0.34 0 -0.512 0 c -0.855 0 -1.613 -0.148 -2.277 -0.441 c -0.66 -0.32 -1.219 -0.73 -1.668 -1.23 c -0.449 -0.5 -0.789 -1.066 -1.023 -1.703 c -0.234 -0.66 -0.355 -1.32 -0.355 -1.98 c 0 -0.797 0.172 -1.594 0.516 -2.391 c 0.34 -0.816 0.855 -1.547 1.539 -2.184 c 0.918 -0.793 1.879 -1.305 2.887 -1.535 c 1.023 -0.227 1.977 -0.34 2.852 -0.34 l 6.605 0 l -2.051 1.227 l -1.988 0 m -3.527 9.625 c 0.406 0 0.801 -0.094 1.188 -0.273 c 0.402 -0.184 0.734 -0.41 0.992 -0.684 c 0.363 -0.387 0.586 -0.82 0.672 -1.297 c 0.086 -0.477 0.129 -0.875 0.129 -1.195 c 0 -0.613 -0.086 -1.285 -0.254 -2.01 c -0.172 -0.727 -0.43 -1.41 -0.77 -2.047 c -0.344 -0.637 -0.77 -1.16 -1.285 -1.57 c -0.492 -0.43 -1.066 -0.648 -1.73 -0.648 c -0.43 0 -0.844 0.102 -1.25 0.309 c -0.406 0.203 -0.738 0.477 -0.996 0.82 c -0.277 0.363 -0.469 0.762 -0.574 1.191 c -0.086 0.434 -0.129 0.875 -0.129 1.332 c 0 0.566 0.074 1.207 0.223 1.91 c 0.172 0.707 0.418 1.363 0.738 1.98 c 0.344 0.613 0.758 1.137 1.25 1.566 c 0.512 0.41 1.113 0.617 1.797 0.617 m 4.746 10.03 c 0 -0.434 -0.074 -0.832 -0.227 -1.195 c -0.129 -0.34 -0.332 -0.684 -0.609 -1.023 c -0.277 -0.34 -0.641 -0.695 -1.09 -1.059 c -0.449 -0.363 -0.973 -0.773 -1.57 -1.227 c -0.129 -0.023 -0.246 -0.035 -0.352 -0.035 c -0.086 0 -0.215 0 -0.387 0 c -0.063 0 -0.215 0 -0.449 0 c -0.234 0.023 -0.512 0.047 -0.832 0.066 c -0.32 0.047 -0.664 0.105 -1.027 0.172 c -0.363 0.09 -0.715 0.195 -1.059 0.309 c -0.172 0.066 -0.414 0.168 -0.738 0.305 c -0.297 0.16 -0.598 0.375 -0.895 0.648 c -0.301 0.273 -0.566 0.617 -0.805 1.023 c -0.211 0.41 -0.32 0.922 -0.32 1.535 c 0 1.23 0.504 2.23 1.508 3 c 1.027 0.773 2.406 1.16 4.137 1.16 c 1.539 0 2.703 -0.352 3.496 -1.059 c 0.813 -0.68 1.219 -1.559 1.219 -2.625" fill="#fff"/></g></g></g><g><path d="m 24 1 c -1.045 0 -2.01 0.284 -2.844 0.781 l -15.344 8.719 c -0.017 0.013 -0.045 0.023 -0.063 0.031 c -1.852 1.051 -2.851 3 -2.75 4.969 l 0 1 c -0.101 -1.966 0.898 -3.918 2.75 -4.969 c 0.017 -0.008 0.045 -0.018 0.063 -0.031 l 15.344 -8.719 c 0.832 -0.497 1.799 -0.781 2.844 -0.781 c 1.045 0 2.01 0.284 2.844 0.781 l 15.25 8.656 c 0.873 0.46 1.625 1.156 2.156 2.063 c 0.554 0.942 0.806 1.988 0.75 3 l 0 -1 c 0.056 -1.012 -0.196 -2.058 -0.75 -3 c -0.532 -0.906 -1.283 -1.603 -2.156 -2.063 l -15.25 -8.656 c -0.832 -0.497 -1.799 -0.781 -2.844 -0.781 z" opacity="0.2" fill="#fff"/></g></svg>