<svg viewBox="0 0 48 48"><defs><linearGradient id="linearGradient3764" y1="1" x2="0" y2="47" gradientUnits="userSpaceOnUse"><stop stop-color="#ffb61d" stop-opacity="1"/><stop offset="1" stop-color="#ffb109" stop-opacity="1"/></linearGradient><clipPath id="clipPath-668123703"><g transform="translate(0,-1004.3622)"><path d="m 24 1005.37 c -1.045 0 -2.023 0.287 -2.856 0.784 l -15.339 8.708 c -0.017 0.013 -0.035 0.013 -0.052 0.021 -1.852 1.051 -2.847 3 -2.746 4.968 l 0 17.02 c -0.056 1.013 0.175 2.049 0.729 2.993 0.532 0.903 1.288 1.602 2.161 2.061 l 15.246 8.653 c 0.832 0.497 1.811 0.784 2.856 0.784 1.045 0 2.023 -0.287 2.856 -0.784 l 15.246 -8.653 c 0.873 -0.46 1.629 -1.158 2.161 -2.061 0.554 -0.944 0.785 -1.981 0.729 -2.993 l 0 -17.01 c 0.056 -1.012 -0.175 -2.052 -0.729 -2.993 -0.532 -0.906 -1.288 -1.604 -2.161 -2.064 l -15.246 -8.653 c -0.832 -0.497 -1.811 -0.784 -2.856 -0.784 z" fill="#1890d0"/></g></clipPath><clipPath id="clipPath-677502414"><g transform="translate(0,-1004.3622)"><path d="m 24 1005.37 c -1.045 0 -2.023 0.287 -2.856 0.784 l -15.339 8.708 c -0.017 0.013 -0.035 0.013 -0.052 0.021 -1.852 1.051 -2.847 3 -2.746 4.968 l 0 17.02 c -0.056 1.013 0.175 2.049 0.729 2.993 0.532 0.903 1.288 1.602 2.161 2.061 l 15.246 8.653 c 0.832 0.497 1.811 0.784 2.856 0.784 1.045 0 2.023 -0.287 2.856 -0.784 l 15.246 -8.653 c 0.873 -0.46 1.629 -1.158 2.161 -2.061 0.554 -0.944 0.785 -1.981 0.729 -2.993 l 0 -17.01 c 0.056 -1.012 -0.175 -2.052 -0.729 -2.993 -0.532 -0.906 -1.288 -1.604 -2.161 -2.064 l -15.246 -8.653 c -0.832 -0.497 -1.811 -0.784 -2.856 -0.784 z" fill="#1890d0"/></g></clipPath><filter id="filter-643778683"><feGaussianBlur stdDeviation="0.35"/></filter></defs><g><g transform="translate(0,-1004.3622)"><path d="m 45 1037.36 c 0.056 1.013 -0.196 2.056 -0.75 3 -0.532 0.903 -1.283 1.603 -2.156 2.063 l -15.25 8.656 c -0.832 0.497 -1.799 0.781 -2.844 0.781 -1.045 0 -2.01 -0.284 -2.844 -0.781 l -15.25 -8.656 c -0.873 -0.46 -1.625 -1.159 -2.156 -2.063 -0.416 -0.708 -0.677 -1.485 -0.75 -2.25 -0.004 0.932 0.242 1.884 0.75 2.75 0.532 0.903 1.283 1.603 2.156 2.063 l 15.25 8.656 c 0.832 0.497 1.799 0.781 2.844 0.781 1.045 0 2.01 -0.284 2.844 -0.781 l 15.25 -8.656 c 0.873 -0.46 1.625 -1.159 2.156 -2.063 0.554 -0.944 0.806 -1.987 0.75 -3 l 0 -0.5 z" opacity="0.05"/><path d="m 45 1036.86 c 0.015 0.263 -0.004 0.516 -0.031 0.781 -0.036 0.844 -0.259 1.685 -0.719 2.469 -0.532 0.903 -1.283 1.603 -2.156 2.063 l -15.25 8.656 c -0.832 0.497 -1.799 0.781 -2.844 0.781 -1.045 0 -2.01 -0.284 -2.844 -0.781 l -15.25 -8.656 c -0.873 -0.46 -1.625 -1.159 -2.156 -2.063 -0.414 -0.705 -0.621 -1.46 -0.688 -2.219 -0.014 -0.092 -0.054 -0.189 -0.063 -0.281 -0.004 0.932 0.242 1.884 0.75 2.75 0.532 0.903 1.283 1.603 2.156 2.063 l 15.25 8.656 c 0.832 0.497 1.799 0.781 2.844 0.781 1.045 0 2.01 -0.284 2.844 -0.781 l 15.25 -8.656 c 0.873 -0.46 1.625 -1.159 2.156 -2.063 0.554 -0.944 0.806 -1.987 0.75 -3 l 0 -0.5 z m -41.813 1.625 c 0.057 0.219 0.132 0.442 0.219 0.656 -0.088 -0.216 -0.16 -0.436 -0.219 -0.656 z m 0.219 0.656 c 0.099 0.243 0.206 0.484 0.344 0.719 -0.139 -0.236 -0.243 -0.472 -0.344 -0.719 z m 41.41 -0.656 c -0.059 0.221 -0.131 0.441 -0.219 0.656 0.087 -0.215 0.161 -0.437 0.219 -0.656 z m -0.219 0.656 c -0.101 0.246 -0.205 0.483 -0.344 0.719 0.138 -0.235 0.245 -0.476 0.344 -0.719 z" opacity="0.1"/><path d="m 3.03 1037.64 c 0.035 0.844 0.259 1.685 0.719 2.469 0.532 0.903 1.283 1.603 2.156 2.063 l 15.25 8.656 c 0.832 0.497 1.799 0.781 2.844 0.781 1.045 0 2.01 -0.284 2.844 -0.781 l 15.25 -8.656 c 0.873 -0.46 1.625 -1.159 2.156 -2.063 0.46 -0.784 0.683 -1.624 0.719 -2.469 -0.067 0.763 -0.303 1.511 -0.719 2.219 -0.532 0.903 -1.283 1.603 -2.156 2.063 l -15.25 8.656 c -0.832 0.497 -1.799 0.781 -2.844 0.781 -1.045 0 -2.01 -0.284 -2.844 -0.781 l -15.25 -8.656 c -0.873 -0.46 -1.625 -1.159 -2.156 -2.063 -0.416 -0.708 -0.651 -1.456 -0.719 -2.219 z" opacity="0.2"/></g></g><g><path d="m 24 46.996 c 1.045 0 2.023 -0.287 2.856 -0.784 l 15.339 -8.708 c 0.017 -0.013 0.035 -0.013 0.052 -0.021 1.852 -1.051 2.847 -3 2.746 -4.968 l 0 -17.02 c 0.056 -1.013 -0.175 -2.049 -0.729 -2.993 -0.532 -0.903 -1.288 -1.602 -2.161 -2.061 l -15.246 -8.653 c -0.832 -0.497 -1.811 -0.784 -2.856 -0.784 -1.045 0 -2.023 0.287 -2.856 0.784 l -15.246 8.653 c -0.873 0.46 -1.629 1.158 -2.161 2.061 -0.554 0.944 -0.785 1.981 -0.729 2.993 l 0 17.01 c -0.056 1.012 0.175 2.051 0.729 2.993 0.532 0.906 1.288 1.604 2.161 2.064 l 15.246 8.653 c 0.832 0.497 1.811 0.785 2.856 0.785 z" fill="url(#linearGradient3764)" fill-opacity="1"/></g><g><g clip-path="url(#clipPath-668123703)"><g opacity="0.25"><g transform="translate(0,1)"><g filter="url(#filter-643778683)"><!-- color: #ffb61d --><g><path d="m 31.29 12.01 c -0.414 -0.031 -0.844 0.023 -1.266 0.164 c -0.504 0.168 -0.852 0.387 -1.242 0.773 c -0.504 0.504 -0.77 1.039 -0.891 1.758 c -0.066 0.398 -0.117 0.547 -0.234 0.797 c -0.449 0.953 -1.434 1.617 -2.414 1.617 c -0.082 0 -0.34 -0.016 -0.586 -0.047 c -0.984 -0.129 -1.434 -0.145 -2.461 -0.047 c -0.277 0.027 -0.613 0.047 -0.727 0.047 c -0.488 0 -0.785 -0.184 -0.984 -0.586 c -0.125 -0.25 -0.168 -0.375 -0.164 -0.82 c 0.004 -0.371 0.012 -0.414 -0.047 -0.586 c -0.098 -0.273 -0.188 -0.398 -0.398 -0.609 c -0.309 -0.305 -0.633 -0.445 -1.055 -0.445 c -0.277 0 -0.473 0.043 -0.703 0.164 c -0.488 0.254 -0.793 0.727 -0.82 1.266 c -0.02 0.375 0.055 0.602 0.258 0.914 c 0.148 0.227 0.328 0.391 0.656 0.563 c 0.355 0.184 0.543 0.359 0.703 0.68 c 0.102 0.203 0.094 0.223 0.094 0.445 c 0 0.211 0 0.234 -0.07 0.375 c -0.043 0.086 -0.164 0.246 -0.258 0.352 c -0.879 0.977 -1.414 2.031 -1.641 3.164 c -0.109 0.535 -0.141 0.824 -0.117 1.406 c 0.012 0.277 0.023 0.586 0.023 0.68 c -0.008 0.531 -0.387 0.895 -1.195 1.172 c -0.195 0.066 -0.285 0.082 -0.539 0.094 c -0.199 0.008 -0.355 0 -0.469 -0.023 c -0.102 -0.02 -0.309 -0.023 -0.516 -0.023 c -0.395 0 -0.582 0.043 -0.891 0.188 c -1.148 0.531 -1.656 1.867 -1.125 3 c 0.68 1.445 2.602 1.758 3.703 0.609 c 0.164 -0.172 0.246 -0.301 0.422 -0.609 c 0.055 -0.102 0.172 -0.238 0.258 -0.328 c 0.391 -0.41 0.926 -0.609 1.547 -0.609 c 0.445 0 0.707 0.094 1.055 0.375 c 0.578 0.465 1.379 0.871 2.086 1.078 c 0.781 0.227 1.223 0.262 2.531 0.234 c 0.383 -0.012 0.504 0.012 0.68 0.043 c 0.492 0.098 0.969 0.289 1.383 0.563 c 0.305 0.203 0.805 0.703 1.01 1.01 c 0.273 0.41 0.473 0.926 0.539 1.336 c 0.109 0.688 0.242 1.098 0.469 1.547 c 0.617 1.215 1.727 2.027 3.094 2.273 c 0.375 0.066 1.191 0.055 1.57 -0.023 c 1.301 -0.266 2.383 -1.086 2.977 -2.25 c 0.32 -0.633 0.469 -1.211 0.469 -1.945 c 0.004 -1.715 -0.996 -3.234 -2.578 -3.914 c -0.363 -0.152 -0.629 -0.219 -1.125 -0.305 c -0.492 -0.082 -0.82 -0.191 -1.172 -0.375 c -0.824 -0.426 -1.488 -1.215 -1.781 -2.082 c -0.16 -0.484 -0.227 -0.957 -0.188 -1.523 c 0.023 -0.359 0.012 -1.563 -0.023 -2.391 c -0.023 -0.535 0.055 -0.859 0.281 -1.313 c 0.258 -0.52 0.688 -0.949 1.219 -1.219 c 0.277 -0.141 0.477 -0.191 0.867 -0.258 c 0.414 -0.07 0.711 -0.164 1.031 -0.328 c 0.742 -0.383 1.305 -1.031 1.57 -1.828 c 0.113 -0.34 0.141 -0.617 0.141 -1.01 c 0 -0.391 -0.051 -0.664 -0.164 -1.01 c -0.422 -1.258 -1.543 -2.086 -2.789 -2.18 m -8.625 6.891 c 1.449 -0.098 2.902 0.594 3.727 1.828 c 0.297 0.445 0.535 1.039 0.633 1.57 c 0.07 0.367 0.051 1.199 -0.023 1.547 c -0.215 1 -0.742 1.848 -1.523 2.457 c -0.648 0.508 -1.375 0.777 -2.227 0.844 c -0.172 0.016 -0.348 0.027 -0.375 0.023 c -0.309 -0.02 -0.543 -0.051 -0.75 -0.094 c -1.715 -0.348 -2.977 -1.695 -3.258 -3.441 c -0.039 -0.25 -0.039 -0.988 0 -1.219 c 0.164 -0.941 0.508 -1.637 1.148 -2.273 c 0.371 -0.371 0.676 -0.586 1.102 -0.797 c 0.355 -0.176 0.574 -0.27 0.938 -0.352 c 0.207 -0.047 0.402 -0.082 0.609 -0.094 m 0.445 1.57 c -1.215 -0.074 -2.324 0.703 -2.648 1.922 c -0.059 0.215 -0.07 0.266 -0.07 0.633 c 0 0.363 0.012 0.438 0.07 0.656 c 0.133 0.496 0.449 0.996 0.82 1.313 c 0.285 0.238 0.633 0.422 0.891 0.465 c 0.703 0.125 1.395 -0.355 1.5 -1.051 l 0 -0.094 l -0.445 0 c -0.32 0 -0.488 -0.004 -0.586 -0.023 c -0.57 -0.152 -0.961 -0.668 -0.961 -1.242 c 0 -0.355 0.121 -0.66 0.375 -0.914 c 0.242 -0.242 0.566 -0.375 0.891 -0.375 c 0.578 0 1.145 0.438 1.266 1.01 c 0.027 0.125 0.023 0.406 0.023 1.313 l 0 1.145 l 0.141 0 c 0.293 -0.031 0.609 -0.176 0.797 -0.375 c 0.113 -0.113 0.227 -0.363 0.281 -0.535 c 0.043 -0.141 0.047 -0.227 0.047 -0.867 c 0 -0.922 -0.031 -1.137 -0.281 -1.617 c -0.313 -0.605 -0.938 -1.098 -1.594 -1.266 c -0.176 -0.047 -0.344 -0.086 -0.516 -0.094 m 0 0" fill="#000"/></g></g></g></g></g></g><g><g clip-path="url(#clipPath-677502414)"><!-- color: #ffb61d --><g><path d="m 31.29 12.01 c -0.414 -0.031 -0.844 0.023 -1.266 0.164 c -0.504 0.168 -0.852 0.387 -1.242 0.773 c -0.504 0.504 -0.77 1.039 -0.891 1.758 c -0.066 0.398 -0.117 0.547 -0.234 0.797 c -0.449 0.953 -1.434 1.617 -2.414 1.617 c -0.082 0 -0.34 -0.016 -0.586 -0.047 c -0.984 -0.129 -1.434 -0.145 -2.461 -0.047 c -0.277 0.027 -0.613 0.047 -0.727 0.047 c -0.488 0 -0.785 -0.184 -0.984 -0.586 c -0.125 -0.25 -0.168 -0.375 -0.164 -0.82 c 0.004 -0.371 0.012 -0.414 -0.047 -0.586 c -0.098 -0.273 -0.188 -0.398 -0.398 -0.609 c -0.309 -0.305 -0.633 -0.445 -1.055 -0.445 c -0.277 0 -0.473 0.043 -0.703 0.164 c -0.488 0.254 -0.793 0.727 -0.82 1.266 c -0.02 0.375 0.055 0.602 0.258 0.914 c 0.148 0.227 0.328 0.391 0.656 0.563 c 0.355 0.184 0.543 0.359 0.703 0.68 c 0.102 0.203 0.094 0.223 0.094 0.445 c 0 0.211 0 0.234 -0.07 0.375 c -0.043 0.086 -0.164 0.246 -0.258 0.352 c -0.879 0.977 -1.414 2.031 -1.641 3.164 c -0.109 0.535 -0.141 0.824 -0.117 1.406 c 0.012 0.277 0.023 0.586 0.023 0.68 c -0.008 0.531 -0.387 0.895 -1.195 1.172 c -0.195 0.066 -0.285 0.082 -0.539 0.094 c -0.199 0.008 -0.355 0 -0.469 -0.023 c -0.102 -0.02 -0.309 -0.023 -0.516 -0.023 c -0.395 0 -0.582 0.043 -0.891 0.188 c -1.148 0.531 -1.656 1.867 -1.125 3 c 0.68 1.445 2.602 1.758 3.703 0.609 c 0.164 -0.172 0.246 -0.301 0.422 -0.609 c 0.055 -0.102 0.172 -0.238 0.258 -0.328 c 0.391 -0.41 0.926 -0.609 1.547 -0.609 c 0.445 0 0.707 0.094 1.055 0.375 c 0.578 0.465 1.379 0.871 2.086 1.078 c 0.781 0.227 1.223 0.262 2.531 0.234 c 0.383 -0.012 0.504 0.012 0.68 0.043 c 0.492 0.098 0.969 0.289 1.383 0.563 c 0.305 0.203 0.805 0.703 1.01 1.01 c 0.273 0.41 0.473 0.926 0.539 1.336 c 0.109 0.688 0.242 1.098 0.469 1.547 c 0.617 1.215 1.727 2.027 3.094 2.273 c 0.375 0.066 1.191 0.055 1.57 -0.023 c 1.301 -0.266 2.383 -1.086 2.977 -2.25 c 0.32 -0.633 0.469 -1.211 0.469 -1.945 c 0.004 -1.715 -0.996 -3.234 -2.578 -3.914 c -0.363 -0.152 -0.629 -0.219 -1.125 -0.305 c -0.492 -0.082 -0.82 -0.191 -1.172 -0.375 c -0.824 -0.426 -1.488 -1.215 -1.781 -2.082 c -0.16 -0.484 -0.227 -0.957 -0.188 -1.523 c 0.023 -0.359 0.012 -1.563 -0.023 -2.391 c -0.023 -0.535 0.055 -0.859 0.281 -1.313 c 0.258 -0.52 0.688 -0.949 1.219 -1.219 c 0.277 -0.141 0.477 -0.191 0.867 -0.258 c 0.414 -0.07 0.711 -0.164 1.031 -0.328 c 0.742 -0.383 1.305 -1.031 1.57 -1.828 c 0.113 -0.34 0.141 -0.617 0.141 -1.01 c 0 -0.391 -0.051 -0.664 -0.164 -1.01 c -0.422 -1.258 -1.543 -2.086 -2.789 -2.18 m -8.625 6.891 c 1.449 -0.098 2.902 0.594 3.727 1.828 c 0.297 0.445 0.535 1.039 0.633 1.57 c 0.07 0.367 0.051 1.199 -0.023 1.547 c -0.215 1 -0.742 1.848 -1.523 2.457 c -0.648 0.508 -1.375 0.777 -2.227 0.844 c -0.172 0.016 -0.348 0.027 -0.375 0.023 c -0.309 -0.02 -0.543 -0.051 -0.75 -0.094 c -1.715 -0.348 -2.977 -1.695 -3.258 -3.441 c -0.039 -0.25 -0.039 -0.988 0 -1.219 c 0.164 -0.941 0.508 -1.637 1.148 -2.273 c 0.371 -0.371 0.676 -0.586 1.102 -0.797 c 0.355 -0.176 0.574 -0.27 0.938 -0.352 c 0.207 -0.047 0.402 -0.082 0.609 -0.094 m 0.445 1.57 c -1.215 -0.074 -2.324 0.703 -2.648 1.922 c -0.059 0.215 -0.07 0.266 -0.07 0.633 c 0 0.363 0.012 0.438 0.07 0.656 c 0.133 0.496 0.449 0.996 0.82 1.313 c 0.285 0.238 0.633 0.422 0.891 0.465 c 0.703 0.125 1.395 -0.355 1.5 -1.051 l 0 -0.094 l -0.445 0 c -0.32 0 -0.488 -0.004 -0.586 -0.023 c -0.57 -0.152 -0.961 -0.668 -0.961 -1.242 c 0 -0.355 0.121 -0.66 0.375 -0.914 c 0.242 -0.242 0.566 -0.375 0.891 -0.375 c 0.578 0 1.145 0.438 1.266 1.01 c 0.027 0.125 0.023 0.406 0.023 1.313 l 0 1.145 l 0.141 0 c 0.293 -0.031 0.609 -0.176 0.797 -0.375 c 0.113 -0.113 0.227 -0.363 0.281 -0.535 c 0.043 -0.141 0.047 -0.227 0.047 -0.867 c 0 -0.922 -0.031 -1.137 -0.281 -1.617 c -0.313 -0.605 -0.938 -1.098 -1.594 -1.266 c -0.176 -0.047 -0.344 -0.086 -0.516 -0.094 m 0 0" fill="#f9f9f9"/></g></g></g><g><path d="m 24 1 c -1.045 0 -2.01 0.284 -2.844 0.781 l -15.344 8.719 c -0.017 0.013 -0.045 0.023 -0.063 0.031 c -1.852 1.051 -2.851 3 -2.75 4.969 l 0 1 c -0.101 -1.966 0.898 -3.918 2.75 -4.969 c 0.017 -0.008 0.045 -0.018 0.063 -0.031 l 15.344 -8.719 c 0.832 -0.497 1.799 -0.781 2.844 -0.781 c 1.045 0 2.01 0.284 2.844 0.781 l 15.25 8.656 c 0.873 0.46 1.625 1.156 2.156 2.063 c 0.554 0.942 0.806 1.988 0.75 3 l 0 -1 c 0.056 -1.012 -0.196 -2.058 -0.75 -3 c -0.532 -0.906 -1.283 -1.603 -2.156 -2.063 l -15.25 -8.656 c -0.832 -0.497 -1.799 -0.781 -2.844 -0.781 z" opacity="0.2" fill="#fff"/></g></svg>