<svg viewBox="0 0 48 48"><defs><linearGradient id="linearGradient3764" y1="1" x2="0" y2="47" gradientUnits="userSpaceOnUse"><stop stop-color="#ddd" stop-opacity="1"/><stop offset="1" stop-color="#d3d3d3" stop-opacity="1"/></linearGradient><clipPath id="clipPath-469427364"><g transform="translate(0,-1004.3622)"><path d="m 24 1005.37 c -1.045 0 -2.023 0.287 -2.856 0.784 l -15.339 8.708 c -0.017 0.013 -0.035 0.013 -0.052 0.021 -1.852 1.051 -2.847 3 -2.746 4.968 l 0 17.02 c -0.056 1.013 0.175 2.049 0.729 2.993 0.532 0.903 1.288 1.602 2.161 2.061 l 15.246 8.653 c 0.832 0.497 1.811 0.784 2.856 0.784 1.045 0 2.023 -0.287 2.856 -0.784 l 15.246 -8.653 c 0.873 -0.46 1.629 -1.158 2.161 -2.061 0.554 -0.944 0.785 -1.981 0.729 -2.993 l 0 -17.01 c 0.056 -1.012 -0.175 -2.052 -0.729 -2.993 -0.532 -0.906 -1.288 -1.604 -2.161 -2.064 l -15.246 -8.653 c -0.832 -0.497 -1.811 -0.784 -2.856 -0.784 z" fill="#1890d0"/></g></clipPath><clipPath id="clipPath-490076295"><g transform="translate(0,-1004.3622)"><path d="m 24 1005.37 c -1.045 0 -2.023 0.287 -2.856 0.784 l -15.339 8.708 c -0.017 0.013 -0.035 0.013 -0.052 0.021 -1.852 1.051 -2.847 3 -2.746 4.968 l 0 17.02 c -0.056 1.013 0.175 2.049 0.729 2.993 0.532 0.903 1.288 1.602 2.161 2.061 l 15.246 8.653 c 0.832 0.497 1.811 0.784 2.856 0.784 1.045 0 2.023 -0.287 2.856 -0.784 l 15.246 -8.653 c 0.873 -0.46 1.629 -1.158 2.161 -2.061 0.554 -0.944 0.785 -1.981 0.729 -2.993 l 0 -17.01 c 0.056 -1.012 -0.175 -2.052 -0.729 -2.993 -0.532 -0.906 -1.288 -1.604 -2.161 -2.064 l -15.246 -8.653 c -0.832 -0.497 -1.811 -0.784 -2.856 -0.784 z" fill="#1890d0"/></g></clipPath><filter id="filter-420119811"><feGaussianBlur stdDeviation="0.35"/></filter></defs><g><g transform="translate(0,-1004.3622)"><path d="m 45 1037.36 c 0.056 1.013 -0.196 2.056 -0.75 3 -0.532 0.903 -1.283 1.603 -2.156 2.063 l -15.25 8.656 c -0.832 0.497 -1.799 0.781 -2.844 0.781 -1.045 0 -2.01 -0.284 -2.844 -0.781 l -15.25 -8.656 c -0.873 -0.46 -1.625 -1.159 -2.156 -2.063 -0.416 -0.708 -0.677 -1.485 -0.75 -2.25 -0.004 0.932 0.242 1.884 0.75 2.75 0.532 0.903 1.283 1.603 2.156 2.063 l 15.25 8.656 c 0.832 0.497 1.799 0.781 2.844 0.781 1.045 0 2.01 -0.284 2.844 -0.781 l 15.25 -8.656 c 0.873 -0.46 1.625 -1.159 2.156 -2.063 0.554 -0.944 0.806 -1.987 0.75 -3 l 0 -0.5 z" opacity="0.05"/><path d="m 45 1036.86 c 0.015 0.263 -0.004 0.516 -0.031 0.781 -0.036 0.844 -0.259 1.685 -0.719 2.469 -0.532 0.903 -1.283 1.603 -2.156 2.063 l -15.25 8.656 c -0.832 0.497 -1.799 0.781 -2.844 0.781 -1.045 0 -2.01 -0.284 -2.844 -0.781 l -15.25 -8.656 c -0.873 -0.46 -1.625 -1.159 -2.156 -2.063 -0.414 -0.705 -0.621 -1.46 -0.688 -2.219 -0.014 -0.092 -0.054 -0.189 -0.063 -0.281 -0.004 0.932 0.242 1.884 0.75 2.75 0.532 0.903 1.283 1.603 2.156 2.063 l 15.25 8.656 c 0.832 0.497 1.799 0.781 2.844 0.781 1.045 0 2.01 -0.284 2.844 -0.781 l 15.25 -8.656 c 0.873 -0.46 1.625 -1.159 2.156 -2.063 0.554 -0.944 0.806 -1.987 0.75 -3 l 0 -0.5 z m -41.813 1.625 c 0.057 0.219 0.132 0.442 0.219 0.656 -0.088 -0.216 -0.16 -0.436 -0.219 -0.656 z m 0.219 0.656 c 0.099 0.243 0.206 0.484 0.344 0.719 -0.139 -0.236 -0.243 -0.472 -0.344 -0.719 z m 41.41 -0.656 c -0.059 0.221 -0.131 0.441 -0.219 0.656 0.087 -0.215 0.161 -0.437 0.219 -0.656 z m -0.219 0.656 c -0.101 0.246 -0.205 0.483 -0.344 0.719 0.138 -0.235 0.245 -0.476 0.344 -0.719 z" opacity="0.1"/><path d="m 3.03 1037.64 c 0.035 0.844 0.259 1.685 0.719 2.469 0.532 0.903 1.283 1.603 2.156 2.063 l 15.25 8.656 c 0.832 0.497 1.799 0.781 2.844 0.781 1.045 0 2.01 -0.284 2.844 -0.781 l 15.25 -8.656 c 0.873 -0.46 1.625 -1.159 2.156 -2.063 0.46 -0.784 0.683 -1.624 0.719 -2.469 -0.067 0.763 -0.303 1.511 -0.719 2.219 -0.532 0.903 -1.283 1.603 -2.156 2.063 l -15.25 8.656 c -0.832 0.497 -1.799 0.781 -2.844 0.781 -1.045 0 -2.01 -0.284 -2.844 -0.781 l -15.25 -8.656 c -0.873 -0.46 -1.625 -1.159 -2.156 -2.063 -0.416 -0.708 -0.651 -1.456 -0.719 -2.219 z" opacity="0.2"/></g></g><g><path d="m 24 46.996 c 1.045 0 2.023 -0.287 2.856 -0.784 l 15.339 -8.708 c 0.017 -0.013 0.035 -0.013 0.052 -0.021 1.852 -1.051 2.847 -3 2.746 -4.968 l 0 -17.02 c 0.056 -1.013 -0.175 -2.049 -0.729 -2.993 -0.532 -0.903 -1.288 -1.602 -2.161 -2.061 l -15.246 -8.653 c -0.832 -0.497 -1.811 -0.784 -2.856 -0.784 -1.045 0 -2.023 0.287 -2.856 0.784 l -15.246 8.653 c -0.873 0.46 -1.629 1.158 -2.161 2.061 -0.554 0.944 -0.785 1.981 -0.729 2.993 l 0 17.01 c -0.056 1.012 0.175 2.051 0.729 2.993 0.532 0.906 1.288 1.604 2.161 2.064 l 15.246 8.653 c 0.832 0.497 1.811 0.785 2.856 0.785 z" fill="url(#linearGradient3764)" fill-opacity="1"/></g><g><g clip-path="url(#clipPath-469427364)"><g opacity="0.25"><g transform="translate(0,1)"><g filter="url(#filter-420119811)"><!-- color: #dddddd --><g><path d="m 25.891 22.14 c 0 1.367 0.035 2.504 -0.625 3.715 c -0.531 0.984 -1.375 1.59 -2.316 1.59 c -1.285 0 -2.031 -1.023 -2.031 -2.535 c 0 -2.984 2.555 -3.527 4.973 -3.527 l 0 0.758 m 3.375 8.531 c -0.219 0.207 -0.539 0.223 -0.789 0.086 c -1.109 -0.965 -1.309 -1.414 -1.922 -2.336 c -1.836 1.961 -3.133 2.547 -5.516 2.547 c -2.816 0 -5.01 -1.816 -5.01 -5.453 c 0 -2.84 1.473 -4.777 3.566 -5.723 c 1.816 -0.836 4.355 -0.984 6.293 -1.215 l 0 -0.453 c 0 -0.832 0.063 -1.816 -0.402 -2.535 c -0.41 -0.645 -1.191 -0.91 -1.879 -0.91 c -1.277 0 -2.414 0.684 -2.691 2.102 c -0.059 0.316 -0.277 0.625 -0.582 0.641 l -3.246 -0.363 c -0.273 -0.066 -0.574 -0.297 -0.5 -0.734 c 0.75 -4.117 4.305 -5.355 7.484 -5.355 c 1.629 0 3.758 0.453 5.04 1.742 c 1.629 1.59 1.473 3.711 1.473 6.02 l 0 5.453 c 0 1.641 0.648 2.359 1.262 3.246 c 0.215 0.316 0.262 0.695 -0.008 0.93 c -0.684 0.598 -1.898 1.703 -2.566 2.324 l -0.012 -0.012" fill-rule="evenodd" fill="#000"/><path d="m 34.531 33.668 c -2.848 2.148 -6.973 3.297 -10.527 3.297 c -4.98 0 -9.465 -1.887 -12.859 -5.03 c -0.266 -0.246 -0.027 -0.582 0.293 -0.391 c 3.66 2.184 8.191 3.496 12.867 3.496 c 3.152 0 6.625 -0.668 9.813 -2.059 c 0.484 -0.207 0.887 0.324 0.414 0.684" fill-rule="evenodd" fill="#000"/><path d="m 35.715 32.28 c -0.363 -0.477 -2.406 -0.227 -3.32 -0.113 c -0.281 0.035 -0.324 -0.215 -0.07 -0.395 c 1.625 -1.172 4.297 -0.836 4.605 -0.441 c 0.313 0.395 -0.078 3.137 -1.609 4.445 c -0.234 0.203 -0.457 0.094 -0.352 -0.172 c 0.34 -0.879 1.113 -2.848 0.746 -3.324" fill-rule="evenodd" fill="#000"/></g></g></g></g></g></g><g><g clip-path="url(#clipPath-490076295)"><!-- color: #dddddd --><g><path d="m 25.891 22.14 c 0 1.367 0.035 2.504 -0.625 3.715 c -0.531 0.984 -1.375 1.59 -2.316 1.59 c -1.285 0 -2.031 -1.023 -2.031 -2.535 c 0 -2.984 2.555 -3.527 4.973 -3.527 l 0 0.758 m 3.375 8.531 c -0.219 0.207 -0.539 0.223 -0.789 0.086 c -1.109 -0.965 -1.309 -1.414 -1.922 -2.336 c -1.836 1.961 -3.133 2.547 -5.516 2.547 c -2.816 0 -5.01 -1.816 -5.01 -5.453 c 0 -2.84 1.473 -4.777 3.566 -5.723 c 1.816 -0.836 4.355 -0.984 6.293 -1.215 l 0 -0.453 c 0 -0.832 0.063 -1.816 -0.402 -2.535 c -0.41 -0.645 -1.191 -0.91 -1.879 -0.91 c -1.277 0 -2.414 0.684 -2.691 2.102 c -0.059 0.316 -0.277 0.625 -0.582 0.641 l -3.246 -0.363 c -0.273 -0.066 -0.574 -0.297 -0.5 -0.734 c 0.75 -4.117 4.305 -5.355 7.484 -5.355 c 1.629 0 3.758 0.453 5.04 1.742 c 1.629 1.59 1.473 3.711 1.473 6.02 l 0 5.453 c 0 1.641 0.648 2.359 1.262 3.246 c 0.215 0.316 0.262 0.695 -0.008 0.93 c -0.684 0.598 -1.898 1.703 -2.566 2.324 l -0.012 -0.012" fill="#201f1f" fill-rule="evenodd"/><path d="m 34.531 33.668 c -2.848 2.148 -6.973 3.297 -10.527 3.297 c -4.98 0 -9.465 -1.887 -12.859 -5.03 c -0.266 -0.246 -0.027 -0.582 0.293 -0.391 c 3.66 2.184 8.191 3.496 12.867 3.496 c 3.152 0 6.625 -0.668 9.813 -2.059 c 0.484 -0.207 0.887 0.324 0.414 0.684" fill="#f90" fill-rule="evenodd"/><path d="m 35.715 32.28 c -0.363 -0.477 -2.406 -0.227 -3.32 -0.113 c -0.281 0.035 -0.324 -0.215 -0.07 -0.395 c 1.625 -1.172 4.297 -0.836 4.605 -0.441 c 0.313 0.395 -0.078 3.137 -1.609 4.445 c -0.234 0.203 -0.457 0.094 -0.352 -0.172 c 0.34 -0.879 1.113 -2.848 0.746 -3.324" fill="#f90" fill-rule="evenodd"/></g></g></g><g><path d="m 24 1 c -1.045 0 -2.01 0.284 -2.844 0.781 l -15.344 8.719 c -0.017 0.013 -0.045 0.023 -0.063 0.031 c -1.852 1.051 -2.851 3 -2.75 4.969 l 0 1 c -0.101 -1.966 0.898 -3.918 2.75 -4.969 c 0.017 -0.008 0.045 -0.018 0.063 -0.031 l 15.344 -8.719 c 0.832 -0.497 1.799 -0.781 2.844 -0.781 c 1.045 0 2.01 0.284 2.844 0.781 l 15.25 8.656 c 0.873 0.46 1.625 1.156 2.156 2.063 c 0.554 0.942 0.806 1.988 0.75 3 l 0 -1 c 0.056 -1.012 -0.196 -2.058 -0.75 -3 c -0.532 -0.906 -1.283 -1.603 -2.156 -2.063 l -15.25 -8.656 c -0.832 -0.497 -1.799 -0.781 -2.844 -0.781 z" opacity="0.2" fill="#fff"/></g></svg>