<svg viewBox="0 0 48 48"><defs><linearGradient id="linearGradient3764" y1="1" x2="0" y2="47" gradientUnits="userSpaceOnUse"><stop stop-color="#3896c8" stop-opacity="1"/><stop offset="1" stop-color="#338bb9" stop-opacity="1"/></linearGradient><clipPath id="clipPath-672916426"><g transform="translate(0,-1004.3622)"><path d="m 24 1005.37 c -1.045 0 -2.023 0.287 -2.856 0.784 l -15.339 8.708 c -0.017 0.013 -0.035 0.013 -0.052 0.021 -1.852 1.051 -2.847 3 -2.746 4.968 l 0 17.02 c -0.056 1.013 0.175 2.049 0.729 2.993 0.532 0.903 1.288 1.602 2.161 2.061 l 15.246 8.653 c 0.832 0.497 1.811 0.784 2.856 0.784 1.045 0 2.023 -0.287 2.856 -0.784 l 15.246 -8.653 c 0.873 -0.46 1.629 -1.158 2.161 -2.061 0.554 -0.944 0.785 -1.981 0.729 -2.993 l 0 -17.01 c 0.056 -1.012 -0.175 -2.052 -0.729 -2.993 -0.532 -0.906 -1.288 -1.604 -2.161 -2.064 l -15.246 -8.653 c -0.832 -0.497 -1.811 -0.784 -2.856 -0.784 z" fill="#1890d0"/></g></clipPath><clipPath id="clipPath-681615981"><g transform="translate(0,-1004.3622)"><path d="m 24 1005.37 c -1.045 0 -2.023 0.287 -2.856 0.784 l -15.339 8.708 c -0.017 0.013 -0.035 0.013 -0.052 0.021 -1.852 1.051 -2.847 3 -2.746 4.968 l 0 17.02 c -0.056 1.013 0.175 2.049 0.729 2.993 0.532 0.903 1.288 1.602 2.161 2.061 l 15.246 8.653 c 0.832 0.497 1.811 0.784 2.856 0.784 1.045 0 2.023 -0.287 2.856 -0.784 l 15.246 -8.653 c 0.873 -0.46 1.629 -1.158 2.161 -2.061 0.554 -0.944 0.785 -1.981 0.729 -2.993 l 0 -17.01 c 0.056 -1.012 -0.175 -2.052 -0.729 -2.993 -0.532 -0.906 -1.288 -1.604 -2.161 -2.064 l -15.246 -8.653 c -0.832 -0.497 -1.811 -0.784 -2.856 -0.784 z" fill="#1890d0"/></g></clipPath><filter id="filter-654855128"><feGaussianBlur stdDeviation="0.35"/></filter></defs><g><g transform="translate(0,-1004.3622)"><path d="m 45 1037.36 c 0.056 1.013 -0.196 2.056 -0.75 3 -0.532 0.903 -1.283 1.603 -2.156 2.063 l -15.25 8.656 c -0.832 0.497 -1.799 0.781 -2.844 0.781 -1.045 0 -2.01 -0.284 -2.844 -0.781 l -15.25 -8.656 c -0.873 -0.46 -1.625 -1.159 -2.156 -2.063 -0.416 -0.708 -0.677 -1.485 -0.75 -2.25 -0.004 0.932 0.242 1.884 0.75 2.75 0.532 0.903 1.283 1.603 2.156 2.063 l 15.25 8.656 c 0.832 0.497 1.799 0.781 2.844 0.781 1.045 0 2.01 -0.284 2.844 -0.781 l 15.25 -8.656 c 0.873 -0.46 1.625 -1.159 2.156 -2.063 0.554 -0.944 0.806 -1.987 0.75 -3 l 0 -0.5 z" opacity="0.05"/><path d="m 45 1036.86 c 0.015 0.263 -0.004 0.516 -0.031 0.781 -0.036 0.844 -0.259 1.685 -0.719 2.469 -0.532 0.903 -1.283 1.603 -2.156 2.063 l -15.25 8.656 c -0.832 0.497 -1.799 0.781 -2.844 0.781 -1.045 0 -2.01 -0.284 -2.844 -0.781 l -15.25 -8.656 c -0.873 -0.46 -1.625 -1.159 -2.156 -2.063 -0.414 -0.705 -0.621 -1.46 -0.688 -2.219 -0.014 -0.092 -0.054 -0.189 -0.063 -0.281 -0.004 0.932 0.242 1.884 0.75 2.75 0.532 0.903 1.283 1.603 2.156 2.063 l 15.25 8.656 c 0.832 0.497 1.799 0.781 2.844 0.781 1.045 0 2.01 -0.284 2.844 -0.781 l 15.25 -8.656 c 0.873 -0.46 1.625 -1.159 2.156 -2.063 0.554 -0.944 0.806 -1.987 0.75 -3 l 0 -0.5 z m -41.813 1.625 c 0.057 0.219 0.132 0.442 0.219 0.656 -0.088 -0.216 -0.16 -0.436 -0.219 -0.656 z m 0.219 0.656 c 0.099 0.243 0.206 0.484 0.344 0.719 -0.139 -0.236 -0.243 -0.472 -0.344 -0.719 z m 41.41 -0.656 c -0.059 0.221 -0.131 0.441 -0.219 0.656 0.087 -0.215 0.161 -0.437 0.219 -0.656 z m -0.219 0.656 c -0.101 0.246 -0.205 0.483 -0.344 0.719 0.138 -0.235 0.245 -0.476 0.344 -0.719 z" opacity="0.1"/><path d="m 3.03 1037.64 c 0.035 0.844 0.259 1.685 0.719 2.469 0.532 0.903 1.283 1.603 2.156 2.063 l 15.25 8.656 c 0.832 0.497 1.799 0.781 2.844 0.781 1.045 0 2.01 -0.284 2.844 -0.781 l 15.25 -8.656 c 0.873 -0.46 1.625 -1.159 2.156 -2.063 0.46 -0.784 0.683 -1.624 0.719 -2.469 -0.067 0.763 -0.303 1.511 -0.719 2.219 -0.532 0.903 -1.283 1.603 -2.156 2.063 l -15.25 8.656 c -0.832 0.497 -1.799 0.781 -2.844 0.781 -1.045 0 -2.01 -0.284 -2.844 -0.781 l -15.25 -8.656 c -0.873 -0.46 -1.625 -1.159 -2.156 -2.063 -0.416 -0.708 -0.651 -1.456 -0.719 -2.219 z" opacity="0.2"/></g></g><g><path d="m 24 46.996 c 1.045 0 2.023 -0.287 2.856 -0.784 l 15.339 -8.708 c 0.017 -0.013 0.035 -0.013 0.052 -0.021 1.852 -1.051 2.847 -3 2.746 -4.968 l 0 -17.02 c 0.056 -1.013 -0.175 -2.049 -0.729 -2.993 -0.532 -0.903 -1.288 -1.602 -2.161 -2.061 l -15.246 -8.653 c -0.832 -0.497 -1.811 -0.784 -2.856 -0.784 -1.045 0 -2.023 0.287 -2.856 0.784 l -15.246 8.653 c -0.873 0.46 -1.629 1.158 -2.161 2.061 -0.554 0.944 -0.785 1.981 -0.729 2.993 l 0 17.01 c -0.056 1.012 0.175 2.051 0.729 2.993 0.532 0.906 1.288 1.604 2.161 2.064 l 15.246 8.653 c 0.832 0.497 1.811 0.785 2.856 0.785 z" fill="url(#linearGradient3764)" fill-opacity="1"/></g><g><g clip-path="url(#clipPath-672916426)"><g opacity="0.25"><g transform="translate(0,1)"><g filter="url(#filter-654855128)"><!-- color: #3896c8 --><g><path d="m 23.883 3 c -2.551 0 -4.984 0.488 -7.234 1.355 c 6.199 0.109 9.695 0.766 12.871 2.531 c 0.262 0.145 0.527 0.297 0.789 0.461 c 0.781 0.488 1.563 1.051 2.367 1.695 c 3.465 2.766 3.77 6.133 6.711 8.707 c 1.793 1.566 1.551 1.434 2.379 1.434 c 0.906 0 1.371 -0.832 1.59 -1.738 c -2.641 -8.375 -10.359 -14.445 -19.473 -14.445 m -8.203 3.816 c -0.434 0 -0.863 0.047 -1.289 0.137 c -0.141 0.031 -0.281 0.063 -0.422 0.102 c -3.918 1.066 -7.27 5.461 -8.367 7.477 c -0.07 0.129 -0.148 0.277 -0.223 0.418 c -0.582 1.254 -1.051 2.574 -1.379 3.953 c 0.313 -0.41 0.617 -0.793 0.922 -1.152 c 2.125 -2.527 4.066 -3.898 6.859 -3.898 c 4.977 0 5.609 2.254 14.734 8.301 c 4.492 2.977 11.309 7.078 16.93 7.691 c 0.23 -0.77 0.414 -1.559 0.555 -2.359 c -2.102 -0.156 -3.996 -0.969 -6.05 -2.352 c -0.293 -0.195 -0.59 -0.398 -0.887 -0.621 c -2.402 -1.758 -5.066 -4.25 -8.539 -7.34 c -2.641 -2.352 -9.285 -10.355 -12.848 -10.355 m -7.133 23.727 c -1.582 0 -2.758 0.813 -2.891 2.645 c 2.215 4.414 5.93 7.918 10.469 9.813 c -0.059 -0.086 -0.117 -0.176 -0.176 -0.27 c -0.426 -0.668 -0.836 -1.574 -0.836 -2.609 c 0 -1.207 0.77 -1.684 1.633 -1.684 c 1.156 0 4.961 1.84 11.328 1.84 c 3.184 0 7.156 -0.473 10.07 -1.613 c 1.148 -1.137 2.16 -2.41 3.02 -3.797 c -1.859 0.77 -5.297 1.875 -9.777 1.875 c -8.656 0 -16.547 -3.754 -18.828 -4.957 c -0.605 -0.32 -2.156 -1.242 -4.01 -1.242 m 0 0" fill-rule="evenodd" fill="#000"/></g></g></g></g></g></g><g><g clip-path="url(#clipPath-681615981)"><!-- color: #3896c8 --><g><path d="m 23.883 3 c -2.551 0 -4.984 0.488 -7.234 1.355 c 6.199 0.109 9.695 0.766 12.871 2.531 c 0.262 0.145 0.527 0.297 0.789 0.461 c 0.781 0.488 1.563 1.051 2.367 1.695 c 3.465 2.766 3.77 6.133 6.711 8.707 c 1.793 1.566 1.551 1.434 2.379 1.434 c 0.906 0 1.371 -0.832 1.59 -1.738 c -2.641 -8.375 -10.359 -14.445 -19.473 -14.445 m -8.203 3.816 c -0.434 0 -0.863 0.047 -1.289 0.137 c -0.141 0.031 -0.281 0.063 -0.422 0.102 c -3.918 1.066 -7.27 5.461 -8.367 7.477 c -0.07 0.129 -0.148 0.277 -0.223 0.418 c -0.582 1.254 -1.051 2.574 -1.379 3.953 c 0.313 -0.41 0.617 -0.793 0.922 -1.152 c 2.125 -2.527 4.066 -3.898 6.859 -3.898 c 4.977 0 5.609 2.254 14.734 8.301 c 4.492 2.977 11.309 7.078 16.93 7.691 c 0.23 -0.77 0.414 -1.559 0.555 -2.359 c -2.102 -0.156 -3.996 -0.969 -6.05 -2.352 c -0.293 -0.195 -0.59 -0.398 -0.887 -0.621 c -2.402 -1.758 -5.066 -4.25 -8.539 -7.34 c -2.641 -2.352 -9.285 -10.355 -12.848 -10.355 m -7.133 23.727 c -1.582 0 -2.758 0.813 -2.891 2.645 c 2.215 4.414 5.93 7.918 10.469 9.813 c -0.059 -0.086 -0.117 -0.176 -0.176 -0.27 c -0.426 -0.668 -0.836 -1.574 -0.836 -2.609 c 0 -1.207 0.77 -1.684 1.633 -1.684 c 1.156 0 4.961 1.84 11.328 1.84 c 3.184 0 7.156 -0.473 10.07 -1.613 c 1.148 -1.137 2.16 -2.41 3.02 -3.797 c -1.859 0.77 -5.297 1.875 -9.777 1.875 c -8.656 0 -16.547 -3.754 -18.828 -4.957 c -0.605 -0.32 -2.156 -1.242 -4.01 -1.242 m 0 0" fill="#f9f9f9" fill-rule="evenodd"/></g></g></g><g><path d="m 24 1 c -1.045 0 -2.01 0.284 -2.844 0.781 l -15.344 8.719 c -0.017 0.013 -0.045 0.023 -0.063 0.031 c -1.852 1.051 -2.851 3 -2.75 4.969 l 0 1 c -0.101 -1.966 0.898 -3.918 2.75 -4.969 c 0.017 -0.008 0.045 -0.018 0.063 -0.031 l 15.344 -8.719 c 0.832 -0.497 1.799 -0.781 2.844 -0.781 c 1.045 0 2.01 0.284 2.844 0.781 l 15.25 8.656 c 0.873 0.46 1.625 1.156 2.156 2.063 c 0.554 0.942 0.806 1.988 0.75 3 l 0 -1 c 0.056 -1.012 -0.196 -2.058 -0.75 -3 c -0.532 -0.906 -1.283 -1.603 -2.156 -2.063 l -15.25 -8.656 c -0.832 -0.497 -1.799 -0.781 -2.844 -0.781 z" opacity="0.2" fill="#fff"/></g></svg>