<svg viewBox="0 0 48 48"><defs><linearGradient id="linearGradient3764" y1="1" x2="0" y2="47" gradientUnits="userSpaceOnUse"><stop stop-color="#1c5484" stop-opacity="1"/><stop offset="1" stop-color="#184a74" stop-opacity="1"/></linearGradient><clipPath id="clipPath-971076320"><g transform="translate(0,-1004.3622)"><path d="m 24 1005.37 c -1.045 0 -2.023 0.287 -2.856 0.784 l -15.339 8.708 c -0.017 0.013 -0.035 0.013 -0.052 0.021 -1.852 1.051 -2.847 3 -2.746 4.968 l 0 17.02 c -0.056 1.013 0.175 2.049 0.729 2.993 0.532 0.903 1.288 1.602 2.161 2.061 l 15.246 8.653 c 0.832 0.497 1.811 0.784 2.856 0.784 1.045 0 2.023 -0.287 2.856 -0.784 l 15.246 -8.653 c 0.873 -0.46 1.629 -1.158 2.161 -2.061 0.554 -0.944 0.785 -1.981 0.729 -2.993 l 0 -17.01 c 0.056 -1.012 -0.175 -2.052 -0.729 -2.993 -0.532 -0.906 -1.288 -1.604 -2.161 -2.064 l -15.246 -8.653 c -0.832 -0.497 -1.811 -0.784 -2.856 -0.784 z" fill="#1890d0"/></g></clipPath><clipPath id="clipPath-980377213"><g transform="translate(0,-1004.3622)"><path d="m 24 1005.37 c -1.045 0 -2.023 0.287 -2.856 0.784 l -15.339 8.708 c -0.017 0.013 -0.035 0.013 -0.052 0.021 -1.852 1.051 -2.847 3 -2.746 4.968 l 0 17.02 c -0.056 1.013 0.175 2.049 0.729 2.993 0.532 0.903 1.288 1.602 2.161 2.061 l 15.246 8.653 c 0.832 0.497 1.811 0.784 2.856 0.784 1.045 0 2.023 -0.287 2.856 -0.784 l 15.246 -8.653 c 0.873 -0.46 1.629 -1.158 2.161 -2.061 0.554 -0.944 0.785 -1.981 0.729 -2.993 l 0 -17.01 c 0.056 -1.012 -0.175 -2.052 -0.729 -2.993 -0.532 -0.906 -1.288 -1.604 -2.161 -2.064 l -15.246 -8.653 c -0.832 -0.497 -1.811 -0.784 -2.856 -0.784 z" fill="#1890d0"/></g></clipPath><filter id="filter-951229653"><feGaussianBlur stdDeviation="0.35"/></filter></defs><g><g transform="translate(0,-1004.3622)"><path d="m 45 1037.36 c 0.056 1.013 -0.196 2.056 -0.75 3 -0.532 0.903 -1.283 1.603 -2.156 2.063 l -15.25 8.656 c -0.832 0.497 -1.799 0.781 -2.844 0.781 -1.045 0 -2.01 -0.284 -2.844 -0.781 l -15.25 -8.656 c -0.873 -0.46 -1.625 -1.159 -2.156 -2.063 -0.416 -0.708 -0.677 -1.485 -0.75 -2.25 -0.004 0.932 0.242 1.884 0.75 2.75 0.532 0.903 1.283 1.603 2.156 2.063 l 15.25 8.656 c 0.832 0.497 1.799 0.781 2.844 0.781 1.045 0 2.01 -0.284 2.844 -0.781 l 15.25 -8.656 c 0.873 -0.46 1.625 -1.159 2.156 -2.063 0.554 -0.944 0.806 -1.987 0.75 -3 l 0 -0.5 z" opacity="0.05"/><path d="m 45 1036.86 c 0.015 0.263 -0.004 0.516 -0.031 0.781 -0.036 0.844 -0.259 1.685 -0.719 2.469 -0.532 0.903 -1.283 1.603 -2.156 2.063 l -15.25 8.656 c -0.832 0.497 -1.799 0.781 -2.844 0.781 -1.045 0 -2.01 -0.284 -2.844 -0.781 l -15.25 -8.656 c -0.873 -0.46 -1.625 -1.159 -2.156 -2.063 -0.414 -0.705 -0.621 -1.46 -0.688 -2.219 -0.014 -0.092 -0.054 -0.189 -0.063 -0.281 -0.004 0.932 0.242 1.884 0.75 2.75 0.532 0.903 1.283 1.603 2.156 2.063 l 15.25 8.656 c 0.832 0.497 1.799 0.781 2.844 0.781 1.045 0 2.01 -0.284 2.844 -0.781 l 15.25 -8.656 c 0.873 -0.46 1.625 -1.159 2.156 -2.063 0.554 -0.944 0.806 -1.987 0.75 -3 l 0 -0.5 z m -41.813 1.625 c 0.057 0.219 0.132 0.442 0.219 0.656 -0.088 -0.216 -0.16 -0.436 -0.219 -0.656 z m 0.219 0.656 c 0.099 0.243 0.206 0.484 0.344 0.719 -0.139 -0.236 -0.243 -0.472 -0.344 -0.719 z m 41.41 -0.656 c -0.059 0.221 -0.131 0.441 -0.219 0.656 0.087 -0.215 0.161 -0.437 0.219 -0.656 z m -0.219 0.656 c -0.101 0.246 -0.205 0.483 -0.344 0.719 0.138 -0.235 0.245 -0.476 0.344 -0.719 z" opacity="0.1"/><path d="m 3.03 1037.64 c 0.035 0.844 0.259 1.685 0.719 2.469 0.532 0.903 1.283 1.603 2.156 2.063 l 15.25 8.656 c 0.832 0.497 1.799 0.781 2.844 0.781 1.045 0 2.01 -0.284 2.844 -0.781 l 15.25 -8.656 c 0.873 -0.46 1.625 -1.159 2.156 -2.063 0.46 -0.784 0.683 -1.624 0.719 -2.469 -0.067 0.763 -0.303 1.511 -0.719 2.219 -0.532 0.903 -1.283 1.603 -2.156 2.063 l -15.25 8.656 c -0.832 0.497 -1.799 0.781 -2.844 0.781 -1.045 0 -2.01 -0.284 -2.844 -0.781 l -15.25 -8.656 c -0.873 -0.46 -1.625 -1.159 -2.156 -2.063 -0.416 -0.708 -0.651 -1.456 -0.719 -2.219 z" opacity="0.2"/></g></g><g><path d="m 24 46.996 c 1.045 0 2.023 -0.287 2.856 -0.784 l 15.339 -8.708 c 0.017 -0.013 0.035 -0.013 0.052 -0.021 1.852 -1.051 2.847 -3 2.746 -4.968 l 0 -17.02 c 0.056 -1.013 -0.175 -2.049 -0.729 -2.993 -0.532 -0.903 -1.288 -1.602 -2.161 -2.061 l -15.246 -8.653 c -0.832 -0.497 -1.811 -0.784 -2.856 -0.784 -1.045 0 -2.023 0.287 -2.856 0.784 l -15.246 8.653 c -0.873 0.46 -1.629 1.158 -2.161 2.061 -0.554 0.944 -0.785 1.981 -0.729 2.993 l 0 17.01 c -0.056 1.012 0.175 2.051 0.729 2.993 0.532 0.906 1.288 1.604 2.161 2.064 l 15.246 8.653 c 0.832 0.497 1.811 0.785 2.856 0.785 z" fill="url(#linearGradient3764)" fill-opacity="1"/></g><g><g clip-path="url(#clipPath-971076320)"><g opacity="0.25"><g transform="translate(0,1)"><g filter="url(#filter-951229653)"><!-- color: #1c5484 --><g><path d="m 36.48 16.12 c 0.082 0.488 0.109 1 0.109 1.543 c 0 0.004 0 0.008 0 0.016 c 0 3.102 -1.359 5.75 -3.926 7.629 c -2.582 1.902 -6.102 2.793 -10.504 2.797 l -1.01 0 c -0.309 0 -0.762 0.383 -0.82 0.656 l 0 0.016 l -1.211 5.199 c -0.27 1.188 -1.32 2 -2.527 2 l -3.035 0 c 0.012 0.578 0.461 1.023 1.09 1.02 l 3.52 -0.012 c 0.746 0.004 1.504 -0.59 1.68 -1.32 l 1.195 -5.211 c 0.168 -0.73 0.922 -1.34 1.68 -1.332 l 1.01 0 c 4.289 0 7.613 -0.879 9.996 -2.633 c 2.379 -1.762 3.574 -4.07 3.574 -6.945 c -0.008 -1.258 -0.223 -2.32 -0.672 -3.16 c -0.047 -0.09 -0.094 -0.18 -0.148 -0.266 m -12.617 0.199 c -0.289 -0.004 -0.758 0.379 -0.816 0.66 l -0.016 0.012 l -1.047 4.543 c -0.035 0.148 0.004 0.188 0.027 0.215 c 0.023 0.027 0.051 0.066 0.199 0.066 l 0.82 0 l 0.727 -3.156 c 0.156 -0.723 0.922 -1.324 1.664 -1.316 l 1.156 -0.016 c 0.57 0.004 1.07 0.039 1.52 0.121 c -0.102 -0.25 -0.266 -0.43 -0.512 -0.59 c -0.469 -0.313 -1.324 -0.539 -2.566 -0.539 m -1.156 0" fill="#000"/><path d="m 35.06 14.512 c -0.438 -0.848 -1.09 -1.539 -1.922 -2.059 c -0.867 -0.535 -1.871 -0.902 -3.043 -1.125 c -1.18 -0.211 -2.555 -0.313 -4.137 -0.328 l -7.313 0.004 c -0.762 0.012 -1.508 0.605 -1.68 1.336 l -4.934 21.445 c -0.172 0.73 0.305 1.34 1.063 1.34 l 3.504 0 c 0.758 0 1.508 -0.594 1.68 -1.34 l 1.207 -5.207 c 0.16 -0.727 0.91 -1.328 1.668 -1.328 l 1 0 c 4.285 -0.004 7.609 -0.879 9.996 -2.637 c 2.387 -1.75 3.578 -4.07 3.574 -6.941 c 0.004 -1.262 -0.215 -2.316 -0.668 -3.16 m -7.566 7.01 c -1.059 0.77 -2.523 1.16 -4.422 1.16 l -0.859 0 c -0.758 0 -1.234 -0.602 -1.07 -1.34 l 1.055 -4.547 c 0.16 -0.73 0.918 -1.34 1.676 -1.332 l 1.145 -0.008 c 1.34 0 2.359 0.23 3.047 0.688 c 0.676 0.441 1.02 1.145 1.01 2.086 c 0.02 1.418 -0.52 2.516 -1.578 3.293" fill="#000"/></g></g></g></g></g></g><g><g clip-path="url(#clipPath-980377213)"><!-- color: #1c5484 --><g><path d="m 36.48 16.12 c 0.082 0.488 0.109 1 0.109 1.543 c 0 0.004 0 0.008 0 0.016 c 0 3.102 -1.359 5.75 -3.926 7.629 c -2.582 1.902 -6.102 2.793 -10.504 2.797 l -1.01 0 c -0.309 0 -0.762 0.383 -0.82 0.656 l 0 0.016 l -1.211 5.199 c -0.27 1.188 -1.32 2 -2.527 2 l -3.035 0 c 0.012 0.578 0.461 1.023 1.09 1.02 l 3.52 -0.012 c 0.746 0.004 1.504 -0.59 1.68 -1.32 l 1.195 -5.211 c 0.168 -0.73 0.922 -1.34 1.68 -1.332 l 1.01 0 c 4.289 0 7.613 -0.879 9.996 -2.633 c 2.379 -1.762 3.574 -4.07 3.574 -6.945 c -0.008 -1.258 -0.223 -2.32 -0.672 -3.16 c -0.047 -0.09 -0.094 -0.18 -0.148 -0.266 m -12.617 0.199 c -0.289 -0.004 -0.758 0.379 -0.816 0.66 l -0.016 0.012 l -1.047 4.543 c -0.035 0.148 0.004 0.188 0.027 0.215 c 0.023 0.027 0.051 0.066 0.199 0.066 l 0.82 0 l 0.727 -3.156 c 0.156 -0.723 0.922 -1.324 1.664 -1.316 l 1.156 -0.016 c 0.57 0.004 1.07 0.039 1.52 0.121 c -0.102 -0.25 -0.266 -0.43 -0.512 -0.59 c -0.469 -0.313 -1.324 -0.539 -2.566 -0.539 m -1.156 0" fill="#9cc7e5"/><path d="m 35.06 14.512 c -0.438 -0.848 -1.09 -1.539 -1.922 -2.059 c -0.867 -0.535 -1.871 -0.902 -3.043 -1.125 c -1.18 -0.211 -2.555 -0.313 -4.137 -0.328 l -7.313 0.004 c -0.762 0.012 -1.508 0.605 -1.68 1.336 l -4.934 21.445 c -0.172 0.73 0.305 1.34 1.063 1.34 l 3.504 0 c 0.758 0 1.508 -0.594 1.68 -1.34 l 1.207 -5.207 c 0.16 -0.727 0.91 -1.328 1.668 -1.328 l 1 0 c 4.285 -0.004 7.609 -0.879 9.996 -2.637 c 2.387 -1.75 3.578 -4.07 3.574 -6.941 c 0.004 -1.262 -0.215 -2.316 -0.668 -3.16 m -7.566 7.01 c -1.059 0.77 -2.523 1.16 -4.422 1.16 l -0.859 0 c -0.758 0 -1.234 -0.602 -1.07 -1.34 l 1.055 -4.547 c 0.16 -0.73 0.918 -1.34 1.676 -1.332 l 1.145 -0.008 c 1.34 0 2.359 0.23 3.047 0.688 c 0.676 0.441 1.02 1.145 1.01 2.086 c 0.02 1.418 -0.52 2.516 -1.578 3.293" fill="#f9f9f9"/></g></g></g><g><path d="m 24 1 c -1.045 0 -2.01 0.284 -2.844 0.781 l -15.344 8.719 c -0.017 0.013 -0.045 0.023 -0.063 0.031 c -1.852 1.051 -2.851 3 -2.75 4.969 l 0 1 c -0.101 -1.966 0.898 -3.918 2.75 -4.969 c 0.017 -0.008 0.045 -0.018 0.063 -0.031 l 15.344 -8.719 c 0.832 -0.497 1.799 -0.781 2.844 -0.781 c 1.045 0 2.01 0.284 2.844 0.781 l 15.25 8.656 c 0.873 0.46 1.625 1.156 2.156 2.063 c 0.554 0.942 0.806 1.988 0.75 3 l 0 -1 c 0.056 -1.012 -0.196 -2.058 -0.75 -3 c -0.532 -0.906 -1.283 -1.603 -2.156 -2.063 l -15.25 -8.656 c -0.832 -0.497 -1.799 -0.781 -2.844 -0.781 z" opacity="0.2" fill="#fff"/></g></svg>