<svg viewBox="0 0 48 48"><defs><linearGradient id="linearGradient3764" y1="1" x2="0" y2="47" gradientUnits="userSpaceOnUse"><stop stop-color="#c34545" stop-opacity="1"/><stop offset="1" stop-color="#b93b3b" stop-opacity="1"/></linearGradient><clipPath id="clipPath-335241635"><g transform="translate(0,-1004.3622)"><path d="m 24 1005.37 c -1.045 0 -2.023 0.287 -2.856 0.784 l -15.339 8.708 c -0.017 0.013 -0.035 0.013 -0.052 0.021 -1.852 1.051 -2.847 3 -2.746 4.968 l 0 17.02 c -0.056 1.013 0.175 2.049 0.729 2.993 0.532 0.903 1.288 1.602 2.161 2.061 l 15.246 8.653 c 0.832 0.497 1.811 0.784 2.856 0.784 1.045 0 2.023 -0.287 2.856 -0.784 l 15.246 -8.653 c 0.873 -0.46 1.629 -1.158 2.161 -2.061 0.554 -0.944 0.785 -1.981 0.729 -2.993 l 0 -17.01 c 0.056 -1.012 -0.175 -2.052 -0.729 -2.993 -0.532 -0.906 -1.288 -1.604 -2.161 -2.064 l -15.246 -8.653 c -0.832 -0.497 -1.811 -0.784 -2.856 -0.784 z" fill="#1890d0"/></g></clipPath><clipPath id="clipPath-343761059"><g transform="translate(0,-1004.3622)"><path d="m 24 1005.37 c -1.045 0 -2.023 0.287 -2.856 0.784 l -15.339 8.708 c -0.017 0.013 -0.035 0.013 -0.052 0.021 -1.852 1.051 -2.847 3 -2.746 4.968 l 0 17.02 c -0.056 1.013 0.175 2.049 0.729 2.993 0.532 0.903 1.288 1.602 2.161 2.061 l 15.246 8.653 c 0.832 0.497 1.811 0.784 2.856 0.784 1.045 0 2.023 -0.287 2.856 -0.784 l 15.246 -8.653 c 0.873 -0.46 1.629 -1.158 2.161 -2.061 0.554 -0.944 0.785 -1.981 0.729 -2.993 l 0 -17.01 c 0.056 -1.012 -0.175 -2.052 -0.729 -2.993 -0.532 -0.906 -1.288 -1.604 -2.161 -2.064 l -15.246 -8.653 c -0.832 -0.497 -1.811 -0.784 -2.856 -0.784 z" fill="#1890d0"/></g></clipPath><filter id="filter-317738630"><feGaussianBlur stdDeviation="0.35"/></filter></defs><g><g transform="translate(0,-1004.3622)"><path d="m 45 1037.36 c 0.056 1.013 -0.196 2.056 -0.75 3 -0.532 0.903 -1.283 1.603 -2.156 2.063 l -15.25 8.656 c -0.832 0.497 -1.799 0.781 -2.844 0.781 -1.045 0 -2.01 -0.284 -2.844 -0.781 l -15.25 -8.656 c -0.873 -0.46 -1.625 -1.159 -2.156 -2.063 -0.416 -0.708 -0.677 -1.485 -0.75 -2.25 -0.004 0.932 0.242 1.884 0.75 2.75 0.532 0.903 1.283 1.603 2.156 2.063 l 15.25 8.656 c 0.832 0.497 1.799 0.781 2.844 0.781 1.045 0 2.01 -0.284 2.844 -0.781 l 15.25 -8.656 c 0.873 -0.46 1.625 -1.159 2.156 -2.063 0.554 -0.944 0.806 -1.987 0.75 -3 l 0 -0.5 z" opacity="0.05"/><path d="m 45 1036.86 c 0.015 0.263 -0.004 0.516 -0.031 0.781 -0.036 0.844 -0.259 1.685 -0.719 2.469 -0.532 0.903 -1.283 1.603 -2.156 2.063 l -15.25 8.656 c -0.832 0.497 -1.799 0.781 -2.844 0.781 -1.045 0 -2.01 -0.284 -2.844 -0.781 l -15.25 -8.656 c -0.873 -0.46 -1.625 -1.159 -2.156 -2.063 -0.414 -0.705 -0.621 -1.46 -0.688 -2.219 -0.014 -0.092 -0.054 -0.189 -0.063 -0.281 -0.004 0.932 0.242 1.884 0.75 2.75 0.532 0.903 1.283 1.603 2.156 2.063 l 15.25 8.656 c 0.832 0.497 1.799 0.781 2.844 0.781 1.045 0 2.01 -0.284 2.844 -0.781 l 15.25 -8.656 c 0.873 -0.46 1.625 -1.159 2.156 -2.063 0.554 -0.944 0.806 -1.987 0.75 -3 l 0 -0.5 z m -41.813 1.625 c 0.057 0.219 0.132 0.442 0.219 0.656 -0.088 -0.216 -0.16 -0.436 -0.219 -0.656 z m 0.219 0.656 c 0.099 0.243 0.206 0.484 0.344 0.719 -0.139 -0.236 -0.243 -0.472 -0.344 -0.719 z m 41.41 -0.656 c -0.059 0.221 -0.131 0.441 -0.219 0.656 0.087 -0.215 0.161 -0.437 0.219 -0.656 z m -0.219 0.656 c -0.101 0.246 -0.205 0.483 -0.344 0.719 0.138 -0.235 0.245 -0.476 0.344 -0.719 z" opacity="0.1"/><path d="m 3.03 1037.64 c 0.035 0.844 0.259 1.685 0.719 2.469 0.532 0.903 1.283 1.603 2.156 2.063 l 15.25 8.656 c 0.832 0.497 1.799 0.781 2.844 0.781 1.045 0 2.01 -0.284 2.844 -0.781 l 15.25 -8.656 c 0.873 -0.46 1.625 -1.159 2.156 -2.063 0.46 -0.784 0.683 -1.624 0.719 -2.469 -0.067 0.763 -0.303 1.511 -0.719 2.219 -0.532 0.903 -1.283 1.603 -2.156 2.063 l -15.25 8.656 c -0.832 0.497 -1.799 0.781 -2.844 0.781 -1.045 0 -2.01 -0.284 -2.844 -0.781 l -15.25 -8.656 c -0.873 -0.46 -1.625 -1.159 -2.156 -2.063 -0.416 -0.708 -0.651 -1.456 -0.719 -2.219 z" opacity="0.2"/></g></g><g><path d="m 24 46.996 c 1.045 0 2.023 -0.287 2.856 -0.784 l 15.339 -8.708 c 0.017 -0.013 0.035 -0.013 0.052 -0.021 1.852 -1.051 2.847 -3 2.746 -4.968 l 0 -17.02 c 0.056 -1.013 -0.175 -2.049 -0.729 -2.993 -0.532 -0.903 -1.288 -1.602 -2.161 -2.061 l -15.246 -8.653 c -0.832 -0.497 -1.811 -0.784 -2.856 -0.784 -1.045 0 -2.023 0.287 -2.856 0.784 l -15.246 8.653 c -0.873 0.46 -1.629 1.158 -2.161 2.061 -0.554 0.944 -0.785 1.981 -0.729 2.993 l 0 17.01 c -0.056 1.012 0.175 2.051 0.729 2.993 0.532 0.906 1.288 1.604 2.161 2.064 l 15.246 8.653 c 0.832 0.497 1.811 0.785 2.856 0.785 z" fill="url(#linearGradient3764)" fill-opacity="1"/></g><g><g clip-path="url(#clipPath-335241635)"><g opacity="0.25"><g transform="translate(0,1)"><g filter="url(#filter-317738630)"><!-- color: #c34545 --><g><path d="m 36.883 27.625 c -0.285 -0.535 -0.727 -0.977 -4.359 -0.867 c -1.234 0.035 -2.078 0.078 -2.785 0.141 c -1.289 -0.738 -2.559 -1.68 -3.527 -2.836 c -1.109 -1.328 -1.793 -2.863 -2.234 -4.371 c 0.691 -3.082 0.594 -5.141 0.563 -5.582 c -0.004 -0.059 -0.008 -0.094 -0.008 -0.094 c 0 0 -0.004 0.012 -0.004 0.012 c -0.043 -0.301 -0.215 -1.406 -0.563 -1.754 c -0.406 -0.398 -0.762 -0.406 -1.168 0.285 c -0.402 0.691 -0.586 2.621 -0.254 4.477 c 0.105 0.602 0.328 1.465 0.629 2.41 c -0.246 0.883 -0.52 1.809 -0.813 2.727 c -0.918 2.859 -2.582 5.805 -3.992 8.08 c -0.258 0.082 -1.879 0.664 -3.863 2.398 c -2.164 1.895 -1.504 2.844 -0.992 3.133 c 0.516 0.293 1.945 1.422 6.828 -6.988 c 1.707 -2.945 2.727 -5.629 3.336 -7.887 c 0.602 1.586 1.375 3.199 2.242 4.207 c 0.605 0.703 1.43 1.371 2.348 1.965 c -0.77 0.125 -1.617 0.297 -2.969 0.547 c -3.34 0.621 -4.992 1.969 -4.992 1.969 c 0 0 4.484 -1.445 8.91 -1.945 c 1.422 0.785 2.961 1.387 4.266 1.652 c 2.496 0.512 3.258 -0.684 3.258 -0.684 c 0.094 -0.109 0.438 -0.547 0.145 -0.996 m 0 0" fill="#000"/></g></g></g></g></g></g><g><g clip-path="url(#clipPath-343761059)"><!-- color: #c34545 --><g><path d="m 36.883 27.625 c -0.285 -0.535 -0.727 -0.977 -4.359 -0.867 c -1.234 0.035 -2.078 0.078 -2.785 0.141 c -1.289 -0.738 -2.559 -1.68 -3.527 -2.836 c -1.109 -1.328 -1.793 -2.863 -2.234 -4.371 c 0.691 -3.082 0.594 -5.141 0.563 -5.582 c -0.004 -0.059 -0.008 -0.094 -0.008 -0.094 c 0 0 -0.004 0.012 -0.004 0.012 c -0.043 -0.301 -0.215 -1.406 -0.563 -1.754 c -0.406 -0.398 -0.762 -0.406 -1.168 0.285 c -0.402 0.691 -0.586 2.621 -0.254 4.477 c 0.105 0.602 0.328 1.465 0.629 2.41 c -0.246 0.883 -0.52 1.809 -0.813 2.727 c -0.918 2.859 -2.582 5.805 -3.992 8.08 c -0.258 0.082 -1.879 0.664 -3.863 2.398 c -2.164 1.895 -1.504 2.844 -0.992 3.133 c 0.516 0.293 1.945 1.422 6.828 -6.988 c 1.707 -2.945 2.727 -5.629 3.336 -7.887 c 0.602 1.586 1.375 3.199 2.242 4.207 c 0.605 0.703 1.43 1.371 2.348 1.965 c -0.77 0.125 -1.617 0.297 -2.969 0.547 c -3.34 0.621 -4.992 1.969 -4.992 1.969 c 0 0 4.484 -1.445 8.91 -1.945 c 1.422 0.785 2.961 1.387 4.266 1.652 c 2.496 0.512 3.258 -0.684 3.258 -0.684 c 0.094 -0.109 0.438 -0.547 0.145 -0.996 m 0 0" fill="#fff"/></g></g></g><g><path d="m 24 1 c -1.045 0 -2.01 0.284 -2.844 0.781 l -15.344 8.719 c -0.017 0.013 -0.045 0.023 -0.063 0.031 c -1.852 1.051 -2.851 3 -2.75 4.969 l 0 1 c -0.101 -1.966 0.898 -3.918 2.75 -4.969 c 0.017 -0.008 0.045 -0.018 0.063 -0.031 l 15.344 -8.719 c 0.832 -0.497 1.799 -0.781 2.844 -0.781 c 1.045 0 2.01 0.284 2.844 0.781 l 15.25 8.656 c 0.873 0.46 1.625 1.156 2.156 2.063 c 0.554 0.942 0.806 1.988 0.75 3 l 0 -1 c 0.056 -1.012 -0.196 -2.058 -0.75 -3 c -0.532 -0.906 -1.283 -1.603 -2.156 -2.063 l -15.25 -8.656 c -0.832 -0.497 -1.799 -0.781 -2.844 -0.781 z" opacity="0.2" fill="#fff"/></g></svg>