<svg viewBox="0 0 48 48"><defs><linearGradient id="linearGradient3764" y1="1" x2="0" y2="47" gradientUnits="userSpaceOnUse"><stop stop-color="#714b4b" stop-opacity="1"/><stop offset="1" stop-color="#654343" stop-opacity="1"/></linearGradient><clipPath id="clipPath-156957884"><g transform="translate(0,-1004.3622)"><path d="m 24 1005.37 c -1.045 0 -2.023 0.287 -2.856 0.784 l -15.339 8.708 c -0.017 0.013 -0.035 0.013 -0.052 0.021 -1.852 1.051 -2.847 3 -2.746 4.968 l 0 17.02 c -0.056 1.013 0.175 2.049 0.729 2.993 0.532 0.903 1.288 1.602 2.161 2.061 l 15.246 8.653 c 0.832 0.497 1.811 0.784 2.856 0.784 1.045 0 2.023 -0.287 2.856 -0.784 l 15.246 -8.653 c 0.873 -0.46 1.629 -1.158 2.161 -2.061 0.554 -0.944 0.785 -1.981 0.729 -2.993 l 0 -17.01 c 0.056 -1.012 -0.175 -2.052 -0.729 -2.993 -0.532 -0.906 -1.288 -1.604 -2.161 -2.064 l -15.246 -8.653 c -0.832 -0.497 -1.811 -0.784 -2.856 -0.784 z" fill="#1890d0"/></g></clipPath><clipPath id="clipPath-165347332"><g transform="translate(0,-1004.3622)"><path d="m 24 1005.37 c -1.045 0 -2.023 0.287 -2.856 0.784 l -15.339 8.708 c -0.017 0.013 -0.035 0.013 -0.052 0.021 -1.852 1.051 -2.847 3 -2.746 4.968 l 0 17.02 c -0.056 1.013 0.175 2.049 0.729 2.993 0.532 0.903 1.288 1.602 2.161 2.061 l 15.246 8.653 c 0.832 0.497 1.811 0.784 2.856 0.784 1.045 0 2.023 -0.287 2.856 -0.784 l 15.246 -8.653 c 0.873 -0.46 1.629 -1.158 2.161 -2.061 0.554 -0.944 0.785 -1.981 0.729 -2.993 l 0 -17.01 c 0.056 -1.012 -0.175 -2.052 -0.729 -2.993 -0.532 -0.906 -1.288 -1.604 -2.161 -2.064 l -15.246 -8.653 c -0.832 -0.497 -1.811 -0.784 -2.856 -0.784 z" fill="#1890d0"/></g></clipPath><filter id="filter-139523569"><feGaussianBlur stdDeviation="0.35"/></filter></defs><g><g transform="translate(0,-1004.3622)"><path d="m 45 1037.36 c 0.056 1.013 -0.196 2.056 -0.75 3 -0.532 0.903 -1.283 1.603 -2.156 2.063 l -15.25 8.656 c -0.832 0.497 -1.799 0.781 -2.844 0.781 -1.045 0 -2.01 -0.284 -2.844 -0.781 l -15.25 -8.656 c -0.873 -0.46 -1.625 -1.159 -2.156 -2.063 -0.416 -0.708 -0.677 -1.485 -0.75 -2.25 -0.004 0.932 0.242 1.884 0.75 2.75 0.532 0.903 1.283 1.603 2.156 2.063 l 15.25 8.656 c 0.832 0.497 1.799 0.781 2.844 0.781 1.045 0 2.01 -0.284 2.844 -0.781 l 15.25 -8.656 c 0.873 -0.46 1.625 -1.159 2.156 -2.063 0.554 -0.944 0.806 -1.987 0.75 -3 l 0 -0.5 z" opacity="0.05"/><path d="m 45 1036.86 c 0.015 0.263 -0.004 0.516 -0.031 0.781 -0.036 0.844 -0.259 1.685 -0.719 2.469 -0.532 0.903 -1.283 1.603 -2.156 2.063 l -15.25 8.656 c -0.832 0.497 -1.799 0.781 -2.844 0.781 -1.045 0 -2.01 -0.284 -2.844 -0.781 l -15.25 -8.656 c -0.873 -0.46 -1.625 -1.159 -2.156 -2.063 -0.414 -0.705 -0.621 -1.46 -0.688 -2.219 -0.014 -0.092 -0.054 -0.189 -0.063 -0.281 -0.004 0.932 0.242 1.884 0.75 2.75 0.532 0.903 1.283 1.603 2.156 2.063 l 15.25 8.656 c 0.832 0.497 1.799 0.781 2.844 0.781 1.045 0 2.01 -0.284 2.844 -0.781 l 15.25 -8.656 c 0.873 -0.46 1.625 -1.159 2.156 -2.063 0.554 -0.944 0.806 -1.987 0.75 -3 l 0 -0.5 z m -41.813 1.625 c 0.057 0.219 0.132 0.442 0.219 0.656 -0.088 -0.216 -0.16 -0.436 -0.219 -0.656 z m 0.219 0.656 c 0.099 0.243 0.206 0.484 0.344 0.719 -0.139 -0.236 -0.243 -0.472 -0.344 -0.719 z m 41.41 -0.656 c -0.059 0.221 -0.131 0.441 -0.219 0.656 0.087 -0.215 0.161 -0.437 0.219 -0.656 z m -0.219 0.656 c -0.101 0.246 -0.205 0.483 -0.344 0.719 0.138 -0.235 0.245 -0.476 0.344 -0.719 z" opacity="0.1"/><path d="m 3.03 1037.64 c 0.035 0.844 0.259 1.685 0.719 2.469 0.532 0.903 1.283 1.603 2.156 2.063 l 15.25 8.656 c 0.832 0.497 1.799 0.781 2.844 0.781 1.045 0 2.01 -0.284 2.844 -0.781 l 15.25 -8.656 c 0.873 -0.46 1.625 -1.159 2.156 -2.063 0.46 -0.784 0.683 -1.624 0.719 -2.469 -0.067 0.763 -0.303 1.511 -0.719 2.219 -0.532 0.903 -1.283 1.603 -2.156 2.063 l -15.25 8.656 c -0.832 0.497 -1.799 0.781 -2.844 0.781 -1.045 0 -2.01 -0.284 -2.844 -0.781 l -15.25 -8.656 c -0.873 -0.46 -1.625 -1.159 -2.156 -2.063 -0.416 -0.708 -0.651 -1.456 -0.719 -2.219 z" opacity="0.2"/></g></g><g><path d="m 24 46.996 c 1.045 0 2.023 -0.287 2.856 -0.784 l 15.339 -8.708 c 0.017 -0.013 0.035 -0.013 0.052 -0.021 1.852 -1.051 2.847 -3 2.746 -4.968 l 0 -17.02 c 0.056 -1.013 -0.175 -2.049 -0.729 -2.993 -0.532 -0.903 -1.288 -1.602 -2.161 -2.061 l -15.246 -8.653 c -0.832 -0.497 -1.811 -0.784 -2.856 -0.784 -1.045 0 -2.023 0.287 -2.856 0.784 l -15.246 8.653 c -0.873 0.46 -1.629 1.158 -2.161 2.061 -0.554 0.944 -0.785 1.981 -0.729 2.993 l 0 17.01 c -0.056 1.012 0.175 2.051 0.729 2.993 0.532 0.906 1.288 1.604 2.161 2.064 l 15.246 8.653 c 0.832 0.497 1.811 0.785 2.856 0.785 z" fill="url(#linearGradient3764)" fill-opacity="1"/></g><g><g clip-path="url(#clipPath-156957884)"><g opacity="0.25"><g transform="translate(0,1)"><g filter="url(#filter-139523569)"><!-- color: #714b4b --><g><path d="m 12.805 15 c -0.438 0.047 -0.809 0.457 -0.805 0.898 l 0 16.203 c 0 0.469 0.43 0.898 0.898 0.898 l 22.2 0 c 0.469 0 0.898 -0.43 0.898 -0.898 l 0 -16.203 c 0 -0.469 -0.43 -0.898 -0.898 -0.898 m -22.297 0" fill="#000"/><path d="m 15 13 l 4 0 c 0.551 0 1 0.449 1 1 l 0 2 c 0 0.555 -0.449 1 -1 1 l -4 0 c -0.555 0 -1 -0.445 -1 -1 l 0 -2 c 0 -0.551 0.445 -1 1 -1 m 0 0" fill="#000"/><path d="m 32.664 17 l 0.664 0 c 0.367 0 0.668 0.301 0.668 0.668 l 0 0.664 c 0 0.367 -0.301 0.668 -0.668 0.668 l -0.664 0 c -0.371 0 -0.668 -0.301 -0.668 -0.668 l 0 -0.664 c 0 -0.367 0.297 -0.668 0.668 -0.668 m 0 0" fill="#000"/><path d="m 28 24 c 0 3.313 -2.688 6 -6 6 c -3.316 0 -6 -2.688 -6 -6 c 0 -3.313 2.684 -6 6 -6 c 3.313 0 6 2.688 6 6 m 0 0" fill="#000"/><path d="m 25 24 c 0 1.656 -1.344 3 -3 3 c -1.656 0 -3 -1.344 -3 -3 c 0 -1.656 1.344 -3 3 -3 c 1.656 0 3 1.344 3 3 m 0 0" fill="#000"/></g></g></g></g></g></g><g><g clip-path="url(#clipPath-165347332)"><!-- color: #714b4b --><g><path d="m 12.805 15 c -0.438 0.047 -0.809 0.457 -0.805 0.898 l 0 16.203 c 0 0.469 0.43 0.898 0.898 0.898 l 22.2 0 c 0.469 0 0.898 -0.43 0.898 -0.898 l 0 -16.203 c 0 -0.469 -0.43 -0.898 -0.898 -0.898 m -22.297 0" fill="#ccc"/><path d="m 15 13 l 4 0 c 0.551 0 1 0.449 1 1 l 0 2 c 0 0.555 -0.449 1 -1 1 l -4 0 c -0.555 0 -1 -0.445 -1 -1 l 0 -2 c 0 -0.551 0.445 -1 1 -1 m 0 0" fill="#ccc"/><path d="m 32.664 17 l 0.664 0 c 0.367 0 0.668 0.301 0.668 0.668 l 0 0.664 c 0 0.367 -0.301 0.668 -0.668 0.668 l -0.664 0 c -0.371 0 -0.668 -0.301 -0.668 -0.668 l 0 -0.664 c 0 -0.367 0.297 -0.668 0.668 -0.668 m 0 0" fill="#e32626"/><path d="m 28 24 c 0 3.313 -2.688 6 -6 6 c -3.316 0 -6 -2.688 -6 -6 c 0 -3.313 2.684 -6 6 -6 c 3.313 0 6 2.688 6 6 m 0 0" fill="#f9f9f9"/><path d="m 25 24 c 0 1.656 -1.344 3 -3 3 c -1.656 0 -3 -1.344 -3 -3 c 0 -1.656 1.344 -3 3 -3 c 1.656 0 3 1.344 3 3 m 0 0" fill="#868686"/></g></g></g><g><path d="m 24 1 c -1.045 0 -2.01 0.284 -2.844 0.781 l -15.344 8.719 c -0.017 0.013 -0.045 0.023 -0.063 0.031 c -1.852 1.051 -2.851 3 -2.75 4.969 l 0 1 c -0.101 -1.966 0.898 -3.918 2.75 -4.969 c 0.017 -0.008 0.045 -0.018 0.063 -0.031 l 15.344 -8.719 c 0.832 -0.497 1.799 -0.781 2.844 -0.781 c 1.045 0 2.01 0.284 2.844 0.781 l 15.25 8.656 c 0.873 0.46 1.625 1.156 2.156 2.063 c 0.554 0.942 0.806 1.988 0.75 3 l 0 -1 c 0.056 -1.012 -0.196 -2.058 -0.75 -3 c -0.532 -0.906 -1.283 -1.603 -2.156 -2.063 l -15.25 -8.656 c -0.832 -0.497 -1.799 -0.781 -2.844 -0.781 z" opacity="0.2" fill="#fff"/></g></svg>