<svg viewBox="0 0 48 48"><defs><linearGradient id="linearGradient3764" y1="1" x2="0" y2="47" gradientUnits="userSpaceOnUse"><stop stop-color="#d93f3f" stop-opacity="1"/><stop offset="1" stop-color="#d62e2e" stop-opacity="1"/></linearGradient><clipPath id="clipPath-250633170"><g transform="translate(0,-1004.3622)"><path d="m 24 1005.37 c -1.045 0 -2.023 0.287 -2.856 0.784 l -15.339 8.708 c -0.017 0.013 -0.035 0.013 -0.052 0.021 -1.852 1.051 -2.847 3 -2.746 4.968 l 0 17.02 c -0.056 1.013 0.175 2.049 0.729 2.993 0.532 0.903 1.288 1.602 2.161 2.061 l 15.246 8.653 c 0.832 0.497 1.811 0.784 2.856 0.784 1.045 0 2.023 -0.287 2.856 -0.784 l 15.246 -8.653 c 0.873 -0.46 1.629 -1.158 2.161 -2.061 0.554 -0.944 0.785 -1.981 0.729 -2.993 l 0 -17.01 c 0.056 -1.012 -0.175 -2.052 -0.729 -2.993 -0.532 -0.906 -1.288 -1.604 -2.161 -2.064 l -15.246 -8.653 c -0.832 -0.497 -1.811 -0.784 -2.856 -0.784 z" fill="#1890d0"/></g></clipPath><clipPath id="clipPath-259245479"><g transform="translate(0,-1004.3622)"><path d="m 24 1005.37 c -1.045 0 -2.023 0.287 -2.856 0.784 l -15.339 8.708 c -0.017 0.013 -0.035 0.013 -0.052 0.021 -1.852 1.051 -2.847 3 -2.746 4.968 l 0 17.02 c -0.056 1.013 0.175 2.049 0.729 2.993 0.532 0.903 1.288 1.602 2.161 2.061 l 15.246 8.653 c 0.832 0.497 1.811 0.784 2.856 0.784 1.045 0 2.023 -0.287 2.856 -0.784 l 15.246 -8.653 c 0.873 -0.46 1.629 -1.158 2.161 -2.061 0.554 -0.944 0.785 -1.981 0.729 -2.993 l 0 -17.01 c 0.056 -1.012 -0.175 -2.052 -0.729 -2.993 -0.532 -0.906 -1.288 -1.604 -2.161 -2.064 l -15.246 -8.653 c -0.832 -0.497 -1.811 -0.784 -2.856 -0.784 z" fill="#1890d0"/></g></clipPath><filter id="filter-232575507"><feGaussianBlur stdDeviation="0.35"/></filter></defs><g><g transform="translate(0,-1004.3622)"><path d="m 45 1037.36 c 0.056 1.013 -0.196 2.056 -0.75 3 -0.532 0.903 -1.283 1.603 -2.156 2.063 l -15.25 8.656 c -0.832 0.497 -1.799 0.781 -2.844 0.781 -1.045 0 -2.01 -0.284 -2.844 -0.781 l -15.25 -8.656 c -0.873 -0.46 -1.625 -1.159 -2.156 -2.063 -0.416 -0.708 -0.677 -1.485 -0.75 -2.25 -0.004 0.932 0.242 1.884 0.75 2.75 0.532 0.903 1.283 1.603 2.156 2.063 l 15.25 8.656 c 0.832 0.497 1.799 0.781 2.844 0.781 1.045 0 2.01 -0.284 2.844 -0.781 l 15.25 -8.656 c 0.873 -0.46 1.625 -1.159 2.156 -2.063 0.554 -0.944 0.806 -1.987 0.75 -3 l 0 -0.5 z" opacity="0.05"/><path d="m 45 1036.86 c 0.015 0.263 -0.004 0.516 -0.031 0.781 -0.036 0.844 -0.259 1.685 -0.719 2.469 -0.532 0.903 -1.283 1.603 -2.156 2.063 l -15.25 8.656 c -0.832 0.497 -1.799 0.781 -2.844 0.781 -1.045 0 -2.01 -0.284 -2.844 -0.781 l -15.25 -8.656 c -0.873 -0.46 -1.625 -1.159 -2.156 -2.063 -0.414 -0.705 -0.621 -1.46 -0.688 -2.219 -0.014 -0.092 -0.054 -0.189 -0.063 -0.281 -0.004 0.932 0.242 1.884 0.75 2.75 0.532 0.903 1.283 1.603 2.156 2.063 l 15.25 8.656 c 0.832 0.497 1.799 0.781 2.844 0.781 1.045 0 2.01 -0.284 2.844 -0.781 l 15.25 -8.656 c 0.873 -0.46 1.625 -1.159 2.156 -2.063 0.554 -0.944 0.806 -1.987 0.75 -3 l 0 -0.5 z m -41.813 1.625 c 0.057 0.219 0.132 0.442 0.219 0.656 -0.088 -0.216 -0.16 -0.436 -0.219 -0.656 z m 0.219 0.656 c 0.099 0.243 0.206 0.484 0.344 0.719 -0.139 -0.236 -0.243 -0.472 -0.344 -0.719 z m 41.41 -0.656 c -0.059 0.221 -0.131 0.441 -0.219 0.656 0.087 -0.215 0.161 -0.437 0.219 -0.656 z m -0.219 0.656 c -0.101 0.246 -0.205 0.483 -0.344 0.719 0.138 -0.235 0.245 -0.476 0.344 -0.719 z" opacity="0.1"/><path d="m 3.03 1037.64 c 0.035 0.844 0.259 1.685 0.719 2.469 0.532 0.903 1.283 1.603 2.156 2.063 l 15.25 8.656 c 0.832 0.497 1.799 0.781 2.844 0.781 1.045 0 2.01 -0.284 2.844 -0.781 l 15.25 -8.656 c 0.873 -0.46 1.625 -1.159 2.156 -2.063 0.46 -0.784 0.683 -1.624 0.719 -2.469 -0.067 0.763 -0.303 1.511 -0.719 2.219 -0.532 0.903 -1.283 1.603 -2.156 2.063 l -15.25 8.656 c -0.832 0.497 -1.799 0.781 -2.844 0.781 -1.045 0 -2.01 -0.284 -2.844 -0.781 l -15.25 -8.656 c -0.873 -0.46 -1.625 -1.159 -2.156 -2.063 -0.416 -0.708 -0.651 -1.456 -0.719 -2.219 z" opacity="0.2"/></g></g><g><path d="m 24 46.996 c 1.045 0 2.023 -0.287 2.856 -0.784 l 15.339 -8.708 c 0.017 -0.013 0.035 -0.013 0.052 -0.021 1.852 -1.051 2.847 -3 2.746 -4.968 l 0 -17.02 c 0.056 -1.013 -0.175 -2.049 -0.729 -2.993 -0.532 -0.903 -1.288 -1.602 -2.161 -2.061 l -15.246 -8.653 c -0.832 -0.497 -1.811 -0.784 -2.856 -0.784 -1.045 0 -2.023 0.287 -2.856 0.784 l -15.246 8.653 c -0.873 0.46 -1.629 1.158 -2.161 2.061 -0.554 0.944 -0.785 1.981 -0.729 2.993 l 0 17.01 c -0.056 1.012 0.175 2.051 0.729 2.993 0.532 0.906 1.288 1.604 2.161 2.064 l 15.246 8.653 c 0.832 0.497 1.811 0.785 2.856 0.785 z" fill="url(#linearGradient3764)" fill-opacity="1"/></g><g><g clip-path="url(#clipPath-250633170)"><g opacity="0.25"><g transform="translate(0,1)"><g filter="url(#filter-232575507)"><!-- color: #d93f3f --><g><path d="m 24 24 m 0 0" stroke="#000" stroke-width="0.999" fill="#000"/><path d="m 12 28.363 c 0 0 0 5.453 6 5.453 l 12 0 c 6 0 6 -5.453 6 -5.453 l 0 -10.91 c 0 -5.453 -6 -5.453 -6 -5.453 l -12 0 c -6 0 -6 5.453 -6 5.453 m 0 10.91" fill="#000"/><path d="m 30 36 c 6 0 6 -7.637 6 -7.637 c 0 0 0 5.453 -6 5.453 l -12 0 c -6 0 -6 -5.453 -6 -5.453 c 0 0 0 7.637 6 7.637 m 12 0" fill="#000"/><path d="m 23.898 27.867 l -1.285 -3.125 l -4.133 0 l -1.27 3.125 l -1.211 0 l 4.074 -9.867 l 1.012 0 l 4.055 9.867 l -1.242 0 m -1.656 -4.156 l -1.199 -3.043 c -0.156 -0.387 -0.316 -0.859 -0.48 -1.418 c -0.105 0.43 -0.25 0.902 -0.445 1.418 l -1.211 3.043 l 3.336 0" fill="#000"/><path d="m 31.13 27.867 l -0.234 -1.051 l -0.055 0 c -0.387 0.461 -0.77 0.777 -1.156 0.941 c -0.383 0.16 -0.859 0.242 -1.434 0.242 c -0.766 0 -1.367 -0.188 -1.805 -0.566 c -0.43 -0.375 -0.648 -0.91 -0.648 -1.605 c 0 -1.484 1.25 -2.266 3.746 -2.336 l 1.313 -0.043 l 0 -0.457 c 0 -0.578 -0.133 -1 -0.398 -1.277 c -0.258 -0.277 -0.672 -0.414 -1.246 -0.414 c -0.645 0 -1.371 0.188 -2.188 0.563 l -0.359 -0.852 c 0.383 -0.199 0.797 -0.352 1.25 -0.465 c 0.457 -0.113 0.91 -0.168 1.367 -0.168 c 0.922 0 1.602 0.195 2.047 0.586 c 0.445 0.387 0.668 1.012 0.668 1.875 l 0 5.03 l -0.867 0 m -2.645 -0.789 c 0.73 0 1.301 -0.188 1.715 -0.57 c 0.418 -0.379 0.625 -0.914 0.625 -1.598 l 0 -0.668 l -1.168 0.047 c -0.934 0.031 -1.605 0.172 -2.02 0.418 c -0.406 0.242 -0.613 0.621 -0.613 1.137 c 0 0.402 0.129 0.711 0.383 0.918 c 0.258 0.211 0.617 0.316 1.078 0.316" fill="#000"/></g></g></g></g></g></g><g><g clip-path="url(#clipPath-259245479)"><!-- color: #d93f3f --><g><path d="m 24 24 m 0 0" fill="none" stroke="#000" stroke-width="0.999"/><path d="m 12 28.363 c 0 0 0 5.453 6 5.453 l 12 0 c 6 0 6 -5.453 6 -5.453 l 0 -10.91 c 0 -5.453 -6 -5.453 -6 -5.453 l -12 0 c -6 0 -6 5.453 -6 5.453 m 0 10.91" fill="#f9f9f9"/><path d="m 30 36 c 6 0 6 -7.637 6 -7.637 c 0 0 0 5.453 -6 5.453 l -12 0 c -6 0 -6 -5.453 -6 -5.453 c 0 0 0 7.637 6 7.637 m 12 0" fill="#dcdcdc"/><path d="m 23.898 27.867 l -1.285 -3.125 l -4.133 0 l -1.27 3.125 l -1.211 0 l 4.074 -9.867 l 1.012 0 l 4.055 9.867 l -1.242 0 m -1.656 -4.156 l -1.199 -3.043 c -0.156 -0.387 -0.316 -0.859 -0.48 -1.418 c -0.105 0.43 -0.25 0.902 -0.445 1.418 l -1.211 3.043 l 3.336 0" fill="#868686"/><path d="m 31.13 27.867 l -0.234 -1.051 l -0.055 0 c -0.387 0.461 -0.77 0.777 -1.156 0.941 c -0.383 0.16 -0.859 0.242 -1.434 0.242 c -0.766 0 -1.367 -0.188 -1.805 -0.566 c -0.43 -0.375 -0.648 -0.91 -0.648 -1.605 c 0 -1.484 1.25 -2.266 3.746 -2.336 l 1.313 -0.043 l 0 -0.457 c 0 -0.578 -0.133 -1 -0.398 -1.277 c -0.258 -0.277 -0.672 -0.414 -1.246 -0.414 c -0.645 0 -1.371 0.188 -2.188 0.563 l -0.359 -0.852 c 0.383 -0.199 0.797 -0.352 1.25 -0.465 c 0.457 -0.113 0.91 -0.168 1.367 -0.168 c 0.922 0 1.602 0.195 2.047 0.586 c 0.445 0.387 0.668 1.012 0.668 1.875 l 0 5.03 l -0.867 0 m -2.645 -0.789 c 0.73 0 1.301 -0.188 1.715 -0.57 c 0.418 -0.379 0.625 -0.914 0.625 -1.598 l 0 -0.668 l -1.168 0.047 c -0.934 0.031 -1.605 0.172 -2.02 0.418 c -0.406 0.242 -0.613 0.621 -0.613 1.137 c 0 0.402 0.129 0.711 0.383 0.918 c 0.258 0.211 0.617 0.316 1.078 0.316" fill="#868686"/></g></g></g><g><path d="m 24 1 c -1.045 0 -2.01 0.284 -2.844 0.781 l -15.344 8.719 c -0.017 0.013 -0.045 0.023 -0.063 0.031 c -1.852 1.051 -2.851 3 -2.75 4.969 l 0 1 c -0.101 -1.966 0.898 -3.918 2.75 -4.969 c 0.017 -0.008 0.045 -0.018 0.063 -0.031 l 15.344 -8.719 c 0.832 -0.497 1.799 -0.781 2.844 -0.781 c 1.045 0 2.01 0.284 2.844 0.781 l 15.25 8.656 c 0.873 0.46 1.625 1.156 2.156 2.063 c 0.554 0.942 0.806 1.988 0.75 3 l 0 -1 c 0.056 -1.012 -0.196 -2.058 -0.75 -3 c -0.532 -0.906 -1.283 -1.603 -2.156 -2.063 l -15.25 -8.656 c -0.832 -0.497 -1.799 -0.781 -2.844 -0.781 z" opacity="0.2" fill="#fff"/></g></svg>