<svg viewBox="0 0 48 48"><defs><linearGradient id="linearGradient3764" y1="1" x2="0" y2="47" gradientUnits="userSpaceOnUse"><stop stop-color="#6f8dad" stop-opacity="1"/><stop offset="1" stop-color="#6284a6" stop-opacity="1"/></linearGradient><clipPath id="clipPath-229876711"><g transform="translate(0,-1004.3622)"><path d="m 24 1005.37 c -1.045 0 -2.023 0.287 -2.856 0.784 l -15.339 8.708 c -0.017 0.013 -0.035 0.013 -0.052 0.021 -1.852 1.051 -2.847 3 -2.746 4.968 l 0 17.02 c -0.056 1.013 0.175 2.049 0.729 2.993 0.532 0.903 1.288 1.602 2.161 2.061 l 15.246 8.653 c 0.832 0.497 1.811 0.784 2.856 0.784 1.045 0 2.023 -0.287 2.856 -0.784 l 15.246 -8.653 c 0.873 -0.46 1.629 -1.158 2.161 -2.061 0.554 -0.944 0.785 -1.981 0.729 -2.993 l 0 -17.01 c 0.056 -1.012 -0.175 -2.052 -0.729 -2.993 -0.532 -0.906 -1.288 -1.604 -2.161 -2.064 l -15.246 -8.653 c -0.832 -0.497 -1.811 -0.784 -2.856 -0.784 z" fill="#1890d0"/></g></clipPath><clipPath id="clipPath-239338372"><g transform="translate(0,-1004.3622)"><path d="m 24 1005.37 c -1.045 0 -2.023 0.287 -2.856 0.784 l -15.339 8.708 c -0.017 0.013 -0.035 0.013 -0.052 0.021 -1.852 1.051 -2.847 3 -2.746 4.968 l 0 17.02 c -0.056 1.013 0.175 2.049 0.729 2.993 0.532 0.903 1.288 1.602 2.161 2.061 l 15.246 8.653 c 0.832 0.497 1.811 0.784 2.856 0.784 1.045 0 2.023 -0.287 2.856 -0.784 l 15.246 -8.653 c 0.873 -0.46 1.629 -1.158 2.161 -2.061 0.554 -0.944 0.785 -1.981 0.729 -2.993 l 0 -17.01 c 0.056 -1.012 -0.175 -2.052 -0.729 -2.993 -0.532 -0.906 -1.288 -1.604 -2.161 -2.064 l -15.246 -8.653 c -0.832 -0.497 -1.811 -0.784 -2.856 -0.784 z" fill="#1890d0"/></g></clipPath><filter id="filter-210292633"><feGaussianBlur stdDeviation="0.35"/></filter></defs><g><g transform="translate(0,-1004.3622)"><path d="m 45 1037.36 c 0.056 1.013 -0.196 2.056 -0.75 3 -0.532 0.903 -1.283 1.603 -2.156 2.063 l -15.25 8.656 c -0.832 0.497 -1.799 0.781 -2.844 0.781 -1.045 0 -2.01 -0.284 -2.844 -0.781 l -15.25 -8.656 c -0.873 -0.46 -1.625 -1.159 -2.156 -2.063 -0.416 -0.708 -0.677 -1.485 -0.75 -2.25 -0.004 0.932 0.242 1.884 0.75 2.75 0.532 0.903 1.283 1.603 2.156 2.063 l 15.25 8.656 c 0.832 0.497 1.799 0.781 2.844 0.781 1.045 0 2.01 -0.284 2.844 -0.781 l 15.25 -8.656 c 0.873 -0.46 1.625 -1.159 2.156 -2.063 0.554 -0.944 0.806 -1.987 0.75 -3 l 0 -0.5 z" opacity="0.05"/><path d="m 45 1036.86 c 0.015 0.263 -0.004 0.516 -0.031 0.781 -0.036 0.844 -0.259 1.685 -0.719 2.469 -0.532 0.903 -1.283 1.603 -2.156 2.063 l -15.25 8.656 c -0.832 0.497 -1.799 0.781 -2.844 0.781 -1.045 0 -2.01 -0.284 -2.844 -0.781 l -15.25 -8.656 c -0.873 -0.46 -1.625 -1.159 -2.156 -2.063 -0.414 -0.705 -0.621 -1.46 -0.688 -2.219 -0.014 -0.092 -0.054 -0.189 -0.063 -0.281 -0.004 0.932 0.242 1.884 0.75 2.75 0.532 0.903 1.283 1.603 2.156 2.063 l 15.25 8.656 c 0.832 0.497 1.799 0.781 2.844 0.781 1.045 0 2.01 -0.284 2.844 -0.781 l 15.25 -8.656 c 0.873 -0.46 1.625 -1.159 2.156 -2.063 0.554 -0.944 0.806 -1.987 0.75 -3 l 0 -0.5 z m -41.813 1.625 c 0.057 0.219 0.132 0.442 0.219 0.656 -0.088 -0.216 -0.16 -0.436 -0.219 -0.656 z m 0.219 0.656 c 0.099 0.243 0.206 0.484 0.344 0.719 -0.139 -0.236 -0.243 -0.472 -0.344 -0.719 z m 41.41 -0.656 c -0.059 0.221 -0.131 0.441 -0.219 0.656 0.087 -0.215 0.161 -0.437 0.219 -0.656 z m -0.219 0.656 c -0.101 0.246 -0.205 0.483 -0.344 0.719 0.138 -0.235 0.245 -0.476 0.344 -0.719 z" opacity="0.1"/><path d="m 3.03 1037.64 c 0.035 0.844 0.259 1.685 0.719 2.469 0.532 0.903 1.283 1.603 2.156 2.063 l 15.25 8.656 c 0.832 0.497 1.799 0.781 2.844 0.781 1.045 0 2.01 -0.284 2.844 -0.781 l 15.25 -8.656 c 0.873 -0.46 1.625 -1.159 2.156 -2.063 0.46 -0.784 0.683 -1.624 0.719 -2.469 -0.067 0.763 -0.303 1.511 -0.719 2.219 -0.532 0.903 -1.283 1.603 -2.156 2.063 l -15.25 8.656 c -0.832 0.497 -1.799 0.781 -2.844 0.781 -1.045 0 -2.01 -0.284 -2.844 -0.781 l -15.25 -8.656 c -0.873 -0.46 -1.625 -1.159 -2.156 -2.063 -0.416 -0.708 -0.651 -1.456 -0.719 -2.219 z" opacity="0.2"/></g></g><g><path d="m 24 46.996 c 1.045 0 2.023 -0.287 2.856 -0.784 l 15.339 -8.708 c 0.017 -0.013 0.035 -0.013 0.052 -0.021 1.852 -1.051 2.847 -3 2.746 -4.968 l 0 -17.02 c 0.056 -1.013 -0.175 -2.049 -0.729 -2.993 -0.532 -0.903 -1.288 -1.602 -2.161 -2.061 l -15.246 -8.653 c -0.832 -0.497 -1.811 -0.784 -2.856 -0.784 -1.045 0 -2.023 0.287 -2.856 0.784 l -15.246 8.653 c -0.873 0.46 -1.629 1.158 -2.161 2.061 -0.554 0.944 -0.785 1.981 -0.729 2.993 l 0 17.01 c -0.056 1.012 0.175 2.051 0.729 2.993 0.532 0.906 1.288 1.604 2.161 2.064 l 15.246 8.653 c 0.832 0.497 1.811 0.785 2.856 0.785 z" fill="url(#linearGradient3764)" fill-opacity="1"/></g><g><g clip-path="url(#clipPath-229876711)"><g opacity="0.25"><g transform="translate(0,1)"><g filter="url(#filter-210292633)"><!-- color: #6f8dad --><g><path d="m 22.676 33.926 l 1.793 0 c 0 0 0.543 -0.063 0.82 -0.379 c 0.254 -0.285 0.246 -0.828 0.246 -0.828 c 0 0 -0.035 -2.527 1.082 -2.902 c 1.102 -0.367 2.512 2.445 4.01 3.527 c 1.133 0.82 1.992 0.641 1.992 0.641 l 4.01 -0.059 c 0 0 2.094 -0.137 1.102 -1.871 c -0.082 -0.141 -0.578 -1.281 -2.98 -3.625 c -2.512 -2.449 -2.176 -2.055 0.852 -6.297 c 1.844 -2.582 2.578 -4.16 2.348 -4.836 c -0.219 -0.641 -1.574 -0.473 -1.574 -0.473 l -4.508 0.031 c 0 0 -0.336 -0.051 -0.582 0.105 c -0.246 0.152 -0.398 0.512 -0.398 0.512 c 0 0 -0.715 1.996 -1.668 3.699 c -2.01 3.586 -2.813 3.773 -3.141 3.551 c -0.762 -0.52 -0.57 -2.086 -0.57 -3.195 c 0 -3.477 0.5 -4.926 -0.977 -5.301 c -0.492 -0.125 -0.852 -0.207 -2.105 -0.223 c -1.609 -0.016 -2.973 0.008 -3.742 0.402 c -0.516 0.266 -0.91 0.855 -0.668 0.887 c 0.297 0.043 0.973 0.191 1.328 0.707 c 0.465 0.66 0.449 2.145 0.449 2.145 c 0 0 0.266 4.094 -0.621 4.602 c -0.609 0.348 -1.441 -0.363 -3.234 -3.617 c -0.918 -1.668 -1.609 -3.512 -1.609 -3.512 c 0 0 -0.133 -0.344 -0.371 -0.527 c -0.289 -0.223 -0.691 -0.293 -0.691 -0.293 l -4.289 0.027 c 0 0 -0.641 0.02 -0.879 0.313 c -0.211 0.262 -0.016 0.805 -0.016 0.805 c 0 0 3.355 8.258 7.156 12.418 c 3.484 3.816 7.438 3.566 7.438 3.566" fill-rule="evenodd" fill="#000"/></g></g></g></g></g></g><g><g clip-path="url(#clipPath-239338372)"><!-- color: #6f8dad --><g><path d="m 22.676 33.926 l 1.793 0 c 0 0 0.543 -0.063 0.82 -0.379 c 0.254 -0.285 0.246 -0.828 0.246 -0.828 c 0 0 -0.035 -2.527 1.082 -2.902 c 1.102 -0.367 2.512 2.445 4.01 3.527 c 1.133 0.82 1.992 0.641 1.992 0.641 l 4.01 -0.059 c 0 0 2.094 -0.137 1.102 -1.871 c -0.082 -0.141 -0.578 -1.281 -2.98 -3.625 c -2.512 -2.449 -2.176 -2.055 0.852 -6.297 c 1.844 -2.582 2.578 -4.16 2.348 -4.836 c -0.219 -0.641 -1.574 -0.473 -1.574 -0.473 l -4.508 0.031 c 0 0 -0.336 -0.051 -0.582 0.105 c -0.246 0.152 -0.398 0.512 -0.398 0.512 c 0 0 -0.715 1.996 -1.668 3.699 c -2.01 3.586 -2.813 3.773 -3.141 3.551 c -0.762 -0.52 -0.57 -2.086 -0.57 -3.195 c 0 -3.477 0.5 -4.926 -0.977 -5.301 c -0.492 -0.125 -0.852 -0.207 -2.105 -0.223 c -1.609 -0.016 -2.973 0.008 -3.742 0.402 c -0.516 0.266 -0.91 0.855 -0.668 0.887 c 0.297 0.043 0.973 0.191 1.328 0.707 c 0.465 0.66 0.449 2.145 0.449 2.145 c 0 0 0.266 4.094 -0.621 4.602 c -0.609 0.348 -1.441 -0.363 -3.234 -3.617 c -0.918 -1.668 -1.609 -3.512 -1.609 -3.512 c 0 0 -0.133 -0.344 -0.371 -0.527 c -0.289 -0.223 -0.691 -0.293 -0.691 -0.293 l -4.289 0.027 c 0 0 -0.641 0.02 -0.879 0.313 c -0.211 0.262 -0.016 0.805 -0.016 0.805 c 0 0 3.355 8.258 7.156 12.418 c 3.484 3.816 7.438 3.566 7.438 3.566" fill="#fff" fill-rule="evenodd"/></g></g></g><g><path d="m 24 1 c -1.045 0 -2.01 0.284 -2.844 0.781 l -15.344 8.719 c -0.017 0.013 -0.045 0.023 -0.063 0.031 c -1.852 1.051 -2.851 3 -2.75 4.969 l 0 1 c -0.101 -1.966 0.898 -3.918 2.75 -4.969 c 0.017 -0.008 0.045 -0.018 0.063 -0.031 l 15.344 -8.719 c 0.832 -0.497 1.799 -0.781 2.844 -0.781 c 1.045 0 2.01 0.284 2.844 0.781 l 15.25 8.656 c 0.873 0.46 1.625 1.156 2.156 2.063 c 0.554 0.942 0.806 1.988 0.75 3 l 0 -1 c 0.056 -1.012 -0.196 -2.058 -0.75 -3 c -0.532 -0.906 -1.283 -1.603 -2.156 -2.063 l -15.25 -8.656 c -0.832 -0.497 -1.799 -0.781 -2.844 -0.781 z" opacity="0.2" fill="#fff"/></g></svg>