<svg viewBox="0 0 48 48"><defs><linearGradient id="linearGradient3764" y1="1" x2="0" y2="47" gradientUnits="userSpaceOnUse"><stop stop-color="#ffd015" stop-opacity="1"/><stop offset="1" stop-color="#ffcc01" stop-opacity="1"/></linearGradient><clipPath id="clipPath-373122717"><g transform="translate(0,-1004.3622)"><path d="m 24 1005.37 c -1.045 0 -2.023 0.287 -2.856 0.784 l -15.339 8.708 c -0.017 0.013 -0.035 0.013 -0.052 0.021 -1.852 1.051 -2.847 3 -2.746 4.968 l 0 17.02 c -0.056 1.013 0.175 2.049 0.729 2.993 0.532 0.903 1.288 1.602 2.161 2.061 l 15.246 8.653 c 0.832 0.497 1.811 0.784 2.856 0.784 1.045 0 2.023 -0.287 2.856 -0.784 l 15.246 -8.653 c 0.873 -0.46 1.629 -1.158 2.161 -2.061 0.554 -0.944 0.785 -1.981 0.729 -2.993 l 0 -17.01 c 0.056 -1.012 -0.175 -2.052 -0.729 -2.993 -0.532 -0.906 -1.288 -1.604 -2.161 -2.064 l -15.246 -8.653 c -0.832 -0.497 -1.811 -0.784 -2.856 -0.784 z" fill="#1890d0"/></g></clipPath><clipPath id="clipPath-381681262"><g transform="translate(0,-1004.3622)"><path d="m 24 1005.37 c -1.045 0 -2.023 0.287 -2.856 0.784 l -15.339 8.708 c -0.017 0.013 -0.035 0.013 -0.052 0.021 -1.852 1.051 -2.847 3 -2.746 4.968 l 0 17.02 c -0.056 1.013 0.175 2.049 0.729 2.993 0.532 0.903 1.288 1.602 2.161 2.061 l 15.246 8.653 c 0.832 0.497 1.811 0.784 2.856 0.784 1.045 0 2.023 -0.287 2.856 -0.784 l 15.246 -8.653 c 0.873 -0.46 1.629 -1.158 2.161 -2.061 0.554 -0.944 0.785 -1.981 0.729 -2.993 l 0 -17.01 c 0.056 -1.012 -0.175 -2.052 -0.729 -2.993 -0.532 -0.906 -1.288 -1.604 -2.161 -2.064 l -15.246 -8.653 c -0.832 -0.497 -1.811 -0.784 -2.856 -0.784 z" fill="#1890d0"/></g></clipPath><filter id="filter-355557672"><feGaussianBlur stdDeviation="0.35"/></filter></defs><g><g transform="translate(0,-1004.3622)"><path d="m 45 1037.36 c 0.056 1.013 -0.196 2.056 -0.75 3 -0.532 0.903 -1.283 1.603 -2.156 2.063 l -15.25 8.656 c -0.832 0.497 -1.799 0.781 -2.844 0.781 -1.045 0 -2.01 -0.284 -2.844 -0.781 l -15.25 -8.656 c -0.873 -0.46 -1.625 -1.159 -2.156 -2.063 -0.416 -0.708 -0.677 -1.485 -0.75 -2.25 -0.004 0.932 0.242 1.884 0.75 2.75 0.532 0.903 1.283 1.603 2.156 2.063 l 15.25 8.656 c 0.832 0.497 1.799 0.781 2.844 0.781 1.045 0 2.01 -0.284 2.844 -0.781 l 15.25 -8.656 c 0.873 -0.46 1.625 -1.159 2.156 -2.063 0.554 -0.944 0.806 -1.987 0.75 -3 l 0 -0.5 z" opacity="0.05"/><path d="m 45 1036.86 c 0.015 0.263 -0.004 0.516 -0.031 0.781 -0.036 0.844 -0.259 1.685 -0.719 2.469 -0.532 0.903 -1.283 1.603 -2.156 2.063 l -15.25 8.656 c -0.832 0.497 -1.799 0.781 -2.844 0.781 -1.045 0 -2.01 -0.284 -2.844 -0.781 l -15.25 -8.656 c -0.873 -0.46 -1.625 -1.159 -2.156 -2.063 -0.414 -0.705 -0.621 -1.46 -0.688 -2.219 -0.014 -0.092 -0.054 -0.189 -0.063 -0.281 -0.004 0.932 0.242 1.884 0.75 2.75 0.532 0.903 1.283 1.603 2.156 2.063 l 15.25 8.656 c 0.832 0.497 1.799 0.781 2.844 0.781 1.045 0 2.01 -0.284 2.844 -0.781 l 15.25 -8.656 c 0.873 -0.46 1.625 -1.159 2.156 -2.063 0.554 -0.944 0.806 -1.987 0.75 -3 l 0 -0.5 z m -41.813 1.625 c 0.057 0.219 0.132 0.442 0.219 0.656 -0.088 -0.216 -0.16 -0.436 -0.219 -0.656 z m 0.219 0.656 c 0.099 0.243 0.206 0.484 0.344 0.719 -0.139 -0.236 -0.243 -0.472 -0.344 -0.719 z m 41.41 -0.656 c -0.059 0.221 -0.131 0.441 -0.219 0.656 0.087 -0.215 0.161 -0.437 0.219 -0.656 z m -0.219 0.656 c -0.101 0.246 -0.205 0.483 -0.344 0.719 0.138 -0.235 0.245 -0.476 0.344 -0.719 z" opacity="0.1"/><path d="m 3.03 1037.64 c 0.035 0.844 0.259 1.685 0.719 2.469 0.532 0.903 1.283 1.603 2.156 2.063 l 15.25 8.656 c 0.832 0.497 1.799 0.781 2.844 0.781 1.045 0 2.01 -0.284 2.844 -0.781 l 15.25 -8.656 c 0.873 -0.46 1.625 -1.159 2.156 -2.063 0.46 -0.784 0.683 -1.624 0.719 -2.469 -0.067 0.763 -0.303 1.511 -0.719 2.219 -0.532 0.903 -1.283 1.603 -2.156 2.063 l -15.25 8.656 c -0.832 0.497 -1.799 0.781 -2.844 0.781 -1.045 0 -2.01 -0.284 -2.844 -0.781 l -15.25 -8.656 c -0.873 -0.46 -1.625 -1.159 -2.156 -2.063 -0.416 -0.708 -0.651 -1.456 -0.719 -2.219 z" opacity="0.2"/></g></g><g><path d="m 24 46.996 c 1.045 0 2.023 -0.287 2.856 -0.784 l 15.339 -8.708 c 0.017 -0.013 0.035 -0.013 0.052 -0.021 1.852 -1.051 2.847 -3 2.746 -4.968 l 0 -17.02 c 0.056 -1.013 -0.175 -2.049 -0.729 -2.993 -0.532 -0.903 -1.288 -1.602 -2.161 -2.061 l -15.246 -8.653 c -0.832 -0.497 -1.811 -0.784 -2.856 -0.784 -1.045 0 -2.023 0.287 -2.856 0.784 l -15.246 8.653 c -0.873 0.46 -1.629 1.158 -2.161 2.061 -0.554 0.944 -0.785 1.981 -0.729 2.993 l 0 17.01 c -0.056 1.012 0.175 2.051 0.729 2.993 0.532 0.906 1.288 1.604 2.161 2.064 l 15.246 8.653 c 0.832 0.497 1.811 0.785 2.856 0.785 z" fill="url(#linearGradient3764)" fill-opacity="1"/></g><g><g clip-path="url(#clipPath-373122717)"><g opacity="0.25"><g transform="translate(0,1)"><g filter="url(#filter-355557672)"><!-- color: #ffd015 --><g><path d="m 12.879 23.758 l 3.559 -3.559 l 15.598 -0.629 l 0.945 6.281 l -2.723 4.816 l -4.605 4.5 l -6.285 -1.148 l -3.242 -2.41 l -2.305 -2.828 m -0.941 -5.02" fill="#000"/><path d="m 22.18 35.887 c -5.352 -0.969 -9.488 -5.066 -10.121 -10.02 c -0.184 -1.461 0.043 -3.41 0.59 -5.02 c 2.141 -6.297 9.5 -10.73 18.01 -10.848 c 0.922 -0.012 1.555 -0.004 1.41 0.023 c -2.633 4.348 -2.23 6.852 1.758 8.852 c 1.148 0.871 1.117 1.01 1.645 2.078 c 0.762 2.621 0.586 5.242 0.145 7.5 c -1.01 3.672 -4.02 6.324 -8.313 7.313 c -1.047 0.242 -4.059 0.313 -5.125 0.117 m 3.785 -3.887 l -8.98 -1 l 7.984 3 m 0.656 -5.367 c 2.102 -0.539 4.07 -3.145 5.168 -6.848 c 0.254 -0.855 0.289 -1.207 0.117 -1.141 c -0.117 0.043 -4.742 3.336 -7.01 4.988 c -2.316 1.688 -2.949 2.172 -2.949 2.25 c 0 0.188 1.531 0.758 2.395 0.895 c 0.605 0.094 1.598 0.031 2.277 -0.145 m -7.664 -0.496 c 0.289 -0.063 0.453 -0.141 0.434 -0.211 c -0.055 -0.227 -4.582 -4.285 -4.699 -4.215 c -0.16 0.098 0.254 1.625 0.656 2.414 c 0.891 1.75 1.977 2.355 3.609 2.01 m 0 0" fill="#000"/></g></g></g></g></g></g><g><g clip-path="url(#clipPath-381681262)"><!-- color: #ffd015 --><g><path d="m 12.879 23.758 l 3.559 -3.559 l 15.598 -0.629 l 0.945 6.281 l -2.723 4.816 l -4.605 4.5 l -6.285 -1.148 l -3.242 -2.41 l -2.305 -2.828 m -0.941 -5.02" fill="#f9f9f9"/><path d="m 22.18 35.887 c -5.352 -0.969 -9.488 -5.066 -10.121 -10.02 c -0.184 -1.461 0.043 -3.41 0.59 -5.02 c 2.141 -6.297 9.5 -10.73 18.01 -10.848 c 0.922 -0.012 1.555 -0.004 1.41 0.023 c -2.633 4.348 -2.23 6.852 1.758 8.852 c 1.148 0.871 1.117 1.01 1.645 2.078 c 0.762 2.621 0.586 5.242 0.145 7.5 c -1.01 3.672 -4.02 6.324 -8.313 7.313 c -1.047 0.242 -4.059 0.313 -5.125 0.117 m 3.785 -3.887 l -8.98 -1 l 7.984 3 m 0.656 -5.367 c 2.102 -0.539 4.07 -3.145 5.168 -6.848 c 0.254 -0.855 0.289 -1.207 0.117 -1.141 c -0.117 0.043 -4.742 3.336 -7.01 4.988 c -2.316 1.688 -2.949 2.172 -2.949 2.25 c 0 0.188 1.531 0.758 2.395 0.895 c 0.605 0.094 1.598 0.031 2.277 -0.145 m -7.664 -0.496 c 0.289 -0.063 0.453 -0.141 0.434 -0.211 c -0.055 -0.227 -4.582 -4.285 -4.699 -4.215 c -0.16 0.098 0.254 1.625 0.656 2.414 c 0.891 1.75 1.977 2.355 3.609 2.01 m 0 0" fill="#c02e19"/></g></g></g><g><path d="m 24 1 c -1.045 0 -2.01 0.284 -2.844 0.781 l -15.344 8.719 c -0.017 0.013 -0.045 0.023 -0.063 0.031 c -1.852 1.051 -2.851 3 -2.75 4.969 l 0 1 c -0.101 -1.966 0.898 -3.918 2.75 -4.969 c 0.017 -0.008 0.045 -0.018 0.063 -0.031 l 15.344 -8.719 c 0.832 -0.497 1.799 -0.781 2.844 -0.781 c 1.045 0 2.01 0.284 2.844 0.781 l 15.25 8.656 c 0.873 0.46 1.625 1.156 2.156 2.063 c 0.554 0.942 0.806 1.988 0.75 3 l 0 -1 c 0.056 -1.012 -0.196 -2.058 -0.75 -3 c -0.532 -0.906 -1.283 -1.603 -2.156 -2.063 l -15.25 -8.656 c -0.832 -0.497 -1.799 -0.781 -2.844 -0.781 z" opacity="0.2" fill="#fff"/></g></svg>