<svg viewBox="0 0 48 48"><defs><linearGradient id="linearGradient3764" y1="1" x2="0" y2="47" gradientUnits="userSpaceOnUse"><stop stop-color="#0db1ef" stop-opacity="1"/><stop offset="1" stop-color="#0ca4dc" stop-opacity="1"/></linearGradient><clipPath id="clipPath-006284416"><g transform="translate(0,-1004.3622)"><path d="m 24 1005.37 c -1.045 0 -2.023 0.287 -2.856 0.784 l -15.339 8.708 c -0.017 0.013 -0.035 0.013 -0.052 0.021 -1.852 1.051 -2.847 3 -2.746 4.968 l 0 17.02 c -0.056 1.013 0.175 2.049 0.729 2.993 0.532 0.903 1.288 1.602 2.161 2.061 l 15.246 8.653 c 0.832 0.497 1.811 0.784 2.856 0.784 1.045 0 2.023 -0.287 2.856 -0.784 l 15.246 -8.653 c 0.873 -0.46 1.629 -1.158 2.161 -2.061 0.554 -0.944 0.785 -1.981 0.729 -2.993 l 0 -17.01 c 0.056 -1.012 -0.175 -2.052 -0.729 -2.993 -0.532 -0.906 -1.288 -1.604 -2.161 -2.064 l -15.246 -8.653 c -0.832 -0.497 -1.811 -0.784 -2.856 -0.784 z" fill="#1890d0"/></g></clipPath><clipPath id="clipPath-014905447"><g transform="translate(0,-1004.3622)"><path d="m 24 1005.37 c -1.045 0 -2.023 0.287 -2.856 0.784 l -15.339 8.708 c -0.017 0.013 -0.035 0.013 -0.052 0.021 -1.852 1.051 -2.847 3 -2.746 4.968 l 0 17.02 c -0.056 1.013 0.175 2.049 0.729 2.993 0.532 0.903 1.288 1.602 2.161 2.061 l 15.246 8.653 c 0.832 0.497 1.811 0.784 2.856 0.784 1.045 0 2.023 -0.287 2.856 -0.784 l 15.246 -8.653 c 0.873 -0.46 1.629 -1.158 2.161 -2.061 0.554 -0.944 0.785 -1.981 0.729 -2.993 l 0 -17.01 c 0.056 -1.012 -0.175 -2.052 -0.729 -2.993 -0.532 -0.906 -1.288 -1.604 -2.161 -2.064 l -15.246 -8.653 c -0.832 -0.497 -1.811 -0.784 -2.856 -0.784 z" fill="#1890d0"/></g></clipPath><filter id="filter-988236677"><feGaussianBlur stdDeviation="0.35"/></filter></defs><g><g transform="translate(0,-1004.3622)"><path d="m 45 1037.36 c 0.056 1.013 -0.196 2.056 -0.75 3 -0.532 0.903 -1.283 1.603 -2.156 2.063 l -15.25 8.656 c -0.832 0.497 -1.799 0.781 -2.844 0.781 -1.045 0 -2.01 -0.284 -2.844 -0.781 l -15.25 -8.656 c -0.873 -0.46 -1.625 -1.159 -2.156 -2.063 -0.416 -0.708 -0.677 -1.485 -0.75 -2.25 -0.004 0.932 0.242 1.884 0.75 2.75 0.532 0.903 1.283 1.603 2.156 2.063 l 15.25 8.656 c 0.832 0.497 1.799 0.781 2.844 0.781 1.045 0 2.01 -0.284 2.844 -0.781 l 15.25 -8.656 c 0.873 -0.46 1.625 -1.159 2.156 -2.063 0.554 -0.944 0.806 -1.987 0.75 -3 l 0 -0.5 z" opacity="0.05"/><path d="m 45 1036.86 c 0.015 0.263 -0.004 0.516 -0.031 0.781 -0.036 0.844 -0.259 1.685 -0.719 2.469 -0.532 0.903 -1.283 1.603 -2.156 2.063 l -15.25 8.656 c -0.832 0.497 -1.799 0.781 -2.844 0.781 -1.045 0 -2.01 -0.284 -2.844 -0.781 l -15.25 -8.656 c -0.873 -0.46 -1.625 -1.159 -2.156 -2.063 -0.414 -0.705 -0.621 -1.46 -0.688 -2.219 -0.014 -0.092 -0.054 -0.189 -0.063 -0.281 -0.004 0.932 0.242 1.884 0.75 2.75 0.532 0.903 1.283 1.603 2.156 2.063 l 15.25 8.656 c 0.832 0.497 1.799 0.781 2.844 0.781 1.045 0 2.01 -0.284 2.844 -0.781 l 15.25 -8.656 c 0.873 -0.46 1.625 -1.159 2.156 -2.063 0.554 -0.944 0.806 -1.987 0.75 -3 l 0 -0.5 z m -41.813 1.625 c 0.057 0.219 0.132 0.442 0.219 0.656 -0.088 -0.216 -0.16 -0.436 -0.219 -0.656 z m 0.219 0.656 c 0.099 0.243 0.206 0.484 0.344 0.719 -0.139 -0.236 -0.243 -0.472 -0.344 -0.719 z m 41.41 -0.656 c -0.059 0.221 -0.131 0.441 -0.219 0.656 0.087 -0.215 0.161 -0.437 0.219 -0.656 z m -0.219 0.656 c -0.101 0.246 -0.205 0.483 -0.344 0.719 0.138 -0.235 0.245 -0.476 0.344 -0.719 z" opacity="0.1"/><path d="m 3.03 1037.64 c 0.035 0.844 0.259 1.685 0.719 2.469 0.532 0.903 1.283 1.603 2.156 2.063 l 15.25 8.656 c 0.832 0.497 1.799 0.781 2.844 0.781 1.045 0 2.01 -0.284 2.844 -0.781 l 15.25 -8.656 c 0.873 -0.46 1.625 -1.159 2.156 -2.063 0.46 -0.784 0.683 -1.624 0.719 -2.469 -0.067 0.763 -0.303 1.511 -0.719 2.219 -0.532 0.903 -1.283 1.603 -2.156 2.063 l -15.25 8.656 c -0.832 0.497 -1.799 0.781 -2.844 0.781 -1.045 0 -2.01 -0.284 -2.844 -0.781 l -15.25 -8.656 c -0.873 -0.46 -1.625 -1.159 -2.156 -2.063 -0.416 -0.708 -0.651 -1.456 -0.719 -2.219 z" opacity="0.2"/></g></g><g><path d="m 24 46.996 c 1.045 0 2.023 -0.287 2.856 -0.784 l 15.339 -8.708 c 0.017 -0.013 0.035 -0.013 0.052 -0.021 1.852 -1.051 2.847 -3 2.746 -4.968 l 0 -17.02 c 0.056 -1.013 -0.175 -2.049 -0.729 -2.993 -0.532 -0.903 -1.288 -1.602 -2.161 -2.061 l -15.246 -8.653 c -0.832 -0.497 -1.811 -0.784 -2.856 -0.784 -1.045 0 -2.023 0.287 -2.856 0.784 l -15.246 8.653 c -0.873 0.46 -1.629 1.158 -2.161 2.061 -0.554 0.944 -0.785 1.981 -0.729 2.993 l 0 17.01 c -0.056 1.012 0.175 2.051 0.729 2.993 0.532 0.906 1.288 1.604 2.161 2.064 l 15.246 8.653 c 0.832 0.497 1.811 0.785 2.856 0.785 z" fill="url(#linearGradient3764)" fill-opacity="1"/></g><g><g clip-path="url(#clipPath-006284416)"><g opacity="0.25"><g transform="translate(0,1)"><g filter="url(#filter-988236677)"><!-- color: #0db1ef --><g><path d="m 30.03 13.625 c -0.715 0.066 -1.449 0.281 -2.125 0.625 c -1.719 0.875 -2.902 2.801 -2.906 4.656 c 0 0.586 -0.023 0.613 0.781 1.188 c 0.863 0.617 1.883 1.629 2.188 2.219 c 0.242 0.465 0.422 0.441 0.5 -0.063 c 0.035 -0.227 0.082 -0.828 0.125 -1.313 c 0.184 -2.035 0.891 -3.969 2.969 -4.5 c 1.227 -0.313 3.02 0.438 3.969 1.188 c 0.441 0.348 0.598 0.16 0.375 -0.469 c -0.508 -1.438 -1.918 -2.695 -3.438 -3.219 c -0.582 -0.199 -1.145 -0.293 -1.719 -0.313 c -0.238 -0.008 -0.48 -0.023 -0.719 0 m -9.813 5.281 c -2.781 -0.109 -5.559 1.355 -7 3.75 c -0.715 1.047 -1.188 2.281 -1.188 3.563 c -0.094 1.316 0.07 2.672 0.781 3.813 c 1.43 2.461 4.172 4.316 7.094 4.125 c 1.77 -0.086 3.406 -1.281 3.969 -2.969 c 0.141 -0.531 0.652 -1.492 0.063 -1.781 c -0.668 0.555 -1.391 1.082 -2.25 1.313 c -2.262 0.805 -5.133 0.105 -6.188 -2 c -0.707 -1.41 -0.262 -3.797 0.938 -4.719 c 1.789 -2.289 5.746 -2.262 7.563 0 c 0.566 0.523 0.656 1.324 1 2 c 0.051 2.621 -0.027 5.426 0 6 c 0 0.945 -0.039 2.375 0.906 2.375 l 0.938 0 c 0.945 0 1.156 -1.43 1.156 -2.375 l 0 -6 c -0.098 -1.852 -0.914 -3.422 -2.25 -4.656 c -0.742 -0.754 -1.504 -1.551 -2.563 -1.844 c -0.949 -0.352 -1.957 -0.57 -2.969 -0.594 m 12.344 6.281 c -0.594 -0.012 -1.652 0.215 -2.594 0.531 l -0.906 0.281 l -0.094 1 c -0.051 0.555 -0.066 1.148 -0.031 1.313 c 0.063 0.281 0.129 0.273 0.813 -0.375 c 0.395 -0.375 0.969 -0.852 1.281 -1.063 c 0.313 -0.211 0.941 -0.563 1.375 -0.781 c 0.836 -0.422 0.879 -0.547 0.563 -0.813 c -0.066 -0.055 -0.207 -0.09 -0.406 -0.094 m 0 0" fill="#000"/></g></g></g></g></g></g><g><g clip-path="url(#clipPath-014905447)"><!-- color: #0db1ef --><g><path d="m 30.03 13.625 c -0.715 0.066 -1.449 0.281 -2.125 0.625 c -1.719 0.875 -2.902 2.801 -2.906 4.656 c 0 0.586 -0.023 0.613 0.781 1.188 c 0.863 0.617 1.883 1.629 2.188 2.219 c 0.242 0.465 0.422 0.441 0.5 -0.063 c 0.035 -0.227 0.082 -0.828 0.125 -1.313 c 0.184 -2.035 0.891 -3.969 2.969 -4.5 c 1.227 -0.313 3.02 0.438 3.969 1.188 c 0.441 0.348 0.598 0.16 0.375 -0.469 c -0.508 -1.438 -1.918 -2.695 -3.438 -3.219 c -0.582 -0.199 -1.145 -0.293 -1.719 -0.313 c -0.238 -0.008 -0.48 -0.023 -0.719 0 m -9.813 5.281 c -2.781 -0.109 -5.559 1.355 -7 3.75 c -0.715 1.047 -1.188 2.281 -1.188 3.563 c -0.094 1.316 0.07 2.672 0.781 3.813 c 1.43 2.461 4.172 4.316 7.094 4.125 c 1.77 -0.086 3.406 -1.281 3.969 -2.969 c 0.141 -0.531 0.652 -1.492 0.063 -1.781 c -0.668 0.555 -1.391 1.082 -2.25 1.313 c -2.262 0.805 -5.133 0.105 -6.188 -2 c -0.707 -1.41 -0.262 -3.797 0.938 -4.719 c 1.789 -2.289 5.746 -2.262 7.563 0 c 0.566 0.523 0.656 1.324 1 2 c 0.051 2.621 -0.027 5.426 0 6 c 0 0.945 -0.039 2.375 0.906 2.375 l 0.938 0 c 0.945 0 1.156 -1.43 1.156 -2.375 l 0 -6 c -0.098 -1.852 -0.914 -3.422 -2.25 -4.656 c -0.742 -0.754 -1.504 -1.551 -2.563 -1.844 c -0.949 -0.352 -1.957 -0.57 -2.969 -0.594 m 12.344 6.281 c -0.594 -0.012 -1.652 0.215 -2.594 0.531 l -0.906 0.281 l -0.094 1 c -0.051 0.555 -0.066 1.148 -0.031 1.313 c 0.063 0.281 0.129 0.273 0.813 -0.375 c 0.395 -0.375 0.969 -0.852 1.281 -1.063 c 0.313 -0.211 0.941 -0.563 1.375 -0.781 c 0.836 -0.422 0.879 -0.547 0.563 -0.813 c -0.066 -0.055 -0.207 -0.09 -0.406 -0.094 m 0 0" fill="#f9f9f9"/></g></g></g><g><path d="m 24 1 c -1.045 0 -2.01 0.284 -2.844 0.781 l -15.344 8.719 c -0.017 0.013 -0.045 0.023 -0.063 0.031 c -1.852 1.051 -2.851 3 -2.75 4.969 l 0 1 c -0.101 -1.966 0.898 -3.918 2.75 -4.969 c 0.017 -0.008 0.045 -0.018 0.063 -0.031 l 15.344 -8.719 c 0.832 -0.497 1.799 -0.781 2.844 -0.781 c 1.045 0 2.01 0.284 2.844 0.781 l 15.25 8.656 c 0.873 0.46 1.625 1.156 2.156 2.063 c 0.554 0.942 0.806 1.988 0.75 3 l 0 -1 c 0.056 -1.012 -0.196 -2.058 -0.75 -3 c -0.532 -0.906 -1.283 -1.603 -2.156 -2.063 l -15.25 -8.656 c -0.832 -0.497 -1.799 -0.781 -2.844 -0.781 z" opacity="0.2" fill="#fff"/></g></svg>