<svg viewBox="0 0 48 48"><defs><linearGradient id="linearGradient3764" y1="1" x2="0" y2="47" gradientUnits="userSpaceOnUse"><stop stop-color="#9ac303" stop-opacity="1"/><stop offset="1" stop-color="#89af03" stop-opacity="1"/></linearGradient><clipPath id="clipPath-852388291"><g transform="translate(0,-1004.3622)"><path d="m 24 1005.37 c -1.045 0 -2.023 0.287 -2.856 0.784 l -15.339 8.708 c -0.017 0.013 -0.035 0.013 -0.052 0.021 -1.852 1.051 -2.847 3 -2.746 4.968 l 0 17.02 c -0.056 1.013 0.175 2.049 0.729 2.993 0.532 0.903 1.288 1.602 2.161 2.061 l 15.246 8.653 c 0.832 0.497 1.811 0.784 2.856 0.784 1.045 0 2.023 -0.287 2.856 -0.784 l 15.246 -8.653 c 0.873 -0.46 1.629 -1.158 2.161 -2.061 0.554 -0.944 0.785 -1.981 0.729 -2.993 l 0 -17.01 c 0.056 -1.012 -0.175 -2.052 -0.729 -2.993 -0.532 -0.906 -1.288 -1.604 -2.161 -2.064 l -15.246 -8.653 c -0.832 -0.497 -1.811 -0.784 -2.856 -0.784 z" fill="#1890d0"/></g></clipPath><clipPath id="clipPath-860840369"><g transform="translate(0,-1004.3622)"><path d="m 24 1005.37 c -1.045 0 -2.023 0.287 -2.856 0.784 l -15.339 8.708 c -0.017 0.013 -0.035 0.013 -0.052 0.021 -1.852 1.051 -2.847 3 -2.746 4.968 l 0 17.02 c -0.056 1.013 0.175 2.049 0.729 2.993 0.532 0.903 1.288 1.602 2.161 2.061 l 15.246 8.653 c 0.832 0.497 1.811 0.784 2.856 0.784 1.045 0 2.023 -0.287 2.856 -0.784 l 15.246 -8.653 c 0.873 -0.46 1.629 -1.158 2.161 -2.061 0.554 -0.944 0.785 -1.981 0.729 -2.993 l 0 -17.01 c 0.056 -1.012 -0.175 -2.052 -0.729 -2.993 -0.532 -0.906 -1.288 -1.604 -2.161 -2.064 l -15.246 -8.653 c -0.832 -0.497 -1.811 -0.784 -2.856 -0.784 z" fill="#1890d0"/></g></clipPath><filter id="filter-834606035"><feGaussianBlur stdDeviation="0.35"/></filter></defs><g><g transform="translate(0,-1004.3622)"><path d="m 45 1037.36 c 0.056 1.013 -0.196 2.056 -0.75 3 -0.532 0.903 -1.283 1.603 -2.156 2.063 l -15.25 8.656 c -0.832 0.497 -1.799 0.781 -2.844 0.781 -1.045 0 -2.01 -0.284 -2.844 -0.781 l -15.25 -8.656 c -0.873 -0.46 -1.625 -1.159 -2.156 -2.063 -0.416 -0.708 -0.677 -1.485 -0.75 -2.25 -0.004 0.932 0.242 1.884 0.75 2.75 0.532 0.903 1.283 1.603 2.156 2.063 l 15.25 8.656 c 0.832 0.497 1.799 0.781 2.844 0.781 1.045 0 2.01 -0.284 2.844 -0.781 l 15.25 -8.656 c 0.873 -0.46 1.625 -1.159 2.156 -2.063 0.554 -0.944 0.806 -1.987 0.75 -3 l 0 -0.5 z" opacity="0.05"/><path d="m 45 1036.86 c 0.015 0.263 -0.004 0.516 -0.031 0.781 -0.036 0.844 -0.259 1.685 -0.719 2.469 -0.532 0.903 -1.283 1.603 -2.156 2.063 l -15.25 8.656 c -0.832 0.497 -1.799 0.781 -2.844 0.781 -1.045 0 -2.01 -0.284 -2.844 -0.781 l -15.25 -8.656 c -0.873 -0.46 -1.625 -1.159 -2.156 -2.063 -0.414 -0.705 -0.621 -1.46 -0.688 -2.219 -0.014 -0.092 -0.054 -0.189 -0.063 -0.281 -0.004 0.932 0.242 1.884 0.75 2.75 0.532 0.903 1.283 1.603 2.156 2.063 l 15.25 8.656 c 0.832 0.497 1.799 0.781 2.844 0.781 1.045 0 2.01 -0.284 2.844 -0.781 l 15.25 -8.656 c 0.873 -0.46 1.625 -1.159 2.156 -2.063 0.554 -0.944 0.806 -1.987 0.75 -3 l 0 -0.5 z m -41.813 1.625 c 0.057 0.219 0.132 0.442 0.219 0.656 -0.088 -0.216 -0.16 -0.436 -0.219 -0.656 z m 0.219 0.656 c 0.099 0.243 0.206 0.484 0.344 0.719 -0.139 -0.236 -0.243 -0.472 -0.344 -0.719 z m 41.41 -0.656 c -0.059 0.221 -0.131 0.441 -0.219 0.656 0.087 -0.215 0.161 -0.437 0.219 -0.656 z m -0.219 0.656 c -0.101 0.246 -0.205 0.483 -0.344 0.719 0.138 -0.235 0.245 -0.476 0.344 -0.719 z" opacity="0.1"/><path d="m 3.03 1037.64 c 0.035 0.844 0.259 1.685 0.719 2.469 0.532 0.903 1.283 1.603 2.156 2.063 l 15.25 8.656 c 0.832 0.497 1.799 0.781 2.844 0.781 1.045 0 2.01 -0.284 2.844 -0.781 l 15.25 -8.656 c 0.873 -0.46 1.625 -1.159 2.156 -2.063 0.46 -0.784 0.683 -1.624 0.719 -2.469 -0.067 0.763 -0.303 1.511 -0.719 2.219 -0.532 0.903 -1.283 1.603 -2.156 2.063 l -15.25 8.656 c -0.832 0.497 -1.799 0.781 -2.844 0.781 -1.045 0 -2.01 -0.284 -2.844 -0.781 l -15.25 -8.656 c -0.873 -0.46 -1.625 -1.159 -2.156 -2.063 -0.416 -0.708 -0.651 -1.456 -0.719 -2.219 z" opacity="0.2"/></g></g><g><path d="m 24 46.996 c 1.045 0 2.023 -0.287 2.856 -0.784 l 15.339 -8.708 c 0.017 -0.013 0.035 -0.013 0.052 -0.021 1.852 -1.051 2.847 -3 2.746 -4.968 l 0 -17.02 c 0.056 -1.013 -0.175 -2.049 -0.729 -2.993 -0.532 -0.903 -1.288 -1.602 -2.161 -2.061 l -15.246 -8.653 c -0.832 -0.497 -1.811 -0.784 -2.856 -0.784 -1.045 0 -2.023 0.287 -2.856 0.784 l -15.246 8.653 c -0.873 0.46 -1.629 1.158 -2.161 2.061 -0.554 0.944 -0.785 1.981 -0.729 2.993 l 0 17.01 c -0.056 1.012 0.175 2.051 0.729 2.993 0.532 0.906 1.288 1.604 2.161 2.064 l 15.246 8.653 c 0.832 0.497 1.811 0.785 2.856 0.785 z" fill="url(#linearGradient3764)" fill-opacity="1"/></g><g><g clip-path="url(#clipPath-852388291)"><g opacity="0.25"><g transform="translate(0,1)"><g filter="url(#filter-834606035)"><!-- color: #9ac303 --><g><path d="m 35.57 22.08 c -0.25 0 -0.504 -0.066 -0.738 -0.207 c -4.246 -2.563 -9.109 -3.918 -14.06 -3.918 c -2.676 0 -5.324 0.391 -7.871 1.16 c -0.777 0.234 -1.59 -0.219 -1.82 -1.016 c -0.227 -0.797 0.215 -1.633 0.992 -1.867 c 2.816 -0.855 5.746 -1.285 8.699 -1.285 c 5.473 0 10.848 1.496 15.547 4.332 c 0.695 0.422 0.93 1.34 0.52 2.059 c -0.273 0.477 -0.762 0.742 -1.266 0.742" fill="#000"/><path d="m 33.16 27.527 c -0.238 0 -0.48 -0.066 -0.695 -0.207 c -3.504 -2.246 -7.551 -3.438 -11.699 -3.438 c -2.305 0 -4.578 0.363 -6.758 1.082 c -0.691 0.23 -1.434 -0.164 -1.656 -0.875 c -0.223 -0.711 0.16 -1.473 0.852 -1.703 c 2.441 -0.805 4.984 -1.211 7.563 -1.211 c 4.645 0 9.172 1.332 13.09 3.852 c 0.617 0.395 0.805 1.23 0.418 1.863 c -0.25 0.41 -0.68 0.637 -1.117 0.637" fill="#000"/><path d="m 30.766 32.957 c -0.23 0 -0.465 -0.066 -0.668 -0.211 c -2.75 -1.961 -5.977 -2.996 -9.328 -2.996 c -1.938 0 -3.836 0.344 -5.637 1.023 c -0.609 0.227 -1.281 -0.094 -1.504 -0.719 c -0.223 -0.625 0.09 -1.313 0.699 -1.543 c 2.059 -0.777 4.227 -1.168 6.441 -1.168 c 3.832 0 7.52 1.184 10.664 3.422 c 0.531 0.379 0.664 1.129 0.293 1.676 c -0.227 0.336 -0.59 0.516 -0.961 0.516" fill="#000"/></g></g></g></g></g></g><g><g clip-path="url(#clipPath-860840369)"><!-- color: #9ac303 --><g><path d="m 35.57 22.08 c -0.25 0 -0.504 -0.066 -0.738 -0.207 c -4.246 -2.563 -9.109 -3.918 -14.06 -3.918 c -2.676 0 -5.324 0.391 -7.871 1.16 c -0.777 0.234 -1.59 -0.219 -1.82 -1.016 c -0.227 -0.797 0.215 -1.633 0.992 -1.867 c 2.816 -0.855 5.746 -1.285 8.699 -1.285 c 5.473 0 10.848 1.496 15.547 4.332 c 0.695 0.422 0.93 1.34 0.52 2.059 c -0.273 0.477 -0.762 0.742 -1.266 0.742" fill="#2d2d2d"/><path d="m 33.16 27.527 c -0.238 0 -0.48 -0.066 -0.695 -0.207 c -3.504 -2.246 -7.551 -3.438 -11.699 -3.438 c -2.305 0 -4.578 0.363 -6.758 1.082 c -0.691 0.23 -1.434 -0.164 -1.656 -0.875 c -0.223 -0.711 0.16 -1.473 0.852 -1.703 c 2.441 -0.805 4.984 -1.211 7.563 -1.211 c 4.645 0 9.172 1.332 13.09 3.852 c 0.617 0.395 0.805 1.23 0.418 1.863 c -0.25 0.41 -0.68 0.637 -1.117 0.637" fill="#2d2d2d"/><path d="m 30.766 32.957 c -0.23 0 -0.465 -0.066 -0.668 -0.211 c -2.75 -1.961 -5.977 -2.996 -9.328 -2.996 c -1.938 0 -3.836 0.344 -5.637 1.023 c -0.609 0.227 -1.281 -0.094 -1.504 -0.719 c -0.223 -0.625 0.09 -1.313 0.699 -1.543 c 2.059 -0.777 4.227 -1.168 6.441 -1.168 c 3.832 0 7.52 1.184 10.664 3.422 c 0.531 0.379 0.664 1.129 0.293 1.676 c -0.227 0.336 -0.59 0.516 -0.961 0.516" fill="#2d2d2d"/></g></g></g><g><path d="m 24 1 c -1.045 0 -2.01 0.284 -2.844 0.781 l -15.344 8.719 c -0.017 0.013 -0.045 0.023 -0.063 0.031 c -1.852 1.051 -2.851 3 -2.75 4.969 l 0 1 c -0.101 -1.966 0.898 -3.918 2.75 -4.969 c 0.017 -0.008 0.045 -0.018 0.063 -0.031 l 15.344 -8.719 c 0.832 -0.497 1.799 -0.781 2.844 -0.781 c 1.045 0 2.01 0.284 2.844 0.781 l 15.25 8.656 c 0.873 0.46 1.625 1.156 2.156 2.063 c 0.554 0.942 0.806 1.988 0.75 3 l 0 -1 c 0.056 -1.012 -0.196 -2.058 -0.75 -3 c -0.532 -0.906 -1.283 -1.603 -2.156 -2.063 l -15.25 -8.656 c -0.832 -0.497 -1.799 -0.781 -2.844 -0.781 z" opacity="0.2" fill="#fff"/></g></svg>