<svg viewBox="0 0 48 48"><defs><linearGradient id="linearGradient3764" y1="1" x2="0" y2="47" gradientUnits="userSpaceOnUse"><stop stop-color="#015ca7" stop-opacity="1"/><stop offset="1" stop-color="#015093" stop-opacity="1"/></linearGradient><clipPath id="clipPath-648199723"><g transform="translate(0,-1004.3622)"><path d="m 24 1005.37 c -1.045 0 -2.023 0.287 -2.856 0.784 l -15.339 8.708 c -0.017 0.013 -0.035 0.013 -0.052 0.021 -1.852 1.051 -2.847 3 -2.746 4.968 l 0 17.02 c -0.056 1.013 0.175 2.049 0.729 2.993 0.532 0.903 1.288 1.602 2.161 2.061 l 15.246 8.653 c 0.832 0.497 1.811 0.784 2.856 0.784 1.045 0 2.023 -0.287 2.856 -0.784 l 15.246 -8.653 c 0.873 -0.46 1.629 -1.158 2.161 -2.061 0.554 -0.944 0.785 -1.981 0.729 -2.993 l 0 -17.01 c 0.056 -1.012 -0.175 -2.052 -0.729 -2.993 -0.532 -0.906 -1.288 -1.604 -2.161 -2.064 l -15.246 -8.653 c -0.832 -0.497 -1.811 -0.784 -2.856 -0.784 z" fill="#1890d0"/></g></clipPath><clipPath id="clipPath-657400346"><g transform="translate(0,-1004.3622)"><path d="m 24 1005.37 c -1.045 0 -2.023 0.287 -2.856 0.784 l -15.339 8.708 c -0.017 0.013 -0.035 0.013 -0.052 0.021 -1.852 1.051 -2.847 3 -2.746 4.968 l 0 17.02 c -0.056 1.013 0.175 2.049 0.729 2.993 0.532 0.903 1.288 1.602 2.161 2.061 l 15.246 8.653 c 0.832 0.497 1.811 0.784 2.856 0.784 1.045 0 2.023 -0.287 2.856 -0.784 l 15.246 -8.653 c 0.873 -0.46 1.629 -1.158 2.161 -2.061 0.554 -0.944 0.785 -1.981 0.729 -2.993 l 0 -17.01 c 0.056 -1.012 -0.175 -2.052 -0.729 -2.993 -0.532 -0.906 -1.288 -1.604 -2.161 -2.064 l -15.246 -8.653 c -0.832 -0.497 -1.811 -0.784 -2.856 -0.784 z" fill="#1890d0"/></g></clipPath><filter id="filter-628899941"><feGaussianBlur stdDeviation="0.35"/></filter></defs><g><g transform="translate(0,-1004.3622)"><path d="m 45 1037.36 c 0.056 1.013 -0.196 2.056 -0.75 3 -0.532 0.903 -1.283 1.603 -2.156 2.063 l -15.25 8.656 c -0.832 0.497 -1.799 0.781 -2.844 0.781 -1.045 0 -2.01 -0.284 -2.844 -0.781 l -15.25 -8.656 c -0.873 -0.46 -1.625 -1.159 -2.156 -2.063 -0.416 -0.708 -0.677 -1.485 -0.75 -2.25 -0.004 0.932 0.242 1.884 0.75 2.75 0.532 0.903 1.283 1.603 2.156 2.063 l 15.25 8.656 c 0.832 0.497 1.799 0.781 2.844 0.781 1.045 0 2.01 -0.284 2.844 -0.781 l 15.25 -8.656 c 0.873 -0.46 1.625 -1.159 2.156 -2.063 0.554 -0.944 0.806 -1.987 0.75 -3 l 0 -0.5 z" opacity="0.05"/><path d="m 45 1036.86 c 0.015 0.263 -0.004 0.516 -0.031 0.781 -0.036 0.844 -0.259 1.685 -0.719 2.469 -0.532 0.903 -1.283 1.603 -2.156 2.063 l -15.25 8.656 c -0.832 0.497 -1.799 0.781 -2.844 0.781 -1.045 0 -2.01 -0.284 -2.844 -0.781 l -15.25 -8.656 c -0.873 -0.46 -1.625 -1.159 -2.156 -2.063 -0.414 -0.705 -0.621 -1.46 -0.688 -2.219 -0.014 -0.092 -0.054 -0.189 -0.063 -0.281 -0.004 0.932 0.242 1.884 0.75 2.75 0.532 0.903 1.283 1.603 2.156 2.063 l 15.25 8.656 c 0.832 0.497 1.799 0.781 2.844 0.781 1.045 0 2.01 -0.284 2.844 -0.781 l 15.25 -8.656 c 0.873 -0.46 1.625 -1.159 2.156 -2.063 0.554 -0.944 0.806 -1.987 0.75 -3 l 0 -0.5 z m -41.813 1.625 c 0.057 0.219 0.132 0.442 0.219 0.656 -0.088 -0.216 -0.16 -0.436 -0.219 -0.656 z m 0.219 0.656 c 0.099 0.243 0.206 0.484 0.344 0.719 -0.139 -0.236 -0.243 -0.472 -0.344 -0.719 z m 41.41 -0.656 c -0.059 0.221 -0.131 0.441 -0.219 0.656 0.087 -0.215 0.161 -0.437 0.219 -0.656 z m -0.219 0.656 c -0.101 0.246 -0.205 0.483 -0.344 0.719 0.138 -0.235 0.245 -0.476 0.344 -0.719 z" opacity="0.1"/><path d="m 3.03 1037.64 c 0.035 0.844 0.259 1.685 0.719 2.469 0.532 0.903 1.283 1.603 2.156 2.063 l 15.25 8.656 c 0.832 0.497 1.799 0.781 2.844 0.781 1.045 0 2.01 -0.284 2.844 -0.781 l 15.25 -8.656 c 0.873 -0.46 1.625 -1.159 2.156 -2.063 0.46 -0.784 0.683 -1.624 0.719 -2.469 -0.067 0.763 -0.303 1.511 -0.719 2.219 -0.532 0.903 -1.283 1.603 -2.156 2.063 l -15.25 8.656 c -0.832 0.497 -1.799 0.781 -2.844 0.781 -1.045 0 -2.01 -0.284 -2.844 -0.781 l -15.25 -8.656 c -0.873 -0.46 -1.625 -1.159 -2.156 -2.063 -0.416 -0.708 -0.651 -1.456 -0.719 -2.219 z" opacity="0.2"/></g></g><g><path d="m 24 46.996 c 1.045 0 2.023 -0.287 2.856 -0.784 l 15.339 -8.708 c 0.017 -0.013 0.035 -0.013 0.052 -0.021 1.852 -1.051 2.847 -3 2.746 -4.968 l 0 -17.02 c 0.056 -1.013 -0.175 -2.049 -0.729 -2.993 -0.532 -0.903 -1.288 -1.602 -2.161 -2.061 l -15.246 -8.653 c -0.832 -0.497 -1.811 -0.784 -2.856 -0.784 -1.045 0 -2.023 0.287 -2.856 0.784 l -15.246 8.653 c -0.873 0.46 -1.629 1.158 -2.161 2.061 -0.554 0.944 -0.785 1.981 -0.729 2.993 l 0 17.01 c -0.056 1.012 0.175 2.051 0.729 2.993 0.532 0.906 1.288 1.604 2.161 2.064 l 15.246 8.653 c 0.832 0.497 1.811 0.785 2.856 0.785 z" fill="url(#linearGradient3764)" fill-opacity="1"/></g><g><g clip-path="url(#clipPath-648199723)"><g opacity="0.25"><g transform="translate(0,1)"><g filter="url(#filter-628899941)"><!-- color: #015ca7 --><path d="m 19 0 c -3.723 10.313 -7.473 22.266 -11.195 32.578 0.238 0.07 0.473 0.043 0.719 0.047 1.355 -0.008 2.715 0.004 4.074 0 0.184 0 0.16 -0.266 0.238 -0.383 1.633 -4.609 3.293 -9.195 4.934 -13.801 0.098 -0.285 0.207 -0.59 0.336 -0.863 0.852 0.016 1.691 -0.012 2.539 0 -1.781 4.996 -3.555 10.02 -5.367 15 0.191 0.074 0.379 0.043 0.578 0.047 1.422 -0.012 2.84 0.02 4.262 0 1.609 -4.539 3.273 -9.07 4.891 -13.609 0.344 -0.926 0.355 -2.02 -0.195 -2.875 -0.477 -0.758 -1.383 -1.16 -2.25 -1.195 c -1.187 -0.035 -2.359 -0.736 -3.547 -0.755 1.633 -4.625 3.363 -9.561 4.984 -14.19 z m 10.461 14.848 c -0.035 0.074 -0.059 0.262 -0.094 0.336 c -3.691 10.355 -8.16 22.465 -11.867 32.816 c 1 0 3.474 0 4 0 1.617 -4.543 4.123 -10.164 5.756 -14.703 1.777 -0.035 3.543 -0.016 5.32 -0.051 1.133 -0.039 2.838 -0.719 3.213 -1.82 1.5 -4.223 3 -8.406 4.453 -12.648 0.238 -0.641 0.383 -1.344 0.191 -2.01 -0.254 -0.852 -1.031 -1.5 -1.867 -1.727 -0.727 -0.227 -1.457 -0.129 -2.203 -0.145 -2.281 -0.004 -4.621 -0.023 -6.902 -0.047 z m 4.074 2.684 c 0.141 -0.043 0.289 0.02 0.43 0 0.66 0.012 1.309 -0.016 1.965 0 -1.531 4.371 -3.09 8.746 -4.598 13.13 -0.855 0.059 -1.734 0.004 -2.59 0 1.559 -4.344 3.094 -8.688 4.648 -13.04 0.035 -0.039 0.098 -0.082 0.145 -0.094 z" fill="#000"/></g></g></g></g></g><g><g clip-path="url(#clipPath-657400346)"><!-- color: #015ca7 --><path d="m 19 0 c -3.723 10.313 -7.473 22.266 -11.195 32.578 0.238 0.07 0.473 0.043 0.719 0.047 1.355 -0.008 2.715 0.004 4.074 0 0.184 0 0.16 -0.266 0.238 -0.383 1.633 -4.609 3.293 -9.195 4.934 -13.801 0.098 -0.285 0.207 -0.59 0.336 -0.863 0.852 0.016 1.691 -0.012 2.539 0 -1.781 4.996 -3.555 10.02 -5.367 15 0.191 0.074 0.379 0.043 0.578 0.047 1.422 -0.012 2.84 0.02 4.262 0 1.609 -4.539 3.273 -9.07 4.891 -13.609 0.344 -0.926 0.355 -2.02 -0.195 -2.875 -0.477 -0.758 -1.383 -1.16 -2.25 -1.195 c -1.187 -0.035 -2.359 -0.736 -3.547 -0.755 1.633 -4.625 3.363 -9.561 4.984 -14.19 z m 10.461 14.848 c -0.035 0.074 -0.059 0.262 -0.094 0.336 c -3.691 10.355 -8.16 22.465 -11.867 32.816 c 1 0 3.474 0 4 0 1.617 -4.543 4.123 -10.164 5.756 -14.703 1.777 -0.035 3.543 -0.016 5.32 -0.051 1.133 -0.039 2.838 -0.719 3.213 -1.82 1.5 -4.223 3 -8.406 4.453 -12.648 0.238 -0.641 0.383 -1.344 0.191 -2.01 -0.254 -0.852 -1.031 -1.5 -1.867 -1.727 -0.727 -0.227 -1.457 -0.129 -2.203 -0.145 -2.281 -0.004 -4.621 -0.023 -6.902 -0.047 z m 4.074 2.684 c 0.141 -0.043 0.289 0.02 0.43 0 0.66 0.012 1.309 -0.016 1.965 0 -1.531 4.371 -3.09 8.746 -4.598 13.13 -0.855 0.059 -1.734 0.004 -2.59 0 1.559 -4.344 3.094 -8.688 4.648 -13.04 0.035 -0.039 0.098 -0.082 0.145 -0.094 z" fill="#f8f8f8"/></g></g><g><path d="m 24 1 c -1.045 0 -2.01 0.284 -2.844 0.781 l -15.344 8.719 c -0.017 0.013 -0.045 0.023 -0.063 0.031 c -1.852 1.051 -2.851 3 -2.75 4.969 l 0 1 c -0.101 -1.966 0.898 -3.918 2.75 -4.969 c 0.017 -0.008 0.045 -0.018 0.063 -0.031 l 15.344 -8.719 c 0.832 -0.497 1.799 -0.781 2.844 -0.781 c 1.045 0 2.01 0.284 2.844 0.781 l 15.25 8.656 c 0.873 0.46 1.625 1.156 2.156 2.063 c 0.554 0.942 0.806 1.988 0.75 3 l 0 -1 c 0.056 -1.012 -0.196 -2.058 -0.75 -3 c -0.532 -0.906 -1.283 -1.603 -2.156 -2.063 l -15.25 -8.656 c -0.832 -0.497 -1.799 -0.781 -2.844 -0.781 z" opacity="0.2" fill="#fff"/></g></svg>