<svg viewBox="0 0 48 48"><defs><linearGradient id="linearGradient3764" y1="1" x2="0" y2="47" gradientUnits="userSpaceOnUse"><stop stop-color="#edea43" stop-opacity="1"/><stop offset="1" stop-color="#ebe931" stop-opacity="1"/></linearGradient><clipPath id="clipPath-197140093"><g transform="translate(0,-1004.3622)"><path d="m 24 1005.37 c -1.045 0 -2.023 0.287 -2.856 0.784 l -15.339 8.708 c -0.017 0.013 -0.035 0.013 -0.052 0.021 -1.852 1.051 -2.847 3 -2.746 4.968 l 0 17.02 c -0.056 1.013 0.175 2.049 0.729 2.993 0.532 0.903 1.288 1.602 2.161 2.061 l 15.246 8.653 c 0.832 0.497 1.811 0.784 2.856 0.784 1.045 0 2.023 -0.287 2.856 -0.784 l 15.246 -8.653 c 0.873 -0.46 1.629 -1.158 2.161 -2.061 0.554 -0.944 0.785 -1.981 0.729 -2.993 l 0 -17.01 c 0.056 -1.012 -0.175 -2.052 -0.729 -2.993 -0.532 -0.906 -1.288 -1.604 -2.161 -2.064 l -15.246 -8.653 c -0.832 -0.497 -1.811 -0.784 -2.856 -0.784 z" fill="#1890d0"/></g></clipPath><clipPath id="clipPath-205887570"><g transform="translate(0,-1004.3622)"><path d="m 24 1005.37 c -1.045 0 -2.023 0.287 -2.856 0.784 l -15.339 8.708 c -0.017 0.013 -0.035 0.013 -0.052 0.021 -1.852 1.051 -2.847 3 -2.746 4.968 l 0 17.02 c -0.056 1.013 0.175 2.049 0.729 2.993 0.532 0.903 1.288 1.602 2.161 2.061 l 15.246 8.653 c 0.832 0.497 1.811 0.784 2.856 0.784 1.045 0 2.023 -0.287 2.856 -0.784 l 15.246 -8.653 c 0.873 -0.46 1.629 -1.158 2.161 -2.061 0.554 -0.944 0.785 -1.981 0.729 -2.993 l 0 -17.01 c 0.056 -1.012 -0.175 -2.052 -0.729 -2.993 -0.532 -0.906 -1.288 -1.604 -2.161 -2.064 l -15.246 -8.653 c -0.832 -0.497 -1.811 -0.784 -2.856 -0.784 z" fill="#1890d0"/></g></clipPath><filter id="filter-178712458"><feGaussianBlur stdDeviation="0.35"/></filter></defs><g><g transform="translate(0,-1004.3622)"><path d="m 45 1037.36 c 0.056 1.013 -0.196 2.056 -0.75 3 -0.532 0.903 -1.283 1.603 -2.156 2.063 l -15.25 8.656 c -0.832 0.497 -1.799 0.781 -2.844 0.781 -1.045 0 -2.01 -0.284 -2.844 -0.781 l -15.25 -8.656 c -0.873 -0.46 -1.625 -1.159 -2.156 -2.063 -0.416 -0.708 -0.677 -1.485 -0.75 -2.25 -0.004 0.932 0.242 1.884 0.75 2.75 0.532 0.903 1.283 1.603 2.156 2.063 l 15.25 8.656 c 0.832 0.497 1.799 0.781 2.844 0.781 1.045 0 2.01 -0.284 2.844 -0.781 l 15.25 -8.656 c 0.873 -0.46 1.625 -1.159 2.156 -2.063 0.554 -0.944 0.806 -1.987 0.75 -3 l 0 -0.5 z" opacity="0.05"/><path d="m 45 1036.86 c 0.015 0.263 -0.004 0.516 -0.031 0.781 -0.036 0.844 -0.259 1.685 -0.719 2.469 -0.532 0.903 -1.283 1.603 -2.156 2.063 l -15.25 8.656 c -0.832 0.497 -1.799 0.781 -2.844 0.781 -1.045 0 -2.01 -0.284 -2.844 -0.781 l -15.25 -8.656 c -0.873 -0.46 -1.625 -1.159 -2.156 -2.063 -0.414 -0.705 -0.621 -1.46 -0.688 -2.219 -0.014 -0.092 -0.054 -0.189 -0.063 -0.281 -0.004 0.932 0.242 1.884 0.75 2.75 0.532 0.903 1.283 1.603 2.156 2.063 l 15.25 8.656 c 0.832 0.497 1.799 0.781 2.844 0.781 1.045 0 2.01 -0.284 2.844 -0.781 l 15.25 -8.656 c 0.873 -0.46 1.625 -1.159 2.156 -2.063 0.554 -0.944 0.806 -1.987 0.75 -3 l 0 -0.5 z m -41.813 1.625 c 0.057 0.219 0.132 0.442 0.219 0.656 -0.088 -0.216 -0.16 -0.436 -0.219 -0.656 z m 0.219 0.656 c 0.099 0.243 0.206 0.484 0.344 0.719 -0.139 -0.236 -0.243 -0.472 -0.344 -0.719 z m 41.41 -0.656 c -0.059 0.221 -0.131 0.441 -0.219 0.656 0.087 -0.215 0.161 -0.437 0.219 -0.656 z m -0.219 0.656 c -0.101 0.246 -0.205 0.483 -0.344 0.719 0.138 -0.235 0.245 -0.476 0.344 -0.719 z" opacity="0.1"/><path d="m 3.03 1037.64 c 0.035 0.844 0.259 1.685 0.719 2.469 0.532 0.903 1.283 1.603 2.156 2.063 l 15.25 8.656 c 0.832 0.497 1.799 0.781 2.844 0.781 1.045 0 2.01 -0.284 2.844 -0.781 l 15.25 -8.656 c 0.873 -0.46 1.625 -1.159 2.156 -2.063 0.46 -0.784 0.683 -1.624 0.719 -2.469 -0.067 0.763 -0.303 1.511 -0.719 2.219 -0.532 0.903 -1.283 1.603 -2.156 2.063 l -15.25 8.656 c -0.832 0.497 -1.799 0.781 -2.844 0.781 -1.045 0 -2.01 -0.284 -2.844 -0.781 l -15.25 -8.656 c -0.873 -0.46 -1.625 -1.159 -2.156 -2.063 -0.416 -0.708 -0.651 -1.456 -0.719 -2.219 z" opacity="0.2"/></g></g><g><path d="m 24 46.996 c 1.045 0 2.023 -0.287 2.856 -0.784 l 15.339 -8.708 c 0.017 -0.013 0.035 -0.013 0.052 -0.021 1.852 -1.051 2.847 -3 2.746 -4.968 l 0 -17.02 c 0.056 -1.013 -0.175 -2.049 -0.729 -2.993 -0.532 -0.903 -1.288 -1.602 -2.161 -2.061 l -15.246 -8.653 c -0.832 -0.497 -1.811 -0.784 -2.856 -0.784 -1.045 0 -2.023 0.287 -2.856 0.784 l -15.246 8.653 c -0.873 0.46 -1.629 1.158 -2.161 2.061 -0.554 0.944 -0.785 1.981 -0.729 2.993 l 0 17.01 c -0.056 1.012 0.175 2.051 0.729 2.993 0.532 0.906 1.288 1.604 2.161 2.064 l 15.246 8.653 c 0.832 0.497 1.811 0.785 2.856 0.785 z" fill="url(#linearGradient3764)" fill-opacity="1"/></g><g><g clip-path="url(#clipPath-197140093)"><g opacity="0.25"><g transform="translate(0,1)"><g filter="url(#filter-178712458)"><!-- color: #edea43 --><g><path d="m 28.26 36.949 c 1.094 0.41 6.699 -1.746 6.824 -2.438 c 0.313 -0.41 -0.105 -1.273 -0.105 -1.273 l -4.109 -11.613 c -0.586 -1.441 -2.488 -1.703 -2.879 -2.605 l -2.758 -5.879 c 0.563 -0.469 -0.223 -1.082 -0.43 -1.305 c 0.219 -0.609 -0.223 -0.496 -0.34 -0.535 c -1.199 0.336 -1.738 0.547 -2.984 1.102 c 0 0 -0.371 0.5 0.195 0.559 c 0.172 0.121 -0.461 1.324 0.496 1.305 l 1.656 6.348 c 0.211 1.098 -0.91 2.145 -0.551 3.535 l 4.531 12.12 c 0 0 0.207 0.57 0.453 0.676 m 0 0.004" fill="#000"/><path d="m 13.04 33.941 c 0.57 1.02 6.25 2.969 6.793 2.52 c 0.5 -0.113 0.734 -1.043 0.734 -1.043 l 4.316 -11.539 c 0.477 -1.48 -0.813 -2.902 -0.531 -3.844 l 1.668 -6.277 c 0.73 0.004 0.523 -0.973 0.508 -1.277 c 0.559 -0.324 0.152 -0.523 0.086 -0.629 c -1.133 -0.512 -1.684 -0.695 -2.996 -1.074 c 0 0 -0.602 0.148 -0.207 0.555 c 0.051 0.203 -1.203 0.719 -0.461 1.32 l -2.809 5.926 c -0.543 0.977 -2.078 1.055 -2.695 2.355 l -4.32 12.195 c 0 0 -0.207 0.57 -0.086 0.813 m 0 0" fill="#000"/></g></g></g></g></g></g><g><g clip-path="url(#clipPath-205887570)"><!-- color: #edea43 --><g><path d="m 28.26 36.949 c 1.094 0.41 6.699 -1.746 6.824 -2.438 c 0.313 -0.41 -0.105 -1.273 -0.105 -1.273 l -4.109 -11.613 c -0.586 -1.441 -2.488 -1.703 -2.879 -2.605 l -2.758 -5.879 c 0.563 -0.469 -0.223 -1.082 -0.43 -1.305 c 0.219 -0.609 -0.223 -0.496 -0.34 -0.535 c -1.199 0.336 -1.738 0.547 -2.984 1.102 c 0 0 -0.371 0.5 0.195 0.559 c 0.172 0.121 -0.461 1.324 0.496 1.305 l 1.656 6.348 c 0.211 1.098 -0.91 2.145 -0.551 3.535 l 4.531 12.12 c 0 0 0.207 0.57 0.453 0.676 m 0 0.004" fill="#634520"/><path d="m 13.04 33.941 c 0.57 1.02 6.25 2.969 6.793 2.52 c 0.5 -0.113 0.734 -1.043 0.734 -1.043 l 4.316 -11.539 c 0.477 -1.48 -0.813 -2.902 -0.531 -3.844 l 1.668 -6.277 c 0.73 0.004 0.523 -0.973 0.508 -1.277 c 0.559 -0.324 0.152 -0.523 0.086 -0.629 c -1.133 -0.512 -1.684 -0.695 -2.996 -1.074 c 0 0 -0.602 0.148 -0.207 0.555 c 0.051 0.203 -1.203 0.719 -0.461 1.32 l -2.809 5.926 c -0.543 0.977 -2.078 1.055 -2.695 2.355 l -4.32 12.195 c 0 0 -0.207 0.57 -0.086 0.813 m 0 0" fill="#369c20"/></g></g></g><g><path d="m 24 1 c -1.045 0 -2.01 0.284 -2.844 0.781 l -15.344 8.719 c -0.017 0.013 -0.045 0.023 -0.063 0.031 c -1.852 1.051 -2.851 3 -2.75 4.969 l 0 1 c -0.101 -1.966 0.898 -3.918 2.75 -4.969 c 0.017 -0.008 0.045 -0.018 0.063 -0.031 l 15.344 -8.719 c 0.832 -0.497 1.799 -0.781 2.844 -0.781 c 1.045 0 2.01 0.284 2.844 0.781 l 15.25 8.656 c 0.873 0.46 1.625 1.156 2.156 2.063 c 0.554 0.942 0.806 1.988 0.75 3 l 0 -1 c 0.056 -1.012 -0.196 -2.058 -0.75 -3 c -0.532 -0.906 -1.283 -1.603 -2.156 -2.063 l -15.25 -8.656 c -0.832 -0.497 -1.799 -0.781 -2.844 -0.781 z" opacity="0.2" fill="#fff"/></g></svg>