<svg viewBox="0 0 48 48"><defs><linearGradient id="linearGradient3764" y1="1" x2="0" y2="47" gradientUnits="userSpaceOnUse"><stop stop-color="#6ea531" stop-opacity="1"/><stop offset="1" stop-color="#63952d" stop-opacity="1"/></linearGradient><clipPath id="clipPath-032077285"><g transform="translate(0,-1004.3622)"><path d="m 24 1005.37 c -1.045 0 -2.023 0.287 -2.856 0.784 l -15.339 8.708 c -0.017 0.013 -0.035 0.013 -0.052 0.021 -1.852 1.051 -2.847 3 -2.746 4.968 l 0 17.02 c -0.056 1.013 0.175 2.049 0.729 2.993 0.532 0.903 1.288 1.602 2.161 2.061 l 15.246 8.653 c 0.832 0.497 1.811 0.784 2.856 0.784 1.045 0 2.023 -0.287 2.856 -0.784 l 15.246 -8.653 c 0.873 -0.46 1.629 -1.158 2.161 -2.061 0.554 -0.944 0.785 -1.981 0.729 -2.993 l 0 -17.01 c 0.056 -1.012 -0.175 -2.052 -0.729 -2.993 -0.532 -0.906 -1.288 -1.604 -2.161 -2.064 l -15.246 -8.653 c -0.832 -0.497 -1.811 -0.784 -2.856 -0.784 z" fill="#1890d0"/></g></clipPath><clipPath id="clipPath-043235345"><g transform="translate(0,-1004.3622)"><path d="m 24 1005.37 c -1.045 0 -2.023 0.287 -2.856 0.784 l -15.339 8.708 c -0.017 0.013 -0.035 0.013 -0.052 0.021 -1.852 1.051 -2.847 3 -2.746 4.968 l 0 17.02 c -0.056 1.013 0.175 2.049 0.729 2.993 0.532 0.903 1.288 1.602 2.161 2.061 l 15.246 8.653 c 0.832 0.497 1.811 0.784 2.856 0.784 1.045 0 2.023 -0.287 2.856 -0.784 l 15.246 -8.653 c 0.873 -0.46 1.629 -1.158 2.161 -2.061 0.554 -0.944 0.785 -1.981 0.729 -2.993 l 0 -17.01 c 0.056 -1.012 -0.175 -2.052 -0.729 -2.993 -0.532 -0.906 -1.288 -1.604 -2.161 -2.064 l -15.246 -8.653 c -0.832 -0.497 -1.811 -0.784 -2.856 -0.784 z" fill="#1890d0"/></g></clipPath><filter id="filter-006327614"><feGaussianBlur stdDeviation="0.35"/></filter></defs><g><g transform="translate(0,-1004.3622)"><path d="m 45 1037.36 c 0.056 1.013 -0.196 2.056 -0.75 3 -0.532 0.903 -1.283 1.603 -2.156 2.063 l -15.25 8.656 c -0.832 0.497 -1.799 0.781 -2.844 0.781 -1.045 0 -2.01 -0.284 -2.844 -0.781 l -15.25 -8.656 c -0.873 -0.46 -1.625 -1.159 -2.156 -2.063 -0.416 -0.708 -0.677 -1.485 -0.75 -2.25 -0.004 0.932 0.242 1.884 0.75 2.75 0.532 0.903 1.283 1.603 2.156 2.063 l 15.25 8.656 c 0.832 0.497 1.799 0.781 2.844 0.781 1.045 0 2.01 -0.284 2.844 -0.781 l 15.25 -8.656 c 0.873 -0.46 1.625 -1.159 2.156 -2.063 0.554 -0.944 0.806 -1.987 0.75 -3 l 0 -0.5 z" opacity="0.05"/><path d="m 45 1036.86 c 0.015 0.263 -0.004 0.516 -0.031 0.781 -0.036 0.844 -0.259 1.685 -0.719 2.469 -0.532 0.903 -1.283 1.603 -2.156 2.063 l -15.25 8.656 c -0.832 0.497 -1.799 0.781 -2.844 0.781 -1.045 0 -2.01 -0.284 -2.844 -0.781 l -15.25 -8.656 c -0.873 -0.46 -1.625 -1.159 -2.156 -2.063 -0.414 -0.705 -0.621 -1.46 -0.688 -2.219 -0.014 -0.092 -0.054 -0.189 -0.063 -0.281 -0.004 0.932 0.242 1.884 0.75 2.75 0.532 0.903 1.283 1.603 2.156 2.063 l 15.25 8.656 c 0.832 0.497 1.799 0.781 2.844 0.781 1.045 0 2.01 -0.284 2.844 -0.781 l 15.25 -8.656 c 0.873 -0.46 1.625 -1.159 2.156 -2.063 0.554 -0.944 0.806 -1.987 0.75 -3 l 0 -0.5 z m -41.813 1.625 c 0.057 0.219 0.132 0.442 0.219 0.656 -0.088 -0.216 -0.16 -0.436 -0.219 -0.656 z m 0.219 0.656 c 0.099 0.243 0.206 0.484 0.344 0.719 -0.139 -0.236 -0.243 -0.472 -0.344 -0.719 z m 41.41 -0.656 c -0.059 0.221 -0.131 0.441 -0.219 0.656 0.087 -0.215 0.161 -0.437 0.219 -0.656 z m -0.219 0.656 c -0.101 0.246 -0.205 0.483 -0.344 0.719 0.138 -0.235 0.245 -0.476 0.344 -0.719 z" opacity="0.1"/><path d="m 3.03 1037.64 c 0.035 0.844 0.259 1.685 0.719 2.469 0.532 0.903 1.283 1.603 2.156 2.063 l 15.25 8.656 c 0.832 0.497 1.799 0.781 2.844 0.781 1.045 0 2.01 -0.284 2.844 -0.781 l 15.25 -8.656 c 0.873 -0.46 1.625 -1.159 2.156 -2.063 0.46 -0.784 0.683 -1.624 0.719 -2.469 -0.067 0.763 -0.303 1.511 -0.719 2.219 -0.532 0.903 -1.283 1.603 -2.156 2.063 l -15.25 8.656 c -0.832 0.497 -1.799 0.781 -2.844 0.781 -1.045 0 -2.01 -0.284 -2.844 -0.781 l -15.25 -8.656 c -0.873 -0.46 -1.625 -1.159 -2.156 -2.063 -0.416 -0.708 -0.651 -1.456 -0.719 -2.219 z" opacity="0.2"/></g></g><g><path d="m 24 46.996 c 1.045 0 2.023 -0.287 2.856 -0.784 l 15.339 -8.708 c 0.017 -0.013 0.035 -0.013 0.052 -0.021 1.852 -1.051 2.847 -3 2.746 -4.968 l 0 -17.02 c 0.056 -1.013 -0.175 -2.049 -0.729 -2.993 -0.532 -0.903 -1.288 -1.602 -2.161 -2.061 l -15.246 -8.653 c -0.832 -0.497 -1.811 -0.784 -2.856 -0.784 -1.045 0 -2.023 0.287 -2.856 0.784 l -15.246 8.653 c -0.873 0.46 -1.629 1.158 -2.161 2.061 -0.554 0.944 -0.785 1.981 -0.729 2.993 l 0 17.01 c -0.056 1.012 0.175 2.051 0.729 2.993 0.532 0.906 1.288 1.604 2.161 2.064 l 15.246 8.653 c 0.832 0.497 1.811 0.785 2.856 0.785 z" fill="url(#linearGradient3764)" fill-opacity="1"/></g><g><g clip-path="url(#clipPath-032077285)"><g opacity="0.25"><g transform="translate(0,1)"><g filter="url(#filter-006327614)"><!-- color: #6ea531 --><path d="m 16 1.906 -0.844 0.25 -0.969 0.063 -0.594 0.438 l -0.781 -0.031 0.063 0.5 1.125 -0.031 0.406 1.094 0.156 0.594 -0.625 0.344 l -0.25 0.469 0.188 1.063 0.75 0.125 0.719 -0.688 0.625 -0.656 0.969 -0.25 1.219 -0.594 0.719 -0.875 1.031 -1.25 l 0.719 -0.188 -0.031 -0.281 -1.125 0 -3.469 -0.094 z m -2.219 0.063 -0.813 0.031 -1.406 0.375 -0.813 0.25 -0.938 -0.375 l -0.125 0.563 1.125 0.656 c 0 0 2.045 -1.125 2.156 -1.125 l 0.813 -0.375 z m 21.06 0.219 -0.188 0.313 1.156 0.156 0.063 -0.281 -1.031 -0.188 z m -8.875 0.188 c -0.056 0.022 -1.531 0.031 -1.531 0.031 l -0.375 0.094 l 0.5 0.594 0.531 -0.5 0.344 0.219 0.5 -0.25 c 0 0 0.088 -0.21 0.031 -0.188 z m 5.625 0.469 -0.469 0.063 -0.406 0.25 l -0.469 0.344 -0.281 0.5 l 0.438 0.438 0.375 0.031 0.156 -0.25 -0.375 -0.313 0.219 -0.188 l 0.031 -0.156 0.469 -0.313 c 0 0 0.608 0.008 0.656 0 0.048 -0.008 0.188 -0.188 0.188 -0.188 l -0.156 -0.219 -0.375 0 z m -25.875 0.188 -0.094 0.313 0.469 0.156 0.531 -0.25 -0.906 -0.219 z m 31.781 0.094 l -2.125 0.094 -0.563 0.375 -0.625 0.375 -0.531 0.438 0.063 0.188 -0.281 0.031 0 0.031 -4 0.656 l -3.656 2.688 l -0.375 0.281 -0.031 0 -0.25 -0.094 c 0 0 -0.155 0.008 -0.219 0.063 -0.064 0.055 -0.121 0.102 -0.313 0.125 -0.191 0.023 -0.562 0 -0.594 0 l -0.219 0 0.031 -0.219 0.156 -0.25 l -0.281 -0.219 c 0 0 -0.18 0.227 -0.188 0.281 -0.008 0.055 0.125 0.281 0.125 0.281 0 0 -0.062 0.18 -0.094 0.219 -0.032 0.039 -0.313 0.125 -0.313 0.125 l -0.438 -0.219 c 0 0 -0.18 -0.039 -0.156 0.063 0.024 0.102 0.219 0.195 0.219 0.281 0 0.086 -0.125 0.281 -0.125 0.281 l -0.156 0.188 -0.25 0.25 -0.344 0.094 c 0 0 -0.249 0.07 -0.313 0.094 -0.064 0.023 -0.25 0.063 -0.25 0.063 l -0.25 0.031 l -0.156 0.219 l 0.281 0.188 0.188 0.313 c 0 0 0.124 0.219 0.156 0.219 0.032 0 0.094 0.219 0.094 0.219 l -0.188 0.25 -0.063 0 -0.031 0 -0.656 0.125 -0.125 -0.281 -0.438 0.438 -0.188 0.719 0 0.594 0.75 0.406 0.594 -0.219 0.594 -1.063 0.531 -0.656 0.969 -0.156 0.219 -0.188 1.094 1.281 0.125 0.438 0.313 -0.156 -0.094 -0.375 0.188 0 -0.125 -0.25 -1.063 -1 0.094 -0.188 0.344 -0.031 0.75 0.75 0.375 0.438 0 0.688 0.188 0.125 0.375 0.375 0.281 -0.094 -0.156 -0.563 0.094 -0.344 0.188 -0.219 0.438 0.156 0.156 0.063 -0.031 -0.5 0.25 -0.469 0.156 -0.688 0.563 0.094 0.094 0.313 0.219 0.156 0.25 -0.219 -0.156 -0.344 0.656 0 -0.219 0.375 0.438 0.375 0.375 0.188 0.219 0.438 -0.5 0.125 -0.719 -0.156 -0.625 0 -0.594 0.313 -0.125 0.188 -0.438 0.094 0.188 0.469 0.344 0.406 0.625 -0.219 0.156 0.281 0.281 -0.219 0.375 0.063 0.031 0.406 -0.125 0.781 l -0.344 -0.031 -0.406 -0.063 -0.188 0.469 -1.375 -0.25 -0.25 -0.313 -0.313 0.281 -0.344 0.469 l -0.875 -0.5 -0.875 -0.531 0 -0.938 -0.563 0.031 l -0.031 0.313 -1.375 -0.063 -0.438 0.406 -0.844 0.031 l -0.563 0.5 -0.344 0.969 -0.875 0.688 -0.625 0.844 -0.031 1.625 -0.188 0.5 -0.063 0.594 0.375 0.656 0.219 0.625 0.75 0.906 0.438 0.375 0.438 0.094 0.094 -0.375 1.563 0 0.406 -0.188 0.5 0.063 0.156 0.313 0.531 0.031 0.344 0.25 0 0.531 -0.125 0.438 -0.125 0.344 0.313 0.563 l 0.406 0.469 0.188 1.188 0.031 0.781 -0.281 0.656 l -0.031 0.625 0.219 1.156 0.188 0.188 l 0.281 1.094 0.031 0.469 0.563 0.75 0.063 0.594 0.094 0.688 0.344 -0.344 l 0.875 -0.094 0.531 0 0.969 -1.5 0.063 -0.594 0.656 -0.656 0.031 -0.75 0.344 -0.75 0.813 -0.781 0 -0.875 -0.188 -0.813 -0.125 -1.125 0.594 -0.938 1.063 -1.313 0.406 -0.406 0.156 -0.531 0.25 -0.469 0.063 -0.688 -0.594 0 l -0.281 0.281 -0.563 -0.156 -0.344 -0.563 -0.281 -0.563 -0.656 -0.5 -0.156 -0.813 -0.281 -0.469 -0.313 -0.594 -0.406 -0.719 -0.094 -0.469 l 0.438 -0.063 0.25 0.531 0.5 0.938 0.375 0.688 0.406 0.75 0.438 0.719 0.594 0.594 0.531 -0.5 0.594 -0.156 0.438 -0.531 0.594 -0.344 0.344 -0.594 0.031 -0.5 -0.281 -0.313 -0.375 -0.438 -0.25 0.156 l -0.156 0.25 -0.406 -0.188 -0.125 -0.313 -0.281 -0.406 -0.438 -0.406 l 0 -0.813 0.281 0.531 0.344 0.531 0.594 0.344 0.406 -0.094 0.25 0.281 1.781 -0.031 -0.031 0.031 0.563 0.5 0.406 0.563 0.125 0.281 0.281 0 0.094 -0.313 0.094 0.469 0.156 0.844 0.344 0.813 0.188 0.688 0.281 0.656 0.219 0.281 0.313 -0.188 0.094 -0.313 0.125 -0.781 -0.031 -0.688 0.25 -0.313 c 0 0 0.265 -0.363 0.313 -0.375 0.048 -0.012 0.625 -0.656 0.625 -0.656 l 0.281 -0.344 0.313 -0.188 0.375 -0.219 0.156 0 0.063 0.344 0.156 0.406 0.5 0.656 0 0.25 0.094 0.281 0.344 -0.156 -0.031 -0.375 0.313 0.063 0.063 0.344 -0.031 0.531 0.094 0.375 0.281 0.063 0.094 -0.313 0.344 0.219 0.063 0.313 0.313 0.469 0.313 0.344 0.219 0.188 0.531 -0.469 0.219 -0.438 -0.094 -0.5 l -0.094 -0.656 -0.594 -0.563 -0.094 -0.563 0.25 -0.406 c 0 0 0.16 -0.322 0.313 -0.156 0.152 0.166 0.224 0.193 0.156 0.375 -0.068 0.182 -0.188 0.594 -0.188 0.594 l 0.375 0.156 0.156 -0.531 -0.156 -0.375 l 0.375 -0.156 0.688 -0.344 0.438 -0.531 0.344 -0.813 -0.031 -0.594 -0.344 -0.781 -0.688 -0.813 -0.438 -0.406 -0.219 -0.625 0.406 -0.094 c 0 0 0.235 -0.403 0.438 -0.188 0.203 0.215 0.5 0.531 0.5 0.531 0 0 0.356 0.559 0.406 0.625 0.051 0.066 0.418 0.402 0.469 0.469 0.051 0.066 0.281 0.313 0.281 0.313 l 0.375 -0.531 l 0.094 -0.094 0 -0.188 -0.531 -0.313 -0.469 -0.438 l 0.344 -0.75 0.563 -0.281 l 0.094 -0.25 0 -1.469 -0.281 -0.563 -0.313 -0.438 c 0 0 -0.322 -0.048 -0.406 -0.031 -0.085 0.017 -0.781 -0.5 -0.781 -0.5 l 0.063 -0.5 0.25 -0.438 l 1.188 -0.156 0.281 0.031 0 -0.313 -1.719 -2.25 -1.656 -0.188 -1.281 -0.313 c 0 0 -0.391 0.296 -0.594 0.313 -0.203 0.017 -0.906 0.125 -0.906 0.125 l -0.719 -0.438 -1.5 -0.125 -0.063 -0.031 -1.281 -0.063 -0.781 -0.438 z m -11.719 4.875 3.563 -2.688 -1.219 0.656 -0.313 -0.219 -0.156 -0.25 l 0.063 -0.25 0.688 0.031 0.313 -0.125 -0.625 -0.313 -0.875 -0.313 l -0.875 -0.156 -0.938 0.188 -0.969 0.781 -0.438 0.438 -0.656 0.719 -0.25 0.031 -0.094 0.344 0.125 0.344 c 0 0 0.134 0.156 0.156 0.156 0.023 0 0.25 -0.125 0.25 -0.125 0 0 0.027 -0.118 0.156 -0.156 0.13 -0.039 0.25 -0.063 0.25 -0.063 l 0.188 0.375 0.219 0.313 0.094 0.25 c 0 0 0.364 -0.222 0.375 -0.25 c 0.011 -0.028 0.031 -0.406 0.031 -0.406 l 0.281 -0.188 c 0 0 0.074 -0.134 0.063 -0.156 c -0.011 -0.022 -0.188 -0.219 -0.188 -0.219 l -0.156 -0.063 0.063 -0.313 c 0 0 0.125 -0.05 0.125 -0.094 0 -0.044 0.188 -0.188 0.188 -0.188 l 0.219 -0.281 0.156 -0.188 0.219 -0.156 l 0.25 0.188 0 0.125 -0.219 0.25 -0.063 0.25 0 0.344 0.188 0.156 l 0.344 -0.031 0.313 -0.063 0.281 0.156 -0.063 0.219 c 0 0 -0.194 0.188 -0.25 0.219 -0.056 0.031 -0.412 -0.063 -0.5 -0.031 -0.088 0.031 -0.313 0.313 -0.313 0.313 0 0 -0.024 0.25 0 0.313 0.009 0.025 0.009 0.064 0 0.125 z m 3.656 -2.688 4 -0.688 -0.031 -0.156 -0.313 -0.438 -0.656 -0.063 c 0 0 0.156 0.667 0.156 0.75 0 0.083 -0.438 0.031 -0.438 0.031 l -0.75 0.031 c 0 0 -1.084 0.25 -1.219 0.25 -0.13 0 -0.763 0.261 -0.813 0.281 l 0.063 0 z m -25.16 -1.813 l -0.5 0.563 0.438 0.219 0.563 -0.25 0.031 0.625 0.469 0.313 l 0.5 -0.469 0.688 0.125 0.281 -0.656 -1.125 -0.094 -1.344 -0.375 z m 3.125 0.094 0.438 1.094 -0.531 0.063 -0.406 0.5 -0.906 -0.281 -0.813 0.313 -0.781 -0.188 -0.906 -0.563 -1.25 0.031 -1.094 0.469 -0.719 -0.344 -0.438 -0.031 0 13.594 l 0.844 0.469 0.5 -0.063 l 0.719 0.344 l 1.094 0.594 0.156 0.719 0.875 0.844 0.5 -0.375 0.406 0.313 l -0.063 -0.719 -0.781 0.188 -0.25 -0.906 -0.094 -0.406 l -0.688 -0.625 0 -0.438 l 0.531 -0.563 -0.344 -0.406 -0.563 0.094 -0.844 0.844 -0.688 -0.094 c 0 0 -0.311 -0.531 -0.375 -0.656 -0.064 -0.125 0.188 -0.563 0.188 -0.563 l -0.063 -1.281 0.719 -0.5 0.563 -0.188 0.813 0 1.125 -0.25 0.406 0.531 -0.063 0.625 0.469 0.406 0.063 -0.438 c 0 0 -0.03 -0.719 -0.094 -0.906 -0.064 -0.187 0.563 -0.625 0.563 -0.625 l 0.5 -0.625 l 0.594 -0.719 0.281 -0.563 l 0.938 -0.5 0.625 -0.688 c 0 0 0.934 -0.156 1.125 -0.25 0.191 -0.094 0.066 -0.438 -0.125 -0.75 c -0.191 -0.312 0.094 -0.625 0.094 -0.625 l 0.719 -0.438 0.625 0.125 l 0.063 0.75 c 0 0 0.59 0.562 0.781 0.469 c 0.191 -0.094 0.281 -0.406 0.281 -0.406 l -0.313 -0.813 0.188 -0.813 -0.844 0.125 l 0 -0.844 0 -0.531 -0.25 0.25 l -0.656 0.031 -0.094 -0.688 -0.438 -0.531 c 0 0 -0.429 0.25 -0.844 0.406 c -0.415 0.156 -0.313 0.469 -0.313 0.469 l -0.031 0.844 -0.688 0.563 -0.438 0.656 c 0 0 -0.281 -0.188 -0.281 -0.313 0 -0.125 -0.063 -0.469 -0.063 -0.469 l -0.719 -0.563 c 0 0 -0.562 -0.406 -0.594 -0.531 -0.032 -0.125 0.344 -0.688 0.344 -0.688 0 0 0.809 -0.5 1 -0.656 0.191 -0.156 1.216 0.344 1.344 0.25 0.128 -0.094 0.625 -0.875 0.625 -0.875 l 0.438 -0.594 -0.438 0.5 -0.75 -0.719 0.125 -0.719 -1.031 -0.156 z m 2.5 0.031 -0.25 0.625 l 0.156 0.344 0.563 -0.063 0.25 0.469 l -0.5 0.531 -0.563 0.063 0.5 0.219 0.531 0.469 0.531 0.125 0.188 -0.719 0.031 -0.438 0.625 0.094 c 0 0 -0.189 0.313 -0.094 0.313 0.096 0 0.469 -0.406 0.469 -0.406 l -1.063 -1.094 c 0 0 -0.435 -0.344 -0.563 -0.25 c -0.128 0.094 -0.469 0.063 -0.469 0.063 l -0.344 -0.344 z m 8.688 1.781 -0.125 0.406 c 0.454 0.351 0.625 0.344 0.625 0.344 l 0.531 -0.125 0.344 -0.344 -0.219 -0.281 l -0.719 0 -0.438 0 z m 2.781 1.781 -0.25 0.219 c -0.072 0.305 -0.156 0.625 -0.156 0.625 l 0.469 0.219 0.063 0.281 l -0.25 0.25 -0.219 0.375 l 0.156 0.156 0.563 -0.094 0.5 -0.219 -0.281 -0.375 -0.094 -0.656 -0.344 -0.375 -0.156 -0.406 z m -0.781 1.188 -0.281 0.469 0.375 0.156 0.156 -0.281 -0.25 -0.344 z m -15.438 1.094 0.656 0.281 0.438 0.563 0.281 0.438 c 0 0 -0.249 0.844 -0.313 1 -0.064 0.156 -0.25 -0.313 -0.25 -0.313 l -0.156 -0.813 -0.531 0.219 -0.406 0.969 0.094 -0.813 0.125 -0.563 -0.656 -0.25 0.563 -0.531 0.156 -0.188 z m 26.375 0.75 c 0.135 -0.044 0.375 0.156 0.375 0.156 l -0.25 0.219 0.094 0.313 0.281 0.75 0.281 0.469 0.375 0.594 -0.406 0.188 l -0.531 -0.344 -0.219 -0.656 c 0 0 -0.302 -0.402 -0.438 -0.469 -0.135 -0.066 -0.25 -0.281 -0.25 -0.281 l 0.125 -0.531 c 0 0 0.427 -0.362 0.563 -0.406 z m -7.906 1.188 -0.375 0.719 0.281 0.281 0.25 -0.219 0.031 -0.313 -0.188 -0.469 z m -1.25 0.75 0 0.188 0.156 -0.031 -0.156 -0.156 z m 2.156 0.469 -0.188 0.063 0.313 0.531 l 0.281 -0.219 -0.406 -0.375 z m -20.12 4.188 -0.313 0.156 0.531 0.281 0.594 0.125 0.344 0.469 0.406 -0.25 -0.063 -0.281 -0.688 -0.5 -0.813 0 z m 1.688 3.094 -0.813 0.438 l -0.094 0.906 -0.188 1 -0.563 0.75 0.031 1.125 0.469 1.156 0.5 1.406 1.313 1.313 0.063 0.75 0.094 3.375 0.469 1.906 c 0 0 0.286 1.099 0.219 1.188 -0.068 0.088 0.375 0.906 0.375 0.906 l 0.875 1.375 1.219 0.531 -0.5 -0.594 -0.25 -0.688 0.25 -0.719 -0.656 -0.344 c 0 0 0.432 -0.287 0.5 -0.375 c 0.068 -0.088 -0.094 -0.469 -0.094 -0.469 l -0.188 -0.469 l 0.5 -0.656 0.781 -0.188 0.125 -0.594 -0.469 -0.219 0.188 -0.5 l 0.75 -0.094 0.656 -1.594 0.469 -1.094 0.969 -0.469 c 0 0 0.313 -0.93 0.313 -1.063 c 0 -0.133 0.094 -1.531 0.094 -1.531 l 0.75 -1.031 0.094 -0.688 l -0.563 -0.344 -0.469 -0.563 -0.844 0.063 -1.344 -0.781 -0.281 -0.656 c 0 0 -0.472 -0.813 -0.563 -0.813 -0.09 0 -0.656 0.031 -0.656 0.031 l -0.531 -0.531 -0.344 -0.656 -1.344 -0.281 l -0.438 -0.219 -0.875 0 z m 36.438 0.5 c 0.113 0.133 0.816 2.219 0.906 2.219 0.09 0 0.625 0.063 0.625 0.063 l -0.281 -0.844 -1.25 -1.438 z m -3.594 0.063 -0.313 0.406 0.156 0.594 0.344 -0.375 -0.063 -0.469 -0.125 -0.156 z m 8.094 0.719 -1.469 0.813 c 0 0.088 -0.719 0.688 -0.719 0.688 l 0.188 0.625 0.406 0.469 0.281 0.688 1.875 -1.219 -0.563 -2.063 z m -4.594 0.438 -0.438 0.063 l 2 3 0.531 0.594 1.313 0.063 0.813 0.25 -0.875 -0.625 -1.25 -0.344 -0.313 -1.156 -0.688 -0.563 l -1.094 -1.281 z m -10.5 4.875 0 0.438 c -0.023 0.066 -0.406 0.375 -0.406 0.375 l -0.469 0.219 -0.344 0.281 0.25 0.344 0.156 0.156 -0.406 0.344 0 0.563 0.156 0.594 0.344 0.094 0.406 -0.625 0.25 -0.406 -0.063 -0.5 0.375 -0.594 0.125 -0.281 0 -0.563 -0.094 -0.438 -0.281 0 z m 16.06 0.719 c -0.003 0.002 -0.031 0.031 -0.031 0.031 l -0.5 1.031 c 0 0 -1.102 0.162 -1.125 0.25 -0.023 0.088 -0.563 0.375 -0.563 0.375 -0.113 0 -0.469 0.656 -0.469 0.656 l -0.063 2.063 -0.125 0.75 0.313 0.406 1.531 -0.531 0.5 -0.563 0.531 0 0 -4.469 z m -36.531 8.75 -0.219 0.156 -0.094 0.031 0.5 0.25 -0.188 -0.438 z m -0.844 0.188 -0.219 0.5 0.438 -0.094 -0.219 -0.406 z m 1.5 4.125 l -0.469 0.719 l -0.875 0.406 0.5 0.625 -0.75 0.375 -2.469 -0.125 -0.75 -0.75 -0.656 -0.125 0.656 1.375 l -1.156 -0.219 -3.969 0.125 -0.844 1.094 -1.219 -0.125 -0.125 0.25 0 4.094 45.28 0 2.719 -1.781 0 -1.906 -0.125 -1.188 -0.969 -0.219 -1.219 0.156 l -0.875 0.781 -1.469 0.594 0.625 -0.75 1.344 -0.781 2.156 -0.5 0.25 -0.875 -1 0 c 0 0 -1.344 -0.667 -1.344 -0.844 0 -0.177 -1.5 -0.125 -1.5 -0.125 l -1.719 0.188 -1.656 -0.094 l -3.313 0.125 -3.063 0.625 c 0 0 -1.476 0.794 -1.656 0.75 -0.18 -0.044 0.625 -1.031 0.625 -1.031 l -1.438 0.094 -0.906 -0.75 -0.906 0.625 c 0 0 -1.216 0.094 -1.531 0.094 -0.316 0 -0.719 0.563 -0.719 0.563 l -2.469 -0.094 -4.25 0.188 -1.125 0.969 -0.281 0.031 -3.219 -0.219 l -2.219 0.219 -0.781 -0.375 0.031 -0.063 c 0 0 -0.656 -1.323 -0.656 -1.5 0 -0.177 -0.5 -0.625 -0.5 -0.625 z m 0.344 3.188 1.344 0.438 -1.656 0 l -0.656 -0.344 0.969 -0.094 z" fill-opacity="0.333" fill="#000"/><path d="m 16.438 13 c -0.27 -0.094 -0.293 0.324 -0.25 1.313 l 0.063 1.219 -0.375 0.375 c -0.422 0.422 -0.355 0.438 -3.219 0.125 c -2.078 -0.227 -4.336 0.152 -6.156 1.063 -3.255 1.943 -4.5 3.473 -6.5 6.906 -0.01 1.012 0 2.086 0 3 2.59 -3 5.329 -4.796 8.313 -5.219 0.25 -0.031 0.52 -0.031 0.781 -0.031 c 0.781 -0.012 1.563 0.094 2.063 0.313 l 0.406 0.188 -0.938 0.031 c -5.209 0.801 -7.03 3.223 -10.625 6.719 c 0 0.245 0 0.645 0 1 3 -3 5.525 -5.737 8.813 -6.813 1.668 -0.52 4.02 -0.301 4.719 0.438 0.25 0.266 0.254 0.32 0.063 0.531 -0.27 0.301 -1.711 0.922 -2.344 1.031 l -0.5 0.094 0.281 0.188 c 0.16 0.105 0.703 0.328 1.188 0.469 0.738 0.215 1.191 0.27 2.781 0.281 1.855 0.012 1.926 -0.008 2.25 0.281 0.367 0.328 0.789 0.77 3.375 3.406 2.805 2.859 3.871 3.535 4.563 2.844 0.219 -0.219 0.246 -0.336 0.188 -0.969 -0.039 -0.398 -0.156 -0.949 -0.25 -1.219 -0.16 -0.449 -0.152 -0.566 0.063 -1.25 c 0.297 -0.945 0.336 -2.551 0.063 -3.688 -0.281 -1.164 -1.324 -3.246 -2.25 -4.469 -0.438 -0.574 -1.43 -1.652 -2.188 -2.406 -1.285 -1.277 -1.414 -1.414 -1.656 -2.156 -0.324 -0.996 -0.922 -1.934 -1.906 -2.906 -0.387 -0.379 -0.652 -0.629 -0.813 -0.688 z" fill="#000"/></g></g></g></g></g><g><g clip-path="url(#clipPath-043235345)"><!-- color: #6ea531 --><path d="m 16 1.906 -0.844 0.25 -0.969 0.063 -0.594 0.438 l -0.781 -0.031 0.063 0.5 1.125 -0.031 0.406 1.094 0.156 0.594 -0.625 0.344 l -0.25 0.469 0.188 1.063 0.75 0.125 0.719 -0.688 0.625 -0.656 0.969 -0.25 1.219 -0.594 0.719 -0.875 1.031 -1.25 l 0.719 -0.188 -0.031 -0.281 -1.125 0 -3.469 -0.094 z m -2.219 0.063 -0.813 0.031 -1.406 0.375 -0.813 0.25 -0.938 -0.375 l -0.125 0.563 1.125 0.656 c 0 0 2.045 -1.125 2.156 -1.125 l 0.813 -0.375 z m 21.06 0.219 -0.188 0.313 1.156 0.156 0.063 -0.281 -1.031 -0.188 z m -8.875 0.188 c -0.056 0.022 -1.531 0.031 -1.531 0.031 l -0.375 0.094 l 0.5 0.594 0.531 -0.5 0.344 0.219 0.5 -0.25 c 0 0 0.088 -0.21 0.031 -0.188 z m 5.625 0.469 -0.469 0.063 -0.406 0.25 l -0.469 0.344 -0.281 0.5 l 0.438 0.438 0.375 0.031 0.156 -0.25 -0.375 -0.313 0.219 -0.188 l 0.031 -0.156 0.469 -0.313 c 0 0 0.608 0.008 0.656 0 0.048 -0.008 0.188 -0.188 0.188 -0.188 l -0.156 -0.219 -0.375 0 z m -25.875 0.188 -0.094 0.313 0.469 0.156 0.531 -0.25 -0.906 -0.219 z m 31.781 0.094 l -2.125 0.094 -0.563 0.375 -0.625 0.375 -0.531 0.438 0.063 0.188 -0.281 0.031 0 0.031 -4 0.656 l -3.656 2.688 l -0.375 0.281 -0.031 0 -0.25 -0.094 c 0 0 -0.155 0.008 -0.219 0.063 -0.064 0.055 -0.121 0.102 -0.313 0.125 -0.191 0.023 -0.562 0 -0.594 0 l -0.219 0 0.031 -0.219 0.156 -0.25 l -0.281 -0.219 c 0 0 -0.18 0.227 -0.188 0.281 -0.008 0.055 0.125 0.281 0.125 0.281 0 0 -0.062 0.18 -0.094 0.219 -0.032 0.039 -0.313 0.125 -0.313 0.125 l -0.438 -0.219 c 0 0 -0.18 -0.039 -0.156 0.063 0.024 0.102 0.219 0.195 0.219 0.281 0 0.086 -0.125 0.281 -0.125 0.281 l -0.156 0.188 -0.25 0.25 -0.344 0.094 c 0 0 -0.249 0.07 -0.313 0.094 -0.064 0.023 -0.25 0.063 -0.25 0.063 l -0.25 0.031 l -0.156 0.219 l 0.281 0.188 0.188 0.313 c 0 0 0.124 0.219 0.156 0.219 0.032 0 0.094 0.219 0.094 0.219 l -0.188 0.25 -0.063 0 -0.031 0 -0.656 0.125 -0.125 -0.281 -0.438 0.438 -0.188 0.719 0 0.594 0.75 0.406 0.594 -0.219 0.594 -1.063 0.531 -0.656 0.969 -0.156 0.219 -0.188 1.094 1.281 0.125 0.438 0.313 -0.156 -0.094 -0.375 0.188 0 -0.125 -0.25 -1.063 -1 0.094 -0.188 0.344 -0.031 0.75 0.75 0.375 0.438 0 0.688 0.188 0.125 0.375 0.375 0.281 -0.094 -0.156 -0.563 0.094 -0.344 0.188 -0.219 0.438 0.156 0.156 0.063 -0.031 -0.5 0.25 -0.469 0.156 -0.688 0.563 0.094 0.094 0.313 0.219 0.156 0.25 -0.219 -0.156 -0.344 0.656 0 -0.219 0.375 0.438 0.375 0.375 0.188 0.219 0.438 -0.5 0.125 -0.719 -0.156 -0.625 0 -0.594 0.313 -0.125 0.188 -0.438 0.094 0.188 0.469 0.344 0.406 0.625 -0.219 0.156 0.281 0.281 -0.219 0.375 0.063 0.031 0.406 -0.125 0.781 l -0.344 -0.031 -0.406 -0.063 -0.188 0.469 -1.375 -0.25 -0.25 -0.313 -0.313 0.281 -0.344 0.469 l -0.875 -0.5 -0.875 -0.531 0 -0.938 -0.563 0.031 l -0.031 0.313 -1.375 -0.063 -0.438 0.406 -0.844 0.031 l -0.563 0.5 -0.344 0.969 -0.875 0.688 -0.625 0.844 -0.031 1.625 -0.188 0.5 -0.063 0.594 0.375 0.656 0.219 0.625 0.75 0.906 0.438 0.375 0.438 0.094 0.094 -0.375 1.563 0 0.406 -0.188 0.5 0.063 0.156 0.313 0.531 0.031 0.344 0.25 0 0.531 -0.125 0.438 -0.125 0.344 0.313 0.563 l 0.406 0.469 0.188 1.188 0.031 0.781 -0.281 0.656 l -0.031 0.625 0.219 1.156 0.188 0.188 l 0.281 1.094 0.031 0.469 0.563 0.75 0.063 0.594 0.094 0.688 0.344 -0.344 l 0.875 -0.094 0.531 0 0.969 -1.5 0.063 -0.594 0.656 -0.656 0.031 -0.75 0.344 -0.75 0.813 -0.781 0 -0.875 -0.188 -0.813 -0.125 -1.125 0.594 -0.938 1.063 -1.313 0.406 -0.406 0.156 -0.531 0.25 -0.469 0.063 -0.688 -0.594 0 l -0.281 0.281 -0.563 -0.156 -0.344 -0.563 -0.281 -0.563 -0.656 -0.5 -0.156 -0.813 -0.281 -0.469 -0.313 -0.594 -0.406 -0.719 -0.094 -0.469 l 0.438 -0.063 0.25 0.531 0.5 0.938 0.375 0.688 0.406 0.75 0.438 0.719 0.594 0.594 0.531 -0.5 0.594 -0.156 0.438 -0.531 0.594 -0.344 0.344 -0.594 0.031 -0.5 -0.281 -0.313 -0.375 -0.438 -0.25 0.156 l -0.156 0.25 -0.406 -0.188 -0.125 -0.313 -0.281 -0.406 -0.438 -0.406 l 0 -0.813 0.281 0.531 0.344 0.531 0.594 0.344 0.406 -0.094 0.25 0.281 1.781 -0.031 -0.031 0.031 0.563 0.5 0.406 0.563 0.125 0.281 0.281 0 0.094 -0.313 0.094 0.469 0.156 0.844 0.344 0.813 0.188 0.688 0.281 0.656 0.219 0.281 0.313 -0.188 0.094 -0.313 0.125 -0.781 -0.031 -0.688 0.25 -0.313 c 0 0 0.265 -0.363 0.313 -0.375 0.048 -0.012 0.625 -0.656 0.625 -0.656 l 0.281 -0.344 0.313 -0.188 0.375 -0.219 0.156 0 0.063 0.344 0.156 0.406 0.5 0.656 0 0.25 0.094 0.281 0.344 -0.156 -0.031 -0.375 0.313 0.063 0.063 0.344 -0.031 0.531 0.094 0.375 0.281 0.063 0.094 -0.313 0.344 0.219 0.063 0.313 0.313 0.469 0.313 0.344 0.219 0.188 0.531 -0.469 0.219 -0.438 -0.094 -0.5 l -0.094 -0.656 -0.594 -0.563 -0.094 -0.563 0.25 -0.406 c 0 0 0.16 -0.322 0.313 -0.156 0.152 0.166 0.224 0.193 0.156 0.375 -0.068 0.182 -0.188 0.594 -0.188 0.594 l 0.375 0.156 0.156 -0.531 -0.156 -0.375 l 0.375 -0.156 0.688 -0.344 0.438 -0.531 0.344 -0.813 -0.031 -0.594 -0.344 -0.781 -0.688 -0.813 -0.438 -0.406 -0.219 -0.625 0.406 -0.094 c 0 0 0.235 -0.403 0.438 -0.188 0.203 0.215 0.5 0.531 0.5 0.531 0 0 0.356 0.559 0.406 0.625 0.051 0.066 0.418 0.402 0.469 0.469 0.051 0.066 0.281 0.313 0.281 0.313 l 0.375 -0.531 l 0.094 -0.094 0 -0.188 -0.531 -0.313 -0.469 -0.438 l 0.344 -0.75 0.563 -0.281 l 0.094 -0.25 0 -1.469 -0.281 -0.563 -0.313 -0.438 c 0 0 -0.322 -0.048 -0.406 -0.031 -0.085 0.017 -0.781 -0.5 -0.781 -0.5 l 0.063 -0.5 0.25 -0.438 l 1.188 -0.156 0.281 0.031 0 -0.313 -1.719 -2.25 -1.656 -0.188 -1.281 -0.313 c 0 0 -0.391 0.296 -0.594 0.313 -0.203 0.017 -0.906 0.125 -0.906 0.125 l -0.719 -0.438 -1.5 -0.125 -0.063 -0.031 -1.281 -0.063 -0.781 -0.438 z m -11.719 4.875 3.563 -2.688 -1.219 0.656 -0.313 -0.219 -0.156 -0.25 l 0.063 -0.25 0.688 0.031 0.313 -0.125 -0.625 -0.313 -0.875 -0.313 l -0.875 -0.156 -0.938 0.188 -0.969 0.781 -0.438 0.438 -0.656 0.719 -0.25 0.031 -0.094 0.344 0.125 0.344 c 0 0 0.134 0.156 0.156 0.156 0.023 0 0.25 -0.125 0.25 -0.125 0 0 0.027 -0.118 0.156 -0.156 0.13 -0.039 0.25 -0.063 0.25 -0.063 l 0.188 0.375 0.219 0.313 0.094 0.25 c 0 0 0.364 -0.222 0.375 -0.25 c 0.011 -0.028 0.031 -0.406 0.031 -0.406 l 0.281 -0.188 c 0 0 0.074 -0.134 0.063 -0.156 c -0.011 -0.022 -0.188 -0.219 -0.188 -0.219 l -0.156 -0.063 0.063 -0.313 c 0 0 0.125 -0.05 0.125 -0.094 0 -0.044 0.188 -0.188 0.188 -0.188 l 0.219 -0.281 0.156 -0.188 0.219 -0.156 l 0.25 0.188 0 0.125 -0.219 0.25 -0.063 0.25 0 0.344 0.188 0.156 l 0.344 -0.031 0.313 -0.063 0.281 0.156 -0.063 0.219 c 0 0 -0.194 0.188 -0.25 0.219 -0.056 0.031 -0.412 -0.063 -0.5 -0.031 -0.088 0.031 -0.313 0.313 -0.313 0.313 0 0 -0.024 0.25 0 0.313 0.009 0.025 0.009 0.064 0 0.125 z m 3.656 -2.688 4 -0.688 -0.031 -0.156 -0.313 -0.438 -0.656 -0.063 c 0 0 0.156 0.667 0.156 0.75 0 0.083 -0.438 0.031 -0.438 0.031 l -0.75 0.031 c 0 0 -1.084 0.25 -1.219 0.25 -0.13 0 -0.763 0.261 -0.813 0.281 l 0.063 0 z m -25.16 -1.813 l -0.5 0.563 0.438 0.219 0.563 -0.25 0.031 0.625 0.469 0.313 l 0.5 -0.469 0.688 0.125 0.281 -0.656 -1.125 -0.094 -1.344 -0.375 z m 3.125 0.094 0.438 1.094 -0.531 0.063 -0.406 0.5 -0.906 -0.281 -0.813 0.313 -0.781 -0.188 -0.906 -0.563 -1.25 0.031 -1.094 0.469 -0.719 -0.344 -0.438 -0.031 0 13.594 l 0.844 0.469 0.5 -0.063 l 0.719 0.344 l 1.094 0.594 0.156 0.719 0.875 0.844 0.5 -0.375 0.406 0.313 l -0.063 -0.719 -0.781 0.188 -0.25 -0.906 -0.094 -0.406 l -0.688 -0.625 0 -0.438 l 0.531 -0.563 -0.344 -0.406 -0.563 0.094 -0.844 0.844 -0.688 -0.094 c 0 0 -0.311 -0.531 -0.375 -0.656 -0.064 -0.125 0.188 -0.563 0.188 -0.563 l -0.063 -1.281 0.719 -0.5 0.563 -0.188 0.813 0 1.125 -0.25 0.406 0.531 -0.063 0.625 0.469 0.406 0.063 -0.438 c 0 0 -0.03 -0.719 -0.094 -0.906 -0.064 -0.187 0.563 -0.625 0.563 -0.625 l 0.5 -0.625 l 0.594 -0.719 0.281 -0.563 l 0.938 -0.5 0.625 -0.688 c 0 0 0.934 -0.156 1.125 -0.25 0.191 -0.094 0.066 -0.438 -0.125 -0.75 c -0.191 -0.312 0.094 -0.625 0.094 -0.625 l 0.719 -0.438 0.625 0.125 l 0.063 0.75 c 0 0 0.59 0.562 0.781 0.469 c 0.191 -0.094 0.281 -0.406 0.281 -0.406 l -0.313 -0.813 0.188 -0.813 -0.844 0.125 l 0 -0.844 0 -0.531 -0.25 0.25 l -0.656 0.031 -0.094 -0.688 -0.438 -0.531 c 0 0 -0.429 0.25 -0.844 0.406 c -0.415 0.156 -0.313 0.469 -0.313 0.469 l -0.031 0.844 -0.688 0.563 -0.438 0.656 c 0 0 -0.281 -0.188 -0.281 -0.313 0 -0.125 -0.063 -0.469 -0.063 -0.469 l -0.719 -0.563 c 0 0 -0.562 -0.406 -0.594 -0.531 -0.032 -0.125 0.344 -0.688 0.344 -0.688 0 0 0.809 -0.5 1 -0.656 0.191 -0.156 1.216 0.344 1.344 0.25 0.128 -0.094 0.625 -0.875 0.625 -0.875 l 0.438 -0.594 -0.438 0.5 -0.75 -0.719 0.125 -0.719 -1.031 -0.156 z m 2.5 0.031 -0.25 0.625 l 0.156 0.344 0.563 -0.063 0.25 0.469 l -0.5 0.531 -0.563 0.063 0.5 0.219 0.531 0.469 0.531 0.125 0.188 -0.719 0.031 -0.438 0.625 0.094 c 0 0 -0.189 0.313 -0.094 0.313 0.096 0 0.469 -0.406 0.469 -0.406 l -1.063 -1.094 c 0 0 -0.435 -0.344 -0.563 -0.25 c -0.128 0.094 -0.469 0.063 -0.469 0.063 l -0.344 -0.344 z m 8.688 1.781 -0.125 0.406 c 0.454 0.351 0.625 0.344 0.625 0.344 l 0.531 -0.125 0.344 -0.344 -0.219 -0.281 l -0.719 0 -0.438 0 z m 2.781 1.781 -0.25 0.219 c -0.072 0.305 -0.156 0.625 -0.156 0.625 l 0.469 0.219 0.063 0.281 l -0.25 0.25 -0.219 0.375 l 0.156 0.156 0.563 -0.094 0.5 -0.219 -0.281 -0.375 -0.094 -0.656 -0.344 -0.375 -0.156 -0.406 z m -0.781 1.188 -0.281 0.469 0.375 0.156 0.156 -0.281 -0.25 -0.344 z m -15.438 1.094 0.656 0.281 0.438 0.563 0.281 0.438 c 0 0 -0.249 0.844 -0.313 1 -0.064 0.156 -0.25 -0.313 -0.25 -0.313 l -0.156 -0.813 -0.531 0.219 -0.406 0.969 0.094 -0.813 0.125 -0.563 -0.656 -0.25 0.563 -0.531 0.156 -0.188 z m 26.375 0.75 c 0.135 -0.044 0.375 0.156 0.375 0.156 l -0.25 0.219 0.094 0.313 0.281 0.75 0.281 0.469 0.375 0.594 -0.406 0.188 l -0.531 -0.344 -0.219 -0.656 c 0 0 -0.302 -0.402 -0.438 -0.469 -0.135 -0.066 -0.25 -0.281 -0.25 -0.281 l 0.125 -0.531 c 0 0 0.427 -0.362 0.563 -0.406 z m -7.906 1.188 -0.375 0.719 0.281 0.281 0.25 -0.219 0.031 -0.313 -0.188 -0.469 z m -1.25 0.75 0 0.188 0.156 -0.031 -0.156 -0.156 z m 2.156 0.469 -0.188 0.063 0.313 0.531 l 0.281 -0.219 -0.406 -0.375 z m -20.12 4.188 -0.313 0.156 0.531 0.281 0.594 0.125 0.344 0.469 0.406 -0.25 -0.063 -0.281 -0.688 -0.5 -0.813 0 z m 1.688 3.094 -0.813 0.438 l -0.094 0.906 -0.188 1 -0.563 0.75 0.031 1.125 0.469 1.156 0.5 1.406 1.313 1.313 0.063 0.75 0.094 3.375 0.469 1.906 c 0 0 0.286 1.099 0.219 1.188 -0.068 0.088 0.375 0.906 0.375 0.906 l 0.875 1.375 1.219 0.531 -0.5 -0.594 -0.25 -0.688 0.25 -0.719 -0.656 -0.344 c 0 0 0.432 -0.287 0.5 -0.375 c 0.068 -0.088 -0.094 -0.469 -0.094 -0.469 l -0.188 -0.469 l 0.5 -0.656 0.781 -0.188 0.125 -0.594 -0.469 -0.219 0.188 -0.5 l 0.75 -0.094 0.656 -1.594 0.469 -1.094 0.969 -0.469 c 0 0 0.313 -0.93 0.313 -1.063 c 0 -0.133 0.094 -1.531 0.094 -1.531 l 0.75 -1.031 0.094 -0.688 l -0.563 -0.344 -0.469 -0.563 -0.844 0.063 -1.344 -0.781 -0.281 -0.656 c 0 0 -0.472 -0.813 -0.563 -0.813 -0.09 0 -0.656 0.031 -0.656 0.031 l -0.531 -0.531 -0.344 -0.656 -1.344 -0.281 l -0.438 -0.219 -0.875 0 z m 36.438 0.5 c 0.113 0.133 0.816 2.219 0.906 2.219 0.09 0 0.625 0.063 0.625 0.063 l -0.281 -0.844 -1.25 -1.438 z m -3.594 0.063 -0.313 0.406 0.156 0.594 0.344 -0.375 -0.063 -0.469 -0.125 -0.156 z m 8.094 0.719 -1.469 0.813 c 0 0.088 -0.719 0.688 -0.719 0.688 l 0.188 0.625 0.406 0.469 0.281 0.688 1.875 -1.219 -0.563 -2.063 z m -4.594 0.438 -0.438 0.063 l 2 3 0.531 0.594 1.313 0.063 0.813 0.25 -0.875 -0.625 -1.25 -0.344 -0.313 -1.156 -0.688 -0.563 l -1.094 -1.281 z m -10.5 4.875 0 0.438 c -0.023 0.066 -0.406 0.375 -0.406 0.375 l -0.469 0.219 -0.344 0.281 0.25 0.344 0.156 0.156 -0.406 0.344 0 0.563 0.156 0.594 0.344 0.094 0.406 -0.625 0.25 -0.406 -0.063 -0.5 0.375 -0.594 0.125 -0.281 0 -0.563 -0.094 -0.438 -0.281 0 z m 16.06 0.719 c -0.003 0.002 -0.031 0.031 -0.031 0.031 l -0.5 1.031 c 0 0 -1.102 0.162 -1.125 0.25 -0.023 0.088 -0.563 0.375 -0.563 0.375 -0.113 0 -0.469 0.656 -0.469 0.656 l -0.063 2.063 -0.125 0.75 0.313 0.406 1.531 -0.531 0.5 -0.563 0.531 0 0 -4.469 z m -36.531 8.75 -0.219 0.156 -0.094 0.031 0.5 0.25 -0.188 -0.438 z m -0.844 0.188 -0.219 0.5 0.438 -0.094 -0.219 -0.406 z m 1.5 4.125 l -0.469 0.719 l -0.875 0.406 0.5 0.625 -0.75 0.375 -2.469 -0.125 -0.75 -0.75 -0.656 -0.125 0.656 1.375 l -1.156 -0.219 -3.969 0.125 -0.844 1.094 -1.219 -0.125 -0.125 0.25 0 4.094 45.28 0 2.719 -1.781 0 -1.906 -0.125 -1.188 -0.969 -0.219 -1.219 0.156 l -0.875 0.781 -1.469 0.594 0.625 -0.75 1.344 -0.781 2.156 -0.5 0.25 -0.875 -1 0 c 0 0 -1.344 -0.667 -1.344 -0.844 0 -0.177 -1.5 -0.125 -1.5 -0.125 l -1.719 0.188 -1.656 -0.094 l -3.313 0.125 -3.063 0.625 c 0 0 -1.476 0.794 -1.656 0.75 -0.18 -0.044 0.625 -1.031 0.625 -1.031 l -1.438 0.094 -0.906 -0.75 -0.906 0.625 c 0 0 -1.216 0.094 -1.531 0.094 -0.316 0 -0.719 0.563 -0.719 0.563 l -2.469 -0.094 -4.25 0.188 -1.125 0.969 -0.281 0.031 -3.219 -0.219 l -2.219 0.219 -0.781 -0.375 0.031 -0.063 c 0 0 -0.656 -1.323 -0.656 -1.5 0 -0.177 -0.5 -0.625 -0.5 -0.625 z m 0.344 3.188 1.344 0.438 -1.656 0 l -0.656 -0.344 0.969 -0.094 z" fill="#f8f8f8" fill-opacity="0.333"/><path d="m 16.438 13 c -0.27 -0.094 -0.293 0.324 -0.25 1.313 l 0.063 1.219 -0.375 0.375 c -0.422 0.422 -0.355 0.438 -3.219 0.125 c -2.078 -0.227 -4.336 0.152 -6.156 1.063 -3.255 1.943 -4.5 3.473 -6.5 6.906 -0.01 1.012 0 2.086 0 3 2.59 -3 5.329 -4.796 8.313 -5.219 0.25 -0.031 0.52 -0.031 0.781 -0.031 c 0.781 -0.012 1.563 0.094 2.063 0.313 l 0.406 0.188 -0.938 0.031 c -5.209 0.801 -7.03 3.223 -10.625 6.719 c 0 0.245 0 0.645 0 1 3 -3 5.525 -5.737 8.813 -6.813 1.668 -0.52 4.02 -0.301 4.719 0.438 0.25 0.266 0.254 0.32 0.063 0.531 -0.27 0.301 -1.711 0.922 -2.344 1.031 l -0.5 0.094 0.281 0.188 c 0.16 0.105 0.703 0.328 1.188 0.469 0.738 0.215 1.191 0.27 2.781 0.281 1.855 0.012 1.926 -0.008 2.25 0.281 0.367 0.328 0.789 0.77 3.375 3.406 2.805 2.859 3.871 3.535 4.563 2.844 0.219 -0.219 0.246 -0.336 0.188 -0.969 -0.039 -0.398 -0.156 -0.949 -0.25 -1.219 -0.16 -0.449 -0.152 -0.566 0.063 -1.25 c 0.297 -0.945 0.336 -2.551 0.063 -3.688 -0.281 -1.164 -1.324 -3.246 -2.25 -4.469 -0.438 -0.574 -1.43 -1.652 -2.188 -2.406 -1.285 -1.277 -1.414 -1.414 -1.656 -2.156 -0.324 -0.996 -0.922 -1.934 -1.906 -2.906 -0.387 -0.379 -0.652 -0.629 -0.813 -0.688 z" fill="#f8f8f8"/></g></g><g><path d="m 24 1 c -1.045 0 -2.01 0.284 -2.844 0.781 l -15.344 8.719 c -0.017 0.013 -0.045 0.023 -0.063 0.031 c -1.852 1.051 -2.851 3 -2.75 4.969 l 0 1 c -0.101 -1.966 0.898 -3.918 2.75 -4.969 c 0.017 -0.008 0.045 -0.018 0.063 -0.031 l 15.344 -8.719 c 0.832 -0.497 1.799 -0.781 2.844 -0.781 c 1.045 0 2.01 0.284 2.844 0.781 l 15.25 8.656 c 0.873 0.46 1.625 1.156 2.156 2.063 c 0.554 0.942 0.806 1.988 0.75 3 l 0 -1 c 0.056 -1.012 -0.196 -2.058 -0.75 -3 c -0.532 -0.906 -1.283 -1.603 -2.156 -2.063 l -15.25 -8.656 c -0.832 -0.497 -1.799 -0.781 -2.844 -0.781 z" opacity="0.2" fill="#fff"/></g></svg>