<svg viewBox="0 0 48 48"><defs><linearGradient id="linearGradient3764" y1="1" x2="0" y2="47" gradientUnits="userSpaceOnUse"><stop stop-color="#ebebeb" stop-opacity="1"/><stop offset="1" stop-color="#e1e1e1" stop-opacity="1"/></linearGradient><clipPath id="clipPath-237724848"><g transform="translate(0,-1004.3622)"><path d="m 24 1005.37 c -1.045 0 -2.023 0.287 -2.856 0.784 l -15.339 8.708 c -0.017 0.013 -0.035 0.013 -0.052 0.021 -1.852 1.051 -2.847 3 -2.746 4.968 l 0 17.02 c -0.056 1.013 0.175 2.049 0.729 2.993 0.532 0.903 1.288 1.602 2.161 2.061 l 15.246 8.653 c 0.832 0.497 1.811 0.784 2.856 0.784 1.045 0 2.023 -0.287 2.856 -0.784 l 15.246 -8.653 c 0.873 -0.46 1.629 -1.158 2.161 -2.061 0.554 -0.944 0.785 -1.981 0.729 -2.993 l 0 -17.01 c 0.056 -1.012 -0.175 -2.052 -0.729 -2.993 -0.532 -0.906 -1.288 -1.604 -2.161 -2.064 l -15.246 -8.653 c -0.832 -0.497 -1.811 -0.784 -2.856 -0.784 z" fill="#1890d0"/></g></clipPath><clipPath id="clipPath-247509303"><g transform="translate(0,-1004.3622)"><path d="m 24 1005.37 c -1.045 0 -2.023 0.287 -2.856 0.784 l -15.339 8.708 c -0.017 0.013 -0.035 0.013 -0.052 0.021 -1.852 1.051 -2.847 3 -2.746 4.968 l 0 17.02 c -0.056 1.013 0.175 2.049 0.729 2.993 0.532 0.903 1.288 1.602 2.161 2.061 l 15.246 8.653 c 0.832 0.497 1.811 0.784 2.856 0.784 1.045 0 2.023 -0.287 2.856 -0.784 l 15.246 -8.653 c 0.873 -0.46 1.629 -1.158 2.161 -2.061 0.554 -0.944 0.785 -1.981 0.729 -2.993 l 0 -17.01 c 0.056 -1.012 -0.175 -2.052 -0.729 -2.993 -0.532 -0.906 -1.288 -1.604 -2.161 -2.064 l -15.246 -8.653 c -0.832 -0.497 -1.811 -0.784 -2.856 -0.784 z" fill="#1890d0"/></g></clipPath><filter id="filter-213129451"><feGaussianBlur stdDeviation="0.35"/></filter></defs><g><g transform="translate(0,-1004.3622)"><path d="m 45 1037.36 c 0.056 1.013 -0.196 2.056 -0.75 3 -0.532 0.903 -1.283 1.603 -2.156 2.063 l -15.25 8.656 c -0.832 0.497 -1.799 0.781 -2.844 0.781 -1.045 0 -2.01 -0.284 -2.844 -0.781 l -15.25 -8.656 c -0.873 -0.46 -1.625 -1.159 -2.156 -2.063 -0.416 -0.708 -0.677 -1.485 -0.75 -2.25 -0.004 0.932 0.242 1.884 0.75 2.75 0.532 0.903 1.283 1.603 2.156 2.063 l 15.25 8.656 c 0.832 0.497 1.799 0.781 2.844 0.781 1.045 0 2.01 -0.284 2.844 -0.781 l 15.25 -8.656 c 0.873 -0.46 1.625 -1.159 2.156 -2.063 0.554 -0.944 0.806 -1.987 0.75 -3 l 0 -0.5 z" opacity="0.05"/><path d="m 45 1036.86 c 0.015 0.263 -0.004 0.516 -0.031 0.781 -0.036 0.844 -0.259 1.685 -0.719 2.469 -0.532 0.903 -1.283 1.603 -2.156 2.063 l -15.25 8.656 c -0.832 0.497 -1.799 0.781 -2.844 0.781 -1.045 0 -2.01 -0.284 -2.844 -0.781 l -15.25 -8.656 c -0.873 -0.46 -1.625 -1.159 -2.156 -2.063 -0.414 -0.705 -0.621 -1.46 -0.688 -2.219 -0.014 -0.092 -0.054 -0.189 -0.063 -0.281 -0.004 0.932 0.242 1.884 0.75 2.75 0.532 0.903 1.283 1.603 2.156 2.063 l 15.25 8.656 c 0.832 0.497 1.799 0.781 2.844 0.781 1.045 0 2.01 -0.284 2.844 -0.781 l 15.25 -8.656 c 0.873 -0.46 1.625 -1.159 2.156 -2.063 0.554 -0.944 0.806 -1.987 0.75 -3 l 0 -0.5 z m -41.813 1.625 c 0.057 0.219 0.132 0.442 0.219 0.656 -0.088 -0.216 -0.16 -0.436 -0.219 -0.656 z m 0.219 0.656 c 0.099 0.243 0.206 0.484 0.344 0.719 -0.139 -0.236 -0.243 -0.472 -0.344 -0.719 z m 41.41 -0.656 c -0.059 0.221 -0.131 0.441 -0.219 0.656 0.087 -0.215 0.161 -0.437 0.219 -0.656 z m -0.219 0.656 c -0.101 0.246 -0.205 0.483 -0.344 0.719 0.138 -0.235 0.245 -0.476 0.344 -0.719 z" opacity="0.1"/><path d="m 3.03 1037.64 c 0.035 0.844 0.259 1.685 0.719 2.469 0.532 0.903 1.283 1.603 2.156 2.063 l 15.25 8.656 c 0.832 0.497 1.799 0.781 2.844 0.781 1.045 0 2.01 -0.284 2.844 -0.781 l 15.25 -8.656 c 0.873 -0.46 1.625 -1.159 2.156 -2.063 0.46 -0.784 0.683 -1.624 0.719 -2.469 -0.067 0.763 -0.303 1.511 -0.719 2.219 -0.532 0.903 -1.283 1.603 -2.156 2.063 l -15.25 8.656 c -0.832 0.497 -1.799 0.781 -2.844 0.781 -1.045 0 -2.01 -0.284 -2.844 -0.781 l -15.25 -8.656 c -0.873 -0.46 -1.625 -1.159 -2.156 -2.063 -0.416 -0.708 -0.651 -1.456 -0.719 -2.219 z" opacity="0.2"/></g></g><g><path d="m 24 46.996 c 1.045 0 2.023 -0.287 2.856 -0.784 l 15.339 -8.708 c 0.017 -0.013 0.035 -0.013 0.052 -0.021 1.852 -1.051 2.847 -3 2.746 -4.968 l 0 -17.02 c 0.056 -1.013 -0.175 -2.049 -0.729 -2.993 -0.532 -0.903 -1.288 -1.602 -2.161 -2.061 l -15.246 -8.653 c -0.832 -0.497 -1.811 -0.784 -2.856 -0.784 -1.045 0 -2.023 0.287 -2.856 0.784 l -15.246 8.653 c -0.873 0.46 -1.629 1.158 -2.161 2.061 -0.554 0.944 -0.785 1.981 -0.729 2.993 l 0 17.01 c -0.056 1.012 0.175 2.051 0.729 2.993 0.532 0.906 1.288 1.604 2.161 2.064 l 15.246 8.653 c 0.832 0.497 1.811 0.785 2.856 0.785 z" fill="url(#linearGradient3764)" fill-opacity="1"/></g><g><g clip-path="url(#clipPath-237724848)"><g opacity="0.25"><g transform="translate(0,1)"><g filter="url(#filter-213129451)"><!-- color: #ebebeb --><g><path d="m 20.922 19.727 c 0 0 -0.371 -0.77 -0.5 -1.023 c -0.848 -1.707 -0.828 -1.801 -1.688 -1.914 c -0.238 -0.031 -0.363 -0.063 -0.363 -0.184 l 0 -0.539 l 0.074 -0.055 c 1.547 0 4.992 0 4.992 0 l 0.129 0.043 l 0 0.539 c 0 0.121 -0.086 0.184 -0.262 0.184 l -0.359 0.055 c -0.914 0.07 -0.766 0.453 -0.16 1.68 l 5.77 11.992 l 0.199 0.055 l 5.121 -12.348 c 0.176 -0.496 0.148 -0.852 -0.078 -1.059 c -0.23 -0.203 -0.391 -0.32 -0.984 -0.348 l -0.48 -0.023 c -0.059 0 -0.117 -0.02 -0.172 -0.063 c -0.051 -0.035 -0.078 -0.086 -0.078 -0.148 l 0 -0.516 l 0.074 -0.051 c 1.441 0 5.785 0 5.785 0 l 0.059 0.051 l 0 0.516 c 0 0.141 -0.078 0.211 -0.234 0.211 c -0.758 0.031 -1.32 0.199 -1.684 0.5 c -0.363 0.301 -0.648 0.715 -0.852 1.25 c 0 0 -4.711 10.953 -6.324 14.594 c -0.613 1.191 -1.223 1.082 -1.754 -0.035 c -1.129 -2.355 -4.301 -9.512 -4.301 -9.512 l -1.93 -3.848 m 0 -0.004" fill="#000"/><path d="m 30.16 16 c 0 0 -3.254 -0.012 -4.703 0 l -0.07 0.055 l 0 0.512 c 0 0.063 0.023 0.113 0.078 0.148 c 0.055 0.043 0.109 0.063 0.168 0.063 l 0.23 0.027 c 0.594 0.023 0.867 0.184 0.949 0.281 c 0.141 0.176 0.211 0.363 -0.133 1.125 l -6.078 12.313 l -0.156 -0.043 c 0 0 -4.355 -9.324 -5.613 -12.441 c -0.133 -0.324 -0.191 -0.563 -0.191 -0.711 c 0 -0.316 0.281 -0.488 0.844 -0.512 l 0.656 -0.027 c 0.176 0 0.262 -0.07 0.262 -0.211 l 0 -0.512 l -0.059 -0.051 c 0 0 -5.211 -0.008 -6.289 0 l -0.059 0.051 l 0 0.539 c 0 0.098 0.121 0.156 0.363 0.184 c 0.66 0.035 1.098 0.145 1.305 0.32 c 0.211 0.18 0.43 0.637 0.723 1.348 c 1.582 3.863 4.945 10.754 6.582 14.676 c 0.473 1.074 1.063 1.238 1.781 -0.031 c 1.246 -2.348 4.625 -9.516 4.625 -9.516 l 2.66 -5.05 c 0.309 -0.535 0.609 -1.012 0.762 -1.234 c 0.277 -0.406 0.43 -0.48 1.191 -0.516 c 0.152 0 0.23 -0.07 0.23 -0.211 l 0 -0.516 m -0.059 -0.055" fill="#000"/></g></g></g></g></g></g><g><g clip-path="url(#clipPath-247509303)"><!-- color: #ebebeb --><g><path d="m 20.922 19.727 c 0 0 -0.371 -0.77 -0.5 -1.023 c -0.848 -1.707 -0.828 -1.801 -1.688 -1.914 c -0.238 -0.031 -0.363 -0.063 -0.363 -0.184 l 0 -0.539 l 0.074 -0.055 c 1.547 0 4.992 0 4.992 0 l 0.129 0.043 l 0 0.539 c 0 0.121 -0.086 0.184 -0.262 0.184 l -0.359 0.055 c -0.914 0.07 -0.766 0.453 -0.16 1.68 l 5.77 11.992 l 0.199 0.055 l 5.121 -12.348 c 0.176 -0.496 0.148 -0.852 -0.078 -1.059 c -0.23 -0.203 -0.391 -0.32 -0.984 -0.348 l -0.48 -0.023 c -0.059 0 -0.117 -0.02 -0.172 -0.063 c -0.051 -0.035 -0.078 -0.086 -0.078 -0.148 l 0 -0.516 l 0.074 -0.051 c 1.441 0 5.785 0 5.785 0 l 0.059 0.051 l 0 0.516 c 0 0.141 -0.078 0.211 -0.234 0.211 c -0.758 0.031 -1.32 0.199 -1.684 0.5 c -0.363 0.301 -0.648 0.715 -0.852 1.25 c 0 0 -4.711 10.953 -6.324 14.594 c -0.613 1.191 -1.223 1.082 -1.754 -0.035 c -1.129 -2.355 -4.301 -9.512 -4.301 -9.512 l -1.93 -3.848 m 0 -0.004" fill="#2d2d2d"/><path d="m 30.16 16 c 0 0 -3.254 -0.012 -4.703 0 l -0.07 0.055 l 0 0.512 c 0 0.063 0.023 0.113 0.078 0.148 c 0.055 0.043 0.109 0.063 0.168 0.063 l 0.23 0.027 c 0.594 0.023 0.867 0.184 0.949 0.281 c 0.141 0.176 0.211 0.363 -0.133 1.125 l -6.078 12.313 l -0.156 -0.043 c 0 0 -4.355 -9.324 -5.613 -12.441 c -0.133 -0.324 -0.191 -0.563 -0.191 -0.711 c 0 -0.316 0.281 -0.488 0.844 -0.512 l 0.656 -0.027 c 0.176 0 0.262 -0.07 0.262 -0.211 l 0 -0.512 l -0.059 -0.051 c 0 0 -5.211 -0.008 -6.289 0 l -0.059 0.051 l 0 0.539 c 0 0.098 0.121 0.156 0.363 0.184 c 0.66 0.035 1.098 0.145 1.305 0.32 c 0.211 0.18 0.43 0.637 0.723 1.348 c 1.582 3.863 4.945 10.754 6.582 14.676 c 0.473 1.074 1.063 1.238 1.781 -0.031 c 1.246 -2.348 4.625 -9.516 4.625 -9.516 l 2.66 -5.05 c 0.309 -0.535 0.609 -1.012 0.762 -1.234 c 0.277 -0.406 0.43 -0.48 1.191 -0.516 c 0.152 0 0.23 -0.07 0.23 -0.211 l 0 -0.516 m -0.059 -0.055" fill="#2d2d2d"/></g></g></g><g><path d="m 24 1 c -1.045 0 -2.01 0.284 -2.844 0.781 l -15.344 8.719 c -0.017 0.013 -0.045 0.023 -0.063 0.031 c -1.852 1.051 -2.851 3 -2.75 4.969 l 0 1 c -0.101 -1.966 0.898 -3.918 2.75 -4.969 c 0.017 -0.008 0.045 -0.018 0.063 -0.031 l 15.344 -8.719 c 0.832 -0.497 1.799 -0.781 2.844 -0.781 c 1.045 0 2.01 0.284 2.844 0.781 l 15.25 8.656 c 0.873 0.46 1.625 1.156 2.156 2.063 c 0.554 0.942 0.806 1.988 0.75 3 l 0 -1 c 0.056 -1.012 -0.196 -2.058 -0.75 -3 c -0.532 -0.906 -1.283 -1.603 -2.156 -2.063 l -15.25 -8.656 c -0.832 -0.497 -1.799 -0.781 -2.844 -0.781 z" opacity="0.2" fill="#fff"/></g></svg>