<?xml version="1.0" encoding="UTF-8" standalone="no"?>
<svg
   xmlns:dc="http://purl.org/dc/elements/1.1/"
   xmlns:cc="http://creativecommons.org/ns#"
   xmlns:rdf="http://www.w3.org/1999/02/22-rdf-syntax-ns#"
   xmlns:svg="http://www.w3.org/2000/svg"
   xmlns="http://www.w3.org/2000/svg"
   xmlns:xlink="http://www.w3.org/1999/xlink"
   xmlns:sodipodi="http://sodipodi.sourceforge.net/DTD/sodipodi-0.dtd"
   xmlns:inkscape="http://www.inkscape.org/namespaces/inkscape"
   viewBox="0 0 48 48"
   id="svg2"
   version="1.1"
   inkscape:version="0.48.4 r9939"
   width="100%"
   height="100%"
   sodipodi:docname="rename_me_wunderlist.svg">
  <metadata
     id="metadata97">
    <rdf:RDF>
      <cc:Work
         rdf:about="">
        <dc:format>image/svg+xml</dc:format>
        <dc:type
           rdf:resource="http://purl.org/dc/dcmitype/StillImage" />
      </cc:Work>
    </rdf:RDF>
  </metadata>
  <sodipodi:namedview
     pagecolor="#ffffff"
     bordercolor="#666666"
     borderopacity="1"
     objecttolerance="10"
     gridtolerance="10"
     guidetolerance="10"
     inkscape:pageopacity="0"
     inkscape:pageshadow="2"
     inkscape:window-width="1280"
     inkscape:window-height="960"
     id="namedview95"
     showgrid="true"
     inkscape:zoom="3.4766083"
     inkscape:cx="28.943963"
     inkscape:cy="-27.428592"
     inkscape:window-x="0"
     inkscape:window-y="0"
     inkscape:window-maximized="1"
     inkscape:current-layer="svg2">
    <inkscape:grid
       type="xygrid"
       id="grid3114" />
  </sodipodi:namedview>
  <defs
     id="defs4">
    <inkscape:path-effect
       effect="spiro"
       id="path-effect3964"
       is_visible="true" />
    <linearGradient
       id="0">
      <stop
         stop-opacity="0"
         id="stop7" />
      <stop
         offset="1"
         id="stop9" />
    </linearGradient>
    <linearGradient
       xlink:href="#0"
       id="1"
       gradientUnits="userSpaceOnUse"
       x1="24"
       y1="1005.36"
       x2="25"
       y2="1051.36"
       gradientTransform="translate(0,-1004.3622)" />
    <clipPath
       id="clipPath-123680108">
      <g
         transform="translate(0,-1004.3622)"
         id="g13">
        <path
           d="m 24 1005.37 c -1.045 0 -2.023 0.287 -2.856 0.784 l -15.339 8.708 c -0.017 0.013 -0.035 0.013 -0.052 0.021 -1.852 1.051 -2.847 3 -2.746 4.968 l 0 17.02 c -0.056 1.013 0.175 2.049 0.729 2.993 0.532 0.903 1.288 1.602 2.161 2.061 l 15.246 8.653 c 0.832 0.497 1.811 0.784 2.856 0.784 1.045 0 2.023 -0.287 2.856 -0.784 l 15.246 -8.653 c 0.873 -0.46 1.629 -1.158 2.161 -2.061 0.554 -0.944 0.785 -1.981 0.729 -2.993 l 0 -17.01 c 0.056 -1.012 -0.175 -2.052 -0.729 -2.993 -0.532 -0.906 -1.288 -1.604 -2.161 -2.064 l -15.246 -8.653 c -0.832 -0.497 -1.811 -0.784 -2.856 -0.784 z"
           fill="#1890d0"
           id="path15" />
      </g>
    </clipPath>
    <clipPath
       id="clipPath-131606546">
      <g
         transform="translate(0,-1004.3622)"
         id="g18">
        <path
           d="m 24 1005.37 c -1.045 0 -2.023 0.287 -2.856 0.784 l -15.339 8.708 c -0.017 0.013 -0.035 0.013 -0.052 0.021 -1.852 1.051 -2.847 3 -2.746 4.968 l 0 17.02 c -0.056 1.013 0.175 2.049 0.729 2.993 0.532 0.903 1.288 1.602 2.161 2.061 l 15.246 8.653 c 0.832 0.497 1.811 0.784 2.856 0.784 1.045 0 2.023 -0.287 2.856 -0.784 l 15.246 -8.653 c 0.873 -0.46 1.629 -1.158 2.161 -2.061 0.554 -0.944 0.785 -1.981 0.729 -2.993 l 0 -17.01 c 0.056 -1.012 -0.175 -2.052 -0.729 -2.993 -0.532 -0.906 -1.288 -1.604 -2.161 -2.064 l -15.246 -8.653 c -0.832 -0.497 -1.811 -0.784 -2.856 -0.784 z"
           fill="#1890d0"
           id="path20" />
      </g>
    </clipPath>
    <linearGradient
       id="linearGradient22"
       gradientUnits="userSpaceOnUse"
       y1="1009.36"
       x2="0"
       y2="1039.36"
       gradientTransform="matrix(1,0,0,1,-0.0000000472441,-1006.3622)">
      <stop
         stop-color="#f45c45"
         id="stop24" />
      <stop
         offset="0.5"
         stop-color="#db3d28"
         id="stop26" />
      <stop
         offset="1"
         stop-color="#f45c45"
         id="stop28" />
    </linearGradient>
    <filter
       id="filter-103840500">
      <feGaussianBlur
         stdDeviation="0.35"
         id="feGaussianBlur31" />
    </filter>
    <linearGradient
       id="linearGradient33"
       gradientUnits="userSpaceOnUse"
       y1="1009.36"
       x2="0"
       y2="1039.36"
       gradientTransform="matrix(1,0,0,1,-0.0000000472441,-1006.3622)">
      <stop
         stop-color="#f45c45"
         id="stop35" />
      <stop
         offset="0.5"
         stop-color="#db3d28"
         id="stop37" />
      <stop
         offset="1"
         stop-color="#f45c45"
         id="stop39" />
    </linearGradient>
    <linearGradient
       inkscape:collect="always"
       xlink:href="#0"
       id="linearGradient3078"
       gradientTransform="scale(0.73029674,1.3693064)"
       x1="21.908902"
       y1="2.1908902"
       x2="43.817805"
       y2="2.1908902"
       gradientUnits="userSpaceOnUse" />
    <linearGradient
       inkscape:collect="always"
       xlink:href="#0"
       id="linearGradient3080"
       gradientTransform="scale(1.1547727,0.86597128)"
       x1="13.855541"
       y1="24.250227"
       x2="27.712813"
       y2="24.250227"
       gradientUnits="userSpaceOnUse" />
    <linearGradient
       inkscape:collect="always"
       xlink:href="#0"
       id="linearGradient3112"
       gradientUnits="userSpaceOnUse"
       gradientTransform="translate(0,-1004.3622)"
       x1="24"
       y1="1005.36"
       x2="25"
       y2="1051.36" />
    <linearGradient
       inkscape:collect="always"
       xlink:href="#0"
       id="linearGradient3122"
       gradientUnits="userSpaceOnUse"
       gradientTransform="translate(0,-1004.3622)"
       x1="24"
       y1="1005.36"
       x2="25"
       y2="1051.36" />
    <linearGradient
       inkscape:collect="always"
       xlink:href="#0"
       id="linearGradient3125"
       gradientUnits="userSpaceOnUse"
       gradientTransform="translate(0,-1004.3622)"
       x1="24"
       y1="1005.36"
       x2="25"
       y2="1051.36" />
    <linearGradient
       inkscape:collect="always"
       xlink:href="#0"
       id="linearGradient3128"
       gradientUnits="userSpaceOnUse"
       gradientTransform="matrix(0.8592715,0,0,0.8592715,3.3773434,-859.6431)"
       x1="24"
       y1="1005.36"
       x2="25"
       y2="1051.36" />
    <linearGradient
       inkscape:collect="always"
       xlink:href="#0-9"
       id="linearGradient3077"
       gradientUnits="userSpaceOnUse"
       gradientTransform="scale(0.73029674,1.3693064)"
       x1="21.908901"
       y1="2.1908903"
       x2="43.817806"
       y2="2.1908903" />
    <linearGradient
       id="0-9">
      <stop
         id="stop7-6" />
      <stop
         offset="1"
         stop-opacity="0"
         id="stop9-3" />
    </linearGradient>
    <linearGradient
       inkscape:collect="always"
       xlink:href="#0-9"
       id="linearGradient3079"
       gradientUnits="userSpaceOnUse"
       gradientTransform="scale(1.1547727,0.86597128)"
       x1="13.855541"
       y1="24.250227"
       x2="27.712812"
       y2="24.250227" />
    <linearGradient
       id="linearGradient3100">
      <stop
         id="stop3102" />
      <stop
         offset="1"
         stop-opacity="0"
         id="stop3104" />
    </linearGradient>
    <linearGradient
       y2="24.250227"
       x2="27.712812"
       y1="24.250227"
       x1="13.855541"
       gradientTransform="scale(1.1547727,0.86597128)"
       gradientUnits="userSpaceOnUse"
       id="linearGradient3110"
       xlink:href="#0-9"
       inkscape:collect="always" />
    <linearGradient
       inkscape:collect="always"
       xlink:href="#0-9"
       id="linearGradient3931"
       gradientUnits="userSpaceOnUse"
       gradientTransform="matrix(1.1547727,0,0,0.86597128,-48.881356,8.7457631)"
       x1="13.855541"
       y1="24.250227"
       x2="27.712812"
       y2="24.250227" />
    <linearGradient
       inkscape:collect="always"
       xlink:href="#0-9"
       id="linearGradient3934"
       gradientUnits="userSpaceOnUse"
       gradientTransform="matrix(0.73029674,0,0,1.3693064,-48.881356,8.7457631)"
       x1="21.908901"
       y1="2.1908903"
       x2="43.817806"
       y2="2.1908903" />
    <linearGradient
       inkscape:collect="always"
       xlink:href="#0"
       id="linearGradient3941"
       gradientUnits="userSpaceOnUse"
       gradientTransform="scale(0.73029674,1.3693064)"
       x1="21.908902"
       y1="2.1908902"
       x2="43.817805"
       y2="2.1908902" />
    <linearGradient
       inkscape:collect="always"
       xlink:href="#0"
       id="linearGradient3943"
       gradientUnits="userSpaceOnUse"
       gradientTransform="scale(1.1547727,0.86597128)"
       x1="13.855541"
       y1="24.250227"
       x2="27.712813"
       y2="24.250227" />
    <linearGradient
       inkscape:collect="always"
       xlink:href="#0"
       id="linearGradient3949"
       gradientUnits="userSpaceOnUse"
       gradientTransform="scale(0.73029674,1.3693064)"
       x1="21.908902"
       y1="2.1908902"
       x2="43.817805"
       y2="2.1908902" />
    <linearGradient
       inkscape:collect="always"
       xlink:href="#0"
       id="linearGradient3951"
       gradientUnits="userSpaceOnUse"
       gradientTransform="scale(1.1547727,0.86597128)"
       x1="13.855541"
       y1="24.250227"
       x2="27.712813"
       y2="24.250227" />
    <linearGradient
       inkscape:collect="always"
       xlink:href="#0"
       id="linearGradient3957"
       gradientUnits="userSpaceOnUse"
       gradientTransform="scale(0.73029674,1.3693064)"
       x1="21.908902"
       y1="2.1908902"
       x2="43.817805"
       y2="2.1908902" />
  </defs>
  <g
     id="g41">
    <g
       transform="translate(0,-1004.3622)"
       id="g43">
      <path
         d="m 45 1037.36 c 0.056 1.013 -0.196 2.056 -0.75 3 -0.532 0.903 -1.283 1.603 -2.156 2.063 l -15.25 8.656 c -0.832 0.497 -1.799 0.781 -2.844 0.781 -1.045 0 -2.01 -0.284 -2.844 -0.781 l -15.25 -8.656 c -0.873 -0.46 -1.625 -1.159 -2.156 -2.063 -0.416 -0.708 -0.677 -1.485 -0.75 -2.25 -0.004 0.932 0.242 1.884 0.75 2.75 0.532 0.903 1.283 1.603 2.156 2.063 l 15.25 8.656 c 0.832 0.497 1.799 0.781 2.844 0.781 1.045 0 2.01 -0.284 2.844 -0.781 l 15.25 -8.656 c 0.873 -0.46 1.625 -1.159 2.156 -2.063 0.554 -0.944 0.806 -1.987 0.75 -3 l 0 -0.5 z"
         opacity="0.05"
         id="path45" />
      <path
         d="m 45 1036.86 c 0.015 0.263 -0.004 0.516 -0.031 0.781 -0.036 0.844 -0.259 1.685 -0.719 2.469 -0.532 0.903 -1.283 1.603 -2.156 2.063 l -15.25 8.656 c -0.832 0.497 -1.799 0.781 -2.844 0.781 -1.045 0 -2.01 -0.284 -2.844 -0.781 l -15.25 -8.656 c -0.873 -0.46 -1.625 -1.159 -2.156 -2.063 -0.414 -0.705 -0.621 -1.46 -0.688 -2.219 -0.014 -0.092 -0.054 -0.189 -0.063 -0.281 -0.004 0.932 0.242 1.884 0.75 2.75 0.532 0.903 1.283 1.603 2.156 2.063 l 15.25 8.656 c 0.832 0.497 1.799 0.781 2.844 0.781 1.045 0 2.01 -0.284 2.844 -0.781 l 15.25 -8.656 c 0.873 -0.46 1.625 -1.159 2.156 -2.063 0.554 -0.944 0.806 -1.987 0.75 -3 l 0 -0.5 z m -41.813 1.625 c 0.057 0.219 0.132 0.442 0.219 0.656 -0.088 -0.216 -0.16 -0.436 -0.219 -0.656 z m 0.219 0.656 c 0.099 0.243 0.206 0.484 0.344 0.719 -0.139 -0.236 -0.243 -0.472 -0.344 -0.719 z m 41.41 -0.656 c -0.059 0.221 -0.131 0.441 -0.219 0.656 0.087 -0.215 0.161 -0.437 0.219 -0.656 z m -0.219 0.656 c -0.101 0.246 -0.205 0.483 -0.344 0.719 0.138 -0.235 0.245 -0.476 0.344 -0.719 z"
         opacity="0.1"
         id="path47" />
      <path
         d="m 3.03 1037.64 c 0.035 0.844 0.259 1.685 0.719 2.469 0.532 0.903 1.283 1.603 2.156 2.063 l 15.25 8.656 c 0.832 0.497 1.799 0.781 2.844 0.781 1.045 0 2.01 -0.284 2.844 -0.781 l 15.25 -8.656 c 0.873 -0.46 1.625 -1.159 2.156 -2.063 0.46 -0.784 0.683 -1.624 0.719 -2.469 -0.067 0.763 -0.303 1.511 -0.719 2.219 -0.532 0.903 -1.283 1.603 -2.156 2.063 l -15.25 8.656 c -0.832 0.497 -1.799 0.781 -2.844 0.781 -1.045 0 -2.01 -0.284 -2.844 -0.781 l -15.25 -8.656 c -0.873 -0.46 -1.625 -1.159 -2.156 -2.063 -0.416 -0.708 -0.651 -1.456 -0.719 -2.219 z"
         opacity="0.2"
         id="path49" />
    </g>
  </g>
  <g
     id="g51">
    <g
       transform="translate(0,-1004.3622)"
       id="g53">
      <path
         d="m 24 1005.37 c -1.045 0 -2.023 0.287 -2.856 0.784 l -15.339 8.708 c -0.017 0.013 -0.035 0.013 -0.052 0.021 -1.852 1.051 -2.847 3 -2.746 4.968 l 0 17.02 c -0.056 1.013 0.175 2.049 0.729 2.993 0.532 0.903 1.288 1.602 2.161 2.061 l 15.246 8.653 c 0.832 0.497 1.811 0.784 2.856 0.784 1.045 0 2.023 -0.287 2.856 -0.784 l 15.246 -8.653 c 0.873 -0.46 1.629 -1.158 2.161 -2.061 0.554 -0.944 0.785 -1.981 0.729 -2.993 l 0 -17.01 c 0.056 -1.012 -0.175 -2.052 -0.729 -2.993 -0.532 -0.906 -1.288 -1.604 -2.161 -2.064 l -15.246 -8.653 c -0.832 -0.497 -1.811 -0.784 -2.856 -0.784 z"
         fill="#f4f4f4"
         id="path55" />
    </g>
  </g>
  <g
     id="g57">
    <path
       d="m 24 1 c -1.045 0 -2.023 0.287 -2.856 0.784 l -15.339 8.708 c -0.017 0.013 -0.035 0.013 -0.052 0.021 -1.852 1.051 -2.847 3 -2.746 4.968 l 0 17.02 c -0.056 1.013 0.175 2.049 0.729 2.993 0.532 0.904 1.288 1.602 2.161 2.061 l 15.246 8.653 c 0.832 0.497 1.811 0.785 2.856 0.785 1.045 0 2.023 -0.287 2.856 -0.785 l 15.246 -8.653 c 0.873 -0.46 1.629 -1.158 2.161 -2.061 0.554 -0.944 0.785 -1.981 0.729 -2.993 l 0 -17.01 c 0.056 -1.012 -0.175 -2.052 -0.729 -2.993 -0.532 -0.906 -1.288 -1.604 -2.161 -2.064 l -15.246 -8.653 c -0.832 -0.497 -1.811 -0.785 -2.856 -0.785 z"
       id="path59"
       fill="url(#1)"
       opacity="0.15" />
  </g>
  <g
     id="g61">
    <g
       clip-path="url(#clipPath-123680108)"
       id="g63">
      <g
         id="g65"
         opacity="0.25">
        <g
           transform="translate(0,1)"
           id="g67">
          <g
             id="g69"
             filter="url(#filter-103840500)">
            <!-- color: #f4f4f4 -->
            <g
               id="g71">
              <path
                 d="m 24 1 c -12.703 0 -23 10.297 -23 23 c 0 12.703 10.297 23 23 23 c 12.703 0 23 -10.297 23 -23 c 0 -12.703 -10.297 -23 -23 -23 m 0 2 c 11.598 0 21 9.402 21 21 c 0 11.598 -9.402 21 -21 21 c -11.598 0 -21 -9.402 -21 -21 c 0 -11.598 9.402 -21 21 -21 m 0 0"
                 id="path73"
                 fill="#000" />
              <path
                 d="m 16 3 l 0 30 l 0.055 0 l 7.945 -7.813 l 7.945 7.813 l 0.055 0 l 0 -30 m -8 8 l 2 4 l 5 0 l -4 4 l 2 5 l -5 -3.5 l -5 3.5 l 2 -5 l -4 -4 l 5 0 m 2 -4"
                 id="path75"
                 fill="#000" />
              <path
                 d="m 16 21 l 0 12 l 0.063 0 l 7.938 -7.813 l 7.938 7.813 l 0.063 0 l 0 -12 l -4.188 0 l 1.188 3 l -4.281 -3 l -1.438 0 l -4.281 3 l 1.188 -3 m -4.188 0"
                 id="path77"
                 fill="#000" />
            </g>
          </g>
        </g>
      </g>
    </g>
  </g>
  <path
     style="fill:#f45c45;fill-opacity:1"
     d="M 24 1 C 22.955 1 21.98925 1.28425 21.15625 1.78125 L 5.8125 10.5 C 5.7955 10.513 5.767 10.492 5.75 10.5 C 3.898 11.551 2.899 13.50075 3 15.46875 L 3 32.5 C 2.944 33.513 3.196 34.556 3.75 35.5 C 4.282 36.404 5.03325 37.1035 5.90625 37.5625 L 21.15625 46.21875 C 21.98825 46.71575 22.955 47 24 47 C 25.045 47 26.01075 46.71675 26.84375 46.21875 L 42.09375 37.5625 C 42.96675 37.1025 43.718 36.403 44.25 35.5 C 44.804 34.556 45.056 33.512 45 32.5 L 45 15.5 C 45.056 14.488 44.804 13.441 44.25 12.5 C 43.718 11.594 42.96675 10.8975 42.09375 10.4375 L 26.84375 1.78125 C 26.01175 1.28425 25.045 1 24 1 z M 24 4.21875 C 24.897939 4.21875 25.722586 4.4791921 26.4375 4.90625 L 26.59375 5 L 21.375 5 L 21.53125 4.90625 C 22.247023 4.479192 23.102062 4.25 24 4.25 L 24 4.21875 z M 16 8.0625 L 16 21 L 16 33 L 16.0625 33 L 24 25.1875 L 31.9375 33 L 32 33 L 32 21 L 32 8.0625 L 39.5625 12.34375 C 40.312644 12.739015 40.949117 13.3465 41.40625 14.125 C 41.882286 14.933575 42.07937 15.817917 42.03125 16.6875 L 42.03125 31.3125 C 42.07937 32.182083 41.882286 33.063847 41.40625 33.875 C 40.949117 34.650922 40.312644 35.260985 39.5625 35.65625 L 26.4375 43.09375 C 25.721726 43.521667 24.897939 43.75 24 43.75 C 23.102061 43.75 22.246164 43.520808 21.53125 43.09375 L 8.4375 35.65625 C 7.687356 35.261845 7.0508825 34.651781 6.59375 33.875 C 6.1177136 33.063847 5.920631 32.182942 5.96875 31.3125 L 5.96875 16.6875 C 5.8819636 14.996454 6.7211292 13.309345 8.3125 12.40625 C 8.327108 12.39938 8.360392 12.41742 8.375 12.40625 L 16 8.0625 z M 24 11 L 26 15 L 31 15 L 27 19 L 29 24 L 24 20.5 L 23.28125 21 L 19 24 L 20.1875 21 L 21 19 L 17 15 L 22 15 L 24 11 z "
     id="path87" />
  <g
     id="g91">
    <path
       d="M 24,1 C 22.955,1 21.99,1.284 21.156,1.781 L 5.812,10.5 c -0.017,0.013 -0.045,0.023 -0.063,0.031 -1.852,1.051 -2.851,3 -2.75,4.969 l 0,1 C 2.898,14.534 3.897,12.582 5.749,11.531 5.766,11.523 5.794,11.513 5.812,11.5 L 21.156,2.781 C 21.988,2.284 22.955,2 24,2 c 1.045,0 2.01,0.284 2.844,0.781 l 15.25,8.656 c 0.873,0.46 1.625,1.156 2.156,2.063 0.554,0.942 0.806,1.988 0.75,3 l 0,-1 c 0.056,-1.012 -0.196,-2.058 -0.75,-3 -0.532,-0.906 -1.283,-1.603 -2.156,-2.063 L 26.844,1.781 C 26.012,1.284 25.045,1 24,1 z"
       id="path93"
       inkscape:connector-curvature="0"
       style="opacity:0.2;fill:#ffffff" />
  </g>
  <path
     style="fill:#f45c45;stroke:none;stroke-width:1px;stroke-linecap:butt;stroke-linejoin:miter;stroke-opacity:1;fill-opacity:1"
     d="M 19,4.3728813 24.686441,2.6440677 28.474576,7 21,8 19,4.3728813"
     id="path3962"
     inkscape:path-effect="#path-effect3964"
     inkscape:original-d="M 19,4.3728813 24.686441,2.6440677 28.474576,7 21,8 z"
     inkscape:connector-curvature="0" />
</svg>
