<svg viewBox="0 0 48 48"><defs><linearGradient id="linearGradient3764" y1="1" x2="0" y2="47" gradientUnits="userSpaceOnUse"><stop stop-color="#3f3c71" stop-opacity="1"/><stop offset="1" stop-color="#373563" stop-opacity="1"/></linearGradient><clipPath id="clipPath-993974725"><g transform="translate(0,-1004.3622)"><path d="m 24 1005.37 c -1.045 0 -2.023 0.287 -2.856 0.784 l -15.339 8.708 c -0.017 0.013 -0.035 0.013 -0.052 0.021 -1.852 1.051 -2.847 3 -2.746 4.968 l 0 17.02 c -0.056 1.013 0.175 2.049 0.729 2.993 0.532 0.903 1.288 1.602 2.161 2.061 l 15.246 8.653 c 0.832 0.497 1.811 0.784 2.856 0.784 1.045 0 2.023 -0.287 2.856 -0.784 l 15.246 -8.653 c 0.873 -0.46 1.629 -1.158 2.161 -2.061 0.554 -0.944 0.785 -1.981 0.729 -2.993 l 0 -17.01 c 0.056 -1.012 -0.175 -2.052 -0.729 -2.993 -0.532 -0.906 -1.288 -1.604 -2.161 -2.064 l -15.246 -8.653 c -0.832 -0.497 -1.811 -0.784 -2.856 -0.784 z" fill="#1890d0"/></g></clipPath><clipPath id="clipPath-002660404"><g transform="translate(0,-1004.3622)"><path d="m 24 1005.37 c -1.045 0 -2.023 0.287 -2.856 0.784 l -15.339 8.708 c -0.017 0.013 -0.035 0.013 -0.052 0.021 -1.852 1.051 -2.847 3 -2.746 4.968 l 0 17.02 c -0.056 1.013 0.175 2.049 0.729 2.993 0.532 0.903 1.288 1.602 2.161 2.061 l 15.246 8.653 c 0.832 0.497 1.811 0.784 2.856 0.784 1.045 0 2.023 -0.287 2.856 -0.784 l 15.246 -8.653 c 0.873 -0.46 1.629 -1.158 2.161 -2.061 0.554 -0.944 0.785 -1.981 0.729 -2.993 l 0 -17.01 c 0.056 -1.012 -0.175 -2.052 -0.729 -2.993 -0.532 -0.906 -1.288 -1.604 -2.161 -2.064 l -15.246 -8.653 c -0.832 -0.497 -1.811 -0.784 -2.856 -0.784 z" fill="#1890d0"/></g></clipPath><filter id="filter-975634542"><feGaussianBlur stdDeviation="0.35"/></filter></defs><g><g transform="translate(0,-1004.3622)"><path d="m 45 1037.36 c 0.056 1.013 -0.196 2.056 -0.75 3 -0.532 0.903 -1.283 1.603 -2.156 2.063 l -15.25 8.656 c -0.832 0.497 -1.799 0.781 -2.844 0.781 -1.045 0 -2.01 -0.284 -2.844 -0.781 l -15.25 -8.656 c -0.873 -0.46 -1.625 -1.159 -2.156 -2.063 -0.416 -0.708 -0.677 -1.485 -0.75 -2.25 -0.004 0.932 0.242 1.884 0.75 2.75 0.532 0.903 1.283 1.603 2.156 2.063 l 15.25 8.656 c 0.832 0.497 1.799 0.781 2.844 0.781 1.045 0 2.01 -0.284 2.844 -0.781 l 15.25 -8.656 c 0.873 -0.46 1.625 -1.159 2.156 -2.063 0.554 -0.944 0.806 -1.987 0.75 -3 l 0 -0.5 z" opacity="0.05"/><path d="m 45 1036.86 c 0.015 0.263 -0.004 0.516 -0.031 0.781 -0.036 0.844 -0.259 1.685 -0.719 2.469 -0.532 0.903 -1.283 1.603 -2.156 2.063 l -15.25 8.656 c -0.832 0.497 -1.799 0.781 -2.844 0.781 -1.045 0 -2.01 -0.284 -2.844 -0.781 l -15.25 -8.656 c -0.873 -0.46 -1.625 -1.159 -2.156 -2.063 -0.414 -0.705 -0.621 -1.46 -0.688 -2.219 -0.014 -0.092 -0.054 -0.189 -0.063 -0.281 -0.004 0.932 0.242 1.884 0.75 2.75 0.532 0.903 1.283 1.603 2.156 2.063 l 15.25 8.656 c 0.832 0.497 1.799 0.781 2.844 0.781 1.045 0 2.01 -0.284 2.844 -0.781 l 15.25 -8.656 c 0.873 -0.46 1.625 -1.159 2.156 -2.063 0.554 -0.944 0.806 -1.987 0.75 -3 l 0 -0.5 z m -41.813 1.625 c 0.057 0.219 0.132 0.442 0.219 0.656 -0.088 -0.216 -0.16 -0.436 -0.219 -0.656 z m 0.219 0.656 c 0.099 0.243 0.206 0.484 0.344 0.719 -0.139 -0.236 -0.243 -0.472 -0.344 -0.719 z m 41.41 -0.656 c -0.059 0.221 -0.131 0.441 -0.219 0.656 0.087 -0.215 0.161 -0.437 0.219 -0.656 z m -0.219 0.656 c -0.101 0.246 -0.205 0.483 -0.344 0.719 0.138 -0.235 0.245 -0.476 0.344 -0.719 z" opacity="0.1"/><path d="m 3.03 1037.64 c 0.035 0.844 0.259 1.685 0.719 2.469 0.532 0.903 1.283 1.603 2.156 2.063 l 15.25 8.656 c 0.832 0.497 1.799 0.781 2.844 0.781 1.045 0 2.01 -0.284 2.844 -0.781 l 15.25 -8.656 c 0.873 -0.46 1.625 -1.159 2.156 -2.063 0.46 -0.784 0.683 -1.624 0.719 -2.469 -0.067 0.763 -0.303 1.511 -0.719 2.219 -0.532 0.903 -1.283 1.603 -2.156 2.063 l -15.25 8.656 c -0.832 0.497 -1.799 0.781 -2.844 0.781 -1.045 0 -2.01 -0.284 -2.844 -0.781 l -15.25 -8.656 c -0.873 -0.46 -1.625 -1.159 -2.156 -2.063 -0.416 -0.708 -0.651 -1.456 -0.719 -2.219 z" opacity="0.2"/></g></g><g><path d="m 24 46.996 c 1.045 0 2.023 -0.287 2.856 -0.784 l 15.339 -8.708 c 0.017 -0.013 0.035 -0.013 0.052 -0.021 1.852 -1.051 2.847 -3 2.746 -4.968 l 0 -17.02 c 0.056 -1.013 -0.175 -2.049 -0.729 -2.993 -0.532 -0.903 -1.288 -1.602 -2.161 -2.061 l -15.246 -8.653 c -0.832 -0.497 -1.811 -0.784 -2.856 -0.784 -1.045 0 -2.023 0.287 -2.856 0.784 l -15.246 8.653 c -0.873 0.46 -1.629 1.158 -2.161 2.061 -0.554 0.944 -0.785 1.981 -0.729 2.993 l 0 17.01 c -0.056 1.012 0.175 2.051 0.729 2.993 0.532 0.906 1.288 1.604 2.161 2.064 l 15.246 8.653 c 0.832 0.497 1.811 0.785 2.856 0.785 z" fill="url(#linearGradient3764)" fill-opacity="1"/></g><g><g clip-path="url(#clipPath-993974725)"><g opacity="0.25"><g transform="translate(0,1)"><g filter="url(#filter-975634542)"><!-- color: #3f3c71 --><g><path d="m 20.785 29.21 c -0.883 -0.652 -1.969 0.691 -0.879 1.742 c 7.91 5.219 7.03 2.609 13.184 -3.48 c 1.07 -1.66 -0.469 -2.441 -1.758 -0.867 c -5.273 6.086 -4.395 8.695 -10.547 2.605 m 0 0" fill="#000"/><path d="m 13.922 17 c 0 1.105 -0.895 2 -2 2 c -1.105 0 -2 -0.895 -2 -2 c 0 -1.105 0.895 -2 2 -2 c 1.105 0 2 0.895 2 2 m 0 0" fill="#000"/><path d="m 23.922 9 c -4.273 0 -8.09 1.773 -10.75 4.5 c -1 1.031 -1.828 2.227 -2.5 3.5 l 2.531 0 c 0.543 -0.914 1.18 -1.758 1.906 -2.5 c 2.34 -2.398 5.449 -3.813 8.813 -3.813 c 3.363 0 6.473 1.414 8.813 3.813 c 2.34 2.398 3.844 5.75 3.844 9.5 c 0 3.75 -1.504 7.102 -3.844 9.5 c -2.34 2.398 -5.449 3.813 -8.813 3.813 c -3.363 0 -6.473 -1.414 -8.813 -3.813 c -1.898 -1.945 -3.219 -4.531 -3.656 -7.438 l -2.375 0 c 0.441 3.242 1.891 6.18 4.094 8.438 c 2.664 2.727 6.477 4.5 10.75 4.5 c 4.273 0 8.09 -1.773 10.75 -4.5 c 2.664 -2.727 4.25 -6.43 4.25 -10.5 c 0 -4.07 -1.586 -7.773 -4.25 -10.5 c -2.664 -2.727 -6.477 -4.5 -10.75 -4.5 m 0 0" fill="#000"/><path d="m 21.496 15 l 0.004 0 c 0.828 0 1.5 0.668 1.5 1.496 l 0 7 c 0 0.828 -0.672 1.496 -1.5 1.496 l -0.004 0 c -0.828 0 -1.496 -0.668 -1.496 -1.496 l 0 -7 c 0 -0.828 0.668 -1.496 1.496 -1.496 m 0 0" fill="#000"/><path d="m 25.496 19 l 0.004 0 c 0.828 0 1.5 0.445 1.5 1 l 0 4 c 0 0.551 -0.672 0.996 -1.5 0.996 l -0.004 0 c -0.828 0 -1.496 -0.445 -1.496 -0.996 l 0 -4 c 0 -0.555 0.668 -1 1.496 -1 m 0 0" fill="#000"/><path d="m 28.887 21 l 0.227 0 c 0.488 0 0.883 0.398 0.883 0.887 l 0 2.23 c 0 0.488 -0.395 0.883 -0.883 0.883 l -0.227 0 c -0.492 0 -0.887 -0.395 -0.887 -0.883 l 0 -2.23 c 0 -0.488 0.395 -0.887 0.887 -0.887 m 0 0" fill="#000"/><path d="m 32 21 c 0.551 0 1 0.449 1 1 l 0 2 c 0 0.551 -0.449 0.996 -1 0.996 c -0.551 0 -1 -0.445 -1 -0.996 l 0 -2 c 0 -0.551 0.449 -1 1 -1 m 0 0" fill="#000"/><path d="m 15.375 23.445 l 0 -0.004 c 0.699 -0.445 1.504 -0.43 1.801 0.035 l 2.16 3.367 c 0.301 0.465 -0.023 1.203 -0.723 1.648 l 0 0.004 c -0.699 0.445 -1.504 0.43 -1.801 -0.035 l -2.16 -3.367 c -0.301 -0.461 0.023 -1.203 0.723 -1.648 m 0 0" fill="#000"/></g></g></g></g></g></g><g><g clip-path="url(#clipPath-002660404)"><!-- color: #3f3c71 --><g><path d="m 20.785 29.21 c -0.883 -0.652 -1.969 0.691 -0.879 1.742 c 7.91 5.219 7.03 2.609 13.184 -3.48 c 1.07 -1.66 -0.469 -2.441 -1.758 -0.867 c -5.273 6.086 -4.395 8.695 -10.547 2.605 m 0 0" fill="#e5f5f9"/><path d="m 13.922 17 c 0 1.105 -0.895 2 -2 2 c -1.105 0 -2 -0.895 -2 -2 c 0 -1.105 0.895 -2 2 -2 c 1.105 0 2 0.895 2 2 m 0 0" fill="#eb76b0"/><path d="m 23.922 9 c -4.273 0 -8.09 1.773 -10.75 4.5 c -1 1.031 -1.828 2.227 -2.5 3.5 l 2.531 0 c 0.543 -0.914 1.18 -1.758 1.906 -2.5 c 2.34 -2.398 5.449 -3.813 8.813 -3.813 c 3.363 0 6.473 1.414 8.813 3.813 c 2.34 2.398 3.844 5.75 3.844 9.5 c 0 3.75 -1.504 7.102 -3.844 9.5 c -2.34 2.398 -5.449 3.813 -8.813 3.813 c -3.363 0 -6.473 -1.414 -8.813 -3.813 c -1.898 -1.945 -3.219 -4.531 -3.656 -7.438 l -2.375 0 c 0.441 3.242 1.891 6.18 4.094 8.438 c 2.664 2.727 6.477 4.5 10.75 4.5 c 4.273 0 8.09 -1.773 10.75 -4.5 c 2.664 -2.727 4.25 -6.43 4.25 -10.5 c 0 -4.07 -1.586 -7.773 -4.25 -10.5 c -2.664 -2.727 -6.477 -4.5 -10.75 -4.5 m 0 0" fill="#eb76b0"/><path d="m 21.496 15 l 0.004 0 c 0.828 0 1.5 0.668 1.5 1.496 l 0 7 c 0 0.828 -0.672 1.496 -1.5 1.496 l -0.004 0 c -0.828 0 -1.496 -0.668 -1.496 -1.496 l 0 -7 c 0 -0.828 0.668 -1.496 1.496 -1.496 m 0 0" fill="#e5f5f9"/><path d="m 25.496 19 l 0.004 0 c 0.828 0 1.5 0.445 1.5 1 l 0 4 c 0 0.551 -0.672 0.996 -1.5 0.996 l -0.004 0 c -0.828 0 -1.496 -0.445 -1.496 -0.996 l 0 -4 c 0 -0.555 0.668 -1 1.496 -1 m 0 0" fill="#e5f5f9"/><path d="m 28.887 21 l 0.227 0 c 0.488 0 0.883 0.398 0.883 0.887 l 0 2.23 c 0 0.488 -0.395 0.883 -0.883 0.883 l -0.227 0 c -0.492 0 -0.887 -0.395 -0.887 -0.883 l 0 -2.23 c 0 -0.488 0.395 -0.887 0.887 -0.887 m 0 0" fill="#e5f5f9"/><path d="m 32 21 c 0.551 0 1 0.449 1 1 l 0 2 c 0 0.551 -0.449 0.996 -1 0.996 c -0.551 0 -1 -0.445 -1 -0.996 l 0 -2 c 0 -0.551 0.449 -1 1 -1 m 0 0" fill="#e5f5f9"/><path d="m 15.375 23.445 l 0 -0.004 c 0.699 -0.445 1.504 -0.43 1.801 0.035 l 2.16 3.367 c 0.301 0.465 -0.023 1.203 -0.723 1.648 l 0 0.004 c -0.699 0.445 -1.504 0.43 -1.801 -0.035 l -2.16 -3.367 c -0.301 -0.461 0.023 -1.203 0.723 -1.648 m 0 0" fill="#e5f5f9"/></g></g></g><g><path d="m 24 1 c -1.045 0 -2.01 0.284 -2.844 0.781 l -15.344 8.719 c -0.017 0.013 -0.045 0.023 -0.063 0.031 c -1.852 1.051 -2.851 3 -2.75 4.969 l 0 1 c -0.101 -1.966 0.898 -3.918 2.75 -4.969 c 0.017 -0.008 0.045 -0.018 0.063 -0.031 l 15.344 -8.719 c 0.832 -0.497 1.799 -0.781 2.844 -0.781 c 1.045 0 2.01 0.284 2.844 0.781 l 15.25 8.656 c 0.873 0.46 1.625 1.156 2.156 2.063 c 0.554 0.942 0.806 1.988 0.75 3 l 0 -1 c 0.056 -1.012 -0.196 -2.058 -0.75 -3 c -0.532 -0.906 -1.283 -1.603 -2.156 -2.063 l -15.25 -8.656 c -0.832 -0.497 -1.799 -0.781 -2.844 -0.781 z" opacity="0.2" fill="#fff"/></g></svg>