<svg viewBox="0 0 48 48"><defs><linearGradient id="linearGradient3764" y1="1" x2="0" y2="47" gradientUnits="userSpaceOnUse"><stop stop-color="#2b69b9" stop-opacity="1"/><stop offset="1" stop-color="#2761a9" stop-opacity="1"/></linearGradient><clipPath id="clipPath-414416645"><g transform="translate(0,-1004.3622)"><path d="m 24 1005.37 c -1.045 0 -2.023 0.287 -2.856 0.784 l -15.339 8.708 c -0.017 0.013 -0.035 0.013 -0.052 0.021 -1.852 1.051 -2.847 3 -2.746 4.968 l 0 17.02 c -0.056 1.013 0.175 2.049 0.729 2.993 0.532 0.903 1.288 1.602 2.161 2.061 l 15.246 8.653 c 0.832 0.497 1.811 0.784 2.856 0.784 1.045 0 2.023 -0.287 2.856 -0.784 l 15.246 -8.653 c 0.873 -0.46 1.629 -1.158 2.161 -2.061 0.554 -0.944 0.785 -1.981 0.729 -2.993 l 0 -17.01 c 0.056 -1.012 -0.175 -2.052 -0.729 -2.993 -0.532 -0.906 -1.288 -1.604 -2.161 -2.064 l -15.246 -8.653 c -0.832 -0.497 -1.811 -0.784 -2.856 -0.784 z" fill="#1890d0"/></g></clipPath><clipPath id="clipPath-433689430"><g transform="translate(0,-1004.3622)"><path d="m 24 1005.37 c -1.045 0 -2.023 0.287 -2.856 0.784 l -15.339 8.708 c -0.017 0.013 -0.035 0.013 -0.052 0.021 -1.852 1.051 -2.847 3 -2.746 4.968 l 0 17.02 c -0.056 1.013 0.175 2.049 0.729 2.993 0.532 0.903 1.288 1.602 2.161 2.061 l 15.246 8.653 c 0.832 0.497 1.811 0.784 2.856 0.784 1.045 0 2.023 -0.287 2.856 -0.784 l 15.246 -8.653 c 0.873 -0.46 1.629 -1.158 2.161 -2.061 0.554 -0.944 0.785 -1.981 0.729 -2.993 l 0 -17.01 c 0.056 -1.012 -0.175 -2.052 -0.729 -2.993 -0.532 -0.906 -1.288 -1.604 -2.161 -2.064 l -15.246 -8.653 c -0.832 -0.497 -1.811 -0.784 -2.856 -0.784 z" fill="#1890d0"/></g></clipPath><filter id="filter-370980476"><feGaussianBlur stdDeviation="0.35"/></filter></defs><g><g transform="translate(0,-1004.3622)"><path d="m 45 1037.36 c 0.056 1.013 -0.196 2.056 -0.75 3 -0.532 0.903 -1.283 1.603 -2.156 2.063 l -15.25 8.656 c -0.832 0.497 -1.799 0.781 -2.844 0.781 -1.045 0 -2.01 -0.284 -2.844 -0.781 l -15.25 -8.656 c -0.873 -0.46 -1.625 -1.159 -2.156 -2.063 -0.416 -0.708 -0.677 -1.485 -0.75 -2.25 -0.004 0.932 0.242 1.884 0.75 2.75 0.532 0.903 1.283 1.603 2.156 2.063 l 15.25 8.656 c 0.832 0.497 1.799 0.781 2.844 0.781 1.045 0 2.01 -0.284 2.844 -0.781 l 15.25 -8.656 c 0.873 -0.46 1.625 -1.159 2.156 -2.063 0.554 -0.944 0.806 -1.987 0.75 -3 l 0 -0.5 z" opacity="0.05"/><path d="m 45 1036.86 c 0.015 0.263 -0.004 0.516 -0.031 0.781 -0.036 0.844 -0.259 1.685 -0.719 2.469 -0.532 0.903 -1.283 1.603 -2.156 2.063 l -15.25 8.656 c -0.832 0.497 -1.799 0.781 -2.844 0.781 -1.045 0 -2.01 -0.284 -2.844 -0.781 l -15.25 -8.656 c -0.873 -0.46 -1.625 -1.159 -2.156 -2.063 -0.414 -0.705 -0.621 -1.46 -0.688 -2.219 -0.014 -0.092 -0.054 -0.189 -0.063 -0.281 -0.004 0.932 0.242 1.884 0.75 2.75 0.532 0.903 1.283 1.603 2.156 2.063 l 15.25 8.656 c 0.832 0.497 1.799 0.781 2.844 0.781 1.045 0 2.01 -0.284 2.844 -0.781 l 15.25 -8.656 c 0.873 -0.46 1.625 -1.159 2.156 -2.063 0.554 -0.944 0.806 -1.987 0.75 -3 l 0 -0.5 z m -41.813 1.625 c 0.057 0.219 0.132 0.442 0.219 0.656 -0.088 -0.216 -0.16 -0.436 -0.219 -0.656 z m 0.219 0.656 c 0.099 0.243 0.206 0.484 0.344 0.719 -0.139 -0.236 -0.243 -0.472 -0.344 -0.719 z m 41.41 -0.656 c -0.059 0.221 -0.131 0.441 -0.219 0.656 0.087 -0.215 0.161 -0.437 0.219 -0.656 z m -0.219 0.656 c -0.101 0.246 -0.205 0.483 -0.344 0.719 0.138 -0.235 0.245 -0.476 0.344 -0.719 z" opacity="0.1"/><path d="m 3.03 1037.64 c 0.035 0.844 0.259 1.685 0.719 2.469 0.532 0.903 1.283 1.603 2.156 2.063 l 15.25 8.656 c 0.832 0.497 1.799 0.781 2.844 0.781 1.045 0 2.01 -0.284 2.844 -0.781 l 15.25 -8.656 c 0.873 -0.46 1.625 -1.159 2.156 -2.063 0.46 -0.784 0.683 -1.624 0.719 -2.469 -0.067 0.763 -0.303 1.511 -0.719 2.219 -0.532 0.903 -1.283 1.603 -2.156 2.063 l -15.25 8.656 c -0.832 0.497 -1.799 0.781 -2.844 0.781 -1.045 0 -2.01 -0.284 -2.844 -0.781 l -15.25 -8.656 c -0.873 -0.46 -1.625 -1.159 -2.156 -2.063 -0.416 -0.708 -0.651 -1.456 -0.719 -2.219 z" opacity="0.2"/></g></g><g><path d="m 24 46.996 c 1.045 0 2.023 -0.287 2.856 -0.784 l 15.339 -8.708 c 0.017 -0.013 0.035 -0.013 0.052 -0.021 1.852 -1.051 2.847 -3 2.746 -4.968 l 0 -17.02 c 0.056 -1.013 -0.175 -2.049 -0.729 -2.993 -0.532 -0.903 -1.288 -1.602 -2.161 -2.061 l -15.246 -8.653 c -0.832 -0.497 -1.811 -0.784 -2.856 -0.784 -1.045 0 -2.023 0.287 -2.856 0.784 l -15.246 8.653 c -0.873 0.46 -1.629 1.158 -2.161 2.061 -0.554 0.944 -0.785 1.981 -0.729 2.993 l 0 17.01 c -0.056 1.012 0.175 2.051 0.729 2.993 0.532 0.906 1.288 1.604 2.161 2.064 l 15.246 8.653 c 0.832 0.497 1.811 0.785 2.856 0.785 z" fill="url(#linearGradient3764)" fill-opacity="1"/></g><g><g clip-path="url(#clipPath-414416645)"><g opacity="0.25"><g transform="translate(0,1)"><g filter="url(#filter-370980476)"><!-- color: #2b69b9 --><g><path d="m 13.742 36.945 c 0.074 -0.031 0.195 -0.031 0.27 0 c 0.074 0.031 0.016 0.055 -0.133 0.055 c -0.148 0 -0.207 -0.023 -0.137 -0.055 m -0.695 -0.355 c -1.059 -0.48 -2.172 -2.055 -2.035 -2.883 c 0.078 -0.492 0.34 -0.758 2.223 -2.262 c 2.02 -1.613 3.074 -2.633 3.242 -3.129 c 0.227 -0.68 0.145 -1.992 -0.211 -3.348 c -0.363 -1.383 -0.508 -2.262 -0.375 -2.262 c 0.047 0 2.168 2.09 4.711 4.641 l 4.629 4.637 l -0.684 -0.074 c -0.375 -0.039 -1.102 -0.195 -1.613 -0.348 c -1.227 -0.367 -2.836 -0.461 -3.508 -0.203 c -0.539 0.207 -1.23 0.938 -3.277 3.48 c -0.73 0.906 -1.461 1.719 -1.629 1.805 c -0.414 0.215 -0.926 0.195 -1.473 -0.055 m 8.91 -10.805 l -5.957 -5.961 l 0.129 -0.52 c 0.438 -1.734 1.422 -3.379 2.832 -4.734 c 3.641 -3.492 8.254 -4.508 12.1 -2.664 c 2.109 1.012 4.168 3.176 5.063 5.328 c 0.52 1.254 0.707 2.387 0.641 3.906 c -0.074 1.664 -0.344 2.664 -1.152 4.313 c -1.23 2.496 -2.922 4.309 -5.059 5.422 c -0.781 0.402 -2.094 0.871 -2.461 0.871 c -0.098 0 -2.859 -2.684 -6.137 -5.961 m 0 0" fill="#000"/></g></g></g></g></g></g><g><g clip-path="url(#clipPath-433689430)"><!-- color: #2b69b9 --><g><path d="m 13.742 36.945 c 0.074 -0.031 0.195 -0.031 0.27 0 c 0.074 0.031 0.016 0.055 -0.133 0.055 c -0.148 0 -0.207 -0.023 -0.137 -0.055 m -0.695 -0.355 c -1.059 -0.48 -2.172 -2.055 -2.035 -2.883 c 0.078 -0.492 0.34 -0.758 2.223 -2.262 c 2.02 -1.613 3.074 -2.633 3.242 -3.129 c 0.227 -0.68 0.145 -1.992 -0.211 -3.348 c -0.363 -1.383 -0.508 -2.262 -0.375 -2.262 c 0.047 0 2.168 2.09 4.711 4.641 l 4.629 4.637 l -0.684 -0.074 c -0.375 -0.039 -1.102 -0.195 -1.613 -0.348 c -1.227 -0.367 -2.836 -0.461 -3.508 -0.203 c -0.539 0.207 -1.23 0.938 -3.277 3.48 c -0.73 0.906 -1.461 1.719 -1.629 1.805 c -0.414 0.215 -0.926 0.195 -1.473 -0.055 m 8.91 -10.805 l -5.957 -5.961 l 0.129 -0.52 c 0.438 -1.734 1.422 -3.379 2.832 -4.734 c 3.641 -3.492 8.254 -4.508 12.1 -2.664 c 2.109 1.012 4.168 3.176 5.063 5.328 c 0.52 1.254 0.707 2.387 0.641 3.906 c -0.074 1.664 -0.344 2.664 -1.152 4.313 c -1.23 2.496 -2.922 4.309 -5.059 5.422 c -0.781 0.402 -2.094 0.871 -2.461 0.871 c -0.098 0 -2.859 -2.684 -6.137 -5.961 m 0 0" fill="#ff5c5c"/></g></g></g><g><path d="m 24 1 c -1.045 0 -2.01 0.284 -2.844 0.781 l -15.344 8.719 c -0.017 0.013 -0.045 0.023 -0.063 0.031 c -1.852 1.051 -2.851 3 -2.75 4.969 l 0 1 c -0.101 -1.966 0.898 -3.918 2.75 -4.969 c 0.017 -0.008 0.045 -0.018 0.063 -0.031 l 15.344 -8.719 c 0.832 -0.497 1.799 -0.781 2.844 -0.781 c 1.045 0 2.01 0.284 2.844 0.781 l 15.25 8.656 c 0.873 0.46 1.625 1.156 2.156 2.063 c 0.554 0.942 0.806 1.988 0.75 3 l 0 -1 c 0.056 -1.012 -0.196 -2.058 -0.75 -3 c -0.532 -0.906 -1.283 -1.603 -2.156 -2.063 l -15.25 -8.656 c -0.832 -0.497 -1.799 -0.781 -2.844 -0.781 z" opacity="0.2" fill="#fff"/></g></svg>