<svg viewBox="0 0 48 48"><defs><linearGradient id="linearGradient3764" y1="1" x2="0" y2="47" gradientUnits="userSpaceOnUse"><stop stop-color="#f9f9f9" stop-opacity="1"/><stop offset="1" stop-color="#efefef" stop-opacity="1"/></linearGradient><clipPath id="clipPath-616972420"><g transform="translate(0,-1004.3622)"><path d="m 24 1005.37 c -1.045 0 -2.023 0.287 -2.856 0.784 l -15.339 8.708 c -0.017 0.013 -0.035 0.013 -0.052 0.021 -1.852 1.051 -2.847 3 -2.746 4.968 l 0 17.02 c -0.056 1.013 0.175 2.049 0.729 2.993 0.532 0.903 1.288 1.602 2.161 2.061 l 15.246 8.653 c 0.832 0.497 1.811 0.784 2.856 0.784 1.045 0 2.023 -0.287 2.856 -0.784 l 15.246 -8.653 c 0.873 -0.46 1.629 -1.158 2.161 -2.061 0.554 -0.944 0.785 -1.981 0.729 -2.993 l 0 -17.01 c 0.056 -1.012 -0.175 -2.052 -0.729 -2.993 -0.532 -0.906 -1.288 -1.604 -2.161 -2.064 l -15.246 -8.653 c -0.832 -0.497 -1.811 -0.784 -2.856 -0.784 z" fill="#1890d0"/></g></clipPath><clipPath id="clipPath-627060186"><g transform="translate(0,-1004.3622)"><path d="m 24 1005.37 c -1.045 0 -2.023 0.287 -2.856 0.784 l -15.339 8.708 c -0.017 0.013 -0.035 0.013 -0.052 0.021 -1.852 1.051 -2.847 3 -2.746 4.968 l 0 17.02 c -0.056 1.013 0.175 2.049 0.729 2.993 0.532 0.903 1.288 1.602 2.161 2.061 l 15.246 8.653 c 0.832 0.497 1.811 0.784 2.856 0.784 1.045 0 2.023 -0.287 2.856 -0.784 l 15.246 -8.653 c 0.873 -0.46 1.629 -1.158 2.161 -2.061 0.554 -0.944 0.785 -1.981 0.729 -2.993 l 0 -17.01 c 0.056 -1.012 -0.175 -2.052 -0.729 -2.993 -0.532 -0.906 -1.288 -1.604 -2.161 -2.064 l -15.246 -8.653 c -0.832 -0.497 -1.811 -0.784 -2.856 -0.784 z" fill="#1890d0"/></g></clipPath><filter id="filter-592683125"><feGaussianBlur stdDeviation="0.35"/></filter></defs><g><g transform="translate(0,-1004.3622)"><path d="m 45 1037.36 c 0.056 1.013 -0.196 2.056 -0.75 3 -0.532 0.903 -1.283 1.603 -2.156 2.063 l -15.25 8.656 c -0.832 0.497 -1.799 0.781 -2.844 0.781 -1.045 0 -2.01 -0.284 -2.844 -0.781 l -15.25 -8.656 c -0.873 -0.46 -1.625 -1.159 -2.156 -2.063 -0.416 -0.708 -0.677 -1.485 -0.75 -2.25 -0.004 0.932 0.242 1.884 0.75 2.75 0.532 0.903 1.283 1.603 2.156 2.063 l 15.25 8.656 c 0.832 0.497 1.799 0.781 2.844 0.781 1.045 0 2.01 -0.284 2.844 -0.781 l 15.25 -8.656 c 0.873 -0.46 1.625 -1.159 2.156 -2.063 0.554 -0.944 0.806 -1.987 0.75 -3 l 0 -0.5 z" opacity="0.05"/><path d="m 45 1036.86 c 0.015 0.263 -0.004 0.516 -0.031 0.781 -0.036 0.844 -0.259 1.685 -0.719 2.469 -0.532 0.903 -1.283 1.603 -2.156 2.063 l -15.25 8.656 c -0.832 0.497 -1.799 0.781 -2.844 0.781 -1.045 0 -2.01 -0.284 -2.844 -0.781 l -15.25 -8.656 c -0.873 -0.46 -1.625 -1.159 -2.156 -2.063 -0.414 -0.705 -0.621 -1.46 -0.688 -2.219 -0.014 -0.092 -0.054 -0.189 -0.063 -0.281 -0.004 0.932 0.242 1.884 0.75 2.75 0.532 0.903 1.283 1.603 2.156 2.063 l 15.25 8.656 c 0.832 0.497 1.799 0.781 2.844 0.781 1.045 0 2.01 -0.284 2.844 -0.781 l 15.25 -8.656 c 0.873 -0.46 1.625 -1.159 2.156 -2.063 0.554 -0.944 0.806 -1.987 0.75 -3 l 0 -0.5 z m -41.813 1.625 c 0.057 0.219 0.132 0.442 0.219 0.656 -0.088 -0.216 -0.16 -0.436 -0.219 -0.656 z m 0.219 0.656 c 0.099 0.243 0.206 0.484 0.344 0.719 -0.139 -0.236 -0.243 -0.472 -0.344 -0.719 z m 41.41 -0.656 c -0.059 0.221 -0.131 0.441 -0.219 0.656 0.087 -0.215 0.161 -0.437 0.219 -0.656 z m -0.219 0.656 c -0.101 0.246 -0.205 0.483 -0.344 0.719 0.138 -0.235 0.245 -0.476 0.344 -0.719 z" opacity="0.1"/><path d="m 3.03 1037.64 c 0.035 0.844 0.259 1.685 0.719 2.469 0.532 0.903 1.283 1.603 2.156 2.063 l 15.25 8.656 c 0.832 0.497 1.799 0.781 2.844 0.781 1.045 0 2.01 -0.284 2.844 -0.781 l 15.25 -8.656 c 0.873 -0.46 1.625 -1.159 2.156 -2.063 0.46 -0.784 0.683 -1.624 0.719 -2.469 -0.067 0.763 -0.303 1.511 -0.719 2.219 -0.532 0.903 -1.283 1.603 -2.156 2.063 l -15.25 8.656 c -0.832 0.497 -1.799 0.781 -2.844 0.781 -1.045 0 -2.01 -0.284 -2.844 -0.781 l -15.25 -8.656 c -0.873 -0.46 -1.625 -1.159 -2.156 -2.063 -0.416 -0.708 -0.651 -1.456 -0.719 -2.219 z" opacity="0.2"/></g></g><g><path d="m 24 46.996 c 1.045 0 2.023 -0.287 2.856 -0.784 l 15.339 -8.708 c 0.017 -0.013 0.035 -0.013 0.052 -0.021 1.852 -1.051 2.847 -3 2.746 -4.968 l 0 -17.02 c 0.056 -1.013 -0.175 -2.049 -0.729 -2.993 -0.532 -0.903 -1.288 -1.602 -2.161 -2.061 l -15.246 -8.653 c -0.832 -0.497 -1.811 -0.784 -2.856 -0.784 -1.045 0 -2.023 0.287 -2.856 0.784 l -15.246 8.653 c -0.873 0.46 -1.629 1.158 -2.161 2.061 -0.554 0.944 -0.785 1.981 -0.729 2.993 l 0 17.01 c -0.056 1.012 0.175 2.051 0.729 2.993 0.532 0.906 1.288 1.604 2.161 2.064 l 15.246 8.653 c 0.832 0.497 1.811 0.785 2.856 0.785 z" fill="url(#linearGradient3764)" fill-opacity="1"/></g><g><g clip-path="url(#clipPath-616972420)"><g opacity="0.25"><g transform="translate(0,1)"><g filter="url(#filter-592683125)"><!-- color: #f9f9f9 --><path d="m 36 0 0 48 c 4 0 7 0 12 0 0 -4 0 -42 0 -48 -4 0 -9 0 -12 0 z" fill="#000"/><path d="m 24 0 c -4.391 0 -9 0 -12 0 l 0 48 c 3 0 7.609 0 12 0 z" fill="#000"/><path d="m 24 0 0 48 c 2 0 9 0 12 0 l 0 -48 c -3 0 -7.609 0 -12 0 z" fill="#000"/><path d="M 12,0 C 7,0 5,0 0,0 c 0,4.736255 0,46 0,48 4,0 9,0 12,0 z" fill="#000"/><path d="m 33.438 19 c -0.867 0 -1.438 0.758 -1.438 1.691 l 0 6.617 c 0 0.934 0.57 1.691 1.438 1.691 0.863 0 1.563 -0.758 1.563 -1.691 l 0 -6.617 c 0 -0.934 -0.699 -1.691 -1.563 -1.691 z m -18.871 0 c -0.867 0 -1.566 0.758 -1.566 1.691 l 0 6.617 c 0 0.934 0.699 1.691 1.566 1.691 0.863 0 1.434 -0.758 1.434 -1.691 l 0 -6.617 c 0 -0.934 -0.57 -1.691 -1.434 -1.691 z m 0 0" fill="#000"/><path d="m 17 19 0 11.594 c 0 0.688 0.324 1.406 1 1.406 l 2 0 0 3.375 c 0 0.898 0.316 1.625 1.188 1.625 0.867 0 1.813 -0.727 1.813 -1.625 l 0 -3.375 l 2 0 0 3.375 c 0 0.898 0.945 1.625 1.813 1.625 0.867 0 1.188 -0.727 1.188 -1.625 l 0 -3.375 l 2 0 c 0.676 0 1 -0.719 1 -1.406 l 0 -11.594 z m 0 0" fill="#000"/><path d="m 27.316 13.199 1.297 -1.844 c 0.074 -0.109 0.055 -0.254 -0.043 -0.32 c -0.102 -0.066 -0.246 -0.035 -0.324 0.074 l -1.34 1.914 c -0.887 -0.344 -1.871 -0.531 -2.906 -0.531 c -1.035 0 -2.02 0.188 -2.906 0.531 l -1.344 -1.914 c -0.074 -0.109 -0.219 -0.141 -0.32 -0.074 c -0.098 0.066 -0.117 0.211 -0.043 0.32 l 1.293 1.844 c -2.055 0.937 -3.496 2.719 -3.68 4.801 l 14 0 c -0.184 -2.082 -1.625 -3.863 -3.684 -4.801 z m -6.27 2.902 c -0.43 0 -0.773 -0.34 -0.773 -0.762 0 -0.418 0.344 -0.758 0.773 -0.758 0.43 0 0.773 0.34 0.773 0.758 0 0.422 -0.348 0.762 -0.773 0.762 z m 6 0 c -0.43 0 -0.773 -0.34 -0.773 -0.762 0 -0.418 0.344 -0.758 0.773 -0.758 0.426 0 0.773 0.34 0.773 0.758 0 0.422 -0.348 0.762 -0.773 0.762 z m 0 0" fill="#000"/></g></g></g></g></g><g><g clip-path="url(#clipPath-627060186)"><!-- color: #f9f9f9 --><path d="m 36 0 0 48 c 4 0 7 0 12 0 0 -4 0 -42 0 -48 -4 0 -9 0 -12 0 z" fill="#ffa135"/><path d="m 24 0 c -4.391 0 -9 0 -12 0 l 0 48 c 3 0 7.609 0 12 0 z" fill="#5ea3bf"/><path d="m 24 0 0 48 c 2 0 9 0 12 0 l 0 -48 c -3 0 -7.609 0 -12 0 z" fill="#fa616b"/><path d="M 12,0 C 7,0 5,0 0,0 c 0,4.736255 0,46 0,48 4,0 9,0 12,0 z" fill="#6ec77d"/><path d="m 33.438 19 c -0.867 0 -1.438 0.758 -1.438 1.691 l 0 6.617 c 0 0.934 0.57 1.691 1.438 1.691 0.863 0 1.563 -0.758 1.563 -1.691 l 0 -6.617 c 0 -0.934 -0.699 -1.691 -1.563 -1.691 z m -18.871 0 c -0.867 0 -1.566 0.758 -1.566 1.691 l 0 6.617 c 0 0.934 0.699 1.691 1.566 1.691 0.863 0 1.434 -0.758 1.434 -1.691 l 0 -6.617 c 0 -0.934 -0.57 -1.691 -1.434 -1.691 z m 0 0" fill="#f8f8f8"/><path d="m 17 19 0 11.594 c 0 0.688 0.324 1.406 1 1.406 l 2 0 0 3.375 c 0 0.898 0.316 1.625 1.188 1.625 0.867 0 1.813 -0.727 1.813 -1.625 l 0 -3.375 l 2 0 0 3.375 c 0 0.898 0.945 1.625 1.813 1.625 0.867 0 1.188 -0.727 1.188 -1.625 l 0 -3.375 l 2 0 c 0.676 0 1 -0.719 1 -1.406 l 0 -11.594 z m 0 0" fill="#f8f8f8"/><path d="m 27.316 13.199 1.297 -1.844 c 0.074 -0.109 0.055 -0.254 -0.043 -0.32 c -0.102 -0.066 -0.246 -0.035 -0.324 0.074 l -1.34 1.914 c -0.887 -0.344 -1.871 -0.531 -2.906 -0.531 c -1.035 0 -2.02 0.188 -2.906 0.531 l -1.344 -1.914 c -0.074 -0.109 -0.219 -0.141 -0.32 -0.074 c -0.098 0.066 -0.117 0.211 -0.043 0.32 l 1.293 1.844 c -2.055 0.937 -3.496 2.719 -3.68 4.801 l 14 0 c -0.184 -2.082 -1.625 -3.863 -3.684 -4.801 z m -6.27 2.902 c -0.43 0 -0.773 -0.34 -0.773 -0.762 0 -0.418 0.344 -0.758 0.773 -0.758 0.43 0 0.773 0.34 0.773 0.758 0 0.422 -0.348 0.762 -0.773 0.762 z m 6 0 c -0.43 0 -0.773 -0.34 -0.773 -0.762 0 -0.418 0.344 -0.758 0.773 -0.758 0.426 0 0.773 0.34 0.773 0.758 0 0.422 -0.348 0.762 -0.773 0.762 z m 0 0" fill="#f8f8f8"/></g></g><g><path d="m 24 1 c -1.045 0 -2.01 0.284 -2.844 0.781 l -15.344 8.719 c -0.017 0.013 -0.045 0.023 -0.063 0.031 c -1.852 1.051 -2.851 3 -2.75 4.969 l 0 1 c -0.101 -1.966 0.898 -3.918 2.75 -4.969 c 0.017 -0.008 0.045 -0.018 0.063 -0.031 l 15.344 -8.719 c 0.832 -0.497 1.799 -0.781 2.844 -0.781 c 1.045 0 2.01 0.284 2.844 0.781 l 15.25 8.656 c 0.873 0.46 1.625 1.156 2.156 2.063 c 0.554 0.942 0.806 1.988 0.75 3 l 0 -1 c 0.056 -1.012 -0.196 -2.058 -0.75 -3 c -0.532 -0.906 -1.283 -1.603 -2.156 -2.063 l -15.25 -8.656 c -0.832 -0.497 -1.799 -0.781 -2.844 -0.781 z" opacity="0.2" fill="#fff"/></g></svg>