<svg viewBox="0 0 48 48"><defs><linearGradient id="linearGradient3764" x1="1" x2="47" gradientUnits="userSpaceOnUse" gradientTransform="translate(-48.000001,0.00221467)"><stop stop-color="#d70909" stop-opacity="1"/><stop offset="1" stop-color="#ea0a0a" stop-opacity="1"/></linearGradient><clipPath id="clipPath-201259585"><g transform="translate(0,-1004.3622)"><rect rx="4" y="1005.36" x="1" height="46" width="46" fill="#1890d0"/></g></clipPath><clipPath id="clipPath-230367766"><g transform="translate(0,-1004.3622)"><rect rx="4" y="1005.36" x="1" height="46" width="46" fill="#1890d0"/></g></clipPath></defs><g><path d="m 1 43 l 0 0.25 c 0 2.216 1.784 4 4 4 l 38 0 c 2.216 0 4 -1.784 4 -4 l 0 -0.25 c 0 2.216 -1.784 4 -4 4 l -38 0 c -2.216 0 -4 -1.784 -4 -4 z m 0 0.5 l 0 0.5 c 0 2.216 1.784 4 4 4 l 38 0 c 2.216 0 4 -1.784 4 -4 l 0 -0.5 c 0 2.216 -1.784 4 -4 4 l -38 0 c -2.216 0 -4 -1.784 -4 -4 z" opacity="0.02"/><path d="m 1 43.25 l 0 0.25 c 0 2.216 1.784 4 4 4 l 38 0 c 2.216 0 4 -1.784 4 -4 l 0 -0.25 c 0 2.216 -1.784 4 -4 4 l -38 0 c -2.216 0 -4 -1.784 -4 -4 z" opacity="0.05"/><path d="m 1 43 l 0 0.25 c 0 2.216 1.784 4 4 4 l 38 0 c 2.216 0 4 -1.784 4 -4 l 0 -0.25 c 0 2.216 -1.784 4 -4 4 l -38 0 c -2.216 0 -4 -1.784 -4 -4 z" opacity="0.1"/></g><g><rect width="46" height="46" x="-47" y="1" rx="4" transform="matrix(0,-1,1,0,0,0)" fill="url(#linearGradient3764)" fill-opacity="1"/></g><g><g clip-path="url(#clipPath-201259585)"><g opacity="0.1"><!-- color: #ea0a0a --><g><path d="m 24 9 c -8.254 0 -15 6.754 -15 15.02 c 0 7.926 6.211 14.465 14 14.984 l 0 -2.098 c -6.695 -0.512 -11.938 -6.05 -11.938 -12.887 c 0 -7.184 5.762 -12.949 12.938 -12.949 c 7.176 0 12.938 5.766 12.938 12.949 l 2.063 0 c 0 -8.262 -6.746 -15.02 -15 -15.02 m 0 0" fill="#000"/><path d="m 24 13 c -6.164 0 -11 5.04 -11 11.01 c 0 5.641 4.328 10.434 10 10.949 l 0 -1.91 c -4.305 -0.512 -7.781 -4.262 -7.781 -9.04 c 0 -5.145 4.02 -9.133 8.781 -9.133 c 4.758 0 8.781 3.988 8.781 9.133 l 2.219 0 c 0 -5.973 -4.836 -11.01 -11 -11.01 m 0 0" fill="#000"/></g></g></g></g><g><g clip-path="url(#clipPath-230367766)"><g transform="translate(0,-1)"><!-- color: #ea0a0a --><g><path d="m 24 9 c -8.254 0 -15 6.754 -15 15.02 c 0 7.926 6.211 14.465 14 14.984 l 0 -2.098 c -6.695 -0.512 -11.938 -6.05 -11.938 -12.887 c 0 -7.184 5.762 -12.949 12.938 -12.949 c 7.176 0 12.938 5.766 12.938 12.949 l 2.063 0 c 0 -8.262 -6.746 -15.02 -15 -15.02 m 0 0" fill="#f9f9f9"/><path d="m 24 13 c -6.164 0 -11 5.04 -11 11.01 c 0 5.641 4.328 10.434 10 10.949 l 0 -1.91 c -4.305 -0.512 -7.781 -4.262 -7.781 -9.04 c 0 -5.145 4.02 -9.133 8.781 -9.133 c 4.758 0 8.781 3.988 8.781 9.133 l 2.219 0 c 0 -5.973 -4.836 -11.01 -11 -11.01 m 0 0" fill="#f9f9f9"/></g></g></g></g><g><g transform="translate(0,-1004.3622)"><path d="m 1 1043.36 0 4 c 0 2.216 1.784 4 4 4 l 38 0 c 2.216 0 4 -1.784 4 -4 l 0 -4 c 0 2.216 -1.784 4 -4 4 l -38 0 c -2.216 0 -4 -1.784 -4 -4 z" opacity="0.1"/></g></g></svg>