<svg viewBox="0 0 48 48"><defs><linearGradient id="linearGradient3764" x1="1" x2="47" gradientUnits="userSpaceOnUse" gradientTransform="translate(-48.000001,0.00221467)"><stop stop-color="#00b5c0" stop-opacity="1"/><stop offset="1" stop-color="#00c9d4" stop-opacity="1"/></linearGradient><clipPath id="clipPath-589012306"><g transform="translate(0,-1004.3622)"><rect rx="4" y="1005.36" x="1" height="46" width="46" fill="#1890d0"/></g></clipPath><clipPath id="clipPath-620532394"><g transform="translate(0,-1004.3622)"><rect rx="4" y="1005.36" x="1" height="46" width="46" fill="#1890d0"/></g></clipPath></defs><g><path d="m 1 43 l 0 0.25 c 0 2.216 1.784 4 4 4 l 38 0 c 2.216 0 4 -1.784 4 -4 l 0 -0.25 c 0 2.216 -1.784 4 -4 4 l -38 0 c -2.216 0 -4 -1.784 -4 -4 z m 0 0.5 l 0 0.5 c 0 2.216 1.784 4 4 4 l 38 0 c 2.216 0 4 -1.784 4 -4 l 0 -0.5 c 0 2.216 -1.784 4 -4 4 l -38 0 c -2.216 0 -4 -1.784 -4 -4 z" opacity="0.02"/><path d="m 1 43.25 l 0 0.25 c 0 2.216 1.784 4 4 4 l 38 0 c 2.216 0 4 -1.784 4 -4 l 0 -0.25 c 0 2.216 -1.784 4 -4 4 l -38 0 c -2.216 0 -4 -1.784 -4 -4 z" opacity="0.05"/><path d="m 1 43 l 0 0.25 c 0 2.216 1.784 4 4 4 l 38 0 c 2.216 0 4 -1.784 4 -4 l 0 -0.25 c 0 2.216 -1.784 4 -4 4 l -38 0 c -2.216 0 -4 -1.784 -4 -4 z" opacity="0.1"/></g><g><rect width="46" height="46" x="-47" y="1" rx="4" transform="matrix(0,-1,1,0,0,0)" fill="url(#linearGradient3764)" fill-opacity="1"/></g><g><g clip-path="url(#clipPath-589012306)"><g opacity="0.1"><!-- color: #00c9d4 --><path d="m 28.332 24 c 0 -1.195 -0.422 -2.219 -1.27 -3.063 c -0.844 -0.848 -1.867 -1.27 -3.063 -1.27 c -1.195 0 -2.219 0.422 -3.063 1.27 -0.848 0.844 -1.27 1.867 -1.27 3.063 0 1.195 0.422 2.219 1.27 3.063 0.844 0.848 1.867 1.27 3.063 1.27 1.195 0 2.219 -0.422 3.063 -1.27 c 0.848 -0.844 1.27 -1.867 1.27 -3.063 z m 8.668 -1.844 l 0 3.758 c 0 0.133 -0.047 0.266 -0.137 0.387 -0.09 0.125 -0.203 0.199 -0.34 0.223 l -3.129 0.473 c -0.215 0.609 -0.434 1.121 -0.66 1.539 0.395 0.566 1 1.344 1.813 2.336 0.109 0.137 0.168 0.277 0.168 0.426 0 0.145 -0.051 0.273 -0.152 0.387 -0.305 0.418 -0.863 1.027 -1.676 1.828 -0.813 0.801 -1.344 1.203 -1.59 1.203 -0.137 0 -0.285 -0.051 -0.441 -0.152 l -2.336 -1.828 c -0.496 0.258 -1.012 0.473 -1.539 0.645 -0.184 1.531 -0.344 2.582 -0.492 3.145 c -0.078 0.316 -0.281 0.477 -0.609 0.477 l -3.758 0 c -0.156 0 -0.297 -0.047 -0.414 -0.145 -0.117 -0.098 -0.184 -0.219 -0.195 -0.363 l -0.473 -3.113 c -0.555 -0.184 -1.063 -0.391 -1.523 -0.629 l -2.387 1.813 c -0.113 0.102 -0.254 0.152 -0.426 0.152 -0.156 0 -0.297 -0.063 -0.422 -0.188 c -1.625 -0.527 -2.902 -1.527 -2.793 -2.844 c -0.078 -0.113 -0.117 -0.242 -0.117 -0.387 0 -0.137 0.043 -0.266 0.133 -0.391 0.172 -0.238 0.457 -0.613 0.863 -1.125 0.406 -0.516 0.711 -0.914 0.914 -1.195 -0.305 -0.563 -0.535 -1.121 -0.691 -1.676 l -3.098 -0.457 c -0.148 -0.02 -0.266 -0.094 -0.355 -0.211 -0.09 -0.117 -0.137 -0.25 -0.137 -0.398 l 0 -3.758 c 0 -0.133 0.047 -0.266 0.137 -0.387 0.09 -0.125 0.195 -0.199 0.32 -0.223 l 3.148 -0.473 c 0.16 -0.52 0.379 -1.039 0.66 -1.559 -0.449 -0.641 -1.055 -1.422 -1.813 -2.336 -0.109 -0.133 -0.168 -0.27 -0.168 -0.406 0 -0.109 0.051 -0.242 0.152 -0.387 0.293 -0.406 0.852 -1.012 1.668 -1.82 0.816 -0.809 1.352 -1.211 1.598 -1.211 0.148 0 0.297 0.059 0.441 0.168 l 2.336 1.813 c 0.496 -0.258 1.012 -0.473 1.539 -0.645 0.184 -1.531 0.344 -2.582 0.492 -3.145 c 0.078 -0.316 0.281 -0.477 0.609 -0.477 l 3.758 0 c 0.156 0 0.297 0.047 0.414 0.145 0.117 0.098 0.184 0.219 0.195 0.363 l 0.473 3.113 c 0.555 0.184 1.063 0.391 1.523 0.629 l 2.406 -1.813 c 0.102 -0.102 0.234 -0.152 0.406 -0.152 0.145 0 0.285 0.059 0.422 0.168 1.746 0.941 2.848 2.129 2.793 2.879 0.078 0.09 0.117 0.215 0.117 0.371 0 0.137 -0.043 0.266 -0.133 0.391 -0.172 0.238 -0.457 0.613 -0.863 1.125 -0.406 0.516 -0.711 0.914 -0.914 1.195 0.293 0.563 0.523 1.117 0.691 1.656 l 3.098 0.477 c 0.148 0.02 0.266 0.094 0.355 0.211 c 0.09 0.117 0.137 0.25 0.137 0.398 z m 0 0" fill="#000"/><path d="m 24 9 c -8.272 0 -15 6.728 -15 15 0 8.272 6.728 15 15 15 8.272 0 15 -6.728 15 -15 0 -8.272 -6.728 -15 -15 -15 z m 0 2 c 7.189 0 13 5.811 13 13 0 7.189 -5.811 13 -13 13 -7.189 0 -13 -5.811 -13 -13 0 -7.189 5.811 -13 13 -13 z" color="#000" fill="#000"/></g></g></g><g><g clip-path="url(#clipPath-620532394)"><g transform="translate(0,-1)"><!-- color: #00c9d4 --><path d="m 28.332 24 c 0 -1.195 -0.422 -2.219 -1.27 -3.063 c -0.844 -0.848 -1.867 -1.27 -3.063 -1.27 c -1.195 0 -2.219 0.422 -3.063 1.27 -0.848 0.844 -1.27 1.867 -1.27 3.063 0 1.195 0.422 2.219 1.27 3.063 0.844 0.848 1.867 1.27 3.063 1.27 1.195 0 2.219 -0.422 3.063 -1.27 c 0.848 -0.844 1.27 -1.867 1.27 -3.063 z m 8.668 -1.844 l 0 3.758 c 0 0.133 -0.047 0.266 -0.137 0.387 -0.09 0.125 -0.203 0.199 -0.34 0.223 l -3.129 0.473 c -0.215 0.609 -0.434 1.121 -0.66 1.539 0.395 0.566 1 1.344 1.813 2.336 0.109 0.137 0.168 0.277 0.168 0.426 0 0.145 -0.051 0.273 -0.152 0.387 -0.305 0.418 -0.863 1.027 -1.676 1.828 -0.813 0.801 -1.344 1.203 -1.59 1.203 -0.137 0 -0.285 -0.051 -0.441 -0.152 l -2.336 -1.828 c -0.496 0.258 -1.012 0.473 -1.539 0.645 -0.184 1.531 -0.344 2.582 -0.492 3.145 c -0.078 0.316 -0.281 0.477 -0.609 0.477 l -3.758 0 c -0.156 0 -0.297 -0.047 -0.414 -0.145 -0.117 -0.098 -0.184 -0.219 -0.195 -0.363 l -0.473 -3.113 c -0.555 -0.184 -1.063 -0.391 -1.523 -0.629 l -2.387 1.813 c -0.113 0.102 -0.254 0.152 -0.426 0.152 -0.156 0 -0.297 -0.063 -0.422 -0.188 c -1.625 -0.527 -2.902 -1.527 -2.793 -2.844 c -0.078 -0.113 -0.117 -0.242 -0.117 -0.387 0 -0.137 0.043 -0.266 0.133 -0.391 0.172 -0.238 0.457 -0.613 0.863 -1.125 0.406 -0.516 0.711 -0.914 0.914 -1.195 -0.305 -0.563 -0.535 -1.121 -0.691 -1.676 l -3.098 -0.457 c -0.148 -0.02 -0.266 -0.094 -0.355 -0.211 -0.09 -0.117 -0.137 -0.25 -0.137 -0.398 l 0 -3.758 c 0 -0.133 0.047 -0.266 0.137 -0.387 0.09 -0.125 0.195 -0.199 0.32 -0.223 l 3.148 -0.473 c 0.16 -0.52 0.379 -1.039 0.66 -1.559 -0.449 -0.641 -1.055 -1.422 -1.813 -2.336 -0.109 -0.133 -0.168 -0.27 -0.168 -0.406 0 -0.109 0.051 -0.242 0.152 -0.387 0.293 -0.406 0.852 -1.012 1.668 -1.82 0.816 -0.809 1.352 -1.211 1.598 -1.211 0.148 0 0.297 0.059 0.441 0.168 l 2.336 1.813 c 0.496 -0.258 1.012 -0.473 1.539 -0.645 0.184 -1.531 0.344 -2.582 0.492 -3.145 c 0.078 -0.316 0.281 -0.477 0.609 -0.477 l 3.758 0 c 0.156 0 0.297 0.047 0.414 0.145 0.117 0.098 0.184 0.219 0.195 0.363 l 0.473 3.113 c 0.555 0.184 1.063 0.391 1.523 0.629 l 2.406 -1.813 c 0.102 -0.102 0.234 -0.152 0.406 -0.152 0.145 0 0.285 0.059 0.422 0.168 1.746 0.941 2.848 2.129 2.793 2.879 0.078 0.09 0.117 0.215 0.117 0.371 0 0.137 -0.043 0.266 -0.133 0.391 -0.172 0.238 -0.457 0.613 -0.863 1.125 -0.406 0.516 -0.711 0.914 -0.914 1.195 0.293 0.563 0.523 1.117 0.691 1.656 l 3.098 0.477 c 0.148 0.02 0.266 0.094 0.355 0.211 c 0.09 0.117 0.137 0.25 0.137 0.398 z m 0 0" fill="#f9f9f9"/><path d="m 24 9 c -8.272 0 -15 6.728 -15 15 0 8.272 6.728 15 15 15 8.272 0 15 -6.728 15 -15 0 -8.272 -6.728 -15 -15 -15 z m 0 2 c 7.189 0 13 5.811 13 13 0 7.189 -5.811 13 -13 13 -7.189 0 -13 -5.811 -13 -13 0 -7.189 5.811 -13 13 -13 z" color="#000" fill="#f9f9f9"/></g></g></g><g><g transform="translate(0,-1004.3622)"><path d="m 1 1043.36 0 4 c 0 2.216 1.784 4 4 4 l 38 0 c 2.216 0 4 -1.784 4 -4 l 0 -4 c 0 2.216 -1.784 4 -4 4 l -38 0 c -2.216 0 -4 -1.784 -4 -4 z" opacity="0.1"/></g></g></svg>