<svg viewBox="0 0 48 48"><defs><linearGradient id="linearGradient3764" x1="1" x2="47" gradientUnits="userSpaceOnUse" gradientTransform="translate(-48.000001,0.00221467)"><stop stop-color="#666" stop-opacity="1"/><stop offset="1" stop-color="#707070" stop-opacity="1"/></linearGradient><clipPath id="clipPath-515020760"><g transform="translate(0,-1004.3622)"><rect rx="4" y="1005.36" x="1" height="46" width="46" fill="#1890d0"/></g></clipPath><clipPath id="clipPath-527959035"><g transform="translate(0,-1004.3622)"><rect rx="4" y="1005.36" x="1" height="46" width="46" fill="#1890d0"/></g></clipPath></defs><g><path d="m 1 43 l 0 0.25 c 0 2.216 1.784 4 4 4 l 38 0 c 2.216 0 4 -1.784 4 -4 l 0 -0.25 c 0 2.216 -1.784 4 -4 4 l -38 0 c -2.216 0 -4 -1.784 -4 -4 z m 0 0.5 l 0 0.5 c 0 2.216 1.784 4 4 4 l 38 0 c 2.216 0 4 -1.784 4 -4 l 0 -0.5 c 0 2.216 -1.784 4 -4 4 l -38 0 c -2.216 0 -4 -1.784 -4 -4 z" opacity="0.02"/><path d="m 1 43.25 l 0 0.25 c 0 2.216 1.784 4 4 4 l 38 0 c 2.216 0 4 -1.784 4 -4 l 0 -0.25 c 0 2.216 -1.784 4 -4 4 l -38 0 c -2.216 0 -4 -1.784 -4 -4 z" opacity="0.05"/><path d="m 1 43 l 0 0.25 c 0 2.216 1.784 4 4 4 l 38 0 c 2.216 0 4 -1.784 4 -4 l 0 -0.25 c 0 2.216 -1.784 4 -4 4 l -38 0 c -2.216 0 -4 -1.784 -4 -4 z" opacity="0.1"/></g><g><rect width="46" height="46" x="-47" y="1" rx="4" transform="matrix(0,-1,1,0,0,0)" fill="url(#linearGradient3764)" fill-opacity="1"/></g><g><g clip-path="url(#clipPath-515020760)"><g opacity="0.1"><!-- color: #707070 --><g><path d="m 24 8 c -7.18 0 -13 5.629 -13 12.563 c 0 4.18 2.121 7.844 5.375 10.125 c -0.117 0.48 -0.262 1 -0.5 1.531 c -0.813 1.793 -1.625 1.781 -1.625 1.781 c 0 0 2.438 -0.012 4.063 -0.906 c 0.344 -0.188 0.637 -0.473 0.906 -0.844 c 1.48 0.566 3.094 0.844 4.781 0.844 c 7.18 0 13 -5.598 13 -12.531 c 0 -6.934 -5.82 -12.563 -13 -12.563 m 0 5 c 2 0 4 1 4 3 l 0 3 c 1 0 2 0 2 1 l 0 6 c 0 0.59 -0.328 1 -1 1 l -10 0 c -0.672 0 -1 -0.41 -1 -1 l 0 -6 c 0 -1 1 -1 2 -1 l 0 -3 c 0 -2 2 -3 4 -3 m 0 1 c -1.5 0 -3 1 -3 3 l 0 2 l 6 0 l 0 -2 c 0 -2 -1.5 -3 -3 -3 m 0 0" fill="#000"/><path d="m 32 36.996 c 0 1.102 -0.895 1.992 -2 1.992 c -1.105 0 -2 -0.891 -2 -1.992 c 0 -1.102 0.895 -1.996 2 -1.996 c 1.105 0 2 0.895 2 1.996 m -6 0.008 c 0 1.102 -0.895 1.996 -2 1.996 c -1.105 0 -2 -0.895 -2 -1.996 c 0 -1.102 0.895 -1.992 2 -1.992 c 1.105 0 2 0.891 2 1.992 m -6 -0.008 c 0 1.102 -0.895 1.992 -2 1.992 c -1.105 0 -2 -0.891 -2 -1.992 c 0 -1.102 0.895 -1.996 2 -1.996 c 1.105 0 2 0.895 2 1.996 m 0 0" fill="#000"/></g></g></g></g><g><g clip-path="url(#clipPath-527959035)"><g transform="translate(0,-1)"><!-- color: #707070 --><g><path d="m 24 8 c -7.18 0 -13 5.629 -13 12.563 c 0 4.18 2.121 7.844 5.375 10.125 c -0.117 0.48 -0.262 1 -0.5 1.531 c -0.813 1.793 -1.625 1.781 -1.625 1.781 c 0 0 2.438 -0.012 4.063 -0.906 c 0.344 -0.188 0.637 -0.473 0.906 -0.844 c 1.48 0.566 3.094 0.844 4.781 0.844 c 7.18 0 13 -5.598 13 -12.531 c 0 -6.934 -5.82 -12.563 -13 -12.563 m 0 5 c 2 0 4 1 4 3 l 0 3 c 1 0 2 0 2 1 l 0 6 c 0 0.59 -0.328 1 -1 1 l -10 0 c -0.672 0 -1 -0.41 -1 -1 l 0 -6 c 0 -1 1 -1 2 -1 l 0 -3 c 0 -2 2 -3 4 -3 m 0 1 c -1.5 0 -3 1 -3 3 l 0 2 l 6 0 l 0 -2 c 0 -2 -1.5 -3 -3 -3 m 0 0" fill="#f9f9f9"/><path d="m 32 36.996 c 0 1.102 -0.895 1.992 -2 1.992 c -1.105 0 -2 -0.891 -2 -1.992 c 0 -1.102 0.895 -1.996 2 -1.996 c 1.105 0 2 0.895 2 1.996 m -6 0.008 c 0 1.102 -0.895 1.996 -2 1.996 c -1.105 0 -2 -0.895 -2 -1.996 c 0 -1.102 0.895 -1.992 2 -1.992 c 1.105 0 2 0.891 2 1.992 m -6 -0.008 c 0 1.102 -0.895 1.992 -2 1.992 c -1.105 0 -2 -0.891 -2 -1.992 c 0 -1.102 0.895 -1.996 2 -1.996 c 1.105 0 2 0.895 2 1.996 m 0 0" fill="#9f6"/></g></g></g></g><g><g transform="translate(0,-1004.3622)"><path d="m 1 1043.36 0 4 c 0 2.216 1.784 4 4 4 l 38 0 c 2.216 0 4 -1.784 4 -4 l 0 -4 c 0 2.216 -1.784 4 -4 4 l -38 0 c -2.216 0 -4 -1.784 -4 -4 z" opacity="0.1"/></g></g></svg>