<svg viewBox="0 0 48 48"><defs><linearGradient id="linearGradient3764" x1="1" x2="47" gradientUnits="userSpaceOnUse" gradientTransform="translate(-48.000001,0.00221467)"><stop stop-color="#0f51b5" stop-opacity="1"/><stop offset="1" stop-color="#1158c7" stop-opacity="1"/></linearGradient><clipPath id="clipPath-599096306"><g transform="translate(0,-1004.3622)"><rect rx="4" y="1005.36" x="1" height="46" width="46" fill="#1890d0"/></g></clipPath><clipPath id="clipPath-625813425"><g transform="translate(0,-1004.3622)"><rect rx="4" y="1005.36" x="1" height="46" width="46" fill="#1890d0"/></g></clipPath></defs><g><path d="m 1 43 l 0 0.25 c 0 2.216 1.784 4 4 4 l 38 0 c 2.216 0 4 -1.784 4 -4 l 0 -0.25 c 0 2.216 -1.784 4 -4 4 l -38 0 c -2.216 0 -4 -1.784 -4 -4 z m 0 0.5 l 0 0.5 c 0 2.216 1.784 4 4 4 l 38 0 c 2.216 0 4 -1.784 4 -4 l 0 -0.5 c 0 2.216 -1.784 4 -4 4 l -38 0 c -2.216 0 -4 -1.784 -4 -4 z" opacity="0.02"/><path d="m 1 43.25 l 0 0.25 c 0 2.216 1.784 4 4 4 l 38 0 c 2.216 0 4 -1.784 4 -4 l 0 -0.25 c 0 2.216 -1.784 4 -4 4 l -38 0 c -2.216 0 -4 -1.784 -4 -4 z" opacity="0.05"/><path d="m 1 43 l 0 0.25 c 0 2.216 1.784 4 4 4 l 38 0 c 2.216 0 4 -1.784 4 -4 l 0 -0.25 c 0 2.216 -1.784 4 -4 4 l -38 0 c -2.216 0 -4 -1.784 -4 -4 z" opacity="0.1"/></g><g><rect width="46" height="46" x="-47" y="1" rx="4" transform="matrix(0,-1,1,0,0,0)" fill="url(#linearGradient3764)" fill-opacity="1"/></g><g><g clip-path="url(#clipPath-599096306)"><g opacity="0.1"><!-- color: #1158c7 --><g><path d="m 19.43 29.902 c -1.574 -0.41 -2.449 -1.711 -2.453 -3.641 c 0 -0.617 0.043 -0.914 0.191 -1.309 c 0.363 -0.973 1.324 -1.707 2.586 -1.977 c 0.629 -0.137 0.824 -0.281 0.824 -0.613 c 0 -0.105 0.074 -0.418 0.168 -0.695 c 0.414 -1.258 1.184 -2.305 2.01 -2.734 c 0.859 -0.449 1.297 -0.551 2.336 -0.543 c 1.48 0.008 2.219 0.34 3.25 1.469 l 0.57 0.621 l 0.508 -0.184 c 2.461 -0.887 4.914 0.621 5.113 3.145 l 0.055 0.688 l 0.484 0.18 c 1.383 0.516 2.035 1.602 1.918 3.191 c -0.078 1.043 -0.547 1.875 -1.289 2.289 l -0.348 0.191 l -7.75 0.016 c -5.953 0.012 -7.844 -0.008 -8.172 -0.094 m 0 0" fill="#000"/><path d="m 13.621 28.789 c -0.918 -0.227 -1.891 -1.07 -2.348 -2.035 c -0.258 -0.547 -0.273 -0.629 -0.273 -1.598 c 0 -0.922 0.023 -1.07 0.227 -1.527 c 0.438 -0.965 1.27 -1.66 2.313 -1.934 c 0.223 -0.059 0.43 -0.148 0.461 -0.203 c 0.031 -0.055 0.07 -0.355 0.082 -0.668 c 0.07 -1.926 1.289 -3.629 2.988 -4.172 c 0.918 -0.297 2.07 -0.223 3.07 0.191 c 0.316 0.133 0.277 0.16 0.949 -0.754 c 0.395 -0.539 1.195 -1.211 1.852 -1.551 c 0.707 -0.371 1.441 -0.543 2.32 -0.539 c 2.457 0.008 4.574 1.605 5.355 4.04 c 0.254 0.781 0.238 1 -0.055 1.01 c -0.129 0 -0.5 0.074 -0.82 0.16 l -0.586 0.16 l -0.535 -0.555 c -1.508 -1.57 -3.965 -1.906 -6.06 -0.836 c -0.836 0.43 -1.508 1.043 -2.01 1.844 c -0.363 0.574 -0.824 1.637 -0.824 1.902 c 0 0.188 -0.145 0.281 -0.77 0.496 c -1.934 0.656 -3.059 2.18 -3.059 4.129 c 0 0.707 0.176 1.574 0.418 2.07 c 0.094 0.188 0.145 0.367 0.113 0.398 c -0.074 0.078 -2.477 0.051 -2.809 -0.031 m 0 0" fill="#000"/></g></g></g></g><g><g clip-path="url(#clipPath-625813425)"><g transform="translate(0,-1)"><!-- color: #1158c7 --><g><path d="m 19.43 29.902 c -1.574 -0.41 -2.449 -1.711 -2.453 -3.641 c 0 -0.617 0.043 -0.914 0.191 -1.309 c 0.363 -0.973 1.324 -1.707 2.586 -1.977 c 0.629 -0.137 0.824 -0.281 0.824 -0.613 c 0 -0.105 0.074 -0.418 0.168 -0.695 c 0.414 -1.258 1.184 -2.305 2.01 -2.734 c 0.859 -0.449 1.297 -0.551 2.336 -0.543 c 1.48 0.008 2.219 0.34 3.25 1.469 l 0.57 0.621 l 0.508 -0.184 c 2.461 -0.887 4.914 0.621 5.113 3.145 l 0.055 0.688 l 0.484 0.18 c 1.383 0.516 2.035 1.602 1.918 3.191 c -0.078 1.043 -0.547 1.875 -1.289 2.289 l -0.348 0.191 l -7.75 0.016 c -5.953 0.012 -7.844 -0.008 -8.172 -0.094 m 0 0" fill="#f9f9f9"/><path d="m 13.621 28.789 c -0.918 -0.227 -1.891 -1.07 -2.348 -2.035 c -0.258 -0.547 -0.273 -0.629 -0.273 -1.598 c 0 -0.922 0.023 -1.07 0.227 -1.527 c 0.438 -0.965 1.27 -1.66 2.313 -1.934 c 0.223 -0.059 0.43 -0.148 0.461 -0.203 c 0.031 -0.055 0.07 -0.355 0.082 -0.668 c 0.07 -1.926 1.289 -3.629 2.988 -4.172 c 0.918 -0.297 2.07 -0.223 3.07 0.191 c 0.316 0.133 0.277 0.16 0.949 -0.754 c 0.395 -0.539 1.195 -1.211 1.852 -1.551 c 0.707 -0.371 1.441 -0.543 2.32 -0.539 c 2.457 0.008 4.574 1.605 5.355 4.04 c 0.254 0.781 0.238 1 -0.055 1.01 c -0.129 0 -0.5 0.074 -0.82 0.16 l -0.586 0.16 l -0.535 -0.555 c -1.508 -1.57 -3.965 -1.906 -6.06 -0.836 c -0.836 0.43 -1.508 1.043 -2.01 1.844 c -0.363 0.574 -0.824 1.637 -0.824 1.902 c 0 0.188 -0.145 0.281 -0.77 0.496 c -1.934 0.656 -3.059 2.18 -3.059 4.129 c 0 0.707 0.176 1.574 0.418 2.07 c 0.094 0.188 0.145 0.367 0.113 0.398 c -0.074 0.078 -2.477 0.051 -2.809 -0.031 m 0 0" fill="#f9f9f9"/></g></g></g></g><g><g transform="translate(0,-1004.3622)"><path d="m 1 1043.36 0 4 c 0 2.216 1.784 4 4 4 l 38 0 c 2.216 0 4 -1.784 4 -4 l 0 -4 c 0 2.216 -1.784 4 -4 4 l -38 0 c -2.216 0 -4 -1.784 -4 -4 z" opacity="0.1"/></g></g></svg>