<svg viewBox="0 0 48 48"><defs><linearGradient id="linearGradient3764" y1="1" x2="0" y2="47" gradientUnits="userSpaceOnUse"><stop stop-color="#007ed0" stop-opacity="1"/><stop offset="1" stop-color="#0073bc" stop-opacity="1"/></linearGradient><clipPath id="clipPath-417542117"><g transform="translate(0,-1004.3622)"><path d="m 24 1005.37 c -1.045 0 -2.023 0.287 -2.856 0.784 l -15.339 8.708 c -0.017 0.013 -0.035 0.013 -0.052 0.021 -1.852 1.051 -2.847 3 -2.746 4.968 l 0 17.02 c -0.056 1.013 0.175 2.049 0.729 2.993 0.532 0.903 1.288 1.602 2.161 2.061 l 15.246 8.653 c 0.832 0.497 1.811 0.784 2.856 0.784 1.045 0 2.023 -0.287 2.856 -0.784 l 15.246 -8.653 c 0.873 -0.46 1.629 -1.158 2.161 -2.061 0.554 -0.944 0.785 -1.981 0.729 -2.993 l 0 -17.01 c 0.056 -1.012 -0.175 -2.052 -0.729 -2.993 -0.532 -0.906 -1.288 -1.604 -2.161 -2.064 l -15.246 -8.653 c -0.832 -0.497 -1.811 -0.784 -2.856 -0.784 z" fill="#1890d0"/></g></clipPath><clipPath id="clipPath-427110229"><g transform="translate(0,-1004.3622)"><path d="m 24 1005.37 c -1.045 0 -2.023 0.287 -2.856 0.784 l -15.339 8.708 c -0.017 0.013 -0.035 0.013 -0.052 0.021 -1.852 1.051 -2.847 3 -2.746 4.968 l 0 17.02 c -0.056 1.013 0.175 2.049 0.729 2.993 0.532 0.903 1.288 1.602 2.161 2.061 l 15.246 8.653 c 0.832 0.497 1.811 0.784 2.856 0.784 1.045 0 2.023 -0.287 2.856 -0.784 l 15.246 -8.653 c 0.873 -0.46 1.629 -1.158 2.161 -2.061 0.554 -0.944 0.785 -1.981 0.729 -2.993 l 0 -17.01 c 0.056 -1.012 -0.175 -2.052 -0.729 -2.993 -0.532 -0.906 -1.288 -1.604 -2.161 -2.064 l -15.246 -8.653 c -0.832 -0.497 -1.811 -0.784 -2.856 -0.784 z" fill="#1890d0"/></g></clipPath><filter id="filter-396984028"><feGaussianBlur stdDeviation="0.35"/></filter></defs><g><g transform="translate(0,-1004.3622)"><path d="m 45 1037.36 c 0.056 1.013 -0.196 2.056 -0.75 3 -0.532 0.903 -1.283 1.603 -2.156 2.063 l -15.25 8.656 c -0.832 0.497 -1.799 0.781 -2.844 0.781 -1.045 0 -2.01 -0.284 -2.844 -0.781 l -15.25 -8.656 c -0.873 -0.46 -1.625 -1.159 -2.156 -2.063 -0.416 -0.708 -0.677 -1.485 -0.75 -2.25 -0.004 0.932 0.242 1.884 0.75 2.75 0.532 0.903 1.283 1.603 2.156 2.063 l 15.25 8.656 c 0.832 0.497 1.799 0.781 2.844 0.781 1.045 0 2.01 -0.284 2.844 -0.781 l 15.25 -8.656 c 0.873 -0.46 1.625 -1.159 2.156 -2.063 0.554 -0.944 0.806 -1.987 0.75 -3 l 0 -0.5 z" opacity="0.05"/><path d="m 45 1036.86 c 0.015 0.263 -0.004 0.516 -0.031 0.781 -0.036 0.844 -0.259 1.685 -0.719 2.469 -0.532 0.903 -1.283 1.603 -2.156 2.063 l -15.25 8.656 c -0.832 0.497 -1.799 0.781 -2.844 0.781 -1.045 0 -2.01 -0.284 -2.844 -0.781 l -15.25 -8.656 c -0.873 -0.46 -1.625 -1.159 -2.156 -2.063 -0.414 -0.705 -0.621 -1.46 -0.688 -2.219 -0.014 -0.092 -0.054 -0.189 -0.063 -0.281 -0.004 0.932 0.242 1.884 0.75 2.75 0.532 0.903 1.283 1.603 2.156 2.063 l 15.25 8.656 c 0.832 0.497 1.799 0.781 2.844 0.781 1.045 0 2.01 -0.284 2.844 -0.781 l 15.25 -8.656 c 0.873 -0.46 1.625 -1.159 2.156 -2.063 0.554 -0.944 0.806 -1.987 0.75 -3 l 0 -0.5 z m -41.813 1.625 c 0.057 0.219 0.132 0.442 0.219 0.656 -0.088 -0.216 -0.16 -0.436 -0.219 -0.656 z m 0.219 0.656 c 0.099 0.243 0.206 0.484 0.344 0.719 -0.139 -0.236 -0.243 -0.472 -0.344 -0.719 z m 41.41 -0.656 c -0.059 0.221 -0.131 0.441 -0.219 0.656 0.087 -0.215 0.161 -0.437 0.219 -0.656 z m -0.219 0.656 c -0.101 0.246 -0.205 0.483 -0.344 0.719 0.138 -0.235 0.245 -0.476 0.344 -0.719 z" opacity="0.1"/><path d="m 3.03 1037.64 c 0.035 0.844 0.259 1.685 0.719 2.469 0.532 0.903 1.283 1.603 2.156 2.063 l 15.25 8.656 c 0.832 0.497 1.799 0.781 2.844 0.781 1.045 0 2.01 -0.284 2.844 -0.781 l 15.25 -8.656 c 0.873 -0.46 1.625 -1.159 2.156 -2.063 0.46 -0.784 0.683 -1.624 0.719 -2.469 -0.067 0.763 -0.303 1.511 -0.719 2.219 -0.532 0.903 -1.283 1.603 -2.156 2.063 l -15.25 8.656 c -0.832 0.497 -1.799 0.781 -2.844 0.781 -1.045 0 -2.01 -0.284 -2.844 -0.781 l -15.25 -8.656 c -0.873 -0.46 -1.625 -1.159 -2.156 -2.063 -0.416 -0.708 -0.651 -1.456 -0.719 -2.219 z" opacity="0.2"/></g></g><g><path d="m 24 46.996 c 1.045 0 2.023 -0.287 2.856 -0.784 l 15.339 -8.708 c 0.017 -0.013 0.035 -0.013 0.052 -0.021 1.852 -1.051 2.847 -3 2.746 -4.968 l 0 -17.02 c 0.056 -1.013 -0.175 -2.049 -0.729 -2.993 -0.532 -0.903 -1.288 -1.602 -2.161 -2.061 l -15.246 -8.653 c -0.832 -0.497 -1.811 -0.784 -2.856 -0.784 -1.045 0 -2.023 0.287 -2.856 0.784 l -15.246 8.653 c -0.873 0.46 -1.629 1.158 -2.161 2.061 -0.554 0.944 -0.785 1.981 -0.729 2.993 l 0 17.01 c -0.056 1.012 0.175 2.051 0.729 2.993 0.532 0.906 1.288 1.604 2.161 2.064 l 15.246 8.653 c 0.832 0.497 1.811 0.785 2.856 0.785 z" fill="url(#linearGradient3764)" fill-opacity="1"/></g><g><g clip-path="url(#clipPath-417542117)"><g opacity="0.25"><g transform="translate(0,1)"><g filter="url(#filter-396984028)"><!-- color: #007ed0 --><g><path d="m 17.535 11.727 c -0.508 -0.004 -0.465 0.508 0.168 1.043 c 0.281 0.238 1.422 1.754 2.535 3.367 l 2.027 2.93 l 0 0.738 c 0 0.41 -0.066 0.891 -0.148 1.066 c -0.113 0.25 -0.098 0.602 0.074 1.551 c 0.203 1.137 0.207 1.348 0.02 2.801 c -0.113 0.863 -0.207 1.602 -0.207 1.637 c 0 0.035 -0.309 0.234 -0.684 0.441 c -1.363 0.758 -3.82 2.301 -4.359 2.738 c -0.641 0.52 -2.395 1.305 -4.336 1.938 c -0.75 0.242 -1.66 0.586 -2.02 0.758 c -0.355 0.176 -0.871 0.41 -1.145 0.52 c -0.773 0.309 -0.555 0.527 0.527 0.527 c 0.508 0 0.969 0.043 1.023 0.098 c 0.258 0.258 0.813 0.086 1.148 -0.355 c 0.453 -0.594 0.875 -0.801 1.832 -0.91 c 1.023 -0.113 3.41 -0.695 3.91 -0.953 c 0.215 -0.109 0.723 -0.422 1.129 -0.699 c 0.406 -0.273 1.285 -0.738 1.953 -1.031 c 0.668 -0.297 1.629 -0.793 2.137 -1.109 c 0.922 -0.574 0.926 -0.574 2.148 -0.574 c 1.102 0 1.383 0.055 2.723 0.527 c 3.191 1.121 4.941 1.707 6.254 2.098 c 0.75 0.227 1.629 0.57 1.953 0.766 c 0.703 0.426 2.648 0.676 2.77 0.355 c 0.152 -0.391 -0.273 -0.672 -1.141 -0.762 c -0.504 -0.051 -1.094 -0.219 -1.461 -0.41 c -0.344 -0.18 -1.18 -0.621 -1.859 -0.98 c -0.684 -0.363 -1.59 -0.762 -2.02 -0.883 c -1.27 -0.367 -1.781 -0.637 -2.992 -1.563 c -0.633 -0.48 -1.504 -1.055 -1.934 -1.281 c -0.59 -0.305 -0.813 -0.504 -0.906 -0.797 c -0.07 -0.215 -0.258 -0.566 -0.418 -0.781 c -0.75 -1.012 -0.758 -1.094 -0.27 -2.406 c 0.668 -1.805 0.863 -2 2.453 -2.488 c 0.73 -0.227 1.695 -0.574 2.137 -0.773 c 0.441 -0.203 1 -0.406 1.238 -0.457 c 0.238 -0.051 0.715 -0.238 1.059 -0.41 c 0.461 -0.234 0.734 -0.293 1.059 -0.234 c 0.363 0.07 0.465 0.039 0.586 -0.191 c 0.211 -0.395 0.066 -0.531 -0.555 -0.527 c -0.816 0.004 -2.039 0.328 -3.383 0.895 c -0.953 0.402 -1.438 0.523 -2.367 0.598 c -0.723 0.059 -1.387 0.195 -1.723 0.355 c -0.582 0.273 -1.016 0.273 -0.68 0.004 c 1.184 -0.957 1.289 -1.094 1.289 -1.664 c 0 -0.453 -0.066 -0.613 -0.34 -0.832 c -0.461 -0.359 -0.961 -0.34 -1.781 0.07 c -1.023 0.516 -1.012 0.504 -0.77 1.168 c 0.211 0.563 0.207 0.582 -0.07 0.863 c -0.23 0.23 -0.348 0.262 -0.605 0.164 c -0.492 -0.195 -4.777 -5.43 -5.191 -6.344 c -0.141 -0.309 -0.336 -0.512 -0.543 -0.566 c -0.094 -0.023 -0.176 -0.031 -0.246 -0.031 m 0 0" fill-opacity="0.941" fill="#000"/></g></g></g></g></g></g><g><g clip-path="url(#clipPath-427110229)"><!-- color: #007ed0 --><g><path d="m 17.535 11.727 c -0.508 -0.004 -0.465 0.508 0.168 1.043 c 0.281 0.238 1.422 1.754 2.535 3.367 l 2.027 2.93 l 0 0.738 c 0 0.41 -0.066 0.891 -0.148 1.066 c -0.113 0.25 -0.098 0.602 0.074 1.551 c 0.203 1.137 0.207 1.348 0.02 2.801 c -0.113 0.863 -0.207 1.602 -0.207 1.637 c 0 0.035 -0.309 0.234 -0.684 0.441 c -1.363 0.758 -3.82 2.301 -4.359 2.738 c -0.641 0.52 -2.395 1.305 -4.336 1.938 c -0.75 0.242 -1.66 0.586 -2.02 0.758 c -0.355 0.176 -0.871 0.41 -1.145 0.52 c -0.773 0.309 -0.555 0.527 0.527 0.527 c 0.508 0 0.969 0.043 1.023 0.098 c 0.258 0.258 0.813 0.086 1.148 -0.355 c 0.453 -0.594 0.875 -0.801 1.832 -0.91 c 1.023 -0.113 3.41 -0.695 3.91 -0.953 c 0.215 -0.109 0.723 -0.422 1.129 -0.699 c 0.406 -0.273 1.285 -0.738 1.953 -1.031 c 0.668 -0.297 1.629 -0.793 2.137 -1.109 c 0.922 -0.574 0.926 -0.574 2.148 -0.574 c 1.102 0 1.383 0.055 2.723 0.527 c 3.191 1.121 4.941 1.707 6.254 2.098 c 0.75 0.227 1.629 0.57 1.953 0.766 c 0.703 0.426 2.648 0.676 2.77 0.355 c 0.152 -0.391 -0.273 -0.672 -1.141 -0.762 c -0.504 -0.051 -1.094 -0.219 -1.461 -0.41 c -0.344 -0.18 -1.18 -0.621 -1.859 -0.98 c -0.684 -0.363 -1.59 -0.762 -2.02 -0.883 c -1.27 -0.367 -1.781 -0.637 -2.992 -1.563 c -0.633 -0.48 -1.504 -1.055 -1.934 -1.281 c -0.59 -0.305 -0.813 -0.504 -0.906 -0.797 c -0.07 -0.215 -0.258 -0.566 -0.418 -0.781 c -0.75 -1.012 -0.758 -1.094 -0.27 -2.406 c 0.668 -1.805 0.863 -2 2.453 -2.488 c 0.73 -0.227 1.695 -0.574 2.137 -0.773 c 0.441 -0.203 1 -0.406 1.238 -0.457 c 0.238 -0.051 0.715 -0.238 1.059 -0.41 c 0.461 -0.234 0.734 -0.293 1.059 -0.234 c 0.363 0.07 0.465 0.039 0.586 -0.191 c 0.211 -0.395 0.066 -0.531 -0.555 -0.527 c -0.816 0.004 -2.039 0.328 -3.383 0.895 c -0.953 0.402 -1.438 0.523 -2.367 0.598 c -0.723 0.059 -1.387 0.195 -1.723 0.355 c -0.582 0.273 -1.016 0.273 -0.68 0.004 c 1.184 -0.957 1.289 -1.094 1.289 -1.664 c 0 -0.453 -0.066 -0.613 -0.34 -0.832 c -0.461 -0.359 -0.961 -0.34 -1.781 0.07 c -1.023 0.516 -1.012 0.504 -0.77 1.168 c 0.211 0.563 0.207 0.582 -0.07 0.863 c -0.23 0.23 -0.348 0.262 -0.605 0.164 c -0.492 -0.195 -4.777 -5.43 -5.191 -6.344 c -0.141 -0.309 -0.336 -0.512 -0.543 -0.566 c -0.094 -0.023 -0.176 -0.031 -0.246 -0.031 m 0 0" fill="#f9f9f9" fill-opacity="0.941"/></g></g></g><g><path d="m 24 1 c -1.045 0 -2.01 0.284 -2.844 0.781 l -15.344 8.719 c -0.017 0.013 -0.045 0.023 -0.063 0.031 c -1.852 1.051 -2.851 3 -2.75 4.969 l 0 1 c -0.101 -1.966 0.898 -3.918 2.75 -4.969 c 0.017 -0.008 0.045 -0.018 0.063 -0.031 l 15.344 -8.719 c 0.832 -0.497 1.799 -0.781 2.844 -0.781 c 1.045 0 2.01 0.284 2.844 0.781 l 15.25 8.656 c 0.873 0.46 1.625 1.156 2.156 2.063 c 0.554 0.942 0.806 1.988 0.75 3 l 0 -1 c 0.056 -1.012 -0.196 -2.058 -0.75 -3 c -0.532 -0.906 -1.283 -1.603 -2.156 -2.063 l -15.25 -8.656 c -0.832 -0.497 -1.799 -0.781 -2.844 -0.781 z" opacity="0.2" fill="#fff"/></g></svg>