<svg viewBox="0 0 48 48"><defs><linearGradient id="linearGradient3764" x1="1" x2="47" gradientUnits="userSpaceOnUse" gradientTransform="translate(-48.000001,0.00221467)"><stop stop-color="#696969" stop-opacity="1"/><stop offset="1" stop-color="#737373" stop-opacity="1"/></linearGradient><clipPath id="clipPath-068518689"><g transform="translate(0,-1004.3622)"><rect rx="4" y="1005.36" x="1" height="46" width="46" fill="#1890d0"/></g></clipPath><clipPath id="clipPath-081778693"><g transform="translate(0,-1004.3622)"><rect rx="4" y="1005.36" x="1" height="46" width="46" fill="#1890d0"/></g></clipPath><clipPath><path d="m 15 1 l 21 0 l 0 46 l -21 0 m 0 -46"/></clipPath><clipPath><path d="m 24.11 0.645 c -2 0 -3.938 0.25 -5.797 0.719 l -3.305 25.652 l 6.828 0 l -3.168 21.14 c 1.219 0.285 2.453 0.48 3.734 0.57 l 13.09 -28.594 l -6.828 0 l 3.199 -18.203 c -2.43 -0.836 -5.04 -1.289 -7.75 -1.289 m 0 0"/></clipPath><clipPath><path d="m 15 1 l 21 0 l 0 46 l -21 0 m 0 -46"/></clipPath><clipPath><path d="m 24.11 0.645 c -2 0 -3.938 0.25 -5.797 0.719 l -3.305 25.652 l 6.828 0 l -3.168 21.14 c 1.219 0.285 2.453 0.48 3.734 0.57 l 13.09 -28.594 l -6.828 0 l 3.199 -18.203 c -2.43 -0.836 -5.04 -1.289 -7.75 -1.289 m 0 0"/></clipPath></defs><g><path d="m 1 43 l 0 0.25 c 0 2.216 1.784 4 4 4 l 38 0 c 2.216 0 4 -1.784 4 -4 l 0 -0.25 c 0 2.216 -1.784 4 -4 4 l -38 0 c -2.216 0 -4 -1.784 -4 -4 z m 0 0.5 l 0 0.5 c 0 2.216 1.784 4 4 4 l 38 0 c 2.216 0 4 -1.784 4 -4 l 0 -0.5 c 0 2.216 -1.784 4 -4 4 l -38 0 c -2.216 0 -4 -1.784 -4 -4 z" opacity="0.02"/><path d="m 1 43.25 l 0 0.25 c 0 2.216 1.784 4 4 4 l 38 0 c 2.216 0 4 -1.784 4 -4 l 0 -0.25 c 0 2.216 -1.784 4 -4 4 l -38 0 c -2.216 0 -4 -1.784 -4 -4 z" opacity="0.05"/><path d="m 1 43 l 0 0.25 c 0 2.216 1.784 4 4 4 l 38 0 c 2.216 0 4 -1.784 4 -4 l 0 -0.25 c 0 2.216 -1.784 4 -4 4 l -38 0 c -2.216 0 -4 -1.784 -4 -4 z" opacity="0.1"/></g><g><rect width="46" height="46" x="-47" y="1" rx="4" transform="matrix(0,-1,1,0,0,0)" fill="url(#linearGradient3764)" fill-opacity="1"/></g><g><g clip-path="url(#clipPath-068518689)"><g opacity="0.1"><!-- color: #737373 --><path d="m 18.719 0 l -3.719 27 l 7 0 l -3.813 21 l 5.219 0 l 11.594 -28 l -6 0 l 2.844 -20 l -13.12 0 z" fill="#000"/></g></g></g><g><g clip-path="url(#clipPath-081778693)"><g transform="translate(0,-1)"><!-- color: #737373 --><path d="m 18.719 0 l -3.719 27 l 7 0 l -3.813 21 l 5.219 0 l 11.594 -28 l -6 0 l 2.844 -20 l -13.12 0 z" fill="#ffbf14"/></g></g></g><g><g transform="translate(0,-1004.3622)"><path d="m 1 1043.36 0 4 c 0 2.216 1.784 4 4 4 l 38 0 c 2.216 0 4 -1.784 4 -4 l 0 -4 c 0 2.216 -1.784 4 -4 4 l -38 0 c -2.216 0 -4 -1.784 -4 -4 z" opacity="0.1"/></g></g></svg>