<svg viewBox="0 0 48 48" xmlns:xlink="http://www.w3.org/1999/xlink"><defs><linearGradient id="linearGradient3764" x1="1" x2="47" gradientUnits="userSpaceOnUse" gradientTransform="translate(-48.000001,0.00221467)"><stop stop-color="#f3ec35" stop-opacity="1"/><stop offset="1" stop-color="#f4ee48" stop-opacity="1"/></linearGradient><clipPath id="clipPath-604632496"><g transform="translate(0,-1004.3622)"><rect rx="4" y="1005.36" x="1" height="46" width="46" fill="#1890d0"/></g></clipPath><clipPath id="clipPath-618881461"><g transform="translate(0,-1004.3622)"><rect rx="4" y="1005.36" x="1" height="46" width="46" fill="#1890d0"/></g></clipPath><path id="SVGCleanerId_0" d="m 23.867 12.5 c -2.598 0.039 -4.879 1.309 -5.969 3.445 l -0.441 0.879 l -0.012 2.617 c -0.008 1.914 -0.059 2.676 -0.18 2.82 c -0.277 0.32 -1.012 0.383 -1.742 0.152 c -0.82 -0.258 -1.133 -0.266 -1.348 -0.016 c -0.223 0.262 -0.023 0.48 0.703 0.777 c 1.543 0.629 1.984 0.879 2.176 1.234 c 0.309 0.578 0.238 1.117 -0.266 2.051 c -1.09 2 -2.832 3.496 -4.719 4.04 c -0.313 0.094 -0.57 0.211 -0.57 0.27 c 0 0.188 0.711 0.465 1.922 0.734 c 0.652 0.148 1.219 0.305 1.258 0.344 c 0.039 0.035 0.18 0.375 0.313 0.75 l 0.238 0.68 l 0.645 -0.063 c 0.922 -0.094 2.168 -0.074 2.746 0.039 c 0.27 0.055 1.035 0.445 1.695 0.867 c 1.457 0.926 1.863 1.129 2.523 1.289 c 0.758 0.188 2.336 0.066 3.02 -0.23 c 0.332 -0.141 1.063 -0.555 1.629 -0.926 c 0.566 -0.371 1.223 -0.75 1.461 -0.844 c 0.645 -0.262 1.922 -0.359 2.824 -0.215 c 0.934 0.148 0.996 0.109 1.273 -0.73 c 0.219 -0.668 0.141 -0.621 1.965 -1.074 c 0.605 -0.148 1.203 -0.348 1.336 -0.445 c 0.223 -0.156 0.211 -0.18 -0.16 -0.332 c -2.113 -0.844 -3.01 -1.449 -4 -2.699 c -1.43 -1.801 -1.777 -3.047 -1.043 -3.754 c 0.203 -0.195 0.805 -0.516 1.336 -0.715 c 0.535 -0.195 1.105 -0.461 1.27 -0.59 c 0.254 -0.199 0.27 -0.262 0.117 -0.441 c -0.223 -0.262 -0.691 -0.262 -1.551 -0.008 c -0.711 0.211 -1.203 0.16 -1.563 -0.152 c -0.191 -0.168 -0.207 -0.461 -0.145 -2.355 c 0.082 -2.656 -0.078 -3.418 -0.988 -4.719 c -0.918 -1.309 -2.258 -2.164 -3.914 -2.504 c -0.625 -0.129 -1.238 -0.184 -1.84 -0.176 m 0 0"/></defs><g><path d="m 1 43 l 0 0.25 c 0 2.216 1.784 4 4 4 l 38 0 c 2.216 0 4 -1.784 4 -4 l 0 -0.25 c 0 2.216 -1.784 4 -4 4 l -38 0 c -2.216 0 -4 -1.784 -4 -4 z m 0 0.5 l 0 0.5 c 0 2.216 1.784 4 4 4 l 38 0 c 2.216 0 4 -1.784 4 -4 l 0 -0.5 c 0 2.216 -1.784 4 -4 4 l -38 0 c -2.216 0 -4 -1.784 -4 -4 z" opacity="0.02"/><path d="m 1 43.25 l 0 0.25 c 0 2.216 1.784 4 4 4 l 38 0 c 2.216 0 4 -1.784 4 -4 l 0 -0.25 c 0 2.216 -1.784 4 -4 4 l -38 0 c -2.216 0 -4 -1.784 -4 -4 z" opacity="0.05"/><path d="m 1 43 l 0 0.25 c 0 2.216 1.784 4 4 4 l 38 0 c 2.216 0 4 -1.784 4 -4 l 0 -0.25 c 0 2.216 -1.784 4 -4 4 l -38 0 c -2.216 0 -4 -1.784 -4 -4 z" opacity="0.1"/></g><g><rect width="46" height="46" x="-47" y="1" rx="4" transform="matrix(0,-1,1,0,0,0)" fill="url(#linearGradient3764)" fill-opacity="1"/></g><g><g clip-path="url(#clipPath-604632496)"><g opacity="0.1"><!-- color: #f4ee48 --><g><use stroke="#2d2d2d" stroke-width="0.999" fill="#000" xlink:href="#SVGCleanerId_0"/><use fill="#000" xlink:href="#SVGCleanerId_0"/></g></g></g></g><g><g clip-path="url(#clipPath-618881461)"><g transform="translate(0,-1)"><!-- color: #f4ee48 --><g><use fill="none" stroke="#2d2d2d" stroke-width="0.999" xlink:href="#SVGCleanerId_0"/><use fill="#f9f9f9" xlink:href="#SVGCleanerId_0"/></g></g></g></g><g><g transform="translate(0,-1004.3622)"><path d="m 1 1043.36 0 4 c 0 2.216 1.784 4 4 4 l 38 0 c 2.216 0 4 -1.784 4 -4 l 0 -4 c 0 2.216 -1.784 4 -4 4 l -38 0 c -2.216 0 -4 -1.784 -4 -4 z" opacity="0.1"/></g></g></svg>