<svg viewBox="0 0 48 48"><defs><linearGradient id="linearGradient3764" x1="1" x2="47" gradientUnits="userSpaceOnUse" gradientTransform="translate(-48.000001,0.00221467)"><stop stop-color="#f4b200" stop-opacity="1"/><stop offset="1" stop-color="#ffbe09" stop-opacity="1"/></linearGradient><clipPath id="clipPath-081445926"><g transform="translate(0,-1004.3622)"><rect rx="4" y="1005.36" x="1" height="46" width="46" fill="#1890d0"/></g></clipPath><clipPath id="clipPath-094167091"><g transform="translate(0,-1004.3622)"><rect rx="4" y="1005.36" x="1" height="46" width="46" fill="#1890d0"/></g></clipPath></defs><g><path d="m 1 43 l 0 0.25 c 0 2.216 1.784 4 4 4 l 38 0 c 2.216 0 4 -1.784 4 -4 l 0 -0.25 c 0 2.216 -1.784 4 -4 4 l -38 0 c -2.216 0 -4 -1.784 -4 -4 z m 0 0.5 l 0 0.5 c 0 2.216 1.784 4 4 4 l 38 0 c 2.216 0 4 -1.784 4 -4 l 0 -0.5 c 0 2.216 -1.784 4 -4 4 l -38 0 c -2.216 0 -4 -1.784 -4 -4 z" opacity="0.02"/><path d="m 1 43.25 l 0 0.25 c 0 2.216 1.784 4 4 4 l 38 0 c 2.216 0 4 -1.784 4 -4 l 0 -0.25 c 0 2.216 -1.784 4 -4 4 l -38 0 c -2.216 0 -4 -1.784 -4 -4 z" opacity="0.05"/><path d="m 1 43 l 0 0.25 c 0 2.216 1.784 4 4 4 l 38 0 c 2.216 0 4 -1.784 4 -4 l 0 -0.25 c 0 2.216 -1.784 4 -4 4 l -38 0 c -2.216 0 -4 -1.784 -4 -4 z" opacity="0.1"/></g><g><rect width="46" height="46" x="-47" y="1" rx="4" transform="matrix(0,-1,1,0,0,0)" fill="url(#linearGradient3764)" fill-opacity="1"/></g><g><g clip-path="url(#clipPath-081445926)"><g opacity="0.1"><!-- color: #ffbe09 --><path d="m 24.01 12 c -2.895 0.004 -5.738 1.297 -7.473 3.691 -2.711 3.738 -1.738 8.797 2.137 11.441 l 0 7.867 1.324 0 l 0 1 8 0 0 -1 1.32 0 0 -7.867 c 0.836 -0.57 1.559 -1.262 2.141 -2.063 2.777 -3.828 1.695 -9.05 -2.422 -11.629 -1.543 -0.969 -3.293 -1.441 -5.03 -1.441 z m -0.012 1.523 c 1.418 0 2.852 0.383 4.121 1.18 3.379 2.125 4.266 6.363 1.98 9.512 -0.523 0.723 -1.191 1.355 -1.969 1.844 l -0.133 1.941 -8 0 -0.121 -1.941 c -3.383 -2.125 -4.266 -6.363 -1.984 -9.512 c 1.43 -1.965 3.742 -3.02 6.105 -3.02 z m -4 15.477 l 8 0 0 2 -8 0 z m 0 3 8 0 0 1.715 -8 0 z m 0 0" fill="#000"/></g></g></g><g><g clip-path="url(#clipPath-094167091)"><g transform="translate(0,-1)"><!-- color: #ffbe09 --><path d="m 24.01 12 c -2.895 0.004 -5.738 1.297 -7.473 3.691 -2.711 3.738 -1.738 8.797 2.137 11.441 l 0 7.867 1.324 0 l 0 1 8 0 0 -1 1.32 0 0 -7.867 c 0.836 -0.57 1.559 -1.262 2.141 -2.063 2.777 -3.828 1.695 -9.05 -2.422 -11.629 -1.543 -0.969 -3.293 -1.441 -5.03 -1.441 z m -0.012 1.523 c 1.418 0 2.852 0.383 4.121 1.18 3.379 2.125 4.266 6.363 1.98 9.512 -0.523 0.723 -1.191 1.355 -1.969 1.844 l -0.133 1.941 -8 0 -0.121 -1.941 c -3.383 -2.125 -4.266 -6.363 -1.984 -9.512 c 1.43 -1.965 3.742 -3.02 6.105 -3.02 z m -4 15.477 l 8 0 0 2 -8 0 z m 0 3 8 0 0 1.715 -8 0 z m 0 0" fill="#f9f9f9"/></g></g></g><g><g transform="translate(0,-1004.3622)"><path d="m 1 1043.36 0 4 c 0 2.216 1.784 4 4 4 l 38 0 c 2.216 0 4 -1.784 4 -4 l 0 -4 c 0 2.216 -1.784 4 -4 4 l -38 0 c -2.216 0 -4 -1.784 -4 -4 z" opacity="0.1"/></g></g></svg>