<svg xmlns="http://www.w3.org/2000/svg" xmlns:xlink="http://www.w3.org/1999/xlink" width="48" height="48">
 <defs>
  <clipPath>
   <path d="M -670.14006,51.863192 L -114.61564,405.00326 L -257.11075,510.32573 L -514.2215,-71.013029 L -670.14006,51.863192 z"/>
  </clipPath>
  <clipPath>
   <rect width="20" x="1" y="1" rx="2" height="20" fill="#fff" fill-rule="evenodd"/>
  </clipPath>
  <clipPath>
   <rect width="84" x="6" y="6" rx="6" height="84" fill="#fff"/>
  </clipPath>
  <clipPath>
   <path d="M 54.1,12.5 12.9,54.7 C -2.7,70.3 23,69 32.3,74.9 36.6,77.7 18.5,81.3 22.2,85 c 3.6,3.7 21.7,7.1 25.3,10.7 3.6,3.7 -7.3,7.6 -3.7,11.3 3.5,3.7 11.9,0.2 13.4,8.6 1.1,6.2 15.4,3.1 21.8,-2.2 4,-3.4 -6.9,-3.4 -3.3,-7.1 9,-9.1 17,-4.1 20.3,-12.5 1.8,-4.5 -13.6,-7.7 -9.5,-10.6 9.8,-6.9 45.8,-10.4 29.2,-27 L 73,12.5 c -5.3,-5 -14,-5 -18.9,0 z m -9.9,64.7 c 0.9,0 30.8,4 19.3,7.1 -4.4,1.2 -24.6,-7.1 -19.3,-7.1 z m 57.2,16.6 c 0,2.1 16.3,3.3 15.4,-0.5 -1.3,-6.4 -13.6,-5.9 -15.4,0.5 z m -69.5,11.1 c 3.7,3.2 9.3,-0.7 11.1,-5.2 -3.6,-4.7 -16.9,0.3 -11.1,5.2 z m 67.5,-6.7 c -4.6,4.2 0.8,8.6 5.3,5.7 1.2,-0.8 -0.1,-4.7 -5.3,-5.7 z"/>
  </clipPath>
  <clipPath>
   <rect width="96" x="-100" height="96" fill="#fff"/>
  </clipPath>
  <clipPath>
   <path d="M 95.311,352.545 L 476.403,352.545 L 476.403,71.4229 L 95.311,71.4229 L 95.311,352.545 z"/>
  </clipPath>
  <clipPath>
   <path d="M 93.311,354.545 L 478.511,354.545 L 478.511,69.1846 L 93.311,69.1846 L 93.311,354.545 z"/>
  </clipPath>
  <clipPath>
   <path d="M 93.311,69.185 L 478.511,69.185 L 478.511,354.545 L 93.311,354.545 L 93.311,69.185 z"/>
  </clipPath>
  <clipPath>
   <path d="M 92.311,355.545 L 479.511,355.545 L 479.511,68.1846 L 92.311,68.1846 L 92.311,355.545 z"/>
  </clipPath>
  <linearGradient gradientTransform="translate(0,-1004.3622)" y2="1047.36" x2="0" y1="1028.36" gradientUnits="userSpaceOnUse" id="0" xlink:href="#1"/>
  <linearGradient id="1">
   <stop stop-color="#ffffff"/>
   <stop offset="1" stop-color="#ffffff" stop-opacity="0"/>
  </linearGradient>
  <linearGradient xlink:href="#3" id="2" gradientUnits="userSpaceOnUse" y1="1028.36" x2="0" y2="1047.36" gradientTransform="matrix(1,0,0,-1,0,1052.3622)"/>
  <linearGradient id="3">
   <stop/>
   <stop offset="1" stop-opacity="0"/>
  </linearGradient>
  <clipPath>
   <rect height="96" x="-100" width="96" fill="#fff"/>
  </clipPath>
  <clipPath>
   <rect height="84" rx="6" y="6" x="6" width="84" fill="#fff"/>
  </clipPath>
  <clipPath>
   <rect height="20" rx="2" y="1" x="1" width="20" fill="#fff" fill-rule="evenodd"/>
  </clipPath>
  <clipPath>
   <rect height="96" x="-100" width="96" fill="#fff"/>
  </clipPath>
  <clipPath>
   <rect height="84" rx="6" y="6" x="6" width="84" fill="#fff"/>
  </clipPath>
  <clipPath>
   <rect height="20" rx="2" y="1" x="1" width="20" fill="#fff" fill-rule="evenodd"/>
  </clipPath>
  <clipPath>
   <path d="m 350.39675,365.66103 c -11.65969,-4.03196 -18.88078,-12.45225 -21.47266,-25.03912 -2.14633,-10.42244 -7.372,-17.59146 -15.59714,-21.39642 -3.68981,-1.70681 -5.49492,-2.00163 -14.88707,-2.42899 -14.53757,-0.66164 -20.00364,-2.32253 -29.86352,-9.07358 -4.45842,-3.05254 -5.3663,-3.3891 -9.10495,-3.37449 -5.64755,0.0522 -9.83177,2.02876 -12.41781,5.95479 -5.18168,7.86718 -9.68336,10.50332 -17.24675,10.09997 -8.74898,-0.4644 -14.49964,-6.05132 -15.19869,-14.76017 -0.41901,-5.22166 0.5554,-8.32532 3.83591,-12.21587 3.67713,-4.36068 7.16124,-5.62396 15.08911,-5.47003 5.95447,0.11479 7.51862,-0.12002 10.80993,-1.62645 5.66947,-2.59544 6.30215,-3.97195 6.54442,-14.23628 0.2943,-12.47312 3.22029,-20.37788 11.14284,-30.10476 1.81112,-2.22339 3.56144,-4.77917 3.88955,-5.67875 1.32918,-3.64478 -0.95228,-7.17841 -7.65048,-11.85009 -8.71407,-6.07741 -4.43854,-19.64474 6.18793,-19.63587 6.69704,0 11.12233,4.69255 11.13198,11.7906 0.005,4.30068 1.71125,8.13174 4.21683,9.47225 0.74101,0.39656 7.64156,0.766 15.33456,0.82027 7.69301,0.0574 15.64577,0.14088 17.67286,0.18784 4.67893,0.1148 9.4304,-1.96927 13.13821,-5.75806 3.60407,-3.68235 4.5706,-5.56135 5.97518,-11.61789 1.56478,-6.7474 3.38064,-10.00657 7.77645,-13.9592 6.29688,-5.66102 15.08979,-7.40748 23.39617,-4.64559 4.85045,1.61236 10.69628,6.78445 13.32042,11.78434 1.68917,3.21846 1.97746,4.67429 1.98634,10.03005 0.0104,5.38602 -0.28021,6.85697 -2.05814,10.47775 -1.16226,2.36688 -3.53677,5.50447 -5.41994,7.16223 -3.36233,2.95965 -9.91035,5.948 -13.03374,5.948 -2.67459,0 -9.06227,3.55346 -11.61585,6.46198 -4.85275,5.52691 -5.29231,7.59846 -5.14772,24.2632 0.1461,16.84945 0.67672,19.64787 4.88181,25.75398 4.38563,6.36753 9.92527,9.81037 18.7427,11.64919 7.35603,1.53357 12.61948,4.12535 17.22719,8.48343 14.23539,13.46297 12.73657,36.05537 -3.18564,48.01921 -7.27082,5.46325 -19.86374,7.46383 -28.40029,4.512 z M 302.36163,301.0183 c 8.1777,-2.12999 14.50339,-6.67591 18.80245,-13.51202 3.59192,-5.71162 4.76435,-10.45166 4.4114,-17.83409 -0.27029,-5.65267 -0.6619,-7.19824 -3.04648,-12.02333 -3.13513,-6.343 -7.96293,-11.1754 -14.03627,-14.04843 -21.55406,-10.19702 -45.54999,6.40458 -43.74545,30.26495 1.41356,18.69036 19.62705,31.83817 37.61435,27.15292 z m -15.66221,-12.70636 c -3.11442,-1.53409 -7.00063,-5.34689 -8.59802,-8.43594 -1.69376,-3.27535 -2.17314,-10.18764 -0.99768,-14.38552 0.68189,-2.43576 2.1099,-4.65759 4.70774,-7.32556 6.55303,-6.73018 15.26135,-7.83744 23.37358,-2.97217 4.91609,2.94765 7.76162,7.40226 8.81566,13.80005 1.40108,8.50379 -0.047,14.38343 -4.16486,16.9293 -4.47887,2.76815 -4.76148,2.38462 -4.76607,-6.46772 -0.005,-9.52129 -0.79611,-12.75385 -3.72471,-15.21831 -6.44288,-5.4215 -15.42583,-1.06186 -15.43335,7.48992 -0.002,2.54378 0.47119,3.66043 2.48299,5.85565 2.29676,2.50621 2.85717,2.73632 7.37111,3.02383 2.96852,0.18785 4.88431,0.63869 4.88264,1.14588 -0.005,1.855 -2.92526,5.44916 -5.36567,6.60755 -3.25551,1.54506 -5.37491,1.53305 -8.58336,-0.0522 z"/>
  </clipPath>
 </defs>
 <g>
  <rect rx="7" y="4" x="3" height="42" width="42" opacity="0.2"/>
  <rect width="42" height="42" x="3" y="3" rx="7" fill="#f9f9f9"/>
 </g>
 <g>
  <rect rx="6.333" y="5" x="5" height="38" width="38" fill="#f9994d"/>
  <path d="M 5.53125,24 C 5.350468,24 5.176236,24.022 5,24.031 l 0,12.625 c 0,3.5086 2.835083,6.3437 6.34375,6.3437 l 25.3125,0 C 40.164917,42.9997 43,40.1646 43,36.656 L 43,24.031 C 42.823764,24.021 42.649532,24 42.46875,24 l -36.9375,0 z" fill="#ffa057"/>
 </g>
 <g transform="translate(0,-1004.3622)">
  <path d="m 30.943931,1016.3641 c -0.703317,0.025 -1.378966,0.2944 -1.966763,0.8236 -0.56914,0.5123 -0.943073,1.1168 -1.108539,1.8977 -0.159206,0.7515 -0.427452,1.2443 -0.965501,1.7187 -0.682448,0.6006 -1.294476,0.7554 -2.395875,0.6087 -0.537911,-0.071 -1.344001,-0.079 -2.145559,-0.036 -1.114878,0.061 -1.309638,0.043 -1.53765,-0.1073 -0.35146,-0.2308 -0.53639,-0.7492 -0.53639,-1.4323 0.06,-1.4672 -0.287654,-1.475 -1.287654,-1.475 -0.69476,0.045 -1.283435,0.309 -1.573092,0.8665 -0.315185,0.6066 -0.05517,1.5705 0.500631,1.8619 0.167193,0.087 0.473007,0.3377 0.679427,0.5371 0.312153,0.3016 0.393352,0.4168 0.393352,0.7519 0,0.3392 -0.08186,0.5128 -0.50063,1.0026 -1.0528,1.2318 -1.627535,2.8758 -1.57341,4.4758 0.03387,0.9996 -0.1115,1.2689 -0.858224,1.6113 -0.446001,0.2045 -0.655362,0.2332 -1.466132,0.2148 -1.076349,-0.025 -1.527558,0.1291 -2.07404,0.7519 -0.874656,0.9973 -0.631458,2.5799 0.50063,3.3301 0.368258,0.2443 0.496145,0.2864 1.215817,0.2864 0.714431,0 0.859723,-0.05 1.215817,-0.2864 0.222635,-0.1482 0.610437,-0.5403 0.822464,-0.8594 0.483832,-0.7284 1.005426,-1.0025 1.823726,-1.0025 0.503765,0 0.650361,0.043 1.215816,0.4296 1.401239,0.9599 2.022399,1.1639 4.005044,1.2533 1.363546,0.061 1.552309,0.067 2.07404,0.3222 1.136254,0.5571 1.813919,1.5045 2.1098,2.9362 0.343026,1.6599 1.315771,2.8011 2.896505,3.3657 0.384301,0.135 0.735326,0.1684 1.501891,0.1433 0.879874,-0.027 1.065342,-0.077 1.644929,-0.3581 2.623933,-1.268 3.268058,-4.6346 1.287335,-6.7316 -0.644789,-0.6825 -1.442388,-1.1348 -2.503152,-1.3606 -0.46058,-0.097 -1.045934,-0.2878 -1.287336,-0.4297 -0.626972,-0.3684 -1.260295,-1.0453 -1.57341,-1.6829 -0.264378,-0.5384 -0.254034,-0.5855 -0.286074,-2.6856 -0.0357,-2.3378 -0.0103,-2.6389 0.464871,-3.2941 0.411215,-0.5683 0.908046,-0.8536 1.787966,-1.0742 1.289967,-0.3234 1.991399,-0.8444 2.503152,-1.8261 0.195286,-0.3746 0.250487,-0.6114 0.250315,-1.3607 -2.06e-4,-0.7846 -0.04867,-0.9441 -0.286074,-1.3964 -0.625516,-1.192 -1.795828,-1.8319 -2.968023,-1.7904 z m -8.153125,6.9107 c 1.584076,-0.057 3.13023,0.8018 3.897766,2.3632 0.322932,0.6567 0.321834,0.7549 0.321834,1.7545 0,1.0174 0.0011,1.0986 -0.357594,1.8261 -0.860626,1.7446 -2.682944,2.6277 -4.577192,2.2559 -1.002085,-0.1967 -2.009937,-0.9091 -2.574671,-1.7904 -1.388938,-2.1672 -0.596271,-4.9909 1.716447,-6.0512 0.515944,-0.2365 1.045385,-0.3391 1.57341,-0.3581 z m -0.03576,1.5755 c -0.595254,0.048 -1.199375,0.3058 -1.680688,0.7877 -0.480548,0.4812 -0.679427,0.9973 -0.679427,1.7545 0,1.029 0.493478,1.8805 1.323095,2.2916 0.499062,0.2475 0.749824,0.2664 1.215816,0.071 0.325633,-0.1361 0.750134,-0.6606 0.750946,-0.9309 2.86e-4,-0.084 -0.18414,-0.1433 -0.53639,-0.1433 -1.121618,0 -1.79791,-0.9425 -1.323094,-1.8618 0.443015,-0.858 1.776831,-0.8581 2.217077,0 0.07834,0.1533 0.142008,0.6926 0.143037,1.5037 0.0011,1.253 -0.0066,1.2894 0.214556,1.2891 0.407245,0 0.852262,-0.375 1.037021,-0.8593 0.252626,-0.6627 0.146756,-1.767 -0.214556,-2.5065 -0.48923,-1.0013 -1.475305,-1.4759 -2.467393,-1.3964 z" fill="#f9f9f9"/>
 </g>
 <g>
  <path d="M 11.34375,5 C 7.8350832,5 5,7.8350832 5,11.34375 l 0,1 C 5,8.8350832 7.8350832,6 11.34375,6 l 25.3125,0 C 40.164917,6 43,8.8350832 43,12.34375 l 0,-1 C 43,7.8350832 40.164917,5 36.65625,5 l -25.3125,0 z" opacity="0.2"/>
  <path d="M 5.53125,24 C 5.350468,24 5.176236,24.022 5,24.031 l 0,12.625 c 0,3.5086 2.835083,6.3437 6.34375,6.3437 l 25.3125,0 C 40.164917,42.9997 43,40.1646 43,36.656 L 43,24.031 C 42.823764,24.021 42.649532,24 42.46875,24 l -36.9375,0 z" opacity="0.03" fill="url(#0)"/>
  <path d="M 5.53125,24 C 5.350468,24 5.176236,23.978 5,23.969 L 5,11.344 C 5,7.8354 7.835083,5.0003 11.34375,5.0003 l 25.3125,0 C 40.164917,5.0003 43,7.8354 43,11.344 l 0,12.625 C 42.823764,23.979 42.649532,24 42.46875,24 l -36.9375,0 z" opacity="0.03" fill="url(#2)"/>
 </g>
</svg>
