<svg viewBox="0 0 48 48"><defs><linearGradient id="linearGradient3764" x1="1" x2="47" gradientUnits="userSpaceOnUse" gradientTransform="translate(-48.000001,0.00221467)"><stop stop-color="#f2cb2e" stop-opacity="1"/><stop offset="1" stop-color="#f3cf41" stop-opacity="1"/></linearGradient><clipPath id="clipPath-596011276"><g transform="translate(0,-1004.3622)"><rect rx="4" y="1005.36" x="1" height="46" width="46" fill="#1890d0"/></g></clipPath><clipPath id="clipPath-610910964"><g transform="translate(0,-1004.3622)"><rect rx="4" y="1005.36" x="1" height="46" width="46" fill="#1890d0"/></g></clipPath></defs><g><path d="m 1 43 l 0 0.25 c 0 2.216 1.784 4 4 4 l 38 0 c 2.216 0 4 -1.784 4 -4 l 0 -0.25 c 0 2.216 -1.784 4 -4 4 l -38 0 c -2.216 0 -4 -1.784 -4 -4 z m 0 0.5 l 0 0.5 c 0 2.216 1.784 4 4 4 l 38 0 c 2.216 0 4 -1.784 4 -4 l 0 -0.5 c 0 2.216 -1.784 4 -4 4 l -38 0 c -2.216 0 -4 -1.784 -4 -4 z" opacity="0.02"/><path d="m 1 43.25 l 0 0.25 c 0 2.216 1.784 4 4 4 l 38 0 c 2.216 0 4 -1.784 4 -4 l 0 -0.25 c 0 2.216 -1.784 4 -4 4 l -38 0 c -2.216 0 -4 -1.784 -4 -4 z" opacity="0.05"/><path d="m 1 43 l 0 0.25 c 0 2.216 1.784 4 4 4 l 38 0 c 2.216 0 4 -1.784 4 -4 l 0 -0.25 c 0 2.216 -1.784 4 -4 4 l -38 0 c -2.216 0 -4 -1.784 -4 -4 z" opacity="0.1"/></g><g><rect width="46" height="46" x="-47" y="1" rx="4" transform="matrix(0,-1,1,0,0,0)" fill="url(#linearGradient3764)" fill-opacity="1"/></g><g><g clip-path="url(#clipPath-596011276)"><g opacity="0.1"><!-- color: #f3cf41 --><g><path d="m 30.03 36.66 c -0.859 -0.449 -0.926 -0.504 -1.922 -1.504 c -1.016 -1.02 -1.48 -1.672 -2.152 -3.039 c -0.34 -0.684 -0.543 -0.984 -0.672 -0.984 c -0.129 0 -0.414 0.406 -0.918 1.305 c -0.469 0.836 -0.898 1.453 -1.199 1.73 c -0.258 0.234 -0.816 0.785 -1.242 1.215 c -0.547 0.559 -0.75 0.715 -0.699 0.535 c 0.039 -0.141 0.172 -0.582 0.293 -0.98 c 0.25 -0.809 0.203 -1.016 -0.277 -1.188 c -0.371 -0.137 -1.031 0.043 -2.145 0.586 c -0.484 0.23 -0.918 0.422 -0.965 0.422 c -0.051 0 -0.063 -0.238 -0.031 -0.527 c 0.063 -0.508 0.051 -0.531 -0.289 -0.742 c -0.191 -0.121 -0.563 -0.25 -0.824 -0.289 c -0.398 -0.063 -0.555 -0.027 -0.973 0.211 l -0.5 0.281 l 0 -0.359 c 0 -0.285 -0.086 -0.441 -0.395 -0.727 c -0.496 -0.457 -1.328 -0.941 -2.266 -1.32 l -0.723 -0.293 l 0.723 -0.285 c 0.398 -0.156 1.055 -0.457 1.457 -0.664 c 0.402 -0.211 0.906 -0.41 1.117 -0.449 c 0.418 -0.074 0.926 -0.422 0.926 -0.641 c 0 -0.266 -0.82 -0.914 -1.156 -0.914 c -0.172 0 -0.727 -0.16 -1.23 -0.355 c -0.504 -0.195 -1.145 -0.441 -1.426 -0.547 l -0.516 -0.191 l 0.434 -0.367 c 0.363 -0.305 0.438 -0.43 0.438 -0.746 c 0 -0.309 -0.086 -0.461 -0.426 -0.793 c -0.234 -0.227 -0.613 -0.508 -0.848 -0.629 c -0.383 -0.199 -0.41 -0.238 -0.27 -0.402 c 0.465 -0.543 0.438 -0.895 -0.137 -1.598 c -0.234 -0.289 -0.313 -0.496 -0.313 -0.82 c 0 -0.305 -0.098 -0.598 -0.328 -0.965 c -0.18 -0.289 -0.359 -0.551 -0.398 -0.578 c -0.094 -0.066 -0.227 -0.426 -0.164 -0.426 c 0.027 0 0.504 0.117 1.059 0.266 c 1.238 0.328 1.285 0.328 1.75 0.004 c 0.375 -0.258 0.379 -0.258 0.633 -0.051 c 0.145 0.113 0.309 0.207 0.367 0.207 c 0.059 0 0.273 0.098 0.477 0.219 c 0.648 0.391 1.078 0.238 1.359 -0.488 c 0.023 -0.059 0.273 0.121 0.555 0.402 c 0.285 0.277 0.555 0.504 0.605 0.504 c 0.051 0 0.266 0.191 0.477 0.43 c 0.258 0.281 0.48 0.426 0.652 0.426 c 0.422 0 0.539 -0.238 0.477 -0.992 c -0.066 -0.84 -0.398 -1.527 -1.242 -2.547 l -0.641 -0.781 l 0.559 -0.055 c 0.313 -0.027 0.621 -0.09 0.695 -0.137 c 0.078 -0.051 0.129 -0.316 0.129 -0.648 c 0 -0.492 -0.055 -0.645 -0.469 -1.246 l -0.469 -0.684 l 0.266 -0.035 c 0.477 -0.063 0.758 -0.711 1.051 -2.418 c 0.09 -0.527 0.18 -0.977 0.199 -0.996 c 0.02 -0.02 0.277 0.16 0.578 0.402 c 0.395 0.316 0.637 0.434 0.898 0.434 c 0.195 0 0.355 0.051 0.355 0.113 c 0 0.059 0.219 0.348 0.488 0.637 c 0.52 0.566 0.863 0.672 1.25 0.375 c 0.281 -0.219 0.359 -0.203 0.359 0.066 c 0 0.457 0.344 1.477 0.59 1.746 c 0.203 0.223 0.285 0.25 0.457 0.156 c 0.113 -0.063 0.289 -0.27 0.387 -0.457 l 0.176 -0.344 l 0.125 0.695 c 0.215 1.164 1.191 3.523 1.793 4.34 c 0.141 0.191 0.344 0.348 0.449 0.348 c 0.25 0 0.824 -0.664 0.898 -1.039 c 0.031 -0.16 0.191 -0.559 0.355 -0.879 c 0.305 -0.594 0.668 -1.805 0.797 -2.641 c 0.039 -0.246 0.102 -0.449 0.137 -0.449 c 0.039 0 0.152 0.145 0.25 0.32 c 0.352 0.629 1.148 0.301 1.664 -0.691 c 0.227 -0.434 0.285 -0.48 0.535 -0.426 c 0.344 0.078 0.551 -0.027 1.523 -0.766 c 0.414 -0.313 0.77 -0.57 0.789 -0.57 c 0.016 0 0.031 0.18 0.035 0.398 c 0.008 0.754 0.16 1.414 0.371 1.617 c 0.191 0.18 0.199 0.242 0.086 0.625 c -0.203 0.691 0.059 1.48 0.543 1.645 c 0.098 0.035 0.07 0.191 -0.105 0.609 c -0.277 0.66 -0.336 1.395 -0.133 1.645 c 0.113 0.137 0.332 0.176 0.98 0.176 l 0.836 0 l -0.238 0.398 c -0.133 0.223 -0.457 0.809 -0.719 1.309 c -0.266 0.496 -0.844 1.348 -1.289 1.895 c -0.895 1.09 -1.063 1.465 -0.758 1.691 c 0.344 0.254 1.723 0.242 2.117 -0.023 c 0.18 -0.121 0.289 -0.137 0.387 -0.055 c 0.242 0.207 1.184 0.324 1.891 0.238 c 0.809 -0.102 0.832 -0.02 0.152 0.488 c -0.852 0.637 -1.465 1.223 -1.633 1.559 c -0.094 0.184 -0.398 0.586 -0.68 0.891 c -0.543 0.586 -0.605 0.805 -0.344 1.18 c 0.211 0.309 0.113 0.449 -0.313 0.449 c -0.188 0 -0.809 0.168 -1.379 0.371 c -0.574 0.203 -1.152 0.371 -1.289 0.375 c -0.27 0 -1.063 0.73 -1.063 0.977 c 0 0.078 0.367 0.496 0.813 0.926 l 0.813 0.785 l -1.043 -0.074 c -1.227 -0.09 -3.168 -0.672 -4.5 -1.352 c -0.535 -0.277 -0.859 -0.387 -0.926 -0.32 c -0.344 0.352 0.84 2.238 2.262 3.609 c 1.086 1.043 2.031 1.633 2.617 1.633 c 0.516 0 0.879 0.16 0.961 0.426 c 0.195 0.621 -0.773 0.73 -1.781 0.199 m -2.918 -9.266 c 1.637 -3.715 2.594 -6.04 2.777 -6.734 c 0.105 -0.41 0.105 -0.531 -0.004 -0.641 c -0.105 -0.109 -0.176 -0.082 -0.348 0.133 c -0.273 0.34 -1.605 3.051 -2.883 5.859 c -0.551 1.203 -1.07 2.332 -1.156 2.504 l -0.16 0.316 l -0.141 -0.371 c -0.074 -0.199 -0.734 -2.023 -1.461 -4.04 c -1.465 -4.059 -2.645 -7.152 -3.02 -7.891 c -0.133 -0.262 -0.324 -0.496 -0.43 -0.516 c -0.168 -0.035 -0.18 0.016 -0.113 0.48 c 0.09 0.641 1.273 4.305 2.898 8.98 c 0.684 1.961 1.23 3.578 1.219 3.586 c -0.016 0.012 -1.016 -0.645 -2.227 -1.457 c -2.883 -1.938 -5.633 -3.695 -6.09 -3.891 c -0.387 -0.164 -0.566 -0.125 -0.566 0.121 c 0 0.285 1.789 1.621 6.684 4.992 c 2.992 2.066 2.898 2.02 3.316 1.84 c 0.293 -0.121 0.445 -0.41 1.703 -3.27 m 0 0" fill="#000"/></g></g></g></g><g><g clip-path="url(#clipPath-610910964)"><g transform="translate(0,-1)"><!-- color: #f3cf41 --><g><path d="m 30.03 36.66 c -0.859 -0.449 -0.926 -0.504 -1.922 -1.504 c -1.016 -1.02 -1.48 -1.672 -2.152 -3.039 c -0.34 -0.684 -0.543 -0.984 -0.672 -0.984 c -0.129 0 -0.414 0.406 -0.918 1.305 c -0.469 0.836 -0.898 1.453 -1.199 1.73 c -0.258 0.234 -0.816 0.785 -1.242 1.215 c -0.547 0.559 -0.75 0.715 -0.699 0.535 c 0.039 -0.141 0.172 -0.582 0.293 -0.98 c 0.25 -0.809 0.203 -1.016 -0.277 -1.188 c -0.371 -0.137 -1.031 0.043 -2.145 0.586 c -0.484 0.23 -0.918 0.422 -0.965 0.422 c -0.051 0 -0.063 -0.238 -0.031 -0.527 c 0.063 -0.508 0.051 -0.531 -0.289 -0.742 c -0.191 -0.121 -0.563 -0.25 -0.824 -0.289 c -0.398 -0.063 -0.555 -0.027 -0.973 0.211 l -0.5 0.281 l 0 -0.359 c 0 -0.285 -0.086 -0.441 -0.395 -0.727 c -0.496 -0.457 -1.328 -0.941 -2.266 -1.32 l -0.723 -0.293 l 0.723 -0.285 c 0.398 -0.156 1.055 -0.457 1.457 -0.664 c 0.402 -0.211 0.906 -0.41 1.117 -0.449 c 0.418 -0.074 0.926 -0.422 0.926 -0.641 c 0 -0.266 -0.82 -0.914 -1.156 -0.914 c -0.172 0 -0.727 -0.16 -1.23 -0.355 c -0.504 -0.195 -1.145 -0.441 -1.426 -0.547 l -0.516 -0.191 l 0.434 -0.367 c 0.363 -0.305 0.438 -0.43 0.438 -0.746 c 0 -0.309 -0.086 -0.461 -0.426 -0.793 c -0.234 -0.227 -0.613 -0.508 -0.848 -0.629 c -0.383 -0.199 -0.41 -0.238 -0.27 -0.402 c 0.465 -0.543 0.438 -0.895 -0.137 -1.598 c -0.234 -0.289 -0.313 -0.496 -0.313 -0.82 c 0 -0.305 -0.098 -0.598 -0.328 -0.965 c -0.18 -0.289 -0.359 -0.551 -0.398 -0.578 c -0.094 -0.066 -0.227 -0.426 -0.164 -0.426 c 0.027 0 0.504 0.117 1.059 0.266 c 1.238 0.328 1.285 0.328 1.75 0.004 c 0.375 -0.258 0.379 -0.258 0.633 -0.051 c 0.145 0.113 0.309 0.207 0.367 0.207 c 0.059 0 0.273 0.098 0.477 0.219 c 0.648 0.391 1.078 0.238 1.359 -0.488 c 0.023 -0.059 0.273 0.121 0.555 0.402 c 0.285 0.277 0.555 0.504 0.605 0.504 c 0.051 0 0.266 0.191 0.477 0.43 c 0.258 0.281 0.48 0.426 0.652 0.426 c 0.422 0 0.539 -0.238 0.477 -0.992 c -0.066 -0.84 -0.398 -1.527 -1.242 -2.547 l -0.641 -0.781 l 0.559 -0.055 c 0.313 -0.027 0.621 -0.09 0.695 -0.137 c 0.078 -0.051 0.129 -0.316 0.129 -0.648 c 0 -0.492 -0.055 -0.645 -0.469 -1.246 l -0.469 -0.684 l 0.266 -0.035 c 0.477 -0.063 0.758 -0.711 1.051 -2.418 c 0.09 -0.527 0.18 -0.977 0.199 -0.996 c 0.02 -0.02 0.277 0.16 0.578 0.402 c 0.395 0.316 0.637 0.434 0.898 0.434 c 0.195 0 0.355 0.051 0.355 0.113 c 0 0.059 0.219 0.348 0.488 0.637 c 0.52 0.566 0.863 0.672 1.25 0.375 c 0.281 -0.219 0.359 -0.203 0.359 0.066 c 0 0.457 0.344 1.477 0.59 1.746 c 0.203 0.223 0.285 0.25 0.457 0.156 c 0.113 -0.063 0.289 -0.27 0.387 -0.457 l 0.176 -0.344 l 0.125 0.695 c 0.215 1.164 1.191 3.523 1.793 4.34 c 0.141 0.191 0.344 0.348 0.449 0.348 c 0.25 0 0.824 -0.664 0.898 -1.039 c 0.031 -0.16 0.191 -0.559 0.355 -0.879 c 0.305 -0.594 0.668 -1.805 0.797 -2.641 c 0.039 -0.246 0.102 -0.449 0.137 -0.449 c 0.039 0 0.152 0.145 0.25 0.32 c 0.352 0.629 1.148 0.301 1.664 -0.691 c 0.227 -0.434 0.285 -0.48 0.535 -0.426 c 0.344 0.078 0.551 -0.027 1.523 -0.766 c 0.414 -0.313 0.77 -0.57 0.789 -0.57 c 0.016 0 0.031 0.18 0.035 0.398 c 0.008 0.754 0.16 1.414 0.371 1.617 c 0.191 0.18 0.199 0.242 0.086 0.625 c -0.203 0.691 0.059 1.48 0.543 1.645 c 0.098 0.035 0.07 0.191 -0.105 0.609 c -0.277 0.66 -0.336 1.395 -0.133 1.645 c 0.113 0.137 0.332 0.176 0.98 0.176 l 0.836 0 l -0.238 0.398 c -0.133 0.223 -0.457 0.809 -0.719 1.309 c -0.266 0.496 -0.844 1.348 -1.289 1.895 c -0.895 1.09 -1.063 1.465 -0.758 1.691 c 0.344 0.254 1.723 0.242 2.117 -0.023 c 0.18 -0.121 0.289 -0.137 0.387 -0.055 c 0.242 0.207 1.184 0.324 1.891 0.238 c 0.809 -0.102 0.832 -0.02 0.152 0.488 c -0.852 0.637 -1.465 1.223 -1.633 1.559 c -0.094 0.184 -0.398 0.586 -0.68 0.891 c -0.543 0.586 -0.605 0.805 -0.344 1.18 c 0.211 0.309 0.113 0.449 -0.313 0.449 c -0.188 0 -0.809 0.168 -1.379 0.371 c -0.574 0.203 -1.152 0.371 -1.289 0.375 c -0.27 0 -1.063 0.73 -1.063 0.977 c 0 0.078 0.367 0.496 0.813 0.926 l 0.813 0.785 l -1.043 -0.074 c -1.227 -0.09 -3.168 -0.672 -4.5 -1.352 c -0.535 -0.277 -0.859 -0.387 -0.926 -0.32 c -0.344 0.352 0.84 2.238 2.262 3.609 c 1.086 1.043 2.031 1.633 2.617 1.633 c 0.516 0 0.879 0.16 0.961 0.426 c 0.195 0.621 -0.773 0.73 -1.781 0.199 m -2.918 -9.266 c 1.637 -3.715 2.594 -6.04 2.777 -6.734 c 0.105 -0.41 0.105 -0.531 -0.004 -0.641 c -0.105 -0.109 -0.176 -0.082 -0.348 0.133 c -0.273 0.34 -1.605 3.051 -2.883 5.859 c -0.551 1.203 -1.07 2.332 -1.156 2.504 l -0.16 0.316 l -0.141 -0.371 c -0.074 -0.199 -0.734 -2.023 -1.461 -4.04 c -1.465 -4.059 -2.645 -7.152 -3.02 -7.891 c -0.133 -0.262 -0.324 -0.496 -0.43 -0.516 c -0.168 -0.035 -0.18 0.016 -0.113 0.48 c 0.09 0.641 1.273 4.305 2.898 8.98 c 0.684 1.961 1.23 3.578 1.219 3.586 c -0.016 0.012 -1.016 -0.645 -2.227 -1.457 c -2.883 -1.938 -5.633 -3.695 -6.09 -3.891 c -0.387 -0.164 -0.566 -0.125 -0.566 0.121 c 0 0.285 1.789 1.621 6.684 4.992 c 2.992 2.066 2.898 2.02 3.316 1.84 c 0.293 -0.121 0.445 -0.41 1.703 -3.27 m 0 0" fill="#3dc100"/></g></g></g></g><g><g transform="translate(0,-1004.3622)"><path d="m 1 1043.36 0 4 c 0 2.216 1.784 4 4 4 l 38 0 c 2.216 0 4 -1.784 4 -4 l 0 -4 c 0 2.216 -1.784 4 -4 4 l -38 0 c -2.216 0 -4 -1.784 -4 -4 z" opacity="0.1"/></g></g></svg>