<svg viewBox="0 0 48 48"><defs><linearGradient id="linearGradient3764" x1="1" x2="47" gradientUnits="userSpaceOnUse" gradientTransform="translate(-48.000001,0.00221467)"><stop stop-color="#89af03" stop-opacity="1"/><stop offset="1" stop-color="#9ac303" stop-opacity="1"/></linearGradient><clipPath id="clipPath-077957942"><g transform="translate(0,-1004.3622)"><rect rx="4" y="1005.36" x="1" height="46" width="46" fill="#1890d0"/></g></clipPath><clipPath id="clipPath-099666835"><g transform="translate(0,-1004.3622)"><rect rx="4" y="1005.36" x="1" height="46" width="46" fill="#1890d0"/></g></clipPath></defs><g><path d="m 1 43 l 0 0.25 c 0 2.216 1.784 4 4 4 l 38 0 c 2.216 0 4 -1.784 4 -4 l 0 -0.25 c 0 2.216 -1.784 4 -4 4 l -38 0 c -2.216 0 -4 -1.784 -4 -4 z m 0 0.5 l 0 0.5 c 0 2.216 1.784 4 4 4 l 38 0 c 2.216 0 4 -1.784 4 -4 l 0 -0.5 c 0 2.216 -1.784 4 -4 4 l -38 0 c -2.216 0 -4 -1.784 -4 -4 z" opacity="0.02"/><path d="m 1 43.25 l 0 0.25 c 0 2.216 1.784 4 4 4 l 38 0 c 2.216 0 4 -1.784 4 -4 l 0 -0.25 c 0 2.216 -1.784 4 -4 4 l -38 0 c -2.216 0 -4 -1.784 -4 -4 z" opacity="0.05"/><path d="m 1 43 l 0 0.25 c 0 2.216 1.784 4 4 4 l 38 0 c 2.216 0 4 -1.784 4 -4 l 0 -0.25 c 0 2.216 -1.784 4 -4 4 l -38 0 c -2.216 0 -4 -1.784 -4 -4 z" opacity="0.1"/></g><g><rect width="46" height="46" x="-47" y="1" rx="4" transform="matrix(0,-1,1,0,0,0)" fill="url(#linearGradient3764)" fill-opacity="1"/></g><g><g clip-path="url(#clipPath-077957942)"><g opacity="0.1"><!-- color: #9ac303 --><g><path d="m 35.57 22.08 c -0.25 0 -0.504 -0.066 -0.738 -0.207 c -4.246 -2.563 -9.109 -3.918 -14.06 -3.918 c -2.676 0 -5.324 0.391 -7.871 1.16 c -0.777 0.234 -1.59 -0.219 -1.82 -1.016 c -0.227 -0.797 0.215 -1.633 0.992 -1.867 c 2.816 -0.855 5.746 -1.285 8.699 -1.285 c 5.473 0 10.848 1.496 15.547 4.332 c 0.695 0.422 0.93 1.34 0.52 2.059 c -0.273 0.477 -0.762 0.742 -1.266 0.742" fill="#000"/><path d="m 33.16 27.527 c -0.238 0 -0.48 -0.066 -0.695 -0.207 c -3.504 -2.246 -7.551 -3.438 -11.699 -3.438 c -2.305 0 -4.578 0.363 -6.758 1.082 c -0.691 0.23 -1.434 -0.164 -1.656 -0.875 c -0.223 -0.711 0.16 -1.473 0.852 -1.703 c 2.441 -0.805 4.984 -1.211 7.563 -1.211 c 4.645 0 9.172 1.332 13.09 3.852 c 0.617 0.395 0.805 1.23 0.418 1.863 c -0.25 0.41 -0.68 0.637 -1.117 0.637" fill="#000"/><path d="m 30.766 32.957 c -0.23 0 -0.465 -0.066 -0.668 -0.211 c -2.75 -1.961 -5.977 -2.996 -9.328 -2.996 c -1.938 0 -3.836 0.344 -5.637 1.023 c -0.609 0.227 -1.281 -0.094 -1.504 -0.719 c -0.223 -0.625 0.09 -1.313 0.699 -1.543 c 2.059 -0.777 4.227 -1.168 6.441 -1.168 c 3.832 0 7.52 1.184 10.664 3.422 c 0.531 0.379 0.664 1.129 0.293 1.676 c -0.227 0.336 -0.59 0.516 -0.961 0.516" fill="#000"/></g></g></g></g><g><g clip-path="url(#clipPath-099666835)"><g transform="translate(0,-1)"><!-- color: #9ac303 --><g><path d="m 35.57 22.08 c -0.25 0 -0.504 -0.066 -0.738 -0.207 c -4.246 -2.563 -9.109 -3.918 -14.06 -3.918 c -2.676 0 -5.324 0.391 -7.871 1.16 c -0.777 0.234 -1.59 -0.219 -1.82 -1.016 c -0.227 -0.797 0.215 -1.633 0.992 -1.867 c 2.816 -0.855 5.746 -1.285 8.699 -1.285 c 5.473 0 10.848 1.496 15.547 4.332 c 0.695 0.422 0.93 1.34 0.52 2.059 c -0.273 0.477 -0.762 0.742 -1.266 0.742" fill="#2d2d2d"/><path d="m 33.16 27.527 c -0.238 0 -0.48 -0.066 -0.695 -0.207 c -3.504 -2.246 -7.551 -3.438 -11.699 -3.438 c -2.305 0 -4.578 0.363 -6.758 1.082 c -0.691 0.23 -1.434 -0.164 -1.656 -0.875 c -0.223 -0.711 0.16 -1.473 0.852 -1.703 c 2.441 -0.805 4.984 -1.211 7.563 -1.211 c 4.645 0 9.172 1.332 13.09 3.852 c 0.617 0.395 0.805 1.23 0.418 1.863 c -0.25 0.41 -0.68 0.637 -1.117 0.637" fill="#2d2d2d"/><path d="m 30.766 32.957 c -0.23 0 -0.465 -0.066 -0.668 -0.211 c -2.75 -1.961 -5.977 -2.996 -9.328 -2.996 c -1.938 0 -3.836 0.344 -5.637 1.023 c -0.609 0.227 -1.281 -0.094 -1.504 -0.719 c -0.223 -0.625 0.09 -1.313 0.699 -1.543 c 2.059 -0.777 4.227 -1.168 6.441 -1.168 c 3.832 0 7.52 1.184 10.664 3.422 c 0.531 0.379 0.664 1.129 0.293 1.676 c -0.227 0.336 -0.59 0.516 -0.961 0.516" fill="#2d2d2d"/></g></g></g></g><g><g transform="translate(0,-1004.3622)"><path d="m 1 1043.36 0 4 c 0 2.216 1.784 4 4 4 l 38 0 c 2.216 0 4 -1.784 4 -4 l 0 -4 c 0 2.216 -1.784 4 -4 4 l -38 0 c -2.216 0 -4 -1.784 -4 -4 z" opacity="0.1"/></g></g></svg>