<svg viewBox="0 0 48 48"><defs><linearGradient id="linearGradient3764" y1="1" x2="0" y2="47" gradientUnits="userSpaceOnUse"><stop stop-color="#9d8fa7" stop-opacity="1"/><stop offset="1" stop-color="#93849e" stop-opacity="1"/></linearGradient><clipPath id="clipPath-684901389"><g transform="translate(0,-1004.3622)"><path d="m 24 1005.37 c -1.045 0 -2.023 0.287 -2.856 0.784 l -15.339 8.708 c -0.017 0.013 -0.035 0.013 -0.052 0.021 -1.852 1.051 -2.847 3 -2.746 4.968 l 0 17.02 c -0.056 1.013 0.175 2.049 0.729 2.993 0.532 0.903 1.288 1.602 2.161 2.061 l 15.246 8.653 c 0.832 0.497 1.811 0.784 2.856 0.784 1.045 0 2.023 -0.287 2.856 -0.784 l 15.246 -8.653 c 0.873 -0.46 1.629 -1.158 2.161 -2.061 0.554 -0.944 0.785 -1.981 0.729 -2.993 l 0 -17.01 c 0.056 -1.012 -0.175 -2.052 -0.729 -2.993 -0.532 -0.906 -1.288 -1.604 -2.161 -2.064 l -15.246 -8.653 c -0.832 -0.497 -1.811 -0.784 -2.856 -0.784 z" fill="#1890d0"/></g></clipPath><clipPath id="clipPath-693880925"><g transform="translate(0,-1004.3622)"><path d="m 24 1005.37 c -1.045 0 -2.023 0.287 -2.856 0.784 l -15.339 8.708 c -0.017 0.013 -0.035 0.013 -0.052 0.021 -1.852 1.051 -2.847 3 -2.746 4.968 l 0 17.02 c -0.056 1.013 0.175 2.049 0.729 2.993 0.532 0.903 1.288 1.602 2.161 2.061 l 15.246 8.653 c 0.832 0.497 1.811 0.784 2.856 0.784 1.045 0 2.023 -0.287 2.856 -0.784 l 15.246 -8.653 c 0.873 -0.46 1.629 -1.158 2.161 -2.061 0.554 -0.944 0.785 -1.981 0.729 -2.993 l 0 -17.01 c 0.056 -1.012 -0.175 -2.052 -0.729 -2.993 -0.532 -0.906 -1.288 -1.604 -2.161 -2.064 l -15.246 -8.653 c -0.832 -0.497 -1.811 -0.784 -2.856 -0.784 z" fill="#1890d0"/></g></clipPath><filter id="filter-665701974"><feGaussianBlur stdDeviation="0.35"/></filter></defs><g><g transform="translate(0,-1004.3622)"><path d="m 45 1037.36 c 0.056 1.013 -0.196 2.056 -0.75 3 -0.532 0.903 -1.283 1.603 -2.156 2.063 l -15.25 8.656 c -0.832 0.497 -1.799 0.781 -2.844 0.781 -1.045 0 -2.01 -0.284 -2.844 -0.781 l -15.25 -8.656 c -0.873 -0.46 -1.625 -1.159 -2.156 -2.063 -0.416 -0.708 -0.677 -1.485 -0.75 -2.25 -0.004 0.932 0.242 1.884 0.75 2.75 0.532 0.903 1.283 1.603 2.156 2.063 l 15.25 8.656 c 0.832 0.497 1.799 0.781 2.844 0.781 1.045 0 2.01 -0.284 2.844 -0.781 l 15.25 -8.656 c 0.873 -0.46 1.625 -1.159 2.156 -2.063 0.554 -0.944 0.806 -1.987 0.75 -3 l 0 -0.5 z" opacity="0.05"/><path d="m 45 1036.86 c 0.015 0.263 -0.004 0.516 -0.031 0.781 -0.036 0.844 -0.259 1.685 -0.719 2.469 -0.532 0.903 -1.283 1.603 -2.156 2.063 l -15.25 8.656 c -0.832 0.497 -1.799 0.781 -2.844 0.781 -1.045 0 -2.01 -0.284 -2.844 -0.781 l -15.25 -8.656 c -0.873 -0.46 -1.625 -1.159 -2.156 -2.063 -0.414 -0.705 -0.621 -1.46 -0.688 -2.219 -0.014 -0.092 -0.054 -0.189 -0.063 -0.281 -0.004 0.932 0.242 1.884 0.75 2.75 0.532 0.903 1.283 1.603 2.156 2.063 l 15.25 8.656 c 0.832 0.497 1.799 0.781 2.844 0.781 1.045 0 2.01 -0.284 2.844 -0.781 l 15.25 -8.656 c 0.873 -0.46 1.625 -1.159 2.156 -2.063 0.554 -0.944 0.806 -1.987 0.75 -3 l 0 -0.5 z m -41.813 1.625 c 0.057 0.219 0.132 0.442 0.219 0.656 -0.088 -0.216 -0.16 -0.436 -0.219 -0.656 z m 0.219 0.656 c 0.099 0.243 0.206 0.484 0.344 0.719 -0.139 -0.236 -0.243 -0.472 -0.344 -0.719 z m 41.41 -0.656 c -0.059 0.221 -0.131 0.441 -0.219 0.656 0.087 -0.215 0.161 -0.437 0.219 -0.656 z m -0.219 0.656 c -0.101 0.246 -0.205 0.483 -0.344 0.719 0.138 -0.235 0.245 -0.476 0.344 -0.719 z" opacity="0.1"/><path d="m 3.03 1037.64 c 0.035 0.844 0.259 1.685 0.719 2.469 0.532 0.903 1.283 1.603 2.156 2.063 l 15.25 8.656 c 0.832 0.497 1.799 0.781 2.844 0.781 1.045 0 2.01 -0.284 2.844 -0.781 l 15.25 -8.656 c 0.873 -0.46 1.625 -1.159 2.156 -2.063 0.46 -0.784 0.683 -1.624 0.719 -2.469 -0.067 0.763 -0.303 1.511 -0.719 2.219 -0.532 0.903 -1.283 1.603 -2.156 2.063 l -15.25 8.656 c -0.832 0.497 -1.799 0.781 -2.844 0.781 -1.045 0 -2.01 -0.284 -2.844 -0.781 l -15.25 -8.656 c -0.873 -0.46 -1.625 -1.159 -2.156 -2.063 -0.416 -0.708 -0.651 -1.456 -0.719 -2.219 z" opacity="0.2"/></g></g><g><path d="m 24 46.996 c 1.045 0 2.023 -0.287 2.856 -0.784 l 15.339 -8.708 c 0.017 -0.013 0.035 -0.013 0.052 -0.021 1.852 -1.051 2.847 -3 2.746 -4.968 l 0 -17.02 c 0.056 -1.013 -0.175 -2.049 -0.729 -2.993 -0.532 -0.903 -1.288 -1.602 -2.161 -2.061 l -15.246 -8.653 c -0.832 -0.497 -1.811 -0.784 -2.856 -0.784 -1.045 0 -2.023 0.287 -2.856 0.784 l -15.246 8.653 c -0.873 0.46 -1.629 1.158 -2.161 2.061 -0.554 0.944 -0.785 1.981 -0.729 2.993 l 0 17.01 c -0.056 1.012 0.175 2.051 0.729 2.993 0.532 0.906 1.288 1.604 2.161 2.064 l 15.246 8.653 c 0.832 0.497 1.811 0.785 2.856 0.785 z" fill="url(#linearGradient3764)" fill-opacity="1"/></g><g><g clip-path="url(#clipPath-684901389)"><g opacity="0.25"><g transform="translate(0,1)"><g filter="url(#filter-665701974)"><!-- color: #9d8fa7 --><path d="m 13 12 c -0.332 0 -1 0.563 -1 1 l 0 13 c 0 0.465 0.332 0.996 1 1 l 2.031 0 0 1.531 0.379 1.469 1.406 1.281 1.492 1.406 1.234 0.164 1.531 0 -0.043 -1.01 c 0 0.449 0 0.891 0.031 1 0.125 0.445 0.656 0.996 1.094 1.125 0.098 0.027 2.758 0.035 6.438 0.031 l 6.281 0 0.219 -0.125 c 0.293 -0.156 -1.375 1.512 -1.219 1.219 l 0.125 -0.219 0 -12.719 -0.125 -0.219 c -0.156 -0.293 1.512 1.375 1.219 1.219 l -0.219 -0.125 -3.938 0 l -3.906 -0.031 -0.031 -10 c 0 -0.387 -0.063 -1 -1 -1 z m 4.777 15 3.254 0 0 1.5 l -0.031 1.754 l -1.5 0 l -1.723 -0.254 z m 0 0" fill="#000"/><path d="m 15.262 23.539 c -0.203 -0.234 -0.371 -0.441 -0.371 -0.461 -0.004 -0.02 0.188 -0.113 0.422 -0.211 0.922 -0.375 1.824 -0.91 2.891 -1.703 0.25 -0.188 0.457 -0.367 0.457 -0.398 0 -0.031 -0.063 -0.113 -0.137 -0.188 -0.273 -0.25 -0.957 -1.098 -1.242 -1.535 -0.277 -0.426 -0.711 -1.281 -0.711 -1.402 0 -0.039 0.23 -0.059 0.711 -0.059 l 0.711 0 0.188 0.414 c 0.223 0.5 0.684 1.211 1.07 1.648 0.156 0.18 0.305 0.328 0.324 0.34 0.047 0.016 0.559 -0.551 0.891 -0.992 0.516 -0.684 0.984 -1.859 0.984 -2.465 l 0 -0.527 -6.449 0 0 -1 1.734 0.012 2.266 -0.012 l 0 -1 1 0 0 1 4 0.012 0 0.988 -1.258 0 -0.035 0.605 c -0.137 1.227 -0.891 2.621 -2.098 3.875 l -0.238 0.246 0.23 0.188 c 0.129 0.105 0.371 0.281 0.539 0.391 0.168 0.113 0.309 0.215 0.309 0.227 0 0.012 -0.059 0.102 -0.133 0.199 -0.152 0.195 -0.297 0.57 -0.297 0.762 0 0.07 -0.016 0.129 -0.031 0.129 -0.02 0 -0.309 -0.211 -0.648 -0.469 c -0.34 -0.258 -0.664 -0.504 -0.719 -0.543 c -0.117 -0.086 -0.023 -0.141 -0.922 0.539 -0.336 0.258 -0.887 0.641 -1.219 0.848 -0.594 0.367 -1.711 0.965 -1.805 0.965 -0.027 0 -0.215 -0.191 -0.414 -0.422 z m 0 0" fill="#000"/><path d="m 20.809 22.508 -0.129 -0.109 0.496 -0.496 -0.074 0.211 c -0.043 0.117 -0.078 0.277 -0.078 0.359 -0.004 0.176 -0.039 0.18 -0.215 0.035 z m 0 0" fill="#000"/><path d="m 22 36 c -0.438 -0.129 -0.875 -0.555 -1 -1 -0.031 -0.109 0.02 -0.719 0.02 -1.168 l 0 -0.816 -2.977 0 l -1.512 -1.516 l -1.516 -1.512 0 -2.973 -1.098 0 2.602 -2.602 1.297 1.301 1.301 1.301 -1.098 0 0 3 2.98 0 l 0 -8.02 c 0 -0.68 0.344 -1 1 -1 l 13 0 c 0.633 0 1 0.473 1 1 l 0 13 c 0 0.48 -0.434 1 -1 1 z m 4.75 -6 3.5 0 0.75 2 1 0 -3 -8 -1 0 -3 8 1 0 z m 0.25 -1 1.539 -4 1.461 4 z m 0 0" fill="#000"/></g></g></g></g></g><g><g clip-path="url(#clipPath-693880925)"><!-- color: #9d8fa7 --><path d="m 13 12 c -0.332 0 -1 0.563 -1 1 l 0 13 c 0 0.465 0.332 0.996 1 1 l 2.031 0 0 1.531 0.379 1.469 1.406 1.281 1.492 1.406 1.234 0.164 1.531 0 -0.043 -1.01 c 0 0.449 0 0.891 0.031 1 0.125 0.445 0.656 0.996 1.094 1.125 0.098 0.027 2.758 0.035 6.438 0.031 l 6.281 0 0.219 -0.125 c 0.293 -0.156 -1.375 1.512 -1.219 1.219 l 0.125 -0.219 0 -12.719 -0.125 -0.219 c -0.156 -0.293 1.512 1.375 1.219 1.219 l -0.219 -0.125 -3.938 0 l -3.906 -0.031 -0.031 -10 c 0 -0.387 -0.063 -1 -1 -1 z m 4.777 15 3.254 0 0 1.5 l -0.031 1.754 l -1.5 0 l -1.723 -0.254 z m 0 0" fill="#f1ede5"/><path d="m 15.262 23.539 c -0.203 -0.234 -0.371 -0.441 -0.371 -0.461 -0.004 -0.02 0.188 -0.113 0.422 -0.211 0.922 -0.375 1.824 -0.91 2.891 -1.703 0.25 -0.188 0.457 -0.367 0.457 -0.398 0 -0.031 -0.063 -0.113 -0.137 -0.188 -0.273 -0.25 -0.957 -1.098 -1.242 -1.535 -0.277 -0.426 -0.711 -1.281 -0.711 -1.402 0 -0.039 0.23 -0.059 0.711 -0.059 l 0.711 0 0.188 0.414 c 0.223 0.5 0.684 1.211 1.07 1.648 0.156 0.18 0.305 0.328 0.324 0.34 0.047 0.016 0.559 -0.551 0.891 -0.992 0.516 -0.684 0.984 -1.859 0.984 -2.465 l 0 -0.527 -6.449 0 0 -1 1.734 0.012 2.266 -0.012 l 0 -1 1 0 0 1 4 0.012 0 0.988 -1.258 0 -0.035 0.605 c -0.137 1.227 -0.891 2.621 -2.098 3.875 l -0.238 0.246 0.23 0.188 c 0.129 0.105 0.371 0.281 0.539 0.391 0.168 0.113 0.309 0.215 0.309 0.227 0 0.012 -0.059 0.102 -0.133 0.199 -0.152 0.195 -0.297 0.57 -0.297 0.762 0 0.07 -0.016 0.129 -0.031 0.129 -0.02 0 -0.309 -0.211 -0.648 -0.469 c -0.34 -0.258 -0.664 -0.504 -0.719 -0.543 c -0.117 -0.086 -0.023 -0.141 -0.922 0.539 -0.336 0.258 -0.887 0.641 -1.219 0.848 -0.594 0.367 -1.711 0.965 -1.805 0.965 -0.027 0 -0.215 -0.191 -0.414 -0.422 z m 0 0" fill="#545452"/><path d="m 20.809 22.508 -0.129 -0.109 0.496 -0.496 -0.074 0.211 c -0.043 0.117 -0.078 0.277 -0.078 0.359 -0.004 0.176 -0.039 0.18 -0.215 0.035 z m 0 0" fill="#53534d"/><path d="m 22 36 c -0.438 -0.129 -0.875 -0.555 -1 -1 -0.031 -0.109 0.02 -0.719 0.02 -1.168 l 0 -0.816 -2.977 0 l -1.512 -1.516 l -1.516 -1.512 0 -2.973 -1.098 0 2.602 -2.602 1.297 1.301 1.301 1.301 -1.098 0 0 3 2.98 0 l 0 -8.02 c 0 -0.68 0.344 -1 1 -1 l 13 0 c 0.633 0 1 0.473 1 1 l 0 13 c 0 0.48 -0.434 1 -1 1 z m 4.75 -6 3.5 0 0.75 2 1 0 -3 -8 -1 0 -3 8 1 0 z m 0.25 -1 1.539 -4 1.461 4 z m 0 0" fill="#367ff3"/></g></g><g><path d="m 24 1 c -1.045 0 -2.01 0.284 -2.844 0.781 l -15.344 8.719 c -0.017 0.013 -0.045 0.023 -0.063 0.031 c -1.852 1.051 -2.851 3 -2.75 4.969 l 0 1 c -0.101 -1.966 0.898 -3.918 2.75 -4.969 c 0.017 -0.008 0.045 -0.018 0.063 -0.031 l 15.344 -8.719 c 0.832 -0.497 1.799 -0.781 2.844 -0.781 c 1.045 0 2.01 0.284 2.844 0.781 l 15.25 8.656 c 0.873 0.46 1.625 1.156 2.156 2.063 c 0.554 0.942 0.806 1.988 0.75 3 l 0 -1 c 0.056 -1.012 -0.196 -2.058 -0.75 -3 c -0.532 -0.906 -1.283 -1.603 -2.156 -2.063 l -15.25 -8.656 c -0.832 -0.497 -1.799 -0.781 -2.844 -0.781 z" opacity="0.2" fill="#fff"/></g></svg>