<svg viewBox="0 0 48 48"><defs><linearGradient id="linearGradient3764" x1="1" x2="47" gradientUnits="userSpaceOnUse" gradientTransform="translate(-48.000001,0.00221467)"><stop stop-color="#3a8ba6" stop-opacity="1"/><stop offset="1" stop-color="#3f97b5" stop-opacity="1"/></linearGradient><clipPath id="clipPath-335219872"><g transform="translate(0,-1004.3622)"><rect rx="4" y="1005.36" x="1" height="46" width="46" fill="#1890d0"/></g></clipPath><clipPath id="clipPath-348069940"><g transform="translate(0,-1004.3622)"><rect rx="4" y="1005.36" x="1" height="46" width="46" fill="#1890d0"/></g></clipPath></defs><g><path d="m 1 43 l 0 0.25 c 0 2.216 1.784 4 4 4 l 38 0 c 2.216 0 4 -1.784 4 -4 l 0 -0.25 c 0 2.216 -1.784 4 -4 4 l -38 0 c -2.216 0 -4 -1.784 -4 -4 z m 0 0.5 l 0 0.5 c 0 2.216 1.784 4 4 4 l 38 0 c 2.216 0 4 -1.784 4 -4 l 0 -0.5 c 0 2.216 -1.784 4 -4 4 l -38 0 c -2.216 0 -4 -1.784 -4 -4 z" opacity="0.02"/><path d="m 1 43.25 l 0 0.25 c 0 2.216 1.784 4 4 4 l 38 0 c 2.216 0 4 -1.784 4 -4 l 0 -0.25 c 0 2.216 -1.784 4 -4 4 l -38 0 c -2.216 0 -4 -1.784 -4 -4 z" opacity="0.05"/><path d="m 1 43 l 0 0.25 c 0 2.216 1.784 4 4 4 l 38 0 c 2.216 0 4 -1.784 4 -4 l 0 -0.25 c 0 2.216 -1.784 4 -4 4 l -38 0 c -2.216 0 -4 -1.784 -4 -4 z" opacity="0.1"/></g><g><rect width="46" height="46" x="-47" y="1" rx="4" transform="matrix(0,-1,1,0,0,0)" fill="url(#linearGradient3764)" fill-opacity="1"/></g><g><g clip-path="url(#clipPath-335219872)"><g opacity="0.1"><!-- color: #3f97b5 --><g><path d="m 39 0 -7.05 9.03 c -2.227 2.871 -4.078 5.176 -4.109 5.145 -0.047 -0.047 -1.207 -8.945 -1.207 -9.285 c 0 -0.09 -0.41 -0.102 -1 -0.035 -2.508 0.27 -10.984 1.25 -11.02 1.277 -0.02 0.016 0.805 3.652 1.832 8.04 l 1.863 7.977 -1.418 1.484 c -0.781 0.809 -3.898 3.945 -6.902 6.977 -3.01 3.03 -9.961 9.293 -9.996 9.391 c 0 1 0 7 0 8 2 0 5 0 7 0 0.18 -0.164 6.457 -7.242 9.141 -10.418 4.539 -5.371 5.04 -5.914 5.145 -5.559 0.066 0.215 0.504 2.461 0.969 4.973 0.461 2.512 0.844 4.605 0.863 4.625 0.016 0.023 1.168 -0.195 2.555 -0.449 1.383 -0.25 3.934 -0.695 5.66 -1 2.297 -0.406 3.145 -0.629 3.145 -0.793 0 -0.125 -0.699 -3.82 -1.555 -8.219 c -0.859 -4.398 -1.547 -8.102 -1.52 -8.219 0.027 -0.117 2.793 -2.945 6.145 -6.316 l 10.453 -10.941 c 0 -1.684 0 -3.684 0 -5.684 -2 0 -7 0 -9 0 z" fill-opacity="0.78" fill="#000"/></g></g></g></g><g><g clip-path="url(#clipPath-348069940)"><g transform="translate(0,-1)"><!-- color: #3f97b5 --><g><path d="m 39 0 -7.05 9.03 c -2.227 2.871 -4.078 5.176 -4.109 5.145 -0.047 -0.047 -1.207 -8.945 -1.207 -9.285 c 0 -0.09 -0.41 -0.102 -1 -0.035 -2.508 0.27 -10.984 1.25 -11.02 1.277 -0.02 0.016 0.805 3.652 1.832 8.04 l 1.863 7.977 -1.418 1.484 c -0.781 0.809 -3.898 3.945 -6.902 6.977 -3.01 3.03 -9.961 9.293 -9.996 9.391 c 0 1 0 7 0 8 2 0 5 0 7 0 0.18 -0.164 6.457 -7.242 9.141 -10.418 4.539 -5.371 5.04 -5.914 5.145 -5.559 0.066 0.215 0.504 2.461 0.969 4.973 0.461 2.512 0.844 4.605 0.863 4.625 0.016 0.023 1.168 -0.195 2.555 -0.449 1.383 -0.25 3.934 -0.695 5.66 -1 2.297 -0.406 3.145 -0.629 3.145 -0.793 0 -0.125 -0.699 -3.82 -1.555 -8.219 c -0.859 -4.398 -1.547 -8.102 -1.52 -8.219 0.027 -0.117 2.793 -2.945 6.145 -6.316 l 10.453 -10.941 c 0 -1.684 0 -3.684 0 -5.684 -2 0 -7 0 -9 0 z" fill="#fff" fill-opacity="0.78"/></g></g></g></g><g><g transform="translate(0,-1004.3622)"><path d="m 1 1043.36 0 4 c 0 2.216 1.784 4 4 4 l 38 0 c 2.216 0 4 -1.784 4 -4 l 0 -4 c 0 2.216 -1.784 4 -4 4 l -38 0 c -2.216 0 -4 -1.784 -4 -4 z" opacity="0.1"/></g></g></svg>