<svg xmlns="http://www.w3.org/2000/svg" xmlns:xlink="http://www.w3.org/1999/xlink" width="48" viewBox="0 0 13.546667 13.546667" height="48">
 <defs>
  <clipPath>
   <path d="M 92.311,355.545 L 479.511,355.545 L 479.511,68.1846 L 92.311,68.1846 L 92.311,355.545 z"/>
  </clipPath>
  <clipPath>
   <path d="M 93.311,69.185 L 478.511,69.185 L 478.511,354.545 L 93.311,354.545 L 93.311,69.185 z"/>
  </clipPath>
  <clipPath>
   <path d="M 93.311,354.545 L 478.511,354.545 L 478.511,69.1846 L 93.311,69.1846 L 93.311,354.545 z"/>
  </clipPath>
  <clipPath>
   <path d="M 95.311,352.545 L 476.403,352.545 L 476.403,71.4229 L 95.311,71.4229 L 95.311,352.545 z"/>
  </clipPath>
  <clipPath>
   <rect height="96" x="-100" width="96" fill="#fff"/>
  </clipPath>
  <clipPath>
   <path d="M 54.1,12.5 12.9,54.7 C -2.7,70.3 23,69 32.3,74.9 36.6,77.7 18.5,81.3 22.2,85 c 3.6,3.7 21.7,7.1 25.3,10.7 3.6,3.7 -7.3,7.6 -3.7,11.3 3.5,3.7 11.9,0.2 13.4,8.6 1.1,6.2 15.4,3.1 21.8,-2.2 4,-3.4 -6.9,-3.4 -3.3,-7.1 9,-9.1 17,-4.1 20.3,-12.5 1.8,-4.5 -13.6,-7.7 -9.5,-10.6 9.8,-6.9 45.8,-10.4 29.2,-27 L 73,12.5 c -5.3,-5 -14,-5 -18.9,0 z m -9.9,64.7 c 0.9,0 30.8,4 19.3,7.1 -4.4,1.2 -24.6,-7.1 -19.3,-7.1 z m 57.2,16.6 c 0,2.1 16.3,3.3 15.4,-0.5 -1.3,-6.4 -13.6,-5.9 -15.4,0.5 z m -69.5,11.1 c 3.7,3.2 9.3,-0.7 11.1,-5.2 -3.6,-4.7 -16.9,0.3 -11.1,5.2 z m 67.5,-6.7 c -4.6,4.2 0.8,8.6 5.3,5.7 1.2,-0.8 -0.1,-4.7 -5.3,-5.7 z"/>
  </clipPath>
  <clipPath>
   <rect height="84" rx="6" y="6" x="6" width="84" fill="#fff"/>
  </clipPath>
  <clipPath>
   <rect height="20" rx="2" y="1" x="1" width="20" fill="#fff" fill-rule="evenodd"/>
  </clipPath>
  <clipPath>
   <path d="M -670.14006,51.863192 L -114.61564,405.00326 L -257.11075,510.32573 L -514.2215,-71.013029 L -670.14006,51.863192 z"/>
  </clipPath>
  <clipPath>
   <rect height="96" x="-100" width="96" fill="#fff"/>
  </clipPath>
  <clipPath>
   <rect height="84" rx="6" y="6" x="6" width="84" fill="#fff"/>
  </clipPath>
  <clipPath>
   <rect height="20" rx="2" y="1" x="1" width="20" fill="#fff" fill-rule="evenodd"/>
  </clipPath>
  <linearGradient id="0">
   <stop stop-color="#ffffff"/>
   <stop offset="1" stop-color="#ffffff" stop-opacity="0"/>
  </linearGradient>
  <linearGradient id="1">
   <stop/>
   <stop offset="1" stop-opacity="0"/>
  </linearGradient>
  <linearGradient xlink:href="#1" id="2" gradientUnits="userSpaceOnUse" gradientTransform="matrix(-0.28222223,0,0,-0.28222223,13.546659,13.546666)" y1="24" x2="0" y2="48"/>
  <linearGradient xlink:href="#0" id="3" gradientUnits="userSpaceOnUse" gradientTransform="matrix(0.28222223,0,0,0.28222223,6.7399158e-7,-6.3183333e-6)" y1="24" x2="0" y2="48"/>
 </defs>
 <g>
  <rect width="12.982" x="0.282" y="0.564" rx="6.491" height="12.982" opacity="0.18" fill-rule="evenodd"/>
  <rect height="12.982" rx="6.491" y="0.282" x="0.282" width="12.982" fill="#f9f9f9" fill-rule="evenodd"/>
 </g>
 <g>
  <path d="m 12.699999,6.7734035 c 0,-3.2731867 -2.653456,-5.92673568 -5.9265966,-5.92673568 -3.2733024,0 -5.92673571,2.65354898 -5.92673571,5.92673568 0,3.2732795 2.65345651,5.9265965 5.92673571,5.9265965 3.2731406,0 5.9265966,-2.653364 5.9265966,-5.9265965 z" fill="#e2729c"/>
  <path d="m 24.0625,16.21875 0.125,0.5 c 0.06814,0.276637 0.332919,1.07098 0.5625,1.75 0.229571,0.679018 0.370006,1.21875 0.34375,1.21875 C 27,23 26.363922,21.910696 26.96875,22.96875 29.885274,22.975212 33.008749,22.989083 36,23 L 36,22.96875 35.28125,22.5 c -0.407923,-0.276626 -1.584302,-1.274165 -2.625,-2.21875 -2.230795,-2.024777 -3.401372,-2.947205 -4.625,-3.59375 -0.757492,-0.400247 -1.143282,-0.46875 -2.4375,-0.46875 z m -1.125,8.84375 c 0.02219,-0.02316 -1.776588,2.974841 -2.15625,3.96875 -0.288957,0.754466 -0.586167,1.685269 -0.65625,2.0625 l -0.125,0.6875 3.40625,0 c 2.618153,0 3.589293,-0.07046 4.09375,-0.28125 0.993093,-0.414943 2.666119,-1.666971 5,-3.75 1.156847,-1.032505 2.366669,-2.06975 2.71875,-2.28125 l 0.65625,-0.375 -2.46875,-0.0625 c -0.679018,-0.01417 -2.002515,0 -3.59375,0 -2.441077,-0.0049 -4.68026,-0.01699 -6.875,0.03125 z" transform="scale(0.28222223,0.28222223)" opacity="0.6" fill="#ffffff"/>
  <path d="m 12.03125,16.21875 1.1875,1.59375 c 2.383331,3.17511 3.70617,4.478898 5.09375,4.96875 0.34118,0.120432 3.483049,0.174206 8.65625,0.1875 -0.844528,-1.478397 -1.896086,-3.309095 -2.84375,-4.4375 -0.511126,-0.637832 -1.332672,-1.400926 -1.8125,-1.71875 l -0.84375,-0.59375 -4.71875,0 z m 10.9375,8.8125 c -3.933468,0.04293 -4.782995,0.123978 -5.28125,0.375 -1.178231,0.593564 -2.44551,1.921051 -4.65625,4.9375 L 12,31.78125 l 2.59375,0 c 2.408333,0 2.648943,-0.02857 3.34375,-0.4375 2.311867,-2.019594 3.31328,-3.721911 5.03125,-6.3125 z" transform="scale(0.28222223,0.28222223)" fill="#ffffff"/>
 </g>
 <path d="m 6.7733335,0.84666669 c -3.2733023,0 -5.92666681,2.65348021 -5.92666681,5.92666681 0,0.046723 -0.001075,0.094647 0,0.1411111 0.0742608,-3.2086195 2.70008781,-5.7855557 5.92666681,-5.7855557 3.2264196,0 5.8524055,2.5769362 5.9266665,5.7855557 0.0011,-0.046464 0,-0.094389 0,-0.1411111 0,-3.2731866 -2.653526,-5.92666681 -5.9266665,-5.92666681 z" opacity="0.2"/>
 <path d="M 0.84666669,6.7733318 C 0.84666669,10.046613 3.5000518,12.7 6.7733276,12.7 c 3.2731384,0 5.9266644,-2.653434 5.9266644,-5.9266682 l -11.85332531,0 z" opacity="0.05" fill="url(#3)"/>
 <path d="m 12.699992,6.7733315 c 0,-3.2732792 -2.653389,-5.92666626 -5.9266644,-5.92666626 -3.273137,0 -5.92666091,2.65343396 -5.92666091,5.92666626 l 11.85332531,0 z" opacity="0.05" fill="url(#2)"/>
</svg>
