<svg viewBox="0 0 48 48"><defs><linearGradient id="linearGradient3764" x1="1" x2="47" gradientUnits="userSpaceOnUse" gradientTransform="translate(-48.000001,0.00221467)"><stop stop-color="#e5e5e5" stop-opacity="1"/><stop offset="1" stop-color="#efefef" stop-opacity="1"/></linearGradient><clipPath id="clipPath-604557206"><g transform="translate(0,-1004.3622)"><rect rx="4" y="1005.36" x="1" height="46" width="46" fill="#1890d0"/></g></clipPath><clipPath id="clipPath-617722491"><g transform="translate(0,-1004.3622)"><rect rx="4" y="1005.36" x="1" height="46" width="46" fill="#1890d0"/></g></clipPath></defs><g><path d="m 1 43 l 0 0.25 c 0 2.216 1.784 4 4 4 l 38 0 c 2.216 0 4 -1.784 4 -4 l 0 -0.25 c 0 2.216 -1.784 4 -4 4 l -38 0 c -2.216 0 -4 -1.784 -4 -4 z m 0 0.5 l 0 0.5 c 0 2.216 1.784 4 4 4 l 38 0 c 2.216 0 4 -1.784 4 -4 l 0 -0.5 c 0 2.216 -1.784 4 -4 4 l -38 0 c -2.216 0 -4 -1.784 -4 -4 z" opacity="0.02"/><path d="m 1 43.25 l 0 0.25 c 0 2.216 1.784 4 4 4 l 38 0 c 2.216 0 4 -1.784 4 -4 l 0 -0.25 c 0 2.216 -1.784 4 -4 4 l -38 0 c -2.216 0 -4 -1.784 -4 -4 z" opacity="0.05"/><path d="m 1 43 l 0 0.25 c 0 2.216 1.784 4 4 4 l 38 0 c 2.216 0 4 -1.784 4 -4 l 0 -0.25 c 0 2.216 -1.784 4 -4 4 l -38 0 c -2.216 0 -4 -1.784 -4 -4 z" opacity="0.1"/></g><g><rect width="46" height="46" x="-47" y="1" rx="4" transform="matrix(0,-1,1,0,0,0)" fill="url(#linearGradient3764)" fill-opacity="1"/></g><g><g clip-path="url(#clipPath-604557206)"><g opacity="0.1"><!-- color: #efefef --><g><path d="m 31.699 27.02 c 3.035 -1.684 5.352 -2.973 5.563 -3.09 c 0.629 -0.348 1.285 -1.238 0 -1.953 c -0.414 -0.227 -2.668 -1.473 -5.566 -3.078 l -3.984 4.074 m 3.988 4.047" fill="#000"/><path d="m 27.711 22.969 l -12.742 13.02 c 0.285 0.035 0.633 -0.043 1.031 -0.262 c 0.824 -0.457 9.676 -5.371 15.699 -8.715 m -3.988 -4.047" fill="#000"/><path d="m 27.711 22.969 l 3.984 -4.074 c 0 0 -14.809 -8.195 -15.695 -8.684 c -0.34 -0.191 -0.711 -0.254 -1.043 -0.18 m 12.754 12.938" fill="#000"/><path d="m 27.711 22.969 l -12.754 -12.938 c -0.523 0.117 -0.957 0.582 -0.957 1.512 c 0 1.508 0 21.629 0 22.895 c 0 0.875 0.34 1.492 0.969 1.555 m 12.742 -13.02" fill="#000"/></g></g></g></g><g><g clip-path="url(#clipPath-617722491)"><g transform="translate(0,-1)"><!-- color: #efefef --><g><path d="m 31.699 27.02 c 3.035 -1.684 5.352 -2.973 5.563 -3.09 c 0.629 -0.348 1.285 -1.238 0 -1.953 c -0.414 -0.227 -2.668 -1.473 -5.566 -3.078 l -3.984 4.074 m 3.988 4.047" fill="#f9ab7d"/><path d="m 27.711 22.969 l -12.742 13.02 c 0.285 0.035 0.633 -0.043 1.031 -0.262 c 0.824 -0.457 9.676 -5.371 15.699 -8.715 m -3.988 -4.047" fill="#cf435a"/><path d="m 27.711 22.969 l 3.984 -4.074 c 0 0 -14.809 -8.195 -15.695 -8.684 c -0.34 -0.191 -0.711 -0.254 -1.043 -0.18 m 12.754 12.938" fill="#95deb2"/><path d="m 27.711 22.969 l -12.754 -12.938 c -0.523 0.117 -0.957 0.582 -0.957 1.512 c 0 1.508 0 21.629 0 22.895 c 0 0.875 0.34 1.492 0.969 1.555 m 12.742 -13.02" fill="#43a2ac"/></g></g></g></g><g><g transform="translate(0,-1004.3622)"><path d="m 1 1043.36 0 4 c 0 2.216 1.784 4 4 4 l 38 0 c 2.216 0 4 -1.784 4 -4 l 0 -4 c 0 2.216 -1.784 4 -4 4 l -38 0 c -2.216 0 -4 -1.784 -4 -4 z" opacity="0.1"/></g></g></svg>