<svg viewBox="0 0 48 48"><defs><linearGradient id="linearGradient3764" x1="1" x2="47" gradientUnits="userSpaceOnUse" gradientTransform="translate(-48.000001,0.00221467)"><stop stop-color="#f78f09" stop-opacity="1"/><stop offset="1" stop-color="#f7981d" stop-opacity="1"/></linearGradient><clipPath id="clipPath-683615787"><g transform="translate(0,-1004.3622)"><rect rx="4" y="1005.36" x="1" height="46" width="46" fill="#1890d0"/></g></clipPath><clipPath id="clipPath-697197122"><g transform="translate(0,-1004.3622)"><rect rx="4" y="1005.36" x="1" height="46" width="46" fill="#1890d0"/></g></clipPath></defs><g><path d="m 1 43 l 0 0.25 c 0 2.216 1.784 4 4 4 l 38 0 c 2.216 0 4 -1.784 4 -4 l 0 -0.25 c 0 2.216 -1.784 4 -4 4 l -38 0 c -2.216 0 -4 -1.784 -4 -4 z m 0 0.5 l 0 0.5 c 0 2.216 1.784 4 4 4 l 38 0 c 2.216 0 4 -1.784 4 -4 l 0 -0.5 c 0 2.216 -1.784 4 -4 4 l -38 0 c -2.216 0 -4 -1.784 -4 -4 z" opacity="0.02"/><path d="m 1 43.25 l 0 0.25 c 0 2.216 1.784 4 4 4 l 38 0 c 2.216 0 4 -1.784 4 -4 l 0 -0.25 c 0 2.216 -1.784 4 -4 4 l -38 0 c -2.216 0 -4 -1.784 -4 -4 z" opacity="0.05"/><path d="m 1 43 l 0 0.25 c 0 2.216 1.784 4 4 4 l 38 0 c 2.216 0 4 -1.784 4 -4 l 0 -0.25 c 0 2.216 -1.784 4 -4 4 l -38 0 c -2.216 0 -4 -1.784 -4 -4 z" opacity="0.1"/></g><g><rect width="46" height="46" x="-47" y="1" rx="4" transform="matrix(0,-1,1,0,0,0)" fill="url(#linearGradient3764)" fill-opacity="1"/></g><g><g clip-path="url(#clipPath-683615787)"><g opacity="0.1"><!-- color: #f7981d --><path d="m 36 11.06 -15 22.938 -10 -4 -8.594 1.906 c 0.368 1.01 -1.241 1.885 -2.406 3.094 l 0 13 c 0 0 17 0 48 0 l 0 -24 c -0.011 -0.725 0.036 -0.369 0 -1 z" fill="#000"/><g><path d="m 24 33 c 0 1.656 -1.344 3 -3 3 c -1.656 0 -3 -1.344 -3 -3 c 0 -1.656 1.344 -3 3 -3 c 1.656 0 3 1.344 3 3 m 0 0" fill="#000"/><path d="m 14 29 c 0 1.656 -1.344 3 -3 3 c -1.656 0 -3 -1.344 -3 -3 c 0 -1.656 1.344 -3 3 -3 c 1.656 0 3 1.344 3 3 m 0 0" fill="#000"/><path d="m 39 12 c 0 1.656 -1.344 3 -3 3 c -1.656 0 -3 -1.344 -3 -3 c 0 -1.656 1.344 -3 3 -3 c 1.656 0 3 1.344 3 3 m 0 0" fill="#000"/><path d="m 11 28 -11 5 c 0 0 0 2.731 0 3 l 11 -5 z" fill="#000"/><path d="m 11 28 l 10 4 l 0 2 l -10 -4 m 0 -2" fill="#000"/><path d="m 21 31 l 15 -21 l 0 4 l -15 21 m 0 -4" fill="#000"/><path d="m 36 10 0 4 12 10 c 0 -1 0 -2 0 -3 z" fill="#000"/></g></g></g></g><g><g clip-path="url(#clipPath-697197122)"><g transform="translate(0,-1)"><!-- color: #f7981d --><path d="m 36 11.06 -15 22.938 -10 -4 -8.594 1.906 c 0.368 1.01 -1.241 1.885 -2.406 3.094 l 0 13 c 0 0 17 0 48 0 l 0 -24 c -0.011 -0.725 0.036 -0.369 0 -1 z" fill="#f05722"/><g><path d="m 24 33 c 0 1.656 -1.344 3 -3 3 c -1.656 0 -3 -1.344 -3 -3 c 0 -1.656 1.344 -3 3 -3 c 1.656 0 3 1.344 3 3 m 0 0" fill="#f9f9f9"/><path d="m 14 29 c 0 1.656 -1.344 3 -3 3 c -1.656 0 -3 -1.344 -3 -3 c 0 -1.656 1.344 -3 3 -3 c 1.656 0 3 1.344 3 3 m 0 0" fill="#f9f9f9"/><path d="m 39 12 c 0 1.656 -1.344 3 -3 3 c -1.656 0 -3 -1.344 -3 -3 c 0 -1.656 1.344 -3 3 -3 c 1.656 0 3 1.344 3 3 m 0 0" fill="#f9f9f9"/><path d="m 11 28 -11 5 c 0 0 0 2.731 0 3 l 11 -5 z" fill="#f8f8f8"/><path d="m 11 28 l 10 4 l 0 2 l -10 -4 m 0 -2" fill="#f9f9f9"/><path d="m 21 31 l 15 -21 l 0 4 l -15 21 m 0 -4" fill="#f9f9f9"/><path d="m 36 10 0 4 12 10 c 0 -1 0 -2 0 -3 z" fill="#f8f8f8"/></g></g></g></g><g><g transform="translate(0,-1004.3622)"><path d="m 1 1043.36 0 4 c 0 2.216 1.784 4 4 4 l 38 0 c 2.216 0 4 -1.784 4 -4 l 0 -4 c 0 2.216 -1.784 4 -4 4 l -38 0 c -2.216 0 -4 -1.784 -4 -4 z" opacity="0.1"/></g></g></svg>