<svg viewBox="0 0 48 48"><defs><linearGradient id="linearGradient3764" x1="1" x2="47" gradientUnits="userSpaceOnUse" gradientTransform="translate(-48.000001,0.00221467)"><stop stop-color="#93849e" stop-opacity="1"/><stop offset="1" stop-color="#9d8fa7" stop-opacity="1"/></linearGradient><clipPath id="clipPath-502414051"><g transform="translate(0,-1004.3622)"><rect rx="4" y="1005.36" x="1" height="46" width="46" fill="#1890d0"/></g></clipPath><clipPath id="clipPath-516078834"><g transform="translate(0,-1004.3622)"><rect rx="4" y="1005.36" x="1" height="46" width="46" fill="#1890d0"/></g></clipPath></defs><g><path d="m 1 43 l 0 0.25 c 0 2.216 1.784 4 4 4 l 38 0 c 2.216 0 4 -1.784 4 -4 l 0 -0.25 c 0 2.216 -1.784 4 -4 4 l -38 0 c -2.216 0 -4 -1.784 -4 -4 z m 0 0.5 l 0 0.5 c 0 2.216 1.784 4 4 4 l 38 0 c 2.216 0 4 -1.784 4 -4 l 0 -0.5 c 0 2.216 -1.784 4 -4 4 l -38 0 c -2.216 0 -4 -1.784 -4 -4 z" opacity="0.02"/><path d="m 1 43.25 l 0 0.25 c 0 2.216 1.784 4 4 4 l 38 0 c 2.216 0 4 -1.784 4 -4 l 0 -0.25 c 0 2.216 -1.784 4 -4 4 l -38 0 c -2.216 0 -4 -1.784 -4 -4 z" opacity="0.05"/><path d="m 1 43 l 0 0.25 c 0 2.216 1.784 4 4 4 l 38 0 c 2.216 0 4 -1.784 4 -4 l 0 -0.25 c 0 2.216 -1.784 4 -4 4 l -38 0 c -2.216 0 -4 -1.784 -4 -4 z" opacity="0.1"/></g><g><rect width="46" height="46" x="-47" y="1" rx="4" transform="matrix(0,-1,1,0,0,0)" fill="url(#linearGradient3764)" fill-opacity="1"/></g><g><g clip-path="url(#clipPath-502414051)"><g opacity="0.1"><!-- color: #9d8fa7 --><path d="m 13 12 c -0.332 0 -1 0.563 -1 1 l 0 13 c 0 0.465 0.332 0.996 1 1 l 2.031 0 0 1.531 0.379 1.469 1.406 1.281 1.492 1.406 1.234 0.164 1.531 0 -0.043 -1.01 c 0 0.449 0 0.891 0.031 1 0.125 0.445 0.656 0.996 1.094 1.125 0.098 0.027 2.758 0.035 6.438 0.031 l 6.281 0 0.219 -0.125 c 0.293 -0.156 -1.375 1.512 -1.219 1.219 l 0.125 -0.219 0 -12.719 -0.125 -0.219 c -0.156 -0.293 1.512 1.375 1.219 1.219 l -0.219 -0.125 -3.938 0 l -3.906 -0.031 -0.031 -10 c 0 -0.387 -0.063 -1 -1 -1 z m 4.777 15 3.254 0 0 1.5 l -0.031 1.754 l -1.5 0 l -1.723 -0.254 z m 0 0" fill="#000"/><path d="m 15.262 23.539 c -0.203 -0.234 -0.371 -0.441 -0.371 -0.461 -0.004 -0.02 0.188 -0.113 0.422 -0.211 0.922 -0.375 1.824 -0.91 2.891 -1.703 0.25 -0.188 0.457 -0.367 0.457 -0.398 0 -0.031 -0.063 -0.113 -0.137 -0.188 -0.273 -0.25 -0.957 -1.098 -1.242 -1.535 -0.277 -0.426 -0.711 -1.281 -0.711 -1.402 0 -0.039 0.23 -0.059 0.711 -0.059 l 0.711 0 0.188 0.414 c 0.223 0.5 0.684 1.211 1.07 1.648 0.156 0.18 0.305 0.328 0.324 0.34 0.047 0.016 0.559 -0.551 0.891 -0.992 0.516 -0.684 0.984 -1.859 0.984 -2.465 l 0 -0.527 -6.449 0 0 -1 1.734 0.012 2.266 -0.012 l 0 -1 1 0 0 1 4 0.012 0 0.988 -1.258 0 -0.035 0.605 c -0.137 1.227 -0.891 2.621 -2.098 3.875 l -0.238 0.246 0.23 0.188 c 0.129 0.105 0.371 0.281 0.539 0.391 0.168 0.113 0.309 0.215 0.309 0.227 0 0.012 -0.059 0.102 -0.133 0.199 -0.152 0.195 -0.297 0.57 -0.297 0.762 0 0.07 -0.016 0.129 -0.031 0.129 -0.02 0 -0.309 -0.211 -0.648 -0.469 c -0.34 -0.258 -0.664 -0.504 -0.719 -0.543 c -0.117 -0.086 -0.023 -0.141 -0.922 0.539 -0.336 0.258 -0.887 0.641 -1.219 0.848 -0.594 0.367 -1.711 0.965 -1.805 0.965 -0.027 0 -0.215 -0.191 -0.414 -0.422 z m 0 0" fill="#000"/><path d="m 20.809 22.508 -0.129 -0.109 0.496 -0.496 -0.074 0.211 c -0.043 0.117 -0.078 0.277 -0.078 0.359 -0.004 0.176 -0.039 0.18 -0.215 0.035 z m 0 0" fill="#000"/><path d="m 22 36 c -0.438 -0.129 -0.875 -0.555 -1 -1 -0.031 -0.109 0.02 -0.719 0.02 -1.168 l 0 -0.816 -2.977 0 l -1.512 -1.516 l -1.516 -1.512 0 -2.973 -1.098 0 2.602 -2.602 1.297 1.301 1.301 1.301 -1.098 0 0 3 2.98 0 l 0 -8.02 c 0 -0.68 0.344 -1 1 -1 l 13 0 c 0.633 0 1 0.473 1 1 l 0 13 c 0 0.48 -0.434 1 -1 1 z m 4.75 -6 3.5 0 0.75 2 1 0 -3 -8 -1 0 -3 8 1 0 z m 0.25 -1 1.539 -4 1.461 4 z m 0 0" fill="#000"/></g></g></g><g><g clip-path="url(#clipPath-516078834)"><g transform="translate(0,-1)"><!-- color: #9d8fa7 --><path d="m 13 12 c -0.332 0 -1 0.563 -1 1 l 0 13 c 0 0.465 0.332 0.996 1 1 l 2.031 0 0 1.531 0.379 1.469 1.406 1.281 1.492 1.406 1.234 0.164 1.531 0 -0.043 -1.01 c 0 0.449 0 0.891 0.031 1 0.125 0.445 0.656 0.996 1.094 1.125 0.098 0.027 2.758 0.035 6.438 0.031 l 6.281 0 0.219 -0.125 c 0.293 -0.156 -1.375 1.512 -1.219 1.219 l 0.125 -0.219 0 -12.719 -0.125 -0.219 c -0.156 -0.293 1.512 1.375 1.219 1.219 l -0.219 -0.125 -3.938 0 l -3.906 -0.031 -0.031 -10 c 0 -0.387 -0.063 -1 -1 -1 z m 4.777 15 3.254 0 0 1.5 l -0.031 1.754 l -1.5 0 l -1.723 -0.254 z m 0 0" fill="#f1ede5"/><path d="m 15.262 23.539 c -0.203 -0.234 -0.371 -0.441 -0.371 -0.461 -0.004 -0.02 0.188 -0.113 0.422 -0.211 0.922 -0.375 1.824 -0.91 2.891 -1.703 0.25 -0.188 0.457 -0.367 0.457 -0.398 0 -0.031 -0.063 -0.113 -0.137 -0.188 -0.273 -0.25 -0.957 -1.098 -1.242 -1.535 -0.277 -0.426 -0.711 -1.281 -0.711 -1.402 0 -0.039 0.23 -0.059 0.711 -0.059 l 0.711 0 0.188 0.414 c 0.223 0.5 0.684 1.211 1.07 1.648 0.156 0.18 0.305 0.328 0.324 0.34 0.047 0.016 0.559 -0.551 0.891 -0.992 0.516 -0.684 0.984 -1.859 0.984 -2.465 l 0 -0.527 -6.449 0 0 -1 1.734 0.012 2.266 -0.012 l 0 -1 1 0 0 1 4 0.012 0 0.988 -1.258 0 -0.035 0.605 c -0.137 1.227 -0.891 2.621 -2.098 3.875 l -0.238 0.246 0.23 0.188 c 0.129 0.105 0.371 0.281 0.539 0.391 0.168 0.113 0.309 0.215 0.309 0.227 0 0.012 -0.059 0.102 -0.133 0.199 -0.152 0.195 -0.297 0.57 -0.297 0.762 0 0.07 -0.016 0.129 -0.031 0.129 -0.02 0 -0.309 -0.211 -0.648 -0.469 c -0.34 -0.258 -0.664 -0.504 -0.719 -0.543 c -0.117 -0.086 -0.023 -0.141 -0.922 0.539 -0.336 0.258 -0.887 0.641 -1.219 0.848 -0.594 0.367 -1.711 0.965 -1.805 0.965 -0.027 0 -0.215 -0.191 -0.414 -0.422 z m 0 0" fill="#545452"/><path d="m 20.809 22.508 -0.129 -0.109 0.496 -0.496 -0.074 0.211 c -0.043 0.117 -0.078 0.277 -0.078 0.359 -0.004 0.176 -0.039 0.18 -0.215 0.035 z m 0 0" fill="#53534d"/><path d="m 22 36 c -0.438 -0.129 -0.875 -0.555 -1 -1 -0.031 -0.109 0.02 -0.719 0.02 -1.168 l 0 -0.816 -2.977 0 l -1.512 -1.516 l -1.516 -1.512 0 -2.973 -1.098 0 2.602 -2.602 1.297 1.301 1.301 1.301 -1.098 0 0 3 2.98 0 l 0 -8.02 c 0 -0.68 0.344 -1 1 -1 l 13 0 c 0.633 0 1 0.473 1 1 l 0 13 c 0 0.48 -0.434 1 -1 1 z m 4.75 -6 3.5 0 0.75 2 1 0 -3 -8 -1 0 -3 8 1 0 z m 0.25 -1 1.539 -4 1.461 4 z m 0 0" fill="#367ff3"/></g></g></g><g><g transform="translate(0,-1004.3622)"><path d="m 1 1043.36 0 4 c 0 2.216 1.784 4 4 4 l 38 0 c 2.216 0 4 -1.784 4 -4 l 0 -4 c 0 2.216 -1.784 4 -4 4 l -38 0 c -2.216 0 -4 -1.784 -4 -4 z" opacity="0.1"/></g></g></svg>