<svg viewBox="0 0 48 48"><defs><linearGradient id="linearGradient3764" x1="1" x2="47" gradientUnits="userSpaceOnUse" gradientTransform="translate(-48.000001,0.00221467)"><stop stop-color="#567caa" stop-opacity="1"/><stop offset="1" stop-color="#6386b1" stop-opacity="1"/></linearGradient><clipPath id="clipPath-944082281"><g transform="translate(0,-1004.3622)"><rect rx="4" y="1005.36" x="1" height="46" width="46" fill="#1890d0"/></g></clipPath><clipPath id="clipPath-956558463"><g transform="translate(0,-1004.3622)"><rect rx="4" y="1005.36" x="1" height="46" width="46" fill="#1890d0"/></g></clipPath></defs><g><path d="m 1 43 l 0 0.25 c 0 2.216 1.784 4 4 4 l 38 0 c 2.216 0 4 -1.784 4 -4 l 0 -0.25 c 0 2.216 -1.784 4 -4 4 l -38 0 c -2.216 0 -4 -1.784 -4 -4 z m 0 0.5 l 0 0.5 c 0 2.216 1.784 4 4 4 l 38 0 c 2.216 0 4 -1.784 4 -4 l 0 -0.5 c 0 2.216 -1.784 4 -4 4 l -38 0 c -2.216 0 -4 -1.784 -4 -4 z" opacity="0.02"/><path d="m 1 43.25 l 0 0.25 c 0 2.216 1.784 4 4 4 l 38 0 c 2.216 0 4 -1.784 4 -4 l 0 -0.25 c 0 2.216 -1.784 4 -4 4 l -38 0 c -2.216 0 -4 -1.784 -4 -4 z" opacity="0.05"/><path d="m 1 43 l 0 0.25 c 0 2.216 1.784 4 4 4 l 38 0 c 2.216 0 4 -1.784 4 -4 l 0 -0.25 c 0 2.216 -1.784 4 -4 4 l -38 0 c -2.216 0 -4 -1.784 -4 -4 z" opacity="0.1"/></g><g><rect width="46" height="46" x="-47" y="1" rx="4" transform="matrix(0,-1,1,0,0,0)" fill="url(#linearGradient3764)" fill-opacity="1"/></g><g><g clip-path="url(#clipPath-944082281)"><g opacity="0.1"><!-- color: #6386b1 --><g><path d="m 24 12 l 0 12 l -12 -6 m 12 -6" fill="#000"/><path d="m 24 12 l 0 12 l 12 -6 m -12 -6" fill="#000"/><path d="m 24 24 l -12 6 l 0 -12 m 12 6" fill="#000"/><path d="m 24 24 l -12 6 l 12 6 m 0 -12" fill="#000"/><path d="m 24 24 l 12 6 l 0 -12 m -12 6" fill="#000"/><path d="m 24 24 l 12 6 l -12 6 m 0 -12" fill="#000"/></g></g></g></g><g><g clip-path="url(#clipPath-956558463)"><g transform="translate(0,-1)"><!-- color: #6386b1 --><g><path d="m 24 12 l 0 12 l -12 -6 m 12 -6" fill="#e5d063"/><path d="m 24 12 l 0 12 l 12 -6 m -12 -6" fill="#f5db76"/><path d="m 24 24 l -12 6 l 0 -12 m 12 6" fill="#669ec9"/><path d="m 24 24 l -12 6 l 12 6 m 0 -12" fill="#286aa3"/><path d="m 24 24 l 12 6 l 0 -12 m -12 6" fill="#dd9dc7"/><path d="m 24 24 l 12 6 l -12 6 m 0 -12" fill="#e478ab"/></g></g></g></g><g><g transform="translate(0,-1004.3622)"><path d="m 1 1043.36 0 4 c 0 2.216 1.784 4 4 4 l 38 0 c 2.216 0 4 -1.784 4 -4 l 0 -4 c 0 2.216 -1.784 4 -4 4 l -38 0 c -2.216 0 -4 -1.784 -4 -4 z" opacity="0.1"/></g></g></svg>