<svg xmlns="http://www.w3.org/2000/svg" xmlns:xlink="http://www.w3.org/1999/xlink" width="48" viewBox="0 0 13.546667 13.546667" height="48">
 <defs>
  <clipPath>
   <path d="M 92.311,355.545 L 479.511,355.545 L 479.511,68.1846 L 92.311,68.1846 L 92.311,355.545 z"/>
  </clipPath>
  <clipPath>
   <path d="M 93.311,69.185 L 478.511,69.185 L 478.511,354.545 L 93.311,354.545 L 93.311,69.185 z"/>
  </clipPath>
  <clipPath>
   <path d="M 93.311,354.545 L 478.511,354.545 L 478.511,69.1846 L 93.311,69.1846 L 93.311,354.545 z"/>
  </clipPath>
  <clipPath>
   <path d="M 95.311,352.545 L 476.403,352.545 L 476.403,71.4229 L 95.311,71.4229 L 95.311,352.545 z"/>
  </clipPath>
  <clipPath>
   <rect height="96" x="-100" width="96" fill="#fff"/>
  </clipPath>
  <clipPath>
   <path d="M 54.1,12.5 12.9,54.7 C -2.7,70.3 23,69 32.3,74.9 36.6,77.7 18.5,81.3 22.2,85 c 3.6,3.7 21.7,7.1 25.3,10.7 3.6,3.7 -7.3,7.6 -3.7,11.3 3.5,3.7 11.9,0.2 13.4,8.6 1.1,6.2 15.4,3.1 21.8,-2.2 4,-3.4 -6.9,-3.4 -3.3,-7.1 9,-9.1 17,-4.1 20.3,-12.5 1.8,-4.5 -13.6,-7.7 -9.5,-10.6 9.8,-6.9 45.8,-10.4 29.2,-27 L 73,12.5 c -5.3,-5 -14,-5 -18.9,0 z m -9.9,64.7 c 0.9,0 30.8,4 19.3,7.1 -4.4,1.2 -24.6,-7.1 -19.3,-7.1 z m 57.2,16.6 c 0,2.1 16.3,3.3 15.4,-0.5 -1.3,-6.4 -13.6,-5.9 -15.4,0.5 z m -69.5,11.1 c 3.7,3.2 9.3,-0.7 11.1,-5.2 -3.6,-4.7 -16.9,0.3 -11.1,5.2 z m 67.5,-6.7 c -4.6,4.2 0.8,8.6 5.3,5.7 1.2,-0.8 -0.1,-4.7 -5.3,-5.7 z"/>
  </clipPath>
  <clipPath>
   <rect height="84" rx="6" y="6" x="6" width="84" fill="#fff"/>
  </clipPath>
  <clipPath>
   <rect height="20" rx="2" y="1" x="1" width="20" fill="#fff" fill-rule="evenodd"/>
  </clipPath>
  <clipPath>
   <path d="M -670.14006,51.863192 L -114.61564,405.00326 L -257.11075,510.32573 L -514.2215,-71.013029 L -670.14006,51.863192 z"/>
  </clipPath>
  <clipPath>
   <rect height="96" x="-100" width="96" fill="#fff"/>
  </clipPath>
  <clipPath>
   <rect height="84" rx="6" y="6" x="6" width="84" fill="#fff"/>
  </clipPath>
  <clipPath>
   <rect height="20" rx="2" y="1" x="1" width="20" fill="#fff" fill-rule="evenodd"/>
  </clipPath>
  <linearGradient xlink:href="#1" id="0" gradientUnits="userSpaceOnUse" y1="24" x2="0" y2="48" gradientTransform="matrix(0.28222223,0,0,0.28222223,6.7399158e-7,-6.3183333e-6)"/>
  <linearGradient id="1">
   <stop stop-color="#ffffff"/>
   <stop offset="1" stop-color="#ffffff" stop-opacity="0"/>
  </linearGradient>
  <linearGradient xlink:href="#3" id="2" y1="24" x2="0" y2="48" gradientUnits="userSpaceOnUse" gradientTransform="matrix(-0.28222223,0,0,-0.28222223,13.546659,13.546666)"/>
  <linearGradient id="3">
   <stop/>
   <stop offset="1" stop-opacity="0"/>
  </linearGradient>
 </defs>
 <g>
  <rect width="12.982" x="0.282" y="0.564" rx="6.491" height="12.982" opacity="0.18" fill-rule="evenodd"/>
  <rect height="12.982" rx="6.491" y="0.282" x="0.282" width="12.982" fill="#f9f9f9" fill-rule="evenodd"/>
 </g>
 <g>
  <path d="m 12.699999,6.7734035 c 0,-3.2731866 -2.653456,-5.92673568 -5.9265966,-5.92673568 -3.2733024,0 -5.92673568,2.65354908 -5.92673568,5.92673568 0,3.2732795 2.65345638,5.9265965 5.92673568,5.9265965 3.2731406,0 5.9265966,-2.653364 5.9265966,-5.9265965 z" fill="#fce6a4"/>
  <path d="m 12.877657,24.757399 3.559678,-3.559677 15.599763,-0.628179 0.942268,6.281784 -2.722106,4.816035 -4.606642,4.501945 -6.281784,-1.151661 -3.245588,-2.408017 -2.303321,-2.826803 z" transform="scale(0.28222223,0.28222223)" fill="#f9f9f9"/>
 </g>
 <g>
  <path d="M 6.2602574,10.410535 C 4.7504264,10.13677 3.5829567,8.9807199 3.4047507,7.5829459 c -0.052689,-0.412853 0.011875,-0.96288 0.1660615,-1.416428 0.6042817,-1.777185 2.6808133,-3.027421 5.0831312,-3.060442 0.2604933,-0.0036 0.4394477,-0.0011 0.3976853,0.0056 -0.7430678,1.2279977 -0.6294805,1.9343743 0.497044,2.4988188 0.3239796,0.2461368 0.3151409,0.2838725 0.4631423,0.5865132 0.215371,0.7391078 0.165874,1.4788637 0.04161,2.116372 C 9.7682955,9.3494779 8.9173516,10.098015 7.7067325,10.37765 7.4113724,10.44588 6.5617257,10.46519 6.2602884,10.41053 z M 7.3295025,9.3133336 4.7948224,9.0311113 7.0478713,9.877778 z M 7.2330956,8.3634279 c 0.5933945,-0.152789 1.1483697,-0.888371 1.458419,-1.933034 0.07155,-0.241066 0.081629,-0.34035 0.032731,-0.321817 -0.033031,0.0125 -1.3384209,0.941889 -1.9775794,1.40793 -0.6533287,0.476377 -0.8320237,0.612735 -0.8320237,0.634896 0,0.05267 0.4320532,0.213895 0.6753825,0.252033 0.1713903,0.02686 0.4508936,0.0095 0.6430703,-0.040008 z M 5.0699557,8.2225249 c 0.081329,-0.01722 0.1277219,-0.03957 0.1228621,-0.05916 -0.015767,-0.0637 -1.2938344,-1.209346 -1.3267154,-1.189281 -0.045005,0.02746 0.072248,0.458971 0.1849618,0.680825 0.2512826,0.494535 0.5577394,0.665256 1.0188915,0.567616 z" fill="#e36e64"/>
 </g>
 <g>
  <path d="m 6.7733335,0.84666669 c -3.2733023,0 -5.92666681,2.65348021 -5.92666681,5.92666681 0,0.046723 -0.001075,0.094647 0,0.1411111 0.0742608,-3.2086195 2.70008781,-5.7855557 5.92666681,-5.7855557 3.2264196,0 5.8524055,2.5769362 5.9266665,5.7855557 0.0011,-0.046464 0,-0.094389 0,-0.1411111 0,-3.2731866 -2.653526,-5.92666681 -5.9266665,-5.92666681 z" opacity="0.2"/>
  <path d="M 0.84666669,6.7733318 C 0.84666669,10.046613 3.5000518,12.7 6.7733276,12.7 c 3.2731384,0 5.9266644,-2.653434 5.9266644,-5.9266682 l -11.85332531,0 z" opacity="0.05" fill="url(#0)"/>
  <path d="m 12.699992,6.7733315 c 0,-3.2732792 -2.653389,-5.92666626 -5.9266644,-5.92666626 -3.273137,0 -5.92666091,2.65343396 -5.92666091,5.92666626 l 11.85332531,0 z" opacity="0.05" fill="url(#2)"/>
 </g>
</svg>
