<svg viewBox="0 0 48 48"><defs><linearGradient id="linearGradient3764" x1="1" x2="47" gradientUnits="userSpaceOnUse" gradientTransform="translate(-48.000001,0.00221467)"><stop stop-color="#e04c7d" stop-opacity="1"/><stop offset="1" stop-color="#e35d89" stop-opacity="1"/></linearGradient><clipPath id="clipPath-395696258"><g transform="translate(0,-1004.3622)"><rect rx="4" y="1005.36" x="1" height="46" width="46" fill="#1890d0"/></g></clipPath><clipPath id="clipPath-408839399"><g transform="translate(0,-1004.3622)"><rect rx="4" y="1005.36" x="1" height="46" width="46" fill="#1890d0"/></g></clipPath></defs><g><path d="m 1 43 l 0 0.25 c 0 2.216 1.784 4 4 4 l 38 0 c 2.216 0 4 -1.784 4 -4 l 0 -0.25 c 0 2.216 -1.784 4 -4 4 l -38 0 c -2.216 0 -4 -1.784 -4 -4 z m 0 0.5 l 0 0.5 c 0 2.216 1.784 4 4 4 l 38 0 c 2.216 0 4 -1.784 4 -4 l 0 -0.5 c 0 2.216 -1.784 4 -4 4 l -38 0 c -2.216 0 -4 -1.784 -4 -4 z" opacity="0.02"/><path d="m 1 43.25 l 0 0.25 c 0 2.216 1.784 4 4 4 l 38 0 c 2.216 0 4 -1.784 4 -4 l 0 -0.25 c 0 2.216 -1.784 4 -4 4 l -38 0 c -2.216 0 -4 -1.784 -4 -4 z" opacity="0.05"/><path d="m 1 43 l 0 0.25 c 0 2.216 1.784 4 4 4 l 38 0 c 2.216 0 4 -1.784 4 -4 l 0 -0.25 c 0 2.216 -1.784 4 -4 4 l -38 0 c -2.216 0 -4 -1.784 -4 -4 z" opacity="0.1"/></g><g><rect width="46" height="46" x="-47" y="1" rx="4" transform="matrix(0,-1,1,0,0,0)" fill="url(#linearGradient3764)" fill-opacity="1"/></g><g><g clip-path="url(#clipPath-395696258)"><g opacity="0.1"><!-- color: #e35d89 --><g><path d="m 24.06 16.219 l 0.125 0.5 c 0.066 0.277 0.332 1.07 0.563 1.75 c 0.23 0.68 0.371 1.219 0.344 1.219 c 1.906 3.313 1.27 2.223 1.875 3.281 c 2.918 0.008 6.04 0.02 9.03 0.031 l 0 -0.031 l -0.719 -0.469 c -0.406 -0.277 -1.586 -1.273 -2.625 -2.219 c -2.23 -2.023 -3.402 -2.949 -4.625 -3.594 c -0.758 -0.402 -1.145 -0.469 -2.438 -0.469 m -2.656 8.844 c 0.023 -0.023 -1.777 2.973 -2.156 3.969 c -0.289 0.754 -0.586 1.684 -0.656 2.063 l -0.125 0.688 l 3.406 0 c 2.617 0 3.59 -0.07 4.094 -0.281 c 0.992 -0.414 2.668 -1.668 5 -3.75 c 1.156 -1.031 2.367 -2.07 2.719 -2.281 l 0.656 -0.375 l -2.469 -0.063 c -0.68 -0.016 -2 0 -3.594 0 c -2.441 -0.004 -4.68 -0.016 -6.875 0.031 m 0 0" fill="#000"/><path d="m 12.03 16.219 l 1.188 1.594 c 2.383 3.176 3.707 4.48 5.094 4.969 c 0.34 0.121 3.484 0.176 8.656 0.188 c -0.844 -1.48 -1.895 -3.309 -2.844 -4.438 c -0.512 -0.637 -1.332 -1.402 -1.813 -1.719 l -0.844 -0.594 m 1.5 8.813 c -3.934 0.043 -4.781 0.125 -5.281 0.375 c -1.18 0.594 -2.445 1.922 -4.656 4.938 l -1.031 1.438 l 2.594 0 c 2.41 0 2.648 -0.027 3.344 -0.438 c 2.313 -2.02 3.313 -3.723 5.03 -6.313 m 0 0" fill="#000"/></g></g></g></g><g><g clip-path="url(#clipPath-408839399)"><g transform="translate(0,-1)"><!-- color: #e35d89 --><g><path d="m 24.06 16.219 l 0.125 0.5 c 0.066 0.277 0.332 1.07 0.563 1.75 c 0.23 0.68 0.371 1.219 0.344 1.219 c 1.906 3.313 1.27 2.223 1.875 3.281 c 2.918 0.008 6.04 0.02 9.03 0.031 l 0 -0.031 l -0.719 -0.469 c -0.406 -0.277 -1.586 -1.273 -2.625 -2.219 c -2.23 -2.023 -3.402 -2.949 -4.625 -3.594 c -0.758 -0.402 -1.145 -0.469 -2.438 -0.469 m -2.656 8.844 c 0.023 -0.023 -1.777 2.973 -2.156 3.969 c -0.289 0.754 -0.586 1.684 -0.656 2.063 l -0.125 0.688 l 3.406 0 c 2.617 0 3.59 -0.07 4.094 -0.281 c 0.992 -0.414 2.668 -1.668 5 -3.75 c 1.156 -1.031 2.367 -2.07 2.719 -2.281 l 0.656 -0.375 l -2.469 -0.063 c -0.68 -0.016 -2 0 -3.594 0 c -2.441 -0.004 -4.68 -0.016 -6.875 0.031 m 0 0" fill="#f4bfcf"/><path d="m 12.03 16.219 l 1.188 1.594 c 2.383 3.176 3.707 4.48 5.094 4.969 c 0.34 0.121 3.484 0.176 8.656 0.188 c -0.844 -1.48 -1.895 -3.309 -2.844 -4.438 c -0.512 -0.637 -1.332 -1.402 -1.813 -1.719 l -0.844 -0.594 m 1.5 8.813 c -3.934 0.043 -4.781 0.125 -5.281 0.375 c -1.18 0.594 -2.445 1.922 -4.656 4.938 l -1.031 1.438 l 2.594 0 c 2.41 0 2.648 -0.027 3.344 -0.438 c 2.313 -2.02 3.313 -3.723 5.03 -6.313 m 0 0" fill="#fff"/></g></g></g></g><g><g transform="translate(0,-1004.3622)"><path d="m 1 1043.36 0 4 c 0 2.216 1.784 4 4 4 l 38 0 c 2.216 0 4 -1.784 4 -4 l 0 -4 c 0 2.216 -1.784 4 -4 4 l -38 0 c -2.216 0 -4 -1.784 -4 -4 z" opacity="0.1"/></g></g></svg>