<svg viewBox="0 0 48 48"><defs><linearGradient id="linearGradient3764" x1="1" x2="47" gradientUnits="userSpaceOnUse" gradientTransform="translate(-48.000001,0.00221467)"><stop stop-color="#e5e5e5" stop-opacity="1"/><stop offset="1" stop-color="#efefef" stop-opacity="1"/></linearGradient><clipPath id="clipPath-589683581"><g transform="translate(0,-1004.3622)"><rect rx="4" y="1005.36" x="1" height="46" width="46" fill="#1890d0"/></g></clipPath><clipPath id="clipPath-602628441"><g transform="translate(0,-1004.3622)"><rect rx="4" y="1005.36" x="1" height="46" width="46" fill="#1890d0"/></g></clipPath></defs><g><path d="m 1 43 l 0 0.25 c 0 2.216 1.784 4 4 4 l 38 0 c 2.216 0 4 -1.784 4 -4 l 0 -0.25 c 0 2.216 -1.784 4 -4 4 l -38 0 c -2.216 0 -4 -1.784 -4 -4 z m 0 0.5 l 0 0.5 c 0 2.216 1.784 4 4 4 l 38 0 c 2.216 0 4 -1.784 4 -4 l 0 -0.5 c 0 2.216 -1.784 4 -4 4 l -38 0 c -2.216 0 -4 -1.784 -4 -4 z" opacity="0.02"/><path d="m 1 43.25 l 0 0.25 c 0 2.216 1.784 4 4 4 l 38 0 c 2.216 0 4 -1.784 4 -4 l 0 -0.25 c 0 2.216 -1.784 4 -4 4 l -38 0 c -2.216 0 -4 -1.784 -4 -4 z" opacity="0.05"/><path d="m 1 43 l 0 0.25 c 0 2.216 1.784 4 4 4 l 38 0 c 2.216 0 4 -1.784 4 -4 l 0 -0.25 c 0 2.216 -1.784 4 -4 4 l -38 0 c -2.216 0 -4 -1.784 -4 -4 z" opacity="0.1"/></g><g><rect width="46" height="46" x="-47" y="1" rx="4" transform="matrix(0,-1,1,0,0,0)" fill="url(#linearGradient3764)" fill-opacity="1"/></g><g><g clip-path="url(#clipPath-589683581)"><g opacity="0.1"><!-- color: #efefef --><g><path d="m 24 15 c -0.844 0 -1.715 0.09 -2.563 0.25 c -1.664 0.316 -3.246 0.969 -4.75 1.781 c -2.348 1.273 -4.504 3.03 -6.375 5 c -0.344 0.363 -0.684 0.73 -1 1.125 c -0.418 0.527 -0.418 1.16 0 1.688 c 0.961 1.203 2.094 2.27 3.25 3.25 c 2.496 2.109 5.352 3.883 8.5 4.594 c 0.977 0.219 1.961 0.313 2.938 0.313 c 0.992 0 1.965 -0.094 2.938 -0.313 c 3.152 -0.711 6.01 -2.484 8.5 -4.594 c 1.16 -0.98 2.293 -2.047 3.25 -3.25 c 0.422 -0.527 0.422 -1.16 0 -1.688 c -0.313 -0.395 -0.652 -0.762 -1 -1.125 c -1.867 -1.969 -4.02 -3.727 -6.375 -5 c -1.5 -0.813 -3.113 -1.465 -4.781 -1.781 c -0.844 -0.16 -1.66 -0.25 -2.531 -0.25 m 0 2 c 3.867 0 7 3.133 7 7 c 0 3.867 -3.133 7 -7 7 c -3.863 0 -7 -3.133 -7 -7 c 0 -3.867 3.137 -7 7 -7 m 0 0" fill="#000"/><path d="m 29 24 c 0 2.762 -2.238 4.996 -5 4.996 c -2.758 0 -4.996 -2.234 -5 -4.996 c 0 -2.762 2.238 -5 5 -5 c 2.766 0 5 2.242 5 5 m 0 0" fill="#000"/></g></g></g></g><g><g clip-path="url(#clipPath-602628441)"><g transform="translate(0,-1)"><!-- color: #efefef --><g><path d="m 24 15 c -0.844 0 -1.715 0.09 -2.563 0.25 c -1.664 0.316 -3.246 0.969 -4.75 1.781 c -2.348 1.273 -4.504 3.03 -6.375 5 c -0.344 0.363 -0.684 0.73 -1 1.125 c -0.418 0.527 -0.418 1.16 0 1.688 c 0.961 1.203 2.094 2.27 3.25 3.25 c 2.496 2.109 5.352 3.883 8.5 4.594 c 0.977 0.219 1.961 0.313 2.938 0.313 c 0.992 0 1.965 -0.094 2.938 -0.313 c 3.152 -0.711 6.01 -2.484 8.5 -4.594 c 1.16 -0.98 2.293 -2.047 3.25 -3.25 c 0.422 -0.527 0.422 -1.16 0 -1.688 c -0.313 -0.395 -0.652 -0.762 -1 -1.125 c -1.867 -1.969 -4.02 -3.727 -6.375 -5 c -1.5 -0.813 -3.113 -1.465 -4.781 -1.781 c -0.844 -0.16 -1.66 -0.25 -2.531 -0.25 m 0 2 c 3.867 0 7 3.133 7 7 c 0 3.867 -3.133 7 -7 7 c -3.863 0 -7 -3.133 -7 -7 c 0 -3.867 3.137 -7 7 -7 m 0 0" fill="#4ca2df"/><path d="m 29 24 c 0 2.762 -2.238 4.996 -5 4.996 c -2.758 0 -4.996 -2.234 -5 -4.996 c 0 -2.762 2.238 -5 5 -5 c 2.766 0 5 2.242 5 5 m 0 0" fill="#ffd843"/></g></g></g></g><g><g transform="translate(0,-1004.3622)"><path d="m 1 1043.36 0 4 c 0 2.216 1.784 4 4 4 l 38 0 c 2.216 0 4 -1.784 4 -4 l 0 -4 c 0 2.216 -1.784 4 -4 4 l -38 0 c -2.216 0 -4 -1.784 -4 -4 z" opacity="0.1"/></g></g></svg>