<svg viewBox="0 0 48 48"><defs><linearGradient id="linearGradient3764" x1="1" x2="47" gradientUnits="userSpaceOnUse" gradientTransform="translate(-48.000001,0.00221467)"><stop stop-color="#83d456" stop-opacity="1"/><stop offset="1" stop-color="#8dd866" stop-opacity="1"/></linearGradient><clipPath id="clipPath-305602903"><g transform="translate(0,-1004.3622)"><rect rx="4" y="1005.36" x="1" height="46" width="46" fill="#1890d0"/></g></clipPath><clipPath id="clipPath-335118123"><g transform="translate(0,-1004.3622)"><rect rx="4" y="1005.36" x="1" height="46" width="46" fill="#1890d0"/></g></clipPath></defs><g><path d="m 1 43 l 0 0.25 c 0 2.216 1.784 4 4 4 l 38 0 c 2.216 0 4 -1.784 4 -4 l 0 -0.25 c 0 2.216 -1.784 4 -4 4 l -38 0 c -2.216 0 -4 -1.784 -4 -4 z m 0 0.5 l 0 0.5 c 0 2.216 1.784 4 4 4 l 38 0 c 2.216 0 4 -1.784 4 -4 l 0 -0.5 c 0 2.216 -1.784 4 -4 4 l -38 0 c -2.216 0 -4 -1.784 -4 -4 z" opacity="0.02"/><path d="m 1 43.25 l 0 0.25 c 0 2.216 1.784 4 4 4 l 38 0 c 2.216 0 4 -1.784 4 -4 l 0 -0.25 c 0 2.216 -1.784 4 -4 4 l -38 0 c -2.216 0 -4 -1.784 -4 -4 z" opacity="0.05"/><path d="m 1 43 l 0 0.25 c 0 2.216 1.784 4 4 4 l 38 0 c 2.216 0 4 -1.784 4 -4 l 0 -0.25 c 0 2.216 -1.784 4 -4 4 l -38 0 c -2.216 0 -4 -1.784 -4 -4 z" opacity="0.1"/></g><g><rect width="46" height="46" x="-47" y="1" rx="4" transform="matrix(0,-1,1,0,0,0)" fill="url(#linearGradient3764)" fill-opacity="1"/></g><g><g clip-path="url(#clipPath-305602903)"><g opacity="0.1"><!-- color: #8dd866 --><g><path d="m 24 28.375 l 7 3.5 l -4.375 -9.625 m -2.625 6.125" fill="#000"/><path d="m 31.875 26.625 l 3.5 -9.625 l 2.625 13.13 m -6.125 -3.5" fill="#000"/><path d="m 31 31.875 l 4.375 -14.875 l -12.25 -7 l -3.5 9.625 l 7 2.625 m 4.375 9.625" fill="#000"/><path d="m 10 31 l 12.25 7 l 4.375 -15.75 l -13.12 -7 m -3.5 15.75" fill="#000"/></g></g></g></g><g><g clip-path="url(#clipPath-335118123)"><g transform="translate(0,-1)"><!-- color: #8dd866 --><g><path d="m 24 28.375 l 7 3.5 l -4.375 -9.625 m -2.625 6.125" fill="#a4a8ab"/><path d="m 31.875 26.625 l 3.5 -9.625 l 2.625 13.13 m -6.125 -3.5" fill="#7f7f84"/><path d="m 31 31.875 l 4.375 -14.875 l -12.25 -7 l -3.5 9.625 l 7 2.625 m 4.375 9.625" fill="#ececec"/><path d="m 10 31 l 12.25 7 l 4.375 -15.75 l -13.12 -7 m -3.5 15.75" fill="#f9f9f9"/></g></g></g></g><g><g transform="translate(0,-1004.3622)"><path d="m 1 1043.36 0 4 c 0 2.216 1.784 4 4 4 l 38 0 c 2.216 0 4 -1.784 4 -4 l 0 -4 c 0 2.216 -1.784 4 -4 4 l -38 0 c -2.216 0 -4 -1.784 -4 -4 z" opacity="0.1"/></g></g></svg>