<svg viewBox="0 0 48 48"><defs><linearGradient id="linearGradient3764" y1="47" x2="0" y2="1" gradientUnits="userSpaceOnUse"><stop stop-color="#89af03" stop-opacity="1"/><stop offset="1" stop-color="#9ac303" stop-opacity="1"/></linearGradient><clipPath id="clipPath-320944150"><g transform="translate(0,-1004.3622)"><path d="m -24 13 c 0 1.105 -0.672 2 -1.5 2 -0.828 0 -1.5 -0.895 -1.5 -2 0 -1.105 0.672 -2 1.5 -2 0.828 0 1.5 0.895 1.5 2 z" transform="matrix(15.333333,0,0,11.5,414.99999,878.8622)" fill="#1890d0"/></g></clipPath><clipPath id="clipPath-329426271"><g transform="translate(0,-1004.3622)"><path d="m -24 13 c 0 1.105 -0.672 2 -1.5 2 -0.828 0 -1.5 -0.895 -1.5 -2 0 -1.105 0.672 -2 1.5 -2 0.828 0 1.5 0.895 1.5 2 z" transform="matrix(15.333333,0,0,11.5,414.99999,878.8622)" fill="#1890d0"/></g></clipPath></defs><g><path d="m 36.31 5 c 5.859 4.062 9.688 10.831 9.688 18.5 c 0 12.426 -10.07 22.5 -22.5 22.5 c -7.669 0 -14.438 -3.828 -18.5 -9.688 c 1.037 1.822 2.306 3.499 3.781 4.969 c 4.085 3.712 9.514 5.969 15.469 5.969 c 12.703 0 23 -10.298 23 -23 c 0 -5.954 -2.256 -11.384 -5.969 -15.469 c -1.469 -1.475 -3.147 -2.744 -4.969 -3.781 z m 4.969 3.781 c 3.854 4.113 6.219 9.637 6.219 15.719 c 0 12.703 -10.297 23 -23 23 c -6.081 0 -11.606 -2.364 -15.719 -6.219 c 4.16 4.144 9.883 6.719 16.219 6.719 c 12.703 0 23 -10.298 23 -23 c 0 -6.335 -2.575 -12.06 -6.719 -16.219 z" opacity="0.05"/><path d="m 41.28 8.781 c 3.712 4.085 5.969 9.514 5.969 15.469 c 0 12.703 -10.297 23 -23 23 c -5.954 0 -11.384 -2.256 -15.469 -5.969 c 4.113 3.854 9.637 6.219 15.719 6.219 c 12.703 0 23 -10.298 23 -23 c 0 -6.081 -2.364 -11.606 -6.219 -15.719 z" opacity="0.1"/><path d="m 31.25 2.375 c 8.615 3.154 14.75 11.417 14.75 21.13 c 0 12.426 -10.07 22.5 -22.5 22.5 c -9.708 0 -17.971 -6.135 -21.12 -14.75 a 23 23 0 0 0 44.875 -7 a 23 23 0 0 0 -16 -21.875 z" opacity="0.2"/></g><g><path d="m 24 1 c 12.703 0 23 10.297 23 23 c 0 12.703 -10.297 23 -23 23 -12.703 0 -23 -10.297 -23 -23 0 -12.703 10.297 -23 23 -23 z" fill="url(#linearGradient3764)" fill-opacity="1"/></g><g><g clip-path="url(#clipPath-320944150)"><g transform="translate(1,1)"><g opacity="0.1"><!-- color: #9ac303 --><g><path d="m 35.57 22.08 c -0.25 0 -0.504 -0.066 -0.738 -0.207 c -4.246 -2.563 -9.109 -3.918 -14.06 -3.918 c -2.676 0 -5.324 0.391 -7.871 1.16 c -0.777 0.234 -1.59 -0.219 -1.82 -1.016 c -0.227 -0.797 0.215 -1.633 0.992 -1.867 c 2.816 -0.855 5.746 -1.285 8.699 -1.285 c 5.473 0 10.848 1.496 15.547 4.332 c 0.695 0.422 0.93 1.34 0.52 2.059 c -0.273 0.477 -0.762 0.742 -1.266 0.742" fill="#000"/><path d="m 33.16 27.527 c -0.238 0 -0.48 -0.066 -0.695 -0.207 c -3.504 -2.246 -7.551 -3.438 -11.699 -3.438 c -2.305 0 -4.578 0.363 -6.758 1.082 c -0.691 0.23 -1.434 -0.164 -1.656 -0.875 c -0.223 -0.711 0.16 -1.473 0.852 -1.703 c 2.441 -0.805 4.984 -1.211 7.563 -1.211 c 4.645 0 9.172 1.332 13.09 3.852 c 0.617 0.395 0.805 1.23 0.418 1.863 c -0.25 0.41 -0.68 0.637 -1.117 0.637" fill="#000"/><path d="m 30.766 32.957 c -0.23 0 -0.465 -0.066 -0.668 -0.211 c -2.75 -1.961 -5.977 -2.996 -9.328 -2.996 c -1.938 0 -3.836 0.344 -5.637 1.023 c -0.609 0.227 -1.281 -0.094 -1.504 -0.719 c -0.223 -0.625 0.09 -1.313 0.699 -1.543 c 2.059 -0.777 4.227 -1.168 6.441 -1.168 c 3.832 0 7.52 1.184 10.664 3.422 c 0.531 0.379 0.664 1.129 0.293 1.676 c -0.227 0.336 -0.59 0.516 -0.961 0.516" fill="#000"/></g></g></g></g></g><g><g clip-path="url(#clipPath-329426271)"><!-- color: #9ac303 --><g><path d="m 35.57 22.08 c -0.25 0 -0.504 -0.066 -0.738 -0.207 c -4.246 -2.563 -9.109 -3.918 -14.06 -3.918 c -2.676 0 -5.324 0.391 -7.871 1.16 c -0.777 0.234 -1.59 -0.219 -1.82 -1.016 c -0.227 -0.797 0.215 -1.633 0.992 -1.867 c 2.816 -0.855 5.746 -1.285 8.699 -1.285 c 5.473 0 10.848 1.496 15.547 4.332 c 0.695 0.422 0.93 1.34 0.52 2.059 c -0.273 0.477 -0.762 0.742 -1.266 0.742" fill="#2d2d2d"/><path d="m 33.16 27.527 c -0.238 0 -0.48 -0.066 -0.695 -0.207 c -3.504 -2.246 -7.551 -3.438 -11.699 -3.438 c -2.305 0 -4.578 0.363 -6.758 1.082 c -0.691 0.23 -1.434 -0.164 -1.656 -0.875 c -0.223 -0.711 0.16 -1.473 0.852 -1.703 c 2.441 -0.805 4.984 -1.211 7.563 -1.211 c 4.645 0 9.172 1.332 13.09 3.852 c 0.617 0.395 0.805 1.23 0.418 1.863 c -0.25 0.41 -0.68 0.637 -1.117 0.637" fill="#2d2d2d"/><path d="m 30.766 32.957 c -0.23 0 -0.465 -0.066 -0.668 -0.211 c -2.75 -1.961 -5.977 -2.996 -9.328 -2.996 c -1.938 0 -3.836 0.344 -5.637 1.023 c -0.609 0.227 -1.281 -0.094 -1.504 -0.719 c -0.223 -0.625 0.09 -1.313 0.699 -1.543 c 2.059 -0.777 4.227 -1.168 6.441 -1.168 c 3.832 0 7.52 1.184 10.664 3.422 c 0.531 0.379 0.664 1.129 0.293 1.676 c -0.227 0.336 -0.59 0.516 -0.961 0.516" fill="#2d2d2d"/></g></g></g><g><path d="m 40.03 7.531 c 3.712 4.084 5.969 9.514 5.969 15.469 0 12.703 -10.297 23 -23 23 c -5.954 0 -11.384 -2.256 -15.469 -5.969 4.178 4.291 10.01 6.969 16.469 6.969 c 12.703 0 23 -10.298 23 -23 0 -6.462 -2.677 -12.291 -6.969 -16.469 z" opacity="0.1"/></g></svg>