<svg viewBox="0 0 48 48"><defs><linearGradient id="linearGradient3764" x1="1" x2="47" gradientUnits="userSpaceOnUse" gradientTransform="translate(-48.000001,0.00221467)"><stop stop-color="#46ac8c" stop-opacity="1"/><stop offset="1" stop-color="#4fb796" stop-opacity="1"/></linearGradient><clipPath id="clipPath-213579340"><g transform="translate(0,-1004.3622)"><rect rx="4" y="1005.36" x="1" height="46" width="46" fill="#1890d0"/></g></clipPath><clipPath id="clipPath-226316440"><g transform="translate(0,-1004.3622)"><rect rx="4" y="1005.36" x="1" height="46" width="46" fill="#1890d0"/></g></clipPath></defs><g><path d="m 1 43 l 0 0.25 c 0 2.216 1.784 4 4 4 l 38 0 c 2.216 0 4 -1.784 4 -4 l 0 -0.25 c 0 2.216 -1.784 4 -4 4 l -38 0 c -2.216 0 -4 -1.784 -4 -4 z m 0 0.5 l 0 0.5 c 0 2.216 1.784 4 4 4 l 38 0 c 2.216 0 4 -1.784 4 -4 l 0 -0.5 c 0 2.216 -1.784 4 -4 4 l -38 0 c -2.216 0 -4 -1.784 -4 -4 z" opacity="0.02"/><path d="m 1 43.25 l 0 0.25 c 0 2.216 1.784 4 4 4 l 38 0 c 2.216 0 4 -1.784 4 -4 l 0 -0.25 c 0 2.216 -1.784 4 -4 4 l -38 0 c -2.216 0 -4 -1.784 -4 -4 z" opacity="0.05"/><path d="m 1 43 l 0 0.25 c 0 2.216 1.784 4 4 4 l 38 0 c 2.216 0 4 -1.784 4 -4 l 0 -0.25 c 0 2.216 -1.784 4 -4 4 l -38 0 c -2.216 0 -4 -1.784 -4 -4 z" opacity="0.1"/></g><g><rect width="46" height="46" x="-47" y="1" rx="4" transform="matrix(0,-1,1,0,0,0)" fill="url(#linearGradient3764)" fill-opacity="1"/></g><g><g clip-path="url(#clipPath-213579340)"><g opacity="0.1"><!-- color: #4fb796 --><g><path d="m 31.13 11 c -2.691 0 -4.875 2.184 -4.875 4.875 c 0 0.203 0.027 0.414 0.051 0.609 l -8.02 4.01 c -0.879 -0.855 -2.082 -1.371 -3.402 -1.371 c -2.691 0 -4.875 2.184 -4.875 4.875 c 0 2.691 2.184 4.875 4.875 4.875 c 1.32 0 2.523 -0.516 3.402 -1.371 l 8.02 4.01 c -0.027 0.195 -0.051 0.406 -0.051 0.609 c 0 2.691 2.184 4.875 4.875 4.875 c 2.691 0 4.875 -2.184 4.875 -4.875 c 0 -2.691 -2.184 -4.875 -4.875 -4.875 c -1.313 0 -2.5 0.527 -3.379 1.371 l -8.05 -4.01 c 0.027 -0.195 0.051 -0.406 0.051 -0.609 c 0 -0.203 -0.027 -0.414 -0.051 -0.609 l 8.05 -4.01 c 0.879 0.844 2.066 1.371 3.379 1.371 c 2.691 0 4.875 -2.184 4.875 -4.875 c 0 -2.691 -2.184 -4.875 -4.875 -4.875 m 0 0" fill="#000"/></g></g></g></g><g><g clip-path="url(#clipPath-226316440)"><g transform="translate(0,-1)"><!-- color: #4fb796 --><g><path d="m 31.13 11 c -2.691 0 -4.875 2.184 -4.875 4.875 c 0 0.203 0.027 0.414 0.051 0.609 l -8.02 4.01 c -0.879 -0.855 -2.082 -1.371 -3.402 -1.371 c -2.691 0 -4.875 2.184 -4.875 4.875 c 0 2.691 2.184 4.875 4.875 4.875 c 1.32 0 2.523 -0.516 3.402 -1.371 l 8.02 4.01 c -0.027 0.195 -0.051 0.406 -0.051 0.609 c 0 2.691 2.184 4.875 4.875 4.875 c 2.691 0 4.875 -2.184 4.875 -4.875 c 0 -2.691 -2.184 -4.875 -4.875 -4.875 c -1.313 0 -2.5 0.527 -3.379 1.371 l -8.05 -4.01 c 0.027 -0.195 0.051 -0.406 0.051 -0.609 c 0 -0.203 -0.027 -0.414 -0.051 -0.609 l 8.05 -4.01 c 0.879 0.844 2.066 1.371 3.379 1.371 c 2.691 0 4.875 -2.184 4.875 -4.875 c 0 -2.691 -2.184 -4.875 -4.875 -4.875 m 0 0" fill="#f9f9f9"/></g></g></g></g><g><g transform="translate(0,-1004.3622)"><path d="m 1 1043.36 0 4 c 0 2.216 1.784 4 4 4 l 38 0 c 2.216 0 4 -1.784 4 -4 l 0 -4 c 0 2.216 -1.784 4 -4 4 l -38 0 c -2.216 0 -4 -1.784 -4 -4 z" opacity="0.1"/></g></g></svg>