<svg viewBox="0 0 48 48"><defs><linearGradient id="linearGradient3764" x1="1" x2="47" gradientUnits="userSpaceOnUse" gradientTransform="translate(-48.000001,0.00221467)"><stop stop-color="#01a8df" stop-opacity="1"/><stop offset="1" stop-color="#01b5f3" stop-opacity="1"/></linearGradient><clipPath id="clipPath-738022457"><g transform="translate(0,-1004.3622)"><rect rx="4" y="1005.36" x="1" height="46" width="46" fill="#1890d0"/></g></clipPath><clipPath id="clipPath-770199699"><g transform="translate(0,-1004.3622)"><rect rx="4" y="1005.36" x="1" height="46" width="46" fill="#1890d0"/></g></clipPath></defs><g><path d="m 1 43 l 0 0.25 c 0 2.216 1.784 4 4 4 l 38 0 c 2.216 0 4 -1.784 4 -4 l 0 -0.25 c 0 2.216 -1.784 4 -4 4 l -38 0 c -2.216 0 -4 -1.784 -4 -4 z m 0 0.5 l 0 0.5 c 0 2.216 1.784 4 4 4 l 38 0 c 2.216 0 4 -1.784 4 -4 l 0 -0.5 c 0 2.216 -1.784 4 -4 4 l -38 0 c -2.216 0 -4 -1.784 -4 -4 z" opacity="0.02"/><path d="m 1 43.25 l 0 0.25 c 0 2.216 1.784 4 4 4 l 38 0 c 2.216 0 4 -1.784 4 -4 l 0 -0.25 c 0 2.216 -1.784 4 -4 4 l -38 0 c -2.216 0 -4 -1.784 -4 -4 z" opacity="0.05"/><path d="m 1 43 l 0 0.25 c 0 2.216 1.784 4 4 4 l 38 0 c 2.216 0 4 -1.784 4 -4 l 0 -0.25 c 0 2.216 -1.784 4 -4 4 l -38 0 c -2.216 0 -4 -1.784 -4 -4 z" opacity="0.1"/></g><g><rect width="46" height="46" x="-47" y="1" rx="4" transform="matrix(0,-1,1,0,0,0)" fill="url(#linearGradient3764)" fill-opacity="1"/></g><g><g clip-path="url(#clipPath-738022457)"><g opacity="0.1"><!-- color: #01b5f3 --><g><path d="m 23.01 11 l 0.203 5.391 c 0.828 -0.559 1.758 -0.922 2.715 -1.074 m 6.871 -3.09 l -3.672 3.375 c 0.637 0.223 1.254 0.543 1.828 0.969 c 0.199 0.148 0.387 0.305 0.566 0.469 m -4.617 -0.18 c -1.715 0.016 -3.395 0.887 -4.445 2.492 c -0.09 0.133 -0.168 0.27 -0.246 0.406 c 1.469 0.266 2.746 1.129 3.68 2.309 c 0.355 -0.109 0.73 -0.168 1.121 -0.168 c 2.289 0 4.184 1.992 4.215 4.422 c 0.078 -0.102 0.152 -0.207 0.219 -0.313 c 1.73 -2.637 1.121 -6.27 -1.359 -8.105 c -0.973 -0.719 -2.086 -1.055 -3.184 -1.043 m -10.902 1.512 l 2.563 2 c 0.605 -0.332 1.266 -0.555 1.965 -0.648 c 0.152 -0.371 0.332 -0.734 0.543 -1.082 m 12.488 1.605 c 0.281 0.867 0.414 1.781 0.387 2.695 l 4.055 -1.813 m -5.324 5.84 c -0.125 0.188 -0.254 0.367 -0.391 0.539 c 0.672 0.82 1.156 1.813 1.395 2.902 l 1.016 0.59 m -2.02 -4.03" fill="#000"/><path d="m 20.332 21 c 1.879 0 3.488 1.063 4.34 2.594 c 0.484 -0.359 1.098 -0.594 1.773 -0.594 c 1.531 0 2.777 1.121 2.777 2.5 c 0 0.309 -0.059 0.602 -0.176 0.875 c 1.746 0.699 2.953 2.289 2.953 4.125 c 0 2.492 -2.23 4.5 -5 4.5 l -10 0 c -2.77 0 -5 -2.01 -5 -4.5 c 0 -1.977 1.41 -3.641 3.367 -4.25 c 0 -0.086 -0.035 -0.164 -0.035 -0.25 c 0 -2.762 2.242 -5 5 -5 m 0 0" fill-rule="evenodd" fill="#000"/></g></g></g></g><g><g clip-path="url(#clipPath-770199699)"><g transform="translate(0,-1)"><!-- color: #01b5f3 --><g><path d="m 23.01 11 l 0.203 5.391 c 0.828 -0.559 1.758 -0.922 2.715 -1.074 m 6.871 -3.09 l -3.672 3.375 c 0.637 0.223 1.254 0.543 1.828 0.969 c 0.199 0.148 0.387 0.305 0.566 0.469 m -4.617 -0.18 c -1.715 0.016 -3.395 0.887 -4.445 2.492 c -0.09 0.133 -0.168 0.27 -0.246 0.406 c 1.469 0.266 2.746 1.129 3.68 2.309 c 0.355 -0.109 0.73 -0.168 1.121 -0.168 c 2.289 0 4.184 1.992 4.215 4.422 c 0.078 -0.102 0.152 -0.207 0.219 -0.313 c 1.73 -2.637 1.121 -6.27 -1.359 -8.105 c -0.973 -0.719 -2.086 -1.055 -3.184 -1.043 m -10.902 1.512 l 2.563 2 c 0.605 -0.332 1.266 -0.555 1.965 -0.648 c 0.152 -0.371 0.332 -0.734 0.543 -1.082 m 12.488 1.605 c 0.281 0.867 0.414 1.781 0.387 2.695 l 4.055 -1.813 m -5.324 5.84 c -0.125 0.188 -0.254 0.367 -0.391 0.539 c 0.672 0.82 1.156 1.813 1.395 2.902 l 1.016 0.59 m -2.02 -4.03" fill="#ffc945"/><path d="m 20.332 21 c 1.879 0 3.488 1.063 4.34 2.594 c 0.484 -0.359 1.098 -0.594 1.773 -0.594 c 1.531 0 2.777 1.121 2.777 2.5 c 0 0.309 -0.059 0.602 -0.176 0.875 c 1.746 0.699 2.953 2.289 2.953 4.125 c 0 2.492 -2.23 4.5 -5 4.5 l -10 0 c -2.77 0 -5 -2.01 -5 -4.5 c 0 -1.977 1.41 -3.641 3.367 -4.25 c 0 -0.086 -0.035 -0.164 -0.035 -0.25 c 0 -2.762 2.242 -5 5 -5 m 0 0" fill="#f9f9f9" fill-rule="evenodd"/></g></g></g></g><g><g transform="translate(0,-1004.3622)"><path d="m 1 1043.36 0 4 c 0 2.216 1.784 4 4 4 l 38 0 c 2.216 0 4 -1.784 4 -4 l 0 -4 c 0 2.216 -1.784 4 -4 4 l -38 0 c -2.216 0 -4 -1.784 -4 -4 z" opacity="0.1"/></g></g></svg>