<svg viewBox="0 0 48 48"><defs><linearGradient id="linearGradient3764" x1="1" x2="47" gradientUnits="userSpaceOnUse" gradientTransform="translate(-48.000001,0.00221467)"><stop stop-color="#de323a" stop-opacity="1"/><stop offset="1" stop-color="#e1434a" stop-opacity="1"/></linearGradient><clipPath id="clipPath-334261846"><g transform="translate(0,-1004.3622)"><rect rx="4" y="1005.36" x="1" height="46" width="46" fill="#1890d0"/></g></clipPath><clipPath id="clipPath-347087306"><g transform="translate(0,-1004.3622)"><rect rx="4" y="1005.36" x="1" height="46" width="46" fill="#1890d0"/></g></clipPath></defs><g><path d="m 1 43 l 0 0.25 c 0 2.216 1.784 4 4 4 l 38 0 c 2.216 0 4 -1.784 4 -4 l 0 -0.25 c 0 2.216 -1.784 4 -4 4 l -38 0 c -2.216 0 -4 -1.784 -4 -4 z m 0 0.5 l 0 0.5 c 0 2.216 1.784 4 4 4 l 38 0 c 2.216 0 4 -1.784 4 -4 l 0 -0.5 c 0 2.216 -1.784 4 -4 4 l -38 0 c -2.216 0 -4 -1.784 -4 -4 z" opacity="0.02"/><path d="m 1 43.25 l 0 0.25 c 0 2.216 1.784 4 4 4 l 38 0 c 2.216 0 4 -1.784 4 -4 l 0 -0.25 c 0 2.216 -1.784 4 -4 4 l -38 0 c -2.216 0 -4 -1.784 -4 -4 z" opacity="0.05"/><path d="m 1 43 l 0 0.25 c 0 2.216 1.784 4 4 4 l 38 0 c 2.216 0 4 -1.784 4 -4 l 0 -0.25 c 0 2.216 -1.784 4 -4 4 l -38 0 c -2.216 0 -4 -1.784 -4 -4 z" opacity="0.1"/></g><g><rect width="46" height="46" x="-47" y="1" rx="4" transform="matrix(0,-1,1,0,0,0)" fill="url(#linearGradient3764)" fill-opacity="1"/></g><g><g clip-path="url(#clipPath-334261846)"><g opacity="0.1"><!-- color: #e1434a --><g><path d="m 24.11 12 c -5.578 0 -10.11 5.195 -10.11 11.605 c 0 6.406 4.531 11.621 10.11 11.621 c 5.582 0 10.113 -5.215 10.113 -11.621 c 0 -6.41 -4.531 -11.605 -10.113 -11.605 m 0 1.488 c 4.625 0 5.066 4.527 5.066 10.117 c 0 5.586 -0.613 10.125 -5.066 10.125 c -4.527 0 -5.063 -4.539 -5.063 -10.125 c 0 -5.59 0.52 -10.117 5.063 -10.117 m 0 0" fill="#000"/></g></g></g></g><g><g clip-path="url(#clipPath-347087306)"><g transform="translate(0,-1)"><!-- color: #e1434a --><g><path d="m 24.11 12 c -5.578 0 -10.11 5.195 -10.11 11.605 c 0 6.406 4.531 11.621 10.11 11.621 c 5.582 0 10.113 -5.215 10.113 -11.621 c 0 -6.41 -4.531 -11.605 -10.113 -11.605 m 0 1.488 c 4.625 0 5.066 4.527 5.066 10.117 c 0 5.586 -0.613 10.125 -5.066 10.125 c -4.527 0 -5.063 -4.539 -5.063 -10.125 c 0 -5.59 0.52 -10.117 5.063 -10.117 m 0 0" fill="#2d2d2d"/></g></g></g></g><g><g transform="translate(0,-1004.3622)"><path d="m 1 1043.36 0 4 c 0 2.216 1.784 4 4 4 l 38 0 c 2.216 0 4 -1.784 4 -4 l 0 -4 c 0 2.216 -1.784 4 -4 4 l -38 0 c -2.216 0 -4 -1.784 -4 -4 z" opacity="0.1"/></g></g></svg>