<svg viewBox="0 0 48 48"><defs><linearGradient id="linearGradient3764" x1="1" x2="47" gradientUnits="userSpaceOnUse" gradientTransform="translate(-48.000001,0.00221467)"><stop stop-color="#d5d5d5" stop-opacity="1"/><stop offset="1" stop-color="#dfdfdf" stop-opacity="1"/></linearGradient><clipPath id="clipPath-320573177"><g transform="translate(0,-1004.3622)"><rect rx="4" y="1005.36" x="1" height="46" width="46" fill="#1890d0"/></g></clipPath><clipPath id="clipPath-335046868"><g transform="translate(0,-1004.3622)"><rect rx="4" y="1005.36" x="1" height="46" width="46" fill="#1890d0"/></g></clipPath></defs><g><path d="m 1 43 l 0 0.25 c 0 2.216 1.784 4 4 4 l 38 0 c 2.216 0 4 -1.784 4 -4 l 0 -0.25 c 0 2.216 -1.784 4 -4 4 l -38 0 c -2.216 0 -4 -1.784 -4 -4 z m 0 0.5 l 0 0.5 c 0 2.216 1.784 4 4 4 l 38 0 c 2.216 0 4 -1.784 4 -4 l 0 -0.5 c 0 2.216 -1.784 4 -4 4 l -38 0 c -2.216 0 -4 -1.784 -4 -4 z" opacity="0.02"/><path d="m 1 43.25 l 0 0.25 c 0 2.216 1.784 4 4 4 l 38 0 c 2.216 0 4 -1.784 4 -4 l 0 -0.25 c 0 2.216 -1.784 4 -4 4 l -38 0 c -2.216 0 -4 -1.784 -4 -4 z" opacity="0.05"/><path d="m 1 43 l 0 0.25 c 0 2.216 1.784 4 4 4 l 38 0 c 2.216 0 4 -1.784 4 -4 l 0 -0.25 c 0 2.216 -1.784 4 -4 4 l -38 0 c -2.216 0 -4 -1.784 -4 -4 z" opacity="0.1"/></g><g><rect width="46" height="46" x="-47" y="1" rx="4" transform="matrix(0,-1,1,0,0,0)" fill="url(#linearGradient3764)" fill-opacity="1"/></g><g><g clip-path="url(#clipPath-320573177)"><g opacity="0.1"><!-- color: #dfdfdf --><path d="M 0,0 0,29 17,29 9.21875,6.875 9.09375,6.5 6.9375,0 z" fill="#000"/><path d="m 0,33 0,15 20.90625,0 0.375,-1.09375 0,-0.03125 L 26,33 C 18,33 8,33 0,33 z" fill="#000"/><path d="m 32.75 24.594 l -6.969 22.406 l -0.313 1 l 22.531 0 l 0 -11.938 l -3.125 -2.375 l -12.12 -9.09 z" fill="#000"/><path d="m 11.656 0 l 1.969 6.813 l 0.031 -0.031 l 3.25 11.219 l 11.469 -8.156 l 7.688 -5.438 l 6.188 -4.406 l -30.594 0 z" fill="#000"/><path d="m 48 1.531 l -8.25 5.688 l -0.656 0.438 l -11.813 8.156 l 19.06 13.719 l 1.656 1.188 l 0 -29.19 z" fill="#000"/></g></g></g><g><g clip-path="url(#clipPath-335046868)"><g transform="translate(0,-1)"><!-- color: #dfdfdf --><path d="M 0,0 0,29 17,29 9.21875,6.875 9.09375,6.5 6.9375,0 z" fill="#f0cc3f"/><path d="m 0,33 0,15 20.90625,0 0.375,-1.09375 0,-0.03125 L 26,33 C 18,33 8,33 0,33 z" fill="#87b54a"/><path d="m 32.75 24.594 l -6.969 22.406 l -0.313 1 l 22.531 0 l 0 -11.938 l -3.125 -2.375 l -12.12 -9.09 z" fill="#63a8b8"/><path d="m 11.656 0 l 1.969 6.813 l 0.031 -0.031 l 3.25 11.219 l 11.469 -8.156 l 7.688 -5.438 l 6.188 -4.406 l -30.594 0 z" fill="#de7878"/><path d="m 48 1.531 l -8.25 5.688 l -0.656 0.438 l -11.813 8.156 l 19.06 13.719 l 1.656 1.188 l 0 -29.19 z" fill="#c787cf"/></g></g></g><g><g transform="translate(0,-1004.3622)"><path d="m 1 1043.36 0 4 c 0 2.216 1.784 4 4 4 l 38 0 c 2.216 0 4 -1.784 4 -4 l 0 -4 c 0 2.216 -1.784 4 -4 4 l -38 0 c -2.216 0 -4 -1.784 -4 -4 z" opacity="0.1"/></g></g></svg>