<svg viewBox="0 0 48 48"><defs><linearGradient id="linearGradient3764" x1="1" x2="47" gradientUnits="userSpaceOnUse" gradientTransform="translate(-48.000001,0.00221467)"><stop stop-color="#d0f0f4" stop-opacity="1"/><stop offset="1" stop-color="#e0f5f8" stop-opacity="1"/></linearGradient><clipPath id="clipPath-723357925"><g transform="translate(0,-1004.3622)"><rect rx="4" y="1005.36" x="1" height="46" width="46" fill="#1890d0"/></g></clipPath><clipPath id="clipPath-736143262"><g transform="translate(0,-1004.3622)"><rect rx="4" y="1005.36" x="1" height="46" width="46" fill="#1890d0"/></g></clipPath></defs><g><path d="m 1 43 l 0 0.25 c 0 2.216 1.784 4 4 4 l 38 0 c 2.216 0 4 -1.784 4 -4 l 0 -0.25 c 0 2.216 -1.784 4 -4 4 l -38 0 c -2.216 0 -4 -1.784 -4 -4 z m 0 0.5 l 0 0.5 c 0 2.216 1.784 4 4 4 l 38 0 c 2.216 0 4 -1.784 4 -4 l 0 -0.5 c 0 2.216 -1.784 4 -4 4 l -38 0 c -2.216 0 -4 -1.784 -4 -4 z" opacity="0.02"/><path d="m 1 43.25 l 0 0.25 c 0 2.216 1.784 4 4 4 l 38 0 c 2.216 0 4 -1.784 4 -4 l 0 -0.25 c 0 2.216 -1.784 4 -4 4 l -38 0 c -2.216 0 -4 -1.784 -4 -4 z" opacity="0.05"/><path d="m 1 43 l 0 0.25 c 0 2.216 1.784 4 4 4 l 38 0 c 2.216 0 4 -1.784 4 -4 l 0 -0.25 c 0 2.216 -1.784 4 -4 4 l -38 0 c -2.216 0 -4 -1.784 -4 -4 z" opacity="0.1"/></g><g><rect width="46" height="46" x="-47" y="1" rx="4" transform="matrix(0,-1,1,0,0,0)" fill="url(#linearGradient3764)" fill-opacity="1"/></g><g><g clip-path="url(#clipPath-723357925)"><g opacity="0.1"><!-- color: #e0f5f8 --><g><path d="m 19.219 15 c -2.16 -0.051 -4.25 0.664 -5.797 1.98 c -1.551 1.32 -2.422 3.129 -2.422 5.02 c 0.008 1.648 0.684 3.242 1.906 4.5 l -0.906 4.5 l 3.563 -2.688 c 2.477 1.031 5.387 0.879 7.707 -0.398 c 2.32 -1.281 3.727 -3.516 3.73 -5.914 c 0 -3.793 -3.449 -6.895 -7.781 -7 m 0 0" fill="#000"/><path d="m 30.563 19 c -3.141 0.191 -5.57 2.375 -5.563 5 c 0 1.617 0.941 3.133 2.523 4.07 c 1.582 0.938 3.613 1.18 5.445 0.648 l 3.03 2.281 l -0.688 -3.5 c 1.09 -0.938 1.695 -2.195 1.688 -3.5 c 0.004 -1.391 -0.688 -2.723 -1.91 -3.672 c -1.219 -0.949 -2.863 -1.43 -4.527 -1.328 m 0 0" fill="#000"/><path d="m 17 19.5 c 0 0.828 -0.672 1.5 -1.5 1.5 c -0.828 0 -1.5 -0.672 -1.5 -1.5 c 0 -0.828 0.672 -1.5 1.5 -1.5 c 0.828 0 1.5 0.672 1.5 1.5 m 0 0" fill="#000"/><path d="m 23 19.5 c 0 0.828 -0.672 1.5 -1.5 1.5 c -0.828 0 -1.5 -0.672 -1.5 -1.5 c 0 -0.828 0.672 -1.5 1.5 -1.5 c 0.828 0 1.5 0.672 1.5 1.5 m 0 0" fill="#000"/><path d="m 30 22 c 0 0.551 -0.449 1 -1 1 c -0.551 0 -1 -0.449 -1 -1 c 0 -0.551 0.449 -1 1 -1 c 0.551 0 1 0.449 1 1 m 0 0" fill="#000"/><path d="m 34 22 c 0 0.551 -0.449 1 -1 1 c -0.551 0 -1 -0.449 -1 -1 c 0 -0.551 0.449 -1 1 -1 c 0.551 0 1 0.449 1 1 m 0 0" fill="#000"/></g></g></g></g><g><g clip-path="url(#clipPath-736143262)"><g transform="translate(0,-1)"><!-- color: #e0f5f8 --><g><path d="m 19.219 15 c -2.16 -0.051 -4.25 0.664 -5.797 1.98 c -1.551 1.32 -2.422 3.129 -2.422 5.02 c 0.008 1.648 0.684 3.242 1.906 4.5 l -0.906 4.5 l 3.563 -2.688 c 2.477 1.031 5.387 0.879 7.707 -0.398 c 2.32 -1.281 3.727 -3.516 3.73 -5.914 c 0 -3.793 -3.449 -6.895 -7.781 -7 m 0 0" fill="#95b9ed"/><path d="m 30.563 19 c -3.141 0.191 -5.57 2.375 -5.563 5 c 0 1.617 0.941 3.133 2.523 4.07 c 1.582 0.938 3.613 1.18 5.445 0.648 l 3.03 2.281 l -0.688 -3.5 c 1.09 -0.938 1.695 -2.195 1.688 -3.5 c 0.004 -1.391 -0.688 -2.723 -1.91 -3.672 c -1.219 -0.949 -2.863 -1.43 -4.527 -1.328 m 0 0" fill="#a2c1e5"/><path d="m 17 19.5 c 0 0.828 -0.672 1.5 -1.5 1.5 c -0.828 0 -1.5 -0.672 -1.5 -1.5 c 0 -0.828 0.672 -1.5 1.5 -1.5 c 0.828 0 1.5 0.672 1.5 1.5 m 0 0" fill="#353535"/><path d="m 23 19.5 c 0 0.828 -0.672 1.5 -1.5 1.5 c -0.828 0 -1.5 -0.672 -1.5 -1.5 c 0 -0.828 0.672 -1.5 1.5 -1.5 c 0.828 0 1.5 0.672 1.5 1.5 m 0 0" fill="#353535"/><path d="m 30 22 c 0 0.551 -0.449 1 -1 1 c -0.551 0 -1 -0.449 -1 -1 c 0 -0.551 0.449 -1 1 -1 c 0.551 0 1 0.449 1 1 m 0 0" fill="#353535"/><path d="m 34 22 c 0 0.551 -0.449 1 -1 1 c -0.551 0 -1 -0.449 -1 -1 c 0 -0.551 0.449 -1 1 -1 c 0.551 0 1 0.449 1 1 m 0 0" fill="#353535"/></g></g></g></g><g><g transform="translate(0,-1004.3622)"><path d="m 1 1043.36 0 4 c 0 2.216 1.784 4 4 4 l 38 0 c 2.216 0 4 -1.784 4 -4 l 0 -4 c 0 2.216 -1.784 4 -4 4 l -38 0 c -2.216 0 -4 -1.784 -4 -4 z" opacity="0.1"/></g></g></svg>