<svg viewBox="0 0 48 48"><defs><linearGradient id="linearGradient3764" x1="1" x2="47" gradientUnits="userSpaceOnUse" gradientTransform="translate(-48.000001,0.00221467)"><stop stop-color="#58c4ec" stop-opacity="1"/><stop offset="1" stop-color="#6ac9ee" stop-opacity="1"/></linearGradient><clipPath id="clipPath-319542556"><g transform="translate(0,-1004.3622)"><rect rx="4" y="1005.36" x="1" height="46" width="46" fill="#1890d0"/></g></clipPath><clipPath id="clipPath-332980795"><g transform="translate(0,-1004.3622)"><rect rx="4" y="1005.36" x="1" height="46" width="46" fill="#1890d0"/></g></clipPath></defs><g><path d="m 1 43 l 0 0.25 c 0 2.216 1.784 4 4 4 l 38 0 c 2.216 0 4 -1.784 4 -4 l 0 -0.25 c 0 2.216 -1.784 4 -4 4 l -38 0 c -2.216 0 -4 -1.784 -4 -4 z m 0 0.5 l 0 0.5 c 0 2.216 1.784 4 4 4 l 38 0 c 2.216 0 4 -1.784 4 -4 l 0 -0.5 c 0 2.216 -1.784 4 -4 4 l -38 0 c -2.216 0 -4 -1.784 -4 -4 z" opacity="0.02"/><path d="m 1 43.25 l 0 0.25 c 0 2.216 1.784 4 4 4 l 38 0 c 2.216 0 4 -1.784 4 -4 l 0 -0.25 c 0 2.216 -1.784 4 -4 4 l -38 0 c -2.216 0 -4 -1.784 -4 -4 z" opacity="0.05"/><path d="m 1 43 l 0 0.25 c 0 2.216 1.784 4 4 4 l 38 0 c 2.216 0 4 -1.784 4 -4 l 0 -0.25 c 0 2.216 -1.784 4 -4 4 l -38 0 c -2.216 0 -4 -1.784 -4 -4 z" opacity="0.1"/></g><g><rect width="46" height="46" x="-47" y="1" rx="4" transform="matrix(0,-1,1,0,0,0)" fill="url(#linearGradient3764)" fill-opacity="1"/></g><g><g clip-path="url(#clipPath-319542556)"><g opacity="0.1"><!-- color: #6ac9ee --><g><path d="m 24 12 c -6.629 0 -12 5.188 -12 11.586 c 0 3.859 1.965 7.258 4.969 9.363 c -0.109 0.441 -0.25 0.91 -0.469 1.395 c -0.75 1.656 -1.5 1.656 -1.5 1.656 c 0 0 2.25 0 3.75 -0.828 c 0.316 -0.172 0.594 -0.461 0.844 -0.801 c 1.367 0.523 2.848 0.801 4.406 0.801 c 6.629 0 12 -5.188 12 -11.586 c 0 -6.398 -5.371 -11.586 -12 -11.586 m 0 0" fill="#000"/><path d="m 19 23 c 0 -0.328 0.074 -0.578 0.227 -0.746 c 0.156 -0.172 0.375 -0.258 0.66 -0.258 c 0.293 0 0.52 0.086 0.68 0.258 c 0.164 0.168 0.246 0.418 0.246 0.746 c 0 0.32 -0.082 0.566 -0.246 0.738 c -0.168 0.172 -0.395 0.258 -0.68 0.258 c -0.254 0 -0.469 -0.078 -0.637 -0.23 c -0.168 -0.156 -0.25 -0.41 -0.25 -0.766" fill="#000"/><path d="m 23.09 23 c 0 -0.328 0.074 -0.578 0.227 -0.746 c 0.152 -0.172 0.375 -0.258 0.66 -0.258 c 0.293 0 0.516 0.086 0.68 0.258 c 0.164 0.168 0.246 0.418 0.246 0.746 c 0 0.32 -0.082 0.566 -0.246 0.738 c -0.168 0.172 -0.395 0.258 -0.68 0.258 c -0.254 0 -0.469 -0.078 -0.641 -0.23 c -0.164 -0.156 -0.246 -0.41 -0.246 -0.766" fill="#000"/><path d="m 27.19 23 c 0 -0.328 0.074 -0.578 0.227 -0.746 c 0.152 -0.172 0.375 -0.258 0.66 -0.258 c 0.293 0 0.516 0.086 0.676 0.258 c 0.168 0.168 0.25 0.418 0.25 0.746 c 0 0.32 -0.082 0.566 -0.25 0.738 c -0.164 0.172 -0.391 0.258 -0.676 0.258 c -0.254 0 -0.469 -0.078 -0.641 -0.23 c -0.164 -0.156 -0.246 -0.41 -0.246 -0.766" fill="#000"/></g></g></g></g><g><g clip-path="url(#clipPath-332980795)"><g transform="translate(0,-1)"><!-- color: #6ac9ee --><g><path d="m 24 12 c -6.629 0 -12 5.188 -12 11.586 c 0 3.859 1.965 7.258 4.969 9.363 c -0.109 0.441 -0.25 0.91 -0.469 1.395 c -0.75 1.656 -1.5 1.656 -1.5 1.656 c 0 0 2.25 0 3.75 -0.828 c 0.316 -0.172 0.594 -0.461 0.844 -0.801 c 1.367 0.523 2.848 0.801 4.406 0.801 c 6.629 0 12 -5.188 12 -11.586 c 0 -6.398 -5.371 -11.586 -12 -11.586 m 0 0" fill="#f9f9f9"/><path d="m 19 23 c 0 -0.328 0.074 -0.578 0.227 -0.746 c 0.156 -0.172 0.375 -0.258 0.66 -0.258 c 0.293 0 0.52 0.086 0.68 0.258 c 0.164 0.168 0.246 0.418 0.246 0.746 c 0 0.32 -0.082 0.566 -0.246 0.738 c -0.168 0.172 -0.395 0.258 -0.68 0.258 c -0.254 0 -0.469 -0.078 -0.637 -0.23 c -0.168 -0.156 -0.25 -0.41 -0.25 -0.766" fill="#868686"/><path d="m 23.09 23 c 0 -0.328 0.074 -0.578 0.227 -0.746 c 0.152 -0.172 0.375 -0.258 0.66 -0.258 c 0.293 0 0.516 0.086 0.68 0.258 c 0.164 0.168 0.246 0.418 0.246 0.746 c 0 0.32 -0.082 0.566 -0.246 0.738 c -0.168 0.172 -0.395 0.258 -0.68 0.258 c -0.254 0 -0.469 -0.078 -0.641 -0.23 c -0.164 -0.156 -0.246 -0.41 -0.246 -0.766" fill="#868686"/><path d="m 27.19 23 c 0 -0.328 0.074 -0.578 0.227 -0.746 c 0.152 -0.172 0.375 -0.258 0.66 -0.258 c 0.293 0 0.516 0.086 0.676 0.258 c 0.168 0.168 0.25 0.418 0.25 0.746 c 0 0.32 -0.082 0.566 -0.25 0.738 c -0.164 0.172 -0.391 0.258 -0.676 0.258 c -0.254 0 -0.469 -0.078 -0.641 -0.23 c -0.164 -0.156 -0.246 -0.41 -0.246 -0.766" fill="#868686"/></g></g></g></g><g><g transform="translate(0,-1004.3622)"><path d="m 1 1043.36 0 4 c 0 2.216 1.784 4 4 4 l 38 0 c 2.216 0 4 -1.784 4 -4 l 0 -4 c 0 2.216 -1.784 4 -4 4 l -38 0 c -2.216 0 -4 -1.784 -4 -4 z" opacity="0.1"/></g></g></svg>