<svg viewBox="0 0 48 48"><defs><linearGradient id="linearGradient3764" x1="1" x2="47" gradientUnits="userSpaceOnUse" gradientTransform="translate(-48.000001,0.00221467)"><stop stop-color="#d8d0d0" stop-opacity="1"/><stop offset="1" stop-color="#e1dbdb" stop-opacity="1"/></linearGradient><clipPath id="clipPath-470995361"><g transform="translate(0,-1004.3622)"><rect rx="4" y="1005.36" x="1" height="46" width="46" fill="#1890d0"/></g></clipPath><clipPath id="clipPath-493209869"><g transform="translate(0,-1004.3622)"><rect rx="4" y="1005.36" x="1" height="46" width="46" fill="#1890d0"/></g></clipPath></defs><g><path d="m 1 43 l 0 0.25 c 0 2.216 1.784 4 4 4 l 38 0 c 2.216 0 4 -1.784 4 -4 l 0 -0.25 c 0 2.216 -1.784 4 -4 4 l -38 0 c -2.216 0 -4 -1.784 -4 -4 z m 0 0.5 l 0 0.5 c 0 2.216 1.784 4 4 4 l 38 0 c 2.216 0 4 -1.784 4 -4 l 0 -0.5 c 0 2.216 -1.784 4 -4 4 l -38 0 c -2.216 0 -4 -1.784 -4 -4 z" opacity="0.02"/><path d="m 1 43.25 l 0 0.25 c 0 2.216 1.784 4 4 4 l 38 0 c 2.216 0 4 -1.784 4 -4 l 0 -0.25 c 0 2.216 -1.784 4 -4 4 l -38 0 c -2.216 0 -4 -1.784 -4 -4 z" opacity="0.05"/><path d="m 1 43 l 0 0.25 c 0 2.216 1.784 4 4 4 l 38 0 c 2.216 0 4 -1.784 4 -4 l 0 -0.25 c 0 2.216 -1.784 4 -4 4 l -38 0 c -2.216 0 -4 -1.784 -4 -4 z" opacity="0.1"/></g><g><rect width="46" height="46" x="-47" y="1" rx="4" transform="matrix(0,-1,1,0,0,0)" fill="url(#linearGradient3764)" fill-opacity="1"/></g><g><g clip-path="url(#clipPath-470995361)"><g opacity="0.1"><!-- color: #e1dbdb --><g><path d="m 13 16 l 0 6.363 c 0 0 4.844 -3.5 4.844 2.82 c 0 6.32 -4.844 3.816 -4.844 3.816 l 0 6 l 6.559 0 c 0 0 -2.484 -5.04 3.164 -4.961 c 6.06 0.082 3.395 4.961 3.395 4.961 l 5.883 0 l 0 -6.32 c 0 0 4.961 2.086 5 -3.03 c 0.027 -3.805 -2 -4.363 -5 -3.285 l 0 -6.363 l -5.801 0 c 0 0 2.418 -5 -3.395 -5 c -5.813 0 -3.246 5 -3.246 5 m -6.559 0" fill="#000"/><path d="m 13 16 l 0 6.375 c 0 0 4.844 -3.508 4.844 2.813 c 0 6.32 -4.844 3.813 -4.844 3.813 l 0 6 l 4 0 l 6 -10 m -10 -9" fill="#000"/><path d="m 23 25 l -9 10 l 5.563 0 c 0 0 -2.492 -5.05 3.156 -4.969 c 6.06 0.086 3.406 4.969 3.406 4.969 l 5.875 0 l 0 -1 m -9 -9" fill="#000"/><path d="m 22.813 11 c -5.813 0 -3.25 5 -3.25 5 l -6.563 0 l 10 9 l 9 -8 l 0 -1 l -5.813 0 c 0 0 2.438 -5 -3.375 -5 m 0 0" fill="#000"/></g></g></g></g><g><g clip-path="url(#clipPath-493209869)"><g transform="translate(0,-1)"><!-- color: #e1dbdb --><g><path d="m 13 16 l 0 6.363 c 0 0 4.844 -3.5 4.844 2.82 c 0 6.32 -4.844 3.816 -4.844 3.816 l 0 6 l 6.559 0 c 0 0 -2.484 -5.04 3.164 -4.961 c 6.06 0.082 3.395 4.961 3.395 4.961 l 5.883 0 l 0 -6.32 c 0 0 4.961 2.086 5 -3.03 c 0.027 -3.805 -2 -4.363 -5 -3.285 l 0 -6.363 l -5.801 0 c 0 0 2.418 -5 -3.395 -5 c -5.813 0 -3.246 5 -3.246 5 m -6.559 0" fill="#ffa376"/><path d="m 13 16 l 0 6.375 c 0 0 4.844 -3.508 4.844 2.813 c 0 6.32 -4.844 3.813 -4.844 3.813 l 0 6 l 4 0 l 6 -10 m -10 -9" fill="#4ed7c8"/><path d="m 23 25 l -9 10 l 5.563 0 c 0 0 -2.492 -5.05 3.156 -4.969 c 6.06 0.086 3.406 4.969 3.406 4.969 l 5.875 0 l 0 -1 m -9 -9" fill="#d6364e"/><path d="m 22.813 11 c -5.813 0 -3.25 5 -3.25 5 l -6.563 0 l 10 9 l 9 -8 l 0 -1 l -5.813 0 c 0 0 2.438 -5 -3.375 -5 m 0 0" fill="#d1fbaa"/></g></g></g></g><g><g transform="translate(0,-1004.3622)"><path d="m 1 1043.36 0 4 c 0 2.216 1.784 4 4 4 l 38 0 c 2.216 0 4 -1.784 4 -4 l 0 -4 c 0 2.216 -1.784 4 -4 4 l -38 0 c -2.216 0 -4 -1.784 -4 -4 z" opacity="0.1"/></g></g></svg>