<svg viewBox="0 0 48 48"><defs><linearGradient id="linearGradient3764" x1="1" x2="47" gradientUnits="userSpaceOnUse" gradientTransform="translate(-48.000001,0.00221467)"><stop stop-color="#1d99d3" stop-opacity="1"/><stop offset="1" stop-color="#24a7e1" stop-opacity="1"/></linearGradient><clipPath id="clipPath-691192131"><g transform="translate(0,-1004.3622)"><rect rx="4" y="1005.36" x="1" height="46" width="46" fill="#1890d0"/></g></clipPath><clipPath id="clipPath-705149217"><g transform="translate(0,-1004.3622)"><rect rx="4" y="1005.36" x="1" height="46" width="46" fill="#1890d0"/></g></clipPath></defs><g><path d="m 1 43 l 0 0.25 c 0 2.216 1.784 4 4 4 l 38 0 c 2.216 0 4 -1.784 4 -4 l 0 -0.25 c 0 2.216 -1.784 4 -4 4 l -38 0 c -2.216 0 -4 -1.784 -4 -4 z m 0 0.5 l 0 0.5 c 0 2.216 1.784 4 4 4 l 38 0 c 2.216 0 4 -1.784 4 -4 l 0 -0.5 c 0 2.216 -1.784 4 -4 4 l -38 0 c -2.216 0 -4 -1.784 -4 -4 z" opacity="0.02"/><path d="m 1 43.25 l 0 0.25 c 0 2.216 1.784 4 4 4 l 38 0 c 2.216 0 4 -1.784 4 -4 l 0 -0.25 c 0 2.216 -1.784 4 -4 4 l -38 0 c -2.216 0 -4 -1.784 -4 -4 z" opacity="0.05"/><path d="m 1 43 l 0 0.25 c 0 2.216 1.784 4 4 4 l 38 0 c 2.216 0 4 -1.784 4 -4 l 0 -0.25 c 0 2.216 -1.784 4 -4 4 l -38 0 c -2.216 0 -4 -1.784 -4 -4 z" opacity="0.1"/></g><g><rect width="46" height="46" x="-47" y="1" rx="4" transform="matrix(0,-1,1,0,0,0)" fill="url(#linearGradient3764)" fill-opacity="1"/></g><g><g clip-path="url(#clipPath-691192131)"><g opacity="0.1"><!-- color: #24a7e1 --><path d="m 18 15 c -1.729 0 -3.485 0.591 -4.813 1.813 c -1.327 1.222 -2.188 3.094 -2.188 5.406 l 0 7.781 a 0.989 0.989 0 1 0 1.969 0 l 0 -7.781 c 0 -1.835 0.638 -3.086 1.563 -3.938 0.925 -0.851 2.195 -1.313 3.469 -1.313 1.274 0 2.544 0.461 3.469 1.313 c 0.925 0.851 1.531 2.103 1.531 3.938 l 0 7.781 a 1 1 0 0 0 2 0 l 0 -7.781 c 0 -1.835 0.606 -3.086 1.531 -3.938 0.925 -0.851 2.195 -1.313 3.469 -1.313 1.274 0 2.544 0.461 3.469 1.313 0.925 0.851 1.563 2.103 1.563 3.938 l 0 7.781 a 0.989 0.989 0 1 0 1.969 0 l 0 -7.781 c 0 -2.312 -0.86 -4.184 -2.188 -5.406 -1.327 -1.222 -3.084 -1.813 -4.813 -1.813 -1.729 0 -3.454 0.591 -4.781 1.813 -0.509 0.468 -0.868 1.105 -1.219 1.75 -0.351 -0.645 -0.71 -1.282 -1.219 -1.75 -1.327 -1.222 -3.052 -1.813 -4.781 -1.813 z" color="#000" fill="#000"/></g></g></g><g><g clip-path="url(#clipPath-705149217)"><g transform="translate(0,-1)"><!-- color: #24a7e1 --><path d="m 18 15 c -1.729 0 -3.485 0.591 -4.813 1.813 c -1.327 1.222 -2.188 3.094 -2.188 5.406 l 0 7.781 a 0.989 0.989 0 1 0 1.969 0 l 0 -7.781 c 0 -1.835 0.638 -3.086 1.563 -3.938 0.925 -0.851 2.195 -1.313 3.469 -1.313 1.274 0 2.544 0.461 3.469 1.313 c 0.925 0.851 1.531 2.103 1.531 3.938 l 0 7.781 a 1 1 0 0 0 2 0 l 0 -7.781 c 0 -1.835 0.606 -3.086 1.531 -3.938 0.925 -0.851 2.195 -1.313 3.469 -1.313 1.274 0 2.544 0.461 3.469 1.313 0.925 0.851 1.563 2.103 1.563 3.938 l 0 7.781 a 0.989 0.989 0 1 0 1.969 0 l 0 -7.781 c 0 -2.312 -0.86 -4.184 -2.188 -5.406 -1.327 -1.222 -3.084 -1.813 -4.813 -1.813 -1.729 0 -3.454 0.591 -4.781 1.813 -0.509 0.468 -0.868 1.105 -1.219 1.75 -0.351 -0.645 -0.71 -1.282 -1.219 -1.75 -1.327 -1.222 -3.052 -1.813 -4.781 -1.813 z" color="#000" fill="#fff"/></g></g></g><g><g transform="translate(0,-1004.3622)"><path d="m 1 1043.36 0 4 c 0 2.216 1.784 4 4 4 l 38 0 c 2.216 0 4 -1.784 4 -4 l 0 -4 c 0 2.216 -1.784 4 -4 4 l -38 0 c -2.216 0 -4 -1.784 -4 -4 z" opacity="0.1"/></g></g></svg>