<svg viewBox="0 0 48 48"><defs><linearGradient id="linearGradient3764" x1="1" x2="47" gradientUnits="userSpaceOnUse" gradientTransform="translate(-48.000001,0.00221467)"><stop stop-color="#e35635" stop-opacity="1"/><stop offset="1" stop-color="#e56447" stop-opacity="1"/></linearGradient><clipPath id="clipPath-363502482"><g transform="translate(0,-1004.3622)"><rect rx="4" y="1005.36" x="1" height="46" width="46" fill="#1890d0"/></g></clipPath><clipPath id="clipPath-376692298"><g transform="translate(0,-1004.3622)"><rect rx="4" y="1005.36" x="1" height="46" width="46" fill="#1890d0"/></g></clipPath></defs><g><path d="m 1 43 l 0 0.25 c 0 2.216 1.784 4 4 4 l 38 0 c 2.216 0 4 -1.784 4 -4 l 0 -0.25 c 0 2.216 -1.784 4 -4 4 l -38 0 c -2.216 0 -4 -1.784 -4 -4 z m 0 0.5 l 0 0.5 c 0 2.216 1.784 4 4 4 l 38 0 c 2.216 0 4 -1.784 4 -4 l 0 -0.5 c 0 2.216 -1.784 4 -4 4 l -38 0 c -2.216 0 -4 -1.784 -4 -4 z" opacity="0.02"/><path d="m 1 43.25 l 0 0.25 c 0 2.216 1.784 4 4 4 l 38 0 c 2.216 0 4 -1.784 4 -4 l 0 -0.25 c 0 2.216 -1.784 4 -4 4 l -38 0 c -2.216 0 -4 -1.784 -4 -4 z" opacity="0.05"/><path d="m 1 43 l 0 0.25 c 0 2.216 1.784 4 4 4 l 38 0 c 2.216 0 4 -1.784 4 -4 l 0 -0.25 c 0 2.216 -1.784 4 -4 4 l -38 0 c -2.216 0 -4 -1.784 -4 -4 z" opacity="0.1"/></g><g><rect width="46" height="46" x="-47" y="1" rx="4" transform="matrix(0,-1,1,0,0,0)" fill="url(#linearGradient3764)" fill-opacity="1"/></g><g><g clip-path="url(#clipPath-363502482)"><g opacity="0.1"><!-- color: #e56447 --><g><path d="m 25.84 13 c -2.172 0.109 -4.602 -0.102 -6.418 1.324 c -2.977 2.18 -2.926 7.219 0.082 9.352 c 2.105 1.645 4.828 2.297 6.871 4.04 c 0.633 0.977 0.523 2.43 -0.434 3.164 c -2.129 1.051 -5.059 0.488 -6.922 -0.609 c -1.188 0.043 -1.617 1.52 -2.02 2.41 c 0.09 1.078 1.359 1.297 2.188 1.637 c 2.301 0.793 4.852 0.918 7.203 0.258 c 2.488 -1.117 4.742 -3.688 4.602 -6.117 c 0.047 -1.254 -0.594 -2.344 -1.375 -3.273 c -0.949 -1.453 -2.582 -2.191 -4.07 -2.965 c -1.23 -0.633 -2.527 -1.195 -3.598 -2.074 c -1.105 -1.215 -0.258 -3.527 1.426 -3.637 c 1.152 -0.207 2.32 0.027 3.441 0.285 c 0.844 0.711 2.383 0.59 2.59 -0.625 c 0.805 -0.738 -0.129 -1.445 -0.797 -1.785 c -1.063 -0.449 -2.254 -0.273 -3.375 -0.305 c -1.254 0.074 -2.578 0.441 -3.445 1.395 c -0.063 0.887 -1.445 2.305 -2.023 1.047 c -0.219 -1.289 1.285 -1.816 2.285 -2.082 c 1.281 -0.438 2.547 -0.91 3.789 -1.438 m 0 0" fill="#000"/></g></g></g></g><g><g clip-path="url(#clipPath-376692298)"><g transform="translate(0,-1)"><!-- color: #e56447 --><g><path d="m 25.84 13 c -2.172 0.109 -4.602 -0.102 -6.418 1.324 c -2.977 2.18 -2.926 7.219 0.082 9.352 c 2.105 1.645 4.828 2.297 6.871 4.04 c 0.633 0.977 0.523 2.43 -0.434 3.164 c -2.129 1.051 -5.059 0.488 -6.922 -0.609 c -1.188 0.043 -1.617 1.52 -2.02 2.41 c 0.09 1.078 1.359 1.297 2.188 1.637 c 2.301 0.793 4.852 0.918 7.203 0.258 c 2.488 -1.117 4.742 -3.688 4.602 -6.117 c 0.047 -1.254 -0.594 -2.344 -1.375 -3.273 c -0.949 -1.453 -2.582 -2.191 -4.07 -2.965 c -1.23 -0.633 -2.527 -1.195 -3.598 -2.074 c -1.105 -1.215 -0.258 -3.527 1.426 -3.637 c 1.152 -0.207 2.32 0.027 3.441 0.285 c 0.844 0.711 2.383 0.59 2.59 -0.625 c 0.805 -0.738 -0.129 -1.445 -0.797 -1.785 c -1.063 -0.449 -2.254 -0.273 -3.375 -0.305 c -1.254 0.074 -2.578 0.441 -3.445 1.395 c -0.063 0.887 -1.445 2.305 -2.023 1.047 c -0.219 -1.289 1.285 -1.816 2.285 -2.082 c 1.281 -0.438 2.547 -0.91 3.789 -1.438 m 0 0" fill="#fff"/></g></g></g></g><g><g transform="translate(0,-1004.3622)"><path d="m 1 1043.36 0 4 c 0 2.216 1.784 4 4 4 l 38 0 c 2.216 0 4 -1.784 4 -4 l 0 -4 c 0 2.216 -1.784 4 -4 4 l -38 0 c -2.216 0 -4 -1.784 -4 -4 z" opacity="0.1"/></g></g></svg>