<?xml version="1.0" encoding="UTF-8" standalone="no"?>
<!-- Created with Inkscape (http://www.inkscape.org/) -->

<svg
   xmlns:dc="http://purl.org/dc/elements/1.1/"
   xmlns:cc="http://creativecommons.org/ns#"
   xmlns:rdf="http://www.w3.org/1999/02/22-rdf-syntax-ns#"
   xmlns:svg="http://www.w3.org/2000/svg"
   xmlns="http://www.w3.org/2000/svg"
   xmlns:xlink="http://www.w3.org/1999/xlink"
   xmlns:sodipodi="http://sodipodi.sourceforge.net/DTD/sodipodi-0.dtd"
   xmlns:inkscape="http://www.inkscape.org/namespaces/inkscape"
   width="48"
   height="48"
   id="svg2"
   version="1.1"
   inkscape:version="0.48.5 r10040"
   sodipodi:docname="com_android_music.svg"
   inkscape:export-filename="/media/Data/Main/Visuals/Icons/Numix/Desktop/repos/Android/Hexagon/com_android_music.png"
   inkscape:export-xdpi="360"
   inkscape:export-ydpi="360">
  <defs
     id="defs4">
    <linearGradient
       id="linearGradient4226">
      <stop
         style="stop-color:#1890d0;stop-opacity:1;"
         offset="0"
         id="stop4228" />
      <stop
         style="stop-color:#2face6;stop-opacity:1;"
         offset="1"
         id="stop4230" />
    </linearGradient>
    <linearGradient
       inkscape:collect="always"
       xlink:href="#linearGradient4226"
       id="linearGradient4116"
       x1="86.596764"
       y1="1046.0466"
       x2="86.596764"
       y2="1010.7034"
       gradientUnits="userSpaceOnUse"
       gradientTransform="matrix(1.3211884,0,0,1.2988368,-222.59905,-210.30838)" />
    <linearGradient
       id="4-2-8">
      <stop
         stop-color="#eff7fc"
         id="stop67-0" />
      <stop
         offset="1"
         stop-color="#ffffff"
         id="stop69-2" />
    </linearGradient>
    <linearGradient
       inkscape:collect="always"
       xlink:href="#linearGradient4226"
       id="linearGradient4036"
       gradientUnits="userSpaceOnUse"
       gradientTransform="matrix(1.2582749,0,0,1.2423656,-217.64202,-151.23565)"
       x1="86.596764"
       y1="1046.0466"
       x2="86.596764"
       y2="1010.7034" />
    <linearGradient
       inkscape:collect="always"
       xlink:href="#linearGradient4226"
       id="linearGradient4038"
       gradientUnits="userSpaceOnUse"
       gradientTransform="matrix(1.2582749,0,0,1.2423656,-75.14202,-1253.5979)"
       x1="86.596764"
       y1="1046.0466"
       x2="86.596764"
       y2="1010.7034" />
    <linearGradient
       inkscape:collect="always"
       xlink:href="#linearGradient4226"
       id="linearGradient4045"
       gradientUnits="userSpaceOnUse"
       gradientTransform="matrix(1.2582749,0,0,1.2423656,-217.64202,-150.23565)"
       x1="86.596764"
       y1="1046.0466"
       x2="86.596764"
       y2="1010.7034" />
    <linearGradient
       inkscape:collect="always"
       xlink:href="#linearGradient4226"
       id="linearGradient4047"
       gradientUnits="userSpaceOnUse"
       gradientTransform="matrix(1.2582749,0,0,1.2423656,-75.14202,-1253.5979)"
       x1="86.596764"
       y1="1046.0466"
       x2="86.596764"
       y2="1010.7034" />
    <linearGradient
       inkscape:collect="always"
       xlink:href="#linearGradient4226"
       id="linearGradient4054"
       gradientUnits="userSpaceOnUse"
       gradientTransform="matrix(1.2582749,0,0,1.2423656,-217.64202,-149.23565)"
       x1="86.596764"
       y1="1046.0466"
       x2="86.596764"
       y2="1010.7034" />
    <linearGradient
       inkscape:collect="always"
       xlink:href="#linearGradient4226"
       id="linearGradient4056"
       gradientUnits="userSpaceOnUse"
       gradientTransform="matrix(1.2582749,0,0,1.2423656,-75.14202,-1253.5979)"
       x1="86.596764"
       y1="1046.0466"
       x2="86.596764"
       y2="1010.7034" />
    <linearGradient
       inkscape:collect="always"
       xlink:href="#linearGradient4226-1"
       id="linearGradient4116-5"
       x1="86.596764"
       y1="1046.0466"
       x2="86.596764"
       y2="1010.7034"
       gradientUnits="userSpaceOnUse"
       gradientTransform="matrix(1.3211884,0,0,1.2988368,-222.59905,-210.30838)" />
    <linearGradient
       id="linearGradient4226-1">
      <stop
         style="stop-color:#1890d0;stop-opacity:1;"
         offset="0"
         id="stop4228-4" />
      <stop
         style="stop-color:#2face6;stop-opacity:1;"
         offset="1"
         id="stop4230-9" />
    </linearGradient>
    <linearGradient
       y2="1010.7034"
       x2="86.596764"
       y1="1046.0466"
       x1="86.596764"
       gradientTransform="matrix(1.3211884,0,0,1.2988368,-80.099051,-1311.6706)"
       gradientUnits="userSpaceOnUse"
       id="linearGradient4088"
       xlink:href="#linearGradient4226-1"
       inkscape:collect="always" />
    <linearGradient
       y2="1010.7034"
       x2="86.596764"
       y1="1046.0466"
       x1="86.596764"
       gradientTransform="matrix(1.3211884,0,0,1.2988368,-80.099051,-1311.6706)"
       gradientUnits="userSpaceOnUse"
       id="linearGradient4088-8"
       xlink:href="#linearGradient4226-1-1"
       inkscape:collect="always" />
    <linearGradient
       id="linearGradient4226-1-1">
      <stop
         style="stop-color:#1890d0;stop-opacity:1;"
         offset="0"
         id="stop4228-4-0" />
      <stop
         style="stop-color:#2face6;stop-opacity:1;"
         offset="1"
         id="stop4230-9-5" />
    </linearGradient>
    <linearGradient
       y2="1010.7034"
       x2="86.596764"
       y1="1046.0466"
       x1="86.596764"
       gradientTransform="matrix(1.3211884,0,0,1.2988368,-80.099051,-1311.6706)"
       gradientUnits="userSpaceOnUse"
       id="linearGradient4122"
       xlink:href="#linearGradient4226-1-1"
       inkscape:collect="always" />
    <linearGradient
       y2="1010.7034"
       x2="86.596764"
       y1="1046.0466"
       x1="86.596764"
       gradientTransform="matrix(1.3211884,0,0,1.2988368,-80.099051,-1311.6706)"
       gradientUnits="userSpaceOnUse"
       id="linearGradient4122-9"
       xlink:href="#linearGradient4226-1-1-6"
       inkscape:collect="always" />
    <linearGradient
       id="linearGradient4226-1-1-6">
      <stop
         style="stop-color:#1890d0;stop-opacity:1;"
         offset="0"
         id="stop4228-4-0-7" />
      <stop
         style="stop-color:#2face6;stop-opacity:1;"
         offset="1"
         id="stop4230-9-5-7" />
    </linearGradient>
    <linearGradient
       y2="1010.7034"
       x2="86.596764"
       y1="1046.0466"
       x1="86.596764"
       gradientTransform="matrix(1.3211884,0,0,1.2988368,-222.59905,-210.3084)"
       gradientUnits="userSpaceOnUse"
       id="linearGradient4173"
       xlink:href="#linearGradient3798-7"
       inkscape:collect="always" />
    <linearGradient
       inkscape:collect="always"
       xlink:href="#linearGradient4226-1-1-6"
       id="linearGradient4232"
       gradientUnits="userSpaceOnUse"
       gradientTransform="matrix(1.3211884,0,0,1.2988368,-222.59905,-209.3084)"
       x1="86.596764"
       y1="1046.0466"
       x2="86.596764"
       y2="1010.7034" />
    <linearGradient
       inkscape:collect="always"
       xlink:href="#linearGradient4226-1-1-6"
       id="linearGradient4234"
       gradientUnits="userSpaceOnUse"
       gradientTransform="matrix(1.3211884,0,0,1.2988368,-80.09905,-1311.6706)"
       x1="86.596764"
       y1="1046.0466"
       x2="86.596764"
       y2="1010.7034" />
    <linearGradient
       inkscape:collect="always"
       xlink:href="#linearGradient4226-1-1-6"
       id="linearGradient4241"
       gradientUnits="userSpaceOnUse"
       gradientTransform="matrix(1.3211884,0,0,1.2988368,-222.59905,-208.3084)"
       x1="86.596764"
       y1="1046.0466"
       x2="86.596764"
       y2="1010.7034" />
    <linearGradient
       inkscape:collect="always"
       xlink:href="#linearGradient4226-1-1-6"
       id="linearGradient4243"
       gradientUnits="userSpaceOnUse"
       gradientTransform="matrix(1.3211884,0,0,1.2988368,-80.09905,-1311.6706)"
       x1="86.596764"
       y1="1046.0466"
       x2="86.596764"
       y2="1010.7034" />
    <filter
       inkscape:collect="always"
       id="filter3823"
       x="-0.12"
       width="1.24"
       y="-0.12"
       height="1.24">
      <feGaussianBlur
         inkscape:collect="always"
         stdDeviation="0.9"
         id="feGaussianBlur3825" />
    </filter>
    <linearGradient
       inkscape:collect="always"
       xlink:href="#linearGradient4073"
       id="linearGradient4079"
       x1="-25.499998"
       y1="15"
       x2="-25.499998"
       y2="11"
       gradientUnits="userSpaceOnUse" />
    <linearGradient
       id="linearGradient4073">
      <stop
         style="stop-color:#4283e5;stop-opacity:1;"
         offset="0"
         id="stop4075" />
      <stop
         style="stop-color:#6ca4f8;stop-opacity:1;"
         offset="1"
         id="stop4077" />
    </linearGradient>
    <linearGradient
       y2="11"
       x2="-25.499998"
       y1="15"
       x1="-25.499998"
       gradientUnits="userSpaceOnUse"
       id="linearGradient3272"
       xlink:href="#linearGradient4073"
       inkscape:collect="always" />
    <filter
       inkscape:collect="always"
       id="filter3853"
       x="-0.12"
       width="1.24"
       y="-0.12"
       height="1.24">
      <feGaussianBlur
         inkscape:collect="always"
         stdDeviation="0.33866666"
         id="feGaussianBlur3855" />
    </filter>
    <linearGradient
       inkscape:collect="always"
       xlink:href="#linearGradient4073-2"
       id="linearGradient4075"
       x1="24"
       y1="1051.36"
       x2="24"
       y2="1005.36"
       gradientUnits="userSpaceOnUse" />
    <linearGradient
       id="linearGradient4073-2">
      <stop
         style="stop-color:#aa8479;stop-opacity:1;"
         offset="0"
         id="stop4075-2" />
      <stop
         style="stop-color:#c19d93;stop-opacity:1;"
         offset="1"
         id="stop4077-5" />
    </linearGradient>
    <linearGradient
       inkscape:collect="always"
       xlink:href="#linearGradient4073-2"
       id="linearGradient4029"
       x1="24"
       y1="1051.36"
       x2="24"
       y2="1005.36"
       gradientUnits="userSpaceOnUse" />
    <linearGradient
       id="linearGradient4031">
      <stop
         style="stop-color:#aa8479;stop-opacity:1;"
         offset="0"
         id="stop4033" />
      <stop
         style="stop-color:#c19d93;stop-opacity:1;"
         offset="1"
         id="stop4035" />
    </linearGradient>
    <linearGradient
       y2="1005.36"
       x2="24"
       y1="1051.36"
       x1="24"
       gradientUnits="userSpaceOnUse"
       id="linearGradient4041"
       xlink:href="#linearGradient4073-2"
       inkscape:collect="always" />
    <linearGradient
       inkscape:collect="always"
       xlink:href="#linearGradient3798-7"
       id="linearGradient4033"
       x1="-27"
       y1="13"
       x2="-24"
       y2="13"
       gradientUnits="userSpaceOnUse" />
    <linearGradient
       id="linearGradient3798-7">
      <stop
         style="stop-color:#fd9732;stop-opacity:1;"
         offset="0"
         id="stop3800-5" />
      <stop
         style="stop-color:#ffaa56;stop-opacity:1;"
         offset="1"
         id="stop3802-3" />
    </linearGradient>
    <filter
       inkscape:collect="always"
       id="filter3972"
       x="-0.11999933"
       width="1.2399987"
       y="-0.12000067"
       height="1.2400013">
      <feGaussianBlur
         inkscape:collect="always"
         stdDeviation="0.36688678"
         id="feGaussianBlur3974" />
    </filter>
  </defs>
  <sodipodi:namedview
     id="base"
     pagecolor="#ffffff"
     bordercolor="#666666"
     borderopacity="1.0"
     inkscape:pageopacity="0.0"
     inkscape:pageshadow="2"
     inkscape:zoom="25.888745"
     inkscape:cx="-6.8971522"
     inkscape:cy="9.4759801"
     inkscape:document-units="px"
     inkscape:current-layer="layer2"
     showgrid="true"
     inkscape:window-width="1920"
     inkscape:window-height="1052"
     inkscape:window-x="0"
     inkscape:window-y="28"
     inkscape:window-maximized="1"
     showguides="true"
     inkscape:guide-bbox="true"
     inkscape:showpageshadow="false"
     borderlayer="true"
     fit-margin-top="0"
     fit-margin-left="0"
     fit-margin-right="0"
     fit-margin-bottom="0">
    <inkscape:grid
       type="xygrid"
       id="grid3009"
       empspacing="5"
       visible="true"
       enabled="true"
       snapvisiblegridlinesonly="true" />
  </sodipodi:namedview>
  <metadata
     id="metadata7">
    <rdf:RDF>
      <cc:Work
         rdf:about="">
        <dc:format>image/svg+xml</dc:format>
        <dc:type
           rdf:resource="http://purl.org/dc/dcmitype/StillImage" />
        <dc:title></dc:title>
      </cc:Work>
    </rdf:RDF>
  </metadata>
  <g
     inkscape:groupmode="layer"
     id="layer3"
     inkscape:label="Shadow"
     sodipodi:insensitive="true">
    <path
       style="opacity:0.05;fill:#000000;fill-opacity:1;stroke:none;display:inline"
       d="m 45,33 c 0.056,1.0126 -0.195947,2.0557 -0.75,3 -0.531645,0.9035 -1.283268,1.6029 -2.15625,2.0625 l -15.25,8.65625 C 26.01135,47.21605 25.04515,47.5 24,47.5 c -1.04515,0 -2.01134,-0.28395 -2.84375,-0.78125 L 5.90625,38.0625 C 5.03328,37.6029 4.28165,36.9035 3.75,36 3.334485,35.291775 3.0731859,34.514827 3,33.75 c -0.00444,0.932053 0.2421483,1.884392 0.75,2.75 0.53165,0.9035 1.28328,1.6029 2.15625,2.0625 l 15.25,8.65625 C 21.98866,47.71605 22.95485,48 24,48 c 1.04515,0 2.01135,-0.28395 2.84375,-0.78125 l 15.25,-8.65625 C 42.966729,38.1029 43.71836,37.4035 44.25,36.5 44.80406,35.5557 45.056,34.5126 45,33.5 L 45,33 z"
       id="path4192"
       inkscape:connector-curvature="0" />
    <path
       style="opacity:0.1;fill:#000000;fill-opacity:1;stroke:none;display:inline"
       d="m 45,32.5 c 0.01455,0.263023 -0.0043,0.516377 -0.03125,0.78125 -0.03552,0.844289 -0.258957,1.685102 -0.71875,2.46875 -0.531645,0.9035 -1.283268,1.6029 -2.15625,2.0625 l -15.25,8.65625 C 26.01135,46.96605 25.04515,47.25 24,47.25 c -1.04515,0 -2.01134,-0.28395 -2.84375,-0.78125 L 5.90625,37.8125 C 5.03328,37.3529 4.28165,36.6535 3.75,35.75 3.3363246,35.044911 3.1287635,34.289789 3.0625,33.53125 3.0486732,33.439204 3.0088198,33.342171 3,33.25 c -0.00444,0.932053 0.2421483,1.884392 0.75,2.75 0.53165,0.9035 1.28328,1.6029 2.15625,2.0625 l 15.25,8.65625 C 21.98866,47.21605 22.95485,47.5 24,47.5 c 1.04515,0 2.01135,-0.28395 2.84375,-0.78125 l 15.25,-8.65625 C 42.966732,37.6029 43.718355,36.9035 44.25,36 44.804053,35.0557 45.055998,34.0126 45,33 l 0,-0.5 z M 3.1875,34.125 c 0.05727,0.21935 0.1315049,0.441696 0.21875,0.65625 C 3.3181613,34.565646 3.2464767,34.345613 3.1875,34.125 z m 0.21875,0.65625 C 3.5049616,35.024002 3.6121448,35.265033 3.75,35.5 3.611495,35.263925 3.5069228,35.027655 3.40625,34.78125 z M 44.8125,34.125 c -0.05896,0.220613 -0.130674,0.440646 -0.21875,0.65625 0.08724,-0.214554 0.161483,-0.4369 0.21875,-0.65625 z m -0.21875,0.65625 C 44.493091,35.027655 44.388513,35.263925 44.25,35.5 c 0.137863,-0.234967 0.245041,-0.475998 0.34375,-0.71875 z"
       id="path4150"
       inkscape:connector-curvature="0" />
    <path
       inkscape:connector-curvature="0"
       style="opacity:0.2;fill:#000000;fill-opacity:1;stroke:none;display:inline"
       d="m 3.0309365,33.28125 c 0.035454,0.844289 0.2589842,1.685102 0.71875,2.46875 0.53165,0.9035 1.28328,1.6029 2.15625,2.0625 l 15.2499995,8.65625 c 0.83241,0.4973 1.7986,0.78125 2.84375,0.78125 1.04515,0 2.01135,-0.28395 2.84375,-0.78125 l 15.25,-8.65625 c 0.872982,-0.4596 1.624605,-1.159 2.15625,-2.0625 0.459793,-0.783648 0.68323,-1.624461 0.71875,-2.46875 -0.06742,0.76297 -0.30321,1.510525 -0.71875,2.21875 -0.531645,0.9035 -1.283268,1.6029 -2.15625,2.0625 l -15.25,8.65625 C 26.011036,46.71605 25.044836,47 23.999686,47 c -1.04515,0 -2.01134,-0.28395 -2.84375,-0.78125 L 5.9059365,37.5625 c -0.87297,-0.4596 -1.6246,-1.159 -2.15625,-2.0625 -0.415515,-0.708225 -0.6513578,-1.45578 -0.71875,-2.21875 z"
       id="path4141" />
  </g>
  <g
     inkscape:label="Base"
     inkscape:groupmode="layer"
     id="layer1"
     transform="translate(142.5,-1101.3622)">
    <rect
       style="fill:none;stroke:none"
       id="rect3259"
       width="47.994476"
       height="47.994476"
       x="-142.49724"
       y="1101.3676" />
    <path
       sodipodi:nodetypes="sccccccccsccccccccs"
       style="fill:url(#linearGradient4173);fill-opacity:1.0;stroke:none;display:inline"
       d="m -118.49992,1102.3662 c -1.04516,0 -2.02343,0.2872 -2.85582,0.7844 l -15.33869,8.7079 c -0.0173,0.013 -0.0346,0.013 -0.0517,0.021 -1.85189,1.051 -2.84681,3.0013 -2.74567,4.9676 l 0,17.0231 c -0.0562,1.0126 0.17538,2.0491 0.7294,2.9934 0.53165,0.9035 1.28783,1.6017 2.1608,2.0613 l 15.24578,8.6528 c 0.83241,0.4973 1.81067,0.7845 2.85582,0.7845 1.04515,0 2.02341,-0.2872 2.85581,-0.7845 l 15.24579,-8.6528 c 0.872979,-0.4596 1.629149,-1.1578 2.160789,-2.0613 0.55406,-0.9443 0.78542,-1.9808 0.72942,-2.9934 l 0,-17.0134 c 0.0562,-1.0123 -0.17536,-2.0515 -0.72942,-2.9932 -0.53164,-0.9062 -1.28781,-1.6042 -2.160789,-2.0638 l -15.24579,-8.6531 c -0.8324,-0.4973 -1.81066,-0.7845 -2.85581,-0.7845 z"
       id="path4071"
       inkscape:connector-curvature="0" />
    <path
       style="fill:#000000;fill-opacity:1;stroke:none;display:inline;opacity:0.1"
       d="M 24 1 C 22.95484 1 21.98864 1.28405 21.15625 1.78125 L 5.8125 10.5 C 5.7952 10.513 5.7671 10.52325 5.75 10.53125 C 3.89811 11.58225 2.89886 13.5337 3 15.5 L 3 17.5 C 2.89886 15.5337 3.89811 13.58225 5.75 12.53125 C 5.7671 12.52325 5.7952 12.513 5.8125 12.5 L 21.15625 3.78125 C 21.98864 3.28405 22.95484 3 24 3 C 25.04515 3 26.01135 3.28395 26.84375 3.78125 L 42.09375 12.4375 C 42.966729 12.8971 43.71836 13.5938 44.25 14.5 C 44.80406 15.4417 45.0562 16.4877 45 17.5 L 45 15.5 C 45.0562 14.4877 44.80406 13.4417 44.25 12.5 C 43.71836 11.5938 42.966729 10.8971 42.09375 10.4375 L 26.84375 1.78125 C 26.01135 1.28395 25.04515 1 24 1 z "
       transform="translate(-142.5,1101.3622)"
       id="path4237" />
  </g>
  <g
     inkscape:groupmode="layer"
     id="layer2"
     inkscape:label="Symbol">
    <g
       id="g4130"
       style="opacity:0.20000000000000001;fill:#000000;fill-opacity:1;filter:url(#filter3972)"
       transform="matrix(3.543307,0,0,3.543307,-4.8261314e-4,0.99999989)">
      <path
         inkscape:connector-curvature="0"
         id="path4120"
         d="m 3.9512735,9.3115128 -0.2124064,0 -0.2124062,0 c -0.0116,-0.0124 -0.1112234,-0.51549 -0.2213819,-1.08744 -0.1140744,-0.4819 -0.2002438,-1.23615 -0.2004969,-1.72889 -2.33e-4,-0.45779 0.029041,-0.93301 0.159633,-1.33617 0.3076125,-0.94967 1.0550038,-1.73864 1.9985372,-2.10972 0.1154936,-0.0454 0.3449857,-0.1142 0.5099809,-0.15284 0.515576,-0.10978 1.5095301,-0.0849 1.9739495,-0.008 0.7108809,0.16496 1.2107835,0.43728 1.702437,0.92741 0.4998958,0.49835 0.7910363,1.03319 0.9421973,1.73088 0.04343,0.20044 0.05137,0.5862 0.05103,0.9489 10e-6,0.56031 -0.104373,1.24954 -0.196973,1.72875 -0.108117,0.55952 -0.20543,1.06879 -0.216249,1.08744 l -0.4334603,0 -1.4111542,-0.84599 1.5940403,-0.79973 c 0.024021,-0.024 0.085294,-0.76368 0.099345,-0.96112 0.01145,-0.16094 0.025382,-0.19702 0,-0.21303 -0.01753,-0.0111 -0.1460546,1.9e-4 -0.2856048,0 -0.2788573,0 -0.2788573,0 -0.2788573,-0.28199 9.31e-5,-2.96827 -5.0893388,-3.02401 -5.079929,-1.4e-4 0,0.28199 0,0.28199 -0.2425979,0.28199 l -0.3218641,0 0.0036,0.19583 c 0.00351,0.19078 0.077668,0.94691 0.1092923,0.97846 l 1.5804937,0.79973 z"
         style="fill:#000000;fill-opacity:1"
         sodipodi:nodetypes="cccccssccsccccccccccccccsccc" />
      <path
         style="fill:#000000;fill-opacity:1"
         d="m 4.8153995,7.2318028 c -0.051177,0.002 -0.1038927,0.006 -0.158755,0.0264 -0.3282973,0.10799 -0.5316664,0.2187 -0.8731522,0.40537 l 0.1675748,1.64791 0.061738,0.37893 c 0.06261,0.3172102 0.079193,0.3686202 0.1322957,0.4141802 0.059334,0.0509 0.07315,0.0529 0.6085606,0.0529 l 0.3527888,0 c 0.2712267,-0.009 0.3118312,-0.0432 0.4057073,-0.14982 C 5.6528977,9.8477933 5.6551482,9.8746833 5.4239605,8.6505728 5.2856332,7.9181528 5.2007096,7.5107028 5.1681886,7.4432828 5.0978216,7.2974328 4.968931,7.2259028 4.8153999,7.2317928 z"
         id="path4122"
         inkscape:connector-curvature="0"
         sodipodi:nodetypes="scccccscsscs" />
      <path
         id="path4124"
         d="m 8.6963849,7.2318028 c 0.051177,0.002 0.1038926,0.006 0.1587549,0.0264 0.3686542,0.0596 0.5820181,0.22089 0.9235038,0.40756 l -0.1828857,1.64572 -0.060398,0.38069 c -0.034795,0.3172102 -0.083125,0.3853902 -0.1362259,0.4309402 -0.059334,0.0509 -0.1056006,0.0343 -0.6410112,0.0343 l -0.3527888,0 c -0.2712265,-0.009 -0.3118311,-0.0432 -0.405707,-0.14981 C 7.8588865,9.8477233 7.856636,9.8746133 8.087824,8.6505028 c 0.1383274,-0.73242 0.223251,-1.13987 0.2557719,-1.20729 0.098482,-0.1652634 0.229551,-0.2112731 0.352789,-0.21141 z"
         style="fill:#000000;fill-opacity:1"
         inkscape:connector-curvature="0"
         sodipodi:nodetypes="ccccccscsscc" />
      <path
         style="fill:#000000;fill-opacity:1;stroke:none"
         d="m 15,26.320949 c -1,0.469079 -1,0.511528 -1.59375,0.835301 L 12,30 l 2,3 0.21875,1.34375 c 0.221846,1.123973 0.280591,1.307317 0.46875,1.46875 C 14.897739,35.992854 14.946626,36 16.84375,36 L 17,36 z"
         transform="scale(0.28222223,0.28222223)"
         id="path4126"
         inkscape:connector-curvature="0"
         sodipodi:nodetypes="ccccccscc" />
      <path
         style="fill:#000000;fill-opacity:1;stroke:none"
         d="M 33,26.243786 31,36 l 0.03125,0 1.78125,0 c 0.304405,-0.0078 0.394881,-0.03482 0.5,-0.125 0.188153,-0.161398 0.345461,-0.407277 0.46875,-1.53125 L 34,33 36,30 34.65625,27.15625 C 33.603628,26.580844 34,26.734511 33,26.243786 z"
         transform="scale(0.28222223,0.28222223)"
         id="path4128"
         inkscape:connector-curvature="0"
         sodipodi:nodetypes="cccccccccc" />
    </g>
    <path
       inkscape:connector-curvature="0"
       id="path3393"
       d="m 14.000092,32.993548 -0.752621,0 -0.75262,0 c -0.0411,-0.04394 -0.394099,-1.826539 -0.784424,-3.853134 -0.404201,-1.707519 -0.709525,-4.380059 -0.710422,-6.125988 -8.26e-4,-1.62209 0.102901,-3.305941 0.565629,-4.73446 1.089965,-3.364973 3.738202,-6.160536 7.081431,-7.475386 0.409229,-0.160866 1.22239,-0.404646 1.807018,-0.541559 1.826844,-0.3889842 5.348729,-0.3008267 6.994309,-0.02835 2.51887,0.584504 4.290178,1.549417 6.032257,3.286098 1.771285,1.765807 2.802885,3.66091 3.338495,6.133039 0.153885,0.710221 0.182019,2.077087 0.180815,3.362244 3.5e-5,1.985351 -0.369826,4.427504 -0.697936,6.125492 -0.383092,1.982551 -0.727902,3.787051 -0.766237,3.853134 l -1.535883,0 -5.000152,-2.997602 5.648174,-2.833689 c 0.08511,-0.08504 0.302223,-2.705953 0.35201,-3.405543 0.04057,-0.57026 0.08994,-0.698103 0,-0.754831 -0.06211,-0.03933 -0.517517,6.73e-4 -1.011986,0 -0.988077,0 -0.988077,0 -0.988077,-0.999177 3.3e-4,-10.517492 -18.03309,-10.714996 -17.999748,-4.96e-4 0,0.999177 0,0.999177 -0.859599,0.999177 l -1.140463,0 0.01276,0.693886 c 0.01244,0.675992 0.275202,3.355192 0.387256,3.466984 l 5.600175,2.833689 z"
       style="fill:#ffe4c9;fill-opacity:1"
       sodipodi:nodetypes="cccccssccsccccccccccccccsccc" />
    <path
       style="fill:#816743;fill-opacity:1"
       d="m 17.061956,25.624497 c -0.181336,0.0071 -0.368124,0.02126 -0.562518,0.09354 -1.163258,0.382642 -1.883857,0.774922 -3.093846,1.436351 l 0.593769,5.839051 0.218757,1.342665 c 0.221846,1.123973 0.280605,1.306135 0.468764,1.467568 0.210239,0.180354 0.259193,0.187441 2.156317,0.187441 l 1.250039,0 c 0.96104,-0.03189 1.104914,-0.153068 1.437546,-0.530856 0.498685,-0.566502 0.50666,-0.471223 -0.312509,-4.808622 -0.490136,-2.595189 -0.791047,-4.03891 -0.906279,-4.277799 -0.249332,-0.516792 -0.706031,-0.770244 -1.250038,-0.749374 z"
       id="path4061"
       inkscape:connector-curvature="0"
       sodipodi:nodetypes="scccccscsscs" />
    <path
       id="path4083"
       d="m 30.813479,25.624497 c 0.181336,0.0071 0.368123,0.02126 0.562517,0.09354 1.306255,0.211182 2.062269,0.782682 3.272258,1.444111 l -0.64802,5.831291 -0.214009,1.348901 c -0.123289,1.123973 -0.294538,1.365556 -0.48269,1.526954 -0.210239,0.180354 -0.374176,0.121535 -2.2713,0.121535 l -1.250039,0 c -0.961039,-0.03189 -1.104913,-0.153071 -1.437544,-0.530823 -0.498687,-0.566502 -0.506661,-0.471223 0.312509,-4.808622 0.490136,-2.595189 0.791047,-4.03891 0.906278,-4.277799 0.348952,-0.585579 0.81337,-0.748606 1.25004,-0.749091 z"
       style="fill:#816743;fill-opacity:1"
       inkscape:connector-curvature="0"
       sodipodi:nodetypes="ccccccscsscc" />
    <path
       style="fill:#ffe4c9;fill-opacity:1;stroke:none"
       d="m 14.999517,26.320949 c -1,0.469079 -1,0.511528 -1.59375,0.835301 L 11.999517,30 l 2,3 0.21875,1.34375 c 0.221846,1.123973 0.280591,1.307317 0.46875,1.46875 C 14.897256,35.992854 14.946143,36 16.843267,36 l 0.15625,0 z"
       id="path4091"
       inkscape:connector-curvature="0"
       sodipodi:nodetypes="ccccccscc" />
    <path
       style="fill:#ffe4c9;fill-opacity:1;stroke:none"
       d="m 32.999517,26.243786 -2,9.756214 0.03125,0 1.78125,0 c 0.304405,-0.0078 0.394881,-0.03482 0.5,-0.125 0.188153,-0.161398 0.345461,-0.407277 0.46875,-1.53125 L 33.999517,33 l 2,-3 -1.34375,-2.84375 c -1.052622,-0.575406 -0.65625,-0.421739 -1.65625,-0.912464 z"
       id="path4111"
       inkscape:connector-curvature="0"
       sodipodi:nodetypes="cccccccccc" />
  </g>
</svg>
