<svg viewBox="0 0 48 48"><defs><linearGradient id="linearGradient3764" y1="1" x2="0" y2="47" gradientUnits="userSpaceOnUse"><stop stop-color="#6cce3d" stop-opacity="1"/><stop offset="1" stop-color="#63c632" stop-opacity="1"/></linearGradient><clipPath id="clipPath-327813439"><g transform="translate(0,-1004.3622)"><path d="m 24 1005.37 c -1.045 0 -2.023 0.287 -2.856 0.784 l -15.339 8.708 c -0.017 0.013 -0.035 0.013 -0.052 0.021 -1.852 1.051 -2.847 3 -2.746 4.968 l 0 17.02 c -0.056 1.013 0.175 2.049 0.729 2.993 0.532 0.903 1.288 1.602 2.161 2.061 l 15.246 8.653 c 0.832 0.497 1.811 0.784 2.856 0.784 1.045 0 2.023 -0.287 2.856 -0.784 l 15.246 -8.653 c 0.873 -0.46 1.629 -1.158 2.161 -2.061 0.554 -0.944 0.785 -1.981 0.729 -2.993 l 0 -17.01 c 0.056 -1.012 -0.175 -2.052 -0.729 -2.993 -0.532 -0.906 -1.288 -1.604 -2.161 -2.064 l -15.246 -8.653 c -0.832 -0.497 -1.811 -0.784 -2.856 -0.784 z" fill="#1890d0"/></g></clipPath><clipPath id="clipPath-336695062"><g transform="translate(0,-1004.3622)"><path d="m 24 1005.37 c -1.045 0 -2.023 0.287 -2.856 0.784 l -15.339 8.708 c -0.017 0.013 -0.035 0.013 -0.052 0.021 -1.852 1.051 -2.847 3 -2.746 4.968 l 0 17.02 c -0.056 1.013 0.175 2.049 0.729 2.993 0.532 0.903 1.288 1.602 2.161 2.061 l 15.246 8.653 c 0.832 0.497 1.811 0.784 2.856 0.784 1.045 0 2.023 -0.287 2.856 -0.784 l 15.246 -8.653 c 0.873 -0.46 1.629 -1.158 2.161 -2.061 0.554 -0.944 0.785 -1.981 0.729 -2.993 l 0 -17.01 c 0.056 -1.012 -0.175 -2.052 -0.729 -2.993 -0.532 -0.906 -1.288 -1.604 -2.161 -2.064 l -15.246 -8.653 c -0.832 -0.497 -1.811 -0.784 -2.856 -0.784 z" fill="#1890d0"/></g></clipPath><filter id="filter-309166904"><feGaussianBlur stdDeviation="0.35"/></filter></defs><g><g transform="translate(0,-1004.3622)"><path d="m 45 1037.36 c 0.056 1.013 -0.196 2.056 -0.75 3 -0.532 0.903 -1.283 1.603 -2.156 2.063 l -15.25 8.656 c -0.832 0.497 -1.799 0.781 -2.844 0.781 -1.045 0 -2.01 -0.284 -2.844 -0.781 l -15.25 -8.656 c -0.873 -0.46 -1.625 -1.159 -2.156 -2.063 -0.416 -0.708 -0.677 -1.485 -0.75 -2.25 -0.004 0.932 0.242 1.884 0.75 2.75 0.532 0.903 1.283 1.603 2.156 2.063 l 15.25 8.656 c 0.832 0.497 1.799 0.781 2.844 0.781 1.045 0 2.01 -0.284 2.844 -0.781 l 15.25 -8.656 c 0.873 -0.46 1.625 -1.159 2.156 -2.063 0.554 -0.944 0.806 -1.987 0.75 -3 l 0 -0.5 z" opacity="0.05"/><path d="m 45 1036.86 c 0.015 0.263 -0.004 0.516 -0.031 0.781 -0.036 0.844 -0.259 1.685 -0.719 2.469 -0.532 0.903 -1.283 1.603 -2.156 2.063 l -15.25 8.656 c -0.832 0.497 -1.799 0.781 -2.844 0.781 -1.045 0 -2.01 -0.284 -2.844 -0.781 l -15.25 -8.656 c -0.873 -0.46 -1.625 -1.159 -2.156 -2.063 -0.414 -0.705 -0.621 -1.46 -0.688 -2.219 -0.014 -0.092 -0.054 -0.189 -0.063 -0.281 -0.004 0.932 0.242 1.884 0.75 2.75 0.532 0.903 1.283 1.603 2.156 2.063 l 15.25 8.656 c 0.832 0.497 1.799 0.781 2.844 0.781 1.045 0 2.01 -0.284 2.844 -0.781 l 15.25 -8.656 c 0.873 -0.46 1.625 -1.159 2.156 -2.063 0.554 -0.944 0.806 -1.987 0.75 -3 l 0 -0.5 z m -41.813 1.625 c 0.057 0.219 0.132 0.442 0.219 0.656 -0.088 -0.216 -0.16 -0.436 -0.219 -0.656 z m 0.219 0.656 c 0.099 0.243 0.206 0.484 0.344 0.719 -0.139 -0.236 -0.243 -0.472 -0.344 -0.719 z m 41.41 -0.656 c -0.059 0.221 -0.131 0.441 -0.219 0.656 0.087 -0.215 0.161 -0.437 0.219 -0.656 z m -0.219 0.656 c -0.101 0.246 -0.205 0.483 -0.344 0.719 0.138 -0.235 0.245 -0.476 0.344 -0.719 z" opacity="0.1"/><path d="m 3.03 1037.64 c 0.035 0.844 0.259 1.685 0.719 2.469 0.532 0.903 1.283 1.603 2.156 2.063 l 15.25 8.656 c 0.832 0.497 1.799 0.781 2.844 0.781 1.045 0 2.01 -0.284 2.844 -0.781 l 15.25 -8.656 c 0.873 -0.46 1.625 -1.159 2.156 -2.063 0.46 -0.784 0.683 -1.624 0.719 -2.469 -0.067 0.763 -0.303 1.511 -0.719 2.219 -0.532 0.903 -1.283 1.603 -2.156 2.063 l -15.25 8.656 c -0.832 0.497 -1.799 0.781 -2.844 0.781 -1.045 0 -2.01 -0.284 -2.844 -0.781 l -15.25 -8.656 c -0.873 -0.46 -1.625 -1.159 -2.156 -2.063 -0.416 -0.708 -0.651 -1.456 -0.719 -2.219 z" opacity="0.2"/></g></g><g><path d="m 24 46.996 c 1.045 0 2.023 -0.287 2.856 -0.784 l 15.339 -8.708 c 0.017 -0.013 0.035 -0.013 0.052 -0.021 1.852 -1.051 2.847 -3 2.746 -4.968 l 0 -17.02 c 0.056 -1.013 -0.175 -2.049 -0.729 -2.993 -0.532 -0.903 -1.288 -1.602 -2.161 -2.061 l -15.246 -8.653 c -0.832 -0.497 -1.811 -0.784 -2.856 -0.784 -1.045 0 -2.023 0.287 -2.856 0.784 l -15.246 8.653 c -0.873 0.46 -1.629 1.158 -2.161 2.061 -0.554 0.944 -0.785 1.981 -0.729 2.993 l 0 17.01 c -0.056 1.012 0.175 2.051 0.729 2.993 0.532 0.906 1.288 1.604 2.161 2.064 l 15.246 8.653 c 0.832 0.497 1.811 0.785 2.856 0.785 z" fill="url(#linearGradient3764)" fill-opacity="1"/></g><g><g clip-path="url(#clipPath-327813439)"><g opacity="0.25"><g transform="translate(0,1)"><g filter="url(#filter-309166904)"><!-- color: #6cce3d --><g><path d="m 15.199 16.04 l 2.469 0 c 0.141 0 0.254 -0.113 0.254 -0.254 c 0 0 -0.031 -2.09 -0.031 -2.672 l 0 -0.008 c 0 -0.477 0.102 -0.895 0.281 -1.242 l 0.082 -0.156 c -0.008 0 -0.02 0.004 -0.027 0.016 l -4.797 4.699 c -0.008 0.008 -0.012 0.02 -0.016 0.031 c 0.098 -0.051 0.234 -0.117 0.254 -0.125 c 0.418 -0.188 0.922 -0.289 1.531 -0.289 m 19.2 -0.512 c -0.195 -1.039 -0.816 -1.547 -1.383 -1.75 c -0.609 -0.219 -1.844 -0.441 -3.391 -0.621 c -1.25 -0.148 -2.715 -0.137 -3.602 -0.109 c -0.105 -0.719 -0.617 -1.375 -1.188 -1.605 c -1.523 -0.605 -3.875 -0.457 -4.48 -0.289 c -0.477 0.129 -1.01 0.402 -1.305 0.82 c -0.199 0.281 -0.328 0.641 -0.328 1.141 c 0 0.281 0.008 0.949 0.016 1.543 c 0.008 0.594 0.016 1.129 0.016 1.129 c 0 0.531 -0.434 0.961 -0.973 0.965 l -2.469 0 c -0.527 0 -0.93 0.086 -1.234 0.223 c -0.309 0.141 -0.527 0.324 -0.691 0.547 c -0.332 0.438 -0.387 0.977 -0.387 1.527 c 0 0 0.004 0.449 0.113 1.324 c 0.094 0.672 0.832 5.383 1.535 6.816 c 0.273 0.559 0.453 0.789 0.988 1.035 c 1.191 0.504 3.918 1.066 5.191 1.227 c 1.277 0.16 2.074 0.5 2.551 -0.488 c 0.004 0 0.098 -0.246 0.227 -0.602 c 0.414 -1.238 0.469 -2.34 0.469 -3.137 c 0 -0.078 0.121 -0.082 0.121 0 c 0 0.563 -0.109 2.551 1.41 3.086 c 0.602 0.211 1.844 0.398 3.109 0.543 c 1.145 0.129 1.973 0.574 1.973 3.477 c 0 1.762 -0.375 2 -2.332 2 c -1.59 0 -2.195 0.043 -2.195 -1.207 c 0 -1.01 1.01 -0.902 1.758 -0.902 c 0.332 0 0.09 -0.246 0.09 -0.867 c 0 -0.617 0.391 -0.977 0.02 -0.984 c -2.582 -0.07 -4.105 -0.004 -4.105 3.191 c 0 2.902 1.125 3.441 4.793 3.441 c 2.875 0 3.891 -0.094 5.078 -3.738 c 0.234 -0.719 0.805 -2.914 1.148 -6.598 c 0.215 -2.332 -0.207 -9.363 -0.543 -11.141 m -5.01 7.773 c -0.355 -0.012 -0.699 0.012 -1.016 0.063 c 0.09 -0.719 0.387 -1.598 1.445 -1.559 c 1.176 0.039 1.34 1.137 1.344 1.879 c -0.496 -0.219 -1.105 -0.359 -1.773 -0.383 m 0 0" fill="#000"/></g></g></g></g></g></g><g><g clip-path="url(#clipPath-336695062)"><!-- color: #6cce3d --><g><path d="m 15.199 16.04 l 2.469 0 c 0.141 0 0.254 -0.113 0.254 -0.254 c 0 0 -0.031 -2.09 -0.031 -2.672 l 0 -0.008 c 0 -0.477 0.102 -0.895 0.281 -1.242 l 0.082 -0.156 c -0.008 0 -0.02 0.004 -0.027 0.016 l -4.797 4.699 c -0.008 0.008 -0.012 0.02 -0.016 0.031 c 0.098 -0.051 0.234 -0.117 0.254 -0.125 c 0.418 -0.188 0.922 -0.289 1.531 -0.289 m 19.2 -0.512 c -0.195 -1.039 -0.816 -1.547 -1.383 -1.75 c -0.609 -0.219 -1.844 -0.441 -3.391 -0.621 c -1.25 -0.148 -2.715 -0.137 -3.602 -0.109 c -0.105 -0.719 -0.617 -1.375 -1.188 -1.605 c -1.523 -0.605 -3.875 -0.457 -4.48 -0.289 c -0.477 0.129 -1.01 0.402 -1.305 0.82 c -0.199 0.281 -0.328 0.641 -0.328 1.141 c 0 0.281 0.008 0.949 0.016 1.543 c 0.008 0.594 0.016 1.129 0.016 1.129 c 0 0.531 -0.434 0.961 -0.973 0.965 l -2.469 0 c -0.527 0 -0.93 0.086 -1.234 0.223 c -0.309 0.141 -0.527 0.324 -0.691 0.547 c -0.332 0.438 -0.387 0.977 -0.387 1.527 c 0 0 0.004 0.449 0.113 1.324 c 0.094 0.672 0.832 5.383 1.535 6.816 c 0.273 0.559 0.453 0.789 0.988 1.035 c 1.191 0.504 3.918 1.066 5.191 1.227 c 1.277 0.16 2.074 0.5 2.551 -0.488 c 0.004 0 0.098 -0.246 0.227 -0.602 c 0.414 -1.238 0.469 -2.34 0.469 -3.137 c 0 -0.078 0.121 -0.082 0.121 0 c 0 0.563 -0.109 2.551 1.41 3.086 c 0.602 0.211 1.844 0.398 3.109 0.543 c 1.145 0.129 1.973 0.574 1.973 3.477 c 0 1.762 -0.375 2 -2.332 2 c -1.59 0 -2.195 0.043 -2.195 -1.207 c 0 -1.01 1.01 -0.902 1.758 -0.902 c 0.332 0 0.09 -0.246 0.09 -0.867 c 0 -0.617 0.391 -0.977 0.02 -0.984 c -2.582 -0.07 -4.105 -0.004 -4.105 3.191 c 0 2.902 1.125 3.441 4.793 3.441 c 2.875 0 3.891 -0.094 5.078 -3.738 c 0.234 -0.719 0.805 -2.914 1.148 -6.598 c 0.215 -2.332 -0.207 -9.363 -0.543 -11.141 m -5.01 7.773 c -0.355 -0.012 -0.699 0.012 -1.016 0.063 c 0.09 -0.719 0.387 -1.598 1.445 -1.559 c 1.176 0.039 1.34 1.137 1.344 1.879 c -0.496 -0.219 -1.105 -0.359 -1.773 -0.383 m 0 0" fill="#2d2d2d"/></g></g></g><g><path d="m 24 1 c -1.045 0 -2.01 0.284 -2.844 0.781 l -15.344 8.719 c -0.017 0.013 -0.045 0.023 -0.063 0.031 c -1.852 1.051 -2.851 3 -2.75 4.969 l 0 1 c -0.101 -1.966 0.898 -3.918 2.75 -4.969 c 0.017 -0.008 0.045 -0.018 0.063 -0.031 l 15.344 -8.719 c 0.832 -0.497 1.799 -0.781 2.844 -0.781 c 1.045 0 2.01 0.284 2.844 0.781 l 15.25 8.656 c 0.873 0.46 1.625 1.156 2.156 2.063 c 0.554 0.942 0.806 1.988 0.75 3 l 0 -1 c 0.056 -1.012 -0.196 -2.058 -0.75 -3 c -0.532 -0.906 -1.283 -1.603 -2.156 -2.063 l -15.25 -8.656 c -0.832 -0.497 -1.799 -0.781 -2.844 -0.781 z" opacity="0.2" fill="#fff"/></g></svg>