<svg viewBox="0 0 48 48" xmlns:xlink="http://www.w3.org/1999/xlink"><defs><linearGradient id="linearGradient3764" x1="1" x2="47" gradientUnits="userSpaceOnUse" gradientTransform="translate(-48.000001,0.00221467)"><stop stop-color="#5ab133" stop-opacity="1"/><stop offset="1" stop-color="#63c038" stop-opacity="1"/></linearGradient><clipPath id="clipPath-143602977"><g transform="translate(0,-1004.3622)"><rect rx="4" y="1005.36" x="1" height="46" width="46" fill="#1890d0"/></g></clipPath><clipPath id="clipPath-156548807"><g transform="translate(0,-1004.3622)"><rect rx="4" y="1005.36" x="1" height="46" width="46" fill="#1890d0"/></g></clipPath></defs><g><path d="m 1 43 l 0 0.25 c 0 2.216 1.784 4 4 4 l 38 0 c 2.216 0 4 -1.784 4 -4 l 0 -0.25 c 0 2.216 -1.784 4 -4 4 l -38 0 c -2.216 0 -4 -1.784 -4 -4 z m 0 0.5 l 0 0.5 c 0 2.216 1.784 4 4 4 l 38 0 c 2.216 0 4 -1.784 4 -4 l 0 -0.5 c 0 2.216 -1.784 4 -4 4 l -38 0 c -2.216 0 -4 -1.784 -4 -4 z" opacity="0.02"/><path d="m 1 43.25 l 0 0.25 c 0 2.216 1.784 4 4 4 l 38 0 c 2.216 0 4 -1.784 4 -4 l 0 -0.25 c 0 2.216 -1.784 4 -4 4 l -38 0 c -2.216 0 -4 -1.784 -4 -4 z" opacity="0.05"/><path d="m 1 43 l 0 0.25 c 0 2.216 1.784 4 4 4 l 38 0 c 2.216 0 4 -1.784 4 -4 l 0 -0.25 c 0 2.216 -1.784 4 -4 4 l -38 0 c -2.216 0 -4 -1.784 -4 -4 z" opacity="0.1"/></g><g><rect width="46" height="46" x="-47" y="1" rx="4" transform="matrix(0,-1,1,0,0,0)" fill="url(#linearGradient3764)" fill-opacity="1"/></g><g><g clip-path="url(#clipPath-143602977)"><g opacity="0.1"><!-- color: #63c038 --><path d="M 25.375 29.125 L 1.25 48 L 41.25 48 L 25.375 29.125 z " fill="#000"/><path d="m 25.08 28.909 -15.807 12.766 c 3.987 3.322 9.122 5.325 14.746 5.325 c 4.854 0 9.333 -1.485 13.04 -4.03 l -11.975 -14.06 z" fill="#000"/><g transform="matrix(3.879452,0,0,3.8702596,-2.3716881,-2.174614)" fill="#000"><path transform="scale(0.28222223,0.28222223)" d="m 46.01 8.4 -43.841 35.705 c 0 0.545 0 1.38 0 1.831 0.913 0 2.74 0 3.653 0 l 40.19 -32.959 z" id="SVGCleanerId_0"/><path transform="scale(0.28222223,0.28222223)" d="m 26.813 27.469 -2.406 2.281 13.381 16.186 c 0.913 0 2.74 0 3.653 0 z" id="SVGCleanerId_1"/></g><path d="m 15.864 34.948 c -0.451 -2.209 -1.247 -4.048 -2.21 -5.752 -0.715 -1.264 -1.542 -2.431 -2.308 -3.656 -0.256 -0.409 -0.476 -0.841 -0.722 -1.266 -0.491 -0.849 -0.89 -1.834 -0.864 -3.111 0.023 -1.248 0.386 -2.249 0.908 -3.067 0.858 -1.346 2.295 -2.45 4.223 -2.74 1.576 -0.237 3.055 0.163 4.103 0.775 0.857 0.5 1.52 1.167 2.024 1.954 0.526 0.821 0.889 1.791 0.919 3.056 0.016 0.648 -0.091 1.248 -0.241 1.746 -0.152 0.504 -0.396 0.925 -0.613 1.375 -0.424 0.878 -0.955 1.683 -1.488 2.489 -1.588 2.399 -3.078 4.845 -3.731 8.197 z" fill-rule="evenodd" fill="#000"/><circle cx="729.55" cy="651.05" r="183.33" transform="matrix(0.01493004,0,0,0.01489465,4.8872724,11.597267)" fill-rule="evenodd" fill="#000"/></g></g></g><g><g clip-path="url(#clipPath-156548807)"><g transform="translate(0,-1)"><!-- color: #63c038 --><path d="M 25.375 29.125 L 1.25 48 L 41.25 48 L 25.375 29.125 z " fill="#868bec"/><path d="m 25.08 28.909 -15.807 12.766 c 3.987 3.322 9.122 5.325 14.746 5.325 c 4.854 0 9.333 -1.485 13.04 -4.03 l -11.975 -14.06 z" fill="#868bec"/><g transform="matrix(3.879452,0,0,3.8702596,-2.3716881,-2.174614)" fill="#ffe991"><use xlink:href="#SVGCleanerId_0"/><use xlink:href="#SVGCleanerId_1"/></g><path d="m 15.864 34.948 c -0.451 -2.209 -1.247 -4.048 -2.21 -5.752 -0.715 -1.264 -1.542 -2.431 -2.308 -3.656 -0.256 -0.409 -0.476 -0.841 -0.722 -1.266 -0.491 -0.849 -0.89 -1.834 -0.864 -3.111 0.023 -1.248 0.386 -2.249 0.908 -3.067 0.858 -1.346 2.295 -2.45 4.223 -2.74 1.576 -0.237 3.055 0.163 4.103 0.775 0.857 0.5 1.52 1.167 2.024 1.954 0.526 0.821 0.889 1.791 0.919 3.056 0.016 0.648 -0.091 1.248 -0.241 1.746 -0.152 0.504 -0.396 0.925 -0.613 1.375 -0.424 0.878 -0.955 1.683 -1.488 2.489 -1.588 2.399 -3.078 4.845 -3.731 8.197 z" fill="#f3543f" fill-rule="evenodd"/><circle cx="729.55" cy="651.05" r="183.33" transform="matrix(0.01493004,0,0,0.01489465,4.8872724,11.597267)" fill="#c32f20" fill-rule="evenodd"/></g></g></g><g><g transform="translate(0,-1004.3622)"><path d="m 1 1043.36 0 4 c 0 2.216 1.784 4 4 4 l 38 0 c 2.216 0 4 -1.784 4 -4 l 0 -4 c 0 2.216 -1.784 4 -4 4 l -38 0 c -2.216 0 -4 -1.784 -4 -4 z" opacity="0.1"/></g></g></svg>