<svg viewBox="0 0 48 48"><defs><linearGradient id="linearGradient3764" x1="1" x2="47" gradientUnits="userSpaceOnUse" gradientTransform="translate(-48.000001,0.00221467)"><stop stop-color="#118cd3" stop-opacity="1"/><stop offset="1" stop-color="#129ae6" stop-opacity="1"/></linearGradient><clipPath id="clipPath-554374538"><g transform="translate(0,-1004.3622)"><rect rx="4" y="1005.36" x="1" height="46" width="46" fill="#1890d0"/></g></clipPath><clipPath id="clipPath-567198402"><g transform="translate(0,-1004.3622)"><rect rx="4" y="1005.36" x="1" height="46" width="46" fill="#1890d0"/></g></clipPath></defs><g><path d="m 1 43 l 0 0.25 c 0 2.216 1.784 4 4 4 l 38 0 c 2.216 0 4 -1.784 4 -4 l 0 -0.25 c 0 2.216 -1.784 4 -4 4 l -38 0 c -2.216 0 -4 -1.784 -4 -4 z m 0 0.5 l 0 0.5 c 0 2.216 1.784 4 4 4 l 38 0 c 2.216 0 4 -1.784 4 -4 l 0 -0.5 c 0 2.216 -1.784 4 -4 4 l -38 0 c -2.216 0 -4 -1.784 -4 -4 z" opacity="0.02"/><path d="m 1 43.25 l 0 0.25 c 0 2.216 1.784 4 4 4 l 38 0 c 2.216 0 4 -1.784 4 -4 l 0 -0.25 c 0 2.216 -1.784 4 -4 4 l -38 0 c -2.216 0 -4 -1.784 -4 -4 z" opacity="0.05"/><path d="m 1 43 l 0 0.25 c 0 2.216 1.784 4 4 4 l 38 0 c 2.216 0 4 -1.784 4 -4 l 0 -0.25 c 0 2.216 -1.784 4 -4 4 l -38 0 c -2.216 0 -4 -1.784 -4 -4 z" opacity="0.1"/></g><g><rect width="46" height="46" x="-47" y="1" rx="4" transform="matrix(0,-1,1,0,0,0)" fill="url(#linearGradient3764)" fill-opacity="1"/></g><g><g clip-path="url(#clipPath-554374538)"><g opacity="0.1"><!-- color: #129ae6 --><g><path d="m 17.977 14.227 c -6.695 3.48 -8.04 12.527 -2.629 17.684 c 3.109 2.965 7.289 3.844 11.633 2.434 c 4.16 -1.348 7.02 -5.547 7.02 -9.852 c 0 -1.652 0.184 -2.133 1.648 -2.59 c 1.352 -0.418 2.352 -1.895 2.352 -2.902 c -2.52 0.113 -7 -2 -9 -4.5 l 0 5 c 0 5.348 -0.91 6.531 -3.03 8.03 c -1.707 1.207 -4.813 1.422 -6.344 0.441 c -2.344 -1.496 -2.32 -4.355 0.055 -6.777 c 2.254 -1.789 3.895 -1.906 6.316 -1.742 l 0 -6.04 c -2.609 -0.77 -5.68 -0.359 -8.02 0.813 m 0 0" fill="#000"/></g></g></g></g><g><g clip-path="url(#clipPath-567198402)"><g transform="translate(0,-1)"><!-- color: #129ae6 --><g><path d="m 17.977 14.227 c -6.695 3.48 -8.04 12.527 -2.629 17.684 c 3.109 2.965 7.289 3.844 11.633 2.434 c 4.16 -1.348 7.02 -5.547 7.02 -9.852 c 0 -1.652 0.184 -2.133 1.648 -2.59 c 1.352 -0.418 2.352 -1.895 2.352 -2.902 c -2.52 0.113 -7 -2 -9 -4.5 l 0 5 c 0 5.348 -0.91 6.531 -3.03 8.03 c -1.707 1.207 -4.813 1.422 -6.344 0.441 c -2.344 -1.496 -2.32 -4.355 0.055 -6.777 c 2.254 -1.789 3.895 -1.906 6.316 -1.742 l 0 -6.04 c -2.609 -0.77 -5.68 -0.359 -8.02 0.813 m 0 0" fill="#f9f9f9"/></g></g></g></g><g><g transform="translate(0,-1004.3622)"><path d="m 1 1043.36 0 4 c 0 2.216 1.784 4 4 4 l 38 0 c 2.216 0 4 -1.784 4 -4 l 0 -4 c 0 2.216 -1.784 4 -4 4 l -38 0 c -2.216 0 -4 -1.784 -4 -4 z" opacity="0.1"/></g></g></svg>