<svg viewBox="0 0 48 48"><defs><linearGradient id="linearGradient3764" x1="1" x2="47" gradientUnits="userSpaceOnUse" gradientTransform="translate(-48.000001,0.00221467)"><stop stop-color="#de4c12" stop-opacity="1"/><stop offset="1" stop-color="#ec5518" stop-opacity="1"/></linearGradient><clipPath id="clipPath-262355257"><g transform="translate(0,-1004.3622)"><rect rx="4" y="1005.36" x="1" height="46" width="46" fill="#1890d0"/></g></clipPath><clipPath id="clipPath-274868767"><g transform="translate(0,-1004.3622)"><rect rx="4" y="1005.36" x="1" height="46" width="46" fill="#1890d0"/></g></clipPath></defs><g><path d="m 1 43 l 0 0.25 c 0 2.216 1.784 4 4 4 l 38 0 c 2.216 0 4 -1.784 4 -4 l 0 -0.25 c 0 2.216 -1.784 4 -4 4 l -38 0 c -2.216 0 -4 -1.784 -4 -4 z m 0 0.5 l 0 0.5 c 0 2.216 1.784 4 4 4 l 38 0 c 2.216 0 4 -1.784 4 -4 l 0 -0.5 c 0 2.216 -1.784 4 -4 4 l -38 0 c -2.216 0 -4 -1.784 -4 -4 z" opacity="0.02"/><path d="m 1 43.25 l 0 0.25 c 0 2.216 1.784 4 4 4 l 38 0 c 2.216 0 4 -1.784 4 -4 l 0 -0.25 c 0 2.216 -1.784 4 -4 4 l -38 0 c -2.216 0 -4 -1.784 -4 -4 z" opacity="0.05"/><path d="m 1 43 l 0 0.25 c 0 2.216 1.784 4 4 4 l 38 0 c 2.216 0 4 -1.784 4 -4 l 0 -0.25 c 0 2.216 -1.784 4 -4 4 l -38 0 c -2.216 0 -4 -1.784 -4 -4 z" opacity="0.1"/></g><g><rect width="46" height="46" x="-47" y="1" rx="4" transform="matrix(0,-1,1,0,0,0)" fill="url(#linearGradient3764)" fill-opacity="1"/></g><g><g clip-path="url(#clipPath-262355257)"><g opacity="0.1"><!-- color: #ec5518 --><path d="m 36.898 18 -1 3 l 12.1 0 c 0 -1 0 -2 0 -3 z" fill="#000"/><path d="m 16 30 0 6 32 0 c 0 -1 0 -2 0 -3 l -29 0 0 -3 z" fill="#000"/><path d="m 16 13 3 0 0 5 4 0 0 3 -4 0 0 6 -3 0 0 -6 -4 0 0 -3 4 0 z m 0 0" fill="#000"/><path d="m 23 21 4 6 3 0 6 -14 -3 0 -4.5 12 -4.5 -7 -2 0 0 3 z m 0 0" fill="#000"/></g></g></g><g><g clip-path="url(#clipPath-274868767)"><g transform="translate(0,-1)"><!-- color: #ec5518 --><path d="m 36.898 18 -1 3 l 12.1 0 c 0 -1 0 -2 0 -3 z" fill="#f3f3f3"/><path d="m 16 30 0 6 32 0 c 0 -1 0 -2 0 -3 l -29 0 0 -3 z" fill="#f3f3f3"/><path d="m 16 13 3 0 0 5 4 0 0 3 -4 0 0 6 -3 0 0 -6 -4 0 0 -3 4 0 z m 0 0" fill="#f3f3f3"/><path d="m 23 21 4 6 3 0 6 -14 -3 0 -4.5 12 -4.5 -7 -2 0 0 3 z m 0 0" fill="#f3f3f3"/></g></g></g><g><g transform="translate(0,-1004.3622)"><path d="m 1 1043.36 0 4 c 0 2.216 1.784 4 4 4 l 38 0 c 2.216 0 4 -1.784 4 -4 l 0 -4 c 0 2.216 -1.784 4 -4 4 l -38 0 c -2.216 0 -4 -1.784 -4 -4 z" opacity="0.1"/></g></g></svg>