<svg viewBox="0 0 48 48" xmlns:xlink="http://www.w3.org/1999/xlink"><defs><linearGradient id="linearGradient3764" y1="1" x2="0" y2="47" gradientUnits="userSpaceOnUse"><stop stop-color="#63c038" stop-opacity="1"/><stop offset="1" stop-color="#5ab133" stop-opacity="1"/></linearGradient><clipPath id="clipPath-585832365"><g transform="translate(0,-1004.3622)"><path d="m 24 1005.37 c -1.045 0 -2.023 0.287 -2.856 0.784 l -15.339 8.708 c -0.017 0.013 -0.035 0.013 -0.052 0.021 -1.852 1.051 -2.847 3 -2.746 4.968 l 0 17.02 c -0.056 1.013 0.175 2.049 0.729 2.993 0.532 0.903 1.288 1.602 2.161 2.061 l 15.246 8.653 c 0.832 0.497 1.811 0.784 2.856 0.784 1.045 0 2.023 -0.287 2.856 -0.784 l 15.246 -8.653 c 0.873 -0.46 1.629 -1.158 2.161 -2.061 0.554 -0.944 0.785 -1.981 0.729 -2.993 l 0 -17.01 c 0.056 -1.012 -0.175 -2.052 -0.729 -2.993 -0.532 -0.906 -1.288 -1.604 -2.161 -2.064 l -15.246 -8.653 c -0.832 -0.497 -1.811 -0.784 -2.856 -0.784 z" fill="#1890d0"/></g></clipPath><clipPath id="clipPath-594706288"><g transform="translate(0,-1004.3622)"><path d="m 24 1005.37 c -1.045 0 -2.023 0.287 -2.856 0.784 l -15.339 8.708 c -0.017 0.013 -0.035 0.013 -0.052 0.021 -1.852 1.051 -2.847 3 -2.746 4.968 l 0 17.02 c -0.056 1.013 0.175 2.049 0.729 2.993 0.532 0.903 1.288 1.602 2.161 2.061 l 15.246 8.653 c 0.832 0.497 1.811 0.784 2.856 0.784 1.045 0 2.023 -0.287 2.856 -0.784 l 15.246 -8.653 c 0.873 -0.46 1.629 -1.158 2.161 -2.061 0.554 -0.944 0.785 -1.981 0.729 -2.993 l 0 -17.01 c 0.056 -1.012 -0.175 -2.052 -0.729 -2.993 -0.532 -0.906 -1.288 -1.604 -2.161 -2.064 l -15.246 -8.653 c -0.832 -0.497 -1.811 -0.784 -2.856 -0.784 z" fill="#1890d0"/></g></clipPath><filter id="filter-567570570"><feGaussianBlur stdDeviation="0.35"/></filter></defs><g><g transform="translate(0,-1004.3622)"><path d="m 45 1037.36 c 0.056 1.013 -0.196 2.056 -0.75 3 -0.532 0.903 -1.283 1.603 -2.156 2.063 l -15.25 8.656 c -0.832 0.497 -1.799 0.781 -2.844 0.781 -1.045 0 -2.01 -0.284 -2.844 -0.781 l -15.25 -8.656 c -0.873 -0.46 -1.625 -1.159 -2.156 -2.063 -0.416 -0.708 -0.677 -1.485 -0.75 -2.25 -0.004 0.932 0.242 1.884 0.75 2.75 0.532 0.903 1.283 1.603 2.156 2.063 l 15.25 8.656 c 0.832 0.497 1.799 0.781 2.844 0.781 1.045 0 2.01 -0.284 2.844 -0.781 l 15.25 -8.656 c 0.873 -0.46 1.625 -1.159 2.156 -2.063 0.554 -0.944 0.806 -1.987 0.75 -3 l 0 -0.5 z" opacity="0.05"/><path d="m 45 1036.86 c 0.015 0.263 -0.004 0.516 -0.031 0.781 -0.036 0.844 -0.259 1.685 -0.719 2.469 -0.532 0.903 -1.283 1.603 -2.156 2.063 l -15.25 8.656 c -0.832 0.497 -1.799 0.781 -2.844 0.781 -1.045 0 -2.01 -0.284 -2.844 -0.781 l -15.25 -8.656 c -0.873 -0.46 -1.625 -1.159 -2.156 -2.063 -0.414 -0.705 -0.621 -1.46 -0.688 -2.219 -0.014 -0.092 -0.054 -0.189 -0.063 -0.281 -0.004 0.932 0.242 1.884 0.75 2.75 0.532 0.903 1.283 1.603 2.156 2.063 l 15.25 8.656 c 0.832 0.497 1.799 0.781 2.844 0.781 1.045 0 2.01 -0.284 2.844 -0.781 l 15.25 -8.656 c 0.873 -0.46 1.625 -1.159 2.156 -2.063 0.554 -0.944 0.806 -1.987 0.75 -3 l 0 -0.5 z m -41.813 1.625 c 0.057 0.219 0.132 0.442 0.219 0.656 -0.088 -0.216 -0.16 -0.436 -0.219 -0.656 z m 0.219 0.656 c 0.099 0.243 0.206 0.484 0.344 0.719 -0.139 -0.236 -0.243 -0.472 -0.344 -0.719 z m 41.41 -0.656 c -0.059 0.221 -0.131 0.441 -0.219 0.656 0.087 -0.215 0.161 -0.437 0.219 -0.656 z m -0.219 0.656 c -0.101 0.246 -0.205 0.483 -0.344 0.719 0.138 -0.235 0.245 -0.476 0.344 -0.719 z" opacity="0.1"/><path d="m 3.03 1037.64 c 0.035 0.844 0.259 1.685 0.719 2.469 0.532 0.903 1.283 1.603 2.156 2.063 l 15.25 8.656 c 0.832 0.497 1.799 0.781 2.844 0.781 1.045 0 2.01 -0.284 2.844 -0.781 l 15.25 -8.656 c 0.873 -0.46 1.625 -1.159 2.156 -2.063 0.46 -0.784 0.683 -1.624 0.719 -2.469 -0.067 0.763 -0.303 1.511 -0.719 2.219 -0.532 0.903 -1.283 1.603 -2.156 2.063 l -15.25 8.656 c -0.832 0.497 -1.799 0.781 -2.844 0.781 -1.045 0 -2.01 -0.284 -2.844 -0.781 l -15.25 -8.656 c -0.873 -0.46 -1.625 -1.159 -2.156 -2.063 -0.416 -0.708 -0.651 -1.456 -0.719 -2.219 z" opacity="0.2"/></g></g><g><path d="m 24 46.996 c 1.045 0 2.023 -0.287 2.856 -0.784 l 15.339 -8.708 c 0.017 -0.013 0.035 -0.013 0.052 -0.021 1.852 -1.051 2.847 -3 2.746 -4.968 l 0 -17.02 c 0.056 -1.013 -0.175 -2.049 -0.729 -2.993 -0.532 -0.903 -1.288 -1.602 -2.161 -2.061 l -15.246 -8.653 c -0.832 -0.497 -1.811 -0.784 -2.856 -0.784 -1.045 0 -2.023 0.287 -2.856 0.784 l -15.246 8.653 c -0.873 0.46 -1.629 1.158 -2.161 2.061 -0.554 0.944 -0.785 1.981 -0.729 2.993 l 0 17.01 c -0.056 1.012 0.175 2.051 0.729 2.993 0.532 0.906 1.288 1.604 2.161 2.064 l 15.246 8.653 c 0.832 0.497 1.811 0.785 2.856 0.785 z" fill="url(#linearGradient3764)" fill-opacity="1"/></g><g><g clip-path="url(#clipPath-585832365)"><g opacity="0.25"><g transform="translate(0,1)"><g filter="url(#filter-567570570)"><!-- color: #63c038 --><path d="M 25.375 29.125 L 1.25 48 L 41.25 48 L 25.375 29.125 z " fill="#000"/><path d="m 25.08 28.909 -15.807 12.766 c 3.987 3.322 9.122 5.325 14.746 5.325 c 4.854 0 9.333 -1.485 13.04 -4.03 l -11.975 -14.06 z" fill="#000"/><g transform="matrix(3.879452,0,0,3.8702596,-2.3716881,-2.174614)" fill="#000"><use xlink:href="#SVGCleanerId_0"/><use xlink:href="#SVGCleanerId_1"/></g><path d="m 15.864 34.948 c -0.451 -2.209 -1.247 -4.048 -2.21 -5.752 -0.715 -1.264 -1.542 -2.431 -2.308 -3.656 -0.256 -0.409 -0.476 -0.841 -0.722 -1.266 -0.491 -0.849 -0.89 -1.834 -0.864 -3.111 0.023 -1.248 0.386 -2.249 0.908 -3.067 0.858 -1.346 2.295 -2.45 4.223 -2.74 1.576 -0.237 3.055 0.163 4.103 0.775 0.857 0.5 1.52 1.167 2.024 1.954 0.526 0.821 0.889 1.791 0.919 3.056 0.016 0.648 -0.091 1.248 -0.241 1.746 -0.152 0.504 -0.396 0.925 -0.613 1.375 -0.424 0.878 -0.955 1.683 -1.488 2.489 -1.588 2.399 -3.078 4.845 -3.731 8.197 z" fill-rule="evenodd" fill="#000"/><circle cx="729.55" cy="651.05" r="183.33" transform="matrix(0.01493004,0,0,0.01489465,4.8872724,11.597267)" fill-rule="evenodd" fill="#000"/></g></g></g></g></g><g><g clip-path="url(#clipPath-594706288)"><!-- color: #63c038 --><path d="M 25.375 29.125 L 1.25 48 L 41.25 48 L 25.375 29.125 z " fill="#868bec"/><path d="m 25.08 28.909 -15.807 12.766 c 3.987 3.322 9.122 5.325 14.746 5.325 c 4.854 0 9.333 -1.485 13.04 -4.03 l -11.975 -14.06 z" fill="#868bec"/><g transform="matrix(3.879452,0,0,3.8702596,-2.3716881,-2.174614)" fill="#ffe991"><path transform="scale(0.28222223,0.28222223)" d="m 46.01 8.4 -43.841 35.705 c 0 0.545 0 1.38 0 1.831 0.913 0 2.74 0 3.653 0 l 40.19 -32.959 z" id="SVGCleanerId_0"/><path transform="scale(0.28222223,0.28222223)" d="m 26.813 27.469 -2.406 2.281 13.381 16.186 c 0.913 0 2.74 0 3.653 0 z" id="SVGCleanerId_1"/></g><path d="m 15.864 34.948 c -0.451 -2.209 -1.247 -4.048 -2.21 -5.752 -0.715 -1.264 -1.542 -2.431 -2.308 -3.656 -0.256 -0.409 -0.476 -0.841 -0.722 -1.266 -0.491 -0.849 -0.89 -1.834 -0.864 -3.111 0.023 -1.248 0.386 -2.249 0.908 -3.067 0.858 -1.346 2.295 -2.45 4.223 -2.74 1.576 -0.237 3.055 0.163 4.103 0.775 0.857 0.5 1.52 1.167 2.024 1.954 0.526 0.821 0.889 1.791 0.919 3.056 0.016 0.648 -0.091 1.248 -0.241 1.746 -0.152 0.504 -0.396 0.925 -0.613 1.375 -0.424 0.878 -0.955 1.683 -1.488 2.489 -1.588 2.399 -3.078 4.845 -3.731 8.197 z" fill="#f3543f" fill-rule="evenodd"/><circle cx="729.55" cy="651.05" r="183.33" transform="matrix(0.01493004,0,0,0.01489465,4.8872724,11.597267)" fill="#c32f20" fill-rule="evenodd"/></g></g><g><path d="m 24 1 c -1.045 0 -2.01 0.284 -2.844 0.781 l -15.344 8.719 c -0.017 0.013 -0.045 0.023 -0.063 0.031 c -1.852 1.051 -2.851 3 -2.75 4.969 l 0 1 c -0.101 -1.966 0.898 -3.918 2.75 -4.969 c 0.017 -0.008 0.045 -0.018 0.063 -0.031 l 15.344 -8.719 c 0.832 -0.497 1.799 -0.781 2.844 -0.781 c 1.045 0 2.01 0.284 2.844 0.781 l 15.25 8.656 c 0.873 0.46 1.625 1.156 2.156 2.063 c 0.554 0.942 0.806 1.988 0.75 3 l 0 -1 c 0.056 -1.012 -0.196 -2.058 -0.75 -3 c -0.532 -0.906 -1.283 -1.603 -2.156 -2.063 l -15.25 -8.656 c -0.832 -0.497 -1.799 -0.781 -2.844 -0.781 z" opacity="0.2" fill="#fff"/></g></svg>