<svg viewBox="0 0 48 48"><defs><linearGradient id="linearGradient3764" x1="1" x2="47" gradientUnits="userSpaceOnUse" gradientTransform="translate(-48.000001,0.00221467)"><stop stop-color="#7282a0" stop-opacity="1"/><stop offset="1" stop-color="#7e8da8" stop-opacity="1"/></linearGradient><clipPath id="clipPath-864657906"><g transform="translate(0,-1004.3622)"><rect rx="4" y="1005.36" x="1" height="46" width="46" fill="#1890d0"/></g></clipPath><clipPath id="clipPath-887549903"><g transform="translate(0,-1004.3622)"><rect rx="4" y="1005.36" x="1" height="46" width="46" fill="#1890d0"/></g></clipPath></defs><g><path d="m 1 43 l 0 0.25 c 0 2.216 1.784 4 4 4 l 38 0 c 2.216 0 4 -1.784 4 -4 l 0 -0.25 c 0 2.216 -1.784 4 -4 4 l -38 0 c -2.216 0 -4 -1.784 -4 -4 z m 0 0.5 l 0 0.5 c 0 2.216 1.784 4 4 4 l 38 0 c 2.216 0 4 -1.784 4 -4 l 0 -0.5 c 0 2.216 -1.784 4 -4 4 l -38 0 c -2.216 0 -4 -1.784 -4 -4 z" opacity="0.02"/><path d="m 1 43.25 l 0 0.25 c 0 2.216 1.784 4 4 4 l 38 0 c 2.216 0 4 -1.784 4 -4 l 0 -0.25 c 0 2.216 -1.784 4 -4 4 l -38 0 c -2.216 0 -4 -1.784 -4 -4 z" opacity="0.05"/><path d="m 1 43 l 0 0.25 c 0 2.216 1.784 4 4 4 l 38 0 c 2.216 0 4 -1.784 4 -4 l 0 -0.25 c 0 2.216 -1.784 4 -4 4 l -38 0 c -2.216 0 -4 -1.784 -4 -4 z" opacity="0.1"/></g><g><rect width="46" height="46" x="-47" y="1" rx="4" transform="matrix(0,-1,1,0,0,0)" fill="url(#linearGradient3764)" fill-opacity="1"/></g><g><g clip-path="url(#clipPath-864657906)"><g opacity="0.1"><!-- color: #7e8da8 --><g><path d="m 29.969 35.35 c -0.965 -1.035 -2.305 -1.895 -4.32 -2.77 c -2.836 -1.23 -3.984 -1.984 -6.984 -4.582 c -2.367 -2.047 -4.188 -3.289 -5.863 -4 c -0.375 -0.16 -0.73 -0.336 -0.789 -0.387 c -0.16 -0.141 1.551 -3.215 1.789 -3.215 c 0.402 0 1.645 0.395 2.277 0.723 c 1.148 0.602 1.992 1.246 3.297 2.523 c 2.164 2.125 3.336 2.941 5.586 3.891 c 4.094 1.719 5.359 2.453 7.914 4.578 l 0.309 0.254 l -0.48 0.754 c -0.375 0.586 -2.063 2.887 -2.117 2.883 c -0.004 0 -0.281 -0.293 -0.617 -0.648 m 2.719 -7.23 c -1.086 -1.168 -2.398 -1.957 -5.523 -3.336 c -3.289 -1.449 -3.613 -1.656 -6.957 -4.41 c -1.227 -1.01 -2.734 -2.176 -3.352 -2.594 c -1.148 -0.777 -3.594 -2.074 -4.207 -2.23 c -0.191 -0.047 -0.344 -0.129 -0.344 -0.184 c 0 -0.055 0.434 -0.844 0.965 -1.758 c 1.082 -1.859 0.914 -1.758 2.316 -1.398 c 1.555 0.398 3.262 1.484 5.145 3.277 c 2.469 2.352 3.613 3.082 7 4.453 c 2.613 1.063 3.875 1.672 5.246 2.531 c 1.117 0.699 3.02 2.191 3.02 2.363 c 0 0.297 -2.52 3.785 -2.75 3.805 c -0.035 0 -0.289 -0.23 -0.563 -0.52 m 0 0" fill="#000"/></g></g></g></g><g><g clip-path="url(#clipPath-887549903)"><g transform="translate(0,-1)"><!-- color: #7e8da8 --><g><path d="m 29.969 35.35 c -0.965 -1.035 -2.305 -1.895 -4.32 -2.77 c -2.836 -1.23 -3.984 -1.984 -6.984 -4.582 c -2.367 -2.047 -4.188 -3.289 -5.863 -4 c -0.375 -0.16 -0.73 -0.336 -0.789 -0.387 c -0.16 -0.141 1.551 -3.215 1.789 -3.215 c 0.402 0 1.645 0.395 2.277 0.723 c 1.148 0.602 1.992 1.246 3.297 2.523 c 2.164 2.125 3.336 2.941 5.586 3.891 c 4.094 1.719 5.359 2.453 7.914 4.578 l 0.309 0.254 l -0.48 0.754 c -0.375 0.586 -2.063 2.887 -2.117 2.883 c -0.004 0 -0.281 -0.293 -0.617 -0.648 m 2.719 -7.23 c -1.086 -1.168 -2.398 -1.957 -5.523 -3.336 c -3.289 -1.449 -3.613 -1.656 -6.957 -4.41 c -1.227 -1.01 -2.734 -2.176 -3.352 -2.594 c -1.148 -0.777 -3.594 -2.074 -4.207 -2.23 c -0.191 -0.047 -0.344 -0.129 -0.344 -0.184 c 0 -0.055 0.434 -0.844 0.965 -1.758 c 1.082 -1.859 0.914 -1.758 2.316 -1.398 c 1.555 0.398 3.262 1.484 5.145 3.277 c 2.469 2.352 3.613 3.082 7 4.453 c 2.613 1.063 3.875 1.672 5.246 2.531 c 1.117 0.699 3.02 2.191 3.02 2.363 c 0 0.297 -2.52 3.785 -2.75 3.805 c -0.035 0 -0.289 -0.23 -0.563 -0.52 m 0 0" fill="#fff"/></g></g></g></g><g><g transform="translate(0,-1004.3622)"><path d="m 1 1043.36 0 4 c 0 2.216 1.784 4 4 4 l 38 0 c 2.216 0 4 -1.784 4 -4 l 0 -4 c 0 2.216 -1.784 4 -4 4 l -38 0 c -2.216 0 -4 -1.784 -4 -4 z" opacity="0.1"/></g></g></svg>