<svg viewBox="0 0 48 48"><defs><linearGradient id="linearGradient3764" x1="1" x2="47" gradientUnits="userSpaceOnUse" gradientTransform="translate(-48.000001,0.00221467)"><stop stop-color="#969696" stop-opacity="1"/><stop offset="1" stop-color="#a0a0a0" stop-opacity="1"/></linearGradient><clipPath id="clipPath-596874023"><g transform="translate(0,-1004.3622)"><rect rx="4" y="1005.36" x="1" height="46" width="46" fill="#1890d0"/></g></clipPath><clipPath id="clipPath-610834886"><g transform="translate(0,-1004.3622)"><rect rx="4" y="1005.36" x="1" height="46" width="46" fill="#1890d0"/></g></clipPath></defs><g><path d="m 1 43 l 0 0.25 c 0 2.216 1.784 4 4 4 l 38 0 c 2.216 0 4 -1.784 4 -4 l 0 -0.25 c 0 2.216 -1.784 4 -4 4 l -38 0 c -2.216 0 -4 -1.784 -4 -4 z m 0 0.5 l 0 0.5 c 0 2.216 1.784 4 4 4 l 38 0 c 2.216 0 4 -1.784 4 -4 l 0 -0.5 c 0 2.216 -1.784 4 -4 4 l -38 0 c -2.216 0 -4 -1.784 -4 -4 z" opacity="0.02"/><path d="m 1 43.25 l 0 0.25 c 0 2.216 1.784 4 4 4 l 38 0 c 2.216 0 4 -1.784 4 -4 l 0 -0.25 c 0 2.216 -1.784 4 -4 4 l -38 0 c -2.216 0 -4 -1.784 -4 -4 z" opacity="0.05"/><path d="m 1 43 l 0 0.25 c 0 2.216 1.784 4 4 4 l 38 0 c 2.216 0 4 -1.784 4 -4 l 0 -0.25 c 0 2.216 -1.784 4 -4 4 l -38 0 c -2.216 0 -4 -1.784 -4 -4 z" opacity="0.1"/></g><g><rect width="46" height="46" x="-47" y="1" rx="4" transform="matrix(0,-1,1,0,0,0)" fill="url(#linearGradient3764)" fill-opacity="1"/></g><g><g clip-path="url(#clipPath-596874023)"><g opacity="0.1"><!-- color: #a0a0a0 --><g><path d="m 37 22.16 l 0 3.758 c 0 0.133 -0.047 0.266 -0.137 0.387 c -0.09 0.125 -0.203 0.199 -0.336 0.223 l -3.133 0.473 c -0.215 0.609 -0.434 1.121 -0.66 1.539 c 0.395 0.566 1 1.344 1.813 2.336 c 0.113 0.137 0.168 0.277 0.168 0.426 c 0 0.145 -0.051 0.273 -0.152 0.387 c -0.305 0.418 -0.863 1.027 -1.676 1.828 c -0.813 0.801 -1.344 1.203 -1.59 1.203 c -0.137 0 -0.285 -0.051 -0.441 -0.152 l -2.336 -1.828 c -0.496 0.258 -1.012 0.473 -1.539 0.645 c -0.184 1.535 -0.344 2.582 -0.492 3.148 c -0.078 0.316 -0.281 0.473 -0.609 0.473 l -3.758 0 c -0.156 0 -0.297 -0.047 -0.414 -0.145 c -0.121 -0.094 -0.184 -0.215 -0.195 -0.363 l -0.473 -3.113 c -0.555 -0.184 -1.063 -0.391 -1.523 -0.629 l -2.387 1.813 c -0.113 0.102 -0.254 0.152 -0.426 0.152 c -0.156 0 -0.297 -0.063 -0.422 -0.188 c -1.422 -1.285 -2.352 -2.234 -2.793 -2.844 c -0.078 -0.113 -0.117 -0.242 -0.117 -0.387 c 0 -0.137 0.043 -0.266 0.133 -0.391 c 0.172 -0.238 0.457 -0.613 0.863 -1.125 c 0.406 -0.516 0.711 -0.91 0.914 -1.195 c -0.305 -0.563 -0.535 -1.121 -0.691 -1.676 l -3.098 -0.457 c -0.148 -0.02 -0.266 -0.094 -0.355 -0.211 c -0.09 -0.117 -0.137 -0.25 -0.137 -0.398 l 0 -3.758 c 0 -0.133 0.047 -0.266 0.137 -0.387 c 0.09 -0.125 0.195 -0.199 0.32 -0.223 l 3.148 -0.473 c 0.156 -0.52 0.379 -1.039 0.66 -1.559 c -0.453 -0.641 -1.055 -1.422 -1.813 -2.336 c -0.113 -0.133 -0.168 -0.27 -0.168 -0.406 c 0 -0.113 0.051 -0.242 0.152 -0.387 c 0.293 -0.406 0.848 -1.016 1.668 -1.82 c 0.816 -0.809 1.352 -1.211 1.598 -1.211 c 0.148 0 0.293 0.055 0.441 0.168 l 2.336 1.813 c 0.496 -0.258 1.012 -0.473 1.539 -0.645 c 0.184 -1.535 0.344 -2.582 0.492 -3.148 c 0.078 -0.316 0.281 -0.473 0.609 -0.473 l 3.758 0 c 0.156 0 0.297 0.047 0.414 0.145 c 0.121 0.094 0.184 0.215 0.195 0.363 l 0.473 3.113 c 0.555 0.184 1.063 0.391 1.523 0.629 l 2.406 -1.813 c 0.102 -0.102 0.234 -0.152 0.406 -0.152 c 0.145 0 0.285 0.055 0.422 0.168 c 1.457 1.344 2.387 2.305 2.793 2.879 c 0.078 0.09 0.117 0.215 0.117 0.371 c 0 0.137 -0.043 0.266 -0.133 0.391 c -0.172 0.238 -0.457 0.613 -0.863 1.125 c -0.406 0.516 -0.711 0.91 -0.914 1.195 c 0.293 0.563 0.523 1.117 0.691 1.656 l 3.098 0.477 c 0.148 0.02 0.266 0.09 0.355 0.211 c 0.09 0.117 0.137 0.25 0.137 0.398 m 0 0" fill="#000"/><path d="m 21 18.813 c -1.793 1.039 -3 2.965 -3 5.188 c 0 2.223 1.207 4.148 3 5.188 l 0 4.188 c 0.012 0.004 0.02 -0.004 0.031 0 l 0.469 3.125 c 0.012 0.148 0.102 0.246 0.219 0.344 c 0.117 0.098 0.25 0.156 0.406 0.156 l 3.75 0 c 0.328 0 0.547 -0.152 0.625 -0.469 c 0.148 -0.563 0.289 -1.621 0.469 -3.156 c 0.008 -0.004 0.023 0.004 0.031 0 l 0 -4.188 c 1.793 -1.039 3 -2.965 3 -5.188 c 0 -2.223 -1.207 -4.148 -3 -5.188 l 0 3.188 l -3 2 l -3 -2 m 0 -3.188" fill="#000"/></g></g></g></g><g><g clip-path="url(#clipPath-610834886)"><g transform="translate(0,-1)"><!-- color: #a0a0a0 --><g><path d="m 37 22.16 l 0 3.758 c 0 0.133 -0.047 0.266 -0.137 0.387 c -0.09 0.125 -0.203 0.199 -0.336 0.223 l -3.133 0.473 c -0.215 0.609 -0.434 1.121 -0.66 1.539 c 0.395 0.566 1 1.344 1.813 2.336 c 0.113 0.137 0.168 0.277 0.168 0.426 c 0 0.145 -0.051 0.273 -0.152 0.387 c -0.305 0.418 -0.863 1.027 -1.676 1.828 c -0.813 0.801 -1.344 1.203 -1.59 1.203 c -0.137 0 -0.285 -0.051 -0.441 -0.152 l -2.336 -1.828 c -0.496 0.258 -1.012 0.473 -1.539 0.645 c -0.184 1.535 -0.344 2.582 -0.492 3.148 c -0.078 0.316 -0.281 0.473 -0.609 0.473 l -3.758 0 c -0.156 0 -0.297 -0.047 -0.414 -0.145 c -0.121 -0.094 -0.184 -0.215 -0.195 -0.363 l -0.473 -3.113 c -0.555 -0.184 -1.063 -0.391 -1.523 -0.629 l -2.387 1.813 c -0.113 0.102 -0.254 0.152 -0.426 0.152 c -0.156 0 -0.297 -0.063 -0.422 -0.188 c -1.422 -1.285 -2.352 -2.234 -2.793 -2.844 c -0.078 -0.113 -0.117 -0.242 -0.117 -0.387 c 0 -0.137 0.043 -0.266 0.133 -0.391 c 0.172 -0.238 0.457 -0.613 0.863 -1.125 c 0.406 -0.516 0.711 -0.91 0.914 -1.195 c -0.305 -0.563 -0.535 -1.121 -0.691 -1.676 l -3.098 -0.457 c -0.148 -0.02 -0.266 -0.094 -0.355 -0.211 c -0.09 -0.117 -0.137 -0.25 -0.137 -0.398 l 0 -3.758 c 0 -0.133 0.047 -0.266 0.137 -0.387 c 0.09 -0.125 0.195 -0.199 0.32 -0.223 l 3.148 -0.473 c 0.156 -0.52 0.379 -1.039 0.66 -1.559 c -0.453 -0.641 -1.055 -1.422 -1.813 -2.336 c -0.113 -0.133 -0.168 -0.27 -0.168 -0.406 c 0 -0.113 0.051 -0.242 0.152 -0.387 c 0.293 -0.406 0.848 -1.016 1.668 -1.82 c 0.816 -0.809 1.352 -1.211 1.598 -1.211 c 0.148 0 0.293 0.055 0.441 0.168 l 2.336 1.813 c 0.496 -0.258 1.012 -0.473 1.539 -0.645 c 0.184 -1.535 0.344 -2.582 0.492 -3.148 c 0.078 -0.316 0.281 -0.473 0.609 -0.473 l 3.758 0 c 0.156 0 0.297 0.047 0.414 0.145 c 0.121 0.094 0.184 0.215 0.195 0.363 l 0.473 3.113 c 0.555 0.184 1.063 0.391 1.523 0.629 l 2.406 -1.813 c 0.102 -0.102 0.234 -0.152 0.406 -0.152 c 0.145 0 0.285 0.055 0.422 0.168 c 1.457 1.344 2.387 2.305 2.793 2.879 c 0.078 0.09 0.117 0.215 0.117 0.371 c 0 0.137 -0.043 0.266 -0.133 0.391 c -0.172 0.238 -0.457 0.613 -0.863 1.125 c -0.406 0.516 -0.711 0.91 -0.914 1.195 c 0.293 0.563 0.523 1.117 0.691 1.656 l 3.098 0.477 c 0.148 0.02 0.266 0.09 0.355 0.211 c 0.09 0.117 0.137 0.25 0.137 0.398 m 0 0" fill="#537dbf"/><path d="m 21 18.813 c -1.793 1.039 -3 2.965 -3 5.188 c 0 2.223 1.207 4.148 3 5.188 l 0 4.188 c 0.012 0.004 0.02 -0.004 0.031 0 l 0.469 3.125 c 0.012 0.148 0.102 0.246 0.219 0.344 c 0.117 0.098 0.25 0.156 0.406 0.156 l 3.75 0 c 0.328 0 0.547 -0.152 0.625 -0.469 c 0.148 -0.563 0.289 -1.621 0.469 -3.156 c 0.008 -0.004 0.023 0.004 0.031 0 l 0 -4.188 c 1.793 -1.039 3 -2.965 3 -5.188 c 0 -2.223 -1.207 -4.148 -3 -5.188 l 0 3.188 l -3 2 l -3 -2 m 0 -3.188" fill="#fbcc43"/></g></g></g></g><g><g transform="translate(0,-1004.3622)"><path d="m 1 1043.36 0 4 c 0 2.216 1.784 4 4 4 l 38 0 c 2.216 0 4 -1.784 4 -4 l 0 -4 c 0 2.216 -1.784 4 -4 4 l -38 0 c -2.216 0 -4 -1.784 -4 -4 z" opacity="0.1"/></g></g></svg>