<svg viewBox="0 0 48 48" xmlns:xlink="http://www.w3.org/1999/xlink"><defs><linearGradient id="linearGradient3764" x1="1" x2="47" gradientUnits="userSpaceOnUse" gradientTransform="translate(-48.000001,0.00221467)"><stop stop-color="#595959" stop-opacity="1"/><stop offset="1" stop-color="#636363" stop-opacity="1"/></linearGradient><clipPath id="clipPath-276908705"><g transform="translate(0,-1004.3622)"><rect rx="4" y="1005.36" x="1" height="46" width="46" fill="#1890d0"/></g></clipPath><clipPath id="clipPath-290386381"><g transform="translate(0,-1004.3622)"><rect rx="4" y="1005.36" x="1" height="46" width="46" fill="#1890d0"/></g></clipPath><path id="SVGCleanerId_0" d="m 23.05 34.05 l 1.898 0 l 0 1.898 l -1.898 0 m 0 -1.898" stroke-width="2.105" stroke-miterlimit="5.8"/></defs><g><path d="m 1 43 l 0 0.25 c 0 2.216 1.784 4 4 4 l 38 0 c 2.216 0 4 -1.784 4 -4 l 0 -0.25 c 0 2.216 -1.784 4 -4 4 l -38 0 c -2.216 0 -4 -1.784 -4 -4 z m 0 0.5 l 0 0.5 c 0 2.216 1.784 4 4 4 l 38 0 c 2.216 0 4 -1.784 4 -4 l 0 -0.5 c 0 2.216 -1.784 4 -4 4 l -38 0 c -2.216 0 -4 -1.784 -4 -4 z" opacity="0.02"/><path d="m 1 43.25 l 0 0.25 c 0 2.216 1.784 4 4 4 l 38 0 c 2.216 0 4 -1.784 4 -4 l 0 -0.25 c 0 2.216 -1.784 4 -4 4 l -38 0 c -2.216 0 -4 -1.784 -4 -4 z" opacity="0.05"/><path d="m 1 43 l 0 0.25 c 0 2.216 1.784 4 4 4 l 38 0 c 2.216 0 4 -1.784 4 -4 l 0 -0.25 c 0 2.216 -1.784 4 -4 4 l -38 0 c -2.216 0 -4 -1.784 -4 -4 z" opacity="0.1"/></g><g><rect width="46" height="46" x="-47" y="1" rx="4" transform="matrix(0,-1,1,0,0,0)" fill="url(#linearGradient3764)" fill-opacity="1"/></g><g><g clip-path="url(#clipPath-276908705)"><g opacity="0.1"><!-- color: #636363 --><g><path d="m 33.48 24 c 0 5.238 -4.242 9.484 -9.48 9.484 c -5.238 0 -9.484 -4.246 -9.484 -9.484 c 0 -5.238 4.246 -9.48 9.484 -9.48 c 5.238 0 9.48 4.242 9.48 9.48 m 0 0" stroke="#3dc8ff" stroke-linejoin="round" stroke-width="3.03" stroke-miterlimit="5.8" fill="#000"/><use stroke="#fff" fill="#000" xlink:href="#SVGCleanerId_0"/><path d="m 23.05 12.05 l 1.895 0 l 0 1.895 l -1.895 0 m 0 -1.895" stroke="#fff" stroke-width="2.105" stroke-miterlimit="5.8" fill="#000"/><path d="m 13.949 23.05 l 0 1.895 l -1.898 0 l 0 -1.895 m 1.898 0" stroke="#3dc8ff" stroke-width="2.105" stroke-miterlimit="5.8" fill="#000"/><path d="m 35.949 23.05 l 0 1.895 l -1.895 0 l 0 -1.895 m 1.895 0" stroke="#3dc8ff" stroke-width="2.105" stroke-miterlimit="5.8" fill="#000"/><use stroke="#3dc8ff" fill="#000" xlink:href="#SVGCleanerId_0"/><path d="m 23.05 12.05 l 1.898 0 l 0 1.895 l -1.898 0 m 0 -1.895" stroke="#3dc8ff" stroke-width="2.105" stroke-miterlimit="5.8" fill="#000"/><path d="m 30.438 31.777 l 1.34 -1.34 l 1.34 1.34 l -1.34 1.34 m -1.34 -1.34" stroke="#3dc8ff" stroke-width="2.105" stroke-miterlimit="5.8" fill="#000"/><path d="m 14.879 16.223 l 1.34 -1.344 l 1.344 1.344 l -1.344 1.34 m -1.34 -1.34" stroke="#3dc8ff" stroke-width="2.105" stroke-miterlimit="5.8" fill="#000"/><path d="m 16.223 30.438 l 1.34 1.34 l -1.34 1.34 l -1.34 -1.34 m 1.34 -1.34" stroke="#3dc8ff" stroke-width="2.105" stroke-miterlimit="5.8" fill="#000"/><path d="m 31.777 14.883 l 1.344 1.34 l -1.344 1.34 l -1.34 -1.34 m 1.34 -1.34" stroke="#3dc8ff" stroke-width="2.105" stroke-miterlimit="5.8" fill="#000"/><path d="m 27 24 c 0 1.074 -0.57 2.066 -1.5 2.602 c -0.93 0.539 -2.074 0.539 -3 0 c -0.93 -0.535 -1.504 -1.527 -1.5 -2.602 c -0.004 -1.07 0.57 -2.063 1.5 -2.602 c 0.926 -0.535 2.07 -0.535 3 0 c 0.93 0.539 1.5 1.531 1.5 2.602 m 0 0" fill="#000"/></g></g></g></g><g><g clip-path="url(#clipPath-290386381)"><g transform="translate(0,-1)"><!-- color: #636363 --><g><path d="m 33.48 24 c 0 5.238 -4.242 9.484 -9.48 9.484 c -5.238 0 -9.484 -4.246 -9.484 -9.484 c 0 -5.238 4.246 -9.48 9.484 -9.48 c 5.238 0 9.48 4.242 9.48 9.48 m 0 0" fill="none" stroke="#3dc8ff" stroke-linejoin="round" stroke-width="3.03" stroke-miterlimit="5.8"/><use fill="none" stroke="#fff" xlink:href="#SVGCleanerId_0"/><path d="m 23.05 12.05 l 1.895 0 l 0 1.895 l -1.895 0 m 0 -1.895" fill="none" stroke="#fff" stroke-width="2.105" stroke-miterlimit="5.8"/><path d="m 13.949 23.05 l 0 1.895 l -1.898 0 l 0 -1.895 m 1.898 0" fill="none" stroke="#3dc8ff" stroke-width="2.105" stroke-miterlimit="5.8"/><path d="m 35.949 23.05 l 0 1.895 l -1.895 0 l 0 -1.895 m 1.895 0" fill="none" stroke="#3dc8ff" stroke-width="2.105" stroke-miterlimit="5.8"/><use fill="none" stroke="#3dc8ff" xlink:href="#SVGCleanerId_0"/><path d="m 23.05 12.05 l 1.898 0 l 0 1.895 l -1.898 0 m 0 -1.895" fill="none" stroke="#3dc8ff" stroke-width="2.105" stroke-miterlimit="5.8"/><path d="m 30.438 31.777 l 1.34 -1.34 l 1.34 1.34 l -1.34 1.34 m -1.34 -1.34" fill="none" stroke="#3dc8ff" stroke-width="2.105" stroke-miterlimit="5.8"/><path d="m 14.879 16.223 l 1.34 -1.344 l 1.344 1.344 l -1.344 1.34 m -1.34 -1.34" fill="none" stroke="#3dc8ff" stroke-width="2.105" stroke-miterlimit="5.8"/><path d="m 16.223 30.438 l 1.34 1.34 l -1.34 1.34 l -1.34 -1.34 m 1.34 -1.34" fill="none" stroke="#3dc8ff" stroke-width="2.105" stroke-miterlimit="5.8"/><path d="m 31.777 14.883 l 1.344 1.34 l -1.344 1.34 l -1.34 -1.34 m 1.34 -1.34" fill="none" stroke="#3dc8ff" stroke-width="2.105" stroke-miterlimit="5.8"/><path d="m 27 24 c 0 1.074 -0.57 2.066 -1.5 2.602 c -0.93 0.539 -2.074 0.539 -3 0 c -0.93 -0.535 -1.504 -1.527 -1.5 -2.602 c -0.004 -1.07 0.57 -2.063 1.5 -2.602 c 0.926 -0.535 2.07 -0.535 3 0 c 0.93 0.539 1.5 1.531 1.5 2.602 m 0 0" fill="#3dc8ff"/></g></g></g></g><g><g transform="translate(0,-1004.3622)"><path d="m 1 1043.36 0 4 c 0 2.216 1.784 4 4 4 l 38 0 c 2.216 0 4 -1.784 4 -4 l 0 -4 c 0 2.216 -1.784 4 -4 4 l -38 0 c -2.216 0 -4 -1.784 -4 -4 z" opacity="0.1"/></g></g></svg>