<svg xmlns="http://www.w3.org/2000/svg" xmlns:xlink="http://www.w3.org/1999/xlink" width="48" height="48">
 <defs>
  <clipPath>
   <path d="M -670.14006,51.863192 L -114.61564,405.00326 L -257.11075,510.32573 L -514.2215,-71.013029 L -670.14006,51.863192 z"/>
  </clipPath>
  <clipPath>
   <rect width="20" x="1" y="1" rx="2" height="20" fill="#fff" fill-rule="evenodd"/>
  </clipPath>
  <clipPath>
   <rect width="84" x="6" y="6" rx="6" height="84" fill="#fff"/>
  </clipPath>
  <clipPath>
   <path d="M 54.1,12.5 12.9,54.7 C -2.7,70.3 23,69 32.3,74.9 36.6,77.7 18.5,81.3 22.2,85 c 3.6,3.7 21.7,7.1 25.3,10.7 3.6,3.7 -7.3,7.6 -3.7,11.3 3.5,3.7 11.9,0.2 13.4,8.6 1.1,6.2 15.4,3.1 21.8,-2.2 4,-3.4 -6.9,-3.4 -3.3,-7.1 9,-9.1 17,-4.1 20.3,-12.5 1.8,-4.5 -13.6,-7.7 -9.5,-10.6 9.8,-6.9 45.8,-10.4 29.2,-27 L 73,12.5 c -5.3,-5 -14,-5 -18.9,0 z m -9.9,64.7 c 0.9,0 30.8,4 19.3,7.1 -4.4,1.2 -24.6,-7.1 -19.3,-7.1 z m 57.2,16.6 c 0,2.1 16.3,3.3 15.4,-0.5 -1.3,-6.4 -13.6,-5.9 -15.4,0.5 z m -69.5,11.1 c 3.7,3.2 9.3,-0.7 11.1,-5.2 -3.6,-4.7 -16.9,0.3 -11.1,5.2 z m 67.5,-6.7 c -4.6,4.2 0.8,8.6 5.3,5.7 1.2,-0.8 -0.1,-4.7 -5.3,-5.7 z"/>
  </clipPath>
  <clipPath>
   <rect width="96" x="-100" height="96" fill="#fff"/>
  </clipPath>
  <clipPath>
   <path d="M 95.311,352.545 L 476.403,352.545 L 476.403,71.4229 L 95.311,71.4229 L 95.311,352.545 z"/>
  </clipPath>
  <clipPath>
   <path d="M 93.311,354.545 L 478.511,354.545 L 478.511,69.1846 L 93.311,69.1846 L 93.311,354.545 z"/>
  </clipPath>
  <clipPath>
   <path d="M 93.311,69.185 L 478.511,69.185 L 478.511,354.545 L 93.311,354.545 L 93.311,69.185 z"/>
  </clipPath>
  <clipPath>
   <path d="M 92.311,355.545 L 479.511,355.545 L 479.511,68.1846 L 92.311,68.1846 L 92.311,355.545 z"/>
  </clipPath>
  <linearGradient gradientTransform="translate(0,-1004.3622)" y2="1047.36" x2="0" y1="1028.36" gradientUnits="userSpaceOnUse" id="0" xlink:href="#1"/>
  <linearGradient id="1">
   <stop stop-color="#ffffff"/>
   <stop offset="1" stop-color="#ffffff" stop-opacity="0"/>
  </linearGradient>
  <linearGradient xlink:href="#3" id="2" gradientUnits="userSpaceOnUse" y1="1028.36" x2="0" y2="1047.36" gradientTransform="matrix(1,0,0,-1,0,1052.3622)"/>
  <linearGradient id="3">
   <stop/>
   <stop offset="1" stop-opacity="0"/>
  </linearGradient>
 </defs>
 <g>
  <rect rx="7" y="4" x="3" height="42" width="42" opacity="0.2"/>
  <rect width="42" height="42" x="3" y="3" rx="7" fill="#f9f9f9"/>
 </g>
 <g>
  <rect rx="6.333" y="5" x="5" height="38" width="38" fill="#177faa"/>
  <path d="M 5.53125,23.969 C 5.350468,23.969 5.176236,23.991 5,24 l 0,12.625 c 0,3.5086 2.835083,6.3437 6.34375,6.3437 l 25.3125,0 C 40.164917,42.9687 43,40.1336 43,36.625 L 43,24 c -0.176236,-0.01 -0.350468,-0.031 -0.53125,-0.031 l -36.9375,0 z" fill="#1b89b7"/>
 </g>
 <g transform="translate(0,-1004.3622)">
  <path d="m 13.838673,1040.8201 c -0.20392,-0.2978 -0.422291,-1.0186 -0.4853,-1.6018 -0.06302,-0.5832 -0.147074,-1.3736 -0.186886,-1.7569 -0.132395,-1.2742 0.828349,-6.4976 1.234974,-8.1411 0.220599,-0.8915 0.700508,-2.3717 1.066485,-3.2895 l 0.665416,-1.6686 5.866638,0 4.257222,0 -7.21e-4,1.3825 c -0.001,1.9475 -0.43241,3.349 1.292512,5.3251 l 1.299598,1.4888 c -1.928961,-2.0368 -1.364381,-4.5299 -1.325907,-6.9309 -0.0039,-0.405 -0.01353,-1.2655 1.265483,-1.2655 1.211775,0 2.01642,0.035 1.902058,0.3333 -0.33734,0.8791 -0.522454,2.3296 -0.435528,3.4126 0.12427,1.548 0.770906,2.6677 2.407226,4.1681 2.240739,2.0549 2.278359,4.2648 2.386647,5.0795 0.146049,1.0987 -0.297174,2.3358 -1.135708,3.1703 -0.586298,0.5835 -0.968448,0.712 -2.355594,0.7923 l -2.472588,0.1114 -0.888356,-1.8565 c -1.049743,-2.1938 -1.515137,-3.4782 -1.845352,-5.0928 -0.133369,-0.6522 -0.277128,-1.1353 -0.319446,-1.0735 -0.06859,0.1 0.579451,5.7663 0.839028,7.3436 l 0.103136,0.6267 L 21,1041.3622 c -6.473434,-0.016 -6.807991,-0.025 -7.161327,-0.5415 z" fill="#f7e3ae"/>
  <path d="m 17.149897,1022.7417 c 0.238062,-0.3409 0.772235,-1.0274 1.187035,-1.5255 l 0.301476,-0.3846 2.37426,0 2.687632,0 2.558337,-3.4296 c 0.985747,-1.5994 1.921559,-3.0583 2.079592,-3.2417 0.636677,-0.7396 1.94978,-0.094 1.939213,0.9534 l -3.604727,5.6226 2.375488,0.054 c 1.30651,0.03 2.375475,0.095 2.375475,0.1467 0,0.052 0.557053,-0.096 0.301565,0.3079 -0.255476,0.4047 -0.594359,1.0467 -0.753076,1.4266 l -0.288568,0.6907 -6.983299,0 -6.9833,0 z" fill="#83eb96"/>
 </g>
 <g>
  <path d="M 11.34375,5 C 7.8350832,5 5,7.8350832 5,11.34375 l 0,1 C 5,8.8350832 7.8350832,6 11.34375,6 l 25.3125,0 C 40.164917,6 43,8.8350832 43,12.34375 l 0,-1 C 43,7.8350832 40.164917,5 36.65625,5 l -25.3125,0 z" opacity="0.2"/>
  <path d="M 5.53125,24 C 5.350468,24 5.176236,24.022 5,24.031 l 0,12.625 c 0,3.5086 2.835083,6.3437 6.34375,6.3437 l 25.3125,0 C 40.164917,42.9997 43,40.1646 43,36.656 L 43,24.031 C 42.823764,24.021 42.649532,24 42.46875,24 l -36.9375,0 z" opacity="0.03" fill="url(#0)"/>
  <path d="M 5.53125,24 C 5.350468,24 5.176236,23.978 5,23.969 L 5,11.344 C 5,7.8354 7.835083,5.0003 11.34375,5.0003 l 25.3125,0 C 40.164917,5.0003 43,7.8354 43,11.344 l 0,12.625 C 42.823764,23.979 42.649532,24 42.46875,24 l -36.9375,0 z" opacity="0.03" fill="url(#2)"/>
 </g>
</svg>
