<svg viewBox="0 0 48 48"><defs><linearGradient id="linearGradient3764" x1="1" x2="47" gradientUnits="userSpaceOnUse" gradientTransform="translate(-48.000001,0.00221467)"><stop stop-color="#8f65b7" stop-opacity="1"/><stop offset="1" stop-color="#9a73bd" stop-opacity="1"/></linearGradient><clipPath id="clipPath-838157983"><g transform="translate(0,-1004.3622)"><rect rx="4" y="1005.36" x="1" height="46" width="46" fill="#1890d0"/></g></clipPath><clipPath id="clipPath-851309674"><g transform="translate(0,-1004.3622)"><rect rx="4" y="1005.36" x="1" height="46" width="46" fill="#1890d0"/></g></clipPath></defs><g><path d="m 1 43 l 0 0.25 c 0 2.216 1.784 4 4 4 l 38 0 c 2.216 0 4 -1.784 4 -4 l 0 -0.25 c 0 2.216 -1.784 4 -4 4 l -38 0 c -2.216 0 -4 -1.784 -4 -4 z m 0 0.5 l 0 0.5 c 0 2.216 1.784 4 4 4 l 38 0 c 2.216 0 4 -1.784 4 -4 l 0 -0.5 c 0 2.216 -1.784 4 -4 4 l -38 0 c -2.216 0 -4 -1.784 -4 -4 z" opacity="0.02"/><path d="m 1 43.25 l 0 0.25 c 0 2.216 1.784 4 4 4 l 38 0 c 2.216 0 4 -1.784 4 -4 l 0 -0.25 c 0 2.216 -1.784 4 -4 4 l -38 0 c -2.216 0 -4 -1.784 -4 -4 z" opacity="0.05"/><path d="m 1 43 l 0 0.25 c 0 2.216 1.784 4 4 4 l 38 0 c 2.216 0 4 -1.784 4 -4 l 0 -0.25 c 0 2.216 -1.784 4 -4 4 l -38 0 c -2.216 0 -4 -1.784 -4 -4 z" opacity="0.1"/></g><g><rect width="46" height="46" x="-47" y="1" rx="4" transform="matrix(0,-1,1,0,0,0)" fill="url(#linearGradient3764)" fill-opacity="1"/></g><g><g clip-path="url(#clipPath-838157983)"><g opacity="0.1"><!-- color: #9a73bd --><g><path d="m 24 9 l -13 26 l 8 0 l 5 -8 l 5 8 l 8 0 m -13 -26" fill="#000"/><path d="m 15 27 l -4 8 l 8 0 m -4 -8" fill="#000"/><path d="m 33 27 l -4 8 l 8 0 m -4 -8" fill="#000"/><path d="m 24 27 l -9 0 l 4 8 m 5 -8" fill="#000"/><path d="m 24 27 l 9 0 l -4 8 m -5 -8" fill="#000"/><path d="m 24 9 l -4.5 9 l 9 0 m -4.5 -9" fill="#000"/><path d="m 24 27 l -4.5 -9 l 9 0 m -4.5 9" fill="#000"/><path d="m 19.5 18 l -4.5 9 l 9 0 m -4.5 -9" fill="#000"/><path d="m 28.5 18 l -4.5 9 l 9 0 m -4.5 -9" fill="#000"/></g></g></g></g><g><g clip-path="url(#clipPath-851309674)"><g transform="translate(0,-1)"><!-- color: #9a73bd --><g><path d="m 24 9 l -13 26 l 8 0 l 5 -8 l 5 8 l 8 0 m -13 -26" fill="#7cc7dd"/><path d="m 15 27 l -4 8 l 8 0 m -4 -8" fill="#9c4600"/><path d="m 33 27 l -4 8 l 8 0 m -4 -8" fill="#ac8f26"/><path d="m 24 27 l -9 0 l 4 8 m 5 -8" fill="#ff8f00"/><path d="m 24 27 l 9 0 l -4 8 m -5 -8" fill="#fff300"/><path d="m 24 9 l -4.5 9 l 9 0 m -4.5 -9" fill="#d6f4f4"/><path d="m 24 27 l -4.5 -9 l 9 0 m -4.5 9" fill="#00e2e2"/><path d="m 19.5 18 l -4.5 9 l 9 0 m -4.5 -9" fill="#006277"/><path d="m 28.5 18 l -4.5 9 l 9 0 m -4.5 -9" fill="#00ff8f"/></g></g></g></g><g><g transform="translate(0,-1004.3622)"><path d="m 1 1043.36 0 4 c 0 2.216 1.784 4 4 4 l 38 0 c 2.216 0 4 -1.784 4 -4 l 0 -4 c 0 2.216 -1.784 4 -4 4 l -38 0 c -2.216 0 -4 -1.784 -4 -4 z" opacity="0.1"/></g></g></svg>