<svg viewBox="0 0 48 48"><defs><linearGradient id="linearGradient3764" x1="1" x2="47" gradientUnits="userSpaceOnUse" gradientTransform="translate(-48.000001,0.00221467)"><stop stop-color="#535457" stop-opacity="1"/><stop offset="1" stop-color="#5d5e61" stop-opacity="1"/></linearGradient><clipPath id="clipPath-776089933"><g transform="translate(0,-1004.3622)"><rect rx="4" y="1005.36" x="1" height="46" width="46" fill="#1890d0"/></g></clipPath><clipPath id="clipPath-789286915"><g transform="translate(0,-1004.3622)"><rect rx="4" y="1005.36" x="1" height="46" width="46" fill="#1890d0"/></g></clipPath></defs><g><path d="m 1 43 l 0 0.25 c 0 2.216 1.784 4 4 4 l 38 0 c 2.216 0 4 -1.784 4 -4 l 0 -0.25 c 0 2.216 -1.784 4 -4 4 l -38 0 c -2.216 0 -4 -1.784 -4 -4 z m 0 0.5 l 0 0.5 c 0 2.216 1.784 4 4 4 l 38 0 c 2.216 0 4 -1.784 4 -4 l 0 -0.5 c 0 2.216 -1.784 4 -4 4 l -38 0 c -2.216 0 -4 -1.784 -4 -4 z" opacity="0.02"/><path d="m 1 43.25 l 0 0.25 c 0 2.216 1.784 4 4 4 l 38 0 c 2.216 0 4 -1.784 4 -4 l 0 -0.25 c 0 2.216 -1.784 4 -4 4 l -38 0 c -2.216 0 -4 -1.784 -4 -4 z" opacity="0.05"/><path d="m 1 43 l 0 0.25 c 0 2.216 1.784 4 4 4 l 38 0 c 2.216 0 4 -1.784 4 -4 l 0 -0.25 c 0 2.216 -1.784 4 -4 4 l -38 0 c -2.216 0 -4 -1.784 -4 -4 z" opacity="0.1"/></g><g><rect width="46" height="46" x="-47" y="1" rx="4" transform="matrix(0,-1,1,0,0,0)" fill="url(#linearGradient3764)" fill-opacity="1"/></g><g><g clip-path="url(#clipPath-776089933)"><g opacity="0.1"><!-- color: #5d5e61 --><g><path d="m 20 12.688 c -4.727 1.656 -8 6.164 -8 11.313 c 0 6.504 5.223 12 12 12 c 6.777 0 12 -5.5 12 -12 c 0 -4.055 -2.02 -7.723 -5.188 -9.906 l -2.938 1.625 c 2.875 1.492 4.938 4.578 4.938 8.281 c 0 5.23 -4.098 9.25 -8.813 9.25 c -4.715 0 -8.813 -4.02 -8.813 -9.25 c 0 -3.648 2 -6.703 4.813 -8.219 m 0 -3.094" fill="#000"/><path d="m 34.5 21 c 0.828 0 1.5 0.895 1.5 2 l 0 13 c 0 1.105 -0.672 2 -1.5 2 c -0.828 0 -1.5 -0.895 -1.5 -2 l 0 -13 c 0 -1.105 0.672 -2 1.5 -2 m 0 0" fill="#000"/><path d="m 22 10 l 6 4 l -6 4 m 0 -8" fill="#000"/></g></g></g></g><g><g clip-path="url(#clipPath-789286915)"><g transform="translate(0,-1)"><!-- color: #5d5e61 --><g><path d="m 20 12.688 c -4.727 1.656 -8 6.164 -8 11.313 c 0 6.504 5.223 12 12 12 c 6.777 0 12 -5.5 12 -12 c 0 -4.055 -2.02 -7.723 -5.188 -9.906 l -2.938 1.625 c 2.875 1.492 4.938 4.578 4.938 8.281 c 0 5.23 -4.098 9.25 -8.813 9.25 c -4.715 0 -8.813 -4.02 -8.813 -9.25 c 0 -3.648 2 -6.703 4.813 -8.219 m 0 -3.094" fill="#f9f9f9"/><path d="m 34.5 21 c 0.828 0 1.5 0.895 1.5 2 l 0 13 c 0 1.105 -0.672 2 -1.5 2 c -0.828 0 -1.5 -0.895 -1.5 -2 l 0 -13 c 0 -1.105 0.672 -2 1.5 -2 m 0 0" fill="#f9f9f9"/><path d="m 22 10 l 6 4 l -6 4 m 0 -8" fill="#f5c1ab"/></g></g></g></g><g><g transform="translate(0,-1004.3622)"><path d="m 1 1043.36 0 4 c 0 2.216 1.784 4 4 4 l 38 0 c 2.216 0 4 -1.784 4 -4 l 0 -4 c 0 2.216 -1.784 4 -4 4 l -38 0 c -2.216 0 -4 -1.784 -4 -4 z" opacity="0.1"/></g></g></svg>