<svg viewBox="0 0 48 48"><defs><linearGradient id="linearGradient3764" x1="1" x2="47" gradientUnits="userSpaceOnUse" gradientTransform="translate(-48.000001,0.00221467)"><stop stop-color="#4a7db6" stop-opacity="1"/><stop offset="1" stop-color="#5888bc" stop-opacity="1"/></linearGradient><clipPath id="clipPath-932633366"><g transform="translate(0,-1004.3622)"><rect rx="4" y="1005.36" x="1" height="46" width="46" fill="#1890d0"/></g></clipPath><clipPath id="clipPath-946377163"><g transform="translate(0,-1004.3622)"><rect rx="4" y="1005.36" x="1" height="46" width="46" fill="#1890d0"/></g></clipPath></defs><g><path d="m 1 43 l 0 0.25 c 0 2.216 1.784 4 4 4 l 38 0 c 2.216 0 4 -1.784 4 -4 l 0 -0.25 c 0 2.216 -1.784 4 -4 4 l -38 0 c -2.216 0 -4 -1.784 -4 -4 z m 0 0.5 l 0 0.5 c 0 2.216 1.784 4 4 4 l 38 0 c 2.216 0 4 -1.784 4 -4 l 0 -0.5 c 0 2.216 -1.784 4 -4 4 l -38 0 c -2.216 0 -4 -1.784 -4 -4 z" opacity="0.02"/><path d="m 1 43.25 l 0 0.25 c 0 2.216 1.784 4 4 4 l 38 0 c 2.216 0 4 -1.784 4 -4 l 0 -0.25 c 0 2.216 -1.784 4 -4 4 l -38 0 c -2.216 0 -4 -1.784 -4 -4 z" opacity="0.05"/><path d="m 1 43 l 0 0.25 c 0 2.216 1.784 4 4 4 l 38 0 c 2.216 0 4 -1.784 4 -4 l 0 -0.25 c 0 2.216 -1.784 4 -4 4 l -38 0 c -2.216 0 -4 -1.784 -4 -4 z" opacity="0.1"/></g><g><rect width="46" height="46" x="-47" y="1" rx="4" transform="matrix(0,-1,1,0,0,0)" fill="url(#linearGradient3764)" fill-opacity="1"/></g><g><g clip-path="url(#clipPath-932633366)"><g opacity="0.1"><!-- color: #5888bc --><g><path d="m 37 24 c 0 7.18 -5.82 13 -13 13 c -7.18 0 -13 -5.82 -13 -13 c 0 -7.18 5.82 -13 13 -13 c 7.18 0 13 5.82 13 13 m 0 0" fill="#000"/><path d="m 23 15 l 10 0 c 0.637 0.055 0.441 0.527 0 1 l -16 18 c -0.5 0.496 -1.496 -0.223 -1 -1 l 9 -16 l -2 -1 c -0.832 -0.332 -0.805 -0.973 0 -1 m 0 0" fill="#000"/></g></g></g></g><g><g clip-path="url(#clipPath-946377163)"><g transform="translate(0,-1)"><!-- color: #5888bc --><g><path d="m 37 24 c 0 7.18 -5.82 13 -13 13 c -7.18 0 -13 -5.82 -13 -13 c 0 -7.18 5.82 -13 13 -13 c 7.18 0 13 5.82 13 13 m 0 0" fill="#e5553c"/><path d="m 23 15 l 10 0 c 0.637 0.055 0.441 0.527 0 1 l -16 18 c -0.5 0.496 -1.496 -0.223 -1 -1 l 9 -16 l -2 -1 c -0.832 -0.332 -0.805 -0.973 0 -1 m 0 0" fill="#f9f9f9"/></g></g></g></g><g><g transform="translate(0,-1004.3622)"><path d="m 1 1043.36 0 4 c 0 2.216 1.784 4 4 4 l 38 0 c 2.216 0 4 -1.784 4 -4 l 0 -4 c 0 2.216 -1.784 4 -4 4 l -38 0 c -2.216 0 -4 -1.784 -4 -4 z" opacity="0.1"/></g></g></svg>