<svg viewBox="0 0 48 48"><defs><linearGradient id="linearGradient3764" x1="1" x2="47" gradientUnits="userSpaceOnUse" gradientTransform="translate(-48.000001,0.00221467)"><stop stop-color="#e96c2f" stop-opacity="1"/><stop offset="1" stop-color="#eb7841" stop-opacity="1"/></linearGradient><clipPath id="clipPath-261400544"><g transform="translate(0,-1004.3622)"><rect rx="4" y="1005.36" x="1" height="46" width="46" fill="#1890d0"/></g></clipPath><clipPath id="clipPath-274925247"><g transform="translate(0,-1004.3622)"><rect rx="4" y="1005.36" x="1" height="46" width="46" fill="#1890d0"/></g></clipPath><clipPath><path d="m 15 22 l 18 0 l 0 25 l -18 0 m 0 -25"/></clipPath><clipPath><path d="m 24 1 c 12.703 0 23 10.297 23 23 c 0 12.703 -10.297 23 -23 23 c -12.703 0 -23 -10.297 -23 -23 c 0 -12.703 10.297 -23 23 -23 m 0 0"/></clipPath><clipPath><path d="m 27 15 l 3 0 l 0 8 l -3 0 m 0 -8"/></clipPath><clipPath><path d="m 19 15 l 5 0 l 0 5 l -5 0 m 0 -5"/></clipPath><clipPath><path d="m 15 11 l 9 0 l 0 9 l -9 0 m 0 -9"/></clipPath><clipPath><path d="m 15 22 l 18 0 l 0 25 l -18 0 m 0 -25"/></clipPath><clipPath><path d="m 24 1 c 12.703 0 23 10.297 23 23 c 0 12.703 -10.297 23 -23 23 c -12.703 0 -23 -10.297 -23 -23 c 0 -12.703 10.297 -23 23 -23 m 0 0"/></clipPath><clipPath><path d="m 27 15 l 3 0 l 0 8 l -3 0 m 0 -8"/></clipPath><clipPath><path d="m 19 15 l 5 0 l 0 5 l -5 0 m 0 -5"/></clipPath><clipPath><path d="m 15 11 l 9 0 l 0 9 l -9 0 m 0 -9"/></clipPath></defs><g><path d="m 1 43 l 0 0.25 c 0 2.216 1.784 4 4 4 l 38 0 c 2.216 0 4 -1.784 4 -4 l 0 -0.25 c 0 2.216 -1.784 4 -4 4 l -38 0 c -2.216 0 -4 -1.784 -4 -4 z m 0 0.5 l 0 0.5 c 0 2.216 1.784 4 4 4 l 38 0 c 2.216 0 4 -1.784 4 -4 l 0 -0.5 c 0 2.216 -1.784 4 -4 4 l -38 0 c -2.216 0 -4 -1.784 -4 -4 z" opacity="0.02"/><path d="m 1 43.25 l 0 0.25 c 0 2.216 1.784 4 4 4 l 38 0 c 2.216 0 4 -1.784 4 -4 l 0 -0.25 c 0 2.216 -1.784 4 -4 4 l -38 0 c -2.216 0 -4 -1.784 -4 -4 z" opacity="0.05"/><path d="m 1 43 l 0 0.25 c 0 2.216 1.784 4 4 4 l 38 0 c 2.216 0 4 -1.784 4 -4 l 0 -0.25 c 0 2.216 -1.784 4 -4 4 l -38 0 c -2.216 0 -4 -1.784 -4 -4 z" opacity="0.1"/></g><g><rect width="46" height="46" x="-47" y="1" rx="4" transform="matrix(0,-1,1,0,0,0)" fill="url(#linearGradient3764)" fill-opacity="1"/></g><g><g clip-path="url(#clipPath-261400544)"><g opacity="0.1"><!-- color: #eb7841 --><path d="m 17 22 c -1.109 0 -2 0.891 -2 2 l 0 24 18 0 0 -24 c 0 -1.109 -0.891 -2 -2 -2 z m 2 6 10 0 c 0.555 0 1 0.445 1 1 0 0.555 -0.445 1 -1 1 l -10 0 c -0.555 0 -1 -0.445 -1 -1 0 -0.555 0.445 -1 1 -1 z m 0 4 10 0 c 0.555 0 1 0.445 1 1 0 0.555 -0.445 1 -1 1 l -10 0 c -0.555 0 -1 -0.445 -1 -1 0 -0.555 0.445 -1 1 -1 z m 0 4 10 0 c 0.555 0 1 0.445 1 1 0 0.555 -0.445 1 -1 1 l -10 0 c -0.555 0 -1 -0.445 -1 -1 0 -0.555 0.445 -1 1 -1 z" fill="#000"/><path d="m 28 15.996 1 0 c 0.551 0 1 0.449 1 1 l 0 5 c 0 0.555 -0.449 1 -1 1 l -1 0 c -0.551 0 -1 -0.445 -1 -1 l 0 -5 c 0 -0.551 0.449 -1 1 -1 z m 0 0" fill="#000"/><path d="m 19 20 2 0 c 0 -2 1 -3 3 -3 l 0 -2 c -3 0 -5 2 -5 5 z m 0 0" fill="#000"/><path d="m 15 20 2 0 c 0 -4 3 -7 7 -7 l 0 -2 c -5 0 -9 4 -9 9 z m 0 0" fill="#000"/></g></g></g><g><g clip-path="url(#clipPath-274925247)"><g transform="translate(0,-1)"><!-- color: #eb7841 --><path d="m 17 22 c -1.109 0 -2 0.891 -2 2 l 0 24 18 0 0 -24 c 0 -1.109 -0.891 -2 -2 -2 z m 2 6 10 0 c 0.555 0 1 0.445 1 1 0 0.555 -0.445 1 -1 1 l -10 0 c -0.555 0 -1 -0.445 -1 -1 0 -0.555 0.445 -1 1 -1 z m 0 4 10 0 c 0.555 0 1 0.445 1 1 0 0.555 -0.445 1 -1 1 l -10 0 c -0.555 0 -1 -0.445 -1 -1 0 -0.555 0.445 -1 1 -1 z m 0 4 10 0 c 0.555 0 1 0.445 1 1 0 0.555 -0.445 1 -1 1 l -10 0 c -0.555 0 -1 -0.445 -1 -1 0 -0.555 0.445 -1 1 -1 z" fill="#f8f8f8"/><path d="m 28 15.996 1 0 c 0.551 0 1 0.449 1 1 l 0 5 c 0 0.555 -0.449 1 -1 1 l -1 0 c -0.551 0 -1 -0.445 -1 -1 l 0 -5 c 0 -0.551 0.449 -1 1 -1 z m 0 0" fill="#f8f8f8"/><path d="m 19 20 2 0 c 0 -2 1 -3 3 -3 l 0 -2 c -3 0 -5 2 -5 5 z m 0 0" fill="#f8f8f8"/><path d="m 15 20 2 0 c 0 -4 3 -7 7 -7 l 0 -2 c -5 0 -9 4 -9 9 z m 0 0" fill="#f8f8f8"/></g></g></g><g><g transform="translate(0,-1004.3622)"><path d="m 1 1043.36 0 4 c 0 2.216 1.784 4 4 4 l 38 0 c 2.216 0 4 -1.784 4 -4 l 0 -4 c 0 2.216 -1.784 4 -4 4 l -38 0 c -2.216 0 -4 -1.784 -4 -4 z" opacity="0.1"/></g></g></svg>