<svg viewBox="0 0 48 48" xmlns:xlink="http://www.w3.org/1999/xlink"><defs><linearGradient id="linearGradient3764" x1="1" x2="47" gradientUnits="userSpaceOnUse" gradientTransform="translate(-48.000001,0.00221467)"><stop stop-color="#d1d4d7" stop-opacity="1"/><stop offset="1" stop-color="#dcdee0" stop-opacity="1"/></linearGradient><clipPath id="clipPath-332325764"><g transform="translate(0,-1004.3622)"><rect rx="4" y="1005.36" x="1" height="46" width="46" fill="#1890d0"/></g></clipPath><clipPath id="clipPath-345116077"><g transform="translate(0,-1004.3622)"><rect rx="4" y="1005.36" x="1" height="46" width="46" fill="#1890d0"/></g></clipPath></defs><g><path d="m 1 43 l 0 0.25 c 0 2.216 1.784 4 4 4 l 38 0 c 2.216 0 4 -1.784 4 -4 l 0 -0.25 c 0 2.216 -1.784 4 -4 4 l -38 0 c -2.216 0 -4 -1.784 -4 -4 z m 0 0.5 l 0 0.5 c 0 2.216 1.784 4 4 4 l 38 0 c 2.216 0 4 -1.784 4 -4 l 0 -0.5 c 0 2.216 -1.784 4 -4 4 l -38 0 c -2.216 0 -4 -1.784 -4 -4 z" opacity="0.02"/><path d="m 1 43.25 l 0 0.25 c 0 2.216 1.784 4 4 4 l 38 0 c 2.216 0 4 -1.784 4 -4 l 0 -0.25 c 0 2.216 -1.784 4 -4 4 l -38 0 c -2.216 0 -4 -1.784 -4 -4 z" opacity="0.05"/><path d="m 1 43 l 0 0.25 c 0 2.216 1.784 4 4 4 l 38 0 c 2.216 0 4 -1.784 4 -4 l 0 -0.25 c 0 2.216 -1.784 4 -4 4 l -38 0 c -2.216 0 -4 -1.784 -4 -4 z" opacity="0.1"/></g><g><rect width="46" height="46" x="-47" y="1" rx="4" transform="matrix(0,-1,1,0,0,0)" fill="url(#linearGradient3764)" fill-opacity="1"/></g><g><g clip-path="url(#clipPath-332325764)"><g opacity="0.1"><!-- color: #dcdee0 --><g><path d="m 23.801 12 c 0 0 -3 2 -10 4 c 0 0 -3 16 10 22 l 0 -0.156 c 0.102 0.051 0.203 0.105 0.313 0.156 l 0 -26 c 0 0 -0.207 0.121 -0.313 0.188 m 0.688 -0.188 l 0 26 c 0.105 -0.051 0.207 -0.105 0.313 -0.156 l 0 0.156 c 13 -6 10 -22 10 -22 c -7 -2 -10 -4 -10 -4 l 0 0.188 c -0.109 -0.066 -0.313 -0.188 -0.313 -0.188 m 0 0" fill-opacity="0.102" id="SVGCleanerId_0"/><path d="m 23.98 11 c 0 0 -3.785 2.152 -12.605 4.309 c 0 0 -3.773 17.23 12.605 23.691 c 16.414 -6.461 12.648 -23.691 12.648 -23.691 c -8.836 -2.156 -12.648 -4.309 -12.648 -4.309 m 0 0" fill="#000"/><path d="m 16.625 21.19 c -1.613 0.031 -3.574 0.625 -5.438 1.469 c 0.676 5.492 3.457 12.664 12.781 16.344 c 8.01 -3.152 11.227 -8.875 12.406 -13.906 c -3.844 0.898 -7.734 1.633 -10.03 1.344 c -3.332 -0.418 -4.742 -2.715 -7.25 -4.594 c -0.625 -0.469 -1.48 -0.676 -2.469 -0.656 m 0 0" fill="#000"/></g></g></g></g><g><g clip-path="url(#clipPath-345116077)"><g transform="translate(0,-1)"><!-- color: #dcdee0 --><g><use xlink:href="#SVGCleanerId_0"/><path d="m 23.98 11 c 0 0 -3.785 2.152 -12.605 4.309 c 0 0 -3.773 17.23 12.605 23.691 c 16.414 -6.461 12.648 -23.691 12.648 -23.691 c -8.836 -2.156 -12.648 -4.309 -12.648 -4.309 m 0 0" fill="#8795a4"/><path d="m 16.625 21.19 c -1.613 0.031 -3.574 0.625 -5.438 1.469 c 0.676 5.492 3.457 12.664 12.781 16.344 c 8.01 -3.152 11.227 -8.875 12.406 -13.906 c -3.844 0.898 -7.734 1.633 -10.03 1.344 c -3.332 -0.418 -4.742 -2.715 -7.25 -4.594 c -0.625 -0.469 -1.48 -0.676 -2.469 -0.656 m 0 0" fill="#ecd04c"/></g></g></g></g><g><g transform="translate(0,-1004.3622)"><path d="m 1 1043.36 0 4 c 0 2.216 1.784 4 4 4 l 38 0 c 2.216 0 4 -1.784 4 -4 l 0 -4 c 0 2.216 -1.784 4 -4 4 l -38 0 c -2.216 0 -4 -1.784 -4 -4 z" opacity="0.1"/></g></g></svg>