<svg xmlns="http://www.w3.org/2000/svg" xmlns:xlink="http://www.w3.org/1999/xlink" width="48" height="48">
 <defs>
  <clipPath>
   <path d="M -670.14006,51.863192 L -114.61564,405.00326 L -257.11075,510.32573 L -514.2215,-71.013029 L -670.14006,51.863192 z"/>
  </clipPath>
  <clipPath>
   <rect width="20" x="1" y="1" rx="2" height="20" fill="#fff" fill-rule="evenodd"/>
  </clipPath>
  <clipPath>
   <rect width="84" x="6" y="6" rx="6" height="84" fill="#fff"/>
  </clipPath>
  <clipPath>
   <path d="M 54.1,12.5 12.9,54.7 C -2.7,70.3 23,69 32.3,74.9 36.6,77.7 18.5,81.3 22.2,85 c 3.6,3.7 21.7,7.1 25.3,10.7 3.6,3.7 -7.3,7.6 -3.7,11.3 3.5,3.7 11.9,0.2 13.4,8.6 1.1,6.2 15.4,3.1 21.8,-2.2 4,-3.4 -6.9,-3.4 -3.3,-7.1 9,-9.1 17,-4.1 20.3,-12.5 1.8,-4.5 -13.6,-7.7 -9.5,-10.6 9.8,-6.9 45.8,-10.4 29.2,-27 L 73,12.5 c -5.3,-5 -14,-5 -18.9,0 z m -9.9,64.7 c 0.9,0 30.8,4 19.3,7.1 -4.4,1.2 -24.6,-7.1 -19.3,-7.1 z m 57.2,16.6 c 0,2.1 16.3,3.3 15.4,-0.5 -1.3,-6.4 -13.6,-5.9 -15.4,0.5 z m -69.5,11.1 c 3.7,3.2 9.3,-0.7 11.1,-5.2 -3.6,-4.7 -16.9,0.3 -11.1,5.2 z m 67.5,-6.7 c -4.6,4.2 0.8,8.6 5.3,5.7 1.2,-0.8 -0.1,-4.7 -5.3,-5.7 z"/>
  </clipPath>
  <clipPath>
   <rect width="96" x="-100" height="96" fill="#fff"/>
  </clipPath>
  <clipPath>
   <path d="M 95.311,352.545 L 476.403,352.545 L 476.403,71.4229 L 95.311,71.4229 L 95.311,352.545 z"/>
  </clipPath>
  <clipPath>
   <path d="M 93.311,354.545 L 478.511,354.545 L 478.511,69.1846 L 93.311,69.1846 L 93.311,354.545 z"/>
  </clipPath>
  <clipPath>
   <path d="M 93.311,69.185 L 478.511,69.185 L 478.511,354.545 L 93.311,354.545 L 93.311,69.185 z"/>
  </clipPath>
  <clipPath>
   <path d="M 92.311,355.545 L 479.511,355.545 L 479.511,68.1846 L 92.311,68.1846 L 92.311,355.545 z"/>
  </clipPath>
  <linearGradient id="0">
   <stop stop-color="#ffffff"/>
   <stop offset="1" stop-color="#ffffff" stop-opacity="0"/>
  </linearGradient>
  <linearGradient id="1">
   <stop/>
   <stop offset="1" stop-opacity="0"/>
  </linearGradient>
  <linearGradient xlink:href="#1" id="2" gradientUnits="userSpaceOnUse" gradientTransform="matrix(1,0,0,-1,0,1052.3622)" y1="1028.36" x2="0" y2="1047.36"/>
  <linearGradient xlink:href="#0" id="3" gradientUnits="userSpaceOnUse" gradientTransform="translate(0,-1004.3622)" y1="1028.36" x2="0" y2="1047.36"/>
 </defs>
 <g>
  <rect rx="7" y="3" x="3" height="42" width="42" opacity="0.2"/>
  <rect width="42" height="42" x="3" y="3" rx="7" fill="#f9f9f9"/>
 </g>
 <g>
  <rect rx="6.333" y="5" x="5" height="38" width="38" fill="#d6634f"/>
  <path d="m 25.936485,12 c -2.172364,0.109386 -4.604073,-0.102482 -6.419778,1.324898 -2.974556,2.178838 -2.92388,7.21664 0.08169,9.350152 2.108257,1.645863 4.82904,2.296664 6.872953,4.038179 0.632551,0.97831 0.523355,2.431568 -0.436093,3.166447 -2.126261,1.048227 -5.055241,0.485597 -6.920545,-0.61112 -1.187367,0.04302 -1.618084,1.519798 -2.019041,2.412304 0.09049,1.077086 1.36043,1.295113 2.186711,1.634601 2.303034,0.793993 4.853355,0.920252 7.205302,0.257866 2.485047,-1.114434 4.741713,-3.687981 4.601806,-6.11464 0.04597,-1.25679 -0.593757,-2.344857 -1.378291,-3.275547 -0.946146,-1.454276 -2.578863,-2.191009 -4.06967,-2.965434 -1.228966,-0.631179 -2.525055,-1.193158 -3.597685,-2.072254 -1.103167,-1.217586 -0.258174,-3.529168 1.428067,-3.638145 1.15092,-0.20458 2.318468,0.02944 3.44109,0.283785 0.843127,0.712771 2.381119,0.593095 2.590112,-0.62225 0.804256,-0.739543 -0.12957,-1.444279 -0.79746,-1.785898 -1.061565,-0.450477 -2.254444,-0.274889 -3.377311,-0.305754 -1.252753,0.0748 -2.574603,0.44413 -3.444912,1.393793 -0.06083,0.889899 -1.443443,2.306389 -2.022196,1.047793 -0.219898,-1.289485 1.285494,-1.815213 2.286508,-2.081852 C 23.425777,12.998728 24.693196,12.528231 25.936484,12 z" fill="#ffffff"/>
 </g>
 <path d="M 11.34375,5 C 7.8350832,5 5,7.8350832 5,11.34375 l 0,1 C 5,8.8350832 7.8350832,6 11.34375,6 l 25.3125,0 C 40.164917,6 43,8.8350832 43,12.34375 l 0,-1 C 43,7.8350832 40.164917,5 36.65625,5 l -25.3125,0 z" opacity="0.2"/>
 <path d="M 5.53125,24 C 5.350468,24 5.176236,24.022 5,24.031 l 0,12.625 c 0,3.5086 2.835083,6.3437 6.34375,6.3437 l 25.3125,0 C 40.164917,42.9997 43,40.1646 43,36.656 L 43,24.031 C 42.823764,24.021 42.649532,24 42.46875,24 l -36.9375,0 z" opacity="0.03" fill="url(#3)"/>
 <path d="M 5.53125,24 C 5.350468,24 5.176236,23.978 5,23.969 L 5,11.344 C 5,7.8354 7.835083,5.0003 11.34375,5.0003 l 25.3125,0 C 40.164917,5.0003 43,7.8354 43,11.344 l 0,12.625 C 42.823764,23.979 42.649532,24 42.46875,24 l -36.9375,0 z" opacity="0.03" fill="url(#2)"/>
</svg>
