<svg viewBox="0 0 48 48"><defs><linearGradient id="linearGradient3764" x1="1" x2="47" gradientUnits="userSpaceOnUse" gradientTransform="translate(-48.000001,0.00221467)"><stop stop-color="#cfcfcf" stop-opacity="1"/><stop offset="1" stop-color="#d9d9d9" stop-opacity="1"/></linearGradient><clipPath id="clipPath-991125379"><g transform="translate(0,-1004.3622)"><rect rx="4" y="1005.36" x="1" height="46" width="46" fill="#1890d0"/></g></clipPath><clipPath id="clipPath-004074420"><g transform="translate(0,-1004.3622)"><rect rx="4" y="1005.36" x="1" height="46" width="46" fill="#1890d0"/></g></clipPath></defs><g><path d="m 1 43 l 0 0.25 c 0 2.216 1.784 4 4 4 l 38 0 c 2.216 0 4 -1.784 4 -4 l 0 -0.25 c 0 2.216 -1.784 4 -4 4 l -38 0 c -2.216 0 -4 -1.784 -4 -4 z m 0 0.5 l 0 0.5 c 0 2.216 1.784 4 4 4 l 38 0 c 2.216 0 4 -1.784 4 -4 l 0 -0.5 c 0 2.216 -1.784 4 -4 4 l -38 0 c -2.216 0 -4 -1.784 -4 -4 z" opacity="0.02"/><path d="m 1 43.25 l 0 0.25 c 0 2.216 1.784 4 4 4 l 38 0 c 2.216 0 4 -1.784 4 -4 l 0 -0.25 c 0 2.216 -1.784 4 -4 4 l -38 0 c -2.216 0 -4 -1.784 -4 -4 z" opacity="0.05"/><path d="m 1 43 l 0 0.25 c 0 2.216 1.784 4 4 4 l 38 0 c 2.216 0 4 -1.784 4 -4 l 0 -0.25 c 0 2.216 -1.784 4 -4 4 l -38 0 c -2.216 0 -4 -1.784 -4 -4 z" opacity="0.1"/></g><g><rect width="46" height="46" x="-47" y="1" rx="4" transform="matrix(0,-1,1,0,0,0)" fill="url(#linearGradient3764)" fill-opacity="1"/></g><g><g clip-path="url(#clipPath-991125379)"><g opacity="0.1"><!-- color: #d9d9d9 --><g><path d="m 11.984 15 l 24.03 0 c 0.543 0 0.984 0.441 0.984 0.984 l 0 16.03 c 0 0.543 -0.441 0.984 -0.984 0.984 l -24.03 0 c -0.547 0 -0.984 -0.441 -0.984 -0.984 l 0 -16.03 c 0 -0.543 0.438 -0.984 0.984 -0.984 m 0 0" fill="#000"/><path d="m 37 17 l -13 8.656 l 11 7.344 l 1 0 c 0.547 0 1 -0.453 1 -1 m 0 -15" fill="#000"/><path d="m 35 15 l 0 18 l 1 0 c 0.547 0 1 -0.453 1 -1 l 0 -16 c 0 -0.547 -0.453 -1 -1 -1 m -1 0" fill="#000"/><path d="m 12 15 c -0.543 0 -1 0.453 -1 1 l 0 16 c 0 0.547 0.457 1 1 1 l 1 0 l 0 -18 m -1 0" fill="#000"/><path d="m 12 15 c -0.543 0 -1 0.453 -1 1 l 0 1 l 13 8.656 l 0 -3.313 l -11 -7.344 m -1 0" fill="#000"/><path d="m 36 15 c 0.547 0 1 0.453 1 1 l 0 1 l -13 8.656 l 0 -3.313 l 11 -7.344 m 1 0" fill="#000"/></g></g></g></g><g><g clip-path="url(#clipPath-004074420)"><g transform="translate(0,-1)"><!-- color: #d9d9d9 --><g><path d="m 11.984 15 l 24.03 0 c 0.543 0 0.984 0.441 0.984 0.984 l 0 16.03 c 0 0.543 -0.441 0.984 -0.984 0.984 l -24.03 0 c -0.547 0 -0.984 -0.441 -0.984 -0.984 l 0 -16.03 c 0 -0.543 0.438 -0.984 0.984 -0.984 m 0 0" fill="#f9f9f9"/><path d="m 37 17 l -13 8.656 l 11 7.344 l 1 0 c 0.547 0 1 -0.453 1 -1 m 0 -15" fill="#ccc"/><path d="m 35 15 l 0 18 l 1 0 c 0.547 0 1 -0.453 1 -1 l 0 -16 c 0 -0.547 -0.453 -1 -1 -1 m -1 0" fill="#c02c1f"/><path d="m 12 15 c -0.543 0 -1 0.453 -1 1 l 0 16 c 0 0.547 0.457 1 1 1 l 1 0 l 0 -18 m -1 0" fill="#ff493c"/><path d="m 12 15 c -0.543 0 -1 0.453 -1 1 l 0 1 l 13 8.656 l 0 -3.313 l -11 -7.344 m -1 0" fill="#ff493c"/><path d="m 36 15 c 0.547 0 1 0.453 1 1 l 0 1 l -13 8.656 l 0 -3.313 l 11 -7.344 m 1 0" fill="#ff493c"/></g></g></g></g><g><g transform="translate(0,-1004.3622)"><path d="m 1 1043.36 0 4 c 0 2.216 1.784 4 4 4 l 38 0 c 2.216 0 4 -1.784 4 -4 l 0 -4 c 0 2.216 -1.784 4 -4 4 l -38 0 c -2.216 0 -4 -1.784 -4 -4 z" opacity="0.1"/></g></g></svg>