<svg viewBox="0 0 48 48"><defs><linearGradient id="linearGradient3764" x1="1" x2="47" gradientUnits="userSpaceOnUse" gradientTransform="translate(-48.000001,0.00221467)"><stop stop-color="#ddd" stop-opacity="1"/><stop offset="1" stop-color="#e7e7e7" stop-opacity="1"/></linearGradient><clipPath id="clipPath-719247735"><g transform="translate(0,-1004.3622)"><rect rx="4" y="1005.36" x="1" height="46" width="46" fill="#1890d0"/></g></clipPath><clipPath id="clipPath-732925158"><g transform="translate(0,-1004.3622)"><rect rx="4" y="1005.36" x="1" height="46" width="46" fill="#1890d0"/></g></clipPath></defs><g><path d="m 1 43 l 0 0.25 c 0 2.216 1.784 4 4 4 l 38 0 c 2.216 0 4 -1.784 4 -4 l 0 -0.25 c 0 2.216 -1.784 4 -4 4 l -38 0 c -2.216 0 -4 -1.784 -4 -4 z m 0 0.5 l 0 0.5 c 0 2.216 1.784 4 4 4 l 38 0 c 2.216 0 4 -1.784 4 -4 l 0 -0.5 c 0 2.216 -1.784 4 -4 4 l -38 0 c -2.216 0 -4 -1.784 -4 -4 z" opacity="0.02"/><path d="m 1 43.25 l 0 0.25 c 0 2.216 1.784 4 4 4 l 38 0 c 2.216 0 4 -1.784 4 -4 l 0 -0.25 c 0 2.216 -1.784 4 -4 4 l -38 0 c -2.216 0 -4 -1.784 -4 -4 z" opacity="0.05"/><path d="m 1 43 l 0 0.25 c 0 2.216 1.784 4 4 4 l 38 0 c 2.216 0 4 -1.784 4 -4 l 0 -0.25 c 0 2.216 -1.784 4 -4 4 l -38 0 c -2.216 0 -4 -1.784 -4 -4 z" opacity="0.1"/></g><g><rect width="46" height="46" x="-47" y="1" rx="4" transform="matrix(0,-1,1,0,0,0)" fill="url(#linearGradient3764)" fill-opacity="1"/></g><g><g clip-path="url(#clipPath-719247735)"><g opacity="0.1"><!-- color: #e7e7e7 --><g><path d="m 20.297 19.559 c 0 1.066 -0.883 1.934 -1.98 1.934 c -1.094 0 -1.977 -0.867 -1.977 -1.934 c 0 -1.074 0.883 -1.941 1.977 -1.941 c 1.098 0 1.98 0.867 1.98 1.941 m 0 0" stroke="#f9f9f9" stroke-width="0.096" fill="#000"/><path d="m 18.316 26.293 c 0 1.957 -1.625 3.551 -3.629 3.551 c -2 0 -3.625 -1.594 -3.625 -3.551 c 0 -1.961 1.621 -3.551 3.625 -3.551 c 2 0 3.629 1.59 3.629 3.551 m 0 0" stroke="#f9f9f9" stroke-width="0.096" fill="#000"/><path d="m 22.699 23.93 c 0 2.117 -1.754 3.84 -3.922 3.84 c -2.164 0 -3.918 -1.723 -3.918 -3.84 c 0 -2.121 1.754 -3.836 3.918 -3.836 c 2.168 0 3.922 1.715 3.922 3.836 m 0 0" stroke="#f9f9f9" stroke-width="0.096" fill="#000"/><path d="m 30.398 22.375 c 0 1.961 -1.621 3.551 -3.625 3.551 c -2 0 -3.625 -1.59 -3.625 -3.551 c 0 -1.961 1.621 -3.551 3.625 -3.551 c 2 0 3.625 1.59 3.625 3.551 m 0 0" stroke="#f9f9f9" stroke-width="0.096" fill="#000"/><path d="m 26.422 19.613 c 0 1.961 -1.621 3.547 -3.625 3.547 c -2 0 -3.625 -1.586 -3.625 -3.547 c 0 -1.961 1.625 -3.551 3.625 -3.551 c 2 0 3.625 1.59 3.625 3.551 m 0 0" stroke="#f9f9f9" stroke-width="0.096" fill="#000"/><path d="m 36.938 27.664 c 0 1.121 -0.93 2.027 -2.074 2.027 c -1.145 0 -2.074 -0.906 -2.074 -2.027 c 0 -1.121 0.93 -2.031 2.074 -2.031 c 1.145 0 2.074 0.91 2.074 2.031 m 0 0" stroke="#f9f9f9" stroke-width="0.096" fill="#000"/><path d="m 34.375 26.1 c 0 2.117 -1.754 3.836 -3.918 3.836 c -2.168 0 -3.922 -1.719 -3.922 -3.836 c 0 -2.121 1.754 -3.84 3.922 -3.84 c 2.164 0 3.918 1.719 3.918 3.84 m 0 0" stroke="#f9f9f9" stroke-width="0.096" fill="#000"/><path d="m 20.613 27.859 c 0 1.121 -0.93 2.027 -2.074 2.027 c -1.145 0 -2.074 -0.906 -2.074 -2.027 c 0 -1.121 0.93 -2.031 2.074 -2.031 c 1.145 0 2.074 0.91 2.074 2.031 m 0 0" stroke="#f9f9f9" stroke-width="0.096" fill="#000"/><path d="m 28.992 24.965 c 0 2.703 -2.242 4.895 -5 4.895 c -2.762 0 -5 -2.191 -5 -4.895 c 0 -2.699 2.238 -4.891 5 -4.891 c 2.758 0 5 2.191 5 4.891 m 0 0" stroke="#f9f9f9" stroke-width="0.128" fill="#000"/></g></g></g></g><g><g clip-path="url(#clipPath-732925158)"><g transform="translate(0,-1)"><!-- color: #e7e7e7 --><g><path d="m 20.297 19.559 c 0 1.066 -0.883 1.934 -1.98 1.934 c -1.094 0 -1.977 -0.867 -1.977 -1.934 c 0 -1.074 0.883 -1.941 1.977 -1.941 c 1.098 0 1.98 0.867 1.98 1.941 m 0 0" fill="#1a2d44" stroke="#f9f9f9" stroke-width="0.096"/><path d="m 18.316 26.293 c 0 1.957 -1.625 3.551 -3.629 3.551 c -2 0 -3.625 -1.594 -3.625 -3.551 c 0 -1.961 1.621 -3.551 3.625 -3.551 c 2 0 3.629 1.59 3.629 3.551 m 0 0" fill="#1a2d44" stroke="#f9f9f9" stroke-width="0.096"/><path d="m 22.699 23.93 c 0 2.117 -1.754 3.84 -3.922 3.84 c -2.164 0 -3.918 -1.723 -3.918 -3.84 c 0 -2.121 1.754 -3.836 3.918 -3.836 c 2.168 0 3.922 1.715 3.922 3.836 m 0 0" fill="#1a2d44" stroke="#f9f9f9" stroke-width="0.096"/><path d="m 30.398 22.375 c 0 1.961 -1.621 3.551 -3.625 3.551 c -2 0 -3.625 -1.59 -3.625 -3.551 c 0 -1.961 1.621 -3.551 3.625 -3.551 c 2 0 3.625 1.59 3.625 3.551 m 0 0" fill="#1a2d44" stroke="#f9f9f9" stroke-width="0.096"/><path d="m 26.422 19.613 c 0 1.961 -1.621 3.547 -3.625 3.547 c -2 0 -3.625 -1.586 -3.625 -3.547 c 0 -1.961 1.625 -3.551 3.625 -3.551 c 2 0 3.625 1.59 3.625 3.551 m 0 0" fill="#1a2d44" stroke="#f9f9f9" stroke-width="0.096"/><path d="m 36.938 27.664 c 0 1.121 -0.93 2.027 -2.074 2.027 c -1.145 0 -2.074 -0.906 -2.074 -2.027 c 0 -1.121 0.93 -2.031 2.074 -2.031 c 1.145 0 2.074 0.91 2.074 2.031 m 0 0" fill="#1a2d44" stroke="#f9f9f9" stroke-width="0.096"/><path d="m 34.375 26.1 c 0 2.117 -1.754 3.836 -3.918 3.836 c -2.168 0 -3.922 -1.719 -3.922 -3.836 c 0 -2.121 1.754 -3.84 3.922 -3.84 c 2.164 0 3.918 1.719 3.918 3.84 m 0 0" fill="#1a2d44" stroke="#f9f9f9" stroke-width="0.096"/><path d="m 20.613 27.859 c 0 1.121 -0.93 2.027 -2.074 2.027 c -1.145 0 -2.074 -0.906 -2.074 -2.027 c 0 -1.121 0.93 -2.031 2.074 -2.031 c 1.145 0 2.074 0.91 2.074 2.031 m 0 0" fill="#1a2d44" stroke="#f9f9f9" stroke-width="0.096"/><path d="m 28.992 24.965 c 0 2.703 -2.242 4.895 -5 4.895 c -2.762 0 -5 -2.191 -5 -4.895 c 0 -2.699 2.238 -4.891 5 -4.891 c 2.758 0 5 2.191 5 4.891 m 0 0" fill="#1a2d44" stroke="#f9f9f9" stroke-width="0.128"/></g></g></g></g><g><g transform="translate(0,-1004.3622)"><path d="m 1 1043.36 0 4 c 0 2.216 1.784 4 4 4 l 38 0 c 2.216 0 4 -1.784 4 -4 l 0 -4 c 0 2.216 -1.784 4 -4 4 l -38 0 c -2.216 0 -4 -1.784 -4 -4 z" opacity="0.1"/></g></g></svg>