<svg xmlns="http://www.w3.org/2000/svg" xmlns:xlink="http://www.w3.org/1999/xlink" width="48" viewBox="0 0 13.546667 13.546667" height="48">
 <defs>
  <clipPath>
   <path d="M 92.311,355.545 L 479.511,355.545 L 479.511,68.1846 L 92.311,68.1846 L 92.311,355.545 z"/>
  </clipPath>
  <clipPath>
   <path d="M 93.311,69.185 L 478.511,69.185 L 478.511,354.545 L 93.311,354.545 L 93.311,69.185 z"/>
  </clipPath>
  <clipPath>
   <path d="M 93.311,354.545 L 478.511,354.545 L 478.511,69.1846 L 93.311,69.1846 L 93.311,354.545 z"/>
  </clipPath>
  <clipPath>
   <path d="M 95.311,352.545 L 476.403,352.545 L 476.403,71.4229 L 95.311,71.4229 L 95.311,352.545 z"/>
  </clipPath>
  <clipPath>
   <rect height="96" x="-100" width="96" fill="#fff"/>
  </clipPath>
  <clipPath>
   <path d="M 54.1,12.5 12.9,54.7 C -2.7,70.3 23,69 32.3,74.9 36.6,77.7 18.5,81.3 22.2,85 c 3.6,3.7 21.7,7.1 25.3,10.7 3.6,3.7 -7.3,7.6 -3.7,11.3 3.5,3.7 11.9,0.2 13.4,8.6 1.1,6.2 15.4,3.1 21.8,-2.2 4,-3.4 -6.9,-3.4 -3.3,-7.1 9,-9.1 17,-4.1 20.3,-12.5 1.8,-4.5 -13.6,-7.7 -9.5,-10.6 9.8,-6.9 45.8,-10.4 29.2,-27 L 73,12.5 c -5.3,-5 -14,-5 -18.9,0 z m -9.9,64.7 c 0.9,0 30.8,4 19.3,7.1 -4.4,1.2 -24.6,-7.1 -19.3,-7.1 z m 57.2,16.6 c 0,2.1 16.3,3.3 15.4,-0.5 -1.3,-6.4 -13.6,-5.9 -15.4,0.5 z m -69.5,11.1 c 3.7,3.2 9.3,-0.7 11.1,-5.2 -3.6,-4.7 -16.9,0.3 -11.1,5.2 z m 67.5,-6.7 c -4.6,4.2 0.8,8.6 5.3,5.7 1.2,-0.8 -0.1,-4.7 -5.3,-5.7 z"/>
  </clipPath>
  <clipPath>
   <rect height="84" rx="6" y="6" x="6" width="84" fill="#fff"/>
  </clipPath>
  <clipPath>
   <rect height="20" rx="2" y="1" x="1" width="20" fill="#fff" fill-rule="evenodd"/>
  </clipPath>
  <clipPath>
   <path d="M -670.14006,51.863192 L -114.61564,405.00326 L -257.11075,510.32573 L -514.2215,-71.013029 L -670.14006,51.863192 z"/>
  </clipPath>
  <clipPath>
   <rect height="96" x="-100" width="96" fill="#fff"/>
  </clipPath>
  <clipPath>
   <rect height="84" rx="6" y="6" x="6" width="84" fill="#fff"/>
  </clipPath>
  <clipPath>
   <rect height="20" rx="2" y="1" x="1" width="20" fill="#fff" fill-rule="evenodd"/>
  </clipPath>
  <linearGradient gradientTransform="matrix(0.28222223,0,0,0.28222223,4.5833333e-8,-283.45334)" y2="1047.36" x2="0" y1="1028.36" gradientUnits="userSpaceOnUse" id="0" xlink:href="#1"/>
  <linearGradient id="1">
   <stop stop-color="#ffffff"/>
   <stop offset="1" stop-color="#ffffff" stop-opacity="0"/>
  </linearGradient>
  <linearGradient xlink:href="#3" id="2" gradientUnits="userSpaceOnUse" y1="1028.36" x2="0" y2="1047.36" gradientTransform="matrix(0.28222223,0,0,-0.28222223,4.5833333e-8,297)"/>
  <linearGradient id="3">
   <stop/>
   <stop offset="1" stop-opacity="0"/>
  </linearGradient>
 </defs>
 <g>
  <rect rx="1.976" y="1.129" x="0.847" height="11.853" width="11.853" opacity="0.2"/>
  <rect width="11.853" height="11.853" x="0.847" y="0.847" rx="1.976" fill="#f9f9f9"/>
 </g>
 <g>
  <rect rx="1.787" y="1.411" x="1.411" height="10.724" width="10.724" fill="#f4b400"/>
  <path d="m 1.5610417,6.7733335 c -0.051021,0 -0.1001928,0.00621 -0.1499306,0.00875 l 0,3.5630556 c 0,0.990205 0.8001235,1.790333 1.7903473,1.790333 l 7.1437506,0 c 0.990223,0 1.790347,-0.800128 1.790347,-1.790333 l 0,-3.5630556 c -0.04974,-0.00282 -0.09891,-0.00875 -0.149931,-0.00875 l -10.4245833,0 z" fill="#fab800"/>
 </g>
 <g>
  <path d="m 6.7766334,3.3866669 c -0.816572,0 -1.6189391,0.3661833 -2.1090242,1.0415411 -0.7655201,1.0548903 -0.3994561,2.4457662 0.6946132,3.1917925 l 0,2.2577775 0.2822223,3e-7 0,0.2822217 2.2577777,0 0,-0.2822217 0.2822222,-3e-7 0,-2.2577775 C 8.4193958,7.4592467 8.7148974,7.3010611 8.8784364,7.0757067 9.6625726,5.9951342 9.3573591,4.522696 8.1958924,3.7931798 7.7603425,3.5196218 7.2665775,3.3863 6.7766334,3.3866669 z m -0.0036,0.4300503 C 7.1729974,3.81683 7.5779815,3.924526 7.9358864,4.149316 8.8903036,4.7487842 9.1399966,5.9458582 8.4956454,6.833814 8.3472623,7.0382555 8.1589972,7.2161405 7.9394932,7.3545705 l -0.037272,0.5476522 -2.2577777,0 -0.034202,-0.5476522 C 4.6558242,6.7551022 4.4061303,5.5580283 5.0504823,4.6701007 5.4532022,4.1151389 6.1064882,3.8164632 6.7730932,3.8167172 z m -1.1285886,4.3677277 2.2577779,0 0,0.5644442 -2.2577779,0 z m 0,0.8466667 2.2577779,0 -3e-7,0.5644445 -2.2577778,0 z" fill="#f9f9f9" color="#000000"/>
 </g>
 <g>
  <path d="m 3.2014584,1.4111111 c -0.9902238,0 -1.7903473,0.8001235 -1.7903473,1.7903473 l 0,0.2822222 c 0,-0.9902238 0.8001235,-1.7903472 1.7903473,-1.7903472 l 7.1437506,0 c 0.990223,0 1.790347,0.8001234 1.790347,1.7903472 l 0,-0.2822222 c 0,-0.9902238 -0.800124,-1.7903473 -1.790347,-1.7903473 l -7.1437506,0 z" opacity="0.2"/>
  <path d="m 1.5610417,6.7733335 c -0.051021,0 -0.1001928,0.00621 -0.1499306,0.00875 l 0,3.5630545 c 0,0.990205 0.8001235,1.790333 1.7903473,1.790333 l 7.1437506,0 c 0.990223,0 1.790347,-0.800128 1.790347,-1.790333 l 0,-3.5630557 c -0.04974,-0.00282 -0.09891,-0.00875 -0.149931,-0.00875 l -10.4245833,0 z" opacity="0.03" fill="url(#0)"/>
  <path d="m 1.5610417,6.7733335 c -0.051021,0 -0.1001928,-0.00621 -0.1499306,-0.00875 l 0,-3.5630557 c 0,-0.9902048 0.8001235,-1.7903331 1.7903473,-1.7903331 l 7.1437506,0 c 0.990223,0 1.790347,0.8001283 1.790347,1.7903331 l 0,3.5630557 c -0.04974,0.00282 -0.09891,0.00875 -0.149931,0.00875 l -10.4245833,0 z" opacity="0.03" fill="url(#2)"/>
 </g>
</svg>
