<svg xmlns="http://www.w3.org/2000/svg" xmlns:xlink="http://www.w3.org/1999/xlink" width="48" viewBox="0 0 13.546667 13.546667" height="48">
 <defs>
  <clipPath>
   <path d="M 92.311,355.545 L 479.511,355.545 L 479.511,68.1846 L 92.311,68.1846 L 92.311,355.545 z"/>
  </clipPath>
  <clipPath>
   <path d="M 93.311,69.185 L 478.511,69.185 L 478.511,354.545 L 93.311,354.545 L 93.311,69.185 z"/>
  </clipPath>
  <clipPath>
   <path d="M 93.311,354.545 L 478.511,354.545 L 478.511,69.1846 L 93.311,69.1846 L 93.311,354.545 z"/>
  </clipPath>
  <clipPath>
   <path d="M 95.311,352.545 L 476.403,352.545 L 476.403,71.4229 L 95.311,71.4229 L 95.311,352.545 z"/>
  </clipPath>
  <clipPath>
   <rect height="96" x="-100" width="96" fill="#fff"/>
  </clipPath>
  <clipPath>
   <path d="M 54.1,12.5 12.9,54.7 C -2.7,70.3 23,69 32.3,74.9 36.6,77.7 18.5,81.3 22.2,85 c 3.6,3.7 21.7,7.1 25.3,10.7 3.6,3.7 -7.3,7.6 -3.7,11.3 3.5,3.7 11.9,0.2 13.4,8.6 1.1,6.2 15.4,3.1 21.8,-2.2 4,-3.4 -6.9,-3.4 -3.3,-7.1 9,-9.1 17,-4.1 20.3,-12.5 1.8,-4.5 -13.6,-7.7 -9.5,-10.6 9.8,-6.9 45.8,-10.4 29.2,-27 L 73,12.5 c -5.3,-5 -14,-5 -18.9,0 z m -9.9,64.7 c 0.9,0 30.8,4 19.3,7.1 -4.4,1.2 -24.6,-7.1 -19.3,-7.1 z m 57.2,16.6 c 0,2.1 16.3,3.3 15.4,-0.5 -1.3,-6.4 -13.6,-5.9 -15.4,0.5 z m -69.5,11.1 c 3.7,3.2 9.3,-0.7 11.1,-5.2 -3.6,-4.7 -16.9,0.3 -11.1,5.2 z m 67.5,-6.7 c -4.6,4.2 0.8,8.6 5.3,5.7 1.2,-0.8 -0.1,-4.7 -5.3,-5.7 z"/>
  </clipPath>
  <clipPath>
   <rect height="84" rx="6" y="6" x="6" width="84" fill="#fff"/>
  </clipPath>
  <clipPath>
   <rect height="20" rx="2" y="1" x="1" width="20" fill="#fff" fill-rule="evenodd"/>
  </clipPath>
  <clipPath>
   <path d="M -670.14006,51.863192 L -114.61564,405.00326 L -257.11075,510.32573 L -514.2215,-71.013029 L -670.14006,51.863192 z"/>
  </clipPath>
  <clipPath>
   <rect height="96" x="-100" width="96" fill="#fff"/>
  </clipPath>
  <clipPath>
   <rect height="84" rx="6" y="6" x="6" width="84" fill="#fff"/>
  </clipPath>
  <clipPath>
   <rect height="20" rx="2" y="1" x="1" width="20" fill="#fff" fill-rule="evenodd"/>
  </clipPath>
  <linearGradient gradientTransform="matrix(0.28222223,0,0,0.28222223,4.5833333e-8,-283.45334)" y2="1047.36" x2="0" y1="1028.36" gradientUnits="userSpaceOnUse" id="0" xlink:href="#1"/>
  <linearGradient id="1">
   <stop stop-color="#ffffff"/>
   <stop offset="1" stop-color="#ffffff" stop-opacity="0"/>
  </linearGradient>
  <linearGradient xlink:href="#3" id="2" gradientUnits="userSpaceOnUse" y1="1028.36" x2="0" y2="1047.36" gradientTransform="matrix(0.28222223,0,0,-0.28222223,4.5833333e-8,297)"/>
  <linearGradient id="3">
   <stop/>
   <stop offset="1" stop-opacity="0"/>
  </linearGradient>
  <path color="#000000" d="m 195.84374,209.4565 a 48.029182,50.356007 0 1 1 -96.058362,0 48.029182,50.356007 0 1 1 96.058362,0 z" id="4"/>
  <linearGradient y2="31.619" x2="0" y1="299.81" gradientTransform="matrix(0.11931818,0,0,0.11931818,414.13636,48.22727)" gradientUnits="userSpaceOnUse" id="5" xlink:href="#E"/>
  <clipPath>
   <rect rx="7" color="#bebebe" fill="url(#5)" y="53" x="417" height="30" width="30"/>
  </clipPath>
  <linearGradient y2="28.571" x2="0" y1="302.86" gradientTransform="matrix(0.0875,0,0,0.0875,414.9,97.5)" gradientUnits="userSpaceOnUse" id="6" xlink:href="#E"/>
  <clipPath>
   <rect rx="5" color="#bebebe" fill="url(#6)" width="22" height="22" x="417" y="101"/>
  </clipPath>
  <linearGradient y2="28" x2="0" y1="124" gradientUnits="userSpaceOnUse" id="7" xlink:href="#E"/>
  <clipPath>
   <rect rx="18" color="#bebebe" fill="url(#7)" y="32" x="292" height="88" width="88"/>
  </clipPath>
  <linearGradient y2="140" x2="0" y1="204" gradientUnits="userSpaceOnUse" id="8" xlink:href="#E"/>
  <clipPath>
   <rect rx="12.5" color="#bebebe" fill="url(#8)" width="60" height="60" x="290" y="142"/>
  </clipPath>
  <linearGradient y2="40" x2="0" y1="280" gradientTransform="translate(0,-4)" gradientUnits="userSpaceOnUse" id="9" xlink:href="#E"/>
  <clipPath>
   <rect rx="50" color="#bebebe" fill="url(#9)" width="220" height="220" x="34" y="46"/>
  </clipPath>
  <linearGradient y2="40" x2="0" y1="280" gradientTransform="matrix(0.06666667,0,0,0.06666667,302.4,209.33333)" gradientUnits="userSpaceOnUse" id="A" xlink:href="#E"/>
  <clipPath>
   <rect rx="3" color="#bebebe" fill="url(#A)" transform="matrix(0,1,-1,0,0,0)" y="212" x="304" height="16" width="16"/>
  </clipPath>
  <linearGradient y2="40" x2="0" y1="291.43" gradientTransform="matrix(0.11931818,0,0,0.11931818,430.13636,32.227267)" gradientUnits="userSpaceOnUse" id="B" xlink:href="#E"/>
  <clipPath>
   <rect rx="6" color="#bebebe" fill="url(#B)" y="37" x="433" height="30" width="30"/>
  </clipPath>
  <linearGradient y2="40" x2="0" y1="291.43" gradientTransform="matrix(0.0875,0,0,0.0875,430.9,81.499996)" gradientUnits="userSpaceOnUse" id="C" xlink:href="#E"/>
  <clipPath>
   <rect rx="4" color="#bebebe" fill="url(#C)" width="22" height="22" x="433" y="85"/>
  </clipPath>
  <linearGradient y2="40" x2="0" y1="280" gradientTransform="matrix(0.175,0,0,0.175,302.79999,215.99997)" gradientUnits="userSpaceOnUse" id="D" xlink:href="#E"/>
  <clipPath>
   <rect rx="9" color="#bebebe" fill="url(#D)" transform="matrix(0,1,-1,0,0,0)" width="42" height="42" x="307" y="223"/>
  </clipPath>
  <linearGradient id="E">
   <stop stop-color="#b94642"/>
   <stop stop-color="#c66a58" offset="1"/>
  </linearGradient>
 </defs>
 <g>
  <rect rx="1.976" y="1.129" x="0.847" height="11.853" width="11.853" opacity="0.2"/>
  <rect width="11.853" height="11.853" x="0.847" y="0.847" rx="1.976" fill="#f9f9f9"/>
 </g>
 <g>
  <rect rx="1.787" y="1.411" x="1.411" height="10.724" width="10.724" fill="#98d854"/>
  <path d="m 1.5610417,6.7733335 c -0.051021,0 -0.1001928,0.00621 -0.1499306,0.00875 l 0,3.5630556 c 0,0.990205 0.8001235,1.790333 1.7903473,1.790333 l 7.1437506,0 c 0.990223,0 1.790347,-0.800128 1.790347,-1.790333 l 0,-3.5630556 c -0.04974,-0.00282 -0.09891,-0.00875 -0.149931,-0.00875 l -10.4245833,0 z" fill="#a0d667"/>
 </g>
 <g>
  <path d="m 2.5402323,3.6693334 c 0,0 -1e-5,2.2577778 0.089422,3.4648198 0.18078,1.063101 0.92594,2.024257 2.06774,2.024257 1.01923,0 1.88366,-0.750413 2.07593,-1.706533 0.19231,0.956072 1.05732,1.706533 2.07655,1.706533 1.1418,0 1.9881987,-0.9488322 2.0677397,-2.024257 0.08928,-1.207042 0.08928,-3.4648198 0.08928,-3.4648198 0,0 -2.1999947,0.5427508 -3.0287947,1.2152098 -0.50695,0.400982 -1.05471,0.953754 -1.20476,1.735357 -0.15006,-0.781603 -0.69782,-1.334375 -1.20477,-1.735357 C 4.7397645,4.2120842 2.5402223,3.6693334 2.5402223,3.6693334 z" fill="#75b930"/>
  <path d="M 6.7735557,6.7737779 C 6.7907669,7.5037653 6.0577346,8.151933 5.3624446,8.184889 L 6.7735557,8.8904446 8.1846668,8.184889 C 7.4069368,8.134469 6.7907669,7.5037653 6.7735557,6.7737779 z" fill="#ffec4b"/>
  <path d="M 5.6446668,8.4671113 6.7735557,9.5960002 7.9024446,8.4671113 6.7735557,9.0315557 z" fill="#ffec4b"/>
  <use height="1" width="1" transform="matrix(0.02350423,0,0,0.02241816,1.0415105,2.3603708)" xlink:href="#4" fill="#f9f9f9"/>
  <use height="1" width="1" transform="matrix(0.01175211,0,0,0.01120908,2.7786447,4.7081854)" xlink:href="#4" fill="#555555"/>
  <use height="1" width="1" transform="matrix(0.02350423,0,0,0.02241816,5.5570662,2.3603711)" xlink:href="#4" fill="#f9f9f9"/>
  <use height="1" width="1" transform="matrix(0.01175211,0,0,0.01120908,7.2942003,4.7081854)" xlink:href="#4" fill="#555555"/>
  <path d="m 4.2333334,10.724444 c -0.467601,0 -0.8466666,0.379066 -0.8466666,0.846667 0,0.217985 0.085162,0.414375 0.2204861,0.564445 l 1.2523611,0 c 0.1353239,-0.15007 0.2204861,-0.34646 0.2204861,-0.564445 0,-0.467601 -0.3790656,-0.846667 -0.8466667,-0.846667 z" fill="#ffe753"/>
  <path d="m 5.5033335,11.006667 c -0.3896676,0 -0.7055556,0.315888 -0.7055556,0.705555 0,0.157816 0.053567,0.305805 0.1411111,0.423334 l 1.1288889,0 c 0.087544,-0.117529 0.1411112,-0.265518 0.1411112,-0.423334 0,-0.389667 -0.315888,-0.705555 -0.7055556,-0.705555 z" fill="#ffe753"/>
  <path d="M 10.5 39 C 9.1192881 39 8 40.11929 8 41.5 C 8 41.703413 8.0156097 41.903071 8.0625 42.09375 C 9.0177273 42.669294 10.145134 43 11.34375 43 L 12.5 43 C 12.810195 42.583559 13 42.059191 13 41.5 C 13 40.11929 11.880712 39 10.5 39 z " transform="scale(0.28222223,0.28222223)" fill="#ffe753"/>
  <path d="m 9.3133336,10.724444 c -0.467601,0 -0.8466667,0.379066 -0.8466667,0.846667 0,0.217985 0.085162,0.414375 0.2204861,0.564445 l 1.2523612,0 C 10.074838,11.985486 10.16,11.789096 10.16,11.571111 10.16,11.10351 9.7809346,10.724444 9.3133336,10.724444 z" fill="#ffe753"/>
  <path d="M 37.5 39 C 36.119287 39 35 40.11929 35 41.5 C 35 42.059191 35.189805 42.583559 35.5 43 L 36.65625 43 C 37.854865 43 38.982273 42.669294 39.9375 42.09375 C 39.984392 41.903071 40 41.703413 40 41.5 C 40 40.11929 38.88071 39 37.5 39 z " transform="scale(0.28222223,0.28222223)" fill="#ffe753"/>
  <path d="m 8.0433336,11.006667 c -0.3896677,0 -0.7055556,0.315888 -0.7055556,0.705555 0,0.157816 0.053567,0.305805 0.1411111,0.423334 l 1.1288889,0 c 0.087544,-0.117529 0.1411111,-0.265518 0.1411111,-0.423334 0,-0.389667 -0.3158879,-0.705555 -0.7055555,-0.705555 z" fill="#ffe753"/>
  <rect width="2.258" height="0.564" x="3.104" y="11.571" fill="#ffe753"/>
  <rect y="11.571" x="8.184" height="0.564" width="2.258" fill="#ffe753"/>
 </g>
 <g>
  <path d="m 3.2014584,1.4111111 c -0.9902238,0 -1.7903473,0.8001235 -1.7903473,1.7903473 l 0,0.2822222 c 0,-0.9902238 0.8001235,-1.7903472 1.7903473,-1.7903472 l 7.1437506,0 c 0.990223,0 1.790347,0.8001234 1.790347,1.7903472 l 0,-0.2822222 c 0,-0.9902238 -0.800124,-1.7903473 -1.790347,-1.7903473 l -7.1437506,0 z" opacity="0.2"/>
  <path d="m 1.5610417,6.7733335 c -0.051021,0 -0.1001928,0.00621 -0.1499306,0.00875 l 0,3.5630545 c 0,0.990205 0.8001235,1.790333 1.7903473,1.790333 l 7.1437506,0 c 0.990223,0 1.790347,-0.800128 1.790347,-1.790333 l 0,-3.5630557 c -0.04974,-0.00282 -0.09891,-0.00875 -0.149931,-0.00875 l -10.4245833,0 z" opacity="0.05" fill="url(#0)"/>
  <path d="m 1.5610417,6.7733335 c -0.051021,0 -0.1001928,-0.00621 -0.1499306,-0.00875 l 0,-3.5630557 c 0,-0.9902048 0.8001235,-1.7903331 1.7903473,-1.7903331 l 7.1437506,0 c 0.990223,0 1.790347,0.8001283 1.790347,1.7903331 l 0,3.5630557 c -0.04974,0.00282 -0.09891,0.00875 -0.149931,0.00875 l -10.4245833,0 z" opacity="0.05" fill="url(#2)"/>
 </g>
</svg>
