<svg viewBox="0 0 48 48"><defs><linearGradient id="linearGradient3764" y1="47" x2="0" y2="1" gradientUnits="userSpaceOnUse"><stop stop-color="#01a8df" stop-opacity="1"/><stop offset="1" stop-color="#01b5f3" stop-opacity="1"/></linearGradient><clipPath id="clipPath-431331680"><g transform="translate(0,-1004.3622)"><path d="m -24 13 c 0 1.105 -0.672 2 -1.5 2 -0.828 0 -1.5 -0.895 -1.5 -2 0 -1.105 0.672 -2 1.5 -2 0.828 0 1.5 0.895 1.5 2 z" transform="matrix(15.333333,0,0,11.5,414.99999,878.8622)" fill="#1890d0"/></g></clipPath><clipPath id="clipPath-439593080"><g transform="translate(0,-1004.3622)"><path d="m -24 13 c 0 1.105 -0.672 2 -1.5 2 -0.828 0 -1.5 -0.895 -1.5 -2 0 -1.105 0.672 -2 1.5 -2 0.828 0 1.5 0.895 1.5 2 z" transform="matrix(15.333333,0,0,11.5,414.99999,878.8622)" fill="#1890d0"/></g></clipPath></defs><g><path d="m 36.31 5 c 5.859 4.062 9.688 10.831 9.688 18.5 c 0 12.426 -10.07 22.5 -22.5 22.5 c -7.669 0 -14.438 -3.828 -18.5 -9.688 c 1.037 1.822 2.306 3.499 3.781 4.969 c 4.085 3.712 9.514 5.969 15.469 5.969 c 12.703 0 23 -10.298 23 -23 c 0 -5.954 -2.256 -11.384 -5.969 -15.469 c -1.469 -1.475 -3.147 -2.744 -4.969 -3.781 z m 4.969 3.781 c 3.854 4.113 6.219 9.637 6.219 15.719 c 0 12.703 -10.297 23 -23 23 c -6.081 0 -11.606 -2.364 -15.719 -6.219 c 4.16 4.144 9.883 6.719 16.219 6.719 c 12.703 0 23 -10.298 23 -23 c 0 -6.335 -2.575 -12.06 -6.719 -16.219 z" opacity="0.05"/><path d="m 41.28 8.781 c 3.712 4.085 5.969 9.514 5.969 15.469 c 0 12.703 -10.297 23 -23 23 c -5.954 0 -11.384 -2.256 -15.469 -5.969 c 4.113 3.854 9.637 6.219 15.719 6.219 c 12.703 0 23 -10.298 23 -23 c 0 -6.081 -2.364 -11.606 -6.219 -15.719 z" opacity="0.1"/><path d="m 31.25 2.375 c 8.615 3.154 14.75 11.417 14.75 21.13 c 0 12.426 -10.07 22.5 -22.5 22.5 c -9.708 0 -17.971 -6.135 -21.12 -14.75 a 23 23 0 0 0 44.875 -7 a 23 23 0 0 0 -16 -21.875 z" opacity="0.2"/></g><g><path d="m 24 1 c 12.703 0 23 10.297 23 23 c 0 12.703 -10.297 23 -23 23 -12.703 0 -23 -10.297 -23 -23 0 -12.703 10.297 -23 23 -23 z" fill="url(#linearGradient3764)" fill-opacity="1"/></g><g><g clip-path="url(#clipPath-431331680)"><g transform="translate(1,1)"><g opacity="0.1"><!-- color: #01b5f3 --><g><path d="m 23.01 11 l 0.203 5.391 c 0.828 -0.559 1.758 -0.922 2.715 -1.074 m 6.871 -3.09 l -3.672 3.375 c 0.637 0.223 1.254 0.543 1.828 0.969 c 0.199 0.148 0.387 0.305 0.566 0.469 m -4.617 -0.18 c -1.715 0.016 -3.395 0.887 -4.445 2.492 c -0.09 0.133 -0.168 0.27 -0.246 0.406 c 1.469 0.266 2.746 1.129 3.68 2.309 c 0.355 -0.109 0.73 -0.168 1.121 -0.168 c 2.289 0 4.184 1.992 4.215 4.422 c 0.078 -0.102 0.152 -0.207 0.219 -0.313 c 1.73 -2.637 1.121 -6.27 -1.359 -8.105 c -0.973 -0.719 -2.086 -1.055 -3.184 -1.043 m -10.902 1.512 l 2.563 2 c 0.605 -0.332 1.266 -0.555 1.965 -0.648 c 0.152 -0.371 0.332 -0.734 0.543 -1.082 m 12.488 1.605 c 0.281 0.867 0.414 1.781 0.387 2.695 l 4.055 -1.813 m -5.324 5.84 c -0.125 0.188 -0.254 0.367 -0.391 0.539 c 0.672 0.82 1.156 1.813 1.395 2.902 l 1.016 0.59 m -2.02 -4.03" fill="#000"/><path d="m 20.332 21 c 1.879 0 3.488 1.063 4.34 2.594 c 0.484 -0.359 1.098 -0.594 1.773 -0.594 c 1.531 0 2.777 1.121 2.777 2.5 c 0 0.309 -0.059 0.602 -0.176 0.875 c 1.746 0.699 2.953 2.289 2.953 4.125 c 0 2.492 -2.23 4.5 -5 4.5 l -10 0 c -2.77 0 -5 -2.01 -5 -4.5 c 0 -1.977 1.41 -3.641 3.367 -4.25 c 0 -0.086 -0.035 -0.164 -0.035 -0.25 c 0 -2.762 2.242 -5 5 -5 m 0 0" fill-rule="evenodd" fill="#000"/></g></g></g></g></g><g><g clip-path="url(#clipPath-439593080)"><!-- color: #01b5f3 --><g><path d="m 23.01 11 l 0.203 5.391 c 0.828 -0.559 1.758 -0.922 2.715 -1.074 m 6.871 -3.09 l -3.672 3.375 c 0.637 0.223 1.254 0.543 1.828 0.969 c 0.199 0.148 0.387 0.305 0.566 0.469 m -4.617 -0.18 c -1.715 0.016 -3.395 0.887 -4.445 2.492 c -0.09 0.133 -0.168 0.27 -0.246 0.406 c 1.469 0.266 2.746 1.129 3.68 2.309 c 0.355 -0.109 0.73 -0.168 1.121 -0.168 c 2.289 0 4.184 1.992 4.215 4.422 c 0.078 -0.102 0.152 -0.207 0.219 -0.313 c 1.73 -2.637 1.121 -6.27 -1.359 -8.105 c -0.973 -0.719 -2.086 -1.055 -3.184 -1.043 m -10.902 1.512 l 2.563 2 c 0.605 -0.332 1.266 -0.555 1.965 -0.648 c 0.152 -0.371 0.332 -0.734 0.543 -1.082 m 12.488 1.605 c 0.281 0.867 0.414 1.781 0.387 2.695 l 4.055 -1.813 m -5.324 5.84 c -0.125 0.188 -0.254 0.367 -0.391 0.539 c 0.672 0.82 1.156 1.813 1.395 2.902 l 1.016 0.59 m -2.02 -4.03" fill="#ffc945"/><path d="m 20.332 21 c 1.879 0 3.488 1.063 4.34 2.594 c 0.484 -0.359 1.098 -0.594 1.773 -0.594 c 1.531 0 2.777 1.121 2.777 2.5 c 0 0.309 -0.059 0.602 -0.176 0.875 c 1.746 0.699 2.953 2.289 2.953 4.125 c 0 2.492 -2.23 4.5 -5 4.5 l -10 0 c -2.77 0 -5 -2.01 -5 -4.5 c 0 -1.977 1.41 -3.641 3.367 -4.25 c 0 -0.086 -0.035 -0.164 -0.035 -0.25 c 0 -2.762 2.242 -5 5 -5 m 0 0" fill="#f9f9f9" fill-rule="evenodd"/></g></g></g><g><path d="m 40.03 7.531 c 3.712 4.084 5.969 9.514 5.969 15.469 0 12.703 -10.297 23 -23 23 c -5.954 0 -11.384 -2.256 -15.469 -5.969 4.178 4.291 10.01 6.969 16.469 6.969 c 12.703 0 23 -10.298 23 -23 0 -6.462 -2.677 -12.291 -6.969 -16.469 z" opacity="0.1"/></g></svg>