<svg viewBox="0 0 48 48"><defs><linearGradient id="linearGradient3764" x1="1" x2="47" gradientUnits="userSpaceOnUse" gradientTransform="translate(-48.000001,0.00221467)"><stop stop-color="#ffab7d" stop-opacity="1"/><stop offset="1" stop-color="#ffb791" stop-opacity="1"/></linearGradient><clipPath id="clipPath-010840529"><g transform="translate(0,-1004.3622)"><rect rx="4" y="1005.36" x="1" height="46" width="46" fill="#1890d0"/></g></clipPath><clipPath id="clipPath-023592772"><g transform="translate(0,-1004.3622)"><rect rx="4" y="1005.36" x="1" height="46" width="46" fill="#1890d0"/></g></clipPath></defs><g><path d="m 1 43 l 0 0.25 c 0 2.216 1.784 4 4 4 l 38 0 c 2.216 0 4 -1.784 4 -4 l 0 -0.25 c 0 2.216 -1.784 4 -4 4 l -38 0 c -2.216 0 -4 -1.784 -4 -4 z m 0 0.5 l 0 0.5 c 0 2.216 1.784 4 4 4 l 38 0 c 2.216 0 4 -1.784 4 -4 l 0 -0.5 c 0 2.216 -1.784 4 -4 4 l -38 0 c -2.216 0 -4 -1.784 -4 -4 z" opacity="0.02"/><path d="m 1 43.25 l 0 0.25 c 0 2.216 1.784 4 4 4 l 38 0 c 2.216 0 4 -1.784 4 -4 l 0 -0.25 c 0 2.216 -1.784 4 -4 4 l -38 0 c -2.216 0 -4 -1.784 -4 -4 z" opacity="0.05"/><path d="m 1 43 l 0 0.25 c 0 2.216 1.784 4 4 4 l 38 0 c 2.216 0 4 -1.784 4 -4 l 0 -0.25 c 0 2.216 -1.784 4 -4 4 l -38 0 c -2.216 0 -4 -1.784 -4 -4 z" opacity="0.1"/></g><g><rect width="46" height="46" x="-47" y="1" rx="4" transform="matrix(0,-1,1,0,0,0)" fill="url(#linearGradient3764)" fill-opacity="1"/></g><g><g clip-path="url(#clipPath-010840529)"><g opacity="0.1"><!-- color: #ffb791 --><g><path d="m 13 11 l 22 0 c 1.109 0 2 0.891 2 2 l 0 22 c 0 1.109 -0.891 2 -2 2 l -22 0 c -1.109 0 -2 -0.891 -2 -2 l 0 -22 c 0 -1.109 0.891 -2 2 -2 m 0 0" fill="#000"/><path d="m 13 11 c -1.109 0 -2 0.594 -2 1.332 l 0 2.668 l 26 0 l 0 -2.668 c 0 -0.738 -0.891 -1.332 -2 -1.332 m -22 0" fill="#000"/><path d="m 13 16.996 l 22 0 l 0 5 l -22 0 m 0 -5" fill="#000"/><path d="m 13 25.996 l 11 0 l 0 9 l -11 0 m 0 -9" fill="#000"/><path d="m 26 25.996 l 9 0 l 0 9 l -9 0 m 0 -9" fill="#000"/><path d="m 15 13 c 0 0.551 -0.449 1 -1 1 c -0.551 0 -1 -0.449 -1 -1 c 0 -0.551 0.449 -1 1 -1 c 0.551 0 1 0.449 1 1 m 0 0" fill="#000"/><path d="m 19 13 c 0 0.551 -0.449 1 -1 1 c -0.551 0 -1 -0.449 -1 -1 c 0 -0.551 0.449 -1 1 -1 c 0.551 0 1 0.449 1 1 m 0 0" fill="#000"/></g></g></g></g><g><g clip-path="url(#clipPath-023592772)"><g transform="translate(0,-1)"><!-- color: #ffb791 --><g><path d="m 13 11 l 22 0 c 1.109 0 2 0.891 2 2 l 0 22 c 0 1.109 -0.891 2 -2 2 l -22 0 c -1.109 0 -2 -0.891 -2 -2 l 0 -22 c 0 -1.109 0.891 -2 2 -2 m 0 0" fill="#f9f9f9"/><path d="m 13 11 c -1.109 0 -2 0.594 -2 1.332 l 0 2.668 l 26 0 l 0 -2.668 c 0 -0.738 -0.891 -1.332 -2 -1.332 m -22 0" fill="#4285f4"/><path d="m 13 16.996 l 22 0 l 0 5 l -22 0 m 0 -5" fill="#d0d0d0"/><path d="m 13 25.996 l 11 0 l 0 9 l -11 0 m 0 -9" fill="#d0d0d0"/><path d="m 26 25.996 l 9 0 l 0 9 l -9 0 m 0 -9" fill="#33b478"/><path d="m 15 13 c 0 0.551 -0.449 1 -1 1 c -0.551 0 -1 -0.449 -1 -1 c 0 -0.551 0.449 -1 1 -1 c 0.551 0 1 0.449 1 1 m 0 0" fill="#f9f9f9"/><path d="m 19 13 c 0 0.551 -0.449 1 -1 1 c -0.551 0 -1 -0.449 -1 -1 c 0 -0.551 0.449 -1 1 -1 c 0.551 0 1 0.449 1 1 m 0 0" fill="#f9f9f9"/></g></g></g></g><g><g transform="translate(0,-1004.3622)"><path d="m 1 1043.36 0 4 c 0 2.216 1.784 4 4 4 l 38 0 c 2.216 0 4 -1.784 4 -4 l 0 -4 c 0 2.216 -1.784 4 -4 4 l -38 0 c -2.216 0 -4 -1.784 -4 -4 z" opacity="0.1"/></g></g></svg>