<svg viewBox="0 0 48 48"><defs><linearGradient id="linearGradient3764" x1="1" x2="47" gradientUnits="userSpaceOnUse" gradientTransform="translate(-48.000001,0.00221467)"><stop stop-color="#e59e39" stop-opacity="1"/><stop offset="1" stop-color="#e7a84b" stop-opacity="1"/></linearGradient><clipPath id="clipPath-020233059"><g transform="translate(0,-1004.3622)"><rect rx="4" y="1005.36" x="1" height="46" width="46" fill="#1890d0"/></g></clipPath><clipPath id="clipPath-044048403"><g transform="translate(0,-1004.3622)"><rect rx="4" y="1005.36" x="1" height="46" width="46" fill="#1890d0"/></g></clipPath></defs><g><path d="m 1 43 l 0 0.25 c 0 2.216 1.784 4 4 4 l 38 0 c 2.216 0 4 -1.784 4 -4 l 0 -0.25 c 0 2.216 -1.784 4 -4 4 l -38 0 c -2.216 0 -4 -1.784 -4 -4 z m 0 0.5 l 0 0.5 c 0 2.216 1.784 4 4 4 l 38 0 c 2.216 0 4 -1.784 4 -4 l 0 -0.5 c 0 2.216 -1.784 4 -4 4 l -38 0 c -2.216 0 -4 -1.784 -4 -4 z" opacity="0.02"/><path d="m 1 43.25 l 0 0.25 c 0 2.216 1.784 4 4 4 l 38 0 c 2.216 0 4 -1.784 4 -4 l 0 -0.25 c 0 2.216 -1.784 4 -4 4 l -38 0 c -2.216 0 -4 -1.784 -4 -4 z" opacity="0.05"/><path d="m 1 43 l 0 0.25 c 0 2.216 1.784 4 4 4 l 38 0 c 2.216 0 4 -1.784 4 -4 l 0 -0.25 c 0 2.216 -1.784 4 -4 4 l -38 0 c -2.216 0 -4 -1.784 -4 -4 z" opacity="0.1"/></g><g><rect width="46" height="46" x="-47" y="1" rx="4" transform="matrix(0,-1,1,0,0,0)" fill="url(#linearGradient3764)" fill-opacity="1"/></g><g><g clip-path="url(#clipPath-020233059)"><g opacity="0.1"><!-- color: #e7a84b --><path d="m 14 16 0 6.996 3.438 0 c 1.121 0 1.988 -0.527 2.602 -1.113 c 0.613 -0.586 0.961 -1.422 0.961 -2.508 0 -1.078 -0.348 -1.906 -0.961 -2.496 -0.613 -0.586 -1.48 -0.879 -2.602 -0.879 l -3.438 0 m -2 -2 5.438 0 c 3.914 0.063 5.559 2.039 5.563 5.379 0 3.621 -2.336 5.578 -5.563 5.621 l -3.438 0 l 0 7 -2 0 0 -18" fill="#000"/><path d="m 37.75 19 -4.75 6.066 5 6.934 -2.59 0 -3.91 -5.305 -3.863 5.305 -2.59 0 4.953 -7 -4.512 -6 2.59 0 3.422 4.305 3.66 -4.305 2.59 0" fill="#000"/></g></g></g><g><g clip-path="url(#clipPath-044048403)"><g transform="translate(0,-1)"><!-- color: #e7a84b --><path d="m 14 16 0 6.996 3.438 0 c 1.121 0 1.988 -0.527 2.602 -1.113 c 0.613 -0.586 0.961 -1.422 0.961 -2.508 0 -1.078 -0.348 -1.906 -0.961 -2.496 -0.613 -0.586 -1.48 -0.879 -2.602 -0.879 l -3.438 0 m -2 -2 5.438 0 c 3.914 0.063 5.559 2.039 5.563 5.379 0 3.621 -2.336 5.578 -5.563 5.621 l -3.438 0 l 0 7 -2 0 0 -18" fill="#2d2d2d"/><path d="m 37.75 19 -4.75 6.066 5 6.934 -2.59 0 -3.91 -5.305 -3.863 5.305 -2.59 0 4.953 -7 -4.512 -6 2.59 0 3.422 4.305 3.66 -4.305 2.59 0" fill="#2d2d2d"/></g></g></g><g><g transform="translate(0,-1004.3622)"><path d="m 1 1043.36 0 4 c 0 2.216 1.784 4 4 4 l 38 0 c 2.216 0 4 -1.784 4 -4 l 0 -4 c 0 2.216 -1.784 4 -4 4 l -38 0 c -2.216 0 -4 -1.784 -4 -4 z" opacity="0.1"/></g></g></svg>