<svg viewBox="0 0 48 48"><defs><linearGradient id="linearGradient3764" x1="1" x2="47" gradientUnits="userSpaceOnUse" gradientTransform="translate(-48.000001,0.00221467)"><stop stop-color="#83afd1" stop-opacity="1"/><stop offset="1" stop-color="#92b8d6" stop-opacity="1"/></linearGradient><clipPath id="clipPath-601178236"><g transform="translate(0,-1004.3622)"><rect rx="4" y="1005.36" x="1" height="46" width="46" fill="#1890d0"/></g></clipPath><clipPath id="clipPath-613861230"><g transform="translate(0,-1004.3622)"><rect rx="4" y="1005.36" x="1" height="46" width="46" fill="#1890d0"/></g></clipPath></defs><g><path d="m 1 43 l 0 0.25 c 0 2.216 1.784 4 4 4 l 38 0 c 2.216 0 4 -1.784 4 -4 l 0 -0.25 c 0 2.216 -1.784 4 -4 4 l -38 0 c -2.216 0 -4 -1.784 -4 -4 z m 0 0.5 l 0 0.5 c 0 2.216 1.784 4 4 4 l 38 0 c 2.216 0 4 -1.784 4 -4 l 0 -0.5 c 0 2.216 -1.784 4 -4 4 l -38 0 c -2.216 0 -4 -1.784 -4 -4 z" opacity="0.02"/><path d="m 1 43.25 l 0 0.25 c 0 2.216 1.784 4 4 4 l 38 0 c 2.216 0 4 -1.784 4 -4 l 0 -0.25 c 0 2.216 -1.784 4 -4 4 l -38 0 c -2.216 0 -4 -1.784 -4 -4 z" opacity="0.05"/><path d="m 1 43 l 0 0.25 c 0 2.216 1.784 4 4 4 l 38 0 c 2.216 0 4 -1.784 4 -4 l 0 -0.25 c 0 2.216 -1.784 4 -4 4 l -38 0 c -2.216 0 -4 -1.784 -4 -4 z" opacity="0.1"/></g><g><rect width="46" height="46" x="-47" y="1" rx="4" transform="matrix(0,-1,1,0,0,0)" fill="url(#linearGradient3764)" fill-opacity="1"/></g><g><g clip-path="url(#clipPath-601178236)"><g opacity="0.1"><!-- color: #92b8d6 --><path d="m 24 8 c -8.271 0 -15 6.729 -15 15 0 8.271 6.729 15 15 15 8.271 0 15 -6.729 15 -15 0 -8.271 -6.729 -15 -15 -15 z m 0 2 c 7.19 0 13 5.81 13 13 0 7.19 -5.81 13 -13 13 -7.19 0 -13 -5.81 -13 -13 0 -7.19 5.81 -13 13 -13 z" color="#000" fill="#000"/><path d="m 24 36 15 -1 0 3 -15 0 z m 0 0" fill="#000"/><path d="m 22 17 c 0 1.105 -0.895 2 -2 2 -1.105 0 -2 -0.895 -2 -2 0 -1.105 0.895 -2 2 -2 1.105 0 2 0.895 2 2 z m 0 0" fill="#000"/><path d="m 16 32 c 4 -8 4 -8 7 -2 4 -13 4 -13 9 2 z m 0 0" fill="#000"/></g></g></g><g><g clip-path="url(#clipPath-613861230)"><g transform="translate(0,-1)"><!-- color: #92b8d6 --><path d="m 24 8 c -8.271 0 -15 6.729 -15 15 0 8.271 6.729 15 15 15 8.271 0 15 -6.729 15 -15 0 -8.271 -6.729 -15 -15 -15 z m 0 2 c 7.19 0 13 5.81 13 13 0 7.19 -5.81 13 -13 13 -7.19 0 -13 -5.81 -13 -13 0 -7.19 5.81 -13 13 -13 z" color="#000" fill="#f9f9f9"/><path d="m 24 36 15 -1 0 3 -15 0 z m 0 0" fill="#f9f9f9"/><path d="m 22 17 c 0 1.105 -0.895 2 -2 2 -1.105 0 -2 -0.895 -2 -2 0 -1.105 0.895 -2 2 -2 1.105 0 2 0.895 2 2 z m 0 0" fill="#f9f9f9"/><path d="m 16 32 c 4 -8 4 -8 7 -2 4 -13 4 -13 9 2 z m 0 0" fill="#f9f9f9"/></g></g></g><g><g transform="translate(0,-1004.3622)"><path d="m 1 1043.36 0 4 c 0 2.216 1.784 4 4 4 l 38 0 c 2.216 0 4 -1.784 4 -4 l 0 -4 c 0 2.216 -1.784 4 -4 4 l -38 0 c -2.216 0 -4 -1.784 -4 -4 z" opacity="0.1"/></g></g></svg>