<svg viewBox="0 0 48 48"><defs><linearGradient id="linearGradient3764" x1="1" x2="47" gradientUnits="userSpaceOnUse" gradientTransform="translate(-48.000001,0.00221467)"><stop stop-color="#2e9e8a" stop-opacity="1"/><stop offset="1" stop-color="#32ad98" stop-opacity="1"/></linearGradient><clipPath id="clipPath-905319392"><g transform="translate(0,-1004.3622)"><rect rx="4" y="1005.36" x="1" height="46" width="46" fill="#1890d0"/></g></clipPath><clipPath id="clipPath-933264466"><g transform="translate(0,-1004.3622)"><rect rx="4" y="1005.36" x="1" height="46" width="46" fill="#1890d0"/></g></clipPath></defs><g><path d="m 1 43 l 0 0.25 c 0 2.216 1.784 4 4 4 l 38 0 c 2.216 0 4 -1.784 4 -4 l 0 -0.25 c 0 2.216 -1.784 4 -4 4 l -38 0 c -2.216 0 -4 -1.784 -4 -4 z m 0 0.5 l 0 0.5 c 0 2.216 1.784 4 4 4 l 38 0 c 2.216 0 4 -1.784 4 -4 l 0 -0.5 c 0 2.216 -1.784 4 -4 4 l -38 0 c -2.216 0 -4 -1.784 -4 -4 z" opacity="0.02"/><path d="m 1 43.25 l 0 0.25 c 0 2.216 1.784 4 4 4 l 38 0 c 2.216 0 4 -1.784 4 -4 l 0 -0.25 c 0 2.216 -1.784 4 -4 4 l -38 0 c -2.216 0 -4 -1.784 -4 -4 z" opacity="0.05"/><path d="m 1 43 l 0 0.25 c 0 2.216 1.784 4 4 4 l 38 0 c 2.216 0 4 -1.784 4 -4 l 0 -0.25 c 0 2.216 -1.784 4 -4 4 l -38 0 c -2.216 0 -4 -1.784 -4 -4 z" opacity="0.1"/></g><g><rect width="46" height="46" x="-47" y="1" rx="4" transform="matrix(0,-1,1,0,0,0)" fill="url(#linearGradient3764)" fill-opacity="1"/></g><g><g clip-path="url(#clipPath-905319392)"><g opacity="0.1"><!-- color: #32ad98 --><rect width="36" x="6" y="6" rx="18" height="36" fill-rule="evenodd" fill="#000"/><g><path d="m 22.438 23.73 l -5.168 -5.168 c -0.359 -0.359 -0.359 -0.938 0 -1.293 c 0.355 -0.359 0.934 -0.359 1.293 0 l 5.168 5.168 c 0.359 0.359 0.359 0.938 0 1.293 c -0.355 0.359 -0.934 0.359 -1.293 0 m 0 0" fill="#000"/><path d="m 23.934 23 l 13.13 0 c 0.516 0 0.938 0.418 0.938 0.934 l 0 0.129 c 0 0.516 -0.422 0.934 -0.938 0.934 l -13.13 0 c -0.516 0 -0.934 -0.418 -0.934 -0.934 l 0 -0.129 c 0 -0.516 0.418 -0.934 0.934 -0.934 m 0 0" fill="#000"/><path d="m 16.555 36.25 l 7.06 -13 c 0.133 -0.238 0.418 -0.32 0.645 -0.184 c 0.227 0.137 0.301 0.445 0.172 0.684 l -7.06 13 c -0.129 0.238 -0.418 0.32 -0.645 0.184 c -0.223 -0.141 -0.301 -0.445 -0.172 -0.684 m 0 0" fill="#000"/><path d="m 27 24 c 0 1.656 -1.344 2.996 -3 2.996 c -1.656 0 -3 -1.34 -3 -2.996 c 0 -1.66 1.344 -3 3 -3 c 1.66 0 3 1.344 3 3 m 0 0" fill="#000"/></g></g></g></g><g><g clip-path="url(#clipPath-933264466)"><g transform="translate(0,-1)"><!-- color: #32ad98 --><rect width="36" x="6" y="6" rx="18" height="36" fill="#eaeaea" fill-rule="evenodd"/><g><path d="m 22.438 23.73 l -5.168 -5.168 c -0.359 -0.359 -0.359 -0.938 0 -1.293 c 0.355 -0.359 0.934 -0.359 1.293 0 l 5.168 5.168 c 0.359 0.359 0.359 0.938 0 1.293 c -0.355 0.359 -0.934 0.359 -1.293 0 m 0 0" fill="#2d2d2d"/><path d="m 23.934 23 l 13.13 0 c 0.516 0 0.938 0.418 0.938 0.934 l 0 0.129 c 0 0.516 -0.422 0.934 -0.938 0.934 l -13.13 0 c -0.516 0 -0.934 -0.418 -0.934 -0.934 l 0 -0.129 c 0 -0.516 0.418 -0.934 0.934 -0.934 m 0 0" fill="#2d2d2d"/><path d="m 16.555 36.25 l 7.06 -13 c 0.133 -0.238 0.418 -0.32 0.645 -0.184 c 0.227 0.137 0.301 0.445 0.172 0.684 l -7.06 13 c -0.129 0.238 -0.418 0.32 -0.645 0.184 c -0.223 -0.141 -0.301 -0.445 -0.172 -0.684 m 0 0" fill="#3085ab"/><path d="m 27 24 c 0 1.656 -1.344 2.996 -3 2.996 c -1.656 0 -3 -1.34 -3 -2.996 c 0 -1.66 1.344 -3 3 -3 c 1.66 0 3 1.344 3 3 m 0 0" fill="#2d2d2d"/></g></g></g></g><g><g transform="translate(0,-1004.3622)"><path d="m 1 1043.36 0 4 c 0 2.216 1.784 4 4 4 l 38 0 c 2.216 0 4 -1.784 4 -4 l 0 -4 c 0 2.216 -1.784 4 -4 4 l -38 0 c -2.216 0 -4 -1.784 -4 -4 z" opacity="0.1"/></g></g></svg>