<svg xmlns="http://www.w3.org/2000/svg" xmlns:xlink="http://www.w3.org/1999/xlink" width="48" viewBox="0 0 13.546667 13.546667" height="48">
 <defs>
  <clipPath>
   <path d="M 92.311,355.545 L 479.511,355.545 L 479.511,68.1846 L 92.311,68.1846 L 92.311,355.545 z"/>
  </clipPath>
  <clipPath>
   <path d="M 93.311,69.185 L 478.511,69.185 L 478.511,354.545 L 93.311,354.545 L 93.311,69.185 z"/>
  </clipPath>
  <clipPath>
   <path d="M 93.311,354.545 L 478.511,354.545 L 478.511,69.1846 L 93.311,69.1846 L 93.311,354.545 z"/>
  </clipPath>
  <clipPath>
   <path d="M 95.311,352.545 L 476.403,352.545 L 476.403,71.4229 L 95.311,71.4229 L 95.311,352.545 z"/>
  </clipPath>
  <clipPath>
   <rect height="96" x="-100" width="96" fill="#fff"/>
  </clipPath>
  <clipPath>
   <path d="M 54.1,12.5 12.9,54.7 C -2.7,70.3 23,69 32.3,74.9 36.6,77.7 18.5,81.3 22.2,85 c 3.6,3.7 21.7,7.1 25.3,10.7 3.6,3.7 -7.3,7.6 -3.7,11.3 3.5,3.7 11.9,0.2 13.4,8.6 1.1,6.2 15.4,3.1 21.8,-2.2 4,-3.4 -6.9,-3.4 -3.3,-7.1 9,-9.1 17,-4.1 20.3,-12.5 1.8,-4.5 -13.6,-7.7 -9.5,-10.6 9.8,-6.9 45.8,-10.4 29.2,-27 L 73,12.5 c -5.3,-5 -14,-5 -18.9,0 z m -9.9,64.7 c 0.9,0 30.8,4 19.3,7.1 -4.4,1.2 -24.6,-7.1 -19.3,-7.1 z m 57.2,16.6 c 0,2.1 16.3,3.3 15.4,-0.5 -1.3,-6.4 -13.6,-5.9 -15.4,0.5 z m -69.5,11.1 c 3.7,3.2 9.3,-0.7 11.1,-5.2 -3.6,-4.7 -16.9,0.3 -11.1,5.2 z m 67.5,-6.7 c -4.6,4.2 0.8,8.6 5.3,5.7 1.2,-0.8 -0.1,-4.7 -5.3,-5.7 z"/>
  </clipPath>
  <clipPath>
   <rect height="84" rx="6" y="6" x="6" width="84" fill="#fff"/>
  </clipPath>
  <clipPath>
   <rect height="20" rx="2" y="1" x="1" width="20" fill="#fff" fill-rule="evenodd"/>
  </clipPath>
  <clipPath>
   <path d="M -670.14006,51.863192 L -114.61564,405.00326 L -257.11075,510.32573 L -514.2215,-71.013029 L -670.14006,51.863192 z"/>
  </clipPath>
  <clipPath>
   <rect height="96" x="-100" width="96" fill="#fff"/>
  </clipPath>
  <clipPath>
   <rect height="84" rx="6" y="6" x="6" width="84" fill="#fff"/>
  </clipPath>
  <clipPath>
   <rect height="20" rx="2" y="1" x="1" width="20" fill="#fff" fill-rule="evenodd"/>
  </clipPath>
  <linearGradient xlink:href="#1" id="0" gradientUnits="userSpaceOnUse" y1="24" x2="0" y2="48" gradientTransform="matrix(0.28222223,0,0,0.28222223,6.7399158e-7,-6.3183333e-6)"/>
  <linearGradient id="1">
   <stop stop-color="#ffffff"/>
   <stop offset="1" stop-color="#ffffff" stop-opacity="0"/>
  </linearGradient>
  <linearGradient xlink:href="#3" id="2" y1="24" x2="0" y2="48" gradientUnits="userSpaceOnUse" gradientTransform="matrix(-0.28222223,0,0,-0.28222223,13.546659,13.546666)"/>
  <linearGradient id="3">
   <stop/>
   <stop offset="1" stop-opacity="0"/>
  </linearGradient>
 </defs>
 <g>
  <rect width="12.982" x="0.282" y="0.564" rx="6.491" height="12.982" opacity="0.18" fill-rule="evenodd"/>
  <rect height="12.982" rx="6.491" y="0.282" x="0.282" width="12.982" fill="#f9f9f9" fill-rule="evenodd"/>
 </g>
 <g>
  <path d="m 12.699999,6.7734035 c 0,-3.2731867 -2.653456,-5.92673568 -5.9265966,-5.92673568 -3.2733024,0 -5.92673571,2.65354898 -5.92673571,5.92673568 0,3.2732795 2.65345651,5.9265965 5.92673571,5.9265965 3.2731406,0 5.9265966,-2.653364 5.9265966,-5.9265965 z" fill="#90c0d8"/>
 </g>
 <g>
  <path d="M 23.6875 3 C 22.707003 3.0141824 21.756063 3.1058253 20.8125 3.25 C 20.792191 3.2530262 20.77029 3.2469155 20.75 3.25 C 20.423104 3.3009371 20.102969 3.3716661 19.78125 3.4375 C 19.48732 3.4963918 19.1958 3.5540682 18.90625 3.625 C 18.833165 3.6432177 18.760279 3.6685188 18.6875 3.6875 C 18.374565 3.7691151 18.057071 3.84199 17.75 3.9375 C 17.421208 4.0397661 17.102894 4.1634791 16.78125 4.28125 C 16.64648 4.3305965 16.50846 4.3854862 16.375 4.4375 C 22.822016 4.5590433 26.46592 5.2498703 29.78125 7.09375 C 30.058943 7.2484295 30.350691 7.3916198 30.625 7.5625 C 31.447928 8.0754355 32.24945 8.669756 33.09375 9.34375 C 36.732844 12.249107 37.0652 15.79857 40.15625 18.5 C 42.038093 20.144624 41.786032 20 42.65625 20 C 43.533613 20 43.998699 19.235681 44.25 18.375 C 43.822829 16.833619 43.216835 15.377119 42.46875 14 C 42.145467 13.404882 41.783633 12.808611 41.40625 12.25 C 41.371824 12.199041 41.347361 12.144389 41.3125 12.09375 C 40.966194 11.604864 40.602696 11.113698 40.21875 10.65625 C 39.88849 10.256059 39.514776 9.8744987 39.15625 9.5 C 38.76703 9.0986145 38.356109 8.7136872 37.9375 8.34375 C 37.518891 7.9738128 37.102358 7.6178078 36.65625 7.28125 C 34.87182 5.935019 32.867579 4.859913 30.71875 4.125 C 29.665017 3.7646167 28.557189 3.5037334 27.4375 3.3125 C 27.415343 3.308834 27.39718 3.2848465 27.375 3.28125 C 27.312356 3.2707556 27.250326 3.2599411 27.1875 3.25 C 26.687503 3.1708842 26.198295 3.105849 25.6875 3.0625 C 25.677089 3.0616767 25.666666 3.0633081 25.65625 3.0625 C 25.070559 3.0136712 24.473073 3 23.875 3 C 23.811397 3 23.750965 2.9994237 23.6875 3 z M 15.25 7 C 14.794937 7 14.3514 7.0639362 13.90625 7.15625 C 13.757856 7.1906555 13.615701 7.2097303 13.46875 7.25 C 10.577489 8.0370481 8.0014834 10.560354 6.3125 12.71875 C 5.1052853 14.608586 4.179282 16.700038 3.625 18.9375 C 3.7414981 18.793667 3.8531323 18.637621 3.96875 18.5 C 6.1983192 15.845808 8.2258572 14.40625 11.15625 14.40625 C 16.384999 14.40625 17.074991 16.776604 26.65625 23.125 C 31.199733 26.135433 37.979811 30.223614 43.75 31.09375 C 44.033942 30.303238 44.28018 29.487452 44.46875 28.65625 C 42.471639 28.403997 40.631451 27.580718 38.65625 26.25 C 38.348953 26.043274 38.03369 25.825077 37.71875 25.59375 C 35.199253 23.744364 32.392906 21.118384 28.75 17.875 C 25.976257 15.405535 18.990467 7 15.25 7 z M 7.78125 31.90625 C 6.6333247 31.90625 5.6759346 32.329291 5.15625 33.21875 C 7.2070923 37.402278 10.597637 40.792993 14.78125 42.84375 C 14.7222 42.561456 14.65625 42.275842 14.65625 41.96875 C 14.65625 40.701242 15.466238 40.21875 16.375 40.21875 C 17.585288 40.21875 21.594875 42.15625 28.28125 42.15625 C 30.625364 42.15625 33.355574 41.87125 35.84375 41.3125 C 37.587139 40.118532 39.158009 38.683221 40.46875 37.03125 C 38.397191 37.724687 35.419424 38.4375 31.75 38.4375 C 22.662693 38.4375 14.394291 34.483067 12 33.21875 C 11.364905 32.883365 9.7310787 31.90625 7.78125 31.90625 z " transform="scale(0.28222223,0.28222223)" fill="#f9f9f9" fill-rule="evenodd" color="#000000"/>
 </g>
 <g>
  <path d="m 6.7733335,0.84666669 c -3.2733023,0 -5.92666681,2.65348021 -5.92666681,5.92666681 0,0.046723 -0.001075,0.094647 0,0.1411111 0.0742608,-3.2086195 2.70008781,-5.7855557 5.92666681,-5.7855557 3.2264196,0 5.8524055,2.5769362 5.9266665,5.7855557 0.0011,-0.046464 0,-0.094389 0,-0.1411111 0,-3.2731866 -2.653526,-5.92666681 -5.9266665,-5.92666681 z" opacity="0.2"/>
  <path d="M 0.84666669,6.7733318 C 0.84666669,10.046613 3.5000518,12.7 6.7733276,12.7 c 3.2731384,0 5.9266644,-2.653434 5.9266644,-5.9266682 l -11.85332531,0 z" opacity="0.05" fill="url(#0)"/>
  <path d="m 12.699992,6.7733315 c 0,-3.2732792 -2.653389,-5.92666626 -5.9266644,-5.92666626 -3.273137,0 -5.92666091,2.65343396 -5.92666091,5.92666626 l 11.85332531,0 z" opacity="0.05" fill="url(#2)"/>
 </g>
</svg>
