<svg viewBox="0 0 48 48"><defs><linearGradient id="linearGradient3764" y1="47" x2="0" y2="1" gradientUnits="userSpaceOnUse"><stop stop-color="#338bb9" stop-opacity="1"/><stop offset="1" stop-color="#3896c8" stop-opacity="1"/></linearGradient><clipPath id="clipPath-746126246"><g transform="translate(0,-1004.3622)"><path d="m -24 13 c 0 1.105 -0.672 2 -1.5 2 -0.828 0 -1.5 -0.895 -1.5 -2 0 -1.105 0.672 -2 1.5 -2 0.828 0 1.5 0.895 1.5 2 z" transform="matrix(15.333333,0,0,11.5,414.99999,878.8622)" fill="#1890d0"/></g></clipPath><clipPath id="clipPath-754852161"><g transform="translate(0,-1004.3622)"><path d="m -24 13 c 0 1.105 -0.672 2 -1.5 2 -0.828 0 -1.5 -0.895 -1.5 -2 0 -1.105 0.672 -2 1.5 -2 0.828 0 1.5 0.895 1.5 2 z" transform="matrix(15.333333,0,0,11.5,414.99999,878.8622)" fill="#1890d0"/></g></clipPath></defs><g><path d="m 36.31 5 c 5.859 4.062 9.688 10.831 9.688 18.5 c 0 12.426 -10.07 22.5 -22.5 22.5 c -7.669 0 -14.438 -3.828 -18.5 -9.688 c 1.037 1.822 2.306 3.499 3.781 4.969 c 4.085 3.712 9.514 5.969 15.469 5.969 c 12.703 0 23 -10.298 23 -23 c 0 -5.954 -2.256 -11.384 -5.969 -15.469 c -1.469 -1.475 -3.147 -2.744 -4.969 -3.781 z m 4.969 3.781 c 3.854 4.113 6.219 9.637 6.219 15.719 c 0 12.703 -10.297 23 -23 23 c -6.081 0 -11.606 -2.364 -15.719 -6.219 c 4.16 4.144 9.883 6.719 16.219 6.719 c 12.703 0 23 -10.298 23 -23 c 0 -6.335 -2.575 -12.06 -6.719 -16.219 z" opacity="0.05"/><path d="m 41.28 8.781 c 3.712 4.085 5.969 9.514 5.969 15.469 c 0 12.703 -10.297 23 -23 23 c -5.954 0 -11.384 -2.256 -15.469 -5.969 c 4.113 3.854 9.637 6.219 15.719 6.219 c 12.703 0 23 -10.298 23 -23 c 0 -6.081 -2.364 -11.606 -6.219 -15.719 z" opacity="0.1"/><path d="m 31.25 2.375 c 8.615 3.154 14.75 11.417 14.75 21.13 c 0 12.426 -10.07 22.5 -22.5 22.5 c -9.708 0 -17.971 -6.135 -21.12 -14.75 a 23 23 0 0 0 44.875 -7 a 23 23 0 0 0 -16 -21.875 z" opacity="0.2"/></g><g><path d="m 24 1 c 12.703 0 23 10.297 23 23 c 0 12.703 -10.297 23 -23 23 -12.703 0 -23 -10.297 -23 -23 0 -12.703 10.297 -23 23 -23 z" fill="url(#linearGradient3764)" fill-opacity="1"/></g><g><g clip-path="url(#clipPath-746126246)"><g transform="translate(1,1)"><g opacity="0.1"><!-- color: #3896c8 --><g><path d="m 23.883 3 c -2.551 0 -4.984 0.488 -7.234 1.355 c 6.199 0.109 9.695 0.766 12.871 2.531 c 0.262 0.145 0.527 0.297 0.789 0.461 c 0.781 0.488 1.563 1.051 2.367 1.695 c 3.465 2.766 3.77 6.133 6.711 8.707 c 1.793 1.566 1.551 1.434 2.379 1.434 c 0.906 0 1.371 -0.832 1.59 -1.738 c -2.641 -8.375 -10.359 -14.445 -19.473 -14.445 m -8.203 3.816 c -0.434 0 -0.863 0.047 -1.289 0.137 c -0.141 0.031 -0.281 0.063 -0.422 0.102 c -3.918 1.066 -7.27 5.461 -8.367 7.477 c -0.07 0.129 -0.148 0.277 -0.223 0.418 c -0.582 1.254 -1.051 2.574 -1.379 3.953 c 0.313 -0.41 0.617 -0.793 0.922 -1.152 c 2.125 -2.527 4.066 -3.898 6.859 -3.898 c 4.977 0 5.609 2.254 14.734 8.301 c 4.492 2.977 11.309 7.078 16.93 7.691 c 0.23 -0.77 0.414 -1.559 0.555 -2.359 c -2.102 -0.156 -3.996 -0.969 -6.05 -2.352 c -0.293 -0.195 -0.59 -0.398 -0.887 -0.621 c -2.402 -1.758 -5.066 -4.25 -8.539 -7.34 c -2.641 -2.352 -9.285 -10.355 -12.848 -10.355 m -7.133 23.727 c -1.582 0 -2.758 0.813 -2.891 2.645 c 2.215 4.414 5.93 7.918 10.469 9.813 c -0.059 -0.086 -0.117 -0.176 -0.176 -0.27 c -0.426 -0.668 -0.836 -1.574 -0.836 -2.609 c 0 -1.207 0.77 -1.684 1.633 -1.684 c 1.156 0 4.961 1.84 11.328 1.84 c 3.184 0 7.156 -0.473 10.07 -1.613 c 1.148 -1.137 2.16 -2.41 3.02 -3.797 c -1.859 0.77 -5.297 1.875 -9.777 1.875 c -8.656 0 -16.547 -3.754 -18.828 -4.957 c -0.605 -0.32 -2.156 -1.242 -4.01 -1.242 m 0 0" fill-rule="evenodd" fill="#000"/></g></g></g></g></g><g><g clip-path="url(#clipPath-754852161)"><!-- color: #3896c8 --><g><path d="m 23.883 3 c -2.551 0 -4.984 0.488 -7.234 1.355 c 6.199 0.109 9.695 0.766 12.871 2.531 c 0.262 0.145 0.527 0.297 0.789 0.461 c 0.781 0.488 1.563 1.051 2.367 1.695 c 3.465 2.766 3.77 6.133 6.711 8.707 c 1.793 1.566 1.551 1.434 2.379 1.434 c 0.906 0 1.371 -0.832 1.59 -1.738 c -2.641 -8.375 -10.359 -14.445 -19.473 -14.445 m -8.203 3.816 c -0.434 0 -0.863 0.047 -1.289 0.137 c -0.141 0.031 -0.281 0.063 -0.422 0.102 c -3.918 1.066 -7.27 5.461 -8.367 7.477 c -0.07 0.129 -0.148 0.277 -0.223 0.418 c -0.582 1.254 -1.051 2.574 -1.379 3.953 c 0.313 -0.41 0.617 -0.793 0.922 -1.152 c 2.125 -2.527 4.066 -3.898 6.859 -3.898 c 4.977 0 5.609 2.254 14.734 8.301 c 4.492 2.977 11.309 7.078 16.93 7.691 c 0.23 -0.77 0.414 -1.559 0.555 -2.359 c -2.102 -0.156 -3.996 -0.969 -6.05 -2.352 c -0.293 -0.195 -0.59 -0.398 -0.887 -0.621 c -2.402 -1.758 -5.066 -4.25 -8.539 -7.34 c -2.641 -2.352 -9.285 -10.355 -12.848 -10.355 m -7.133 23.727 c -1.582 0 -2.758 0.813 -2.891 2.645 c 2.215 4.414 5.93 7.918 10.469 9.813 c -0.059 -0.086 -0.117 -0.176 -0.176 -0.27 c -0.426 -0.668 -0.836 -1.574 -0.836 -2.609 c 0 -1.207 0.77 -1.684 1.633 -1.684 c 1.156 0 4.961 1.84 11.328 1.84 c 3.184 0 7.156 -0.473 10.07 -1.613 c 1.148 -1.137 2.16 -2.41 3.02 -3.797 c -1.859 0.77 -5.297 1.875 -9.777 1.875 c -8.656 0 -16.547 -3.754 -18.828 -4.957 c -0.605 -0.32 -2.156 -1.242 -4.01 -1.242 m 0 0" fill="#f9f9f9" fill-rule="evenodd"/></g></g></g><g><path d="m 40.03 7.531 c 3.712 4.084 5.969 9.514 5.969 15.469 0 12.703 -10.297 23 -23 23 c -5.954 0 -11.384 -2.256 -15.469 -5.969 4.178 4.291 10.01 6.969 16.469 6.969 c 12.703 0 23 -10.298 23 -23 0 -6.462 -2.677 -12.291 -6.969 -16.469 z" opacity="0.1"/></g></svg>