<svg viewBox="0 0 48 48"><defs><linearGradient id="linearGradient3764" x1="1" x2="47" gradientUnits="userSpaceOnUse" gradientTransform="translate(-48.000001,0.00221467)"><stop stop-color="#184a74" stop-opacity="1"/><stop offset="1" stop-color="#1c5484" stop-opacity="1"/></linearGradient><clipPath id="clipPath-022387956"><g transform="translate(0,-1004.3622)"><rect rx="4" y="1005.36" x="1" height="46" width="46" fill="#1890d0"/></g></clipPath><clipPath id="clipPath-035801256"><g transform="translate(0,-1004.3622)"><rect rx="4" y="1005.36" x="1" height="46" width="46" fill="#1890d0"/></g></clipPath></defs><g><path d="m 1 43 l 0 0.25 c 0 2.216 1.784 4 4 4 l 38 0 c 2.216 0 4 -1.784 4 -4 l 0 -0.25 c 0 2.216 -1.784 4 -4 4 l -38 0 c -2.216 0 -4 -1.784 -4 -4 z m 0 0.5 l 0 0.5 c 0 2.216 1.784 4 4 4 l 38 0 c 2.216 0 4 -1.784 4 -4 l 0 -0.5 c 0 2.216 -1.784 4 -4 4 l -38 0 c -2.216 0 -4 -1.784 -4 -4 z" opacity="0.02"/><path d="m 1 43.25 l 0 0.25 c 0 2.216 1.784 4 4 4 l 38 0 c 2.216 0 4 -1.784 4 -4 l 0 -0.25 c 0 2.216 -1.784 4 -4 4 l -38 0 c -2.216 0 -4 -1.784 -4 -4 z" opacity="0.05"/><path d="m 1 43 l 0 0.25 c 0 2.216 1.784 4 4 4 l 38 0 c 2.216 0 4 -1.784 4 -4 l 0 -0.25 c 0 2.216 -1.784 4 -4 4 l -38 0 c -2.216 0 -4 -1.784 -4 -4 z" opacity="0.1"/></g><g><rect width="46" height="46" x="-47" y="1" rx="4" transform="matrix(0,-1,1,0,0,0)" fill="url(#linearGradient3764)" fill-opacity="1"/></g><g><g clip-path="url(#clipPath-022387956)"><g opacity="0.1"><!-- color: #1c5484 --><g><path d="m 36.48 16.12 c 0.082 0.488 0.109 1 0.109 1.543 c 0 0.004 0 0.008 0 0.016 c 0 3.102 -1.359 5.75 -3.926 7.629 c -2.582 1.902 -6.102 2.793 -10.504 2.797 l -1.01 0 c -0.309 0 -0.762 0.383 -0.82 0.656 l 0 0.016 l -1.211 5.199 c -0.27 1.188 -1.32 2 -2.527 2 l -3.035 0 c 0.012 0.578 0.461 1.023 1.09 1.02 l 3.52 -0.012 c 0.746 0.004 1.504 -0.59 1.68 -1.32 l 1.195 -5.211 c 0.168 -0.73 0.922 -1.34 1.68 -1.332 l 1.01 0 c 4.289 0 7.613 -0.879 9.996 -2.633 c 2.379 -1.762 3.574 -4.07 3.574 -6.945 c -0.008 -1.258 -0.223 -2.32 -0.672 -3.16 c -0.047 -0.09 -0.094 -0.18 -0.148 -0.266 m -12.617 0.199 c -0.289 -0.004 -0.758 0.379 -0.816 0.66 l -0.016 0.012 l -1.047 4.543 c -0.035 0.148 0.004 0.188 0.027 0.215 c 0.023 0.027 0.051 0.066 0.199 0.066 l 0.82 0 l 0.727 -3.156 c 0.156 -0.723 0.922 -1.324 1.664 -1.316 l 1.156 -0.016 c 0.57 0.004 1.07 0.039 1.52 0.121 c -0.102 -0.25 -0.266 -0.43 -0.512 -0.59 c -0.469 -0.313 -1.324 -0.539 -2.566 -0.539 m -1.156 0" fill="#000"/><path d="m 35.06 14.512 c -0.438 -0.848 -1.09 -1.539 -1.922 -2.059 c -0.867 -0.535 -1.871 -0.902 -3.043 -1.125 c -1.18 -0.211 -2.555 -0.313 -4.137 -0.328 l -7.313 0.004 c -0.762 0.012 -1.508 0.605 -1.68 1.336 l -4.934 21.445 c -0.172 0.73 0.305 1.34 1.063 1.34 l 3.504 0 c 0.758 0 1.508 -0.594 1.68 -1.34 l 1.207 -5.207 c 0.16 -0.727 0.91 -1.328 1.668 -1.328 l 1 0 c 4.285 -0.004 7.609 -0.879 9.996 -2.637 c 2.387 -1.75 3.578 -4.07 3.574 -6.941 c 0.004 -1.262 -0.215 -2.316 -0.668 -3.16 m -7.566 7.01 c -1.059 0.77 -2.523 1.16 -4.422 1.16 l -0.859 0 c -0.758 0 -1.234 -0.602 -1.07 -1.34 l 1.055 -4.547 c 0.16 -0.73 0.918 -1.34 1.676 -1.332 l 1.145 -0.008 c 1.34 0 2.359 0.23 3.047 0.688 c 0.676 0.441 1.02 1.145 1.01 2.086 c 0.02 1.418 -0.52 2.516 -1.578 3.293" fill="#000"/></g></g></g></g><g><g clip-path="url(#clipPath-035801256)"><g transform="translate(0,-1)"><!-- color: #1c5484 --><g><path d="m 36.48 16.12 c 0.082 0.488 0.109 1 0.109 1.543 c 0 0.004 0 0.008 0 0.016 c 0 3.102 -1.359 5.75 -3.926 7.629 c -2.582 1.902 -6.102 2.793 -10.504 2.797 l -1.01 0 c -0.309 0 -0.762 0.383 -0.82 0.656 l 0 0.016 l -1.211 5.199 c -0.27 1.188 -1.32 2 -2.527 2 l -3.035 0 c 0.012 0.578 0.461 1.023 1.09 1.02 l 3.52 -0.012 c 0.746 0.004 1.504 -0.59 1.68 -1.32 l 1.195 -5.211 c 0.168 -0.73 0.922 -1.34 1.68 -1.332 l 1.01 0 c 4.289 0 7.613 -0.879 9.996 -2.633 c 2.379 -1.762 3.574 -4.07 3.574 -6.945 c -0.008 -1.258 -0.223 -2.32 -0.672 -3.16 c -0.047 -0.09 -0.094 -0.18 -0.148 -0.266 m -12.617 0.199 c -0.289 -0.004 -0.758 0.379 -0.816 0.66 l -0.016 0.012 l -1.047 4.543 c -0.035 0.148 0.004 0.188 0.027 0.215 c 0.023 0.027 0.051 0.066 0.199 0.066 l 0.82 0 l 0.727 -3.156 c 0.156 -0.723 0.922 -1.324 1.664 -1.316 l 1.156 -0.016 c 0.57 0.004 1.07 0.039 1.52 0.121 c -0.102 -0.25 -0.266 -0.43 -0.512 -0.59 c -0.469 -0.313 -1.324 -0.539 -2.566 -0.539 m -1.156 0" fill="#9cc7e5"/><path d="m 35.06 14.512 c -0.438 -0.848 -1.09 -1.539 -1.922 -2.059 c -0.867 -0.535 -1.871 -0.902 -3.043 -1.125 c -1.18 -0.211 -2.555 -0.313 -4.137 -0.328 l -7.313 0.004 c -0.762 0.012 -1.508 0.605 -1.68 1.336 l -4.934 21.445 c -0.172 0.73 0.305 1.34 1.063 1.34 l 3.504 0 c 0.758 0 1.508 -0.594 1.68 -1.34 l 1.207 -5.207 c 0.16 -0.727 0.91 -1.328 1.668 -1.328 l 1 0 c 4.285 -0.004 7.609 -0.879 9.996 -2.637 c 2.387 -1.75 3.578 -4.07 3.574 -6.941 c 0.004 -1.262 -0.215 -2.316 -0.668 -3.16 m -7.566 7.01 c -1.059 0.77 -2.523 1.16 -4.422 1.16 l -0.859 0 c -0.758 0 -1.234 -0.602 -1.07 -1.34 l 1.055 -4.547 c 0.16 -0.73 0.918 -1.34 1.676 -1.332 l 1.145 -0.008 c 1.34 0 2.359 0.23 3.047 0.688 c 0.676 0.441 1.02 1.145 1.01 2.086 c 0.02 1.418 -0.52 2.516 -1.578 3.293" fill="#f9f9f9"/></g></g></g></g><g><g transform="translate(0,-1004.3622)"><path d="m 1 1043.36 0 4 c 0 2.216 1.784 4 4 4 l 38 0 c 2.216 0 4 -1.784 4 -4 l 0 -4 c 0 2.216 -1.784 4 -4 4 l -38 0 c -2.216 0 -4 -1.784 -4 -4 z" opacity="0.1"/></g></g></svg>