<svg xmlns="http://www.w3.org/2000/svg" xmlns:xlink="http://www.w3.org/1999/xlink" width="48" height="48">
 <defs>
  <clipPath>
   <path d="M -670.14006,51.863192 L -114.61564,405.00326 L -257.11075,510.32573 L -514.2215,-71.013029 L -670.14006,51.863192 z"/>
  </clipPath>
  <clipPath>
   <rect width="20" x="1" y="1" rx="2" height="20" fill="#fff" fill-rule="evenodd"/>
  </clipPath>
  <clipPath>
   <rect width="84" x="6" y="6" rx="6" height="84" fill="#fff"/>
  </clipPath>
  <clipPath>
   <path d="M 54.1,12.5 12.9,54.7 C -2.7,70.3 23,69 32.3,74.9 36.6,77.7 18.5,81.3 22.2,85 c 3.6,3.7 21.7,7.1 25.3,10.7 3.6,3.7 -7.3,7.6 -3.7,11.3 3.5,3.7 11.9,0.2 13.4,8.6 1.1,6.2 15.4,3.1 21.8,-2.2 4,-3.4 -6.9,-3.4 -3.3,-7.1 9,-9.1 17,-4.1 20.3,-12.5 1.8,-4.5 -13.6,-7.7 -9.5,-10.6 9.8,-6.9 45.8,-10.4 29.2,-27 L 73,12.5 c -5.3,-5 -14,-5 -18.9,0 z m -9.9,64.7 c 0.9,0 30.8,4 19.3,7.1 -4.4,1.2 -24.6,-7.1 -19.3,-7.1 z m 57.2,16.6 c 0,2.1 16.3,3.3 15.4,-0.5 -1.3,-6.4 -13.6,-5.9 -15.4,0.5 z m -69.5,11.1 c 3.7,3.2 9.3,-0.7 11.1,-5.2 -3.6,-4.7 -16.9,0.3 -11.1,5.2 z m 67.5,-6.7 c -4.6,4.2 0.8,8.6 5.3,5.7 1.2,-0.8 -0.1,-4.7 -5.3,-5.7 z"/>
  </clipPath>
  <clipPath>
   <rect width="96" x="-100" height="96" fill="#fff"/>
  </clipPath>
  <clipPath>
   <path d="M 95.311,352.545 L 476.403,352.545 L 476.403,71.4229 L 95.311,71.4229 L 95.311,352.545 z"/>
  </clipPath>
  <clipPath>
   <path d="M 93.311,354.545 L 478.511,354.545 L 478.511,69.1846 L 93.311,69.1846 L 93.311,354.545 z"/>
  </clipPath>
  <clipPath>
   <path d="M 93.311,69.185 L 478.511,69.185 L 478.511,354.545 L 93.311,354.545 L 93.311,69.185 z"/>
  </clipPath>
  <clipPath>
   <path d="M 92.311,355.545 L 479.511,355.545 L 479.511,68.1846 L 92.311,68.1846 L 92.311,355.545 z"/>
  </clipPath>
  <linearGradient gradientTransform="translate(0,-1004.3622)" y2="1047.36" x2="0" y1="1028.36" gradientUnits="userSpaceOnUse" id="0" xlink:href="#1"/>
  <linearGradient id="1">
   <stop stop-color="#ffffff"/>
   <stop offset="1" stop-color="#ffffff" stop-opacity="0"/>
  </linearGradient>
  <linearGradient xlink:href="#3" id="2" gradientUnits="userSpaceOnUse" y1="1028.36" x2="0" y2="1047.36" gradientTransform="matrix(1,0,0,-1,0,1052.3622)"/>
  <linearGradient id="3">
   <stop/>
   <stop offset="1" stop-opacity="0"/>
  </linearGradient>
  <clipPath>
   <rect height="96" x="-100" width="96" fill="#fff"/>
  </clipPath>
  <clipPath>
   <rect height="84" rx="6" y="6" x="6" width="84" fill="#fff"/>
  </clipPath>
  <clipPath>
   <rect height="20" rx="2" y="1" x="1" width="20" fill="#fff" fill-rule="evenodd"/>
  </clipPath>
  <clipPath>
   <rect height="96" x="-100" width="96" fill="#fff"/>
  </clipPath>
  <clipPath>
   <rect height="84" rx="6" y="6" x="6" width="84" fill="#fff"/>
  </clipPath>
  <clipPath>
   <rect height="20" rx="2" y="1" x="1" width="20" fill="#fff" fill-rule="evenodd"/>
  </clipPath>
  <linearGradient id="4">
   <stop stop-color="#b94642"/>
   <stop offset="1" stop-color="#c66a58"/>
  </linearGradient>
  <clipPath>
   <rect y="223" x="307" height="42" width="42" transform="matrix(0,1,-1,0,0,0)" fill="url(#5)" color="#bebebe" rx="9"/>
  </clipPath>
  <linearGradient xlink:href="#4" id="5" gradientUnits="userSpaceOnUse" gradientTransform="matrix(0.175,0,0,0.175,302.79999,215.99997)" y1="280" x2="0" y2="40"/>
  <clipPath>
   <rect y="85" x="433" height="22" width="22" fill="url(#6)" color="#bebebe" rx="4"/>
  </clipPath>
  <linearGradient xlink:href="#4" id="6" gradientUnits="userSpaceOnUse" gradientTransform="matrix(0.0875,0,0,0.0875,430.9,81.499996)" y1="291.43" x2="0" y2="40"/>
  <clipPath>
   <rect width="30" height="30" x="433" y="37" fill="url(#7)" color="#bebebe" rx="6"/>
  </clipPath>
  <linearGradient xlink:href="#4" id="7" gradientUnits="userSpaceOnUse" gradientTransform="matrix(0.11931818,0,0,0.11931818,430.13636,32.227267)" y1="291.43" x2="0" y2="40"/>
  <clipPath>
   <rect width="16" height="16" x="304" y="212" transform="matrix(0,1,-1,0,0,0)" fill="url(#8)" color="#bebebe" rx="3"/>
  </clipPath>
  <linearGradient xlink:href="#4" id="8" gradientUnits="userSpaceOnUse" gradientTransform="matrix(0.06666667,0,0,0.06666667,302.4,209.33333)" y1="280" x2="0" y2="40"/>
  <clipPath>
   <rect y="46" x="34" height="220" width="220" fill="url(#9)" color="#bebebe" rx="50"/>
  </clipPath>
  <linearGradient xlink:href="#4" id="9" gradientUnits="userSpaceOnUse" gradientTransform="translate(0,-4)" y1="280" x2="0" y2="40"/>
  <clipPath>
   <rect y="142" x="290" height="60" width="60" fill="url(#A)" color="#bebebe" rx="12.5"/>
  </clipPath>
  <linearGradient xlink:href="#4" id="A" gradientUnits="userSpaceOnUse" y1="204" x2="0" y2="140"/>
  <clipPath>
   <rect width="88" height="88" x="292" y="32" fill="url(#B)" color="#bebebe" rx="18"/>
  </clipPath>
  <linearGradient xlink:href="#4" id="B" gradientUnits="userSpaceOnUse" y1="124" x2="0" y2="28"/>
  <clipPath>
   <rect y="101" x="417" height="22" width="22" fill="url(#C)" color="#bebebe" rx="5"/>
  </clipPath>
  <linearGradient xlink:href="#4" id="C" gradientUnits="userSpaceOnUse" gradientTransform="matrix(0.0875,0,0,0.0875,414.9,97.5)" y1="302.86" x2="0" y2="28.571"/>
  <clipPath>
   <rect width="30" height="30" x="417" y="53" fill="url(#D)" color="#bebebe" rx="7"/>
  </clipPath>
  <linearGradient xlink:href="#4" id="D" gradientUnits="userSpaceOnUse" gradientTransform="matrix(0.11931818,0,0,0.11931818,414.13636,48.22727)" y1="299.81" x2="0" y2="31.619"/>
  <linearGradient id="E">
   <stop stop-color="#b94642"/>
   <stop stop-color="#c66a58" offset="1"/>
  </linearGradient>
  <clipPath>
   <rect rx="9" color="#bebebe" fill="url(#F)" y="223" x="307" height="42" width="42" transform="matrix(0,1,-1,0,0,0)"/>
  </clipPath>
  <linearGradient xlink:href="#E" id="F" gradientUnits="userSpaceOnUse" gradientTransform="matrix(0.175,0,0,0.175,302.79999,215.99997)" y1="280" x2="0" y2="40"/>
  <clipPath>
   <rect rx="4" color="#bebebe" fill="url(#G)" y="85" x="433" height="22" width="22"/>
  </clipPath>
  <linearGradient xlink:href="#E" id="G" gradientUnits="userSpaceOnUse" gradientTransform="matrix(0.0875,0,0,0.0875,430.9,81.499996)" y1="291.43" x2="0" y2="40"/>
  <clipPath>
   <rect rx="6" color="#bebebe" fill="url(#H)" width="30" height="30" x="433" y="37"/>
  </clipPath>
  <linearGradient xlink:href="#E" id="H" gradientUnits="userSpaceOnUse" gradientTransform="matrix(0.11931818,0,0,0.11931818,430.13636,32.227267)" y1="291.43" x2="0" y2="40"/>
  <clipPath>
   <rect rx="3" color="#bebebe" fill="url(#I)" width="16" height="16" x="304" y="212" transform="matrix(0,1,-1,0,0,0)"/>
  </clipPath>
  <linearGradient xlink:href="#E" id="I" gradientUnits="userSpaceOnUse" gradientTransform="matrix(0.06666667,0,0,0.06666667,302.4,209.33333)" y1="280" x2="0" y2="40"/>
  <clipPath>
   <rect rx="50" color="#bebebe" fill="url(#J)" y="46" x="34" height="220" width="220"/>
  </clipPath>
  <linearGradient xlink:href="#E" id="J" gradientUnits="userSpaceOnUse" gradientTransform="translate(0,-4)" y1="280" x2="0" y2="40"/>
  <clipPath>
   <rect rx="12.5" color="#bebebe" fill="url(#K)" y="142" x="290" height="60" width="60"/>
  </clipPath>
  <linearGradient xlink:href="#E" id="K" gradientUnits="userSpaceOnUse" y1="204" x2="0" y2="140"/>
  <clipPath>
   <rect rx="18" color="#bebebe" fill="url(#L)" width="88" height="88" x="292" y="32"/>
  </clipPath>
  <linearGradient xlink:href="#E" id="L" gradientUnits="userSpaceOnUse" y1="124" x2="0" y2="28"/>
  <clipPath>
   <rect rx="5" color="#bebebe" fill="url(#M)" y="101" x="417" height="22" width="22"/>
  </clipPath>
  <linearGradient xlink:href="#E" id="M" gradientUnits="userSpaceOnUse" gradientTransform="matrix(0.0875,0,0,0.0875,414.9,97.5)" y1="302.86" x2="0" y2="28.571"/>
  <clipPath>
   <rect rx="7" color="#bebebe" fill="url(#N)" width="30" height="30" x="417" y="53"/>
  </clipPath>
  <linearGradient xlink:href="#E" id="N" gradientUnits="userSpaceOnUse" gradientTransform="matrix(0.11931818,0,0,0.11931818,414.13636,48.22727)" y1="299.81" x2="0" y2="31.619"/>
 </defs>
 <g>
  <rect rx="7" y="4" x="3" height="42" width="42" opacity="0.2"/>
  <rect width="42" height="42" x="3" y="3" rx="7" fill="#f9f9f9"/>
 </g>
 <g>
  <rect rx="6.333" y="5" x="5" height="38" width="38" fill="#77a8e6"/>
  <path d="M 5.53125,24 C 5.350468,24 5.176236,24.022 5,24.031 l 0,12.625 c 0,3.5086 2.835083,6.3437 6.34375,6.3437 l 25.3125,0 C 40.164917,42.9997 43,40.1646 43,36.656 L 43,24.031 C 42.823764,24.021 42.649532,24 42.46875,24 l -36.9375,0 z" fill="#7dace8"/>
 </g>
 <g transform="translate(0,-1004.3622)">
  <path d="m 19.429168,1036.2646 c -1.573386,-0.4089 -2.449945,-1.7099 -2.452716,-3.6401 -8.85e-4,-0.6172 0.04203,-0.9129 0.190129,-1.3098 0.363018,-0.973 1.324125,-1.707 2.588828,-1.9772 0.629307,-0.1345 0.823186,-0.2788 0.823186,-0.6129 0,-0.1049 0.0749,-0.4171 0.166426,-0.6939 0.415874,-1.2573 1.185858,-2.3054 2.008631,-2.7342 0.861103,-0.4488 1.295852,-0.55 2.33752,-0.5441 1.479377,0.01 2.217441,0.342 3.249733,1.4697 l 0.567725,0.6202 0.508603,-0.1831 c 2.461555,-0.8861 4.91548,0.6223 5.113285,3.1431 l 0.05411,0.6896 0.484735,0.1806 c 1.384324,0.5159 2.035007,1.5993 1.91705,3.1919 -0.07713,1.0414 -0.545276,1.8729 -1.28688,2.2857 l -0.348626,0.1941 -7.748013,0.015 c -5.953956,0.012 -7.846602,-0.01 -8.173738,-0.095 z" fill="#f9f9f9"/>
  <path d="m 13.620826,1035.1512 c -0.918527,-0.227 -1.891797,-1.0709 -2.348188,-2.036 C 11.01375,1032.5678 11,1032.4873 11,1031.5188 c 0,-0.9211 0.02208,-1.0689 0.228179,-1.5263 0.434467,-0.9642 1.266905,-1.6609 2.311363,-1.9345 0.220429,-0.058 0.427558,-0.1499 0.460284,-0.2048 0.03274,-0.055 0.0691,-0.3539 0.08078,-0.6645 0.0727,-1.9291 1.28954,-3.6289 2.988648,-4.1748 0.91795,-0.2949 2.071183,-0.2224 3.069622,0.1931 0.316666,0.1318 0.281006,0.16 0.950565,-0.7532 0.395967,-0.5401 1.196065,-1.2118 1.850986,-1.5539 0.706825,-0.3693 1.441933,-0.5394 2.321028,-0.5372 2.457001,0.01 4.574526,1.6049 5.357545,4.0446 0.250175,0.7795 0.237703,0.9978 -0.05739,1.0043 -0.128785,0 -0.497765,0.076 -0.819968,0.1639 l -0.585809,0.1588 -0.534555,-0.556 c -1.507185,-1.5678 -3.966938,-1.9066 -6.057976,-0.8346 -0.835383,0.4283 -1.506674,1.0432 -2.013735,1.8445 -0.361495,0.5713 -0.822398,1.637 -0.822398,1.9016 0,0.1877 -0.14613,0.2815 -0.770171,0.4944 -1.932075,0.6591 -3.059779,2.1812 -3.059,4.1288 2.59e-4,0.7089 0.175783,1.5763 0.419435,2.0731 0.09186,0.1873 0.143107,0.3654 0.113885,0.3958 -0.07471,0.078 -2.478194,0.052 -2.810493,-0.031 z" fill="#f9f9f9"/>
 </g>
 <g>
  <path d="M 11.34375,5 C 7.8350832,5 5,7.8350832 5,11.34375 l 0,1 C 5,8.8350832 7.8350832,6 11.34375,6 l 25.3125,0 C 40.164917,6 43,8.8350832 43,12.34375 l 0,-1 C 43,7.8350832 40.164917,5 36.65625,5 l -25.3125,0 z" opacity="0.2"/>
  <path d="M 5.53125,24 C 5.350468,24 5.176236,24.022 5,24.031 l 0,12.625 c 0,3.5086 2.835083,6.3437 6.34375,6.3437 l 25.3125,0 C 40.164917,42.9997 43,40.1646 43,36.656 L 43,24.031 C 42.823764,24.021 42.649532,24 42.46875,24 l -36.9375,0 z" opacity="0.03" fill="url(#0)"/>
  <path d="M 5.53125,24 C 5.350468,24 5.176236,23.978 5,23.969 L 5,11.344 C 5,7.8354 7.835083,5.0003 11.34375,5.0003 l 25.3125,0 C 40.164917,5.0003 43,7.8354 43,11.344 l 0,12.625 C 42.823764,23.979 42.649532,24 42.46875,24 l -36.9375,0 z" opacity="0.03" fill="url(#2)"/>
 </g>
</svg>
