<svg viewBox="0 0 48 48"><defs><linearGradient id="linearGradient3764" x1="1" x2="47" gradientUnits="userSpaceOnUse" gradientTransform="translate(-48.000001,0.00221467)"><stop stop-color="#7ebe3a" stop-opacity="1"/><stop offset="1" stop-color="#89c646" stop-opacity="1"/></linearGradient><clipPath id="clipPath-357203766"><g transform="translate(0,-1004.3622)"><rect rx="4" y="1005.36" x="1" height="46" width="46" fill="#1890d0"/></g></clipPath><clipPath id="clipPath-370487280"><g transform="translate(0,-1004.3622)"><rect rx="4" y="1005.36" x="1" height="46" width="46" fill="#1890d0"/></g></clipPath></defs><g><path d="m 1 43 l 0 0.25 c 0 2.216 1.784 4 4 4 l 38 0 c 2.216 0 4 -1.784 4 -4 l 0 -0.25 c 0 2.216 -1.784 4 -4 4 l -38 0 c -2.216 0 -4 -1.784 -4 -4 z m 0 0.5 l 0 0.5 c 0 2.216 1.784 4 4 4 l 38 0 c 2.216 0 4 -1.784 4 -4 l 0 -0.5 c 0 2.216 -1.784 4 -4 4 l -38 0 c -2.216 0 -4 -1.784 -4 -4 z" opacity="0.02"/><path d="m 1 43.25 l 0 0.25 c 0 2.216 1.784 4 4 4 l 38 0 c 2.216 0 4 -1.784 4 -4 l 0 -0.25 c 0 2.216 -1.784 4 -4 4 l -38 0 c -2.216 0 -4 -1.784 -4 -4 z" opacity="0.05"/><path d="m 1 43 l 0 0.25 c 0 2.216 1.784 4 4 4 l 38 0 c 2.216 0 4 -1.784 4 -4 l 0 -0.25 c 0 2.216 -1.784 4 -4 4 l -38 0 c -2.216 0 -4 -1.784 -4 -4 z" opacity="0.1"/></g><g><rect width="46" height="46" x="-47" y="1" rx="4" transform="matrix(0,-1,1,0,0,0)" fill="url(#linearGradient3764)" fill-opacity="1"/></g><g><g clip-path="url(#clipPath-357203766)"><g opacity="0.1"><!-- color: #89c646 --><g><path d="m 15.98 12 c -1.301 0.07 -3.098 1.531 -3.75 3.105 c -0.379 0.914 -0.328 1.293 0.453 3 c 3.125 6.824 8.172 12.07 15.785 16.41 c 3.02 1.723 3.238 1.758 4.668 1.02 c 1.492 -0.77 2.863 -2.563 2.863 -3.746 c 0 -0.879 -0.43 -1.348 -2.918 -3.172 c -1.602 -1.176 -3.09 -2.141 -3.305 -2.141 c -0.215 0 -0.926 0.559 -1.586 1.242 c -0.664 0.684 -1.504 1.242 -1.863 1.242 c -2.441 0 -7.367 -4.922 -7.367 -7.363 c 0 -0.359 0.563 -1.199 1.242 -1.863 c 0.684 -0.66 1.234 -1.445 1.223 -1.75 c -0.012 -0.305 -0.934 -1.75 -2.055 -3.215 c -1.664 -2.184 -2.227 -2.684 -3.137 -2.773 c -0.082 -0.008 -0.168 -0.004 -0.254 0 m 0 0" fill="#000"/></g></g></g></g><g><g clip-path="url(#clipPath-370487280)"><g transform="translate(0,-1)"><!-- color: #89c646 --><g><path d="m 15.98 12 c -1.301 0.07 -3.098 1.531 -3.75 3.105 c -0.379 0.914 -0.328 1.293 0.453 3 c 3.125 6.824 8.172 12.07 15.785 16.41 c 3.02 1.723 3.238 1.758 4.668 1.02 c 1.492 -0.77 2.863 -2.563 2.863 -3.746 c 0 -0.879 -0.43 -1.348 -2.918 -3.172 c -1.602 -1.176 -3.09 -2.141 -3.305 -2.141 c -0.215 0 -0.926 0.559 -1.586 1.242 c -0.664 0.684 -1.504 1.242 -1.863 1.242 c -2.441 0 -7.367 -4.922 -7.367 -7.363 c 0 -0.359 0.563 -1.199 1.242 -1.863 c 0.684 -0.66 1.234 -1.445 1.223 -1.75 c -0.012 -0.305 -0.934 -1.75 -2.055 -3.215 c -1.664 -2.184 -2.227 -2.684 -3.137 -2.773 c -0.082 -0.008 -0.168 -0.004 -0.254 0 m 0 0" fill="#f9f9f9"/></g></g></g></g><g><g transform="translate(0,-1004.3622)"><path d="m 1 1043.36 0 4 c 0 2.216 1.784 4 4 4 l 38 0 c 2.216 0 4 -1.784 4 -4 l 0 -4 c 0 2.216 -1.784 4 -4 4 l -38 0 c -2.216 0 -4 -1.784 -4 -4 z" opacity="0.1"/></g></g></svg>