<svg xmlns="http://www.w3.org/2000/svg" xmlns:xlink="http://www.w3.org/1999/xlink" width="48" viewBox="0 0 13.546667 13.546667" height="48">
 <defs>
  <clipPath>
   <path d="M 92.311,355.545 L 479.511,355.545 L 479.511,68.1846 L 92.311,68.1846 L 92.311,355.545 z"/>
  </clipPath>
  <clipPath>
   <path d="M 93.311,69.185 L 478.511,69.185 L 478.511,354.545 L 93.311,354.545 L 93.311,69.185 z"/>
  </clipPath>
  <clipPath>
   <path d="M 93.311,354.545 L 478.511,354.545 L 478.511,69.1846 L 93.311,69.1846 L 93.311,354.545 z"/>
  </clipPath>
  <clipPath>
   <path d="M 95.311,352.545 L 476.403,352.545 L 476.403,71.4229 L 95.311,71.4229 L 95.311,352.545 z"/>
  </clipPath>
  <clipPath>
   <rect height="96" x="-100" width="96" fill="#fff"/>
  </clipPath>
  <clipPath>
   <path d="M 54.1,12.5 12.9,54.7 C -2.7,70.3 23,69 32.3,74.9 36.6,77.7 18.5,81.3 22.2,85 c 3.6,3.7 21.7,7.1 25.3,10.7 3.6,3.7 -7.3,7.6 -3.7,11.3 3.5,3.7 11.9,0.2 13.4,8.6 1.1,6.2 15.4,3.1 21.8,-2.2 4,-3.4 -6.9,-3.4 -3.3,-7.1 9,-9.1 17,-4.1 20.3,-12.5 1.8,-4.5 -13.6,-7.7 -9.5,-10.6 9.8,-6.9 45.8,-10.4 29.2,-27 L 73,12.5 c -5.3,-5 -14,-5 -18.9,0 z m -9.9,64.7 c 0.9,0 30.8,4 19.3,7.1 -4.4,1.2 -24.6,-7.1 -19.3,-7.1 z m 57.2,16.6 c 0,2.1 16.3,3.3 15.4,-0.5 -1.3,-6.4 -13.6,-5.9 -15.4,0.5 z m -69.5,11.1 c 3.7,3.2 9.3,-0.7 11.1,-5.2 -3.6,-4.7 -16.9,0.3 -11.1,5.2 z m 67.5,-6.7 c -4.6,4.2 0.8,8.6 5.3,5.7 1.2,-0.8 -0.1,-4.7 -5.3,-5.7 z"/>
  </clipPath>
  <clipPath>
   <rect height="84" rx="6" y="6" x="6" width="84" fill="#fff"/>
  </clipPath>
  <clipPath>
   <rect height="20" rx="2" y="1" x="1" width="20" fill="#fff" fill-rule="evenodd"/>
  </clipPath>
  <clipPath>
   <path d="M -670.14006,51.863192 L -114.61564,405.00326 L -257.11075,510.32573 L -514.2215,-71.013029 L -670.14006,51.863192 z"/>
  </clipPath>
  <clipPath>
   <rect height="96" x="-100" width="96" fill="#fff"/>
  </clipPath>
  <clipPath>
   <rect height="84" rx="6" y="6" x="6" width="84" fill="#fff"/>
  </clipPath>
  <clipPath>
   <rect height="20" rx="2" y="1" x="1" width="20" fill="#fff" fill-rule="evenodd"/>
  </clipPath>
  <linearGradient xlink:href="#1" id="0" gradientUnits="userSpaceOnUse" y1="24" x2="0" y2="48" gradientTransform="matrix(0.28222223,0,0,0.28222223,6.7399158e-7,-6.3183333e-6)"/>
  <linearGradient id="1">
   <stop stop-color="#ffffff"/>
   <stop offset="1" stop-color="#ffffff" stop-opacity="0"/>
  </linearGradient>
  <linearGradient xlink:href="#3" id="2" y1="24" x2="0" y2="48" gradientUnits="userSpaceOnUse" gradientTransform="matrix(-0.28222223,0,0,-0.28222223,13.546659,13.546666)"/>
  <linearGradient id="3">
   <stop/>
   <stop offset="1" stop-opacity="0"/>
  </linearGradient>
 </defs>
 <g>
  <rect width="12.982" x="0.282" y="0.564" rx="6.491" height="12.982" opacity="0.18" fill-rule="evenodd"/>
  <rect height="12.982" rx="6.491" y="0.282" x="0.282" width="12.982" fill="#f9f9f9" fill-rule="evenodd"/>
 </g>
 <g>
  <path d="m 12.699999,6.7734035 c 0,-3.2731866 -2.653456,-5.92673568 -5.9265966,-5.92673568 -3.2733024,0 -5.92673568,2.65354908 -5.92673568,5.92673568 0,3.2732795 2.65345638,5.9265965 5.92673568,5.9265965 3.2731406,0 5.9265966,-2.653364 5.9265966,-5.9265965 z" fill="#73d7e9"/>
 </g>
 <g>
  <path d="m 6.7733403,3.1044446 c -2.0262766,0 -3.6688958,1.5859582 -3.6688958,3.542314 0,1.1796037 0.6007755,2.2185108 1.5191518,2.8623399 -0.033595,0.13559 -0.07606,0.2785869 -0.14332,0.4270437 -0.2293019,0.5060798 -0.4586139,0.5060798 -0.4586139,0.5060798 0,0 0.6879142,0 1.1465284,-0.252973 0.096883,-0.0533 0.1815558,-0.140661 0.2579657,-0.2451769 0.4177288,0.1596389 0.8706295,0.2451769 1.3471725,0.2451769 2.0262714,0 3.668894,-1.5859394 3.668894,-3.5423473 0,-1.9563559 -1.6426226,-3.5423141 -3.668894,-3.5423141 z" fill="#e2e694"/>
  <path d="m 9.0311124,6.8009013 c 0,0.3126627 -0.252711,0.566126 -0.564445,0.566126 -0.311734,0 -0.5644447,-0.2534633 -0.5644447,-0.566126 0,-0.3126627 0.2527107,-0.5661262 0.5644447,-0.5661262 0.311734,0 0.564445,0.2534635 0.564445,0.5661262 z m -1.6933333,0.00169 c 0,0.312663 -0.2527114,0.5661262 -0.5644453,0.5661262 -0.3117345,0 -0.5644445,-0.2534632 -0.5644445,-0.5661262 0,-0.3126628 0.25271,-0.566126 0.5644445,-0.566126 0.3117339,0 0.5644453,0.2534632 0.5644453,0.566126 z m -1.6933343,-0.00169 c 0,0.3126627 -0.2527115,0.566126 -0.5644455,0.566126 -0.311734,0 -0.5644441,-0.2534633 -0.5644441,-0.566126 0,-0.3126627 0.2527101,-0.5661262 0.5644441,-0.5661262 0.3117341,0 0.5644455,0.2534635 0.5644455,0.5661262 z" fill="#f9f9f9"/>
 </g>
 <g>
  <path d="m 6.7733335,0.84666669 c -3.2733023,0 -5.92666681,2.65348021 -5.92666681,5.92666681 0,0.046723 -0.001075,0.094647 0,0.1411111 0.0742608,-3.2086195 2.70008781,-5.7855557 5.92666681,-5.7855557 3.2264196,0 5.8524055,2.5769362 5.9266665,5.7855557 0.0011,-0.046464 0,-0.094389 0,-0.1411111 0,-3.2731866 -2.653526,-5.92666681 -5.9266665,-5.92666681 z" opacity="0.2"/>
  <path d="M 0.84666669,6.7733318 C 0.84666669,10.046613 3.5000518,12.7 6.7733276,12.7 c 3.2731384,0 5.9266644,-2.653434 5.9266644,-5.9266682 l -11.85332531,0 z" opacity="0.05" fill="url(#0)"/>
  <path d="m 12.699992,6.7733315 c 0,-3.2732792 -2.653389,-5.92666626 -5.9266644,-5.92666626 -3.273137,0 -5.92666091,2.65343396 -5.92666091,5.92666626 l 11.85332531,0 z" opacity="0.05" fill="url(#2)"/>
 </g>
</svg>
