<svg viewBox="0 0 48 48"><defs><linearGradient id="linearGradient3764" x1="1" x2="47" gradientUnits="userSpaceOnUse" gradientTransform="translate(-48.000001,0.00221467)"><stop stop-color="#7dc036" stop-opacity="1"/><stop offset="1" stop-color="#86ca40" stop-opacity="1"/></linearGradient><clipPath id="clipPath-042965137"><g transform="translate(0,-1004.3622)"><rect rx="4" y="1005.36" x="1" height="46" width="46" fill="#1890d0"/></g></clipPath><clipPath id="clipPath-071625819"><g transform="translate(0,-1004.3622)"><rect rx="4" y="1005.36" x="1" height="46" width="46" fill="#1890d0"/></g></clipPath></defs><g><path d="m 1 43 l 0 0.25 c 0 2.216 1.784 4 4 4 l 38 0 c 2.216 0 4 -1.784 4 -4 l 0 -0.25 c 0 2.216 -1.784 4 -4 4 l -38 0 c -2.216 0 -4 -1.784 -4 -4 z m 0 0.5 l 0 0.5 c 0 2.216 1.784 4 4 4 l 38 0 c 2.216 0 4 -1.784 4 -4 l 0 -0.5 c 0 2.216 -1.784 4 -4 4 l -38 0 c -2.216 0 -4 -1.784 -4 -4 z" opacity="0.02"/><path d="m 1 43.25 l 0 0.25 c 0 2.216 1.784 4 4 4 l 38 0 c 2.216 0 4 -1.784 4 -4 l 0 -0.25 c 0 2.216 -1.784 4 -4 4 l -38 0 c -2.216 0 -4 -1.784 -4 -4 z" opacity="0.05"/><path d="m 1 43 l 0 0.25 c 0 2.216 1.784 4 4 4 l 38 0 c 2.216 0 4 -1.784 4 -4 l 0 -0.25 c 0 2.216 -1.784 4 -4 4 l -38 0 c -2.216 0 -4 -1.784 -4 -4 z" opacity="0.1"/></g><g><rect width="46" height="46" x="-47" y="1" rx="4" transform="matrix(0,-1,1,0,0,0)" fill="url(#linearGradient3764)" fill-opacity="1"/></g><g><g clip-path="url(#clipPath-042965137)"><g opacity="0.1"><!-- color: #86ca40 --><path d="m 15 15 c -1.645 0 -3 1.355 -3 3 l 0 12 c 0 1.645 1.355 3 3 3 l 18 0 c 1.645 0 3 -1.355 3 -3 l 0 -12 c 0 -1.645 -1.355 -3 -3 -3 l -18 0 z m 0 2 18 0 c 0.566 0 1 0.434 1 1 l 0 12 c 0 0.566 -0.434 1 -1 1 l -18 0 c -0.566 0 -1 -0.434 -1 -1 l 0 -12 c 0 -0.566 0.434 -1 1 -1 z" color="#000" fill="#000"/><path d="m 22 20 0 8 6 -4 z m 0 0" fill="#000"/></g></g></g><g><g clip-path="url(#clipPath-071625819)"><g transform="translate(0,-1)"><!-- color: #86ca40 --><path d="m 15 15 c -1.645 0 -3 1.355 -3 3 l 0 12 c 0 1.645 1.355 3 3 3 l 18 0 c 1.645 0 3 -1.355 3 -3 l 0 -12 c 0 -1.645 -1.355 -3 -3 -3 l -18 0 z m 0 2 18 0 c 0.566 0 1 0.434 1 1 l 0 12 c 0 0.566 -0.434 1 -1 1 l -18 0 c -0.566 0 -1 -0.434 -1 -1 l 0 -12 c 0 -0.566 0.434 -1 1 -1 z" color="#000" fill="#f9f9f9"/><path d="m 22 20 0 8 6 -4 z m 0 0" fill="#f9f9f9"/></g></g></g><g><g transform="translate(0,-1004.3622)"><path d="m 1 1043.36 0 4 c 0 2.216 1.784 4 4 4 l 38 0 c 2.216 0 4 -1.784 4 -4 l 0 -4 c 0 2.216 -1.784 4 -4 4 l -38 0 c -2.216 0 -4 -1.784 -4 -4 z" opacity="0.1"/></g></g></svg>