<svg viewBox="0 0 48 48"><defs><linearGradient id="linearGradient3764" y1="1" x2="0" y2="47" gradientUnits="userSpaceOnUse"><stop stop-color="#e56447" stop-opacity="1"/><stop offset="1" stop-color="#e35635" stop-opacity="1"/></linearGradient><clipPath id="clipPath-005207908"><g transform="translate(0,-1004.3622)"><path d="m 24 1005.37 c -1.045 0 -2.023 0.287 -2.856 0.784 l -15.339 8.708 c -0.017 0.013 -0.035 0.013 -0.052 0.021 -1.852 1.051 -2.847 3 -2.746 4.968 l 0 17.02 c -0.056 1.013 0.175 2.049 0.729 2.993 0.532 0.903 1.288 1.602 2.161 2.061 l 15.246 8.653 c 0.832 0.497 1.811 0.784 2.856 0.784 1.045 0 2.023 -0.287 2.856 -0.784 l 15.246 -8.653 c 0.873 -0.46 1.629 -1.158 2.161 -2.061 0.554 -0.944 0.785 -1.981 0.729 -2.993 l 0 -17.01 c 0.056 -1.012 -0.175 -2.052 -0.729 -2.993 -0.532 -0.906 -1.288 -1.604 -2.161 -2.064 l -15.246 -8.653 c -0.832 -0.497 -1.811 -0.784 -2.856 -0.784 z" fill="#1890d0"/></g></clipPath><clipPath id="clipPath-013959872"><g transform="translate(0,-1004.3622)"><path d="m 24 1005.37 c -1.045 0 -2.023 0.287 -2.856 0.784 l -15.339 8.708 c -0.017 0.013 -0.035 0.013 -0.052 0.021 -1.852 1.051 -2.847 3 -2.746 4.968 l 0 17.02 c -0.056 1.013 0.175 2.049 0.729 2.993 0.532 0.903 1.288 1.602 2.161 2.061 l 15.246 8.653 c 0.832 0.497 1.811 0.784 2.856 0.784 1.045 0 2.023 -0.287 2.856 -0.784 l 15.246 -8.653 c 0.873 -0.46 1.629 -1.158 2.161 -2.061 0.554 -0.944 0.785 -1.981 0.729 -2.993 l 0 -17.01 c 0.056 -1.012 -0.175 -2.052 -0.729 -2.993 -0.532 -0.906 -1.288 -1.604 -2.161 -2.064 l -15.246 -8.653 c -0.832 -0.497 -1.811 -0.784 -2.856 -0.784 z" fill="#1890d0"/></g></clipPath><clipPath><rect width="48" height="48"/></clipPath><filter id="filter-986651431"><feGaussianBlur stdDeviation="0.35"/></filter><clipPath><rect width="48" height="48"/></clipPath></defs><g><g transform="translate(0,-1004.3622)"><path d="m 45 1037.36 c 0.056 1.013 -0.196 2.056 -0.75 3 -0.532 0.903 -1.283 1.603 -2.156 2.063 l -15.25 8.656 c -0.832 0.497 -1.799 0.781 -2.844 0.781 -1.045 0 -2.01 -0.284 -2.844 -0.781 l -15.25 -8.656 c -0.873 -0.46 -1.625 -1.159 -2.156 -2.063 -0.416 -0.708 -0.677 -1.485 -0.75 -2.25 -0.004 0.932 0.242 1.884 0.75 2.75 0.532 0.903 1.283 1.603 2.156 2.063 l 15.25 8.656 c 0.832 0.497 1.799 0.781 2.844 0.781 1.045 0 2.01 -0.284 2.844 -0.781 l 15.25 -8.656 c 0.873 -0.46 1.625 -1.159 2.156 -2.063 0.554 -0.944 0.806 -1.987 0.75 -3 l 0 -0.5 z" opacity="0.05"/><path d="m 45 1036.86 c 0.015 0.263 -0.004 0.516 -0.031 0.781 -0.036 0.844 -0.259 1.685 -0.719 2.469 -0.532 0.903 -1.283 1.603 -2.156 2.063 l -15.25 8.656 c -0.832 0.497 -1.799 0.781 -2.844 0.781 -1.045 0 -2.01 -0.284 -2.844 -0.781 l -15.25 -8.656 c -0.873 -0.46 -1.625 -1.159 -2.156 -2.063 -0.414 -0.705 -0.621 -1.46 -0.688 -2.219 -0.014 -0.092 -0.054 -0.189 -0.063 -0.281 -0.004 0.932 0.242 1.884 0.75 2.75 0.532 0.903 1.283 1.603 2.156 2.063 l 15.25 8.656 c 0.832 0.497 1.799 0.781 2.844 0.781 1.045 0 2.01 -0.284 2.844 -0.781 l 15.25 -8.656 c 0.873 -0.46 1.625 -1.159 2.156 -2.063 0.554 -0.944 0.806 -1.987 0.75 -3 l 0 -0.5 z m -41.813 1.625 c 0.057 0.219 0.132 0.442 0.219 0.656 -0.088 -0.216 -0.16 -0.436 -0.219 -0.656 z m 0.219 0.656 c 0.099 0.243 0.206 0.484 0.344 0.719 -0.139 -0.236 -0.243 -0.472 -0.344 -0.719 z m 41.41 -0.656 c -0.059 0.221 -0.131 0.441 -0.219 0.656 0.087 -0.215 0.161 -0.437 0.219 -0.656 z m -0.219 0.656 c -0.101 0.246 -0.205 0.483 -0.344 0.719 0.138 -0.235 0.245 -0.476 0.344 -0.719 z" opacity="0.1"/><path d="m 3.03 1037.64 c 0.035 0.844 0.259 1.685 0.719 2.469 0.532 0.903 1.283 1.603 2.156 2.063 l 15.25 8.656 c 0.832 0.497 1.799 0.781 2.844 0.781 1.045 0 2.01 -0.284 2.844 -0.781 l 15.25 -8.656 c 0.873 -0.46 1.625 -1.159 2.156 -2.063 0.46 -0.784 0.683 -1.624 0.719 -2.469 -0.067 0.763 -0.303 1.511 -0.719 2.219 -0.532 0.903 -1.283 1.603 -2.156 2.063 l -15.25 8.656 c -0.832 0.497 -1.799 0.781 -2.844 0.781 -1.045 0 -2.01 -0.284 -2.844 -0.781 l -15.25 -8.656 c -0.873 -0.46 -1.625 -1.159 -2.156 -2.063 -0.416 -0.708 -0.651 -1.456 -0.719 -2.219 z" opacity="0.2"/></g></g><g><path d="m 24 46.996 c 1.045 0 2.023 -0.287 2.856 -0.784 l 15.339 -8.708 c 0.017 -0.013 0.035 -0.013 0.052 -0.021 1.852 -1.051 2.847 -3 2.746 -4.968 l 0 -17.02 c 0.056 -1.013 -0.175 -2.049 -0.729 -2.993 -0.532 -0.903 -1.288 -1.602 -2.161 -2.061 l -15.246 -8.653 c -0.832 -0.497 -1.811 -0.784 -2.856 -0.784 -1.045 0 -2.023 0.287 -2.856 0.784 l -15.246 8.653 c -0.873 0.46 -1.629 1.158 -2.161 2.061 -0.554 0.944 -0.785 1.981 -0.729 2.993 l 0 17.01 c -0.056 1.012 0.175 2.051 0.729 2.993 0.532 0.906 1.288 1.604 2.161 2.064 l 15.246 8.653 c 0.832 0.497 1.811 0.785 2.856 0.785 z" fill="url(#linearGradient3764)" fill-opacity="1"/></g><g><g clip-path="url(#clipPath-005207908)"><g opacity="0.25"><g transform="translate(0,1)"><g filter="url(#filter-986651431)"><!-- color: #e56447 --><path d="m 18.332 36.398 0.332 0 c 0.313 0 0.547 -0.063 0.703 -0.184 0.152 -0.125 0.23 -0.305 0.23 -0.543 0 -0.234 -0.066 -0.41 -0.195 -0.527 -0.129 -0.113 -0.332 -0.168 -0.609 -0.168 l -0.461 0 0 1.422 m 2.293 -0.762 c 0 0.516 -0.164 0.91 -0.484 1.184 -0.324 0.273 -0.781 0.41 -1.375 0.41 l -0.434 0 0 1.703 -1.016 0 0 -4.789 1.527 0 c 0.582 0 1.023 0.125 1.324 0.375 0.305 0.25 0.457 0.621 0.457 1.117" fill="#000"/><path d="m 22.551 36.27 0.328 0 c 0.32 0 0.559 -0.055 0.711 -0.16 0.152 -0.105 0.23 -0.273 0.23 -0.504 0 -0.227 -0.078 -0.391 -0.238 -0.484 -0.152 -0.098 -0.395 -0.145 -0.723 -0.145 l -0.309 0 0 1.293 m 0 0.828 0 1.836 -1.016 0 0 -4.789 1.395 0 c 0.652 0 1.133 0.117 1.445 0.355 0.313 0.238 0.469 0.598 0.469 1.078 0 0.281 -0.074 0.535 -0.23 0.754 -0.156 0.219 -0.375 0.391 -0.66 0.516 0.723 1.078 1.191 1.773 1.41 2.086 l -1.129 0 -1.141 -1.836 -0.543 0" fill="#000"/><path d="m 30.32 36.531 c 0 0.793 -0.199 1.402 -0.59 1.828 c -0.395 0.426 -0.957 0.641 -1.691 0.641 c -0.734 0 -1.301 -0.215 -1.691 -0.641 -0.395 -0.426 -0.59 -1.035 -0.59 -1.832 0 -0.801 0.195 -1.406 0.59 -1.828 0.395 -0.422 0.961 -0.633 1.695 -0.633 0.738 0 1.301 0.215 1.688 0.637 0.391 0.426 0.59 1.035 0.59 1.828 m -3.5 0 c 0 0.535 0.102 0.941 0.305 1.211 0.203 0.27 0.508 0.406 0.914 0.406 0.809 0 1.215 -0.539 1.215 -1.617 0 -1.078 -0.402 -1.617 -1.211 -1.617 -0.402 0 -0.707 0.137 -0.914 0.41 -0.203 0.27 -0.309 0.672 -0.309 1.207" fill="#000"/><path d="m 25.84 10 c -2.172 0.109 -4.602 -0.102 -6.418 1.324 -2.977 2.18 -2.926 7.219 0.082 9.352 2.105 1.645 4.828 2.297 6.871 4.04 0.633 0.977 0.523 2.43 -0.434 3.164 -2.129 1.051 -5.059 0.488 -6.922 -0.609 -1.188 0.043 -1.617 1.52 -2.02 2.41 0.09 1.078 1.359 1.297 2.188 1.637 2.301 0.793 4.852 0.918 7.203 0.258 2.488 -1.117 4.742 -3.688 4.602 -6.117 0.047 -1.254 -0.594 -2.344 -1.375 -3.273 -0.949 -1.453 -2.582 -2.191 -4.07 -2.965 -1.23 -0.633 -2.527 -1.195 -3.598 -2.074 -1.105 -1.215 -0.258 -3.527 1.426 -3.637 1.152 -0.207 2.32 0.027 3.441 0.285 0.844 0.711 2.383 0.59 2.59 -0.625 0.805 -0.738 -0.129 -1.445 -0.797 -1.785 -1.063 -0.449 -2.254 -0.273 -3.375 -0.305 -1.254 0.074 -2.578 0.441 -3.445 1.395 -0.063 0.887 -1.445 2.305 -2.023 1.047 c -0.219 -1.289 1.285 -1.816 2.285 -2.082 1.281 -0.438 2.547 -0.91 3.789 -1.438 z m 0 0" fill="#000"/></g></g></g></g></g><g><g clip-path="url(#clipPath-013959872)"><!-- color: #e56447 --><path d="m 18.332 36.398 0.332 0 c 0.313 0 0.547 -0.063 0.703 -0.184 0.152 -0.125 0.23 -0.305 0.23 -0.543 0 -0.234 -0.066 -0.41 -0.195 -0.527 -0.129 -0.113 -0.332 -0.168 -0.609 -0.168 l -0.461 0 0 1.422 m 2.293 -0.762 c 0 0.516 -0.164 0.91 -0.484 1.184 -0.324 0.273 -0.781 0.41 -1.375 0.41 l -0.434 0 0 1.703 -1.016 0 0 -4.789 1.527 0 c 0.582 0 1.023 0.125 1.324 0.375 0.305 0.25 0.457 0.621 0.457 1.117" fill="#fff"/><path d="m 22.551 36.27 0.328 0 c 0.32 0 0.559 -0.055 0.711 -0.16 0.152 -0.105 0.23 -0.273 0.23 -0.504 0 -0.227 -0.078 -0.391 -0.238 -0.484 -0.152 -0.098 -0.395 -0.145 -0.723 -0.145 l -0.309 0 0 1.293 m 0 0.828 0 1.836 -1.016 0 0 -4.789 1.395 0 c 0.652 0 1.133 0.117 1.445 0.355 0.313 0.238 0.469 0.598 0.469 1.078 0 0.281 -0.074 0.535 -0.23 0.754 -0.156 0.219 -0.375 0.391 -0.66 0.516 0.723 1.078 1.191 1.773 1.41 2.086 l -1.129 0 -1.141 -1.836 -0.543 0" fill="#fff"/><path d="m 30.32 36.531 c 0 0.793 -0.199 1.402 -0.59 1.828 c -0.395 0.426 -0.957 0.641 -1.691 0.641 c -0.734 0 -1.301 -0.215 -1.691 -0.641 -0.395 -0.426 -0.59 -1.035 -0.59 -1.832 0 -0.801 0.195 -1.406 0.59 -1.828 0.395 -0.422 0.961 -0.633 1.695 -0.633 0.738 0 1.301 0.215 1.688 0.637 0.391 0.426 0.59 1.035 0.59 1.828 m -3.5 0 c 0 0.535 0.102 0.941 0.305 1.211 0.203 0.27 0.508 0.406 0.914 0.406 0.809 0 1.215 -0.539 1.215 -1.617 0 -1.078 -0.402 -1.617 -1.211 -1.617 -0.402 0 -0.707 0.137 -0.914 0.41 -0.203 0.27 -0.309 0.672 -0.309 1.207" fill="#fff"/><path d="m 25.84 10 c -2.172 0.109 -4.602 -0.102 -6.418 1.324 -2.977 2.18 -2.926 7.219 0.082 9.352 2.105 1.645 4.828 2.297 6.871 4.04 0.633 0.977 0.523 2.43 -0.434 3.164 -2.129 1.051 -5.059 0.488 -6.922 -0.609 -1.188 0.043 -1.617 1.52 -2.02 2.41 0.09 1.078 1.359 1.297 2.188 1.637 2.301 0.793 4.852 0.918 7.203 0.258 2.488 -1.117 4.742 -3.688 4.602 -6.117 0.047 -1.254 -0.594 -2.344 -1.375 -3.273 -0.949 -1.453 -2.582 -2.191 -4.07 -2.965 -1.23 -0.633 -2.527 -1.195 -3.598 -2.074 -1.105 -1.215 -0.258 -3.527 1.426 -3.637 1.152 -0.207 2.32 0.027 3.441 0.285 0.844 0.711 2.383 0.59 2.59 -0.625 0.805 -0.738 -0.129 -1.445 -0.797 -1.785 -1.063 -0.449 -2.254 -0.273 -3.375 -0.305 -1.254 0.074 -2.578 0.441 -3.445 1.395 -0.063 0.887 -1.445 2.305 -2.023 1.047 c -0.219 -1.289 1.285 -1.816 2.285 -2.082 1.281 -0.438 2.547 -0.91 3.789 -1.438 z m 0 0" fill="#fff"/></g></g><g><path d="m 24 1 c -1.045 0 -2.01 0.284 -2.844 0.781 l -15.344 8.719 c -0.017 0.013 -0.045 0.023 -0.063 0.031 c -1.852 1.051 -2.851 3 -2.75 4.969 l 0 1 c -0.101 -1.966 0.898 -3.918 2.75 -4.969 c 0.017 -0.008 0.045 -0.018 0.063 -0.031 l 15.344 -8.719 c 0.832 -0.497 1.799 -0.781 2.844 -0.781 c 1.045 0 2.01 0.284 2.844 0.781 l 15.25 8.656 c 0.873 0.46 1.625 1.156 2.156 2.063 c 0.554 0.942 0.806 1.988 0.75 3 l 0 -1 c 0.056 -1.012 -0.196 -2.058 -0.75 -3 c -0.532 -0.906 -1.283 -1.603 -2.156 -2.063 l -15.25 -8.656 c -0.832 -0.497 -1.799 -0.781 -2.844 -0.781 z" opacity="0.2" fill="#fff"/></g></svg>