<svg viewBox="0 0 48 48"><defs><linearGradient id="linearGradient3764" x1="1" x2="47" gradientUnits="userSpaceOnUse" gradientTransform="translate(-48.000001,0.00221467)"><stop stop-color="#5ec044" stop-opacity="1"/><stop offset="1" stop-color="#6bc553" stop-opacity="1"/></linearGradient><clipPath id="clipPath-355641476"><g transform="translate(0,-1004.3622)"><rect rx="4" y="1005.36" x="1" height="46" width="46" fill="#1890d0"/></g></clipPath><clipPath id="clipPath-382867778"><g transform="translate(0,-1004.3622)"><rect rx="4" y="1005.36" x="1" height="46" width="46" fill="#1890d0"/></g></clipPath></defs><g><path d="m 1 43 l 0 0.25 c 0 2.216 1.784 4 4 4 l 38 0 c 2.216 0 4 -1.784 4 -4 l 0 -0.25 c 0 2.216 -1.784 4 -4 4 l -38 0 c -2.216 0 -4 -1.784 -4 -4 z m 0 0.5 l 0 0.5 c 0 2.216 1.784 4 4 4 l 38 0 c 2.216 0 4 -1.784 4 -4 l 0 -0.5 c 0 2.216 -1.784 4 -4 4 l -38 0 c -2.216 0 -4 -1.784 -4 -4 z" opacity="0.02"/><path d="m 1 43.25 l 0 0.25 c 0 2.216 1.784 4 4 4 l 38 0 c 2.216 0 4 -1.784 4 -4 l 0 -0.25 c 0 2.216 -1.784 4 -4 4 l -38 0 c -2.216 0 -4 -1.784 -4 -4 z" opacity="0.05"/><path d="m 1 43 l 0 0.25 c 0 2.216 1.784 4 4 4 l 38 0 c 2.216 0 4 -1.784 4 -4 l 0 -0.25 c 0 2.216 -1.784 4 -4 4 l -38 0 c -2.216 0 -4 -1.784 -4 -4 z" opacity="0.1"/></g><g><rect width="46" height="46" x="-47" y="1" rx="4" transform="matrix(0,-1,1,0,0,0)" fill="url(#linearGradient3764)" fill-opacity="1"/></g><g><g clip-path="url(#clipPath-355641476)"><g opacity="0.1"><!-- color: #6bc553 --><g><path d="m 34 14 c 0 7.04 0 13.898 0 20 c -7.02 0 -13.93 0 -20 0 c 0 -7.04 0 -13.895 0 -20 c 6.941 0 14.05 0 20 0 m -2 2 l -9 0 l 0 4 l 9 0 m -11 -4 l -5 0 l 0 4 l 5 0 m 11 2 l -9 0 l 0 4 l 9 0 m -11 -4 l -5 0 l 0 4 l 5 0 m 11 2 l -9 0 l 0 4 l 9 0 m -11 -4 l -5 0 l 0 4 l 5 0 m 0 -4" fill="#000"/></g></g></g></g><g><g clip-path="url(#clipPath-382867778)"><g transform="translate(0,-1)"><!-- color: #6bc553 --><g><path d="m 34 14 c 0 7.04 0 13.898 0 20 c -7.02 0 -13.93 0 -20 0 c 0 -7.04 0 -13.895 0 -20 c 6.941 0 14.05 0 20 0 m -2 2 l -9 0 l 0 4 l 9 0 m -11 -4 l -5 0 l 0 4 l 5 0 m 11 2 l -9 0 l 0 4 l 9 0 m -11 -4 l -5 0 l 0 4 l 5 0 m 11 2 l -9 0 l 0 4 l 9 0 m -11 -4 l -5 0 l 0 4 l 5 0 m 0 -4" fill="#f9f9f9"/></g></g></g></g><g><g transform="translate(0,-1004.3622)"><path d="m 1 1043.36 0 4 c 0 2.216 1.784 4 4 4 l 38 0 c 2.216 0 4 -1.784 4 -4 l 0 -4 c 0 2.216 -1.784 4 -4 4 l -38 0 c -2.216 0 -4 -1.784 -4 -4 z" opacity="0.1"/></g></g></svg>