<svg viewBox="0 0 48 48"><defs><linearGradient id="linearGradient3764" x1="1" x2="47" gradientUnits="userSpaceOnUse" gradientTransform="translate(-48.000001,0.00221467)"><stop stop-color="#3f7fe9" stop-opacity="1"/><stop offset="1" stop-color="#518aeb" stop-opacity="1"/></linearGradient><clipPath id="clipPath-470277404"><g transform="translate(0,-1004.3622)"><rect rx="4" y="1005.36" x="1" height="46" width="46" fill="#1890d0"/></g></clipPath><clipPath id="clipPath-499861779"><g transform="translate(0,-1004.3622)"><rect rx="4" y="1005.36" x="1" height="46" width="46" fill="#1890d0"/></g></clipPath></defs><g><path d="m 1 43 l 0 0.25 c 0 2.216 1.784 4 4 4 l 38 0 c 2.216 0 4 -1.784 4 -4 l 0 -0.25 c 0 2.216 -1.784 4 -4 4 l -38 0 c -2.216 0 -4 -1.784 -4 -4 z m 0 0.5 l 0 0.5 c 0 2.216 1.784 4 4 4 l 38 0 c 2.216 0 4 -1.784 4 -4 l 0 -0.5 c 0 2.216 -1.784 4 -4 4 l -38 0 c -2.216 0 -4 -1.784 -4 -4 z" opacity="0.02"/><path d="m 1 43.25 l 0 0.25 c 0 2.216 1.784 4 4 4 l 38 0 c 2.216 0 4 -1.784 4 -4 l 0 -0.25 c 0 2.216 -1.784 4 -4 4 l -38 0 c -2.216 0 -4 -1.784 -4 -4 z" opacity="0.05"/><path d="m 1 43 l 0 0.25 c 0 2.216 1.784 4 4 4 l 38 0 c 2.216 0 4 -1.784 4 -4 l 0 -0.25 c 0 2.216 -1.784 4 -4 4 l -38 0 c -2.216 0 -4 -1.784 -4 -4 z" opacity="0.1"/></g><g><rect width="46" height="46" x="-47" y="1" rx="4" transform="matrix(0,-1,1,0,0,0)" fill="url(#linearGradient3764)" fill-opacity="1"/></g><g><g clip-path="url(#clipPath-470277404)"><g opacity="0.1"><!-- color: #518aeb --><path d="m 12 15 24 0 0 18 -24 0 z m 0 0" fill="#000"/><path d="m 19 33 10 0 0 3 -10 0 z m 0 0" fill="#000"/><path d="m 23.719 28.16 c -2.02 0.156 -3.574 1.848 -3.563 3.875 0 0.328 0.043 0.652 0.125 0.969 l 7.438 0 c 0.094 -0.316 0.145 -0.641 0.156 -0.969 0.008 -1.078 -0.438 -2.113 -1.23 -2.848 -0.789 -0.738 -1.848 -1.109 -2.926 -1.027 z m 0 0" fill="#000"/><path d="m 23.781 29 c -1.57 0.113 -2.785 1.426 -2.781 3 c 0.004 0.34 0.07 0.68 0.188 1 l 5.625 0 c 0.117 -0.32 0.184 -0.66 0.188 -1 0.004 -0.836 -0.344 -1.633 -0.953 -2.203 -0.613 -0.57 -1.434 -0.859 -2.266 -0.797 z m 0 0" fill="#000"/><path d="m 28 29 4.727 -0.129 c -0.969 -3.938 -4.484 -6.871 -8.719 -6.871 c -2.75 0 -5.176 1.254 -6.828 3.191 l 3.02 5.234 c 0.09 -0.559 0.289 -1.098 0.605 -1.57 0.316 -0.473 0.746 -0.875 1.273 -1.18 0.465 -0.266 0.953 -0.434 1.449 -0.496 0.5 -0.063 1.012 -0.02 1.488 0.105 0.48 0.129 0.93 0.344 1.328 0.645 c 0.328 0.246 1.418 0.719 1.66 1.07 z m 0 0" fill="#000"/><path d="m 26.438 28 c 0.441 0.355 0.777 0.801 1.031 1.313 0.254 0.512 0.406 1.078 0.406 1.688 0 0.535 -0.117 1.07 -0.313 1.531 -0.07 0.164 -0.156 0.316 -0.25 0.469 l 5.469 0 c 0.363 -1.672 0.25 -3.418 -0.313 -5 z m 0 0" fill="#000"/><path d="m 17.781 24.531 c -2.281 2.188 -3.246 5.414 -2.563 8.469 l 5.5 0 c -0.188 -0.313 -0.344 -0.652 -0.438 -1 -0.129 -0.477 -0.188 -0.969 -0.125 -1.469 0.051 -0.406 0.223 -0.801 0.406 -1.188 z m 0 0" fill="#000"/><path d="m 23.719 27.16 c -2.02 0.156 -3.574 1.848 -3.563 3.875 -0.004 0.691 0.18 1.371 0.531 1.969 l 6.625 0 c 0.359 -0.594 0.555 -1.273 0.563 -1.969 0.008 -1.078 -0.438 -2.113 -1.23 -2.848 -0.789 -0.738 -1.848 -1.109 -2.926 -1.027 z m 0 0" fill="#000"/><path d="m 23.781 28 c -1.57 0.113 -2.785 1.426 -2.781 3 c -0.004 0.734 0.262 1.449 0.75 2 l 4.469 0 c 0.5 -0.547 0.777 -1.258 0.781 -2 0.004 -0.836 -0.344 -1.633 -0.953 -2.203 -0.613 -0.57 -1.434 -0.859 -2.266 -0.797 z m 0 0" fill="#000"/><path d="m 13 14 c -1.109 0 -2 0.891 -2 2 l 0 16 c 0 1.109 0.891 2 2 2 l 22 0 c 1.109 0 2 -0.891 2 -2 l 0 -16 c 0 -1.109 -0.891 -2 -2 -2 z m 0 2 22 0 0 16 -22 0 z m 0 0" fill="#000"/></g></g></g><g><g clip-path="url(#clipPath-499861779)"><g transform="translate(0,-1)"><!-- color: #518aeb --><path d="m 12 15 24 0 0 18 -24 0 z m 0 0" fill="#f9f9f9"/><path d="m 19 33 10 0 0 3 -10 0 z m 0 0" fill="#d8d8d8"/><path d="m 23.719 28.16 c -2.02 0.156 -3.574 1.848 -3.563 3.875 0 0.328 0.043 0.652 0.125 0.969 l 7.438 0 c 0.094 -0.316 0.145 -0.641 0.156 -0.969 0.008 -1.078 -0.438 -2.113 -1.23 -2.848 -0.789 -0.738 -1.848 -1.109 -2.926 -1.027 z m 0 0" fill="#f9f9f9"/><path d="m 23.781 29 c -1.57 0.113 -2.785 1.426 -2.781 3 c 0.004 0.34 0.07 0.68 0.188 1 l 5.625 0 c 0.117 -0.32 0.184 -0.66 0.188 -1 0.004 -0.836 -0.344 -1.633 -0.953 -2.203 -0.613 -0.57 -1.434 -0.859 -2.266 -0.797 z m 0 0" fill="#7fb7cd"/><path d="m 28 29 4.727 -0.129 c -0.969 -3.938 -4.484 -6.871 -8.719 -6.871 c -2.75 0 -5.176 1.254 -6.828 3.191 l 3.02 5.234 c 0.09 -0.559 0.289 -1.098 0.605 -1.57 0.316 -0.473 0.746 -0.875 1.273 -1.18 0.465 -0.266 0.953 -0.434 1.449 -0.496 0.5 -0.063 1.012 -0.02 1.488 0.105 0.48 0.129 0.93 0.344 1.328 0.645 c 0.328 0.246 1.418 0.719 1.66 1.07 z m 0 0" fill="#d84336"/><path d="m 26.438 28 c 0.441 0.355 0.777 0.801 1.031 1.313 0.254 0.512 0.406 1.078 0.406 1.688 0 0.535 -0.117 1.07 -0.313 1.531 -0.07 0.164 -0.156 0.316 -0.25 0.469 l 5.469 0 c 0.363 -1.672 0.25 -3.418 -0.313 -5 z m 0 0" fill="#e3a500"/><path d="m 17.781 24.531 c -2.281 2.188 -3.246 5.414 -2.563 8.469 l 5.5 0 c -0.188 -0.313 -0.344 -0.652 -0.438 -1 -0.129 -0.477 -0.188 -0.969 -0.125 -1.469 0.051 -0.406 0.223 -0.801 0.406 -1.188 z m 0 0" fill="#0f8e52"/><path d="m 23.719 27.16 c -2.02 0.156 -3.574 1.848 -3.563 3.875 -0.004 0.691 0.18 1.371 0.531 1.969 l 6.625 0 c 0.359 -0.594 0.555 -1.273 0.563 -1.969 0.008 -1.078 -0.438 -2.113 -1.23 -2.848 -0.789 -0.738 -1.848 -1.109 -2.926 -1.027 z m 0 0" fill="#f9f9f9"/><path d="m 23.781 28 c -1.57 0.113 -2.785 1.426 -2.781 3 c -0.004 0.734 0.262 1.449 0.75 2 l 4.469 0 c 0.5 -0.547 0.777 -1.258 0.781 -2 0.004 -0.836 -0.344 -1.633 -0.953 -2.203 -0.613 -0.57 -1.434 -0.859 -2.266 -0.797 z m 0 0" fill="#3e7fe7"/><path d="m 13 14 c -1.109 0 -2 0.891 -2 2 l 0 16 c 0 1.109 0.891 2 2 2 l 22 0 c 1.109 0 2 -0.891 2 -2 l 0 -16 c 0 -1.109 -0.891 -2 -2 -2 z m 0 2 22 0 0 16 -22 0 z m 0 0" fill="#d8d8d8"/></g></g></g><g><g transform="translate(0,-1004.3622)"><path d="m 1 1043.36 0 4 c 0 2.216 1.784 4 4 4 l 38 0 c 2.216 0 4 -1.784 4 -4 l 0 -4 c 0 2.216 -1.784 4 -4 4 l -38 0 c -2.216 0 -4 -1.784 -4 -4 z" opacity="0.1"/></g></g></svg>