<svg viewBox="0 0 48 48"><defs><linearGradient id="linearGradient3764" x1="1" x2="47" gradientUnits="userSpaceOnUse" gradientTransform="translate(-48.000001,0.00221467)"><stop stop-color="#f7b747" stop-opacity="1"/><stop offset="1" stop-color="#f8bd5a" stop-opacity="1"/></linearGradient><clipPath id="clipPath-912153145"><g transform="translate(0,-1004.3622)"><rect rx="4" y="1005.36" x="1" height="46" width="46" fill="#1890d0"/></g></clipPath><clipPath id="clipPath-925637851"><g transform="translate(0,-1004.3622)"><rect rx="4" y="1005.36" x="1" height="46" width="46" fill="#1890d0"/></g></clipPath></defs><g><path d="m 1 43 l 0 0.25 c 0 2.216 1.784 4 4 4 l 38 0 c 2.216 0 4 -1.784 4 -4 l 0 -0.25 c 0 2.216 -1.784 4 -4 4 l -38 0 c -2.216 0 -4 -1.784 -4 -4 z m 0 0.5 l 0 0.5 c 0 2.216 1.784 4 4 4 l 38 0 c 2.216 0 4 -1.784 4 -4 l 0 -0.5 c 0 2.216 -1.784 4 -4 4 l -38 0 c -2.216 0 -4 -1.784 -4 -4 z" opacity="0.02"/><path d="m 1 43.25 l 0 0.25 c 0 2.216 1.784 4 4 4 l 38 0 c 2.216 0 4 -1.784 4 -4 l 0 -0.25 c 0 2.216 -1.784 4 -4 4 l -38 0 c -2.216 0 -4 -1.784 -4 -4 z" opacity="0.05"/><path d="m 1 43 l 0 0.25 c 0 2.216 1.784 4 4 4 l 38 0 c 2.216 0 4 -1.784 4 -4 l 0 -0.25 c 0 2.216 -1.784 4 -4 4 l -38 0 c -2.216 0 -4 -1.784 -4 -4 z" opacity="0.1"/></g><g><rect width="46" height="46" x="-47" y="1" rx="4" transform="matrix(0,-1,1,0,0,0)" fill="url(#linearGradient3764)" fill-opacity="1"/></g><g><g clip-path="url(#clipPath-912153145)"><g opacity="0.1"><!-- color: #f8bd5a --><g><path d="m 23.672 8 c -7.578 0 -13.84 6.141 -14.617 14.07 c 0 0.023 0.004 0.051 0 0.07 c 0 0.008 0.004 0.016 0 0.023 c 0 0.023 0.004 0.047 0 0.07 c -0.082 1.145 -0.063 2.082 0 3.145 c 2.965 12.898 11.832 11.895 11.832 8.141 l -4.01 -6.922 c -0.871 -0.586 -1.766 0.418 -2.59 0.965 c -1.066 0.703 -1.156 0.809 -1.766 -0.801 c -0.719 -1.898 -1.082 -4.977 0 -7.504 c 2.246 -5.246 6.461 -8.176 11.152 -8.258 c 0.234 0 0.465 0 0.699 0 c 4.676 0.098 8.871 3.03 11.11 8.258 c 1.082 2.527 0.719 5.605 0 7.504 c -0.609 1.609 -0.699 1.504 -1.766 0.801 c -0.824 -0.547 -1.719 -1.551 -2.59 -0.965 l -4.01 6.922 c 0 3.754 8.867 4.758 11.832 -8.141 c 0.063 -1.063 0.082 -2 0 -3.145 c -0.004 -0.023 0 -0.047 0 -0.07 c -0.004 -0.008 0 -0.016 0 -0.023 c -0.004 -0.02 0 -0.047 0 -0.07 c -0.777 -7.934 -6.992 -14.07 -14.574 -14.07 c -0.699 0 0 0 -0.699 0 m 0 0" fill="#000"/></g></g></g></g><g><g clip-path="url(#clipPath-925637851)"><g transform="translate(0,-1)"><!-- color: #f8bd5a --><g><path d="m 23.672 8 c -7.578 0 -13.84 6.141 -14.617 14.07 c 0 0.023 0.004 0.051 0 0.07 c 0 0.008 0.004 0.016 0 0.023 c 0 0.023 0.004 0.047 0 0.07 c -0.082 1.145 -0.063 2.082 0 3.145 c 2.965 12.898 11.832 11.895 11.832 8.141 l -4.01 -6.922 c -0.871 -0.586 -1.766 0.418 -2.59 0.965 c -1.066 0.703 -1.156 0.809 -1.766 -0.801 c -0.719 -1.898 -1.082 -4.977 0 -7.504 c 2.246 -5.246 6.461 -8.176 11.152 -8.258 c 0.234 0 0.465 0 0.699 0 c 4.676 0.098 8.871 3.03 11.11 8.258 c 1.082 2.527 0.719 5.605 0 7.504 c -0.609 1.609 -0.699 1.504 -1.766 0.801 c -0.824 -0.547 -1.719 -1.551 -2.59 -0.965 l -4.01 6.922 c 0 3.754 8.867 4.758 11.832 -8.141 c 0.063 -1.063 0.082 -2 0 -3.145 c -0.004 -0.023 0 -0.047 0 -0.07 c -0.004 -0.008 0 -0.016 0 -0.023 c -0.004 -0.02 0 -0.047 0 -0.07 c -0.777 -7.934 -6.992 -14.07 -14.574 -14.07 c -0.699 0 0 0 -0.699 0 m 0 0" fill="#eaeaea"/></g></g></g></g><g><g transform="translate(0,-1004.3622)"><path d="m 1 1043.36 0 4 c 0 2.216 1.784 4 4 4 l 38 0 c 2.216 0 4 -1.784 4 -4 l 0 -4 c 0 2.216 -1.784 4 -4 4 l -38 0 c -2.216 0 -4 -1.784 -4 -4 z" opacity="0.1"/></g></g></svg>