<svg viewBox="0 0 48 48"><defs><linearGradient id="linearGradient3764" x1="1" x2="47" gradientUnits="userSpaceOnUse" gradientTransform="translate(-48.000001,0.00221467)"><stop stop-color="#6284a6" stop-opacity="1"/><stop offset="1" stop-color="#6f8dad" stop-opacity="1"/></linearGradient><clipPath id="clipPath-415558684"><g transform="translate(0,-1004.3622)"><rect rx="4" y="1005.36" x="1" height="46" width="46" fill="#1890d0"/></g></clipPath><clipPath id="clipPath-431398670"><g transform="translate(0,-1004.3622)"><rect rx="4" y="1005.36" x="1" height="46" width="46" fill="#1890d0"/></g></clipPath></defs><g><path d="m 1 43 l 0 0.25 c 0 2.216 1.784 4 4 4 l 38 0 c 2.216 0 4 -1.784 4 -4 l 0 -0.25 c 0 2.216 -1.784 4 -4 4 l -38 0 c -2.216 0 -4 -1.784 -4 -4 z m 0 0.5 l 0 0.5 c 0 2.216 1.784 4 4 4 l 38 0 c 2.216 0 4 -1.784 4 -4 l 0 -0.5 c 0 2.216 -1.784 4 -4 4 l -38 0 c -2.216 0 -4 -1.784 -4 -4 z" opacity="0.02"/><path d="m 1 43.25 l 0 0.25 c 0 2.216 1.784 4 4 4 l 38 0 c 2.216 0 4 -1.784 4 -4 l 0 -0.25 c 0 2.216 -1.784 4 -4 4 l -38 0 c -2.216 0 -4 -1.784 -4 -4 z" opacity="0.05"/><path d="m 1 43 l 0 0.25 c 0 2.216 1.784 4 4 4 l 38 0 c 2.216 0 4 -1.784 4 -4 l 0 -0.25 c 0 2.216 -1.784 4 -4 4 l -38 0 c -2.216 0 -4 -1.784 -4 -4 z" opacity="0.1"/></g><g><rect width="46" height="46" x="-47" y="1" rx="4" transform="matrix(0,-1,1,0,0,0)" fill="url(#linearGradient3764)" fill-opacity="1"/></g><g><g clip-path="url(#clipPath-415558684)"><g opacity="0.1"><!-- color: #6f8dad --><g><path d="m 22.676 33.926 l 1.793 0 c 0 0 0.543 -0.063 0.82 -0.379 c 0.254 -0.285 0.246 -0.828 0.246 -0.828 c 0 0 -0.035 -2.527 1.082 -2.902 c 1.102 -0.367 2.512 2.445 4.01 3.527 c 1.133 0.82 1.992 0.641 1.992 0.641 l 4.01 -0.059 c 0 0 2.094 -0.137 1.102 -1.871 c -0.082 -0.141 -0.578 -1.281 -2.98 -3.625 c -2.512 -2.449 -2.176 -2.055 0.852 -6.297 c 1.844 -2.582 2.578 -4.16 2.348 -4.836 c -0.219 -0.641 -1.574 -0.473 -1.574 -0.473 l -4.508 0.031 c 0 0 -0.336 -0.051 -0.582 0.105 c -0.246 0.152 -0.398 0.512 -0.398 0.512 c 0 0 -0.715 1.996 -1.668 3.699 c -2.01 3.586 -2.813 3.773 -3.141 3.551 c -0.762 -0.52 -0.57 -2.086 -0.57 -3.195 c 0 -3.477 0.5 -4.926 -0.977 -5.301 c -0.492 -0.125 -0.852 -0.207 -2.105 -0.223 c -1.609 -0.016 -2.973 0.008 -3.742 0.402 c -0.516 0.266 -0.91 0.855 -0.668 0.887 c 0.297 0.043 0.973 0.191 1.328 0.707 c 0.465 0.66 0.449 2.145 0.449 2.145 c 0 0 0.266 4.094 -0.621 4.602 c -0.609 0.348 -1.441 -0.363 -3.234 -3.617 c -0.918 -1.668 -1.609 -3.512 -1.609 -3.512 c 0 0 -0.133 -0.344 -0.371 -0.527 c -0.289 -0.223 -0.691 -0.293 -0.691 -0.293 l -4.289 0.027 c 0 0 -0.641 0.02 -0.879 0.313 c -0.211 0.262 -0.016 0.805 -0.016 0.805 c 0 0 3.355 8.258 7.156 12.418 c 3.484 3.816 7.438 3.566 7.438 3.566" fill-rule="evenodd" fill="#000"/></g></g></g></g><g><g clip-path="url(#clipPath-431398670)"><g transform="translate(0,-1)"><!-- color: #6f8dad --><g><path d="m 22.676 33.926 l 1.793 0 c 0 0 0.543 -0.063 0.82 -0.379 c 0.254 -0.285 0.246 -0.828 0.246 -0.828 c 0 0 -0.035 -2.527 1.082 -2.902 c 1.102 -0.367 2.512 2.445 4.01 3.527 c 1.133 0.82 1.992 0.641 1.992 0.641 l 4.01 -0.059 c 0 0 2.094 -0.137 1.102 -1.871 c -0.082 -0.141 -0.578 -1.281 -2.98 -3.625 c -2.512 -2.449 -2.176 -2.055 0.852 -6.297 c 1.844 -2.582 2.578 -4.16 2.348 -4.836 c -0.219 -0.641 -1.574 -0.473 -1.574 -0.473 l -4.508 0.031 c 0 0 -0.336 -0.051 -0.582 0.105 c -0.246 0.152 -0.398 0.512 -0.398 0.512 c 0 0 -0.715 1.996 -1.668 3.699 c -2.01 3.586 -2.813 3.773 -3.141 3.551 c -0.762 -0.52 -0.57 -2.086 -0.57 -3.195 c 0 -3.477 0.5 -4.926 -0.977 -5.301 c -0.492 -0.125 -0.852 -0.207 -2.105 -0.223 c -1.609 -0.016 -2.973 0.008 -3.742 0.402 c -0.516 0.266 -0.91 0.855 -0.668 0.887 c 0.297 0.043 0.973 0.191 1.328 0.707 c 0.465 0.66 0.449 2.145 0.449 2.145 c 0 0 0.266 4.094 -0.621 4.602 c -0.609 0.348 -1.441 -0.363 -3.234 -3.617 c -0.918 -1.668 -1.609 -3.512 -1.609 -3.512 c 0 0 -0.133 -0.344 -0.371 -0.527 c -0.289 -0.223 -0.691 -0.293 -0.691 -0.293 l -4.289 0.027 c 0 0 -0.641 0.02 -0.879 0.313 c -0.211 0.262 -0.016 0.805 -0.016 0.805 c 0 0 3.355 8.258 7.156 12.418 c 3.484 3.816 7.438 3.566 7.438 3.566" fill="#fff" fill-rule="evenodd"/></g></g></g></g><g><g transform="translate(0,-1004.3622)"><path d="m 1 1043.36 0 4 c 0 2.216 1.784 4 4 4 l 38 0 c 2.216 0 4 -1.784 4 -4 l 0 -4 c 0 2.216 -1.784 4 -4 4 l -38 0 c -2.216 0 -4 -1.784 -4 -4 z" opacity="0.1"/></g></g></svg>