<svg viewBox="0 0 48 48"><defs><linearGradient id="linearGradient3764" x1="1" x2="47" gradientUnits="userSpaceOnUse" gradientTransform="translate(-48.000001,0.00221467)"><stop stop-color="#006caa" stop-opacity="1"/><stop offset="1" stop-color="#007abe" stop-opacity="1"/></linearGradient><clipPath id="clipPath-734307822"><g transform="translate(0,-1004.3622)"><rect rx="4" y="1005.36" x="1" height="46" width="46" fill="#1890d0"/></g></clipPath><clipPath id="clipPath-746935682"><g transform="translate(0,-1004.3622)"><rect rx="4" y="1005.36" x="1" height="46" width="46" fill="#1890d0"/></g></clipPath></defs><g><path d="m 1 43 l 0 0.25 c 0 2.216 1.784 4 4 4 l 38 0 c 2.216 0 4 -1.784 4 -4 l 0 -0.25 c 0 2.216 -1.784 4 -4 4 l -38 0 c -2.216 0 -4 -1.784 -4 -4 z m 0 0.5 l 0 0.5 c 0 2.216 1.784 4 4 4 l 38 0 c 2.216 0 4 -1.784 4 -4 l 0 -0.5 c 0 2.216 -1.784 4 -4 4 l -38 0 c -2.216 0 -4 -1.784 -4 -4 z" opacity="0.02"/><path d="m 1 43.25 l 0 0.25 c 0 2.216 1.784 4 4 4 l 38 0 c 2.216 0 4 -1.784 4 -4 l 0 -0.25 c 0 2.216 -1.784 4 -4 4 l -38 0 c -2.216 0 -4 -1.784 -4 -4 z" opacity="0.05"/><path d="m 1 43 l 0 0.25 c 0 2.216 1.784 4 4 4 l 38 0 c 2.216 0 4 -1.784 4 -4 l 0 -0.25 c 0 2.216 -1.784 4 -4 4 l -38 0 c -2.216 0 -4 -1.784 -4 -4 z" opacity="0.1"/></g><g><rect width="46" height="46" x="-47" y="1" rx="4" transform="matrix(0,-1,1,0,0,0)" fill="url(#linearGradient3764)" fill-opacity="1"/></g><g><g clip-path="url(#clipPath-734307822)"><g opacity="0.1"><!-- color: #007abe --><g><path d="m 19 15 l -4 11 l 5 8 l 3 0 l 9 -11 l -4 -9 m -9 1" fill="#000"/><path d="m 19 11 l 0 3 l -5 0 l 0 21 l 20 0 l 0 -21 l -5 0 l 0 -3 m -2 4 l -1 8 l 5 0 l -10 11 l 1 -8 l -5 0 m 10 -11" fill="#000"/></g></g></g></g><g><g clip-path="url(#clipPath-746935682)"><g transform="translate(0,-1)"><!-- color: #007abe --><g><path d="m 19 15 l -4 11 l 5 8 l 3 0 l 9 -11 l -4 -9 m -9 1" fill="#ffe720"/><path d="m 19 11 l 0 3 l -5 0 l 0 21 l 20 0 l 0 -21 l -5 0 l 0 -3 m -2 4 l -1 8 l 5 0 l -10 11 l 1 -8 l -5 0 m 10 -11" fill="#7fc85b"/></g></g></g></g><g><g transform="translate(0,-1004.3622)"><path d="m 1 1043.36 0 4 c 0 2.216 1.784 4 4 4 l 38 0 c 2.216 0 4 -1.784 4 -4 l 0 -4 c 0 2.216 -1.784 4 -4 4 l -38 0 c -2.216 0 -4 -1.784 -4 -4 z" opacity="0.1"/></g></g></svg>