<svg viewBox="0 0 48 48"><defs><linearGradient id="linearGradient3764" y1="1" x2="0" y2="47" gradientUnits="userSpaceOnUse"><stop stop-color="#f9f9f9" stop-opacity="1"/><stop offset="1" stop-color="#efefef" stop-opacity="1"/></linearGradient><clipPath id="clipPath-603830332"><g transform="translate(0,-1004.3622)"><path d="m 24 1005.37 c -1.045 0 -2.023 0.287 -2.856 0.784 l -15.339 8.708 c -0.017 0.013 -0.035 0.013 -0.052 0.021 -1.852 1.051 -2.847 3 -2.746 4.968 l 0 17.02 c -0.056 1.013 0.175 2.049 0.729 2.993 0.532 0.903 1.288 1.602 2.161 2.061 l 15.246 8.653 c 0.832 0.497 1.811 0.784 2.856 0.784 1.045 0 2.023 -0.287 2.856 -0.784 l 15.246 -8.653 c 0.873 -0.46 1.629 -1.158 2.161 -2.061 0.554 -0.944 0.785 -1.981 0.729 -2.993 l 0 -17.01 c 0.056 -1.012 -0.175 -2.052 -0.729 -2.993 -0.532 -0.906 -1.288 -1.604 -2.161 -2.064 l -15.246 -8.653 c -0.832 -0.497 -1.811 -0.784 -2.856 -0.784 z" fill="#1890d0"/></g></clipPath><clipPath id="clipPath-613218356"><g transform="translate(0,-1004.3622)"><path d="m 24 1005.37 c -1.045 0 -2.023 0.287 -2.856 0.784 l -15.339 8.708 c -0.017 0.013 -0.035 0.013 -0.052 0.021 -1.852 1.051 -2.847 3 -2.746 4.968 l 0 17.02 c -0.056 1.013 0.175 2.049 0.729 2.993 0.532 0.903 1.288 1.602 2.161 2.061 l 15.246 8.653 c 0.832 0.497 1.811 0.784 2.856 0.784 1.045 0 2.023 -0.287 2.856 -0.784 l 15.246 -8.653 c 0.873 -0.46 1.629 -1.158 2.161 -2.061 0.554 -0.944 0.785 -1.981 0.729 -2.993 l 0 -17.01 c 0.056 -1.012 -0.175 -2.052 -0.729 -2.993 -0.532 -0.906 -1.288 -1.604 -2.161 -2.064 l -15.246 -8.653 c -0.832 -0.497 -1.811 -0.784 -2.856 -0.784 z" fill="#1890d0"/></g></clipPath><clipPath><rect rx="4" y="1006.36" x="2" height="44" width="44" fill="none"/></clipPath><clipPath><rect rx="4" y="1006.36" x="2" height="44" width="44" fill="none"/></clipPath><clipPath><rect rx="4" y="1006.36" x="2" height="44" width="44" fill="none"/></clipPath><clipPath><rect rx="4" y="1006.36" x="2" height="44" width="44" fill="none"/></clipPath><clipPath><rect rx="4" y="1006.36" x="2" height="44" width="44" fill="none"/></clipPath><clipPath><rect rx="4" y="1006.36" x="2" height="44" width="44" fill="none"/></clipPath><filter id="filter-584595554"><feGaussianBlur stdDeviation="0.35"/></filter><clipPath><rect rx="4" y="1006.36" x="2" height="44" width="44" fill="#000"/></clipPath><clipPath><rect rx="4" y="1006.36" x="2" height="44" width="44" fill="#000"/></clipPath><clipPath><rect rx="4" y="1006.36" x="2" height="44" width="44" fill="#000"/></clipPath><clipPath><rect rx="4" y="1006.36" x="2" height="44" width="44" fill="#000"/></clipPath><clipPath><rect rx="4" y="1006.36" x="2" height="44" width="44" fill="#000"/></clipPath><clipPath><rect rx="4" y="1006.36" x="2" height="44" width="44" fill="#000"/></clipPath></defs><g><g transform="translate(0,-1004.3622)"><path d="m 45 1037.36 c 0.056 1.013 -0.196 2.056 -0.75 3 -0.532 0.903 -1.283 1.603 -2.156 2.063 l -15.25 8.656 c -0.832 0.497 -1.799 0.781 -2.844 0.781 -1.045 0 -2.01 -0.284 -2.844 -0.781 l -15.25 -8.656 c -0.873 -0.46 -1.625 -1.159 -2.156 -2.063 -0.416 -0.708 -0.677 -1.485 -0.75 -2.25 -0.004 0.932 0.242 1.884 0.75 2.75 0.532 0.903 1.283 1.603 2.156 2.063 l 15.25 8.656 c 0.832 0.497 1.799 0.781 2.844 0.781 1.045 0 2.01 -0.284 2.844 -0.781 l 15.25 -8.656 c 0.873 -0.46 1.625 -1.159 2.156 -2.063 0.554 -0.944 0.806 -1.987 0.75 -3 l 0 -0.5 z" opacity="0.05"/><path d="m 45 1036.86 c 0.015 0.263 -0.004 0.516 -0.031 0.781 -0.036 0.844 -0.259 1.685 -0.719 2.469 -0.532 0.903 -1.283 1.603 -2.156 2.063 l -15.25 8.656 c -0.832 0.497 -1.799 0.781 -2.844 0.781 -1.045 0 -2.01 -0.284 -2.844 -0.781 l -15.25 -8.656 c -0.873 -0.46 -1.625 -1.159 -2.156 -2.063 -0.414 -0.705 -0.621 -1.46 -0.688 -2.219 -0.014 -0.092 -0.054 -0.189 -0.063 -0.281 -0.004 0.932 0.242 1.884 0.75 2.75 0.532 0.903 1.283 1.603 2.156 2.063 l 15.25 8.656 c 0.832 0.497 1.799 0.781 2.844 0.781 1.045 0 2.01 -0.284 2.844 -0.781 l 15.25 -8.656 c 0.873 -0.46 1.625 -1.159 2.156 -2.063 0.554 -0.944 0.806 -1.987 0.75 -3 l 0 -0.5 z m -41.813 1.625 c 0.057 0.219 0.132 0.442 0.219 0.656 -0.088 -0.216 -0.16 -0.436 -0.219 -0.656 z m 0.219 0.656 c 0.099 0.243 0.206 0.484 0.344 0.719 -0.139 -0.236 -0.243 -0.472 -0.344 -0.719 z m 41.41 -0.656 c -0.059 0.221 -0.131 0.441 -0.219 0.656 0.087 -0.215 0.161 -0.437 0.219 -0.656 z m -0.219 0.656 c -0.101 0.246 -0.205 0.483 -0.344 0.719 0.138 -0.235 0.245 -0.476 0.344 -0.719 z" opacity="0.1"/><path d="m 3.03 1037.64 c 0.035 0.844 0.259 1.685 0.719 2.469 0.532 0.903 1.283 1.603 2.156 2.063 l 15.25 8.656 c 0.832 0.497 1.799 0.781 2.844 0.781 1.045 0 2.01 -0.284 2.844 -0.781 l 15.25 -8.656 c 0.873 -0.46 1.625 -1.159 2.156 -2.063 0.46 -0.784 0.683 -1.624 0.719 -2.469 -0.067 0.763 -0.303 1.511 -0.719 2.219 -0.532 0.903 -1.283 1.603 -2.156 2.063 l -15.25 8.656 c -0.832 0.497 -1.799 0.781 -2.844 0.781 -1.045 0 -2.01 -0.284 -2.844 -0.781 l -15.25 -8.656 c -0.873 -0.46 -1.625 -1.159 -2.156 -2.063 -0.416 -0.708 -0.651 -1.456 -0.719 -2.219 z" opacity="0.2"/></g></g><g><path d="m 24 46.996 c 1.045 0 2.023 -0.287 2.856 -0.784 l 15.339 -8.708 c 0.017 -0.013 0.035 -0.013 0.052 -0.021 1.852 -1.051 2.847 -3 2.746 -4.968 l 0 -17.02 c 0.056 -1.013 -0.175 -2.049 -0.729 -2.993 -0.532 -0.903 -1.288 -1.602 -2.161 -2.061 l -15.246 -8.653 c -0.832 -0.497 -1.811 -0.784 -2.856 -0.784 -1.045 0 -2.023 0.287 -2.856 0.784 l -15.246 8.653 c -0.873 0.46 -1.629 1.158 -2.161 2.061 -0.554 0.944 -0.785 1.981 -0.729 2.993 l 0 17.01 c -0.056 1.012 0.175 2.051 0.729 2.993 0.532 0.906 1.288 1.604 2.161 2.064 l 15.246 8.653 c 0.832 0.497 1.811 0.785 2.856 0.785 z" fill="url(#linearGradient3764)" fill-opacity="1"/></g><g><g clip-path="url(#clipPath-603830332)"><g opacity="0.25"><g transform="translate(0,1)"><g filter="url(#filter-584595554)"><!-- color: #f9f9f9 --><path d="m 32 24 c 0 4.418 -3.582 8 -8 8 -4.418 0 -8 -3.582 -8 -8 0 -4.418 3.582 -8 8 -8 4.418 0 8 3.582 8 8 z" fill="#000"/><path d="m 32.525 24 a 9 9 0 1 1 -18 0 9 9 0 1 1 18 0 z" transform="matrix(1.1075372,0,0,1.1075372,-2.0543223,-2.5808366)" fill="#000"/><path d="m 39 23 a 8 8 0 1 1 -16 0 8 8 0 1 1 16 0 z" transform="matrix(0.9967835,0,0,0.9967835,-6.9002879,1.0740366)" fill="#000"/><path d="m 31.36 19.04 16.64 -0.037 c 0 -6 0 -13 0 -19 -15.333 0 -30.667 0 -46 0 l 13.14 22.662 c 0.202 -1.3 0.67 -2.553 1.406 -3.656 0.736 -1.103 1.741 -2.041 2.969 -2.75 1.076 -0.621 2.215 -1.012 3.375 -1.156 1.16 -0.144 2.356 -0.048 3.469 0.25 1.112 0.298 2.161 0.795 3.094 1.5 0.759 0.573 1.345 1.366 1.906 2.187 z" fill="#000"/><path d="m 24.675 32.897 -8.675 15.1 c 9 0 29 0 32 0 0 -4 0 -25 0 -31 l -18.444 0 c 1.025 0.825 1.965 1.895 2.552 3.085 0.587 1.189 0.897 2.528 0.897 3.946 0 1.243 -0.231 2.424 -0.686 3.501 -0.455 1.077 -1.137 2.065 -1.951 2.879 -0.814 0.814 -1.769 1.474 -2.846 1.929 -0.876 0.371 -1.856 0.482 -2.848 0.557 z" fill="#000"/><path d="m 16.01 20.18 -12.01 -20.18 c -2 0 -3 0 -4 0 c 0 8 0 41 0 48 7 0 12 0 18 0 l 9.263 -15.589 c -1.227 0.475 -2.546 0.696 -3.87 0.61 -1.324 -0.086 -2.638 -0.487 -3.866 -1.196 -1.076 -0.621 -1.984 -1.412 -2.689 -2.345 -0.705 -0.933 -1.22 -2.02 -1.518 -3.129 -0.298 -1.112 -0.392 -2.269 -0.248 -3.429 0.117 -0.944 0.51 -1.848 0.941 -2.745 z" fill="#000"/><path d="m 33 24 a 9 9 0 0 1 -18 0 9 9 0 1 1 18 0 z" fill="#000"/><path d="m 31 24 a 7 7 0 0 1 -14 0 7 7 0 1 1 14 0 z" fill="#000"/></g></g></g></g></g><g><g clip-path="url(#clipPath-613218356)"><!-- color: #f9f9f9 --><path d="m 32 24 c 0 4.418 -3.582 8 -8 8 -4.418 0 -8 -3.582 -8 -8 0 -4.418 3.582 -8 8 -8 4.418 0 8 3.582 8 8 z" fill="#219eca"/><path d="m 32.525 24 a 9 9 0 1 1 -18 0 9 9 0 1 1 18 0 z" transform="matrix(1.1075372,0,0,1.1075372,-2.0543223,-2.5808366)" fill="#f9f9f9"/><path d="m 39 23 a 8 8 0 1 1 -16 0 8 8 0 1 1 16 0 z" transform="matrix(0.9967835,0,0,0.9967835,-6.9002879,1.0740366)" fill="#23a0cb"/><path d="m 31.36 19.04 16.64 -0.037 c 0 -6 0 -13 0 -19 -15.333 0 -30.667 0 -46 0 l 13.14 22.662 c 0.202 -1.3 0.67 -2.553 1.406 -3.656 0.736 -1.103 1.741 -2.041 2.969 -2.75 1.076 -0.621 2.215 -1.012 3.375 -1.156 1.16 -0.144 2.356 -0.048 3.469 0.25 1.112 0.298 2.161 0.795 3.094 1.5 0.759 0.573 1.345 1.366 1.906 2.187 z" fill="#db4b2a"/><path d="m 24.675 32.897 -8.675 15.1 c 9 0 29 0 32 0 0 -4 0 -25 0 -31 l -18.444 0 c 1.025 0.825 1.965 1.895 2.552 3.085 0.587 1.189 0.897 2.528 0.897 3.946 0 1.243 -0.231 2.424 -0.686 3.501 -0.455 1.077 -1.137 2.065 -1.951 2.879 -0.814 0.814 -1.769 1.474 -2.846 1.929 -0.876 0.371 -1.856 0.482 -2.848 0.557 z" fill="#e2c63f"/><path d="m 16.01 20.18 -12.01 -20.18 c -2 0 -3 0 -4 0 c 0 8 0 41 0 48 7 0 12 0 18 0 l 9.263 -15.589 c -1.227 0.475 -2.546 0.696 -3.87 0.61 -1.324 -0.086 -2.638 -0.487 -3.866 -1.196 -1.076 -0.621 -1.984 -1.412 -2.689 -2.345 -0.705 -0.933 -1.22 -2.02 -1.518 -3.129 -0.298 -1.112 -0.392 -2.269 -0.248 -3.429 0.117 -0.944 0.51 -1.848 0.941 -2.745 z" fill="#65bd69"/><path d="m 33 24 a 9 9 0 0 1 -18 0 9 9 0 1 1 18 0 z" fill="#f9f9f9"/><path d="m 31 24 a 7 7 0 0 1 -14 0 7 7 0 1 1 14 0 z" fill="#23a0cb"/></g></g><g><path d="m 24 1 c -1.045 0 -2.01 0.284 -2.844 0.781 l -15.344 8.719 c -0.017 0.013 -0.045 0.023 -0.063 0.031 c -1.852 1.051 -2.851 3 -2.75 4.969 l 0 1 c -0.101 -1.966 0.898 -3.918 2.75 -4.969 c 0.017 -0.008 0.045 -0.018 0.063 -0.031 l 15.344 -8.719 c 0.832 -0.497 1.799 -0.781 2.844 -0.781 c 1.045 0 2.01 0.284 2.844 0.781 l 15.25 8.656 c 0.873 0.46 1.625 1.156 2.156 2.063 c 0.554 0.942 0.806 1.988 0.75 3 l 0 -1 c 0.056 -1.012 -0.196 -2.058 -0.75 -3 c -0.532 -0.906 -1.283 -1.603 -2.156 -2.063 l -15.25 -8.656 c -0.832 -0.497 -1.799 -0.781 -2.844 -0.781 z" opacity="0.2" fill="#fff"/></g></svg>