<svg viewBox="0 0 48 48"><defs><linearGradient id="linearGradient3764" x1="1" x2="47" gradientUnits="userSpaceOnUse" gradientTransform="translate(-48.000001,0.00221467)"><stop stop-color="#e35635" stop-opacity="1"/><stop offset="1" stop-color="#e56447" stop-opacity="1"/></linearGradient><clipPath id="clipPath-805409124"><g transform="translate(0,-1004.3622)"><rect rx="4" y="1005.36" x="1" height="46" width="46" fill="#1890d0"/></g></clipPath><clipPath id="clipPath-819014086"><g transform="translate(0,-1004.3622)"><rect rx="4" y="1005.36" x="1" height="46" width="46" fill="#1890d0"/></g></clipPath><clipPath><rect width="48" height="48"/></clipPath><clipPath><rect width="48" height="48"/></clipPath></defs><g><path d="m 1 43 l 0 0.25 c 0 2.216 1.784 4 4 4 l 38 0 c 2.216 0 4 -1.784 4 -4 l 0 -0.25 c 0 2.216 -1.784 4 -4 4 l -38 0 c -2.216 0 -4 -1.784 -4 -4 z m 0 0.5 l 0 0.5 c 0 2.216 1.784 4 4 4 l 38 0 c 2.216 0 4 -1.784 4 -4 l 0 -0.5 c 0 2.216 -1.784 4 -4 4 l -38 0 c -2.216 0 -4 -1.784 -4 -4 z" opacity="0.02"/><path d="m 1 43.25 l 0 0.25 c 0 2.216 1.784 4 4 4 l 38 0 c 2.216 0 4 -1.784 4 -4 l 0 -0.25 c 0 2.216 -1.784 4 -4 4 l -38 0 c -2.216 0 -4 -1.784 -4 -4 z" opacity="0.05"/><path d="m 1 43 l 0 0.25 c 0 2.216 1.784 4 4 4 l 38 0 c 2.216 0 4 -1.784 4 -4 l 0 -0.25 c 0 2.216 -1.784 4 -4 4 l -38 0 c -2.216 0 -4 -1.784 -4 -4 z" opacity="0.1"/></g><g><rect width="46" height="46" x="-47" y="1" rx="4" transform="matrix(0,-1,1,0,0,0)" fill="url(#linearGradient3764)" fill-opacity="1"/></g><g><g clip-path="url(#clipPath-805409124)"><g opacity="0.1"><!-- color: #e56447 --><path d="m 18.332 36.398 0.332 0 c 0.313 0 0.547 -0.063 0.703 -0.184 0.152 -0.125 0.23 -0.305 0.23 -0.543 0 -0.234 -0.066 -0.41 -0.195 -0.527 -0.129 -0.113 -0.332 -0.168 -0.609 -0.168 l -0.461 0 0 1.422 m 2.293 -0.762 c 0 0.516 -0.164 0.91 -0.484 1.184 -0.324 0.273 -0.781 0.41 -1.375 0.41 l -0.434 0 0 1.703 -1.016 0 0 -4.789 1.527 0 c 0.582 0 1.023 0.125 1.324 0.375 0.305 0.25 0.457 0.621 0.457 1.117" fill="#000"/><path d="m 22.551 36.27 0.328 0 c 0.32 0 0.559 -0.055 0.711 -0.16 0.152 -0.105 0.23 -0.273 0.23 -0.504 0 -0.227 -0.078 -0.391 -0.238 -0.484 -0.152 -0.098 -0.395 -0.145 -0.723 -0.145 l -0.309 0 0 1.293 m 0 0.828 0 1.836 -1.016 0 0 -4.789 1.395 0 c 0.652 0 1.133 0.117 1.445 0.355 0.313 0.238 0.469 0.598 0.469 1.078 0 0.281 -0.074 0.535 -0.23 0.754 -0.156 0.219 -0.375 0.391 -0.66 0.516 0.723 1.078 1.191 1.773 1.41 2.086 l -1.129 0 -1.141 -1.836 -0.543 0" fill="#000"/><path d="m 30.32 36.531 c 0 0.793 -0.199 1.402 -0.59 1.828 c -0.395 0.426 -0.957 0.641 -1.691 0.641 c -0.734 0 -1.301 -0.215 -1.691 -0.641 -0.395 -0.426 -0.59 -1.035 -0.59 -1.832 0 -0.801 0.195 -1.406 0.59 -1.828 0.395 -0.422 0.961 -0.633 1.695 -0.633 0.738 0 1.301 0.215 1.688 0.637 0.391 0.426 0.59 1.035 0.59 1.828 m -3.5 0 c 0 0.535 0.102 0.941 0.305 1.211 0.203 0.27 0.508 0.406 0.914 0.406 0.809 0 1.215 -0.539 1.215 -1.617 0 -1.078 -0.402 -1.617 -1.211 -1.617 -0.402 0 -0.707 0.137 -0.914 0.41 -0.203 0.27 -0.309 0.672 -0.309 1.207" fill="#000"/><path d="m 25.84 10 c -2.172 0.109 -4.602 -0.102 -6.418 1.324 -2.977 2.18 -2.926 7.219 0.082 9.352 2.105 1.645 4.828 2.297 6.871 4.04 0.633 0.977 0.523 2.43 -0.434 3.164 -2.129 1.051 -5.059 0.488 -6.922 -0.609 -1.188 0.043 -1.617 1.52 -2.02 2.41 0.09 1.078 1.359 1.297 2.188 1.637 2.301 0.793 4.852 0.918 7.203 0.258 2.488 -1.117 4.742 -3.688 4.602 -6.117 0.047 -1.254 -0.594 -2.344 -1.375 -3.273 -0.949 -1.453 -2.582 -2.191 -4.07 -2.965 -1.23 -0.633 -2.527 -1.195 -3.598 -2.074 -1.105 -1.215 -0.258 -3.527 1.426 -3.637 1.152 -0.207 2.32 0.027 3.441 0.285 0.844 0.711 2.383 0.59 2.59 -0.625 0.805 -0.738 -0.129 -1.445 -0.797 -1.785 -1.063 -0.449 -2.254 -0.273 -3.375 -0.305 -1.254 0.074 -2.578 0.441 -3.445 1.395 -0.063 0.887 -1.445 2.305 -2.023 1.047 c -0.219 -1.289 1.285 -1.816 2.285 -2.082 1.281 -0.438 2.547 -0.91 3.789 -1.438 z m 0 0" fill="#000"/></g></g></g><g><g clip-path="url(#clipPath-819014086)"><g transform="translate(0,-1)"><!-- color: #e56447 --><path d="m 18.332 36.398 0.332 0 c 0.313 0 0.547 -0.063 0.703 -0.184 0.152 -0.125 0.23 -0.305 0.23 -0.543 0 -0.234 -0.066 -0.41 -0.195 -0.527 -0.129 -0.113 -0.332 -0.168 -0.609 -0.168 l -0.461 0 0 1.422 m 2.293 -0.762 c 0 0.516 -0.164 0.91 -0.484 1.184 -0.324 0.273 -0.781 0.41 -1.375 0.41 l -0.434 0 0 1.703 -1.016 0 0 -4.789 1.527 0 c 0.582 0 1.023 0.125 1.324 0.375 0.305 0.25 0.457 0.621 0.457 1.117" fill="#fff"/><path d="m 22.551 36.27 0.328 0 c 0.32 0 0.559 -0.055 0.711 -0.16 0.152 -0.105 0.23 -0.273 0.23 -0.504 0 -0.227 -0.078 -0.391 -0.238 -0.484 -0.152 -0.098 -0.395 -0.145 -0.723 -0.145 l -0.309 0 0 1.293 m 0 0.828 0 1.836 -1.016 0 0 -4.789 1.395 0 c 0.652 0 1.133 0.117 1.445 0.355 0.313 0.238 0.469 0.598 0.469 1.078 0 0.281 -0.074 0.535 -0.23 0.754 -0.156 0.219 -0.375 0.391 -0.66 0.516 0.723 1.078 1.191 1.773 1.41 2.086 l -1.129 0 -1.141 -1.836 -0.543 0" fill="#fff"/><path d="m 30.32 36.531 c 0 0.793 -0.199 1.402 -0.59 1.828 c -0.395 0.426 -0.957 0.641 -1.691 0.641 c -0.734 0 -1.301 -0.215 -1.691 -0.641 -0.395 -0.426 -0.59 -1.035 -0.59 -1.832 0 -0.801 0.195 -1.406 0.59 -1.828 0.395 -0.422 0.961 -0.633 1.695 -0.633 0.738 0 1.301 0.215 1.688 0.637 0.391 0.426 0.59 1.035 0.59 1.828 m -3.5 0 c 0 0.535 0.102 0.941 0.305 1.211 0.203 0.27 0.508 0.406 0.914 0.406 0.809 0 1.215 -0.539 1.215 -1.617 0 -1.078 -0.402 -1.617 -1.211 -1.617 -0.402 0 -0.707 0.137 -0.914 0.41 -0.203 0.27 -0.309 0.672 -0.309 1.207" fill="#fff"/><path d="m 25.84 10 c -2.172 0.109 -4.602 -0.102 -6.418 1.324 -2.977 2.18 -2.926 7.219 0.082 9.352 2.105 1.645 4.828 2.297 6.871 4.04 0.633 0.977 0.523 2.43 -0.434 3.164 -2.129 1.051 -5.059 0.488 -6.922 -0.609 -1.188 0.043 -1.617 1.52 -2.02 2.41 0.09 1.078 1.359 1.297 2.188 1.637 2.301 0.793 4.852 0.918 7.203 0.258 2.488 -1.117 4.742 -3.688 4.602 -6.117 0.047 -1.254 -0.594 -2.344 -1.375 -3.273 -0.949 -1.453 -2.582 -2.191 -4.07 -2.965 -1.23 -0.633 -2.527 -1.195 -3.598 -2.074 -1.105 -1.215 -0.258 -3.527 1.426 -3.637 1.152 -0.207 2.32 0.027 3.441 0.285 0.844 0.711 2.383 0.59 2.59 -0.625 0.805 -0.738 -0.129 -1.445 -0.797 -1.785 -1.063 -0.449 -2.254 -0.273 -3.375 -0.305 -1.254 0.074 -2.578 0.441 -3.445 1.395 -0.063 0.887 -1.445 2.305 -2.023 1.047 c -0.219 -1.289 1.285 -1.816 2.285 -2.082 1.281 -0.438 2.547 -0.91 3.789 -1.438 z m 0 0" fill="#fff"/></g></g></g><g><g transform="translate(0,-1004.3622)"><path d="m 1 1043.36 0 4 c 0 2.216 1.784 4 4 4 l 38 0 c 2.216 0 4 -1.784 4 -4 l 0 -4 c 0 2.216 -1.784 4 -4 4 l -38 0 c -2.216 0 -4 -1.784 -4 -4 z" opacity="0.1"/></g></g></svg>