<svg viewBox="0 0 48 48" xmlns:xlink="http://www.w3.org/1999/xlink"><defs><linearGradient id="linearGradient3764" x1="1" x2="47" gradientUnits="userSpaceOnUse" gradientTransform="translate(-48.000001,0.00221467)"><stop stop-color="#c70101" stop-opacity="1"/><stop offset="1" stop-color="#db0103" stop-opacity="1"/></linearGradient><clipPath id="clipPath-648297375"><g transform="translate(0,-1004.3622)"><rect rx="4" y="1005.36" x="1" height="46" width="46" fill="#1890d0"/></g></clipPath><clipPath id="clipPath-660987584"><g transform="translate(0,-1004.3622)"><rect rx="4" y="1005.36" x="1" height="46" width="46" fill="#1890d0"/></g></clipPath></defs><g><path d="m 1 43 l 0 0.25 c 0 2.216 1.784 4 4 4 l 38 0 c 2.216 0 4 -1.784 4 -4 l 0 -0.25 c 0 2.216 -1.784 4 -4 4 l -38 0 c -2.216 0 -4 -1.784 -4 -4 z m 0 0.5 l 0 0.5 c 0 2.216 1.784 4 4 4 l 38 0 c 2.216 0 4 -1.784 4 -4 l 0 -0.5 c 0 2.216 -1.784 4 -4 4 l -38 0 c -2.216 0 -4 -1.784 -4 -4 z" opacity="0.02"/><path d="m 1 43.25 l 0 0.25 c 0 2.216 1.784 4 4 4 l 38 0 c 2.216 0 4 -1.784 4 -4 l 0 -0.25 c 0 2.216 -1.784 4 -4 4 l -38 0 c -2.216 0 -4 -1.784 -4 -4 z" opacity="0.05"/><path d="m 1 43 l 0 0.25 c 0 2.216 1.784 4 4 4 l 38 0 c 2.216 0 4 -1.784 4 -4 l 0 -0.25 c 0 2.216 -1.784 4 -4 4 l -38 0 c -2.216 0 -4 -1.784 -4 -4 z" opacity="0.1"/></g><g><rect width="46" height="46" x="-47" y="1" rx="4" transform="matrix(0,-1,1,0,0,0)" fill="url(#linearGradient3764)" fill-opacity="1"/></g><g><g clip-path="url(#clipPath-648297375)"><g opacity="0.1"><!-- color: #db0103 --><g><path d="m 24.25 11 l 0 0.449 c 0 0 0 0.793 0 1.484 c -0.766 -0.766 -1.934 -1.934 -1.934 -1.934 l -5.316 0 l 0.004 23.816 l 3.063 2.184 l 3.195 -0.359 c 0 0 0.012 -1.258 0.02 -2.113 c 1.051 0.777 2.488 1.84 2.488 1.84 l 5.23 -0.48 l 0 -22.434 l -2.84 -2.449 m -3.91 -0.004" id="SVGCleanerId_0"/><path d="m 25.12 29.684 l -0.176 0.02 l -3.055 -18.06 l -4.07 -0.004 l 0 22.672 c 0 0 0.809 -0.105 2.527 -0.281 l -0.176 -17.234 l 0.176 -0.016 l 2.906 16.98 c 0 0 0.996 -0.105 4.375 -0.41 l 0 -21.711 l -2.598 0 m 0.09 18.05" fill="#000"/></g></g></g></g><g><g clip-path="url(#clipPath-660987584)"><g transform="translate(0,-1)"><!-- color: #db0103 --><g><use xlink:href="#SVGCleanerId_0"/><path d="m 25.12 29.684 l -0.176 0.02 l -3.055 -18.06 l -4.07 -0.004 l 0 22.672 c 0 0 0.809 -0.105 2.527 -0.281 l -0.176 -17.234 l 0.176 -0.016 l 2.906 16.98 c 0 0 0.996 -0.105 4.375 -0.41 l 0 -21.711 l -2.598 0 m 0.09 18.05" fill="#fff"/></g></g></g></g><g><g transform="translate(0,-1004.3622)"><path d="m 1 1043.36 0 4 c 0 2.216 1.784 4 4 4 l 38 0 c 2.216 0 4 -1.784 4 -4 l 0 -4 c 0 2.216 -1.784 4 -4 4 l -38 0 c -2.216 0 -4 -1.784 -4 -4 z" opacity="0.1"/></g></g></svg>