<svg viewBox="0 0 48 48"><defs><linearGradient id="linearGradient3764" y1="1" x2="0" y2="47" gradientUnits="userSpaceOnUse"><stop stop-color="#d7d7d7" stop-opacity="1"/><stop offset="1" stop-color="#cdcdcd" stop-opacity="1"/></linearGradient><clipPath id="clipPath-287282462"><g transform="translate(0,-1004.3622)"><path d="m 24 1005.37 c -1.045 0 -2.023 0.287 -2.856 0.784 l -15.339 8.708 c -0.017 0.013 -0.035 0.013 -0.052 0.021 -1.852 1.051 -2.847 3 -2.746 4.968 l 0 17.02 c -0.056 1.013 0.175 2.049 0.729 2.993 0.532 0.903 1.288 1.602 2.161 2.061 l 15.246 8.653 c 0.832 0.497 1.811 0.784 2.856 0.784 1.045 0 2.023 -0.287 2.856 -0.784 l 15.246 -8.653 c 0.873 -0.46 1.629 -1.158 2.161 -2.061 0.554 -0.944 0.785 -1.981 0.729 -2.993 l 0 -17.01 c 0.056 -1.012 -0.175 -2.052 -0.729 -2.993 -0.532 -0.906 -1.288 -1.604 -2.161 -2.064 l -15.246 -8.653 c -0.832 -0.497 -1.811 -0.784 -2.856 -0.784 z" fill="#1890d0"/></g></clipPath><clipPath id="clipPath-295932078"><g transform="translate(0,-1004.3622)"><path d="m 24 1005.37 c -1.045 0 -2.023 0.287 -2.856 0.784 l -15.339 8.708 c -0.017 0.013 -0.035 0.013 -0.052 0.021 -1.852 1.051 -2.847 3 -2.746 4.968 l 0 17.02 c -0.056 1.013 0.175 2.049 0.729 2.993 0.532 0.903 1.288 1.602 2.161 2.061 l 15.246 8.653 c 0.832 0.497 1.811 0.784 2.856 0.784 1.045 0 2.023 -0.287 2.856 -0.784 l 15.246 -8.653 c 0.873 -0.46 1.629 -1.158 2.161 -2.061 0.554 -0.944 0.785 -1.981 0.729 -2.993 l 0 -17.01 c 0.056 -1.012 -0.175 -2.052 -0.729 -2.993 -0.532 -0.906 -1.288 -1.604 -2.161 -2.064 l -15.246 -8.653 c -0.832 -0.497 -1.811 -0.784 -2.856 -0.784 z" fill="#1890d0"/></g></clipPath><filter id="filter-269209666"><feGaussianBlur stdDeviation="0.35"/></filter></defs><g><g transform="translate(0,-1004.3622)"><path d="m 45 1037.36 c 0.056 1.013 -0.196 2.056 -0.75 3 -0.532 0.903 -1.283 1.603 -2.156 2.063 l -15.25 8.656 c -0.832 0.497 -1.799 0.781 -2.844 0.781 -1.045 0 -2.01 -0.284 -2.844 -0.781 l -15.25 -8.656 c -0.873 -0.46 -1.625 -1.159 -2.156 -2.063 -0.416 -0.708 -0.677 -1.485 -0.75 -2.25 -0.004 0.932 0.242 1.884 0.75 2.75 0.532 0.903 1.283 1.603 2.156 2.063 l 15.25 8.656 c 0.832 0.497 1.799 0.781 2.844 0.781 1.045 0 2.01 -0.284 2.844 -0.781 l 15.25 -8.656 c 0.873 -0.46 1.625 -1.159 2.156 -2.063 0.554 -0.944 0.806 -1.987 0.75 -3 l 0 -0.5 z" opacity="0.05"/><path d="m 45 1036.86 c 0.015 0.263 -0.004 0.516 -0.031 0.781 -0.036 0.844 -0.259 1.685 -0.719 2.469 -0.532 0.903 -1.283 1.603 -2.156 2.063 l -15.25 8.656 c -0.832 0.497 -1.799 0.781 -2.844 0.781 -1.045 0 -2.01 -0.284 -2.844 -0.781 l -15.25 -8.656 c -0.873 -0.46 -1.625 -1.159 -2.156 -2.063 -0.414 -0.705 -0.621 -1.46 -0.688 -2.219 -0.014 -0.092 -0.054 -0.189 -0.063 -0.281 -0.004 0.932 0.242 1.884 0.75 2.75 0.532 0.903 1.283 1.603 2.156 2.063 l 15.25 8.656 c 0.832 0.497 1.799 0.781 2.844 0.781 1.045 0 2.01 -0.284 2.844 -0.781 l 15.25 -8.656 c 0.873 -0.46 1.625 -1.159 2.156 -2.063 0.554 -0.944 0.806 -1.987 0.75 -3 l 0 -0.5 z m -41.813 1.625 c 0.057 0.219 0.132 0.442 0.219 0.656 -0.088 -0.216 -0.16 -0.436 -0.219 -0.656 z m 0.219 0.656 c 0.099 0.243 0.206 0.484 0.344 0.719 -0.139 -0.236 -0.243 -0.472 -0.344 -0.719 z m 41.41 -0.656 c -0.059 0.221 -0.131 0.441 -0.219 0.656 0.087 -0.215 0.161 -0.437 0.219 -0.656 z m -0.219 0.656 c -0.101 0.246 -0.205 0.483 -0.344 0.719 0.138 -0.235 0.245 -0.476 0.344 -0.719 z" opacity="0.1"/><path d="m 3.03 1037.64 c 0.035 0.844 0.259 1.685 0.719 2.469 0.532 0.903 1.283 1.603 2.156 2.063 l 15.25 8.656 c 0.832 0.497 1.799 0.781 2.844 0.781 1.045 0 2.01 -0.284 2.844 -0.781 l 15.25 -8.656 c 0.873 -0.46 1.625 -1.159 2.156 -2.063 0.46 -0.784 0.683 -1.624 0.719 -2.469 -0.067 0.763 -0.303 1.511 -0.719 2.219 -0.532 0.903 -1.283 1.603 -2.156 2.063 l -15.25 8.656 c -0.832 0.497 -1.799 0.781 -2.844 0.781 -1.045 0 -2.01 -0.284 -2.844 -0.781 l -15.25 -8.656 c -0.873 -0.46 -1.625 -1.159 -2.156 -2.063 -0.416 -0.708 -0.651 -1.456 -0.719 -2.219 z" opacity="0.2"/></g></g><g><path d="m 24 46.996 c 1.045 0 2.023 -0.287 2.856 -0.784 l 15.339 -8.708 c 0.017 -0.013 0.035 -0.013 0.052 -0.021 1.852 -1.051 2.847 -3 2.746 -4.968 l 0 -17.02 c 0.056 -1.013 -0.175 -2.049 -0.729 -2.993 -0.532 -0.903 -1.288 -1.602 -2.161 -2.061 l -15.246 -8.653 c -0.832 -0.497 -1.811 -0.784 -2.856 -0.784 -1.045 0 -2.023 0.287 -2.856 0.784 l -15.246 8.653 c -0.873 0.46 -1.629 1.158 -2.161 2.061 -0.554 0.944 -0.785 1.981 -0.729 2.993 l 0 17.01 c -0.056 1.012 0.175 2.051 0.729 2.993 0.532 0.906 1.288 1.604 2.161 2.064 l 15.246 8.653 c 0.832 0.497 1.811 0.785 2.856 0.785 z" fill="url(#linearGradient3764)" fill-opacity="1"/></g><g><g clip-path="url(#clipPath-287282462)"><g opacity="0.25"><g transform="translate(0,1)"><g filter="url(#filter-269209666)"><!-- color: #d7d7d7 --><g><path d="m 29.656 15 l 2.375 0 l 3.414 6.832 l 3.402 -6.832 l 2.152 0 l -6 12 l -2.258 0 l 1.59 -3.227 m -4.676 -8.773" fill="#000"/><path d="m 28.656 19.82 c -4.246 0 -4.656 2.809 -4.656 3.18 l 2.113 0 c 0 0 0.25 -1.84 2.398 -1.84 c 1.395 0 2.477 0.637 2.477 1.867 l 0 0.438 l -2.477 0 c -3.289 0 -5.03 0.961 -5.03 2.914 c 0 1.922 1.605 2.965 3.777 2.965 c 2.957 0 3.91 -1.633 3.91 -1.633 c 0 0.648 0.051 1.289 0.051 1.289 l 1.879 0 c 0 0 -0.074 -0.793 -0.074 -1.301 l 0 -4.391 c 0 -2.883 -2.324 -3.488 -4.371 -3.488 m 2.332 4.953 l 0 0.586 c 0 0.758 -0.469 2.648 -3.23 2.648 c -1.512 0 -2.16 -0.754 -2.16 -1.629 c 0 -1.594 2.184 -1.605 5.391 -1.605 m 0 0" fill="#000"/><path d="m 17 20 l 0 11.477 c 0 0.633 -0.039 1.523 -0.039 1.523 l 2.039 0 c 0 0 0 -0.418 0 -1 c 0 0 0.586 1.32 2.887 1.32 c 2.426 0 4.113 -1.961 4.113 -4.766 c 0 -2.609 -1.512 -4.707 -4.07 -4.707 c -2.391 0 -2.93 1.152 -2.93 1.152 l 0.039 -5 m 2.449 5.227 c 1.648 0 2.695 1.422 2.695 3.328 c 0 2.047 -1.25 3.383 -2.723 3.383 c -1.758 0 -2.707 -1.594 -2.707 -3.363 c 0 -1.648 0.891 -3.348 2.734 -3.348 m 0 0" fill="#000"/><path d="m 12.918 19.719 c -2.82 0 -5.172 1.199 -5.172 4.809 c 0 2.863 1.59 4.473 5.254 4.473 c 4.313 0 5 -3 5 -3 l -2.09 0 c 0 0 -0.793 1.328 -2.973 1.328 c -1.773 0 -3.125 -0.648 -3.125 -2.328 l 8.188 0 l 0 -1.055 c 0 -1.66 -1.254 -4.227 -5.082 -4.227 m -0.07 1.348 c 1.688 0 2.84 1.035 2.84 2.586 l -5.828 0 c 0 -1.645 1.504 -2.586 2.988 -2.586 m 0 0" fill="#000"/></g></g></g></g></g></g><g><g clip-path="url(#clipPath-295932078)"><!-- color: #d7d7d7 --><g><path d="m 29.656 15 l 2.375 0 l 3.414 6.832 l 3.402 -6.832 l 2.152 0 l -6 12 l -2.258 0 l 1.59 -3.227 m -4.676 -8.773" fill="#86b817"/><path d="m 28.656 19.82 c -4.246 0 -4.656 2.809 -4.656 3.18 l 2.113 0 c 0 0 0.25 -1.84 2.398 -1.84 c 1.395 0 2.477 0.637 2.477 1.867 l 0 0.438 l -2.477 0 c -3.289 0 -5.03 0.961 -5.03 2.914 c 0 1.922 1.605 2.965 3.777 2.965 c 2.957 0 3.91 -1.633 3.91 -1.633 c 0 0.648 0.051 1.289 0.051 1.289 l 1.879 0 c 0 0 -0.074 -0.793 -0.074 -1.301 l 0 -4.391 c 0 -2.883 -2.324 -3.488 -4.371 -3.488 m 2.332 4.953 l 0 0.586 c 0 0.758 -0.469 2.648 -3.23 2.648 c -1.512 0 -2.16 -0.754 -2.16 -1.629 c 0 -1.594 2.184 -1.605 5.391 -1.605 m 0 0" fill="#e2a202"/><path d="m 17 20 l 0 11.477 c 0 0.633 -0.039 1.523 -0.039 1.523 l 2.039 0 c 0 0 0 -0.418 0 -1 c 0 0 0.586 1.32 2.887 1.32 c 2.426 0 4.113 -1.961 4.113 -4.766 c 0 -2.609 -1.512 -4.707 -4.07 -4.707 c -2.391 0 -2.93 1.152 -2.93 1.152 l 0.039 -5 m 2.449 5.227 c 1.648 0 2.695 1.422 2.695 3.328 c 0 2.047 -1.25 3.383 -2.723 3.383 c -1.758 0 -2.707 -1.594 -2.707 -3.363 c 0 -1.648 0.891 -3.348 2.734 -3.348 m 0 0" fill="#0062d0"/><path d="m 12.918 19.719 c -2.82 0 -5.172 1.199 -5.172 4.809 c 0 2.863 1.59 4.473 5.254 4.473 c 4.313 0 5 -3 5 -3 l -2.09 0 c 0 0 -0.793 1.328 -2.973 1.328 c -1.773 0 -3.125 -0.648 -3.125 -2.328 l 8.188 0 l 0 -1.055 c 0 -1.66 -1.254 -4.227 -5.082 -4.227 m -0.07 1.348 c 1.688 0 2.84 1.035 2.84 2.586 l -5.828 0 c 0 -1.645 1.504 -2.586 2.988 -2.586 m 0 0" fill="#e53036"/></g></g></g><g><path d="m 24 1 c -1.045 0 -2.01 0.284 -2.844 0.781 l -15.344 8.719 c -0.017 0.013 -0.045 0.023 -0.063 0.031 c -1.852 1.051 -2.851 3 -2.75 4.969 l 0 1 c -0.101 -1.966 0.898 -3.918 2.75 -4.969 c 0.017 -0.008 0.045 -0.018 0.063 -0.031 l 15.344 -8.719 c 0.832 -0.497 1.799 -0.781 2.844 -0.781 c 1.045 0 2.01 0.284 2.844 0.781 l 15.25 8.656 c 0.873 0.46 1.625 1.156 2.156 2.063 c 0.554 0.942 0.806 1.988 0.75 3 l 0 -1 c 0.056 -1.012 -0.196 -2.058 -0.75 -3 c -0.532 -0.906 -1.283 -1.603 -2.156 -2.063 l -15.25 -8.656 c -0.832 -0.497 -1.799 -0.781 -2.844 -0.781 z" opacity="0.2" fill="#fff"/></g></svg>