<svg viewBox="0 0 48 48"><defs><linearGradient id="linearGradient3764" x1="1" x2="47" gradientUnits="userSpaceOnUse" gradientTransform="translate(-48.000001,0.00221467)"><stop stop-color="#f69b1a" stop-opacity="1"/><stop offset="1" stop-color="#f7a52d" stop-opacity="1"/></linearGradient><clipPath id="clipPath-070740400"><g transform="translate(0,-1004.3622)"><rect rx="4" y="1005.36" x="1" height="46" width="46" fill="#1890d0"/></g></clipPath><clipPath id="clipPath-083648625"><g transform="translate(0,-1004.3622)"><rect rx="4" y="1005.36" x="1" height="46" width="46" fill="#1890d0"/></g></clipPath></defs><g><path d="m 1 43 l 0 0.25 c 0 2.216 1.784 4 4 4 l 38 0 c 2.216 0 4 -1.784 4 -4 l 0 -0.25 c 0 2.216 -1.784 4 -4 4 l -38 0 c -2.216 0 -4 -1.784 -4 -4 z m 0 0.5 l 0 0.5 c 0 2.216 1.784 4 4 4 l 38 0 c 2.216 0 4 -1.784 4 -4 l 0 -0.5 c 0 2.216 -1.784 4 -4 4 l -38 0 c -2.216 0 -4 -1.784 -4 -4 z" opacity="0.02"/><path d="m 1 43.25 l 0 0.25 c 0 2.216 1.784 4 4 4 l 38 0 c 2.216 0 4 -1.784 4 -4 l 0 -0.25 c 0 2.216 -1.784 4 -4 4 l -38 0 c -2.216 0 -4 -1.784 -4 -4 z" opacity="0.05"/><path d="m 1 43 l 0 0.25 c 0 2.216 1.784 4 4 4 l 38 0 c 2.216 0 4 -1.784 4 -4 l 0 -0.25 c 0 2.216 -1.784 4 -4 4 l -38 0 c -2.216 0 -4 -1.784 -4 -4 z" opacity="0.1"/></g><g><rect width="46" height="46" x="-47" y="1" rx="4" transform="matrix(0,-1,1,0,0,0)" fill="url(#linearGradient3764)" fill-opacity="1"/></g><g><g clip-path="url(#clipPath-070740400)"><g opacity="0.1"><!-- color: #f7a52d --><g transform="matrix(0.65217391,0,0,0.65217391,8.3478261,8.3478262)"><path d="m 24.371 1 c 11.01 0 22.629 8.898 22.629 22.91 0 13.895 -11.285 23.09 -22.574 23.09 -13.414 0 -23.03 -9.93 -23.426 -22.258 0 -12.656 8.926 -23.742 23.371 -23.742 z m 17.672 23.1 c 0.434 -11.512 -9.04 -18.309 -17.262 -18.309 c -7.785 0 -15.559 3.137 -18.664 14.734 -0.574 2.148 -0.352 5.848 0.809 6.766 1.555 1.227 4.766 -0.074 6.785 -2.75 2.641 -3.938 2.793 -9.02 2 -13.594 -0.141 -0.539 -0.102 -0.559 0.668 -0.398 6.781 1.793 11.453 7.277 15.66 12.551 3.07 4.59 9.473 10.02 10 1 z m 0 0" fill="#000"/></g></g></g></g><g><g clip-path="url(#clipPath-083648625)"><g transform="translate(0,-1)"><!-- color: #f7a52d --><g transform="matrix(0.65217391,0,0,0.65217391,8.3478261,8.3478262)"><path d="m 24.371 1 c 11.01 0 22.629 8.898 22.629 22.91 0 13.895 -11.285 23.09 -22.574 23.09 -13.414 0 -23.03 -9.93 -23.426 -22.258 0 -12.656 8.926 -23.742 23.371 -23.742 z m 17.672 23.1 c 0.434 -11.512 -9.04 -18.309 -17.262 -18.309 c -7.785 0 -15.559 3.137 -18.664 14.734 -0.574 2.148 -0.352 5.848 0.809 6.766 1.555 1.227 4.766 -0.074 6.785 -2.75 2.641 -3.938 2.793 -9.02 2 -13.594 -0.141 -0.539 -0.102 -0.559 0.668 -0.398 6.781 1.793 11.453 7.277 15.66 12.551 3.07 4.59 9.473 10.02 10 1 z m 0 0" fill="#2e2e2e"/></g></g></g></g><g><g transform="translate(0,-1004.3622)"><path d="m 1 1043.36 0 4 c 0 2.216 1.784 4 4 4 l 38 0 c 2.216 0 4 -1.784 4 -4 l 0 -4 c 0 2.216 -1.784 4 -4 4 l -38 0 c -2.216 0 -4 -1.784 -4 -4 z" opacity="0.1"/></g></g></svg>