<svg viewBox="0 0 48 48"><defs><linearGradient id="linearGradient3764" x1="1" x2="47" gradientUnits="userSpaceOnUse" gradientTransform="translate(-48.000001,0.00221467)"><stop stop-color="#2bb4ed" stop-opacity="1"/><stop offset="1" stop-color="#3dbbef" stop-opacity="1"/></linearGradient><clipPath id="clipPath-760141194"><g transform="translate(0,-1004.3622)"><rect rx="4" y="1005.36" x="1" height="46" width="46" fill="#1890d0"/></g></clipPath><clipPath id="clipPath-773788744"><g transform="translate(0,-1004.3622)"><rect rx="4" y="1005.36" x="1" height="46" width="46" fill="#1890d0"/></g></clipPath></defs><g><path d="m 1 43 l 0 0.25 c 0 2.216 1.784 4 4 4 l 38 0 c 2.216 0 4 -1.784 4 -4 l 0 -0.25 c 0 2.216 -1.784 4 -4 4 l -38 0 c -2.216 0 -4 -1.784 -4 -4 z m 0 0.5 l 0 0.5 c 0 2.216 1.784 4 4 4 l 38 0 c 2.216 0 4 -1.784 4 -4 l 0 -0.5 c 0 2.216 -1.784 4 -4 4 l -38 0 c -2.216 0 -4 -1.784 -4 -4 z" opacity="0.02"/><path d="m 1 43.25 l 0 0.25 c 0 2.216 1.784 4 4 4 l 38 0 c 2.216 0 4 -1.784 4 -4 l 0 -0.25 c 0 2.216 -1.784 4 -4 4 l -38 0 c -2.216 0 -4 -1.784 -4 -4 z" opacity="0.05"/><path d="m 1 43 l 0 0.25 c 0 2.216 1.784 4 4 4 l 38 0 c 2.216 0 4 -1.784 4 -4 l 0 -0.25 c 0 2.216 -1.784 4 -4 4 l -38 0 c -2.216 0 -4 -1.784 -4 -4 z" opacity="0.1"/></g><g><rect width="46" height="46" x="-47" y="1" rx="4" transform="matrix(0,-1,1,0,0,0)" fill="url(#linearGradient3764)" fill-opacity="1"/></g><g><g clip-path="url(#clipPath-760141194)"><g opacity="0.1"><!-- color: #3dbbef --><g><path d="m 23.324 36.926 c -2.953 -0.73 -9.777 -7.242 -11.824 -11.281 c -0.664 -1.309 -0.664 -2.051 -0.004 -3.352 c 0.914 -1.805 2.777 -4.109 5.281 -6.543 c 3.23 -3.133 5.688 -4.75 7.223 -4.75 c 1.59 0 4.266 1.805 7.672 5.172 c 2.805 2.77 4.688 5.316 5.191 7.02 c 0.234 0.793 0.18 1.289 -0.242 2.25 c -1.43 3.25 -7.684 9.566 -11.01 11.12 c -0.902 0.422 -1.605 0.535 -2.285 0.367 m 0 0" fill="#000"/><path d="m 19 17 -4 6 9 5 c 0.461 0.18 0.59 0.258 1 0 l 23 -17 0 -11 -11 0 -12 22 c -0.488 0.363 -0.461 0.336 -1 0 z" fill-opacity="0.8" fill="#000"/><path d="m 20 19 c 0 3.313 -2.688 6 -6 6 c -3.313 0 -6 -2.688 -6 -6 c 0 -3.313 2.688 -6 6 -6 c 3.313 0 6 2.688 6 6 m 0 0" fill="#000"/></g></g></g></g><g><g clip-path="url(#clipPath-773788744)"><g transform="translate(0,-1)"><!-- color: #3dbbef --><g><path d="m 23.324 36.926 c -2.953 -0.73 -9.777 -7.242 -11.824 -11.281 c -0.664 -1.309 -0.664 -2.051 -0.004 -3.352 c 0.914 -1.805 2.777 -4.109 5.281 -6.543 c 3.23 -3.133 5.688 -4.75 7.223 -4.75 c 1.59 0 4.266 1.805 7.672 5.172 c 2.805 2.77 4.688 5.316 5.191 7.02 c 0.234 0.793 0.18 1.289 -0.242 2.25 c -1.43 3.25 -7.684 9.566 -11.01 11.12 c -0.902 0.422 -1.605 0.535 -2.285 0.367 m 0 0" fill="#254e69"/><path d="m 19 17 -4 6 9 5 c 0.461 0.18 0.59 0.258 1 0 l 23 -17 0 -11 -11 0 -12 22 c -0.488 0.363 -0.461 0.336 -1 0 z" fill="#f8f8f8" fill-opacity="0.8"/><path d="m 20 19 c 0 3.313 -2.688 6 -6 6 c -3.313 0 -6 -2.688 -6 -6 c 0 -3.313 2.688 -6 6 -6 c 3.313 0 6 2.688 6 6 m 0 0" fill="#8bd134"/></g></g></g></g><g><g transform="translate(0,-1004.3622)"><path d="m 1 1043.36 0 4 c 0 2.216 1.784 4 4 4 l 38 0 c 2.216 0 4 -1.784 4 -4 l 0 -4 c 0 2.216 -1.784 4 -4 4 l -38 0 c -2.216 0 -4 -1.784 -4 -4 z" opacity="0.1"/></g></g></svg>