<svg viewBox="0 0 48 48"><defs><linearGradient id="linearGradient3764" x1="1" x2="47" gradientUnits="userSpaceOnUse" gradientTransform="translate(-48.000001,0.00221467)"><stop stop-color="#d66c1e" stop-opacity="1"/><stop offset="1" stop-color="#e17527" stop-opacity="1"/></linearGradient><clipPath id="clipPath-063036126"><g transform="translate(0,-1004.3622)"><rect rx="4" y="1005.36" x="1" height="46" width="46" fill="#1890d0"/></g></clipPath><clipPath id="clipPath-076322490"><g transform="translate(0,-1004.3622)"><rect rx="4" y="1005.36" x="1" height="46" width="46" fill="#1890d0"/></g></clipPath><clipPath id="0"><path d="m 9 9 l 30 0 l 0 30 l -30 0 m 0 -30"/></clipPath><clipPath id="1"><path d="m 24 9 l -3.16 7.371 l -7.445 -2.977 l 2.98 7.445 l -7.375 3.16 l 7.375 3.16 l -2.98 7.445 l 7.445 -2.98 l 3.16 7.375 l 3.16 -7.375 l 7.445 2.98 l -2.977 -7.445 l 7.371 -3.16 l -7.371 -3.16 l 2.977 -7.445 l -7.445 2.977 m -6.266 0.129 l 6.211 0 l 4.395 4.395 l 0 6.211 l -4.395 4.395 l -6.211 0 l -4.395 -4.395 l 0 -6.211 m 4.395 -4.395"/></clipPath><clipPath id="0"><path d="m 9 9 l 30 0 l 0 30 l -30 0 m 0 -30"/></clipPath><clipPath id="1"><path d="m 24 9 l -3.16 7.371 l -7.445 -2.977 l 2.98 7.445 l -7.375 3.16 l 7.375 3.16 l -2.98 7.445 l 7.445 -2.98 l 3.16 7.375 l 3.16 -7.375 l 7.445 2.98 l -2.977 -7.445 l 7.371 -3.16 l -7.371 -3.16 l 2.977 -7.445 l -7.445 2.977 m -6.266 0.129 l 6.211 0 l 4.395 4.395 l 0 6.211 l -4.395 4.395 l -6.211 0 l -4.395 -4.395 l 0 -6.211 m 4.395 -4.395"/></clipPath></defs><g><path d="m 1 43 l 0 0.25 c 0 2.216 1.784 4 4 4 l 38 0 c 2.216 0 4 -1.784 4 -4 l 0 -0.25 c 0 2.216 -1.784 4 -4 4 l -38 0 c -2.216 0 -4 -1.784 -4 -4 z m 0 0.5 l 0 0.5 c 0 2.216 1.784 4 4 4 l 38 0 c 2.216 0 4 -1.784 4 -4 l 0 -0.5 c 0 2.216 -1.784 4 -4 4 l -38 0 c -2.216 0 -4 -1.784 -4 -4 z" opacity="0.02"/><path d="m 1 43.25 l 0 0.25 c 0 2.216 1.784 4 4 4 l 38 0 c 2.216 0 4 -1.784 4 -4 l 0 -0.25 c 0 2.216 -1.784 4 -4 4 l -38 0 c -2.216 0 -4 -1.784 -4 -4 z" opacity="0.05"/><path d="m 1 43 l 0 0.25 c 0 2.216 1.784 4 4 4 l 38 0 c 2.216 0 4 -1.784 4 -4 l 0 -0.25 c 0 2.216 -1.784 4 -4 4 l -38 0 c -2.216 0 -4 -1.784 -4 -4 z" opacity="0.1"/></g><g><rect width="46" height="46" x="-47" y="1" rx="4" transform="matrix(0,-1,1,0,0,0)" fill="url(#linearGradient3764)" fill-opacity="1"/></g><g><g clip-path="url(#clipPath-063036126)"><g opacity="0.1"><!-- color: #e17527 --><g><path d="m 31.5 24.13 c 0 4.141 -3.355 7.5 -7.5 7.5 c -4.141 0 -7.5 -3.359 -7.5 -7.5 c 0 -4.141 3.359 -7.5 7.5 -7.5 c 4.145 0 7.5 3.359 7.5 7.5 m 0 0" fill="#000"/><g clip-path="url(#0)"><g clip-path="url(#1)"><path d="m 24 9 c -8.273 0 -15 6.727 -15 15 c 0 8.273 6.727 15 15 15 c 8.273 0 15 -6.727 15 -15 c 0 -8.273 -6.727 -15 -15 -15 m 0 1.875 c 7.262 0 13.13 5.863 13.13 13.13 c 0 7.258 -5.863 13.13 -13.12 13.13 c -7.258 0 -13.12 -5.867 -13.12 -13.12 c 0 -7.262 5.867 -13.12 13.13 -13.12 m 0 0.801 c -6.797 0 -12.32 5.527 -12.32 12.324 c 0 6.797 5.523 12.32 12.32 12.32 c 6.797 0 12.324 -5.523 12.324 -12.32 c 0 -6.797 -5.527 -12.324 -12.324 -12.324 m 0 1.34 c 6.074 0 10.984 4.91 10.984 10.984 c 0 6.074 -4.91 10.98 -10.984 10.98 c -6.074 0 -10.98 -4.906 -10.98 -10.98 c 0 -6.074 4.906 -10.984 10.98 -10.984 m 0 1.207 c -5.465 0 -9.91 4.445 -9.91 9.91 c 0 5.465 4.445 9.91 9.91 9.91 c 5.469 0 9.914 -4.445 9.914 -9.91 c 0 -5.465 -4.445 -9.91 -9.914 -9.91 m 0 1.34 c 4.742 0 8.574 3.828 8.574 8.57 c 0 4.742 -3.832 8.57 -8.574 8.57 c -4.742 0 -8.57 -3.828 -8.57 -8.57 c 0 -4.742 3.828 -8.57 8.57 -8.57 m 0 0" fill="#000"/></g></g></g></g></g></g><g><g clip-path="url(#clipPath-076322490)"><g transform="translate(0,-1)"><!-- color: #e17527 --><g><path d="m 31.5 24.13 c 0 4.141 -3.355 7.5 -7.5 7.5 c -4.141 0 -7.5 -3.359 -7.5 -7.5 c 0 -4.141 3.359 -7.5 7.5 -7.5 c 4.145 0 7.5 3.359 7.5 7.5 m 0 0" fill="#fbe569"/><g clip-path="url(#0)"><g clip-path="url(#1)"><path d="m 24 9 c -8.273 0 -15 6.727 -15 15 c 0 8.273 6.727 15 15 15 c 8.273 0 15 -6.727 15 -15 c 0 -8.273 -6.727 -15 -15 -15 m 0 1.875 c 7.262 0 13.13 5.863 13.13 13.13 c 0 7.258 -5.863 13.13 -13.12 13.13 c -7.258 0 -13.12 -5.867 -13.12 -13.12 c 0 -7.262 5.867 -13.12 13.13 -13.12 m 0 0.801 c -6.797 0 -12.32 5.527 -12.32 12.324 c 0 6.797 5.523 12.32 12.32 12.32 c 6.797 0 12.324 -5.523 12.324 -12.32 c 0 -6.797 -5.527 -12.324 -12.324 -12.324 m 0 1.34 c 6.074 0 10.984 4.91 10.984 10.984 c 0 6.074 -4.91 10.98 -10.984 10.98 c -6.074 0 -10.98 -4.906 -10.98 -10.98 c 0 -6.074 4.906 -10.984 10.98 -10.984 m 0 1.207 c -5.465 0 -9.91 4.445 -9.91 9.91 c 0 5.465 4.445 9.91 9.91 9.91 c 5.469 0 9.914 -4.445 9.914 -9.91 c 0 -5.465 -4.445 -9.91 -9.914 -9.91 m 0 1.34 c 4.742 0 8.574 3.828 8.574 8.57 c 0 4.742 -3.832 8.57 -8.574 8.57 c -4.742 0 -8.57 -3.828 -8.57 -8.57 c 0 -4.742 3.828 -8.57 8.57 -8.57 m 0 0" fill="#fbe569"/></g></g></g></g></g></g><g><g transform="translate(0,-1004.3622)"><path d="m 1 1043.36 0 4 c 0 2.216 1.784 4 4 4 l 38 0 c 2.216 0 4 -1.784 4 -4 l 0 -4 c 0 2.216 -1.784 4 -4 4 l -38 0 c -2.216 0 -4 -1.784 -4 -4 z" opacity="0.1"/></g></g></svg>