<svg viewBox="0 0 48 48" xmlns:xlink="http://www.w3.org/1999/xlink"><defs><linearGradient id="linearGradient3764" x1="1" x2="47" gradientUnits="userSpaceOnUse" gradientTransform="translate(-48.000001,0.00221467)"><stop stop-color="#d8d8d8" stop-opacity="1"/><stop offset="1" stop-color="#e2e2e2" stop-opacity="1"/></linearGradient><clipPath id="clipPath-526157181"><g transform="translate(0,-1004.3622)"><rect rx="4" y="1005.36" x="1" height="46" width="46" fill="#1890d0"/></g></clipPath><clipPath id="clipPath-538838558"><g transform="translate(0,-1004.3622)"><rect rx="4" y="1005.36" x="1" height="46" width="46" fill="#1890d0"/></g></clipPath></defs><g><path d="m 1 43 l 0 0.25 c 0 2.216 1.784 4 4 4 l 38 0 c 2.216 0 4 -1.784 4 -4 l 0 -0.25 c 0 2.216 -1.784 4 -4 4 l -38 0 c -2.216 0 -4 -1.784 -4 -4 z m 0 0.5 l 0 0.5 c 0 2.216 1.784 4 4 4 l 38 0 c 2.216 0 4 -1.784 4 -4 l 0 -0.5 c 0 2.216 -1.784 4 -4 4 l -38 0 c -2.216 0 -4 -1.784 -4 -4 z" opacity="0.02"/><path d="m 1 43.25 l 0 0.25 c 0 2.216 1.784 4 4 4 l 38 0 c 2.216 0 4 -1.784 4 -4 l 0 -0.25 c 0 2.216 -1.784 4 -4 4 l -38 0 c -2.216 0 -4 -1.784 -4 -4 z" opacity="0.05"/><path d="m 1 43 l 0 0.25 c 0 2.216 1.784 4 4 4 l 38 0 c 2.216 0 4 -1.784 4 -4 l 0 -0.25 c 0 2.216 -1.784 4 -4 4 l -38 0 c -2.216 0 -4 -1.784 -4 -4 z" opacity="0.1"/></g><g><rect width="46" height="46" x="-47" y="1" rx="4" transform="matrix(0,-1,1,0,0,0)" fill="url(#linearGradient3764)" fill-opacity="1"/></g><g><g clip-path="url(#clipPath-526157181)"><g opacity="0.1"><!-- color: #e2e2e2 --><g><path d="m 12.996 13 l 22 0 c 1.105 0 2 0.895 2 2 l 0 18 c 0 1.102 -0.895 1.996 -2 1.996 l -22 0 c -1.102 0 -1.996 -0.895 -1.996 -1.996 l 0 -18 c 0 -1.105 0.895 -2 1.996 -2 m 0 0" fill="#000"/><path d="m 24 21 l -12 13 l -0.406 0.406 c 0.363 0.363 0.852 0.594 1.406 0.594 l 22 0 c 0.555 0 1.043 -0.23 1.406 -0.594 l -0.406 -0.406 m -12 -13" fill="#000"/><path d="m 12 14 l 12 15 l 12 -15 m -24 0" fill-opacity="0.2" id="SVGCleanerId_0"/><path d="m 24 27 l -12 -13 l -0.406 -0.406 c 0.363 -0.363 0.852 -0.594 1.406 -0.594 l 22 0 c 0.555 0 1.043 0.23 1.406 0.594 l -0.406 0.406 m -12 13" fill="#000"/></g></g></g></g><g><g clip-path="url(#clipPath-538838558)"><g transform="translate(0,-1)"><!-- color: #e2e2e2 --><g><path d="m 12.996 13 l 22 0 c 1.105 0 2 0.895 2 2 l 0 18 c 0 1.102 -0.895 1.996 -2 1.996 l -22 0 c -1.102 0 -1.996 -0.895 -1.996 -1.996 l 0 -18 c 0 -1.105 0.895 -2 1.996 -2 m 0 0" fill="#6eabdd"/><path d="m 24 21 l -12 13 l -0.406 0.406 c 0.363 0.363 0.852 0.594 1.406 0.594 l 22 0 c 0.555 0 1.043 -0.23 1.406 -0.594 l -0.406 -0.406 m -12 -13" fill="#7988c5"/><use xlink:href="#SVGCleanerId_0"/><path d="m 24 27 l -12 -13 l -0.406 -0.406 c 0.363 -0.363 0.852 -0.594 1.406 -0.594 l 22 0 c 0.555 0 1.043 0.23 1.406 0.594 l -0.406 0.406 m -12 13" fill="#86d7eb"/></g></g></g></g><g><g transform="translate(0,-1004.3622)"><path d="m 1 1043.36 0 4 c 0 2.216 1.784 4 4 4 l 38 0 c 2.216 0 4 -1.784 4 -4 l 0 -4 c 0 2.216 -1.784 4 -4 4 l -38 0 c -2.216 0 -4 -1.784 -4 -4 z" opacity="0.1"/></g></g></svg>