<?xml version="1.0" encoding="UTF-8" standalone="no"?>
<svg
   xmlns:dc="http://purl.org/dc/elements/1.1/"
   xmlns:cc="http://creativecommons.org/ns#"
   xmlns:rdf="http://www.w3.org/1999/02/22-rdf-syntax-ns#"
   xmlns:svg="http://www.w3.org/2000/svg"
   xmlns="http://www.w3.org/2000/svg"
   xmlns:xlink="http://www.w3.org/1999/xlink"
   xmlns:sodipodi="http://sodipodi.sourceforge.net/DTD/sodipodi-0.dtd"
   xmlns:inkscape="http://www.inkscape.org/namespaces/inkscape"
   width="48"
   viewBox="0 0 13.546667 13.546667"
   height="48"
   id="svg2"
   version="1.1"
   inkscape:version="0.48.5 r10040"
   sodipodi:docname="com_android_music.svg">
  <metadata
     id="metadata32">
    <rdf:RDF>
      <cc:Work
         rdf:about="">
        <dc:format>image/svg+xml</dc:format>
        <dc:type
           rdf:resource="http://purl.org/dc/dcmitype/StillImage" />
        <dc:title></dc:title>
      </cc:Work>
    </rdf:RDF>
  </metadata>
  <sodipodi:namedview
     pagecolor="#333333"
     bordercolor="#666666"
     borderopacity="1"
     objecttolerance="10"
     gridtolerance="10"
     guidetolerance="10"
     inkscape:pageopacity="1"
     inkscape:pageshadow="2"
     inkscape:window-width="1920"
     inkscape:window-height="1052"
     id="namedview30"
     showgrid="true"
     inkscape:zoom="16.197877"
     inkscape:cx="17.351815"
     inkscape:cy="14.36629"
     inkscape:window-x="0"
     inkscape:window-y="28"
     inkscape:window-maximized="1"
     inkscape:current-layer="layer1">
    <inkscape:grid
       type="xygrid"
       id="grid3781" />
  </sodipodi:namedview>
  <defs
     id="defs4">
    <linearGradient
       id="linearGradient3807">
      <stop
         style="stop-color:#000000;stop-opacity:1;"
         offset="0"
         id="stop3809" />
      <stop
         style="stop-color:#000000;stop-opacity:0;"
         offset="1"
         id="stop3811" />
    </linearGradient>
    <linearGradient
       id="linearGradient3794">
      <stop
         style="stop-color:#ffffff;stop-opacity:1;"
         offset="0"
         id="stop3796" />
      <stop
         style="stop-color:#ffffff;stop-opacity:0;"
         offset="1"
         id="stop3798" />
    </linearGradient>
    <linearGradient
       id="linearGradient4460">
      <stop
         offset="0"
         style="stop-color:#2d2d2d;stop-opacity:1;"
         id="stop7" />
      <stop
         offset="1"
         style="stop-color:#333333;stop-opacity:1;"
         id="stop9" />
    </linearGradient>
    <linearGradient
       id="linearGradient3824">
      <stop
         offset="0"
         style="stop-color:#2a94c8"
         id="stop12" />
      <stop
         offset=".519"
         style="stop-color:#e35472"
         id="stop14" />
      <stop
         offset="1"
         style="stop-color:#e68031"
         id="stop16" />
    </linearGradient>
    <linearGradient
       gradientTransform="matrix(1.09524,0,0,1.09524,-133.00183,-293.02198)"
       xlink:href="#linearGradient4460"
       id="linearGradient3835"
       y1="279.096"
       y2="268.33"
       gradientUnits="userSpaceOnUse"
       x2="0" />
    <linearGradient
       xlink:href="#linearGradient3824"
       id="linearGradient3830"
       x1=".847"
       x2="12.7"
       gradientUnits="userSpaceOnUse" />
    <linearGradient
       inkscape:collect="always"
       xlink:href="#linearGradient4460"
       id="linearGradient3010"
       gradientUnits="userSpaceOnUse"
       gradientTransform="matrix(1.0789327,0,0,1.0789327,-130.92035,-288.55891)"
       y1="279.096"
       x2="0"
       y2="268.33" />
    <clipPath
       id="clipPath3813"
       clipPathUnits="userSpaceOnUse">
      <path
         id="path3815"
         d="M 92.311,355.545 L 479.511,355.545 L 479.511,68.1846 L 92.311,68.1846 L 92.311,355.545 z" />
    </clipPath>
    <clipPath
       id="clipPath3809"
       clipPathUnits="userSpaceOnUse">
      <path
         id="path3811"
         d="M 93.311,69.185 L 478.511,69.185 L 478.511,354.545 L 93.311,354.545 L 93.311,69.185 z" />
    </clipPath>
    <clipPath
       id="clipPath3805"
       clipPathUnits="userSpaceOnUse">
      <path
         id="path3807"
         d="M 93.311,354.545 L 478.511,354.545 L 478.511,69.1846 L 93.311,69.1846 L 93.311,354.545 z" />
    </clipPath>
    <clipPath
       id="clipPath3801"
       clipPathUnits="userSpaceOnUse">
      <path
         id="path3803"
         d="M 95.311,352.545 L 476.403,352.545 L 476.403,71.4229 L 95.311,71.4229 L 95.311,352.545 z" />
    </clipPath>
    <clipPath
       id="clipPath3797"
       clipPathUnits="userSpaceOnUse">
      <rect
         id="rect3799"
         style="fill:#fff"
         height="96"
         y="-0"
         x="-100"
         width="96" />
    </clipPath>
    <clipPath
       id="clipPath3793"
       clipPathUnits="userSpaceOnUse">
      <path
         id="path3795"
         d="M 54.1,12.5 12.9,54.7 C -2.7,70.3 23,69 32.3,74.9 36.6,77.7 18.5,81.3 22.2,85 c 3.6,3.7 21.7,7.1 25.3,10.7 3.6,3.7 -7.3,7.6 -3.7,11.3 3.5,3.7 11.9,0.2 13.4,8.6 1.1,6.2 15.4,3.1 21.8,-2.2 4,-3.4 -6.9,-3.4 -3.3,-7.1 9,-9.1 17,-4.1 20.3,-12.5 1.8,-4.5 -13.6,-7.7 -9.5,-10.6 9.8,-6.9 45.8,-10.4 29.2,-27 L 73,12.5 c -5.3,-5 -14,-5 -18.9,0 z m -9.9,64.7 c 0.9,0 30.8,4 19.3,7.1 -4.4,1.2 -24.6,-7.1 -19.3,-7.1 z m 57.2,16.6 c 0,2.1 16.3,3.3 15.4,-0.5 -1.3,-6.4 -13.6,-5.9 -15.4,0.5 z m -69.5,11.1 c 3.7,3.2 9.3,-0.7 11.1,-5.2 -3.6,-4.7 -16.9,0.3 -11.1,5.2 z m 67.5,-6.7 c -4.6,4.2 0.8,8.6 5.3,5.7 1.2,-0.8 -0.1,-4.7 -5.3,-5.7 z" />
    </clipPath>
    <clipPath
       id="clipPath3789"
       clipPathUnits="userSpaceOnUse">
      <rect
         id="rect3791"
         style="fill:#fff"
         height="84"
         rx="6"
         y="6"
         x="6"
         width="84" />
    </clipPath>
    <clipPath
       id="clipPath3785"
       clipPathUnits="userSpaceOnUse">
      <rect
         id="rect3787"
         style="fill:#fff;fill-rule:evenodd"
         height="20"
         rx="2"
         y="1"
         x="1"
         width="20" />
    </clipPath>
    <linearGradient
       inkscape:collect="always"
       xlink:href="#linearGradient3794"
       id="linearGradient3800"
       x1="28"
       y1="28"
       x2="42"
       y2="44"
       gradientUnits="userSpaceOnUse" />
    <linearGradient
       inkscape:collect="always"
       xlink:href="#linearGradient3807"
       id="linearGradient3813"
       x1="28"
       y1="28"
       x2="11"
       y2="7"
       gradientUnits="userSpaceOnUse"
       gradientTransform="scale(0.28222223,0.28222223)" />
    <linearGradient
       inkscape:collect="always"
       xlink:href="#linearGradient3794"
       id="linearGradient3817"
       gradientUnits="userSpaceOnUse"
       x1="28"
       y1="28"
       x2="42"
       y2="44"
       gradientTransform="matrix(0.28222223,0,0,0.28222223,-15.239997,0)" />
    <linearGradient
       inkscape:collect="always"
       xlink:href="#linearGradient3807"
       id="linearGradient3024"
       gradientUnits="userSpaceOnUse"
       gradientTransform="matrix(0.28222223,0,0,0.28222223,-15.239997,0)"
       x1="28"
       y1="28"
       x2="11"
       y2="7" />
    <linearGradient
       inkscape:collect="always"
       xlink:href="#linearGradient3807"
       id="linearGradient3809"
       x1="25"
       y1="24"
       x2="25"
       y2="48"
       gradientUnits="userSpaceOnUse"
       gradientTransform="matrix(-0.28222223,0,0,-0.28222223,13.546659,13.546666)" />
    <linearGradient
       inkscape:collect="always"
       xlink:href="#linearGradient3794"
       id="linearGradient3814"
       gradientUnits="userSpaceOnUse"
       x1="25"
       y1="24"
       x2="25"
       y2="48"
       gradientTransform="matrix(0.28222223,0,0,0.28222223,6.875e-7,-6.3e-6)" />
    <linearGradient
       inkscape:collect="always"
       xlink:href="#linearGradient3807"
       id="linearGradient3818"
       gradientUnits="userSpaceOnUse"
       x1="25"
       y1="24"
       x2="25"
       y2="48"
       gradientTransform="matrix(0.28222223,0,0,0.28222223,14.675553,0)" />
    <radialGradient
       gradientUnits="userSpaceOnUse"
       r="24"
       fy="1028.3622"
       fx="24"
       cy="1028.3622"
       cx="24"
       id="radialGradient3839"
       xlink:href="#linearGradient3833"
       inkscape:collect="always" />
    <linearGradient
       y2="1028.3622"
       x2="25"
       y1="1004.3622"
       x1="25"
       gradientTransform="translate(0,24)"
       gradientUnits="userSpaceOnUse"
       id="linearGradient3814-8"
       xlink:href="#linearGradient3816"
       inkscape:collect="always" />
    <linearGradient
       gradientTransform="matrix(1,0,0,-1,0,2032.7244)"
       y2="1028.3622"
       x2="25"
       y1="1004.3622"
       x1="25"
       gradientUnits="userSpaceOnUse"
       id="linearGradient3799"
       xlink:href="#linearGradient3789"
       inkscape:collect="always" />
    <linearGradient
       y2="1116.0214"
       x2="535.50085"
       y1="1357.2667"
       x1="535.50085"
       gradientUnits="userSpaceOnUse"
       id="linearGradient3853"
       xlink:href="#linearGradient4460-36"
       inkscape:collect="always" />
    <linearGradient
       gradientUnits="userSpaceOnUse"
       y2="1116.0214"
       x2="535.50085"
       y1="1357.2667"
       x1="535.50085"
       id="linearGradient3851"
       xlink:href="#linearGradient4460-36"
       inkscape:collect="always" />
    <linearGradient
       y2="267.598"
       x2="0"
       y1="279.088"
       gradientTransform="matrix(3.9163464,0,0,3.9163464,-416.92123,-49.093523)"
       gradientUnits="userSpaceOnUse"
       id="linearGradient3842"
       xlink:href="#linearGradient4460-36"
       inkscape:collect="always" />
    <linearGradient
       y2="267.598"
       x2="0"
       y1="279.088"
       gradientTransform="matrix(1.10528,0,0,1.10528,-134.28289,-295.77061)"
       gradientUnits="userSpaceOnUse"
       id="linearGradient3837"
       xlink:href="#linearGradient4460-36"
       inkscape:collect="always" />
    <clipPath
       clipPathUnits="userSpaceOnUse"
       id="clipPath6">
      <path
         style="fill:#fff;fill-rule:evenodd"
         d="M -670.14006,51.863192 L -114.61564,405.00326 L -257.11075,510.32573 L -514.2215,-71.013029 L -670.14006,51.863192 z"
         id="path8" />
    </clipPath>
    <linearGradient
       id="linearGradient4460-3">
      <stop
         offset="0"
         style="stop-color:#f9d7c6"
         id="stop11" />
      <stop
         offset="1"
         style="stop-color:#f9f9ff"
         id="stop13" />
    </linearGradient>
    <linearGradient
       gradientTransform="translate(0,1e-5)"
       xlink:href="#linearGradient4460-3"
       id="linearGradient4030"
       x1="3.387"
       gradientUnits="userSpaceOnUse"
       x2="10.16" />
    <linearGradient
       id="linearGradient4460-36">
      <stop
         offset="0"
         style="stop-color:#cb3223"
         id="stop17" />
      <stop
         offset="1"
         style="stop-color:#e16913"
         id="stop19" />
    </linearGradient>
    <linearGradient
       gradientTransform="matrix(1.10528,0,0,1.10528,-134.28289,-295.77061)"
       xlink:href="#linearGradient4460-36"
       id="linearGradient4075"
       y1="279.088"
       y2="267.598"
       gradientUnits="userSpaceOnUse"
       x2="0" />
    <linearGradient
       id="linearGradient3789"
       inkscape:collect="always">
      <stop
         id="stop3791"
         offset="0"
         style="stop-color:#000000;stop-opacity:1;" />
      <stop
         id="stop3793"
         offset="1"
         style="stop-color:#000000;stop-opacity:0;" />
    </linearGradient>
    <linearGradient
       id="linearGradient3816">
      <stop
         style="stop-color:#ffffff;stop-opacity:1;"
         offset="0"
         id="stop3818" />
      <stop
         style="stop-color:#ffffff;stop-opacity:0;"
         offset="1"
         id="stop3820" />
    </linearGradient>
    <linearGradient
       id="linearGradient3833"
       inkscape:collect="always">
      <stop
         id="stop3835"
         offset="0"
         style="stop-color:#000000;stop-opacity:1;" />
      <stop
         id="stop3837"
         offset="1"
         style="stop-color:#000000;stop-opacity:0;" />
    </linearGradient>
    <linearGradient
       inkscape:collect="always"
       xlink:href="#linearGradient3789"
       id="linearGradient3108"
       gradientUnits="userSpaceOnUse"
       gradientTransform="matrix(0.28222223,0,0,-0.28222223,25.964434,290.22668)"
       x1="25"
       y1="1004.3622"
       x2="25"
       y2="1028.3622" />
    <linearGradient
       inkscape:collect="always"
       xlink:href="#linearGradient3816"
       id="linearGradient3111"
       gradientUnits="userSpaceOnUse"
       gradientTransform="matrix(0.28222223,0,0,0.28222223,13.546665,-276.68)"
       x1="25"
       y1="1004.3622"
       x2="25"
       y2="1028.3622" />
    <linearGradient
       gradientTransform="matrix(1,0,0,-1,0,2056.7244)"
       y2="1047.3622"
       x2="24"
       y1="1028.3622"
       x1="24"
       gradientUnits="userSpaceOnUse"
       id="linearGradient3985"
       xlink:href="#linearGradient3833-9"
       inkscape:collect="always" />
    <linearGradient
       gradientUnits="userSpaceOnUse"
       y2="1047.3622"
       x2="24"
       y1="1028.3622"
       x1="24"
       id="linearGradient3981"
       xlink:href="#linearGradient3816-1"
       inkscape:collect="always" />
    <linearGradient
       y2="48"
       x2="25"
       y1="24"
       x1="25"
       gradientTransform="translate(1.7289841e-6,1004.3622)"
       gradientUnits="userSpaceOnUse"
       id="linearGradient3181"
       xlink:href="#linearGradient3794-3"
       inkscape:collect="always" />
    <linearGradient
       y2="48"
       x2="25"
       y1="24"
       x1="25"
       gradientTransform="matrix(-1,0,0,-1,48,1052.3622)"
       gradientUnits="userSpaceOnUse"
       id="linearGradient3177"
       xlink:href="#linearGradient3807-0"
       inkscape:collect="always" />
    <linearGradient
       id="linearGradient3807-0">
      <stop
         style="stop-color:#000000;stop-opacity:1;"
         offset="0"
         id="stop3809-8" />
      <stop
         style="stop-color:#000000;stop-opacity:0;"
         offset="1"
         id="stop3811-3" />
    </linearGradient>
    <linearGradient
       id="linearGradient3794-3">
      <stop
         style="stop-color:#ffffff;stop-opacity:1;"
         offset="0"
         id="stop3796-8" />
      <stop
         style="stop-color:#ffffff;stop-opacity:0;"
         offset="1"
         id="stop3798-6" />
    </linearGradient>
    <linearGradient
       id="linearGradient4460-5">
      <stop
         offset="0"
         style="stop-color:#2d2d2d;stop-opacity:1;"
         id="stop7-9" />
      <stop
         offset="1"
         style="stop-color:#333333;stop-opacity:1;"
         id="stop9-2" />
    </linearGradient>
    <linearGradient
       id="linearGradient3824-5">
      <stop
         offset="0"
         style="stop-color:#2a94c8"
         id="stop12-3" />
      <stop
         offset=".519"
         style="stop-color:#e35472"
         id="stop14-3" />
      <stop
         offset="1"
         style="stop-color:#e68031"
         id="stop16-5" />
    </linearGradient>
    <linearGradient
       gradientTransform="matrix(1.09524,0,0,1.09524,-133.00183,-293.02198)"
       xlink:href="#linearGradient4460-5"
       id="linearGradient3835-5"
       y1="279.096"
       y2="268.33"
       gradientUnits="userSpaceOnUse"
       x2="0" />
    <linearGradient
       xlink:href="#linearGradient3824-5"
       id="linearGradient3830-0"
       x1=".847"
       x2="12.7"
       gradientUnits="userSpaceOnUse" />
    <linearGradient
       inkscape:collect="always"
       xlink:href="#linearGradient4460-5"
       id="linearGradient3010-2"
       gradientUnits="userSpaceOnUse"
       gradientTransform="matrix(1.0789327,0,0,1.0789327,-130.92035,-288.55891)"
       y1="279.096"
       x2="0"
       y2="268.33" />
    <clipPath
       id="clipPath3813-6"
       clipPathUnits="userSpaceOnUse">
      <path
         id="path3815-6"
         d="M 92.311,355.545 L 479.511,355.545 L 479.511,68.1846 L 92.311,68.1846 L 92.311,355.545 z" />
    </clipPath>
    <clipPath
       id="clipPath3809-4"
       clipPathUnits="userSpaceOnUse">
      <path
         id="path3811-2"
         d="M 93.311,69.185 L 478.511,69.185 L 478.511,354.545 L 93.311,354.545 L 93.311,69.185 z" />
    </clipPath>
    <clipPath
       id="clipPath3805-9"
       clipPathUnits="userSpaceOnUse">
      <path
         id="path3807-0"
         d="M 93.311,354.545 L 478.511,354.545 L 478.511,69.1846 L 93.311,69.1846 L 93.311,354.545 z" />
    </clipPath>
    <clipPath
       id="clipPath3801-5"
       clipPathUnits="userSpaceOnUse">
      <path
         id="path3803-9"
         d="M 95.311,352.545 L 476.403,352.545 L 476.403,71.4229 L 95.311,71.4229 L 95.311,352.545 z" />
    </clipPath>
    <clipPath
       id="clipPath3797-1"
       clipPathUnits="userSpaceOnUse">
      <rect
         id="rect3799-3"
         style="fill:#fff"
         height="96"
         y="-0"
         x="-100"
         width="96" />
    </clipPath>
    <clipPath
       id="clipPath3793-6"
       clipPathUnits="userSpaceOnUse">
      <path
         id="path3795-8"
         d="M 54.1,12.5 12.9,54.7 C -2.7,70.3 23,69 32.3,74.9 36.6,77.7 18.5,81.3 22.2,85 c 3.6,3.7 21.7,7.1 25.3,10.7 3.6,3.7 -7.3,7.6 -3.7,11.3 3.5,3.7 11.9,0.2 13.4,8.6 1.1,6.2 15.4,3.1 21.8,-2.2 4,-3.4 -6.9,-3.4 -3.3,-7.1 9,-9.1 17,-4.1 20.3,-12.5 1.8,-4.5 -13.6,-7.7 -9.5,-10.6 9.8,-6.9 45.8,-10.4 29.2,-27 L 73,12.5 c -5.3,-5 -14,-5 -18.9,0 z m -9.9,64.7 c 0.9,0 30.8,4 19.3,7.1 -4.4,1.2 -24.6,-7.1 -19.3,-7.1 z m 57.2,16.6 c 0,2.1 16.3,3.3 15.4,-0.5 -1.3,-6.4 -13.6,-5.9 -15.4,0.5 z m -69.5,11.1 c 3.7,3.2 9.3,-0.7 11.1,-5.2 -3.6,-4.7 -16.9,0.3 -11.1,5.2 z m 67.5,-6.7 c -4.6,4.2 0.8,8.6 5.3,5.7 1.2,-0.8 -0.1,-4.7 -5.3,-5.7 z" />
    </clipPath>
    <clipPath
       id="clipPath3789-1"
       clipPathUnits="userSpaceOnUse">
      <rect
         id="rect3791-8"
         style="fill:#fff"
         height="84"
         rx="6"
         y="6"
         x="6"
         width="84" />
    </clipPath>
    <clipPath
       id="clipPath3785-8"
       clipPathUnits="userSpaceOnUse">
      <rect
         id="rect3787-3"
         style="fill:#fff;fill-rule:evenodd"
         height="20"
         rx="2"
         y="1"
         x="1"
         width="20" />
    </clipPath>
    <linearGradient
       inkscape:collect="always"
       xlink:href="#linearGradient3794-3"
       id="linearGradient3800-5"
       x1="28"
       y1="28"
       x2="42"
       y2="44"
       gradientUnits="userSpaceOnUse" />
    <linearGradient
       inkscape:collect="always"
       xlink:href="#linearGradient3807-0"
       id="linearGradient3813-7"
       x1="28"
       y1="28"
       x2="11"
       y2="7"
       gradientUnits="userSpaceOnUse"
       gradientTransform="scale(0.28222223,0.28222223)" />
    <linearGradient
       inkscape:collect="always"
       xlink:href="#linearGradient3794-3"
       id="linearGradient3817-7"
       gradientUnits="userSpaceOnUse"
       x1="28"
       y1="28"
       x2="42"
       y2="44"
       gradientTransform="matrix(0.28222223,0,0,0.28222223,-15.239997,0)" />
    <linearGradient
       inkscape:collect="always"
       xlink:href="#linearGradient3807-0"
       id="linearGradient3024-4"
       gradientUnits="userSpaceOnUse"
       gradientTransform="matrix(0.28222223,0,0,0.28222223,-15.239997,0)"
       x1="28"
       y1="28"
       x2="11"
       y2="7" />
    <linearGradient
       inkscape:collect="always"
       xlink:href="#linearGradient3807-0"
       id="linearGradient3809-9"
       x1="25"
       y1="24"
       x2="25"
       y2="48"
       gradientUnits="userSpaceOnUse"
       gradientTransform="matrix(-0.28222223,0,0,-0.28222223,13.546667,13.546666)" />
    <linearGradient
       inkscape:collect="always"
       xlink:href="#linearGradient3794-3"
       id="linearGradient3814-3"
       gradientUnits="userSpaceOnUse"
       x1="25"
       y1="24"
       x2="25"
       y2="48"
       gradientTransform="matrix(0.28222223,0,0,0.28222223,5e-7,-6.3e-6)" />
    <linearGradient
       inkscape:collect="always"
       xlink:href="#linearGradient3807-0"
       id="linearGradient3818-7"
       gradientUnits="userSpaceOnUse"
       x1="25"
       y1="24"
       x2="25"
       y2="48"
       gradientTransform="matrix(0.28222223,0,0,0.28222223,14.675553,0)" />
    <radialGradient
       gradientUnits="userSpaceOnUse"
       r="24"
       fy="1028.3622"
       fx="24"
       cy="1028.3622"
       cx="24"
       id="radialGradient3839-7"
       xlink:href="#linearGradient3833-9"
       inkscape:collect="always" />
    <linearGradient
       y2="1028.3622"
       x2="25"
       y1="1004.3622"
       x1="25"
       gradientTransform="translate(0,24)"
       gradientUnits="userSpaceOnUse"
       id="linearGradient3814-8-7"
       xlink:href="#linearGradient3816-1"
       inkscape:collect="always" />
    <linearGradient
       gradientTransform="matrix(1,0,0,-1,0,2032.7244)"
       y2="1028.3622"
       x2="25"
       y1="1004.3622"
       x1="25"
       gradientUnits="userSpaceOnUse"
       id="linearGradient3799-2"
       xlink:href="#linearGradient3789-3"
       inkscape:collect="always" />
    <linearGradient
       y2="1116.0214"
       x2="535.50085"
       y1="1357.2667"
       x1="535.50085"
       gradientUnits="userSpaceOnUse"
       id="linearGradient3853-4"
       xlink:href="#linearGradient4460-36-4"
       inkscape:collect="always" />
    <linearGradient
       gradientUnits="userSpaceOnUse"
       y2="1116.0214"
       x2="535.50085"
       y1="1357.2667"
       x1="535.50085"
       id="linearGradient3851-1"
       xlink:href="#linearGradient4460-36-4"
       inkscape:collect="always" />
    <linearGradient
       y2="267.598"
       x2="0"
       y1="279.088"
       gradientTransform="matrix(3.9163464,0,0,3.9163464,-416.92123,-49.093523)"
       gradientUnits="userSpaceOnUse"
       id="linearGradient3842-3"
       xlink:href="#linearGradient4460-36-4"
       inkscape:collect="always" />
    <linearGradient
       y2="267.598"
       x2="0"
       y1="279.088"
       gradientTransform="matrix(1.10528,0,0,1.10528,-134.28289,-295.77061)"
       gradientUnits="userSpaceOnUse"
       id="linearGradient3837-8"
       xlink:href="#linearGradient4460-36-4"
       inkscape:collect="always" />
    <clipPath
       clipPathUnits="userSpaceOnUse"
       id="clipPath6-2">
      <path
         style="fill:#fff;fill-rule:evenodd"
         d="M -670.14006,51.863192 L -114.61564,405.00326 L -257.11075,510.32573 L -514.2215,-71.013029 L -670.14006,51.863192 z"
         id="path8-8" />
    </clipPath>
    <linearGradient
       id="linearGradient4460-3-4">
      <stop
         offset="0"
         style="stop-color:#f9d7c6"
         id="stop11-6" />
      <stop
         offset="1"
         style="stop-color:#f9f9ff"
         id="stop13-4" />
    </linearGradient>
    <linearGradient
       gradientTransform="translate(0,1e-5)"
       xlink:href="#linearGradient4460-3-4"
       id="linearGradient4030-0"
       x1="3.387"
       gradientUnits="userSpaceOnUse"
       x2="10.16" />
    <linearGradient
       id="linearGradient4460-36-4">
      <stop
         offset="0"
         style="stop-color:#cb3223"
         id="stop17-2" />
      <stop
         offset="1"
         style="stop-color:#e16913"
         id="stop19-5" />
    </linearGradient>
    <linearGradient
       gradientTransform="matrix(1.10528,0,0,1.10528,-134.28289,-295.77061)"
       xlink:href="#linearGradient4460-36-4"
       id="linearGradient4075-2"
       y1="279.088"
       y2="267.598"
       gradientUnits="userSpaceOnUse"
       x2="0" />
    <linearGradient
       id="linearGradient3789-3"
       inkscape:collect="always">
      <stop
         id="stop3791-1"
         offset="0"
         style="stop-color:#000000;stop-opacity:1;" />
      <stop
         id="stop3793-3"
         offset="1"
         style="stop-color:#000000;stop-opacity:0;" />
    </linearGradient>
    <linearGradient
       id="linearGradient3816-1">
      <stop
         style="stop-color:#ffffff;stop-opacity:1;"
         offset="0"
         id="stop3818-9" />
      <stop
         style="stop-color:#ffffff;stop-opacity:0;"
         offset="1"
         id="stop3820-0" />
    </linearGradient>
    <linearGradient
       id="linearGradient3833-9"
       inkscape:collect="always">
      <stop
         id="stop3835-9"
         offset="0"
         style="stop-color:#000000;stop-opacity:1;" />
      <stop
         id="stop3837-0"
         offset="1"
         style="stop-color:#000000;stop-opacity:0;" />
    </linearGradient>
    <linearGradient
       inkscape:collect="always"
       xlink:href="#linearGradient3789-3"
       id="linearGradient3108-0"
       gradientUnits="userSpaceOnUse"
       gradientTransform="matrix(0.28222223,0,0,-0.28222223,25.964434,290.22668)"
       x1="25"
       y1="1004.3622"
       x2="25"
       y2="1028.3622" />
    <linearGradient
       inkscape:collect="always"
       xlink:href="#linearGradient3816-1"
       id="linearGradient3111-7"
       gradientUnits="userSpaceOnUse"
       gradientTransform="matrix(0.28222223,0,0,0.28222223,13.546665,-276.68)"
       x1="25"
       y1="1004.3622"
       x2="25"
       y2="1028.3622" />
    <radialGradient
       gradientUnits="userSpaceOnUse"
       r="24"
       fy="1028.3622"
       fx="24"
       cy="1028.3622"
       cx="24"
       id="radialGradient3839-0"
       xlink:href="#linearGradient3833-4"
       inkscape:collect="always" />
    <linearGradient
       y2="1028.3622"
       x2="25"
       y1="1004.3622"
       x1="25"
       gradientTransform="translate(86,24)"
       gradientUnits="userSpaceOnUse"
       id="linearGradient3814-0"
       xlink:href="#linearGradient3816-5"
       inkscape:collect="always" />
    <linearGradient
       gradientTransform="matrix(1,0,0,-1,86,2032.7244)"
       y2="1028.3622"
       x2="25"
       y1="1004.3622"
       x1="25"
       gradientUnits="userSpaceOnUse"
       id="linearGradient3799-27"
       xlink:href="#linearGradient3789-0"
       inkscape:collect="always" />
    <linearGradient
       y2="1116.0214"
       x2="535.50085"
       y1="1357.2667"
       x1="535.50085"
       gradientUnits="userSpaceOnUse"
       id="linearGradient3853-8"
       xlink:href="#linearGradient4460-8"
       inkscape:collect="always" />
    <linearGradient
       gradientUnits="userSpaceOnUse"
       y2="1116.0214"
       x2="535.50085"
       y1="1357.2667"
       x1="535.50085"
       id="linearGradient3851-0"
       xlink:href="#linearGradient4460-8"
       inkscape:collect="always" />
    <linearGradient
       y2="267.598"
       x2="0"
       y1="279.088"
       gradientTransform="matrix(3.9163464,0,0,3.9163464,-416.92123,-49.093523)"
       gradientUnits="userSpaceOnUse"
       id="linearGradient3842-36"
       xlink:href="#linearGradient4460-8"
       inkscape:collect="always" />
    <linearGradient
       y2="267.598"
       x2="0"
       y1="279.088"
       gradientTransform="matrix(1.10528,0,0,1.10528,-134.28289,-295.77061)"
       gradientUnits="userSpaceOnUse"
       id="linearGradient3837-3"
       xlink:href="#linearGradient4460-8"
       inkscape:collect="always" />
    <clipPath
       clipPathUnits="userSpaceOnUse"
       id="clipPath6-4">
      <path
         style="fill:#fff;fill-rule:evenodd"
         d="M -670.14006,51.863192 L -114.61564,405.00326 L -257.11075,510.32573 L -514.2215,-71.013029 L -670.14006,51.863192 z"
         id="path8-3" />
    </clipPath>
    <linearGradient
       id="linearGradient4460-3-7">
      <stop
         offset="0"
         style="stop-color:#f9d7c6"
         id="stop11-7" />
      <stop
         offset="1"
         style="stop-color:#f9f9ff"
         id="stop13-8" />
    </linearGradient>
    <linearGradient
       gradientTransform="translate(0,1e-5)"
       xlink:href="#linearGradient4460-3-7"
       id="linearGradient4030-1"
       x1="3.387"
       gradientUnits="userSpaceOnUse"
       x2="10.16" />
    <linearGradient
       id="linearGradient4460-8">
      <stop
         offset="0"
         style="stop-color:#cb3223"
         id="stop17-1" />
      <stop
         offset="1"
         style="stop-color:#e16913"
         id="stop19-6" />
    </linearGradient>
    <linearGradient
       gradientTransform="matrix(1.10528,0,0,1.10528,-134.28289,-295.77061)"
       xlink:href="#linearGradient4460-8"
       id="linearGradient4075-4"
       y1="279.088"
       y2="267.598"
       gradientUnits="userSpaceOnUse"
       x2="0" />
    <linearGradient
       id="linearGradient3789-0"
       inkscape:collect="always">
      <stop
         id="stop3791-0"
         offset="0"
         style="stop-color:#000000;stop-opacity:1;" />
      <stop
         id="stop3793-5"
         offset="1"
         style="stop-color:#000000;stop-opacity:0;" />
    </linearGradient>
    <linearGradient
       id="linearGradient3816-5">
      <stop
         style="stop-color:#ffffff;stop-opacity:1;"
         offset="0"
         id="stop3818-0" />
      <stop
         style="stop-color:#ffffff;stop-opacity:0;"
         offset="1"
         id="stop3820-8" />
    </linearGradient>
    <linearGradient
       id="linearGradient3833-4"
       inkscape:collect="always">
      <stop
         id="stop3835-95"
         offset="0"
         style="stop-color:#000000;stop-opacity:1;" />
      <stop
         id="stop3837-2"
         offset="1"
         style="stop-color:#000000;stop-opacity:0;" />
    </linearGradient>
    <linearGradient
       inkscape:collect="always"
       xlink:href="#linearGradient3794-2"
       id="linearGradient3814-4"
       gradientUnits="userSpaceOnUse"
       x1="25"
       y1="24"
       x2="25"
       y2="48"
       gradientTransform="matrix(0.28222223,0,0,0.28222223,6.7916667e-7,0.56443817)" />
    <linearGradient
       id="linearGradient3794-2">
      <stop
         style="stop-color:#ffffff;stop-opacity:1;"
         offset="0"
         id="stop3796-5" />
      <stop
         style="stop-color:#ffffff;stop-opacity:0;"
         offset="1"
         id="stop3798-4" />
    </linearGradient>
    <linearGradient
       inkscape:collect="always"
       xlink:href="#linearGradient3807-2"
       id="linearGradient3809-1"
       x1="25"
       y1="24"
       x2="25"
       y2="48"
       gradientUnits="userSpaceOnUse"
       gradientTransform="matrix(-0.28222223,0,0,-0.28222223,13.546659,14.11111)" />
    <linearGradient
       id="linearGradient3807-2">
      <stop
         style="stop-color:#000000;stop-opacity:1;"
         offset="0"
         id="stop3809-9" />
      <stop
         style="stop-color:#000000;stop-opacity:0;"
         offset="1"
         id="stop3811-1" />
    </linearGradient>
    <linearGradient
       inkscape:collect="always"
       xlink:href="#linearGradient3794-2-5"
       id="linearGradient3814-4-2"
       gradientUnits="userSpaceOnUse"
       x1="25"
       y1="24"
       x2="25"
       y2="48"
       gradientTransform="matrix(0.28222223,0,0,0.28222223,6.7399158e-7,-6.3183333e-6)" />
    <linearGradient
       id="linearGradient3794-2-5">
      <stop
         style="stop-color:#ffffff;stop-opacity:1;"
         offset="0"
         id="stop3796-5-9" />
      <stop
         style="stop-color:#ffffff;stop-opacity:0;"
         offset="1"
         id="stop3798-4-5" />
    </linearGradient>
    <linearGradient
       inkscape:collect="always"
       xlink:href="#linearGradient3807-2-1"
       id="linearGradient3809-1-5"
       x1="25"
       y1="24"
       x2="25"
       y2="48"
       gradientUnits="userSpaceOnUse"
       gradientTransform="matrix(-0.28222223,0,0,-0.28222223,13.546659,13.546666)" />
    <linearGradient
       id="linearGradient3807-2-1">
      <stop
         style="stop-color:#000000;stop-opacity:1;"
         offset="0"
         id="stop3809-9-5" />
      <stop
         style="stop-color:#000000;stop-opacity:0;"
         offset="1"
         id="stop3811-1-9" />
    </linearGradient>
    <linearGradient
       inkscape:collect="always"
       xlink:href="#linearGradient4073"
       id="linearGradient4079"
       x1="-25.499998"
       y1="15"
       x2="-25.499998"
       y2="11"
       gradientUnits="userSpaceOnUse" />
    <linearGradient
       id="linearGradient4073">
      <stop
         style="stop-color:#4283e5;stop-opacity:1;"
         offset="0"
         id="stop4075" />
      <stop
         style="stop-color:#6ca4f8;stop-opacity:1;"
         offset="1"
         id="stop4077" />
    </linearGradient>
    <linearGradient
       y2="11"
       x2="-25.499998"
       y1="15"
       x1="-25.499998"
       gradientUnits="userSpaceOnUse"
       id="linearGradient4086"
       xlink:href="#linearGradient4073"
       inkscape:collect="always" />
    <linearGradient
       inkscape:collect="always"
       xlink:href="#linearGradient3798-7"
       id="linearGradient4033"
       x1="-27"
       y1="13"
       x2="-24"
       y2="13"
       gradientUnits="userSpaceOnUse" />
    <linearGradient
       id="linearGradient3798-7">
      <stop
         style="stop-color:#fd9732;stop-opacity:1;"
         offset="0"
         id="stop3800-5" />
      <stop
         style="stop-color:#ffaa56;stop-opacity:1;"
         offset="1"
         id="stop3802-3" />
    </linearGradient>
    <linearGradient
       y2="13"
       x2="-24"
       y1="13"
       x1="-27"
       gradientUnits="userSpaceOnUse"
       id="linearGradient4245"
       xlink:href="#linearGradient3798-7"
       inkscape:collect="always" />
  </defs>
  <g
     inkscape:groupmode="layer"
     id="layer3"
     inkscape:label="Border&amp;Shadow"
     sodipodi:insensitive="true"
     style="display:inline">
    <rect
       width="12.982223"
       x="0.28222224"
       y="0.56444442"
       rx="6.4911113"
       height="12.982223"
       style="opacity:0.18000004;fill:#000000;fill-opacity:1;fill-rule:evenodd;display:inline"
       id="rect3026" />
    <rect
       id="rect22"
       style="fill:#f9f9f9;fill-opacity:1;fill-rule:evenodd;display:inline"
       height="12.982223"
       rx="6.4911113"
       y="0.28222224"
       x="0.28222224"
       width="12.982223" />
  </g>
  <g
     inkscape:groupmode="layer"
     id="layer4"
     inkscape:label="Background"
     style="display:inline">
    <path
       id="path3021"
       style="fill:#ffd8b2;fill-opacity:1;display:inline"
       d="m 12.699999,6.7734035 c 0,-3.2731867 -2.653456,-5.92673568 -5.9265966,-5.92673568 -3.2733024,0 -5.92673571,2.65354898 -5.92673571,5.92673568 0,3.2732795 2.65345651,5.9265965 5.92673571,5.9265965 3.2731406,0 5.9265966,-2.653364 5.9265966,-5.9265965 z"
       inkscape:connector-curvature="0" />
  </g>
  <g
     inkscape:groupmode="layer"
     id="layer1"
     inkscape:label="Symbol"
     style="display:inline">
    <path
       inkscape:connector-curvature="0"
       id="path3393"
       d="m 3.9511373,9.3115092 -0.2124064,0 -0.2124062,0 c -0.0116,-0.0124 -0.1112234,-0.51549 -0.2213819,-1.08744 -0.1140744,-0.4819 -0.2002438,-1.2361501 -0.2004969,-1.72889 -2.33e-4,-0.4577899 0.029041,-0.9330099 0.159633,-1.33617 0.3076125,-0.9496699 1.0550038,-1.7386399 1.9985372,-2.1097199 0.1154936,-0.0454 0.3449857,-0.1142 0.5099809,-0.15284 0.5155759,-0.10978 1.5095301,-0.0849 1.9739496,-0.008 0.710881,0.16496 1.210783,0.43728 1.702437,0.92741 0.499896,0.49835 0.7910364,1.03319 0.9421974,1.7308799 0.04343,0.2004401 0.05137,0.5862001 0.05103,0.9489 10e-6,0.56031 -0.104373,1.24954 -0.196973,1.72875 -0.108117,0.55952 -0.20543,1.06879 -0.216249,1.08744 l -0.4334604,0 -1.411154,-0.84599 1.59404,-0.79973 c 0.02402,-0.024 0.08529,-0.76368 0.09935,-0.9611198 0.01145,-0.1609401 0.02538,-0.1970202 0,-0.2130301 -0.01753,-0.0111 -0.146055,1.899e-4 -0.285605,0 -0.278857,0 -0.278857,0 -0.278857,-0.28199 9.3e-5,-2.96827 -5.089339,-3.02401 -5.0799292,-1.4e-4 0,0.28199 0,0.28199 -0.2425979,0.28199 l -0.3218641,0 0.0036,0.1958301 c 0.00351,0.1907799 0.077668,0.9469098 0.1092923,0.9784598 l 1.5804937,0.79973 z"
       style="fill:#ffab57;fill-opacity:1"
       sodipodi:nodetypes="cccccssccsccccccccccccccsccc" />
    <path
       style="fill:#a1886a;fill-opacity:1"
       d="m 4.8152633,7.2317992 c -0.051177,0.002 -0.1038927,0.006 -0.158755,0.0264 -0.3282973,0.10799 -0.5316664,0.2187 -0.8731522,0.40537 l 0.1675748,1.64791 0.061738,0.37893 c 0.06261,0.3172098 0.079193,0.3686208 0.1322957,0.4141808 0.059334,0.0509 0.07315,0.0529 0.6085606,0.0529 l 0.3527888,0 c 0.2712267,-0.009 0.3118312,-0.0432 0.4057073,-0.14982 C 5.6527615,9.8477912 5.655012,9.8746812 5.4238243,8.6505702 5.285497,7.9181502 5.2005734,7.5107002 5.1680524,7.4432802 5.0976854,7.2974302 4.9687948,7.2259002 4.8152637,7.2317902 z"
       id="path4061"
       inkscape:connector-curvature="0"
       sodipodi:nodetypes="scccccscsscs" />
    <path
       id="path4083"
       d="m 8.6962486,7.2317992 c 0.05118,0.002 0.103893,0.006 0.158755,0.0264 0.368654,0.0596 0.582018,0.22089 0.923504,0.40756 l -0.182886,1.6457201 -0.0604,0.3806899 c -0.03479,0.3172098 -0.08312,0.3853898 -0.136226,0.4309398 -0.05933,0.0509 -0.1056,0.0343 -0.641011,0.0343 l -0.352789,0 c -0.271226,-0.009 -0.311831,-0.0432 -0.405707,-0.14981 -0.14074,-0.1598788 -0.142991,-0.1329888 0.0882,-1.3570998 0.138327,-0.73242 0.223251,-1.13987 0.255772,-1.20729 0.09848,-0.165263 0.229551,-0.211273 0.352789,-0.21141 z"
       style="fill:#a1886a;fill-opacity:1"
       inkscape:connector-curvature="0"
       sodipodi:nodetypes="ccccccscsscc" />
    <path
       style="fill:#ffab57;fill-opacity:1;stroke:none"
       d="M 4.2331972,7.4283532 C 3.950975,7.5607382 3.950975,7.5727182 3.7834055,7.6640942 l -0.396875,0.802569 0.5644445,0.846667 0.061736,0.379236 C 4.075321,10.009776 4.0919,10.06152 4.1450027,10.10708 4.2043367,10.15798 4.2181337,10.16 4.7535444,10.16 l 0.044097,0 z"
       id="path4091"
       inkscape:connector-curvature="0"
       sodipodi:nodetypes="ccccccscc" />
    <path
       style="fill:#ffab57;fill-opacity:1;stroke:none"
       d="m 9.3131976,7.4065762 -0.564445,2.7534208 0.0088,0 0.502709,0 c 0.08591,-0.0022 0.111444,-0.0098 0.141111,-0.03528 0.0531,-0.04555 0.0975,-0.114943 0.132291,-0.4321528 l 0.061756,-0.379234 0.5644444,-0.846667 -0.3792364,-0.802569 c -0.297073,-0.162393 -0.185208,-0.119024 -0.46743,-0.257518 z"
       id="path4111"
       inkscape:connector-curvature="0"
       sodipodi:nodetypes="cccccccccc" />
  </g>
  <g
     inkscape:groupmode="layer"
     id="layer2"
     inkscape:label="Fold&amp;Inner Shadow"
     style="display:inline"
     sodipodi:insensitive="true">
    <path
       inkscape:connector-curvature="0"
       style="opacity:0.2;fill:#000000;fill-opacity:1;display:inline"
       d="m 6.7733335,0.84666669 c -3.2733023,0 -5.92666681,2.65348021 -5.92666681,5.92666681 0,0.046723 -0.001075,0.094647 0,0.1411111 0.0742608,-3.2086195 2.70008781,-5.7855557 5.92666681,-5.7855557 3.2264196,0 5.8524055,2.5769362 5.9266665,5.7855557 0.0011,-0.046464 0,-0.094389 0,-0.1411111 0,-3.2731866 -2.653526,-5.92666681 -5.9266665,-5.92666681 z"
       id="path3121" />
    <path
       id="path3812"
       d="M 0.84666669,6.7733318 C 0.84666669,10.046613 3.5000518,12.7 6.7733276,12.7 c 3.2731384,0 5.9266644,-2.653434 5.9266644,-5.9266682 l -11.85332531,0 z"
       style="opacity:0.05;fill:url(#linearGradient3814-4-2);fill-opacity:1;stroke:none;display:inline"
       inkscape:connector-curvature="0" />
    <path
       style="opacity:0.05;fill:url(#linearGradient3809-1-5);fill-opacity:1;stroke:none;display:inline"
       d="m 12.699992,6.7733315 c 0,-3.2732792 -2.653389,-5.92666626 -5.9266644,-5.92666626 -3.273137,0 -5.92666091,2.65343396 -5.92666091,5.92666626 l 11.85332531,0 z"
       id="rect3796"
       inkscape:connector-curvature="0" />
  </g>
</svg>
