<svg viewBox="0 0 48 48"><defs><linearGradient id="linearGradient3764" x1="1" x2="47" gradientUnits="userSpaceOnUse" gradientTransform="translate(-48.000001,0.00221467)"><stop stop-color="#efefef" stop-opacity="1"/><stop offset="1" stop-color="#f9f9f9" stop-opacity="1"/></linearGradient><clipPath id="clipPath-374079656"><g transform="translate(0,-1004.3622)"><rect rx="4" y="1005.36" x="1" height="46" width="46" fill="#1890d0"/></g></clipPath><clipPath id="clipPath-387663674"><g transform="translate(0,-1004.3622)"><rect rx="4" y="1005.36" x="1" height="46" width="46" fill="#1890d0"/></g></clipPath><clipPath><rect rx="4" y="1006.36" x="2" height="44" width="44" fill="#000"/></clipPath><clipPath><rect rx="4" y="1006.36" x="2" height="44" width="44" fill="#000"/></clipPath><clipPath><rect rx="4" y="1006.36" x="2" height="44" width="44" fill="#000"/></clipPath><clipPath><rect rx="4" y="1006.36" x="2" height="44" width="44" fill="#000"/></clipPath><clipPath><rect rx="4" y="1006.36" x="2" height="44" width="44" fill="#000"/></clipPath><clipPath><rect rx="4" y="1006.36" x="2" height="44" width="44" fill="#000"/></clipPath><clipPath><rect rx="4" y="1006.36" x="2" height="44" width="44" fill="none"/></clipPath><clipPath><rect rx="4" y="1006.36" x="2" height="44" width="44" fill="none"/></clipPath><clipPath><rect rx="4" y="1006.36" x="2" height="44" width="44" fill="none"/></clipPath><clipPath><rect rx="4" y="1006.36" x="2" height="44" width="44" fill="none"/></clipPath><clipPath><rect rx="4" y="1006.36" x="2" height="44" width="44" fill="none"/></clipPath><clipPath><rect rx="4" y="1006.36" x="2" height="44" width="44" fill="none"/></clipPath></defs><g><path d="m 1 43 l 0 0.25 c 0 2.216 1.784 4 4 4 l 38 0 c 2.216 0 4 -1.784 4 -4 l 0 -0.25 c 0 2.216 -1.784 4 -4 4 l -38 0 c -2.216 0 -4 -1.784 -4 -4 z m 0 0.5 l 0 0.5 c 0 2.216 1.784 4 4 4 l 38 0 c 2.216 0 4 -1.784 4 -4 l 0 -0.5 c 0 2.216 -1.784 4 -4 4 l -38 0 c -2.216 0 -4 -1.784 -4 -4 z" opacity="0.02"/><path d="m 1 43.25 l 0 0.25 c 0 2.216 1.784 4 4 4 l 38 0 c 2.216 0 4 -1.784 4 -4 l 0 -0.25 c 0 2.216 -1.784 4 -4 4 l -38 0 c -2.216 0 -4 -1.784 -4 -4 z" opacity="0.05"/><path d="m 1 43 l 0 0.25 c 0 2.216 1.784 4 4 4 l 38 0 c 2.216 0 4 -1.784 4 -4 l 0 -0.25 c 0 2.216 -1.784 4 -4 4 l -38 0 c -2.216 0 -4 -1.784 -4 -4 z" opacity="0.1"/></g><g><rect width="46" height="46" x="-47" y="1" rx="4" transform="matrix(0,-1,1,0,0,0)" fill="url(#linearGradient3764)" fill-opacity="1"/></g><g><g clip-path="url(#clipPath-374079656)"><g opacity="0.1"><!-- color: #f9f9f9 --><path d="m 32 24 c 0 4.418 -3.582 8 -8 8 -4.418 0 -8 -3.582 -8 -8 0 -4.418 3.582 -8 8 -8 4.418 0 8 3.582 8 8 z" fill="#000"/><path d="m 32.525 24 a 9 9 0 1 1 -18 0 9 9 0 1 1 18 0 z" transform="matrix(1.1075372,0,0,1.1075372,-2.0543223,-2.5808366)" fill="#000"/><path d="m 39 23 a 8 8 0 1 1 -16 0 8 8 0 1 1 16 0 z" transform="matrix(0.9967835,0,0,0.9967835,-6.9002879,1.0740366)" fill="#000"/><path d="m 31.36 19.04 16.64 -0.037 c 0 -6 0 -13 0 -19 -15.333 0 -30.667 0 -46 0 l 13.14 22.662 c 0.202 -1.3 0.67 -2.553 1.406 -3.656 0.736 -1.103 1.741 -2.041 2.969 -2.75 1.076 -0.621 2.215 -1.012 3.375 -1.156 1.16 -0.144 2.356 -0.048 3.469 0.25 1.112 0.298 2.161 0.795 3.094 1.5 0.759 0.573 1.345 1.366 1.906 2.187 z" fill="#000"/><path d="m 24.675 32.897 -8.675 15.1 c 9 0 29 0 32 0 0 -4 0 -25 0 -31 l -18.444 0 c 1.025 0.825 1.965 1.895 2.552 3.085 0.587 1.189 0.897 2.528 0.897 3.946 0 1.243 -0.231 2.424 -0.686 3.501 -0.455 1.077 -1.137 2.065 -1.951 2.879 -0.814 0.814 -1.769 1.474 -2.846 1.929 -0.876 0.371 -1.856 0.482 -2.848 0.557 z" fill="#000"/><path d="m 16.01 20.18 -12.01 -20.18 c -2 0 -3 0 -4 0 c 0 8 0 41 0 48 7 0 12 0 18 0 l 9.263 -15.589 c -1.227 0.475 -2.546 0.696 -3.87 0.61 -1.324 -0.086 -2.638 -0.487 -3.866 -1.196 -1.076 -0.621 -1.984 -1.412 -2.689 -2.345 -0.705 -0.933 -1.22 -2.02 -1.518 -3.129 -0.298 -1.112 -0.392 -2.269 -0.248 -3.429 0.117 -0.944 0.51 -1.848 0.941 -2.745 z" fill="#000"/><path d="m 33 24 a 9 9 0 0 1 -18 0 9 9 0 1 1 18 0 z" fill="#000"/><path d="m 31 24 a 7 7 0 0 1 -14 0 7 7 0 1 1 14 0 z" fill="#000"/></g></g></g><g><g clip-path="url(#clipPath-387663674)"><g transform="translate(0,-1)"><!-- color: #f9f9f9 --><path d="m 32 24 c 0 4.418 -3.582 8 -8 8 -4.418 0 -8 -3.582 -8 -8 0 -4.418 3.582 -8 8 -8 4.418 0 8 3.582 8 8 z" fill="#219eca"/><path d="m 32.525 24 a 9 9 0 1 1 -18 0 9 9 0 1 1 18 0 z" transform="matrix(1.1075372,0,0,1.1075372,-2.0543223,-2.5808366)" fill="#f9f9f9"/><path d="m 39 23 a 8 8 0 1 1 -16 0 8 8 0 1 1 16 0 z" transform="matrix(0.9967835,0,0,0.9967835,-6.9002879,1.0740366)" fill="#23a0cb"/><path d="m 31.36 19.04 16.64 -0.037 c 0 -6 0 -13 0 -19 -15.333 0 -30.667 0 -46 0 l 13.14 22.662 c 0.202 -1.3 0.67 -2.553 1.406 -3.656 0.736 -1.103 1.741 -2.041 2.969 -2.75 1.076 -0.621 2.215 -1.012 3.375 -1.156 1.16 -0.144 2.356 -0.048 3.469 0.25 1.112 0.298 2.161 0.795 3.094 1.5 0.759 0.573 1.345 1.366 1.906 2.187 z" fill="#db4b2a"/><path d="m 24.675 32.897 -8.675 15.1 c 9 0 29 0 32 0 0 -4 0 -25 0 -31 l -18.444 0 c 1.025 0.825 1.965 1.895 2.552 3.085 0.587 1.189 0.897 2.528 0.897 3.946 0 1.243 -0.231 2.424 -0.686 3.501 -0.455 1.077 -1.137 2.065 -1.951 2.879 -0.814 0.814 -1.769 1.474 -2.846 1.929 -0.876 0.371 -1.856 0.482 -2.848 0.557 z" fill="#e2c63f"/><path d="m 16.01 20.18 -12.01 -20.18 c -2 0 -3 0 -4 0 c 0 8 0 41 0 48 7 0 12 0 18 0 l 9.263 -15.589 c -1.227 0.475 -2.546 0.696 -3.87 0.61 -1.324 -0.086 -2.638 -0.487 -3.866 -1.196 -1.076 -0.621 -1.984 -1.412 -2.689 -2.345 -0.705 -0.933 -1.22 -2.02 -1.518 -3.129 -0.298 -1.112 -0.392 -2.269 -0.248 -3.429 0.117 -0.944 0.51 -1.848 0.941 -2.745 z" fill="#65bd69"/><path d="m 33 24 a 9 9 0 0 1 -18 0 9 9 0 1 1 18 0 z" fill="#f9f9f9"/><path d="m 31 24 a 7 7 0 0 1 -14 0 7 7 0 1 1 14 0 z" fill="#23a0cb"/></g></g></g><g><g transform="translate(0,-1004.3622)"><path d="m 1 1043.36 0 4 c 0 2.216 1.784 4 4 4 l 38 0 c 2.216 0 4 -1.784 4 -4 l 0 -4 c 0 2.216 -1.784 4 -4 4 l -38 0 c -2.216 0 -4 -1.784 -4 -4 z" opacity="0.1"/></g></g></svg>