<svg viewBox="0 0 48 48"><defs><linearGradient id="linearGradient3764" x1="1" x2="47" gradientUnits="userSpaceOnUse" gradientTransform="translate(-48.000001,0.00221467)"><stop stop-color="#59a7e3" stop-opacity="1"/><stop offset="1" stop-color="#6ab1e6" stop-opacity="1"/></linearGradient><clipPath id="clipPath-473943983"><g transform="translate(0,-1004.3622)"><rect rx="4" y="1005.36" x="1" height="46" width="46" fill="#1890d0"/></g></clipPath><clipPath id="clipPath-486614861"><g transform="translate(0,-1004.3622)"><rect rx="4" y="1005.36" x="1" height="46" width="46" fill="#1890d0"/></g></clipPath></defs><g><path d="m 1 43 l 0 0.25 c 0 2.216 1.784 4 4 4 l 38 0 c 2.216 0 4 -1.784 4 -4 l 0 -0.25 c 0 2.216 -1.784 4 -4 4 l -38 0 c -2.216 0 -4 -1.784 -4 -4 z m 0 0.5 l 0 0.5 c 0 2.216 1.784 4 4 4 l 38 0 c 2.216 0 4 -1.784 4 -4 l 0 -0.5 c 0 2.216 -1.784 4 -4 4 l -38 0 c -2.216 0 -4 -1.784 -4 -4 z" opacity="0.02"/><path d="m 1 43.25 l 0 0.25 c 0 2.216 1.784 4 4 4 l 38 0 c 2.216 0 4 -1.784 4 -4 l 0 -0.25 c 0 2.216 -1.784 4 -4 4 l -38 0 c -2.216 0 -4 -1.784 -4 -4 z" opacity="0.05"/><path d="m 1 43 l 0 0.25 c 0 2.216 1.784 4 4 4 l 38 0 c 2.216 0 4 -1.784 4 -4 l 0 -0.25 c 0 2.216 -1.784 4 -4 4 l -38 0 c -2.216 0 -4 -1.784 -4 -4 z" opacity="0.1"/></g><g><rect width="46" height="46" x="-47" y="1" rx="4" transform="matrix(0,-1,1,0,0,0)" fill="url(#linearGradient3764)" fill-opacity="1"/></g><g><g clip-path="url(#clipPath-473943983)"><g opacity="0.1"><!-- color: #6ab1e6 --><g><path d="m 23.938 12 l -2.438 2.75 l -3.5 -0.75 l -1 3 l -3.5 1 l 1 3.5 l -2.5 2.5 l 2.5 2.75 l -1 3.25 l 3.5 1 l 1 3.5 l 3.5 -1 l 2.5 2.5 l 2.5 -2.5 l 3.5 1 l 1 -3.5 l 3.5 -1 l -1 -3.5 l 2.5 -2.5 l -2.5 -2.5 l 0.5 -3.5 l -3 -1 l -1 -3.25 c -1.32 0.316 -2.281 0.605 -3.5 1 m -2.5 1.25 c 4.418 0 8 3.582 8 8 c 0 4.418 -3.582 8 -8 8 c -4.418 0 -8 -3.582 -8 -8 c 0 -4.418 3.582 -8 8 -8 m 0 0" fill="#000"/><path d="m 22.609 30.898 c -2.875 -0.641 -4.914 -2.719 -5.496 -5.586 c -0.184 -0.922 -0.141 -2.234 0.105 -3.148 c 0.641 -2.387 2.586 -4.324 5.02 -4.988 c 0.84 -0.234 2.719 -0.234 3.563 0 c 2.445 0.672 4.355 2.586 5.03 5.04 c 0.23 0.832 0.23 2.715 -0.004 3.566 c -0.66 2.441 -2.559 4.355 -4.98 5.02 c -0.793 0.215 -2.473 0.27 -3.234 0.098 m 0 0" fill="#000"/></g></g></g></g><g><g clip-path="url(#clipPath-486614861)"><g transform="translate(0,-1)"><!-- color: #6ab1e6 --><g><path d="m 23.938 12 l -2.438 2.75 l -3.5 -0.75 l -1 3 l -3.5 1 l 1 3.5 l -2.5 2.5 l 2.5 2.75 l -1 3.25 l 3.5 1 l 1 3.5 l 3.5 -1 l 2.5 2.5 l 2.5 -2.5 l 3.5 1 l 1 -3.5 l 3.5 -1 l -1 -3.5 l 2.5 -2.5 l -2.5 -2.5 l 0.5 -3.5 l -3 -1 l -1 -3.25 c -1.32 0.316 -2.281 0.605 -3.5 1 m -2.5 1.25 c 4.418 0 8 3.582 8 8 c 0 4.418 -3.582 8 -8 8 c -4.418 0 -8 -3.582 -8 -8 c 0 -4.418 3.582 -8 8 -8 m 0 0" fill="#f4a14c"/><path d="m 22.609 30.898 c -2.875 -0.641 -4.914 -2.719 -5.496 -5.586 c -0.184 -0.922 -0.141 -2.234 0.105 -3.148 c 0.641 -2.387 2.586 -4.324 5.02 -4.988 c 0.84 -0.234 2.719 -0.234 3.563 0 c 2.445 0.672 4.355 2.586 5.03 5.04 c 0.23 0.832 0.23 2.715 -0.004 3.566 c -0.66 2.441 -2.559 4.355 -4.98 5.02 c -0.793 0.215 -2.473 0.27 -3.234 0.098 m 0 0" fill="#f4a14c"/></g></g></g></g><g><g transform="translate(0,-1004.3622)"><path d="m 1 1043.36 0 4 c 0 2.216 1.784 4 4 4 l 38 0 c 2.216 0 4 -1.784 4 -4 l 0 -4 c 0 2.216 -1.784 4 -4 4 l -38 0 c -2.216 0 -4 -1.784 -4 -4 z" opacity="0.1"/></g></g></svg>