<svg viewBox="0 0 48 48"><defs><linearGradient id="linearGradient3764" x1="1" x2="47" gradientUnits="userSpaceOnUse" gradientTransform="translate(-48.000001,0.00221467)"><stop stop-color="#ffa201" stop-opacity="1"/><stop offset="1" stop-color="#ffab15" stop-opacity="1"/></linearGradient><clipPath id="clipPath-871791540"><g transform="translate(0,-1004.3622)"><rect rx="4" y="1005.36" x="1" height="46" width="46" fill="#1890d0"/></g></clipPath><clipPath id="clipPath-885098923"><g transform="translate(0,-1004.3622)"><rect rx="4" y="1005.36" x="1" height="46" width="46" fill="#1890d0"/></g></clipPath></defs><g><path d="m 1 43 l 0 0.25 c 0 2.216 1.784 4 4 4 l 38 0 c 2.216 0 4 -1.784 4 -4 l 0 -0.25 c 0 2.216 -1.784 4 -4 4 l -38 0 c -2.216 0 -4 -1.784 -4 -4 z m 0 0.5 l 0 0.5 c 0 2.216 1.784 4 4 4 l 38 0 c 2.216 0 4 -1.784 4 -4 l 0 -0.5 c 0 2.216 -1.784 4 -4 4 l -38 0 c -2.216 0 -4 -1.784 -4 -4 z" opacity="0.02"/><path d="m 1 43.25 l 0 0.25 c 0 2.216 1.784 4 4 4 l 38 0 c 2.216 0 4 -1.784 4 -4 l 0 -0.25 c 0 2.216 -1.784 4 -4 4 l -38 0 c -2.216 0 -4 -1.784 -4 -4 z" opacity="0.05"/><path d="m 1 43 l 0 0.25 c 0 2.216 1.784 4 4 4 l 38 0 c 2.216 0 4 -1.784 4 -4 l 0 -0.25 c 0 2.216 -1.784 4 -4 4 l -38 0 c -2.216 0 -4 -1.784 -4 -4 z" opacity="0.1"/></g><g><rect width="46" height="46" x="-47" y="1" rx="4" transform="matrix(0,-1,1,0,0,0)" fill="url(#linearGradient3764)" fill-opacity="1"/></g><g><g clip-path="url(#clipPath-871791540)"><g opacity="0.1"><!-- color: #ffab15 --><g><path d="m 14 14 c 0 0 0 19 0 19.04 l 6.625 0 c 4.508 -0.004 5.375 -0.039 5.375 -1.039 c 0 -1 -3.359 -0.996 -6 -1 l -4 0 l 0 -15 l 15 0 l 0 4.949 c 0 3.168 0.59 5.531 1 5.531 c 0.418 0 1 -2.82 1 -6.48 l 0 -6 m -12.75 3.73 c -2.496 0 -3.727 4.01 -1.5 4.891 c 0.672 0.266 2.406 -0.262 4 -1.16 c 3.215 -1.813 4.152 -1.52 2.25 0.645 c -1.023 1.164 -1.07 1.414 -0.25 1.414 c 2.473 0 3.813 -4.02 1.625 -4.887 c -0.617 -0.246 -2.262 0.297 -3.75 1.156 c -3.48 2.01 -3.922 1.977 -2.5 -0.258 c 0.957 -1.5 0.949 -1.801 0.125 -1.801 m 3.75 7.332 c -0.953 0.082 -0.82 0.613 0 2.188 c 0.805 1.551 1.703 1.375 2.75 -0.641 c 0.551 -1.063 0.359 -1.41 -1.375 -1.547 c -0.574 -0.043 -1.059 -0.023 -1.375 0 m 4.875 1.289 l -1.375 1.672 c -0.75 0.926 -1.375 1.855 -1.375 2.059 c 0 0.199 1.715 1.699 3.75 3.215 l 3.625 2.703 l 1.25 -1.672 c 0.684 -0.914 1.242 -1.844 1.25 -2.059 c 0.008 -0.215 -1.527 -1.57 -3.5 -3.09 m -3.625 -2.828" fill="#000"/></g></g></g></g><g><g clip-path="url(#clipPath-885098923)"><g transform="translate(0,-1)"><!-- color: #ffab15 --><g><path d="m 14 14 c 0 0 0 19 0 19.04 l 6.625 0 c 4.508 -0.004 5.375 -0.039 5.375 -1.039 c 0 -1 -3.359 -0.996 -6 -1 l -4 0 l 0 -15 l 15 0 l 0 4.949 c 0 3.168 0.59 5.531 1 5.531 c 0.418 0 1 -2.82 1 -6.48 l 0 -6 m -12.75 3.73 c -2.496 0 -3.727 4.01 -1.5 4.891 c 0.672 0.266 2.406 -0.262 4 -1.16 c 3.215 -1.813 4.152 -1.52 2.25 0.645 c -1.023 1.164 -1.07 1.414 -0.25 1.414 c 2.473 0 3.813 -4.02 1.625 -4.887 c -0.617 -0.246 -2.262 0.297 -3.75 1.156 c -3.48 2.01 -3.922 1.977 -2.5 -0.258 c 0.957 -1.5 0.949 -1.801 0.125 -1.801 m 3.75 7.332 c -0.953 0.082 -0.82 0.613 0 2.188 c 0.805 1.551 1.703 1.375 2.75 -0.641 c 0.551 -1.063 0.359 -1.41 -1.375 -1.547 c -0.574 -0.043 -1.059 -0.023 -1.375 0 m 4.875 1.289 l -1.375 1.672 c -0.75 0.926 -1.375 1.855 -1.375 2.059 c 0 0.199 1.715 1.699 3.75 3.215 l 3.625 2.703 l 1.25 -1.672 c 0.684 -0.914 1.242 -1.844 1.25 -2.059 c 0.008 -0.215 -1.527 -1.57 -3.5 -3.09 m -3.625 -2.828" fill="#fff"/></g></g></g></g><g><g transform="translate(0,-1004.3622)"><path d="m 1 1043.36 0 4 c 0 2.216 1.784 4 4 4 l 38 0 c 2.216 0 4 -1.784 4 -4 l 0 -4 c 0 2.216 -1.784 4 -4 4 l -38 0 c -2.216 0 -4 -1.784 -4 -4 z" opacity="0.1"/></g></g></svg>