<svg viewBox="0 0 48 48"><defs><linearGradient id="linearGradient3764" y1="1" x2="0" y2="47" gradientUnits="userSpaceOnUse"><stop stop-color="#9ccd57" stop-opacity="1"/><stop offset="1" stop-color="#93c848" stop-opacity="1"/></linearGradient><clipPath id="clipPath-921475267"><g transform="translate(0,-1004.3622)"><path d="m 24 1005.37 c -1.045 0 -2.023 0.287 -2.856 0.784 l -15.339 8.708 c -0.017 0.013 -0.035 0.013 -0.052 0.021 -1.852 1.051 -2.847 3 -2.746 4.968 l 0 17.02 c -0.056 1.013 0.175 2.049 0.729 2.993 0.532 0.903 1.288 1.602 2.161 2.061 l 15.246 8.653 c 0.832 0.497 1.811 0.784 2.856 0.784 1.045 0 2.023 -0.287 2.856 -0.784 l 15.246 -8.653 c 0.873 -0.46 1.629 -1.158 2.161 -2.061 0.554 -0.944 0.785 -1.981 0.729 -2.993 l 0 -17.01 c 0.056 -1.012 -0.175 -2.052 -0.729 -2.993 -0.532 -0.906 -1.288 -1.604 -2.161 -2.064 l -15.246 -8.653 c -0.832 -0.497 -1.811 -0.784 -2.856 -0.784 z" fill="#1890d0"/></g></clipPath><clipPath id="clipPath-930293369"><g transform="translate(0,-1004.3622)"><path d="m 24 1005.37 c -1.045 0 -2.023 0.287 -2.856 0.784 l -15.339 8.708 c -0.017 0.013 -0.035 0.013 -0.052 0.021 -1.852 1.051 -2.847 3 -2.746 4.968 l 0 17.02 c -0.056 1.013 0.175 2.049 0.729 2.993 0.532 0.903 1.288 1.602 2.161 2.061 l 15.246 8.653 c 0.832 0.497 1.811 0.784 2.856 0.784 1.045 0 2.023 -0.287 2.856 -0.784 l 15.246 -8.653 c 0.873 -0.46 1.629 -1.158 2.161 -2.061 0.554 -0.944 0.785 -1.981 0.729 -2.993 l 0 -17.01 c 0.056 -1.012 -0.175 -2.052 -0.729 -2.993 -0.532 -0.906 -1.288 -1.604 -2.161 -2.064 l -15.246 -8.653 c -0.832 -0.497 -1.811 -0.784 -2.856 -0.784 z" fill="#1890d0"/></g></clipPath><filter id="filter-903585750"><feGaussianBlur stdDeviation="0.35"/></filter></defs><g><g transform="translate(0,-1004.3622)"><path d="m 45 1037.36 c 0.056 1.013 -0.196 2.056 -0.75 3 -0.532 0.903 -1.283 1.603 -2.156 2.063 l -15.25 8.656 c -0.832 0.497 -1.799 0.781 -2.844 0.781 -1.045 0 -2.01 -0.284 -2.844 -0.781 l -15.25 -8.656 c -0.873 -0.46 -1.625 -1.159 -2.156 -2.063 -0.416 -0.708 -0.677 -1.485 -0.75 -2.25 -0.004 0.932 0.242 1.884 0.75 2.75 0.532 0.903 1.283 1.603 2.156 2.063 l 15.25 8.656 c 0.832 0.497 1.799 0.781 2.844 0.781 1.045 0 2.01 -0.284 2.844 -0.781 l 15.25 -8.656 c 0.873 -0.46 1.625 -1.159 2.156 -2.063 0.554 -0.944 0.806 -1.987 0.75 -3 l 0 -0.5 z" opacity="0.05"/><path d="m 45 1036.86 c 0.015 0.263 -0.004 0.516 -0.031 0.781 -0.036 0.844 -0.259 1.685 -0.719 2.469 -0.532 0.903 -1.283 1.603 -2.156 2.063 l -15.25 8.656 c -0.832 0.497 -1.799 0.781 -2.844 0.781 -1.045 0 -2.01 -0.284 -2.844 -0.781 l -15.25 -8.656 c -0.873 -0.46 -1.625 -1.159 -2.156 -2.063 -0.414 -0.705 -0.621 -1.46 -0.688 -2.219 -0.014 -0.092 -0.054 -0.189 -0.063 -0.281 -0.004 0.932 0.242 1.884 0.75 2.75 0.532 0.903 1.283 1.603 2.156 2.063 l 15.25 8.656 c 0.832 0.497 1.799 0.781 2.844 0.781 1.045 0 2.01 -0.284 2.844 -0.781 l 15.25 -8.656 c 0.873 -0.46 1.625 -1.159 2.156 -2.063 0.554 -0.944 0.806 -1.987 0.75 -3 l 0 -0.5 z m -41.813 1.625 c 0.057 0.219 0.132 0.442 0.219 0.656 -0.088 -0.216 -0.16 -0.436 -0.219 -0.656 z m 0.219 0.656 c 0.099 0.243 0.206 0.484 0.344 0.719 -0.139 -0.236 -0.243 -0.472 -0.344 -0.719 z m 41.41 -0.656 c -0.059 0.221 -0.131 0.441 -0.219 0.656 0.087 -0.215 0.161 -0.437 0.219 -0.656 z m -0.219 0.656 c -0.101 0.246 -0.205 0.483 -0.344 0.719 0.138 -0.235 0.245 -0.476 0.344 -0.719 z" opacity="0.1"/><path d="m 3.03 1037.64 c 0.035 0.844 0.259 1.685 0.719 2.469 0.532 0.903 1.283 1.603 2.156 2.063 l 15.25 8.656 c 0.832 0.497 1.799 0.781 2.844 0.781 1.045 0 2.01 -0.284 2.844 -0.781 l 15.25 -8.656 c 0.873 -0.46 1.625 -1.159 2.156 -2.063 0.46 -0.784 0.683 -1.624 0.719 -2.469 -0.067 0.763 -0.303 1.511 -0.719 2.219 -0.532 0.903 -1.283 1.603 -2.156 2.063 l -15.25 8.656 c -0.832 0.497 -1.799 0.781 -2.844 0.781 -1.045 0 -2.01 -0.284 -2.844 -0.781 l -15.25 -8.656 c -0.873 -0.46 -1.625 -1.159 -2.156 -2.063 -0.416 -0.708 -0.651 -1.456 -0.719 -2.219 z" opacity="0.2"/></g></g><g><path d="m 24 46.996 c 1.045 0 2.023 -0.287 2.856 -0.784 l 15.339 -8.708 c 0.017 -0.013 0.035 -0.013 0.052 -0.021 1.852 -1.051 2.847 -3 2.746 -4.968 l 0 -17.02 c 0.056 -1.013 -0.175 -2.049 -0.729 -2.993 -0.532 -0.903 -1.288 -1.602 -2.161 -2.061 l -15.246 -8.653 c -0.832 -0.497 -1.811 -0.784 -2.856 -0.784 -1.045 0 -2.023 0.287 -2.856 0.784 l -15.246 8.653 c -0.873 0.46 -1.629 1.158 -2.161 2.061 -0.554 0.944 -0.785 1.981 -0.729 2.993 l 0 17.01 c -0.056 1.012 0.175 2.051 0.729 2.993 0.532 0.906 1.288 1.604 2.161 2.064 l 15.246 8.653 c 0.832 0.497 1.811 0.785 2.856 0.785 z" fill="url(#linearGradient3764)" fill-opacity="1"/></g><g><g clip-path="url(#clipPath-921475267)"><g opacity="0.25"><g transform="translate(0,1)"><g filter="url(#filter-903585750)"><!-- color: #9ccd57 --><path d="m 12.02 13.977 -0.902 10 0.902 10 12 0.902 12 -0.902 0.898 -10 -0.898 -10 -12 -0.898 z m 0 0" fill="#000"/><path d="m 20.555 13.32 -8.531 0.656 -0.875 9.781 c 0.598 0.145 1.23 0.219 1.875 0.219 4.418 0 8 -3.582 8 -8 0 -0.93 -0.176 -1.824 -0.469 -2.656 z m 0 0" fill-opacity="0.2" fill="#000"/><path d="m 11.922 13.977 0 5.656 c 0.453 0.215 1.066 0.344 1.602 0.344 1.934 0 3.5 -1.566 3.5 -3.5 0 -0.98 -0.41 -1.863 -1.063 -2.5 z m 0 0" fill="#000"/><path d="m 17.02 25.977 -5.102 5 0 3.102 11.1 0 0 -2.102 z m 0 0" fill="#000"/><path d="m 17.02 25.977 1 4 -2 2.5 1 1.602 6 0 0 -2.102 z m 0 0" fill="#000"/><path d="m 30.02 21.977 -9 12.1 15.1 0 0 -5.445 z m 0 0" fill="#000"/><path d="m 30.02 21.977 1.5 5 -1.5 4.5 1.781 2.602 4.316 0 0 -5.445 z m 0 0" fill="#000"/><path d="m 13.281 13 c -1.247 0 -2.281 1.03 -2.281 2.281 l 0 17.438 c 0 1.248 1.034 2.281 2.281 2.281 l 21.469 0 c 1.247 0 2.25 -1.033 2.25 -2.281 l 0 -17.438 c 0 -1.251 -1 -2.281 -2.25 -2.281 l -21.469 0 z m 0 1 21.469 0 c 0.706 0 1.281 0.571 1.281 1.281 l 0 17.438 c 0 0.705 -0.575 1.281 -1.281 1.281 l -21.469 0 c -0.706 0 -1.281 -0.576 -1.281 -1.281 l 0 -17.438 c 0 -0.71 0.575 -1.281 1.281 -1.281 z" color="#000" fill="#000"/></g></g></g></g></g><g><g clip-path="url(#clipPath-930293369)"><!-- color: #9ccd57 --><path d="m 12.02 13.977 -0.902 10 0.902 10 12 0.902 12 -0.902 0.898 -10 -0.898 -10 -12 -0.898 z m 0 0" fill="#2c86d5"/><path d="m 20.555 13.32 -8.531 0.656 -0.875 9.781 c 0.598 0.145 1.23 0.219 1.875 0.219 4.418 0 8 -3.582 8 -8 0 -0.93 -0.176 -1.824 -0.469 -2.656 z m 0 0" fill="#fff" fill-opacity="0.2"/><path d="m 11.922 13.977 0 5.656 c 0.453 0.215 1.066 0.344 1.602 0.344 1.934 0 3.5 -1.566 3.5 -3.5 0 -0.98 -0.41 -1.863 -1.063 -2.5 z m 0 0" fill="#fbc06e"/><path d="m 17.02 25.977 -5.102 5 0 3.102 11.1 0 0 -2.102 z m 0 0" fill="#f5f5f5"/><path d="m 17.02 25.977 1 4 -2 2.5 1 1.602 6 0 0 -2.102 z m 0 0" fill="#dedede"/><path d="m 30.02 21.977 -9 12.1 15.1 0 0 -5.445 z m 0 0" fill="#f5f5f5"/><path d="m 30.02 21.977 1.5 5 -1.5 4.5 1.781 2.602 4.316 0 0 -5.445 z m 0 0" fill="#dedede"/><path d="m 13.281 13 c -1.247 0 -2.281 1.03 -2.281 2.281 l 0 17.438 c 0 1.248 1.034 2.281 2.281 2.281 l 21.469 0 c 1.247 0 2.25 -1.033 2.25 -2.281 l 0 -17.438 c 0 -1.251 -1 -2.281 -2.25 -2.281 l -21.469 0 z m 0 1 21.469 0 c 0.706 0 1.281 0.571 1.281 1.281 l 0 17.438 c 0 0.705 -0.575 1.281 -1.281 1.281 l -21.469 0 c -0.706 0 -1.281 -0.576 -1.281 -1.281 l 0 -17.438 c 0 -0.71 0.575 -1.281 1.281 -1.281 z" color="#000" fill="#fff"/></g></g><g><path d="m 24 1 c -1.045 0 -2.01 0.284 -2.844 0.781 l -15.344 8.719 c -0.017 0.013 -0.045 0.023 -0.063 0.031 c -1.852 1.051 -2.851 3 -2.75 4.969 l 0 1 c -0.101 -1.966 0.898 -3.918 2.75 -4.969 c 0.017 -0.008 0.045 -0.018 0.063 -0.031 l 15.344 -8.719 c 0.832 -0.497 1.799 -0.781 2.844 -0.781 c 1.045 0 2.01 0.284 2.844 0.781 l 15.25 8.656 c 0.873 0.46 1.625 1.156 2.156 2.063 c 0.554 0.942 0.806 1.988 0.75 3 l 0 -1 c 0.056 -1.012 -0.196 -2.058 -0.75 -3 c -0.532 -0.906 -1.283 -1.603 -2.156 -2.063 l -15.25 -8.656 c -0.832 -0.497 -1.799 -0.781 -2.844 -0.781 z" opacity="0.2" fill="#fff"/></g></svg>