<svg viewBox="0 0 48 48"><defs><linearGradient id="linearGradient3764" x1="1" x2="47" gradientUnits="userSpaceOnUse" gradientTransform="translate(-48.000001,0.00221467)"><stop stop-color="#494949" stop-opacity="1"/><stop offset="1" stop-color="#535353" stop-opacity="1"/></linearGradient><clipPath id="clipPath-114102555"><g transform="translate(0,-1004.3622)"><rect rx="4" y="1005.36" x="1" height="46" width="46" fill="#1890d0"/></g></clipPath><clipPath id="clipPath-131828196"><g transform="translate(0,-1004.3622)"><rect rx="4" y="1005.36" x="1" height="46" width="46" fill="#1890d0"/></g></clipPath></defs><g><path d="m 1 43 l 0 0.25 c 0 2.216 1.784 4 4 4 l 38 0 c 2.216 0 4 -1.784 4 -4 l 0 -0.25 c 0 2.216 -1.784 4 -4 4 l -38 0 c -2.216 0 -4 -1.784 -4 -4 z m 0 0.5 l 0 0.5 c 0 2.216 1.784 4 4 4 l 38 0 c 2.216 0 4 -1.784 4 -4 l 0 -0.5 c 0 2.216 -1.784 4 -4 4 l -38 0 c -2.216 0 -4 -1.784 -4 -4 z" opacity="0.02"/><path d="m 1 43.25 l 0 0.25 c 0 2.216 1.784 4 4 4 l 38 0 c 2.216 0 4 -1.784 4 -4 l 0 -0.25 c 0 2.216 -1.784 4 -4 4 l -38 0 c -2.216 0 -4 -1.784 -4 -4 z" opacity="0.05"/><path d="m 1 43 l 0 0.25 c 0 2.216 1.784 4 4 4 l 38 0 c 2.216 0 4 -1.784 4 -4 l 0 -0.25 c 0 2.216 -1.784 4 -4 4 l -38 0 c -2.216 0 -4 -1.784 -4 -4 z" opacity="0.1"/></g><g><rect width="46" height="46" x="-47" y="1" rx="4" transform="matrix(0,-1,1,0,0,0)" fill="url(#linearGradient3764)" fill-opacity="1"/></g><g><g clip-path="url(#clipPath-114102555)"><g opacity="0.1"><!-- color: #535353 --><path d="m 16.754 24.316 c 0 1.453 -1.176 2.637 -2.629 2.637 -1.449 0 -2.625 -1.184 -2.625 -2.637 0 -1.457 1.176 -2.641 2.625 -2.641 1.453 0 2.629 1.184 2.629 2.641 z m 0 0" stroke="#f9f9f9" stroke-width="0.999" fill="#000"/><path d="m 24.969 14.375 c -0.48 0.049 -0.941 0.194 -1.375 0.469 -0.008 0.003 -0.024 -0.004 -0.031 0 -0.012 0.008 -0.019 0.023 -0.031 0.031 l 0 0.031 c -1.01 0.488 -1.497 1.486 -1.688 2.594 -0.196 1.14 -0.129 2.452 -0.063 3.75 l 1 -0.063 c -0.066 -1.292 -0.136 -2.558 0.031 -3.531 0.167 -0.974 0.496 -1.6 1.188 -1.906 l 0.063 0 0.031 -0.031 c 0.616 -0.41 1.313 -0.438 2.188 -0.25 0.874 0.188 1.874 0.606 2.875 1 l 0.375 -0.938 c -0.983 -0.387 -2.02 -0.814 -3.03 -1.031 -0.507 -0.109 -1.028 -0.176 -1.531 -0.125 z" color="#000" fill="#000"/><path d="m 34.902 28.16 c 0 4.055 -4.855 7.344 -10.84 7.344 -5.988 0 -10.844 -3.289 -10.844 -7.344 0 -4.059 4.855 -7.348 10.844 -7.348 5.984 0 10.84 3.289 10.84 7.348 z m 0 0" stroke="#f9f9f9" stroke-linecap="round" stroke-width="0.999" fill="#000"/><path d="m 33.387 16.887 c 0 1.32 -1.031 2.391 -2.309 2.391 -1.277 0 -2.309 -1.07 -2.309 -2.391 0 -1.32 1.031 -2.391 2.309 -2.391 1.277 0 2.309 1.07 2.309 2.391 z m 0 0" stroke="#f9f9f9" stroke-linecap="round" stroke-width="0.999" fill="#000"/><path d="m 21.12 26.676 c 0 0.84 -0.691 1.523 -1.547 1.523 -0.855 0 -1.547 -0.684 -1.547 -1.523 0 -0.84 0.691 -1.52 1.547 -1.52 0.855 0 1.547 0.68 1.547 1.52 z m 0 0" fill="#000"/><path d="m 29.17 26.547 c 0 0.84 -0.691 1.523 -1.547 1.523 -0.855 0 -1.551 -0.684 -1.547 -1.523 -0.004 -0.84 0.691 -1.523 1.547 -1.523 0.855 0 1.547 0.684 1.547 1.523 z m 0 0" fill="#000"/><path d="M 19.375 30.22 A 0.5 0.5 0 0 0 19.19 31.13 c 1.792 1.214 3.439 1.612 4.938 1.5 1.498 -0.112 2.83 -0.702 4.094 -1.375 A 0.5 0.5 0 1 0 27.75 30.375 c -1.221 0.651 -2.411 1.154 -3.688 1.25 -1.277 0.096 -2.667 -0.198 -4.313 -1.313 a 0.5 0.5 0 0 0 -0.375 -0.094 z" color="#000" fill="#000"/><path d="m 36.754 24.34 c 0 1.457 -1.176 2.637 -2.629 2.637 -1.449 0 -2.625 -1.18 -2.625 -2.637 0 -1.457 1.176 -2.637 2.625 -2.637 1.453 0 2.629 1.18 2.629 2.637 z m 0 0" stroke="#f9f9f9" stroke-width="0.999" fill="#000"/></g></g></g><g><g clip-path="url(#clipPath-131828196)"><g transform="translate(0,-1)"><!-- color: #535353 --><path d="m 16.754 24.316 c 0 1.453 -1.176 2.637 -2.629 2.637 -1.449 0 -2.625 -1.184 -2.625 -2.637 0 -1.457 1.176 -2.641 2.625 -2.641 1.453 0 2.629 1.184 2.629 2.641 z m 0 0" fill="#f9f9f9" stroke="#f9f9f9" stroke-width="0.999"/><path d="m 24.969 14.375 c -0.48 0.049 -0.941 0.194 -1.375 0.469 -0.008 0.003 -0.024 -0.004 -0.031 0 -0.012 0.008 -0.019 0.023 -0.031 0.031 l 0 0.031 c -1.01 0.488 -1.497 1.486 -1.688 2.594 -0.196 1.14 -0.129 2.452 -0.063 3.75 l 1 -0.063 c -0.066 -1.292 -0.136 -2.558 0.031 -3.531 0.167 -0.974 0.496 -1.6 1.188 -1.906 l 0.063 0 0.031 -0.031 c 0.616 -0.41 1.313 -0.438 2.188 -0.25 0.874 0.188 1.874 0.606 2.875 1 l 0.375 -0.938 c -0.983 -0.387 -2.02 -0.814 -3.03 -1.031 -0.507 -0.109 -1.028 -0.176 -1.531 -0.125 z" color="#000" fill="#f9f9f9"/><path d="m 34.902 28.16 c 0 4.055 -4.855 7.344 -10.84 7.344 -5.988 0 -10.844 -3.289 -10.844 -7.344 0 -4.059 4.855 -7.348 10.844 -7.348 5.984 0 10.84 3.289 10.84 7.348 z m 0 0" fill="#f9f9f9" stroke="#f9f9f9" stroke-linecap="round" stroke-width="0.999"/><path d="m 33.387 16.887 c 0 1.32 -1.031 2.391 -2.309 2.391 -1.277 0 -2.309 -1.07 -2.309 -2.391 0 -1.32 1.031 -2.391 2.309 -2.391 1.277 0 2.309 1.07 2.309 2.391 z m 0 0" fill="#f9f9f9" stroke="#f9f9f9" stroke-linecap="round" stroke-width="0.999"/><path d="m 21.12 26.676 c 0 0.84 -0.691 1.523 -1.547 1.523 -0.855 0 -1.547 -0.684 -1.547 -1.523 0 -0.84 0.691 -1.52 1.547 -1.52 0.855 0 1.547 0.68 1.547 1.52 z m 0 0" fill="#33b3e5"/><path d="m 29.17 26.547 c 0 0.84 -0.691 1.523 -1.547 1.523 -0.855 0 -1.551 -0.684 -1.547 -1.523 -0.004 -0.84 0.691 -1.523 1.547 -1.523 0.855 0 1.547 0.684 1.547 1.523 z m 0 0" fill="#33b3e5"/><path d="M 19.375 30.22 A 0.5 0.5 0 0 0 19.19 31.13 c 1.792 1.214 3.439 1.612 4.938 1.5 1.498 -0.112 2.83 -0.702 4.094 -1.375 A 0.5 0.5 0 1 0 27.75 30.375 c -1.221 0.651 -2.411 1.154 -3.688 1.25 -1.277 0.096 -2.667 -0.198 -4.313 -1.313 a 0.5 0.5 0 0 0 -0.375 -0.094 z" color="#000" fill="#33b3e5"/><path d="m 36.754 24.34 c 0 1.457 -1.176 2.637 -2.629 2.637 -1.449 0 -2.625 -1.18 -2.625 -2.637 0 -1.457 1.176 -2.637 2.625 -2.637 1.453 0 2.629 1.18 2.629 2.637 z m 0 0" fill="#f9f9f9" stroke="#f9f9f9" stroke-width="0.999"/></g></g></g><g><g transform="translate(0,-1004.3622)"><path d="m 1 1043.36 0 4 c 0 2.216 1.784 4 4 4 l 38 0 c 2.216 0 4 -1.784 4 -4 l 0 -4 c 0 2.216 -1.784 4 -4 4 l -38 0 c -2.216 0 -4 -1.784 -4 -4 z" opacity="0.1"/></g></g></svg>