<svg viewBox="0 0 48 48"><defs><linearGradient id="linearGradient3764" x1="1" x2="47" gradientUnits="userSpaceOnUse" gradientTransform="translate(-48.000001,0.00221467)"><stop stop-color="#0ca4dc" stop-opacity="1"/><stop offset="1" stop-color="#0db1ef" stop-opacity="1"/></linearGradient><clipPath id="clipPath-606963135"><g transform="translate(0,-1004.3622)"><rect rx="4" y="1005.36" x="1" height="46" width="46" fill="#1890d0"/></g></clipPath><clipPath id="clipPath-620279312"><g transform="translate(0,-1004.3622)"><rect rx="4" y="1005.36" x="1" height="46" width="46" fill="#1890d0"/></g></clipPath></defs><g><path d="m 1 43 l 0 0.25 c 0 2.216 1.784 4 4 4 l 38 0 c 2.216 0 4 -1.784 4 -4 l 0 -0.25 c 0 2.216 -1.784 4 -4 4 l -38 0 c -2.216 0 -4 -1.784 -4 -4 z m 0 0.5 l 0 0.5 c 0 2.216 1.784 4 4 4 l 38 0 c 2.216 0 4 -1.784 4 -4 l 0 -0.5 c 0 2.216 -1.784 4 -4 4 l -38 0 c -2.216 0 -4 -1.784 -4 -4 z" opacity="0.02"/><path d="m 1 43.25 l 0 0.25 c 0 2.216 1.784 4 4 4 l 38 0 c 2.216 0 4 -1.784 4 -4 l 0 -0.25 c 0 2.216 -1.784 4 -4 4 l -38 0 c -2.216 0 -4 -1.784 -4 -4 z" opacity="0.05"/><path d="m 1 43 l 0 0.25 c 0 2.216 1.784 4 4 4 l 38 0 c 2.216 0 4 -1.784 4 -4 l 0 -0.25 c 0 2.216 -1.784 4 -4 4 l -38 0 c -2.216 0 -4 -1.784 -4 -4 z" opacity="0.1"/></g><g><rect width="46" height="46" x="-47" y="1" rx="4" transform="matrix(0,-1,1,0,0,0)" fill="url(#linearGradient3764)" fill-opacity="1"/></g><g><g clip-path="url(#clipPath-606963135)"><g opacity="0.1"><!-- color: #0db1ef --><g><path d="m 30.03 13.625 c -0.715 0.066 -1.449 0.281 -2.125 0.625 c -1.719 0.875 -2.902 2.801 -2.906 4.656 c 0 0.586 -0.023 0.613 0.781 1.188 c 0.863 0.617 1.883 1.629 2.188 2.219 c 0.242 0.465 0.422 0.441 0.5 -0.063 c 0.035 -0.227 0.082 -0.828 0.125 -1.313 c 0.184 -2.035 0.891 -3.969 2.969 -4.5 c 1.227 -0.313 3.02 0.438 3.969 1.188 c 0.441 0.348 0.598 0.16 0.375 -0.469 c -0.508 -1.438 -1.918 -2.695 -3.438 -3.219 c -0.582 -0.199 -1.145 -0.293 -1.719 -0.313 c -0.238 -0.008 -0.48 -0.023 -0.719 0 m -9.813 5.281 c -2.781 -0.109 -5.559 1.355 -7 3.75 c -0.715 1.047 -1.188 2.281 -1.188 3.563 c -0.094 1.316 0.07 2.672 0.781 3.813 c 1.43 2.461 4.172 4.316 7.094 4.125 c 1.77 -0.086 3.406 -1.281 3.969 -2.969 c 0.141 -0.531 0.652 -1.492 0.063 -1.781 c -0.668 0.555 -1.391 1.082 -2.25 1.313 c -2.262 0.805 -5.133 0.105 -6.188 -2 c -0.707 -1.41 -0.262 -3.797 0.938 -4.719 c 1.789 -2.289 5.746 -2.262 7.563 0 c 0.566 0.523 0.656 1.324 1 2 c 0.051 2.621 -0.027 5.426 0 6 c 0 0.945 -0.039 2.375 0.906 2.375 l 0.938 0 c 0.945 0 1.156 -1.43 1.156 -2.375 l 0 -6 c -0.098 -1.852 -0.914 -3.422 -2.25 -4.656 c -0.742 -0.754 -1.504 -1.551 -2.563 -1.844 c -0.949 -0.352 -1.957 -0.57 -2.969 -0.594 m 12.344 6.281 c -0.594 -0.012 -1.652 0.215 -2.594 0.531 l -0.906 0.281 l -0.094 1 c -0.051 0.555 -0.066 1.148 -0.031 1.313 c 0.063 0.281 0.129 0.273 0.813 -0.375 c 0.395 -0.375 0.969 -0.852 1.281 -1.063 c 0.313 -0.211 0.941 -0.563 1.375 -0.781 c 0.836 -0.422 0.879 -0.547 0.563 -0.813 c -0.066 -0.055 -0.207 -0.09 -0.406 -0.094 m 0 0" fill="#000"/></g></g></g></g><g><g clip-path="url(#clipPath-620279312)"><g transform="translate(0,-1)"><!-- color: #0db1ef --><g><path d="m 30.03 13.625 c -0.715 0.066 -1.449 0.281 -2.125 0.625 c -1.719 0.875 -2.902 2.801 -2.906 4.656 c 0 0.586 -0.023 0.613 0.781 1.188 c 0.863 0.617 1.883 1.629 2.188 2.219 c 0.242 0.465 0.422 0.441 0.5 -0.063 c 0.035 -0.227 0.082 -0.828 0.125 -1.313 c 0.184 -2.035 0.891 -3.969 2.969 -4.5 c 1.227 -0.313 3.02 0.438 3.969 1.188 c 0.441 0.348 0.598 0.16 0.375 -0.469 c -0.508 -1.438 -1.918 -2.695 -3.438 -3.219 c -0.582 -0.199 -1.145 -0.293 -1.719 -0.313 c -0.238 -0.008 -0.48 -0.023 -0.719 0 m -9.813 5.281 c -2.781 -0.109 -5.559 1.355 -7 3.75 c -0.715 1.047 -1.188 2.281 -1.188 3.563 c -0.094 1.316 0.07 2.672 0.781 3.813 c 1.43 2.461 4.172 4.316 7.094 4.125 c 1.77 -0.086 3.406 -1.281 3.969 -2.969 c 0.141 -0.531 0.652 -1.492 0.063 -1.781 c -0.668 0.555 -1.391 1.082 -2.25 1.313 c -2.262 0.805 -5.133 0.105 -6.188 -2 c -0.707 -1.41 -0.262 -3.797 0.938 -4.719 c 1.789 -2.289 5.746 -2.262 7.563 0 c 0.566 0.523 0.656 1.324 1 2 c 0.051 2.621 -0.027 5.426 0 6 c 0 0.945 -0.039 2.375 0.906 2.375 l 0.938 0 c 0.945 0 1.156 -1.43 1.156 -2.375 l 0 -6 c -0.098 -1.852 -0.914 -3.422 -2.25 -4.656 c -0.742 -0.754 -1.504 -1.551 -2.563 -1.844 c -0.949 -0.352 -1.957 -0.57 -2.969 -0.594 m 12.344 6.281 c -0.594 -0.012 -1.652 0.215 -2.594 0.531 l -0.906 0.281 l -0.094 1 c -0.051 0.555 -0.066 1.148 -0.031 1.313 c 0.063 0.281 0.129 0.273 0.813 -0.375 c 0.395 -0.375 0.969 -0.852 1.281 -1.063 c 0.313 -0.211 0.941 -0.563 1.375 -0.781 c 0.836 -0.422 0.879 -0.547 0.563 -0.813 c -0.066 -0.055 -0.207 -0.09 -0.406 -0.094 m 0 0" fill="#f9f9f9"/></g></g></g></g><g><g transform="translate(0,-1004.3622)"><path d="m 1 1043.36 0 4 c 0 2.216 1.784 4 4 4 l 38 0 c 2.216 0 4 -1.784 4 -4 l 0 -4 c 0 2.216 -1.784 4 -4 4 l -38 0 c -2.216 0 -4 -1.784 -4 -4 z" opacity="0.1"/></g></g></svg>