<svg viewBox="0 0 48 48"><defs><linearGradient id="linearGradient3764" x1="1" x2="47" gradientUnits="userSpaceOnUse" gradientTransform="translate(-48.000001,0.00221467)"><stop stop-color="#ddd" stop-opacity="1"/><stop offset="1" stop-color="#e7e7e7" stop-opacity="1"/></linearGradient><clipPath id="clipPath-386465963"><g transform="translate(0,-1004.3622)"><rect rx="4" y="1005.36" x="1" height="46" width="46" fill="#1890d0"/></g></clipPath><clipPath id="clipPath-399238776"><g transform="translate(0,-1004.3622)"><rect rx="4" y="1005.36" x="1" height="46" width="46" fill="#1890d0"/></g></clipPath></defs><g><path d="m 1 43 l 0 0.25 c 0 2.216 1.784 4 4 4 l 38 0 c 2.216 0 4 -1.784 4 -4 l 0 -0.25 c 0 2.216 -1.784 4 -4 4 l -38 0 c -2.216 0 -4 -1.784 -4 -4 z m 0 0.5 l 0 0.5 c 0 2.216 1.784 4 4 4 l 38 0 c 2.216 0 4 -1.784 4 -4 l 0 -0.5 c 0 2.216 -1.784 4 -4 4 l -38 0 c -2.216 0 -4 -1.784 -4 -4 z" opacity="0.02"/><path d="m 1 43.25 l 0 0.25 c 0 2.216 1.784 4 4 4 l 38 0 c 2.216 0 4 -1.784 4 -4 l 0 -0.25 c 0 2.216 -1.784 4 -4 4 l -38 0 c -2.216 0 -4 -1.784 -4 -4 z" opacity="0.05"/><path d="m 1 43 l 0 0.25 c 0 2.216 1.784 4 4 4 l 38 0 c 2.216 0 4 -1.784 4 -4 l 0 -0.25 c 0 2.216 -1.784 4 -4 4 l -38 0 c -2.216 0 -4 -1.784 -4 -4 z" opacity="0.1"/></g><g><rect width="46" height="46" x="-47" y="1" rx="4" transform="matrix(0,-1,1,0,0,0)" fill="url(#linearGradient3764)" fill-opacity="1"/></g><g><g clip-path="url(#clipPath-386465963)"><g opacity="0.1"><!-- color: #e7e7e7 --><g><path d="m 22 6 l -7 12 l 18 0 l -7 -12 m -2 3 l 4 6 l -8 0 m 4 -6" fill="#000"/><path d="m 15 18 l 12 0 l 0 6 l -6 0 l 0 6 l -6 0 m 0 -12" fill="#000"/><path d="m 27 18 l 6 0 l 0 6 l -6 0 m 0 -6" fill="#000"/><path d="m 15 30 l 6 0 l 0 6 l -6 0 m 0 -6" fill="#000"/><path d="m 27 24 l 6 0 l 0 6 l -6 0 m 0 -6" fill="#000"/><path d="m 21 24 l 6 0 l 0 6 l -6 0 m 0 -6" fill="#000"/><path d="m 21 30 l 6 0 l 0 6 l -6 0 m 0 -6" fill="#000"/><path d="m 15 36 l 6 0 l 0 6 l -6 0 m 0 -6" fill="#000"/></g></g></g></g><g><g clip-path="url(#clipPath-399238776)"><g transform="translate(0,-1)"><!-- color: #e7e7e7 --><g><path d="m 22 6 l -7 12 l 18 0 l -7 -12 m -2 3 l 4 6 l -8 0 m 4 -6" fill="#535353"/><path d="m 15 18 l 12 0 l 0 6 l -6 0 l 0 6 l -6 0 m 0 -12" fill="#eb5b5b"/><path d="m 27 18 l 6 0 l 0 6 l -6 0 m 0 -6" fill="#f49c71"/><path d="m 15 30 l 6 0 l 0 6 l -6 0 m 0 -6" fill="#f49c71"/><path d="m 27 24 l 6 0 l 0 6 l -6 0 m 0 -6" fill="#fade7f"/><path d="m 21 24 l 6 0 l 0 6 l -6 0 m 0 -6" fill="#f49c71"/><path d="m 21 30 l 6 0 l 0 6 l -6 0 m 0 -6" fill="#fade7f"/><path d="m 15 36 l 6 0 l 0 6 l -6 0 m 0 -6" fill="#fade7f"/></g></g></g></g><g><g transform="translate(0,-1004.3622)"><path d="m 1 1043.36 0 4 c 0 2.216 1.784 4 4 4 l 38 0 c 2.216 0 4 -1.784 4 -4 l 0 -4 c 0 2.216 -1.784 4 -4 4 l -38 0 c -2.216 0 -4 -1.784 -4 -4 z" opacity="0.1"/></g></g></svg>