<svg viewBox="0 0 48 48"><defs><linearGradient id="linearGradient3764" x1="1" x2="47" gradientUnits="userSpaceOnUse" gradientTransform="translate(-48.000001,0.00221467)"><stop stop-color="#ffcc01" stop-opacity="1"/><stop offset="1" stop-color="#ffd015" stop-opacity="1"/></linearGradient><clipPath id="clipPath-872228066"><g transform="translate(0,-1004.3622)"><rect rx="4" y="1005.36" x="1" height="46" width="46" fill="#1890d0"/></g></clipPath><clipPath id="clipPath-885739578"><g transform="translate(0,-1004.3622)"><rect rx="4" y="1005.36" x="1" height="46" width="46" fill="#1890d0"/></g></clipPath></defs><g><path d="m 1 43 l 0 0.25 c 0 2.216 1.784 4 4 4 l 38 0 c 2.216 0 4 -1.784 4 -4 l 0 -0.25 c 0 2.216 -1.784 4 -4 4 l -38 0 c -2.216 0 -4 -1.784 -4 -4 z m 0 0.5 l 0 0.5 c 0 2.216 1.784 4 4 4 l 38 0 c 2.216 0 4 -1.784 4 -4 l 0 -0.5 c 0 2.216 -1.784 4 -4 4 l -38 0 c -2.216 0 -4 -1.784 -4 -4 z" opacity="0.02"/><path d="m 1 43.25 l 0 0.25 c 0 2.216 1.784 4 4 4 l 38 0 c 2.216 0 4 -1.784 4 -4 l 0 -0.25 c 0 2.216 -1.784 4 -4 4 l -38 0 c -2.216 0 -4 -1.784 -4 -4 z" opacity="0.05"/><path d="m 1 43 l 0 0.25 c 0 2.216 1.784 4 4 4 l 38 0 c 2.216 0 4 -1.784 4 -4 l 0 -0.25 c 0 2.216 -1.784 4 -4 4 l -38 0 c -2.216 0 -4 -1.784 -4 -4 z" opacity="0.1"/></g><g><rect width="46" height="46" x="-47" y="1" rx="4" transform="matrix(0,-1,1,0,0,0)" fill="url(#linearGradient3764)" fill-opacity="1"/></g><g><g clip-path="url(#clipPath-872228066)"><g opacity="0.1"><!-- color: #ffd015 --><g><path d="m 12.879 23.758 l 3.559 -3.559 l 15.598 -0.629 l 0.945 6.281 l -2.723 4.816 l -4.605 4.5 l -6.285 -1.148 l -3.242 -2.41 l -2.305 -2.828 m -0.941 -5.02" fill="#000"/><path d="m 22.18 35.887 c -5.352 -0.969 -9.488 -5.066 -10.121 -10.02 c -0.184 -1.461 0.043 -3.41 0.59 -5.02 c 2.141 -6.297 9.5 -10.73 18.01 -10.848 c 0.922 -0.012 1.555 -0.004 1.41 0.023 c -2.633 4.348 -2.23 6.852 1.758 8.852 c 1.148 0.871 1.117 1.01 1.645 2.078 c 0.762 2.621 0.586 5.242 0.145 7.5 c -1.01 3.672 -4.02 6.324 -8.313 7.313 c -1.047 0.242 -4.059 0.313 -5.125 0.117 m 3.785 -3.887 l -8.98 -1 l 7.984 3 m 0.656 -5.367 c 2.102 -0.539 4.07 -3.145 5.168 -6.848 c 0.254 -0.855 0.289 -1.207 0.117 -1.141 c -0.117 0.043 -4.742 3.336 -7.01 4.988 c -2.316 1.688 -2.949 2.172 -2.949 2.25 c 0 0.188 1.531 0.758 2.395 0.895 c 0.605 0.094 1.598 0.031 2.277 -0.145 m -7.664 -0.496 c 0.289 -0.063 0.453 -0.141 0.434 -0.211 c -0.055 -0.227 -4.582 -4.285 -4.699 -4.215 c -0.16 0.098 0.254 1.625 0.656 2.414 c 0.891 1.75 1.977 2.355 3.609 2.01 m 0 0" fill="#000"/></g></g></g></g><g><g clip-path="url(#clipPath-885739578)"><g transform="translate(0,-1)"><!-- color: #ffd015 --><g><path d="m 12.879 23.758 l 3.559 -3.559 l 15.598 -0.629 l 0.945 6.281 l -2.723 4.816 l -4.605 4.5 l -6.285 -1.148 l -3.242 -2.41 l -2.305 -2.828 m -0.941 -5.02" fill="#f9f9f9"/><path d="m 22.18 35.887 c -5.352 -0.969 -9.488 -5.066 -10.121 -10.02 c -0.184 -1.461 0.043 -3.41 0.59 -5.02 c 2.141 -6.297 9.5 -10.73 18.01 -10.848 c 0.922 -0.012 1.555 -0.004 1.41 0.023 c -2.633 4.348 -2.23 6.852 1.758 8.852 c 1.148 0.871 1.117 1.01 1.645 2.078 c 0.762 2.621 0.586 5.242 0.145 7.5 c -1.01 3.672 -4.02 6.324 -8.313 7.313 c -1.047 0.242 -4.059 0.313 -5.125 0.117 m 3.785 -3.887 l -8.98 -1 l 7.984 3 m 0.656 -5.367 c 2.102 -0.539 4.07 -3.145 5.168 -6.848 c 0.254 -0.855 0.289 -1.207 0.117 -1.141 c -0.117 0.043 -4.742 3.336 -7.01 4.988 c -2.316 1.688 -2.949 2.172 -2.949 2.25 c 0 0.188 1.531 0.758 2.395 0.895 c 0.605 0.094 1.598 0.031 2.277 -0.145 m -7.664 -0.496 c 0.289 -0.063 0.453 -0.141 0.434 -0.211 c -0.055 -0.227 -4.582 -4.285 -4.699 -4.215 c -0.16 0.098 0.254 1.625 0.656 2.414 c 0.891 1.75 1.977 2.355 3.609 2.01 m 0 0" fill="#c02e19"/></g></g></g></g><g><g transform="translate(0,-1004.3622)"><path d="m 1 1043.36 0 4 c 0 2.216 1.784 4 4 4 l 38 0 c 2.216 0 4 -1.784 4 -4 l 0 -4 c 0 2.216 -1.784 4 -4 4 l -38 0 c -2.216 0 -4 -1.784 -4 -4 z" opacity="0.1"/></g></g></svg>