<svg viewBox="0 0 48 48"><defs><linearGradient id="linearGradient3764" x1="1" x2="47" gradientUnits="userSpaceOnUse" gradientTransform="translate(-48.000001,0.00221467)"><stop stop-color="#1c89b6" stop-opacity="1"/><stop offset="1" stop-color="#1e96c8" stop-opacity="1"/></linearGradient><clipPath id="clipPath-176965611"><g transform="translate(0,-1004.3622)"><rect rx="4" y="1005.36" x="1" height="46" width="46" fill="#1890d0"/></g></clipPath><clipPath id="clipPath-204905008"><g transform="translate(0,-1004.3622)"><rect rx="4" y="1005.36" x="1" height="46" width="46" fill="#1890d0"/></g></clipPath></defs><g><path d="m 1 43 l 0 0.25 c 0 2.216 1.784 4 4 4 l 38 0 c 2.216 0 4 -1.784 4 -4 l 0 -0.25 c 0 2.216 -1.784 4 -4 4 l -38 0 c -2.216 0 -4 -1.784 -4 -4 z m 0 0.5 l 0 0.5 c 0 2.216 1.784 4 4 4 l 38 0 c 2.216 0 4 -1.784 4 -4 l 0 -0.5 c 0 2.216 -1.784 4 -4 4 l -38 0 c -2.216 0 -4 -1.784 -4 -4 z" opacity="0.02"/><path d="m 1 43.25 l 0 0.25 c 0 2.216 1.784 4 4 4 l 38 0 c 2.216 0 4 -1.784 4 -4 l 0 -0.25 c 0 2.216 -1.784 4 -4 4 l -38 0 c -2.216 0 -4 -1.784 -4 -4 z" opacity="0.05"/><path d="m 1 43 l 0 0.25 c 0 2.216 1.784 4 4 4 l 38 0 c 2.216 0 4 -1.784 4 -4 l 0 -0.25 c 0 2.216 -1.784 4 -4 4 l -38 0 c -2.216 0 -4 -1.784 -4 -4 z" opacity="0.1"/></g><g><rect width="46" height="46" x="-47" y="1" rx="4" transform="matrix(0,-1,1,0,0,0)" fill="url(#linearGradient3764)" fill-opacity="1"/></g><g><g clip-path="url(#clipPath-176965611)"><g opacity="0.1"><!-- color: #1e96c8 --><path d="m 24 10.156 -0.781 0.531 c 0 0 -2.892 1.951 -9.844 3.938 l -0.313 0.094 -0.063 0.281 c 0 0 -0.768 4.088 0.125 8.938 0.893 4.849 3.489 10.548 10.156 13.625 l 0.719 0.313 l 0 -0.781 0 -26 0 -0.938 z m -1 1.781 0 24.25 c -5.722 -2.99 -8.06 -7.994 -8.875 -12.438 -0.809 -4.392 -0.226 -7.88 -0.156 -8.281 5.615 -1.646 8.201 -3.037 9.03 -3.531 z" color="#000" fill="#000"/><path d="m 24 10.156 0 0.938 0 26 0 0.781 0.719 -0.313 c 6.667 -3.077 9.263 -8.776 10.156 -13.625 0.893 -4.849 0.125 -8.938 0.125 -8.938 l -0.063 -0.281 -0.313 -0.094 c -6.952 -1.986 -9.844 -3.938 -9.844 -3.938 l -0.781 -0.531 z m 1 1.781 c 0.83 0.495 3.416 1.885 9.03 3.531 0.07 0.402 0.653 3.889 -0.156 8.281 -0.819 4.444 -3.153 9.447 -8.875 12.438 l 0 -24.25 z" color="#000" fill="#000"/><path d="m 24.2 11.1 c 0 0 3 2 10 4 0 0 3 16 -10 22 z m 0 0" fill="#000"/><path d="m 23.801 11.1 c 0 0 -3 2 -10 4 0 0 -3 16 10 22 z m 0 0" fill="#000"/></g></g></g><g><g clip-path="url(#clipPath-204905008)"><g transform="translate(0,-1)"><!-- color: #1e96c8 --><path d="m 24 10.156 -0.781 0.531 c 0 0 -2.892 1.951 -9.844 3.938 l -0.313 0.094 -0.063 0.281 c 0 0 -0.768 4.088 0.125 8.938 0.893 4.849 3.489 10.548 10.156 13.625 l 0.719 0.313 l 0 -0.781 0 -26 0 -0.938 z m -1 1.781 0 24.25 c -5.722 -2.99 -8.06 -7.994 -8.875 -12.438 -0.809 -4.392 -0.226 -7.88 -0.156 -8.281 5.615 -1.646 8.201 -3.037 9.03 -3.531 z" color="#000" fill="#c7d6e6"/><path d="m 24 10.156 0 0.938 0 26 0 0.781 0.719 -0.313 c 6.667 -3.077 9.263 -8.776 10.156 -13.625 0.893 -4.849 0.125 -8.938 0.125 -8.938 l -0.063 -0.281 -0.313 -0.094 c -6.952 -1.986 -9.844 -3.938 -9.844 -3.938 l -0.781 -0.531 z m 1 1.781 c 0.83 0.495 3.416 1.885 9.03 3.531 0.07 0.402 0.653 3.889 -0.156 8.281 -0.819 4.444 -3.153 9.447 -8.875 12.438 l 0 -24.25 z" color="#000" fill="#c7d6e6"/><path d="m 24.2 11.1 c 0 0 3 2 10 4 0 0 3 16 -10 22 z m 0 0" fill="#33a4e6"/><path d="m 23.801 11.1 c 0 0 -3 2 -10 4 0 0 -3 16 10 22 z m 0 0" fill="#5cb9ec"/></g></g></g><g><g transform="translate(0,-1004.3622)"><path d="m 1 1043.36 0 4 c 0 2.216 1.784 4 4 4 l 38 0 c 2.216 0 4 -1.784 4 -4 l 0 -4 c 0 2.216 -1.784 4 -4 4 l -38 0 c -2.216 0 -4 -1.784 -4 -4 z" opacity="0.1"/></g></g></svg>