<svg viewBox="0 0 48 48"><defs><linearGradient id="linearGradient3764" x1="1" x2="47" gradientUnits="userSpaceOnUse" gradientTransform="translate(-48.000001,0.00221467)"><stop stop-color="#d45454" stop-opacity="1"/><stop offset="1" stop-color="#d86464" stop-opacity="1"/></linearGradient><clipPath id="clipPath-197110860"><g transform="translate(0,-1004.3622)"><rect rx="4" y="1005.36" x="1" height="46" width="46" fill="#1890d0"/></g></clipPath><clipPath id="clipPath-210751211"><g transform="translate(0,-1004.3622)"><rect rx="4" y="1005.36" x="1" height="46" width="46" fill="#1890d0"/></g></clipPath></defs><g><path d="m 1 43 l 0 0.25 c 0 2.216 1.784 4 4 4 l 38 0 c 2.216 0 4 -1.784 4 -4 l 0 -0.25 c 0 2.216 -1.784 4 -4 4 l -38 0 c -2.216 0 -4 -1.784 -4 -4 z m 0 0.5 l 0 0.5 c 0 2.216 1.784 4 4 4 l 38 0 c 2.216 0 4 -1.784 4 -4 l 0 -0.5 c 0 2.216 -1.784 4 -4 4 l -38 0 c -2.216 0 -4 -1.784 -4 -4 z" opacity="0.02"/><path d="m 1 43.25 l 0 0.25 c 0 2.216 1.784 4 4 4 l 38 0 c 2.216 0 4 -1.784 4 -4 l 0 -0.25 c 0 2.216 -1.784 4 -4 4 l -38 0 c -2.216 0 -4 -1.784 -4 -4 z" opacity="0.05"/><path d="m 1 43 l 0 0.25 c 0 2.216 1.784 4 4 4 l 38 0 c 2.216 0 4 -1.784 4 -4 l 0 -0.25 c 0 2.216 -1.784 4 -4 4 l -38 0 c -2.216 0 -4 -1.784 -4 -4 z" opacity="0.1"/></g><g><rect width="46" height="46" x="-47" y="1" rx="4" transform="matrix(0,-1,1,0,0,0)" fill="url(#linearGradient3764)" fill-opacity="1"/></g><g><g clip-path="url(#clipPath-197110860)"><g opacity="0.1"><!-- color: #d86464 --><g><path d="m 22.535 11 c -0.734 0.008 -1.508 0.465 -1.938 1.328 c -0.301 0.609 -0.383 1.238 -0.383 2.84 c 0 2.086 0.148 2.859 0.512 2.734 c 0.109 -0.039 0.762 -0.617 1.453 -1.297 c 1.969 -1.941 2.59 -3.555 1.84 -4.77 c -0.355 -0.574 -0.91 -0.84 -1.484 -0.836 m 3.695 4.059 c -0.414 0 -0.879 0.117 -1.367 0.352 c -0.859 0.41 -3.277 2.633 -3.082 2.832 c 0.219 0.223 2.863 0.477 3.855 0.367 c 0.504 -0.055 1.148 -0.242 1.43 -0.418 c 1.148 -0.723 1.336 -1.668 0.508 -2.566 c -0.348 -0.379 -0.809 -0.57 -1.344 -0.566 m -7.984 3.422 c -0.523 0.02 -1.059 0.32 -1.344 0.891 c -0.137 0.281 -0.547 0.609 -0.914 0.734 c -0.363 0.121 -0.941 0.574 -1.281 1 l -0.629 0.773 l -0.063 4.04 c -0.035 2.223 -0.008 4.34 0.063 4.715 c 0.133 0.719 1.121 1.816 1.906 2.117 c 0.258 0.102 1.066 0.188 1.789 0.188 l 1.316 0 l 0.008 -3.852 c 0.004 -3.609 0.031 -3.914 0.473 -4.777 c 0.695 -1.371 1.871 -2.121 3.488 -2.223 c 1.531 -0.098 2.484 0.172 3.34 0.941 c 1.563 1.418 1.934 3.656 0.926 5.621 c -0.469 0.91 -0.762 1.199 -1.688 1.68 c -1.016 0.527 -1.27 0.578 -2.609 0.484 l -1.48 -0.105 l 0 2.215 l 4.242 0.059 c 4.547 0.059 5.406 -0.039 6.156 -0.73 c 0.992 -0.914 1.055 -1.266 1.055 -5.934 l 0 -4.387 l -0.633 -0.77 c -1.074 -1.309 -1.43 -1.375 -7.34 -1.375 l -5.258 0 l -0.23 -0.52 c -0.25 -0.551 -0.77 -0.809 -1.293 -0.789 m 12.23 2.762 c 0.195 -0.02 0.395 0.035 0.582 0.191 c 0.363 0.305 0.402 1.055 0.063 1.395 c -0.371 0.371 -1.148 0.297 -1.375 -0.129 c -0.355 -0.664 0.145 -1.398 0.73 -1.457 m -14.09 2.258 c 0.109 -0.012 0.23 -0.004 0.352 0.02 c 0.18 0.039 0.328 0.164 0.324 0.277 c -0.004 0.285 -0.973 0.379 -1.137 0.109 c -0.117 -0.191 0.129 -0.371 0.461 -0.406 m -0.219 1.234 c 0.594 -0.016 1.387 0.121 1.387 0.297 c 0 0.277 -1.871 0.379 -2.039 0.109 c -0.07 -0.121 0.004 -0.273 0.168 -0.336 c 0.113 -0.043 0.289 -0.066 0.484 -0.07 m 0.5 1.219 c 1.059 0 1.41 0.07 1.348 0.258 c -0.09 0.277 -2.617 0.488 -2.863 0.238 c -0.328 -0.332 0.172 -0.496 1.516 -0.496 m -0.133 1.234 c 0.617 0 1.125 0.094 1.125 0.207 c 0 0.109 -0.508 0.203 -1.125 0.203 c -0.621 0 -1.125 -0.094 -1.125 -0.203 c 0 -0.113 0.504 -0.207 1.125 -0.207 m 0.016 1.234 c 0.473 0 0.703 0.082 0.652 0.234 c -0.082 0.25 -0.699 0.367 -1.137 0.219 c -0.516 -0.172 -0.215 -0.453 0.484 -0.453 m 0 0" fill="#000"/></g></g></g></g><g><g clip-path="url(#clipPath-210751211)"><g transform="translate(0,-1)"><!-- color: #d86464 --><g><path d="m 22.535 11 c -0.734 0.008 -1.508 0.465 -1.938 1.328 c -0.301 0.609 -0.383 1.238 -0.383 2.84 c 0 2.086 0.148 2.859 0.512 2.734 c 0.109 -0.039 0.762 -0.617 1.453 -1.297 c 1.969 -1.941 2.59 -3.555 1.84 -4.77 c -0.355 -0.574 -0.91 -0.84 -1.484 -0.836 m 3.695 4.059 c -0.414 0 -0.879 0.117 -1.367 0.352 c -0.859 0.41 -3.277 2.633 -3.082 2.832 c 0.219 0.223 2.863 0.477 3.855 0.367 c 0.504 -0.055 1.148 -0.242 1.43 -0.418 c 1.148 -0.723 1.336 -1.668 0.508 -2.566 c -0.348 -0.379 -0.809 -0.57 -1.344 -0.566 m -7.984 3.422 c -0.523 0.02 -1.059 0.32 -1.344 0.891 c -0.137 0.281 -0.547 0.609 -0.914 0.734 c -0.363 0.121 -0.941 0.574 -1.281 1 l -0.629 0.773 l -0.063 4.04 c -0.035 2.223 -0.008 4.34 0.063 4.715 c 0.133 0.719 1.121 1.816 1.906 2.117 c 0.258 0.102 1.066 0.188 1.789 0.188 l 1.316 0 l 0.008 -3.852 c 0.004 -3.609 0.031 -3.914 0.473 -4.777 c 0.695 -1.371 1.871 -2.121 3.488 -2.223 c 1.531 -0.098 2.484 0.172 3.34 0.941 c 1.563 1.418 1.934 3.656 0.926 5.621 c -0.469 0.91 -0.762 1.199 -1.688 1.68 c -1.016 0.527 -1.27 0.578 -2.609 0.484 l -1.48 -0.105 l 0 2.215 l 4.242 0.059 c 4.547 0.059 5.406 -0.039 6.156 -0.73 c 0.992 -0.914 1.055 -1.266 1.055 -5.934 l 0 -4.387 l -0.633 -0.77 c -1.074 -1.309 -1.43 -1.375 -7.34 -1.375 l -5.258 0 l -0.23 -0.52 c -0.25 -0.551 -0.77 -0.809 -1.293 -0.789 m 12.23 2.762 c 0.195 -0.02 0.395 0.035 0.582 0.191 c 0.363 0.305 0.402 1.055 0.063 1.395 c -0.371 0.371 -1.148 0.297 -1.375 -0.129 c -0.355 -0.664 0.145 -1.398 0.73 -1.457 m -14.09 2.258 c 0.109 -0.012 0.23 -0.004 0.352 0.02 c 0.18 0.039 0.328 0.164 0.324 0.277 c -0.004 0.285 -0.973 0.379 -1.137 0.109 c -0.117 -0.191 0.129 -0.371 0.461 -0.406 m -0.219 1.234 c 0.594 -0.016 1.387 0.121 1.387 0.297 c 0 0.277 -1.871 0.379 -2.039 0.109 c -0.07 -0.121 0.004 -0.273 0.168 -0.336 c 0.113 -0.043 0.289 -0.066 0.484 -0.07 m 0.5 1.219 c 1.059 0 1.41 0.07 1.348 0.258 c -0.09 0.277 -2.617 0.488 -2.863 0.238 c -0.328 -0.332 0.172 -0.496 1.516 -0.496 m -0.133 1.234 c 0.617 0 1.125 0.094 1.125 0.207 c 0 0.109 -0.508 0.203 -1.125 0.203 c -0.621 0 -1.125 -0.094 -1.125 -0.203 c 0 -0.113 0.504 -0.207 1.125 -0.207 m 0.016 1.234 c 0.473 0 0.703 0.082 0.652 0.234 c -0.082 0.25 -0.699 0.367 -1.137 0.219 c -0.516 -0.172 -0.215 -0.453 0.484 -0.453 m 0 0" fill="#fff"/></g></g></g></g><g><g transform="translate(0,-1004.3622)"><path d="m 1 1043.36 0 4 c 0 2.216 1.784 4 4 4 l 38 0 c 2.216 0 4 -1.784 4 -4 l 0 -4 c 0 2.216 -1.784 4 -4 4 l -38 0 c -2.216 0 -4 -1.784 -4 -4 z" opacity="0.1"/></g></g></svg>