<svg viewBox="0 0 48 48"><defs><linearGradient id="linearGradient3764" x1="1" x2="47" gradientUnits="userSpaceOnUse" gradientTransform="translate(-48.000001,0.00221467)"><stop stop-color="#93c848" stop-opacity="1"/><stop offset="1" stop-color="#9ccd57" stop-opacity="1"/></linearGradient><clipPath id="clipPath-037101700"><g transform="translate(0,-1004.3622)"><rect rx="4" y="1005.36" x="1" height="46" width="46" fill="#1890d0"/></g></clipPath><clipPath id="clipPath-072523928"><g transform="translate(0,-1004.3622)"><rect rx="4" y="1005.36" x="1" height="46" width="46" fill="#1890d0"/></g></clipPath></defs><g><path d="m 1 43 l 0 0.25 c 0 2.216 1.784 4 4 4 l 38 0 c 2.216 0 4 -1.784 4 -4 l 0 -0.25 c 0 2.216 -1.784 4 -4 4 l -38 0 c -2.216 0 -4 -1.784 -4 -4 z m 0 0.5 l 0 0.5 c 0 2.216 1.784 4 4 4 l 38 0 c 2.216 0 4 -1.784 4 -4 l 0 -0.5 c 0 2.216 -1.784 4 -4 4 l -38 0 c -2.216 0 -4 -1.784 -4 -4 z" opacity="0.02"/><path d="m 1 43.25 l 0 0.25 c 0 2.216 1.784 4 4 4 l 38 0 c 2.216 0 4 -1.784 4 -4 l 0 -0.25 c 0 2.216 -1.784 4 -4 4 l -38 0 c -2.216 0 -4 -1.784 -4 -4 z" opacity="0.05"/><path d="m 1 43 l 0 0.25 c 0 2.216 1.784 4 4 4 l 38 0 c 2.216 0 4 -1.784 4 -4 l 0 -0.25 c 0 2.216 -1.784 4 -4 4 l -38 0 c -2.216 0 -4 -1.784 -4 -4 z" opacity="0.1"/></g><g><rect width="46" height="46" x="-47" y="1" rx="4" transform="matrix(0,-1,1,0,0,0)" fill="url(#linearGradient3764)" fill-opacity="1"/></g><g><g clip-path="url(#clipPath-037101700)"><g opacity="0.1"><!-- color: #9ccd57 --><path d="m 12.02 13.977 -0.902 10 0.902 10 12 0.902 12 -0.902 0.898 -10 -0.898 -10 -12 -0.898 z m 0 0" fill="#000"/><path d="m 20.555 13.32 -8.531 0.656 -0.875 9.781 c 0.598 0.145 1.23 0.219 1.875 0.219 4.418 0 8 -3.582 8 -8 0 -0.93 -0.176 -1.824 -0.469 -2.656 z m 0 0" fill-opacity="0.2" fill="#000"/><path d="m 11.922 13.977 0 5.656 c 0.453 0.215 1.066 0.344 1.602 0.344 1.934 0 3.5 -1.566 3.5 -3.5 0 -0.98 -0.41 -1.863 -1.063 -2.5 z m 0 0" fill="#000"/><path d="m 17.02 25.977 -5.102 5 0 3.102 11.1 0 0 -2.102 z m 0 0" fill="#000"/><path d="m 17.02 25.977 1 4 -2 2.5 1 1.602 6 0 0 -2.102 z m 0 0" fill="#000"/><path d="m 30.02 21.977 -9 12.1 15.1 0 0 -5.445 z m 0 0" fill="#000"/><path d="m 30.02 21.977 1.5 5 -1.5 4.5 1.781 2.602 4.316 0 0 -5.445 z m 0 0" fill="#000"/><path d="m 13.281 13 c -1.247 0 -2.281 1.03 -2.281 2.281 l 0 17.438 c 0 1.248 1.034 2.281 2.281 2.281 l 21.469 0 c 1.247 0 2.25 -1.033 2.25 -2.281 l 0 -17.438 c 0 -1.251 -1 -2.281 -2.25 -2.281 l -21.469 0 z m 0 1 21.469 0 c 0.706 0 1.281 0.571 1.281 1.281 l 0 17.438 c 0 0.705 -0.575 1.281 -1.281 1.281 l -21.469 0 c -0.706 0 -1.281 -0.576 -1.281 -1.281 l 0 -17.438 c 0 -0.71 0.575 -1.281 1.281 -1.281 z" color="#000" fill="#000"/></g></g></g><g><g clip-path="url(#clipPath-072523928)"><g transform="translate(0,-1)"><!-- color: #9ccd57 --><path d="m 12.02 13.977 -0.902 10 0.902 10 12 0.902 12 -0.902 0.898 -10 -0.898 -10 -12 -0.898 z m 0 0" fill="#2c86d5"/><path d="m 20.555 13.32 -8.531 0.656 -0.875 9.781 c 0.598 0.145 1.23 0.219 1.875 0.219 4.418 0 8 -3.582 8 -8 0 -0.93 -0.176 -1.824 -0.469 -2.656 z m 0 0" fill="#fff" fill-opacity="0.2"/><path d="m 11.922 13.977 0 5.656 c 0.453 0.215 1.066 0.344 1.602 0.344 1.934 0 3.5 -1.566 3.5 -3.5 0 -0.98 -0.41 -1.863 -1.063 -2.5 z m 0 0" fill="#fbc06e"/><path d="m 17.02 25.977 -5.102 5 0 3.102 11.1 0 0 -2.102 z m 0 0" fill="#f5f5f5"/><path d="m 17.02 25.977 1 4 -2 2.5 1 1.602 6 0 0 -2.102 z m 0 0" fill="#dedede"/><path d="m 30.02 21.977 -9 12.1 15.1 0 0 -5.445 z m 0 0" fill="#f5f5f5"/><path d="m 30.02 21.977 1.5 5 -1.5 4.5 1.781 2.602 4.316 0 0 -5.445 z m 0 0" fill="#dedede"/><path d="m 13.281 13 c -1.247 0 -2.281 1.03 -2.281 2.281 l 0 17.438 c 0 1.248 1.034 2.281 2.281 2.281 l 21.469 0 c 1.247 0 2.25 -1.033 2.25 -2.281 l 0 -17.438 c 0 -1.251 -1 -2.281 -2.25 -2.281 l -21.469 0 z m 0 1 21.469 0 c 0.706 0 1.281 0.571 1.281 1.281 l 0 17.438 c 0 0.705 -0.575 1.281 -1.281 1.281 l -21.469 0 c -0.706 0 -1.281 -0.576 -1.281 -1.281 l 0 -17.438 c 0 -0.71 0.575 -1.281 1.281 -1.281 z" color="#000" fill="#fff"/></g></g></g><g><g transform="translate(0,-1004.3622)"><path d="m 1 1043.36 0 4 c 0 2.216 1.784 4 4 4 l 38 0 c 2.216 0 4 -1.784 4 -4 l 0 -4 c 0 2.216 -1.784 4 -4 4 l -38 0 c -2.216 0 -4 -1.784 -4 -4 z" opacity="0.1"/></g></g></svg>