<svg viewBox="0 0 48 48"><defs><linearGradient id="linearGradient3764" y1="1" x2="0" y2="47" gradientUnits="userSpaceOnUse"><stop stop-color="#3d3d3d" stop-opacity="1"/><stop offset="1" stop-color="#333" stop-opacity="1"/></linearGradient><clipPath id="clipPath-359183045"><g transform="translate(0,-1004.3622)"><path d="m 24 1005.37 c -1.045 0 -2.023 0.287 -2.856 0.784 l -15.339 8.708 c -0.017 0.013 -0.035 0.013 -0.052 0.021 -1.852 1.051 -2.847 3 -2.746 4.968 l 0 17.02 c -0.056 1.013 0.175 2.049 0.729 2.993 0.532 0.903 1.288 1.602 2.161 2.061 l 15.246 8.653 c 0.832 0.497 1.811 0.784 2.856 0.784 1.045 0 2.023 -0.287 2.856 -0.784 l 15.246 -8.653 c 0.873 -0.46 1.629 -1.158 2.161 -2.061 0.554 -0.944 0.785 -1.981 0.729 -2.993 l 0 -17.01 c 0.056 -1.012 -0.175 -2.052 -0.729 -2.993 -0.532 -0.906 -1.288 -1.604 -2.161 -2.064 l -15.246 -8.653 c -0.832 -0.497 -1.811 -0.784 -2.856 -0.784 z" fill="#1890d0"/></g></clipPath><clipPath id="clipPath-376611083"><g transform="translate(0,-1004.3622)"><path d="m 24 1005.37 c -1.045 0 -2.023 0.287 -2.856 0.784 l -15.339 8.708 c -0.017 0.013 -0.035 0.013 -0.052 0.021 -1.852 1.051 -2.847 3 -2.746 4.968 l 0 17.02 c -0.056 1.013 0.175 2.049 0.729 2.993 0.532 0.903 1.288 1.602 2.161 2.061 l 15.246 8.653 c 0.832 0.497 1.811 0.784 2.856 0.784 1.045 0 2.023 -0.287 2.856 -0.784 l 15.246 -8.653 c 0.873 -0.46 1.629 -1.158 2.161 -2.061 0.554 -0.944 0.785 -1.981 0.729 -2.993 l 0 -17.01 c 0.056 -1.012 -0.175 -2.052 -0.729 -2.993 -0.532 -0.906 -1.288 -1.604 -2.161 -2.064 l -15.246 -8.653 c -0.832 -0.497 -1.811 -0.784 -2.856 -0.784 z" fill="#1890d0"/></g></clipPath><filter id="filter-322230862"><feGaussianBlur stdDeviation="0.35"/></filter></defs><g><g transform="translate(0,-1004.3622)"><path d="m 45 1037.36 c 0.056 1.013 -0.196 2.056 -0.75 3 -0.532 0.903 -1.283 1.603 -2.156 2.063 l -15.25 8.656 c -0.832 0.497 -1.799 0.781 -2.844 0.781 -1.045 0 -2.01 -0.284 -2.844 -0.781 l -15.25 -8.656 c -0.873 -0.46 -1.625 -1.159 -2.156 -2.063 -0.416 -0.708 -0.677 -1.485 -0.75 -2.25 -0.004 0.932 0.242 1.884 0.75 2.75 0.532 0.903 1.283 1.603 2.156 2.063 l 15.25 8.656 c 0.832 0.497 1.799 0.781 2.844 0.781 1.045 0 2.01 -0.284 2.844 -0.781 l 15.25 -8.656 c 0.873 -0.46 1.625 -1.159 2.156 -2.063 0.554 -0.944 0.806 -1.987 0.75 -3 l 0 -0.5 z" opacity="0.05"/><path d="m 45 1036.86 c 0.015 0.263 -0.004 0.516 -0.031 0.781 -0.036 0.844 -0.259 1.685 -0.719 2.469 -0.532 0.903 -1.283 1.603 -2.156 2.063 l -15.25 8.656 c -0.832 0.497 -1.799 0.781 -2.844 0.781 -1.045 0 -2.01 -0.284 -2.844 -0.781 l -15.25 -8.656 c -0.873 -0.46 -1.625 -1.159 -2.156 -2.063 -0.414 -0.705 -0.621 -1.46 -0.688 -2.219 -0.014 -0.092 -0.054 -0.189 -0.063 -0.281 -0.004 0.932 0.242 1.884 0.75 2.75 0.532 0.903 1.283 1.603 2.156 2.063 l 15.25 8.656 c 0.832 0.497 1.799 0.781 2.844 0.781 1.045 0 2.01 -0.284 2.844 -0.781 l 15.25 -8.656 c 0.873 -0.46 1.625 -1.159 2.156 -2.063 0.554 -0.944 0.806 -1.987 0.75 -3 l 0 -0.5 z m -41.813 1.625 c 0.057 0.219 0.132 0.442 0.219 0.656 -0.088 -0.216 -0.16 -0.436 -0.219 -0.656 z m 0.219 0.656 c 0.099 0.243 0.206 0.484 0.344 0.719 -0.139 -0.236 -0.243 -0.472 -0.344 -0.719 z m 41.41 -0.656 c -0.059 0.221 -0.131 0.441 -0.219 0.656 0.087 -0.215 0.161 -0.437 0.219 -0.656 z m -0.219 0.656 c -0.101 0.246 -0.205 0.483 -0.344 0.719 0.138 -0.235 0.245 -0.476 0.344 -0.719 z" opacity="0.1"/><path d="m 3.03 1037.64 c 0.035 0.844 0.259 1.685 0.719 2.469 0.532 0.903 1.283 1.603 2.156 2.063 l 15.25 8.656 c 0.832 0.497 1.799 0.781 2.844 0.781 1.045 0 2.01 -0.284 2.844 -0.781 l 15.25 -8.656 c 0.873 -0.46 1.625 -1.159 2.156 -2.063 0.46 -0.784 0.683 -1.624 0.719 -2.469 -0.067 0.763 -0.303 1.511 -0.719 2.219 -0.532 0.903 -1.283 1.603 -2.156 2.063 l -15.25 8.656 c -0.832 0.497 -1.799 0.781 -2.844 0.781 -1.045 0 -2.01 -0.284 -2.844 -0.781 l -15.25 -8.656 c -0.873 -0.46 -1.625 -1.159 -2.156 -2.063 -0.416 -0.708 -0.651 -1.456 -0.719 -2.219 z" opacity="0.2"/></g></g><g><path d="m 24 46.996 c 1.045 0 2.023 -0.287 2.856 -0.784 l 15.339 -8.708 c 0.017 -0.013 0.035 -0.013 0.052 -0.021 1.852 -1.051 2.847 -3 2.746 -4.968 l 0 -17.02 c 0.056 -1.013 -0.175 -2.049 -0.729 -2.993 -0.532 -0.903 -1.288 -1.602 -2.161 -2.061 l -15.246 -8.653 c -0.832 -0.497 -1.811 -0.784 -2.856 -0.784 -1.045 0 -2.023 0.287 -2.856 0.784 l -15.246 8.653 c -0.873 0.46 -1.629 1.158 -2.161 2.061 -0.554 0.944 -0.785 1.981 -0.729 2.993 l 0 17.01 c -0.056 1.012 0.175 2.051 0.729 2.993 0.532 0.906 1.288 1.604 2.161 2.064 l 15.246 8.653 c 0.832 0.497 1.811 0.785 2.856 0.785 z" fill="url(#linearGradient3764)" fill-opacity="1"/></g><g><g clip-path="url(#clipPath-359183045)"><g opacity="0.25"><g transform="translate(0,1)"><g filter="url(#filter-322230862)"><!-- color: #3d3d3d --><g><path d="m 31.31 12 c -3.129 0 -5.691 2.477 -5.691 5.5 c 0 3.02 2.563 5.504 5.691 5.504 c 3.125 0 5.688 -2.48 5.688 -5.504 c 0 -3.02 -2.563 -5.5 -5.688 -5.5 m 0 1.848 c 2.102 0 3.777 1.621 3.777 3.652 c 0 2.035 -1.676 3.656 -3.777 3.656 c -2.105 0 -3.781 -1.621 -3.781 -3.656 c 0 -2.031 1.676 -3.652 3.781 -3.652 m 0 0" fill="#000"/><path d="m 33.746 17.496 c 0 1.301 -1.09 2.355 -2.438 2.355 c -1.344 0 -2.438 -1.055 -2.438 -2.355 c 0 -1.305 1.094 -2.359 2.438 -2.359 c 1.348 0 2.438 1.055 2.438 2.359 m 0 0" fill="#000"/><path d="m 26.434 19.852 l 0 7.07 l 4.063 0.785 l 3.473 -5.867 l -3.625 0 m -3.91 -1.992" fill="#000"/><path d="m 27.25 26.14 c -2.23 0 -4.063 1.77 -4.063 3.93 c 0 2.16 1.832 3.93 4.063 3.93 c 2.234 0 4.066 -1.77 4.066 -3.93 c 0 -2.16 -1.832 -3.93 -4.066 -3.93 m 0 1.32 c 1.504 0 2.699 1.156 2.699 2.609 c 0 1.453 -1.195 2.609 -2.699 2.609 c -1.5 0 -2.699 -1.156 -2.699 -2.609 c 0 -1.453 1.199 -2.609 2.699 -2.609 m 0 0" fill="#000"/><path d="m 15.06 20.637 c -2.23 0 -4.063 1.773 -4.063 3.93 c 0 2.16 1.832 3.934 4.063 3.934 c 2.234 0 4.066 -1.773 4.066 -3.934 c 0 -2.156 -1.832 -3.93 -4.066 -3.93 m -0.008 1.574 c 1.629 0 2.441 0.785 2.441 2.355 c 0 1.574 -0.813 2.359 -2.441 2.359 c -1.625 0 -2.438 -0.785 -2.438 -2.359 c 0 -1.57 0.813 -2.355 2.438 -2.355 m 0 0" fill="#000"/><path d="m 15.953 23.16 c -0.922 -0.379 -1.984 0.035 -2.375 0.93 c -0.391 0.891 0.039 1.922 0.961 2.297 l 12.07 5.25 c 0.922 0.379 1.988 -0.035 2.379 -0.93 c 0.391 -0.891 -0.039 -1.922 -0.961 -2.297 m -12.08 -5.25" fill="#000"/></g></g></g></g></g></g><g><g clip-path="url(#clipPath-376611083)"><!-- color: #3d3d3d --><g><path d="m 31.31 12 c -3.129 0 -5.691 2.477 -5.691 5.5 c 0 3.02 2.563 5.504 5.691 5.504 c 3.125 0 5.688 -2.48 5.688 -5.504 c 0 -3.02 -2.563 -5.5 -5.688 -5.5 m 0 1.848 c 2.102 0 3.777 1.621 3.777 3.652 c 0 2.035 -1.676 3.656 -3.777 3.656 c -2.105 0 -3.781 -1.621 -3.781 -3.656 c 0 -2.031 1.676 -3.652 3.781 -3.652 m 0 0" fill="#f9f9f9"/><path d="m 33.746 17.496 c 0 1.301 -1.09 2.355 -2.438 2.355 c -1.344 0 -2.438 -1.055 -2.438 -2.355 c 0 -1.305 1.094 -2.359 2.438 -2.359 c 1.348 0 2.438 1.055 2.438 2.359 m 0 0" fill="#f9f9f9"/><path d="m 26.434 19.852 l 0 7.07 l 4.063 0.785 l 3.473 -5.867 l -3.625 0 m -3.91 -1.992" fill="#f9f9f9"/><path d="m 27.25 26.14 c -2.23 0 -4.063 1.77 -4.063 3.93 c 0 2.16 1.832 3.93 4.063 3.93 c 2.234 0 4.066 -1.77 4.066 -3.93 c 0 -2.16 -1.832 -3.93 -4.066 -3.93 m 0 1.32 c 1.504 0 2.699 1.156 2.699 2.609 c 0 1.453 -1.195 2.609 -2.699 2.609 c -1.5 0 -2.699 -1.156 -2.699 -2.609 c 0 -1.453 1.199 -2.609 2.699 -2.609 m 0 0" fill="#f9f9f9"/><path d="m 15.06 20.637 c -2.23 0 -4.063 1.773 -4.063 3.93 c 0 2.16 1.832 3.934 4.063 3.934 c 2.234 0 4.066 -1.773 4.066 -3.934 c 0 -2.156 -1.832 -3.93 -4.066 -3.93 m -0.008 1.574 c 1.629 0 2.441 0.785 2.441 2.355 c 0 1.574 -0.813 2.359 -2.441 2.359 c -1.625 0 -2.438 -0.785 -2.438 -2.359 c 0 -1.57 0.813 -2.355 2.438 -2.355 m 0 0" fill="#f9f9f9"/><path d="m 15.953 23.16 c -0.922 -0.379 -1.984 0.035 -2.375 0.93 c -0.391 0.891 0.039 1.922 0.961 2.297 l 12.07 5.25 c 0.922 0.379 1.988 -0.035 2.379 -0.93 c 0.391 -0.891 -0.039 -1.922 -0.961 -2.297 m -12.08 -5.25" fill="#f9f9f9"/></g></g></g><g><path d="m 24 1 c -1.045 0 -2.01 0.284 -2.844 0.781 l -15.344 8.719 c -0.017 0.013 -0.045 0.023 -0.063 0.031 c -1.852 1.051 -2.851 3 -2.75 4.969 l 0 1 c -0.101 -1.966 0.898 -3.918 2.75 -4.969 c 0.017 -0.008 0.045 -0.018 0.063 -0.031 l 15.344 -8.719 c 0.832 -0.497 1.799 -0.781 2.844 -0.781 c 1.045 0 2.01 0.284 2.844 0.781 l 15.25 8.656 c 0.873 0.46 1.625 1.156 2.156 2.063 c 0.554 0.942 0.806 1.988 0.75 3 l 0 -1 c 0.056 -1.012 -0.196 -2.058 -0.75 -3 c -0.532 -0.906 -1.283 -1.603 -2.156 -2.063 l -15.25 -8.656 c -0.832 -0.497 -1.799 -0.781 -2.844 -0.781 z" opacity="0.2" fill="#fff"/></g></svg>