<svg viewBox="0 0 48 48"><defs><linearGradient id="linearGradient3764" y1="1" x2="0" y2="47" gradientUnits="userSpaceOnUse"><stop stop-color="#efefef" stop-opacity="1"/><stop offset="1" stop-color="#e5e5e5" stop-opacity="1"/></linearGradient><clipPath id="clipPath-113138528"><g transform="translate(0,-1004.3622)"><path d="m 24 1005.37 c -1.045 0 -2.023 0.287 -2.856 0.784 l -15.339 8.708 c -0.017 0.013 -0.035 0.013 -0.052 0.021 -1.852 1.051 -2.847 3 -2.746 4.968 l 0 17.02 c -0.056 1.013 0.175 2.049 0.729 2.993 0.532 0.903 1.288 1.602 2.161 2.061 l 15.246 8.653 c 0.832 0.497 1.811 0.784 2.856 0.784 1.045 0 2.023 -0.287 2.856 -0.784 l 15.246 -8.653 c 0.873 -0.46 1.629 -1.158 2.161 -2.061 0.554 -0.944 0.785 -1.981 0.729 -2.993 l 0 -17.01 c 0.056 -1.012 -0.175 -2.052 -0.729 -2.993 -0.532 -0.906 -1.288 -1.604 -2.161 -2.064 l -15.246 -8.653 c -0.832 -0.497 -1.811 -0.784 -2.856 -0.784 z" fill="#1890d0"/></g></clipPath><clipPath id="clipPath-122377063"><g transform="translate(0,-1004.3622)"><path d="m 24 1005.37 c -1.045 0 -2.023 0.287 -2.856 0.784 l -15.339 8.708 c -0.017 0.013 -0.035 0.013 -0.052 0.021 -1.852 1.051 -2.847 3 -2.746 4.968 l 0 17.02 c -0.056 1.013 0.175 2.049 0.729 2.993 0.532 0.903 1.288 1.602 2.161 2.061 l 15.246 8.653 c 0.832 0.497 1.811 0.784 2.856 0.784 1.045 0 2.023 -0.287 2.856 -0.784 l 15.246 -8.653 c 0.873 -0.46 1.629 -1.158 2.161 -2.061 0.554 -0.944 0.785 -1.981 0.729 -2.993 l 0 -17.01 c 0.056 -1.012 -0.175 -2.052 -0.729 -2.993 -0.532 -0.906 -1.288 -1.604 -2.161 -2.064 l -15.246 -8.653 c -0.832 -0.497 -1.811 -0.784 -2.856 -0.784 z" fill="#1890d0"/></g></clipPath><filter id="filter-088978122"><feGaussianBlur stdDeviation="0.35"/></filter></defs><g><g transform="translate(0,-1004.3622)"><path d="m 45 1037.36 c 0.056 1.013 -0.196 2.056 -0.75 3 -0.532 0.903 -1.283 1.603 -2.156 2.063 l -15.25 8.656 c -0.832 0.497 -1.799 0.781 -2.844 0.781 -1.045 0 -2.01 -0.284 -2.844 -0.781 l -15.25 -8.656 c -0.873 -0.46 -1.625 -1.159 -2.156 -2.063 -0.416 -0.708 -0.677 -1.485 -0.75 -2.25 -0.004 0.932 0.242 1.884 0.75 2.75 0.532 0.903 1.283 1.603 2.156 2.063 l 15.25 8.656 c 0.832 0.497 1.799 0.781 2.844 0.781 1.045 0 2.01 -0.284 2.844 -0.781 l 15.25 -8.656 c 0.873 -0.46 1.625 -1.159 2.156 -2.063 0.554 -0.944 0.806 -1.987 0.75 -3 l 0 -0.5 z" opacity="0.05"/><path d="m 45 1036.86 c 0.015 0.263 -0.004 0.516 -0.031 0.781 -0.036 0.844 -0.259 1.685 -0.719 2.469 -0.532 0.903 -1.283 1.603 -2.156 2.063 l -15.25 8.656 c -0.832 0.497 -1.799 0.781 -2.844 0.781 -1.045 0 -2.01 -0.284 -2.844 -0.781 l -15.25 -8.656 c -0.873 -0.46 -1.625 -1.159 -2.156 -2.063 -0.414 -0.705 -0.621 -1.46 -0.688 -2.219 -0.014 -0.092 -0.054 -0.189 -0.063 -0.281 -0.004 0.932 0.242 1.884 0.75 2.75 0.532 0.903 1.283 1.603 2.156 2.063 l 15.25 8.656 c 0.832 0.497 1.799 0.781 2.844 0.781 1.045 0 2.01 -0.284 2.844 -0.781 l 15.25 -8.656 c 0.873 -0.46 1.625 -1.159 2.156 -2.063 0.554 -0.944 0.806 -1.987 0.75 -3 l 0 -0.5 z m -41.813 1.625 c 0.057 0.219 0.132 0.442 0.219 0.656 -0.088 -0.216 -0.16 -0.436 -0.219 -0.656 z m 0.219 0.656 c 0.099 0.243 0.206 0.484 0.344 0.719 -0.139 -0.236 -0.243 -0.472 -0.344 -0.719 z m 41.41 -0.656 c -0.059 0.221 -0.131 0.441 -0.219 0.656 0.087 -0.215 0.161 -0.437 0.219 -0.656 z m -0.219 0.656 c -0.101 0.246 -0.205 0.483 -0.344 0.719 0.138 -0.235 0.245 -0.476 0.344 -0.719 z" opacity="0.1"/><path d="m 3.03 1037.64 c 0.035 0.844 0.259 1.685 0.719 2.469 0.532 0.903 1.283 1.603 2.156 2.063 l 15.25 8.656 c 0.832 0.497 1.799 0.781 2.844 0.781 1.045 0 2.01 -0.284 2.844 -0.781 l 15.25 -8.656 c 0.873 -0.46 1.625 -1.159 2.156 -2.063 0.46 -0.784 0.683 -1.624 0.719 -2.469 -0.067 0.763 -0.303 1.511 -0.719 2.219 -0.532 0.903 -1.283 1.603 -2.156 2.063 l -15.25 8.656 c -0.832 0.497 -1.799 0.781 -2.844 0.781 -1.045 0 -2.01 -0.284 -2.844 -0.781 l -15.25 -8.656 c -0.873 -0.46 -1.625 -1.159 -2.156 -2.063 -0.416 -0.708 -0.651 -1.456 -0.719 -2.219 z" opacity="0.2"/></g></g><g><path d="m 24 46.996 c 1.045 0 2.023 -0.287 2.856 -0.784 l 15.339 -8.708 c 0.017 -0.013 0.035 -0.013 0.052 -0.021 1.852 -1.051 2.847 -3 2.746 -4.968 l 0 -17.02 c 0.056 -1.013 -0.175 -2.049 -0.729 -2.993 -0.532 -0.903 -1.288 -1.602 -2.161 -2.061 l -15.246 -8.653 c -0.832 -0.497 -1.811 -0.784 -2.856 -0.784 -1.045 0 -2.023 0.287 -2.856 0.784 l -15.246 8.653 c -0.873 0.46 -1.629 1.158 -2.161 2.061 -0.554 0.944 -0.785 1.981 -0.729 2.993 l 0 17.01 c -0.056 1.012 0.175 2.051 0.729 2.993 0.532 0.906 1.288 1.604 2.161 2.064 l 15.246 8.653 c 0.832 0.497 1.811 0.785 2.856 0.785 z" fill="url(#linearGradient3764)" fill-opacity="1"/></g><g><g clip-path="url(#clipPath-113138528)"><g opacity="0.25"><g transform="translate(0,1)"><g filter="url(#filter-088978122)"><!-- color: #efefef --><path d="M 0 0 L 0 17 L 48 17 L 48 0 L 0 0 z " fill-rule="evenodd" fill="#000"/><g><path d="m 31 12 c 0 1.105 -0.895 2 -2 2 c -1.105 0 -2 -0.895 -2 -2 c 0 -1.102 0.895 -2 2 -2 c 1.105 0 2 0.898 2 2 m 0 0" fill="#000"/><path d="m 36 12 c 0 1.105 -0.895 2 -2 2 c -1.105 0 -2 -0.895 -2 -2 c 0 -1.102 0.895 -2 2 -2 c 1.105 0 2 0.898 2 2 m 0 0" fill="#000"/><path d="m 34 13 c 1 0 1 -1 1 -1 c 0 0 0 -1 -1 -1 l -5 0 c -1 0 -1 1 -1 1 c 0 0 0 1 1 1 m 5 0" fill="#000"/><path d="m 16 12 c 0 1.105 -0.895 2 -2 2 c -1.105 0 -2 -0.895 -2 -2 c 0 -1.102 0.895 -2 2 -2 c 1.105 0 2 0.898 2 2 m 0 0" fill="#000"/><path d="m 21 12 c 0 1.105 -0.895 2 -2 2 c -1.105 0 -2 -0.895 -2 -2 c 0 -1.102 0.895 -2 2 -2 c 1.105 0 2 0.898 2 2 m 0 0" fill="#000"/><path d="m 14 13 c -1 0 -1 -1 -1 -1 c 0 0 0 -1 1 -1 l 5 0 c 1 0 1 1 1 1 c 0 0 0 1 -1 1 m -5 0" fill="#000"/><path d="m 19.16 34.816 l -1.586 0 l 0 -9.707 c 0 -0.809 0.027 -1.57 0.078 -2.293 c -0.137 0.133 -0.289 0.27 -0.461 0.41 c -0.168 0.145 -0.945 0.75 -2.324 1.816 l -0.863 -1.059 l 3.785 -2.785 l 1.371 0 l 0 13.617" fill="#000"/><path d="m 34 27.01 c 0 5.328 -2.164 7.992 -6.492 7.992 c -0.758 0 -1.355 -0.059 -1.801 -0.184 l 0 -1.332 c 0.523 0.16 1.117 0.242 1.781 0.242 c 1.563 0 2.746 -0.461 3.539 -1.379 c 0.801 -0.926 1.238 -2.34 1.313 -4.25 l -0.117 0 c -0.359 0.516 -0.836 0.91 -1.43 1.184 c -0.594 0.27 -1.262 0.402 -2 0.402 c -1.266 0 -2.27 -0.359 -3.01 -1.082 c -0.746 -0.719 -1.117 -1.727 -1.117 -3.02 c 0 -1.418 0.414 -2.535 1.242 -3.355 c 0.836 -0.82 1.93 -1.23 3.285 -1.23 c 0.973 0 1.82 0.242 2.543 0.719 c 0.73 0.473 1.293 1.164 1.684 2.078 c 0.391 0.906 0.586 1.977 0.586 3.211 m -4.813 -4.684 c -0.93 0 -1.652 0.285 -2.16 0.855 c -0.508 0.574 -0.762 1.367 -0.762 2.387 c 0 0.895 0.234 1.598 0.703 2.113 c 0.469 0.512 1.184 0.766 2.141 0.766 c 0.594 0 1.141 -0.117 1.637 -0.348 c 0.5 -0.227 0.895 -0.543 1.184 -0.938 c 0.285 -0.398 0.43 -0.816 0.43 -1.25 c 0 -0.652 -0.137 -1.254 -0.402 -1.805 c -0.266 -0.555 -0.641 -0.988 -1.125 -1.305 c -0.477 -0.316 -1.023 -0.477 -1.645 -0.477" fill="#000"/></g></g></g></g></g></g><g><g clip-path="url(#clipPath-122377063)"><!-- color: #efefef --><path d="M 0 0 L 0 17 L 48 17 L 48 0 L 0 0 z " fill="#d64937" fill-rule="evenodd"/><g><path d="m 31 12 c 0 1.105 -0.895 2 -2 2 c -1.105 0 -2 -0.895 -2 -2 c 0 -1.102 0.895 -2 2 -2 c 1.105 0 2 0.898 2 2 m 0 0" fill="#802c20"/><path d="m 36 12 c 0 1.105 -0.895 2 -2 2 c -1.105 0 -2 -0.895 -2 -2 c 0 -1.102 0.895 -2 2 -2 c 1.105 0 2 0.898 2 2 m 0 0" fill="#802c20"/><path d="m 34 13 c 1 0 1 -1 1 -1 c 0 0 0 -1 -1 -1 l -5 0 c -1 0 -1 1 -1 1 c 0 0 0 1 1 1 m 5 0" fill="#dcdcdc"/><path d="m 16 12 c 0 1.105 -0.895 2 -2 2 c -1.105 0 -2 -0.895 -2 -2 c 0 -1.102 0.895 -2 2 -2 c 1.105 0 2 0.898 2 2 m 0 0" fill="#802c20"/><path d="m 21 12 c 0 1.105 -0.895 2 -2 2 c -1.105 0 -2 -0.895 -2 -2 c 0 -1.102 0.895 -2 2 -2 c 1.105 0 2 0.898 2 2 m 0 0" fill="#802c20"/><path d="m 14 13 c -1 0 -1 -1 -1 -1 c 0 0 0 -1 1 -1 l 5 0 c 1 0 1 1 1 1 c 0 0 0 1 -1 1 m -5 0" fill="#dcdcdc"/><path d="m 19.16 34.816 l -1.586 0 l 0 -9.707 c 0 -0.809 0.027 -1.57 0.078 -2.293 c -0.137 0.133 -0.289 0.27 -0.461 0.41 c -0.168 0.145 -0.945 0.75 -2.324 1.816 l -0.863 -1.059 l 3.785 -2.785 l 1.371 0 l 0 13.617" fill="#868686"/><path d="m 34 27.01 c 0 5.328 -2.164 7.992 -6.492 7.992 c -0.758 0 -1.355 -0.059 -1.801 -0.184 l 0 -1.332 c 0.523 0.16 1.117 0.242 1.781 0.242 c 1.563 0 2.746 -0.461 3.539 -1.379 c 0.801 -0.926 1.238 -2.34 1.313 -4.25 l -0.117 0 c -0.359 0.516 -0.836 0.91 -1.43 1.184 c -0.594 0.27 -1.262 0.402 -2 0.402 c -1.266 0 -2.27 -0.359 -3.01 -1.082 c -0.746 -0.719 -1.117 -1.727 -1.117 -3.02 c 0 -1.418 0.414 -2.535 1.242 -3.355 c 0.836 -0.82 1.93 -1.23 3.285 -1.23 c 0.973 0 1.82 0.242 2.543 0.719 c 0.73 0.473 1.293 1.164 1.684 2.078 c 0.391 0.906 0.586 1.977 0.586 3.211 m -4.813 -4.684 c -0.93 0 -1.652 0.285 -2.16 0.855 c -0.508 0.574 -0.762 1.367 -0.762 2.387 c 0 0.895 0.234 1.598 0.703 2.113 c 0.469 0.512 1.184 0.766 2.141 0.766 c 0.594 0 1.141 -0.117 1.637 -0.348 c 0.5 -0.227 0.895 -0.543 1.184 -0.938 c 0.285 -0.398 0.43 -0.816 0.43 -1.25 c 0 -0.652 -0.137 -1.254 -0.402 -1.805 c -0.266 -0.555 -0.641 -0.988 -1.125 -1.305 c -0.477 -0.316 -1.023 -0.477 -1.645 -0.477" fill="#868686"/></g></g></g><g><path d="m 24 1 c -1.045 0 -2.01 0.284 -2.844 0.781 l -15.344 8.719 c -0.017 0.013 -0.045 0.023 -0.063 0.031 c -1.852 1.051 -2.851 3 -2.75 4.969 l 0 1 c -0.101 -1.966 0.898 -3.918 2.75 -4.969 c 0.017 -0.008 0.045 -0.018 0.063 -0.031 l 15.344 -8.719 c 0.832 -0.497 1.799 -0.781 2.844 -0.781 c 1.045 0 2.01 0.284 2.844 0.781 l 15.25 8.656 c 0.873 0.46 1.625 1.156 2.156 2.063 c 0.554 0.942 0.806 1.988 0.75 3 l 0 -1 c 0.056 -1.012 -0.196 -2.058 -0.75 -3 c -0.532 -0.906 -1.283 -1.603 -2.156 -2.063 l -15.25 -8.656 c -0.832 -0.497 -1.799 -0.781 -2.844 -0.781 z" opacity="0.2" fill="#fff"/></g></svg>