<svg viewBox="0 0 48 48"><defs><linearGradient id="linearGradient3764" y1="1" x2="0" y2="47" gradientUnits="userSpaceOnUse"><stop stop-color="#e57e29" stop-opacity="1"/><stop offset="1" stop-color="#df731b" stop-opacity="1"/></linearGradient><clipPath id="clipPath-063851103"><g transform="translate(0,-1004.3622)"><path d="m 24 1005.37 c -1.045 0 -2.023 0.287 -2.856 0.784 l -15.339 8.708 c -0.017 0.013 -0.035 0.013 -0.052 0.021 -1.852 1.051 -2.847 3 -2.746 4.968 l 0 17.02 c -0.056 1.013 0.175 2.049 0.729 2.993 0.532 0.903 1.288 1.602 2.161 2.061 l 15.246 8.653 c 0.832 0.497 1.811 0.784 2.856 0.784 1.045 0 2.023 -0.287 2.856 -0.784 l 15.246 -8.653 c 0.873 -0.46 1.629 -1.158 2.161 -2.061 0.554 -0.944 0.785 -1.981 0.729 -2.993 l 0 -17.01 c 0.056 -1.012 -0.175 -2.052 -0.729 -2.993 -0.532 -0.906 -1.288 -1.604 -2.161 -2.064 l -15.246 -8.653 c -0.832 -0.497 -1.811 -0.784 -2.856 -0.784 z" fill="#1890d0"/></g></clipPath><clipPath id="clipPath-083890987"><g transform="translate(0,-1004.3622)"><path d="m 24 1005.37 c -1.045 0 -2.023 0.287 -2.856 0.784 l -15.339 8.708 c -0.017 0.013 -0.035 0.013 -0.052 0.021 -1.852 1.051 -2.847 3 -2.746 4.968 l 0 17.02 c -0.056 1.013 0.175 2.049 0.729 2.993 0.532 0.903 1.288 1.602 2.161 2.061 l 15.246 8.653 c 0.832 0.497 1.811 0.784 2.856 0.784 1.045 0 2.023 -0.287 2.856 -0.784 l 15.246 -8.653 c 0.873 -0.46 1.629 -1.158 2.161 -2.061 0.554 -0.944 0.785 -1.981 0.729 -2.993 l 0 -17.01 c 0.056 -1.012 -0.175 -2.052 -0.729 -2.993 -0.532 -0.906 -1.288 -1.604 -2.161 -2.064 l -15.246 -8.653 c -0.832 -0.497 -1.811 -0.784 -2.856 -0.784 z" fill="#1890d0"/></g></clipPath><filter id="filter-021046452"><feGaussianBlur stdDeviation="0.35"/></filter></defs><g><g transform="translate(0,-1004.3622)"><path d="m 45 1037.36 c 0.056 1.013 -0.196 2.056 -0.75 3 -0.532 0.903 -1.283 1.603 -2.156 2.063 l -15.25 8.656 c -0.832 0.497 -1.799 0.781 -2.844 0.781 -1.045 0 -2.01 -0.284 -2.844 -0.781 l -15.25 -8.656 c -0.873 -0.46 -1.625 -1.159 -2.156 -2.063 -0.416 -0.708 -0.677 -1.485 -0.75 -2.25 -0.004 0.932 0.242 1.884 0.75 2.75 0.532 0.903 1.283 1.603 2.156 2.063 l 15.25 8.656 c 0.832 0.497 1.799 0.781 2.844 0.781 1.045 0 2.01 -0.284 2.844 -0.781 l 15.25 -8.656 c 0.873 -0.46 1.625 -1.159 2.156 -2.063 0.554 -0.944 0.806 -1.987 0.75 -3 l 0 -0.5 z" opacity="0.05"/><path d="m 45 1036.86 c 0.015 0.263 -0.004 0.516 -0.031 0.781 -0.036 0.844 -0.259 1.685 -0.719 2.469 -0.532 0.903 -1.283 1.603 -2.156 2.063 l -15.25 8.656 c -0.832 0.497 -1.799 0.781 -2.844 0.781 -1.045 0 -2.01 -0.284 -2.844 -0.781 l -15.25 -8.656 c -0.873 -0.46 -1.625 -1.159 -2.156 -2.063 -0.414 -0.705 -0.621 -1.46 -0.688 -2.219 -0.014 -0.092 -0.054 -0.189 -0.063 -0.281 -0.004 0.932 0.242 1.884 0.75 2.75 0.532 0.903 1.283 1.603 2.156 2.063 l 15.25 8.656 c 0.832 0.497 1.799 0.781 2.844 0.781 1.045 0 2.01 -0.284 2.844 -0.781 l 15.25 -8.656 c 0.873 -0.46 1.625 -1.159 2.156 -2.063 0.554 -0.944 0.806 -1.987 0.75 -3 l 0 -0.5 z m -41.813 1.625 c 0.057 0.219 0.132 0.442 0.219 0.656 -0.088 -0.216 -0.16 -0.436 -0.219 -0.656 z m 0.219 0.656 c 0.099 0.243 0.206 0.484 0.344 0.719 -0.139 -0.236 -0.243 -0.472 -0.344 -0.719 z m 41.41 -0.656 c -0.059 0.221 -0.131 0.441 -0.219 0.656 0.087 -0.215 0.161 -0.437 0.219 -0.656 z m -0.219 0.656 c -0.101 0.246 -0.205 0.483 -0.344 0.719 0.138 -0.235 0.245 -0.476 0.344 -0.719 z" opacity="0.1"/><path d="m 3.03 1037.64 c 0.035 0.844 0.259 1.685 0.719 2.469 0.532 0.903 1.283 1.603 2.156 2.063 l 15.25 8.656 c 0.832 0.497 1.799 0.781 2.844 0.781 1.045 0 2.01 -0.284 2.844 -0.781 l 15.25 -8.656 c 0.873 -0.46 1.625 -1.159 2.156 -2.063 0.46 -0.784 0.683 -1.624 0.719 -2.469 -0.067 0.763 -0.303 1.511 -0.719 2.219 -0.532 0.903 -1.283 1.603 -2.156 2.063 l -15.25 8.656 c -0.832 0.497 -1.799 0.781 -2.844 0.781 -1.045 0 -2.01 -0.284 -2.844 -0.781 l -15.25 -8.656 c -0.873 -0.46 -1.625 -1.159 -2.156 -2.063 -0.416 -0.708 -0.651 -1.456 -0.719 -2.219 z" opacity="0.2"/></g></g><g><path d="m 24 46.996 c 1.045 0 2.023 -0.287 2.856 -0.784 l 15.339 -8.708 c 0.017 -0.013 0.035 -0.013 0.052 -0.021 1.852 -1.051 2.847 -3 2.746 -4.968 l 0 -17.02 c 0.056 -1.013 -0.175 -2.049 -0.729 -2.993 -0.532 -0.903 -1.288 -1.602 -2.161 -2.061 l -15.246 -8.653 c -0.832 -0.497 -1.811 -0.784 -2.856 -0.784 -1.045 0 -2.023 0.287 -2.856 0.784 l -15.246 8.653 c -0.873 0.46 -1.629 1.158 -2.161 2.061 -0.554 0.944 -0.785 1.981 -0.729 2.993 l 0 17.01 c -0.056 1.012 0.175 2.051 0.729 2.993 0.532 0.906 1.288 1.604 2.161 2.064 l 15.246 8.653 c 0.832 0.497 1.811 0.785 2.856 0.785 z" fill="url(#linearGradient3764)" fill-opacity="1"/></g><g><g clip-path="url(#clipPath-063851103)"><g opacity="0.25"><g transform="translate(0,1)"><g filter="url(#filter-021046452)"><!-- color: #e57e29 --><g><path d="m 17.438 7.625 c -4.723 0 -9.102 1.43 -12.75 3.844 c -1.453 2.238 -2.488 4.746 -3.094 7.438 c 2.094 -2.492 3.926 -4.27 5.781 -5.5 c 3.625 9.879 3.813 9.918 1.125 -0.656 c 2.656 -1.465 5.406 -1.945 8.938 -1.969 c 0.309 -0.004 0.598 0.02 0.906 0.031 c -0.043 5.508 -0.902 16.859 -3.969 21 c -4.434 -11.41 -3.895 -9.379 -0.906 0.344 c -0.211 0.105 -0.41 0.262 -0.625 0.438 l -1.375 -1.031 l 0.688 1.969 c -2.93 0.445 -5.84 -0.289 -8.75 0.781 c 0.387 0.77 0.785 1.5 1.25 2.219 c 2.758 -0.625 4.766 -2.961 7.531 -1.406 c 0.043 0.215 0.156 0.414 0.25 0.594 l -6.438 2.594 c 0.152 0.191 0.281 0.379 0.438 0.563 c 2.176 -1.027 4.402 -1.434 6.438 -2.531 c 0.203 0.18 0.469 0.309 0.75 0.406 l -3.906 5.281 c 0.223 0.176 0.461 0.363 0.688 0.531 c 1.406 -1.75 2.059 -3.746 3.875 -5.688 c 0.238 0.023 0.508 0.059 0.781 0.031 c -0.348 2.84 -0.102 5.773 0.594 8.531 c 0.902 0.352 1.855 0.641 2.813 0.875 c -0.711 -3.223 -2.641 -6.207 -2.469 -9.594 c 0.887 0.34 1.352 0.781 2.344 1.469 c -0.445 -0.668 -0.992 -1.105 -1.375 -1.938 c 0.086 -0.141 0.168 -0.281 0.219 -0.438 c 4.555 1.734 8.816 2.223 13.438 5 l 2.531 1.875 c -1.035 1.508 -2.355 2.805 -4.03 3.75 c 2.719 -0.617 5.246 -1.707 7.5 -3.188 c 2.434 -3.645 3.875 -8.02 3.875 -12.688 c 0 -12.594 -10.281 -22.938 -23.06 -22.938 m 3.781 3.531 c 7.625 1.5 14.277 7.484 15.719 14.5 l -0.344 0.438 c -0.641 1.109 -6.66 3.03 -8.844 3.719 c -4.168 0.891 -7.152 3.01 -11.156 3.156 c -0.246 -0.324 -0.531 -0.617 -0.875 -0.813 c 2.434 -4.328 1.633 -15.895 5.5 -21 m 15.13 16.438 l 0.906 0.875 c 0 0.699 -0.074 1.387 -0.188 2.094 c -0.594 3.742 -1.344 7.441 -2.906 10.469 l -3.313 -1.094 c -3.777 -1.84 -9.441 -3.035 -13.469 -5.688 c 5.777 -3.316 12.633 -4.652 18.969 -6.656 m -14.719 16.16 c 0.457 1.328 1.582 2.215 2.406 3.25 c 0.375 0 0.754 -0.012 1.125 -0.031 c -1.324 -1.07 -2.43 -2 -3.531 -3.219 m 0 0" fill="#000"/></g></g></g></g></g></g><g><g clip-path="url(#clipPath-083890987)"><!-- color: #e57e29 --><g><path d="m 17.438 7.625 c -4.723 0 -9.102 1.43 -12.75 3.844 c -1.453 2.238 -2.488 4.746 -3.094 7.438 c 2.094 -2.492 3.926 -4.27 5.781 -5.5 c 3.625 9.879 3.813 9.918 1.125 -0.656 c 2.656 -1.465 5.406 -1.945 8.938 -1.969 c 0.309 -0.004 0.598 0.02 0.906 0.031 c -0.043 5.508 -0.902 16.859 -3.969 21 c -4.434 -11.41 -3.895 -9.379 -0.906 0.344 c -0.211 0.105 -0.41 0.262 -0.625 0.438 l -1.375 -1.031 l 0.688 1.969 c -2.93 0.445 -5.84 -0.289 -8.75 0.781 c 0.387 0.77 0.785 1.5 1.25 2.219 c 2.758 -0.625 4.766 -2.961 7.531 -1.406 c 0.043 0.215 0.156 0.414 0.25 0.594 l -6.438 2.594 c 0.152 0.191 0.281 0.379 0.438 0.563 c 2.176 -1.027 4.402 -1.434 6.438 -2.531 c 0.203 0.18 0.469 0.309 0.75 0.406 l -3.906 5.281 c 0.223 0.176 0.461 0.363 0.688 0.531 c 1.406 -1.75 2.059 -3.746 3.875 -5.688 c 0.238 0.023 0.508 0.059 0.781 0.031 c -0.348 2.84 -0.102 5.773 0.594 8.531 c 0.902 0.352 1.855 0.641 2.813 0.875 c -0.711 -3.223 -2.641 -6.207 -2.469 -9.594 c 0.887 0.34 1.352 0.781 2.344 1.469 c -0.445 -0.668 -0.992 -1.105 -1.375 -1.938 c 0.086 -0.141 0.168 -0.281 0.219 -0.438 c 4.555 1.734 8.816 2.223 13.438 5 l 2.531 1.875 c -1.035 1.508 -2.355 2.805 -4.03 3.75 c 2.719 -0.617 5.246 -1.707 7.5 -3.188 c 2.434 -3.645 3.875 -8.02 3.875 -12.688 c 0 -12.594 -10.281 -22.938 -23.06 -22.938 m 3.781 3.531 c 7.625 1.5 14.277 7.484 15.719 14.5 l -0.344 0.438 c -0.641 1.109 -6.66 3.03 -8.844 3.719 c -4.168 0.891 -7.152 3.01 -11.156 3.156 c -0.246 -0.324 -0.531 -0.617 -0.875 -0.813 c 2.434 -4.328 1.633 -15.895 5.5 -21 m 15.13 16.438 l 0.906 0.875 c 0 0.699 -0.074 1.387 -0.188 2.094 c -0.594 3.742 -1.344 7.441 -2.906 10.469 l -3.313 -1.094 c -3.777 -1.84 -9.441 -3.035 -13.469 -5.688 c 5.777 -3.316 12.633 -4.652 18.969 -6.656 m -14.719 16.16 c 0.457 1.328 1.582 2.215 2.406 3.25 c 0.375 0 0.754 -0.012 1.125 -0.031 c -1.324 -1.07 -2.43 -2 -3.531 -3.219 m 0 0" fill="#f9f9f9"/></g></g></g><g><path d="m 24 1 c -1.045 0 -2.01 0.284 -2.844 0.781 l -15.344 8.719 c -0.017 0.013 -0.045 0.023 -0.063 0.031 c -1.852 1.051 -2.851 3 -2.75 4.969 l 0 1 c -0.101 -1.966 0.898 -3.918 2.75 -4.969 c 0.017 -0.008 0.045 -0.018 0.063 -0.031 l 15.344 -8.719 c 0.832 -0.497 1.799 -0.781 2.844 -0.781 c 1.045 0 2.01 0.284 2.844 0.781 l 15.25 8.656 c 0.873 0.46 1.625 1.156 2.156 2.063 c 0.554 0.942 0.806 1.988 0.75 3 l 0 -1 c 0.056 -1.012 -0.196 -2.058 -0.75 -3 c -0.532 -0.906 -1.283 -1.603 -2.156 -2.063 l -15.25 -8.656 c -0.832 -0.497 -1.799 -0.781 -2.844 -0.781 z" opacity="0.2" fill="#fff"/></g></svg>