<svg viewBox="0 0 48 48"><defs><linearGradient id="linearGradient3764" x1="1" x2="47" gradientUnits="userSpaceOnUse" gradientTransform="translate(-48.000001,0.00221467)"><stop stop-color="#d52f3f" stop-opacity="1"/><stop offset="1" stop-color="#d8404d" stop-opacity="1"/></linearGradient><clipPath id="clipPath-403831472"><g transform="translate(0,-1004.3622)"><rect rx="4" y="1005.36" x="1" height="46" width="46" fill="#1890d0"/></g></clipPath><clipPath id="clipPath-416735910"><g transform="translate(0,-1004.3622)"><rect rx="4" y="1005.36" x="1" height="46" width="46" fill="#1890d0"/></g></clipPath></defs><g><path d="m 1 43 l 0 0.25 c 0 2.216 1.784 4 4 4 l 38 0 c 2.216 0 4 -1.784 4 -4 l 0 -0.25 c 0 2.216 -1.784 4 -4 4 l -38 0 c -2.216 0 -4 -1.784 -4 -4 z m 0 0.5 l 0 0.5 c 0 2.216 1.784 4 4 4 l 38 0 c 2.216 0 4 -1.784 4 -4 l 0 -0.5 c 0 2.216 -1.784 4 -4 4 l -38 0 c -2.216 0 -4 -1.784 -4 -4 z" opacity="0.02"/><path d="m 1 43.25 l 0 0.25 c 0 2.216 1.784 4 4 4 l 38 0 c 2.216 0 4 -1.784 4 -4 l 0 -0.25 c 0 2.216 -1.784 4 -4 4 l -38 0 c -2.216 0 -4 -1.784 -4 -4 z" opacity="0.05"/><path d="m 1 43 l 0 0.25 c 0 2.216 1.784 4 4 4 l 38 0 c 2.216 0 4 -1.784 4 -4 l 0 -0.25 c 0 2.216 -1.784 4 -4 4 l -38 0 c -2.216 0 -4 -1.784 -4 -4 z" opacity="0.1"/></g><g><rect width="46" height="46" x="-47" y="1" rx="4" transform="matrix(0,-1,1,0,0,0)" fill="url(#linearGradient3764)" fill-opacity="1"/></g><g><g clip-path="url(#clipPath-403831472)"><g opacity="0.1"><!-- color: #d8404d --><g><path d="m 21 23 c 0 2.762 -2.238 5 -5 5 c -2.762 0 -5 -2.238 -5 -5 c 0 -2.762 2.238 -5 5 -5 c 2.762 0 5 2.238 5 5 m 0 0" fill="#000"/><path d="m 35 21 c 0 4.418 -3.582 8 -8 8 c -4.418 0 -8 -3.582 -8 -8 c 0 -4.418 3.582 -8 8 -8 c 4.418 0 8 3.582 8 8 m 0 0" fill="#000"/><path d="m 37 29 c 0 2.762 -2.238 5 -5 5 c -2.762 0 -5 -2.238 -5 -5 c 0 -2.762 2.238 -5 5 -5 c 2.762 0 5 2.238 5 5 m 0 0" fill="#000"/><path d="m 23 30 c 0 2.762 -2.238 5 -5 5 c -2.762 0 -5 -2.238 -5 -5 c 0 -2.762 2.238 -5 5 -5 c 2.762 0 5 2.238 5 5 m 0 0" fill="#000"/><path d="m 20 24 l 10 0 l 0 9 c -3 2 -7 2 -10 0 m 0 -9" fill="#000"/><path d="m 21 23.5 c 0 1.383 -1.117 2.5 -2.5 2.5 c -1.379 0 -2.5 -1.117 -2.5 -2.5 c 0 -1.379 1.121 -2.5 2.5 -2.5 c 1.383 0 2.5 1.121 2.5 2.5 m 0 0" fill="#000"/><path d="m 31 23.5 c 0 1.383 -1.117 2.5 -2.5 2.5 c -1.379 0 -2.5 -1.117 -2.5 -2.5 c 0 -1.379 1.121 -2.5 2.5 -2.5 c 1.383 0 2.5 1.121 2.5 2.5 m 0 0" fill="#000"/><path d="m 21.5 27 l 5 0 c 0 6 -5 6 -5 0 m 0 0" fill="#000"/><path d="m 19.5 24 c 0 0.555 -0.445 1 -1 1 c -0.551 0 -1 -0.445 -1 -1 c 0 -0.551 0.449 -1 1 -1 c 0.555 0 1 0.449 1 1 m 0 0" fill="#000"/><path d="m 29.5 24 c 0 0.555 -0.445 1 -1 1 c -0.551 0 -1 -0.445 -1 -1 c 0 -0.551 0.449 -1 1 -1 c 0.555 0 1 0.449 1 1 m 0 0" fill="#000"/></g></g></g></g><g><g clip-path="url(#clipPath-416735910)"><g transform="translate(0,-1)"><!-- color: #d8404d --><g><path d="m 21 23 c 0 2.762 -2.238 5 -5 5 c -2.762 0 -5 -2.238 -5 -5 c 0 -2.762 2.238 -5 5 -5 c 2.762 0 5 2.238 5 5 m 0 0" fill="#f4e6d6"/><path d="m 35 21 c 0 4.418 -3.582 8 -8 8 c -4.418 0 -8 -3.582 -8 -8 c 0 -4.418 3.582 -8 8 -8 c 4.418 0 8 3.582 8 8 m 0 0" fill="#f4e6d6"/><path d="m 37 29 c 0 2.762 -2.238 5 -5 5 c -2.762 0 -5 -2.238 -5 -5 c 0 -2.762 2.238 -5 5 -5 c 2.762 0 5 2.238 5 5 m 0 0" fill="#f4e6d6"/><path d="m 23 30 c 0 2.762 -2.238 5 -5 5 c -2.762 0 -5 -2.238 -5 -5 c 0 -2.762 2.238 -5 5 -5 c 2.762 0 5 2.238 5 5 m 0 0" fill="#f4e6d6"/><path d="m 20 24 l 10 0 l 0 9 c -3 2 -7 2 -10 0 m 0 -9" fill="#f4e6d6"/><path d="m 21 23.5 c 0 1.383 -1.117 2.5 -2.5 2.5 c -1.379 0 -2.5 -1.117 -2.5 -2.5 c 0 -1.379 1.121 -2.5 2.5 -2.5 c 1.383 0 2.5 1.121 2.5 2.5 m 0 0" fill="#2d2d2d"/><path d="m 31 23.5 c 0 1.383 -1.117 2.5 -2.5 2.5 c -1.379 0 -2.5 -1.117 -2.5 -2.5 c 0 -1.379 1.121 -2.5 2.5 -2.5 c 1.383 0 2.5 1.121 2.5 2.5 m 0 0" fill="#2d2d2d"/><path d="m 21.5 27 l 5 0 c 0 6 -5 6 -5 0 m 0 0" fill="#e5053f"/><path d="m 19.5 24 c 0 0.555 -0.445 1 -1 1 c -0.551 0 -1 -0.445 -1 -1 c 0 -0.551 0.449 -1 1 -1 c 0.555 0 1 0.449 1 1 m 0 0" fill="#f9f9f9"/><path d="m 29.5 24 c 0 0.555 -0.445 1 -1 1 c -0.551 0 -1 -0.445 -1 -1 c 0 -0.551 0.449 -1 1 -1 c 0.555 0 1 0.449 1 1 m 0 0" fill="#f9f9f9"/></g></g></g></g><g><g transform="translate(0,-1004.3622)"><path d="m 1 1043.36 0 4 c 0 2.216 1.784 4 4 4 l 38 0 c 2.216 0 4 -1.784 4 -4 l 0 -4 c 0 2.216 -1.784 4 -4 4 l -38 0 c -2.216 0 -4 -1.784 -4 -4 z" opacity="0.1"/></g></g></svg>