<svg viewBox="0 0 48 48"><defs><linearGradient id="linearGradient3764" x1="1" x2="47" gradientUnits="userSpaceOnUse" gradientTransform="translate(-48.000001,0.00221467)"><stop stop-color="#66c8ec" stop-opacity="1"/><stop offset="1" stop-color="#78ceee" stop-opacity="1"/></linearGradient><clipPath id="clipPath-274557163"><g transform="translate(0,-1004.3622)"><rect rx="4" y="1005.36" x="1" height="46" width="46" fill="#1890d0"/></g></clipPath><clipPath id="clipPath-287361540"><g transform="translate(0,-1004.3622)"><rect rx="4" y="1005.36" x="1" height="46" width="46" fill="#1890d0"/></g></clipPath></defs><g><path d="m 1 43 l 0 0.25 c 0 2.216 1.784 4 4 4 l 38 0 c 2.216 0 4 -1.784 4 -4 l 0 -0.25 c 0 2.216 -1.784 4 -4 4 l -38 0 c -2.216 0 -4 -1.784 -4 -4 z m 0 0.5 l 0 0.5 c 0 2.216 1.784 4 4 4 l 38 0 c 2.216 0 4 -1.784 4 -4 l 0 -0.5 c 0 2.216 -1.784 4 -4 4 l -38 0 c -2.216 0 -4 -1.784 -4 -4 z" opacity="0.02"/><path d="m 1 43.25 l 0 0.25 c 0 2.216 1.784 4 4 4 l 38 0 c 2.216 0 4 -1.784 4 -4 l 0 -0.25 c 0 2.216 -1.784 4 -4 4 l -38 0 c -2.216 0 -4 -1.784 -4 -4 z" opacity="0.05"/><path d="m 1 43 l 0 0.25 c 0 2.216 1.784 4 4 4 l 38 0 c 2.216 0 4 -1.784 4 -4 l 0 -0.25 c 0 2.216 -1.784 4 -4 4 l -38 0 c -2.216 0 -4 -1.784 -4 -4 z" opacity="0.1"/></g><g><rect width="46" height="46" x="-47" y="1" rx="4" transform="matrix(0,-1,1,0,0,0)" fill="url(#linearGradient3764)" fill-opacity="1"/></g><g><g clip-path="url(#clipPath-274557163)"><g opacity="0.1"><!-- color: #78ceee --><g><path d="m 10 24.01 c 0 -4.305 2.578 -6.953 6.613 -7.01 c 3.367 0.195 5.34 1.637 6.594 4.145 c 1.566 -3.434 3.793 -5.145 7.793 -5.145 c 5 0 6.961 3.879 7 7.898 c 0.031 4.785 -2 8.102 -7 8.102 c -4 0 -5.867 -0.91 -7.605 -4.73 c -1.57 2.746 -3.801 3.699 -6.781 3.73 c -4.602 -0.383 -6.578 -3.23 -6.613 -6.992 m 21 5.992 c 4 0 5 -2 5 -6 c 0 -4 -1.605 -6 -5 -6 c -3.605 0 -6 3 -6 6 c 0 3 2.246 6.07 6 6 m -19 -5.953 c 0 2.953 2 4.906 4.613 4.953 c 3.387 -0.047 5.371 -2.859 5.387 -5 c -0.016 -2.859 -2 -4.953 -5.387 -5 c -2.613 0.047 -4.613 2 -4.613 5.05" fill="#000"/></g></g></g></g><g><g clip-path="url(#clipPath-287361540)"><g transform="translate(0,-1)"><!-- color: #78ceee --><g><path d="m 10 24.01 c 0 -4.305 2.578 -6.953 6.613 -7.01 c 3.367 0.195 5.34 1.637 6.594 4.145 c 1.566 -3.434 3.793 -5.145 7.793 -5.145 c 5 0 6.961 3.879 7 7.898 c 0.031 4.785 -2 8.102 -7 8.102 c -4 0 -5.867 -0.91 -7.605 -4.73 c -1.57 2.746 -3.801 3.699 -6.781 3.73 c -4.602 -0.383 -6.578 -3.23 -6.613 -6.992 m 21 5.992 c 4 0 5 -2 5 -6 c 0 -4 -1.605 -6 -5 -6 c -3.605 0 -6 3 -6 6 c 0 3 2.246 6.07 6 6 m -19 -5.953 c 0 2.953 2 4.906 4.613 4.953 c 3.387 -0.047 5.371 -2.859 5.387 -5 c -0.016 -2.859 -2 -4.953 -5.387 -5 c -2.613 0.047 -4.613 2 -4.613 5.05" fill="#f9f9f9"/></g></g></g></g><g><g transform="translate(0,-1004.3622)"><path d="m 1 1043.36 0 4 c 0 2.216 1.784 4 4 4 l 38 0 c 2.216 0 4 -1.784 4 -4 l 0 -4 c 0 2.216 -1.784 4 -4 4 l -38 0 c -2.216 0 -4 -1.784 -4 -4 z" opacity="0.1"/></g></g></svg>