<svg viewBox="0 0 48 48"><defs><linearGradient id="linearGradient3764" x1="1" x2="47" gradientUnits="userSpaceOnUse" gradientTransform="translate(-48.000001,0.00221467)"><stop stop-color="#5bc210" stop-opacity="1"/><stop offset="1" stop-color="#66d511" stop-opacity="1"/></linearGradient><clipPath id="clipPath-241003291"><g transform="translate(0,-1004.3622)"><rect rx="4" y="1005.36" x="1" height="46" width="46" fill="#1890d0"/></g></clipPath><clipPath id="clipPath-263526863"><g transform="translate(0,-1004.3622)"><rect rx="4" y="1005.36" x="1" height="46" width="46" fill="#1890d0"/></g></clipPath></defs><g><path d="m 1 43 l 0 0.25 c 0 2.216 1.784 4 4 4 l 38 0 c 2.216 0 4 -1.784 4 -4 l 0 -0.25 c 0 2.216 -1.784 4 -4 4 l -38 0 c -2.216 0 -4 -1.784 -4 -4 z m 0 0.5 l 0 0.5 c 0 2.216 1.784 4 4 4 l 38 0 c 2.216 0 4 -1.784 4 -4 l 0 -0.5 c 0 2.216 -1.784 4 -4 4 l -38 0 c -2.216 0 -4 -1.784 -4 -4 z" opacity="0.02"/><path d="m 1 43.25 l 0 0.25 c 0 2.216 1.784 4 4 4 l 38 0 c 2.216 0 4 -1.784 4 -4 l 0 -0.25 c 0 2.216 -1.784 4 -4 4 l -38 0 c -2.216 0 -4 -1.784 -4 -4 z" opacity="0.05"/><path d="m 1 43 l 0 0.25 c 0 2.216 1.784 4 4 4 l 38 0 c 2.216 0 4 -1.784 4 -4 l 0 -0.25 c 0 2.216 -1.784 4 -4 4 l -38 0 c -2.216 0 -4 -1.784 -4 -4 z" opacity="0.1"/></g><g><rect width="46" height="46" x="-47" y="1" rx="4" transform="matrix(0,-1,1,0,0,0)" fill="url(#linearGradient3764)" fill-opacity="1"/></g><g><g clip-path="url(#clipPath-241003291)"><g opacity="0.1"><!-- color: #66d511 --><g><path d="m 24.41 11.01 c -0.391 -0.02 -0.785 0.004 -1.188 0.031 c -1.617 0.117 -3.23 0.586 -4.656 1.406 c -2.766 1.582 -4.75 4.332 -5.379 7.465 c -0.172 0.855 -0.188 1.191 -0.188 2.25 c 0 0.746 -0.004 1.02 0.031 1.281 c 0.984 6.387 5.34 8.695 10.973 9.465 c 0.023 0.016 0 0.879 0 2.219 c 0 0.996 -0.008 1.836 0 1.844 c 0.012 0.016 0.023 0.031 0.031 0.031 c 2 -1.301 4.359 -2.547 5.785 -3.844 c 3.117 -2.863 4.871 -6.297 5.16 -10.09 c 0.035 -0.508 0.02 -1.75 -0.031 -2.188 c -0.309 -2.484 -1.344 -4.742 -3.035 -6.5 c -2.281 -2.035 -4.762 -3.246 -7.504 -3.371 m -3.531 6.996 l 0.25 0 c 0.492 0 0.871 0.387 0.871 0.875 l 0 7.121 l 7.133 0 c 0.492 0 0.875 0.387 0.875 0.879 l 0 0.25 c 0 0.488 -0.383 0.871 -0.875 0.871 l -8.254 0 c -0.492 0 -0.887 -0.383 -0.879 -0.871 l 0 -8.25 c 0 -0.488 0.387 -0.875 0.879 -0.875 m 0 0" fill="#000"/></g></g></g></g><g><g clip-path="url(#clipPath-263526863)"><g transform="translate(0,-1)"><!-- color: #66d511 --><g><path d="m 24.41 11.01 c -0.391 -0.02 -0.785 0.004 -1.188 0.031 c -1.617 0.117 -3.23 0.586 -4.656 1.406 c -2.766 1.582 -4.75 4.332 -5.379 7.465 c -0.172 0.855 -0.188 1.191 -0.188 2.25 c 0 0.746 -0.004 1.02 0.031 1.281 c 0.984 6.387 5.34 8.695 10.973 9.465 c 0.023 0.016 0 0.879 0 2.219 c 0 0.996 -0.008 1.836 0 1.844 c 0.012 0.016 0.023 0.031 0.031 0.031 c 2 -1.301 4.359 -2.547 5.785 -3.844 c 3.117 -2.863 4.871 -6.297 5.16 -10.09 c 0.035 -0.508 0.02 -1.75 -0.031 -2.188 c -0.309 -2.484 -1.344 -4.742 -3.035 -6.5 c -2.281 -2.035 -4.762 -3.246 -7.504 -3.371 m -3.531 6.996 l 0.25 0 c 0.492 0 0.871 0.387 0.871 0.875 l 0 7.121 l 7.133 0 c 0.492 0 0.875 0.387 0.875 0.879 l 0 0.25 c 0 0.488 -0.383 0.871 -0.875 0.871 l -8.254 0 c -0.492 0 -0.887 -0.383 -0.879 -0.871 l 0 -8.25 c 0 -0.488 0.387 -0.875 0.879 -0.875 m 0 0" fill="#f9f9f9"/></g></g></g></g><g><g transform="translate(0,-1004.3622)"><path d="m 1 1043.36 0 4 c 0 2.216 1.784 4 4 4 l 38 0 c 2.216 0 4 -1.784 4 -4 l 0 -4 c 0 2.216 -1.784 4 -4 4 l -38 0 c -2.216 0 -4 -1.784 -4 -4 z" opacity="0.1"/></g></g></svg>