<svg viewBox="0 0 48 48" xmlns:xlink="http://www.w3.org/1999/xlink"><defs><linearGradient id="linearGradient3764" x1="1" x2="47" gradientUnits="userSpaceOnUse" gradientTransform="translate(-48.000001,0.00221467)"><stop stop-color="#146e88" stop-opacity="1"/><stop offset="1" stop-color="#167c99" stop-opacity="1"/></linearGradient><clipPath id="clipPath-624447103"><g transform="translate(0,-1004.3622)"><rect rx="4" y="1005.36" x="1" height="46" width="46" fill="#1890d0"/></g></clipPath><clipPath id="clipPath-646927394"><g transform="translate(0,-1004.3622)"><rect rx="4" y="1005.36" x="1" height="46" width="46" fill="#1890d0"/></g></clipPath><path id="SVGCleanerId_0" d="m 20 24 c 0 1.105 -0.895 2 -2 2 c -1.105 0 -2 -0.895 -2 -2 c 0 -1.105 0.895 -2 2 -2 c 1.105 0 2 0.895 2 2 m 0 0"/><path id="SVGCleanerId_1" d="m 32 24 c 0 2.211 -1.789 4 -4 4 c -2.211 0 -4 -1.789 -4 -4 c 0 -2.211 1.789 -4 4 -4 c 2.211 0 4 1.789 4 4 m 0 0"/></defs><g><path d="m 1 43 l 0 0.25 c 0 2.216 1.784 4 4 4 l 38 0 c 2.216 0 4 -1.784 4 -4 l 0 -0.25 c 0 2.216 -1.784 4 -4 4 l -38 0 c -2.216 0 -4 -1.784 -4 -4 z m 0 0.5 l 0 0.5 c 0 2.216 1.784 4 4 4 l 38 0 c 2.216 0 4 -1.784 4 -4 l 0 -0.5 c 0 2.216 -1.784 4 -4 4 l -38 0 c -2.216 0 -4 -1.784 -4 -4 z" opacity="0.02"/><path d="m 1 43.25 l 0 0.25 c 0 2.216 1.784 4 4 4 l 38 0 c 2.216 0 4 -1.784 4 -4 l 0 -0.25 c 0 2.216 -1.784 4 -4 4 l -38 0 c -2.216 0 -4 -1.784 -4 -4 z" opacity="0.05"/><path d="m 1 43 l 0 0.25 c 0 2.216 1.784 4 4 4 l 38 0 c 2.216 0 4 -1.784 4 -4 l 0 -0.25 c 0 2.216 -1.784 4 -4 4 l -38 0 c -2.216 0 -4 -1.784 -4 -4 z" opacity="0.1"/></g><g><rect width="46" height="46" x="-47" y="1" rx="4" transform="matrix(0,-1,1,0,0,0)" fill="url(#linearGradient3764)" fill-opacity="1"/></g><g><g clip-path="url(#clipPath-624447103)"><g opacity="0.1"><!-- color: #167c99 --><g><path d="m 26 16 c 0 1.105 -0.895 2 -2 2 c -1.105 0 -2 -0.895 -2 -2 c 0 -1.105 0.895 -2 2 -2 c 1.105 0 2 0.895 2 2 m 0 0" fill="#000"/><path d="m 39 24 c 0 2.762 -2.238 5 -5 5 c -2.762 0 -5 -2.238 -5 -5 c 0 -2.762 2.238 -5 5 -5 c 2.762 0 5 2.238 5 5 m 0 0" fill="#000"/><path d="m 19 24 c 0 2.762 -2.238 5 -5 5 c -2.762 0 -5 -2.238 -5 -5 c 0 -2.762 2.238 -5 5 -5 c 2.762 0 5 2.238 5 5 m 0 0" fill="#000"/><path d="m 15.543 16 l 16.914 0 c 1.957 0 3.543 1.59 3.543 3.543 l 0 8.918 c 0 1.957 -1.586 3.543 -3.543 3.543 l -16.914 0 c -1.957 0 -3.543 -1.586 -3.543 -3.543 l 0 -8.918 c 0 -1.953 1.586 -3.543 3.543 -3.543 m 0 0" fill="#000"/><use stroke="#01010a" stroke-width="2" fill="#000" xlink:href="#SVGCleanerId_0"/><use fill="#000" xlink:href="#SVGCleanerId_0"/><path d="m 32 24 c 0 2.211 -1.789 4 -4 4 c -2.211 0 -4 -1.789 -4 -4 c 0 -2.211 1.789 -4 4 -4 c 2.211 0 4 1.789 4 4 m 0 0" stroke="#001929" stroke-width="2" fill="#000"/><use fill="#000" xlink:href="#SVGCleanerId_1"/></g></g></g></g><g><g clip-path="url(#clipPath-646927394)"><g transform="translate(0,-1)"><!-- color: #167c99 --><g><path d="m 26 16 c 0 1.105 -0.895 2 -2 2 c -1.105 0 -2 -0.895 -2 -2 c 0 -1.105 0.895 -2 2 -2 c 1.105 0 2 0.895 2 2 m 0 0" fill="#4c4c4c"/><path d="m 39 24 c 0 2.762 -2.238 5 -5 5 c -2.762 0 -5 -2.238 -5 -5 c 0 -2.762 2.238 -5 5 -5 c 2.762 0 5 2.238 5 5 m 0 0" fill="#4c4c4c"/><path d="m 19 24 c 0 2.762 -2.238 5 -5 5 c -2.762 0 -5 -2.238 -5 -5 c 0 -2.762 2.238 -5 5 -5 c 2.762 0 5 2.238 5 5 m 0 0" fill="#4c4c4c"/><path d="m 15.543 16 l 16.914 0 c 1.957 0 3.543 1.59 3.543 3.543 l 0 8.918 c 0 1.957 -1.586 3.543 -3.543 3.543 l -16.914 0 c -1.957 0 -3.543 -1.586 -3.543 -3.543 l 0 -8.918 c 0 -1.953 1.586 -3.543 3.543 -3.543 m 0 0" fill="#dedede"/><use fill="none" stroke="#01010a" stroke-width="2" xlink:href="#SVGCleanerId_0"/><use fill="#ffcf00" xlink:href="#SVGCleanerId_0"/><use fill="none" stroke="#001929" stroke-width="2" xlink:href="#SVGCleanerId_1"/><use fill="#ffcf00" xlink:href="#SVGCleanerId_1"/></g></g></g></g><g><g transform="translate(0,-1004.3622)"><path d="m 1 1043.36 0 4 c 0 2.216 1.784 4 4 4 l 38 0 c 2.216 0 4 -1.784 4 -4 l 0 -4 c 0 2.216 -1.784 4 -4 4 l -38 0 c -2.216 0 -4 -1.784 -4 -4 z" opacity="0.1"/></g></g></svg>