<svg viewBox="0 0 48 48" xmlns:xlink="http://www.w3.org/1999/xlink"><defs><linearGradient id="linearGradient3764" x1="1" x2="47" gradientUnits="userSpaceOnUse" gradientTransform="translate(-48.000001,0.00221467)"><stop stop-color="#dbdbdb" stop-opacity="1"/><stop offset="1" stop-color="#e5e5e5" stop-opacity="1"/></linearGradient><clipPath id="clipPath-929059989"><g transform="translate(0,-1004.3622)"><rect rx="4" y="1005.36" x="1" height="46" width="46" fill="#1890d0"/></g></clipPath><clipPath id="clipPath-942004102"><g transform="translate(0,-1004.3622)"><rect rx="4" y="1005.36" x="1" height="46" width="46" fill="#1890d0"/></g></clipPath></defs><g><path d="m 1 43 l 0 0.25 c 0 2.216 1.784 4 4 4 l 38 0 c 2.216 0 4 -1.784 4 -4 l 0 -0.25 c 0 2.216 -1.784 4 -4 4 l -38 0 c -2.216 0 -4 -1.784 -4 -4 z m 0 0.5 l 0 0.5 c 0 2.216 1.784 4 4 4 l 38 0 c 2.216 0 4 -1.784 4 -4 l 0 -0.5 c 0 2.216 -1.784 4 -4 4 l -38 0 c -2.216 0 -4 -1.784 -4 -4 z" opacity="0.02"/><path d="m 1 43.25 l 0 0.25 c 0 2.216 1.784 4 4 4 l 38 0 c 2.216 0 4 -1.784 4 -4 l 0 -0.25 c 0 2.216 -1.784 4 -4 4 l -38 0 c -2.216 0 -4 -1.784 -4 -4 z" opacity="0.05"/><path d="m 1 43 l 0 0.25 c 0 2.216 1.784 4 4 4 l 38 0 c 2.216 0 4 -1.784 4 -4 l 0 -0.25 c 0 2.216 -1.784 4 -4 4 l -38 0 c -2.216 0 -4 -1.784 -4 -4 z" opacity="0.1"/></g><g><rect width="46" height="46" x="-47" y="1" rx="4" transform="matrix(0,-1,1,0,0,0)" fill="url(#linearGradient3764)" fill-opacity="1"/></g><g><g clip-path="url(#clipPath-929059989)"><g opacity="0.1"><!-- color: #e5e5e5 --><g><path d="m 0 37 c 0 1 0 7 0 11 5 0 32 0 35 0 l 0 -11 z" fill="#000"/><path d="M 13,0 C 6,0 7,0 0,0 0,6 0,21 0,37 l 13,0 z" fill="#000"/><path d="m 13 11 0 -11 c 2 0 31.02 0 35 0 0 1 0 6 0 11 z" fill="#000"/><path d="m 35 48 0 -37 13 0 c 0 2 0 37 0 37 z" fill="#000"/><path d="m 13 30 l -7.844 7 l 7.844 0 m 0 -7" fill-opacity="0.149" id="SVGCleanerId_0"/><path d="m 13 3.844 l 0 7.156 l 7 0 m -7 -7.156" fill-opacity="0.149" id="SVGCleanerId_1"/><path d="m 35 11 l 0 7 l 7.844 -7 m -7.844 0" fill-opacity="0.149" id="SVGCleanerId_2"/><path d="m 35 44.2 l 0 -7.199 l -7 0 m 7 7.199" fill-opacity="0.149" id="SVGCleanerId_3"/></g></g></g></g><g><g clip-path="url(#clipPath-942004102)"><g transform="translate(0,-1)"><!-- color: #e5e5e5 --><g><path d="m 0 37 c 0 1 0 7 0 11 5 0 32 0 35 0 l 0 -11 z" fill="#1ebff3"/><path d="M 13,0 C 6,0 7,0 0,0 0,6 0,21 0,37 l 13,0 z" fill="#ff4242"/><path d="m 13 11 0 -11 c 2 0 31.02 0 35 0 0 1 0 6 0 11 z" fill="#ffb833"/><path d="m 35 48 0 -37 13 0 c 0 2 0 37 0 37 z" fill="#9c0"/><use xlink:href="#SVGCleanerId_0"/><use xlink:href="#SVGCleanerId_1"/><use xlink:href="#SVGCleanerId_2"/><use xlink:href="#SVGCleanerId_3"/></g></g></g></g><g><g transform="translate(0,-1004.3622)"><path d="m 1 1043.36 0 4 c 0 2.216 1.784 4 4 4 l 38 0 c 2.216 0 4 -1.784 4 -4 l 0 -4 c 0 2.216 -1.784 4 -4 4 l -38 0 c -2.216 0 -4 -1.784 -4 -4 z" opacity="0.1"/></g></g></svg>