<svg viewBox="0 0 48 48" xmlns:xlink="http://www.w3.org/1999/xlink"><defs><linearGradient id="linearGradient3764" y1="1" x2="0" y2="47" gradientUnits="userSpaceOnUse"><stop stop-color="#3e6478" stop-opacity="1"/><stop offset="1" stop-color="#37596b" stop-opacity="1"/></linearGradient><clipPath id="clipPath-905599987"><g transform="translate(0,-1004.3622)"><path d="m 24 1005.37 c -1.045 0 -2.023 0.287 -2.856 0.784 l -15.339 8.708 c -0.017 0.013 -0.035 0.013 -0.052 0.021 -1.852 1.051 -2.847 3 -2.746 4.968 l 0 17.02 c -0.056 1.013 0.175 2.049 0.729 2.993 0.532 0.903 1.288 1.602 2.161 2.061 l 15.246 8.653 c 0.832 0.497 1.811 0.784 2.856 0.784 1.045 0 2.023 -0.287 2.856 -0.784 l 15.246 -8.653 c 0.873 -0.46 1.629 -1.158 2.161 -2.061 0.554 -0.944 0.785 -1.981 0.729 -2.993 l 0 -17.01 c 0.056 -1.012 -0.175 -2.052 -0.729 -2.993 -0.532 -0.906 -1.288 -1.604 -2.161 -2.064 l -15.246 -8.653 c -0.832 -0.497 -1.811 -0.784 -2.856 -0.784 z" fill="#1890d0"/></g></clipPath><clipPath id="clipPath-914925013"><g transform="translate(0,-1004.3622)"><path d="m 24 1005.37 c -1.045 0 -2.023 0.287 -2.856 0.784 l -15.339 8.708 c -0.017 0.013 -0.035 0.013 -0.052 0.021 -1.852 1.051 -2.847 3 -2.746 4.968 l 0 17.02 c -0.056 1.013 0.175 2.049 0.729 2.993 0.532 0.903 1.288 1.602 2.161 2.061 l 15.246 8.653 c 0.832 0.497 1.811 0.784 2.856 0.784 1.045 0 2.023 -0.287 2.856 -0.784 l 15.246 -8.653 c 0.873 -0.46 1.629 -1.158 2.161 -2.061 0.554 -0.944 0.785 -1.981 0.729 -2.993 l 0 -17.01 c 0.056 -1.012 -0.175 -2.052 -0.729 -2.993 -0.532 -0.906 -1.288 -1.604 -2.161 -2.064 l -15.246 -8.653 c -0.832 -0.497 -1.811 -0.784 -2.856 -0.784 z" fill="#1890d0"/></g></clipPath><filter id="filter-885490704"><feGaussianBlur stdDeviation="0.35"/></filter></defs><g><g transform="translate(0,-1004.3622)"><path d="m 45 1037.36 c 0.056 1.013 -0.196 2.056 -0.75 3 -0.532 0.903 -1.283 1.603 -2.156 2.063 l -15.25 8.656 c -0.832 0.497 -1.799 0.781 -2.844 0.781 -1.045 0 -2.01 -0.284 -2.844 -0.781 l -15.25 -8.656 c -0.873 -0.46 -1.625 -1.159 -2.156 -2.063 -0.416 -0.708 -0.677 -1.485 -0.75 -2.25 -0.004 0.932 0.242 1.884 0.75 2.75 0.532 0.903 1.283 1.603 2.156 2.063 l 15.25 8.656 c 0.832 0.497 1.799 0.781 2.844 0.781 1.045 0 2.01 -0.284 2.844 -0.781 l 15.25 -8.656 c 0.873 -0.46 1.625 -1.159 2.156 -2.063 0.554 -0.944 0.806 -1.987 0.75 -3 l 0 -0.5 z" opacity="0.05"/><path d="m 45 1036.86 c 0.015 0.263 -0.004 0.516 -0.031 0.781 -0.036 0.844 -0.259 1.685 -0.719 2.469 -0.532 0.903 -1.283 1.603 -2.156 2.063 l -15.25 8.656 c -0.832 0.497 -1.799 0.781 -2.844 0.781 -1.045 0 -2.01 -0.284 -2.844 -0.781 l -15.25 -8.656 c -0.873 -0.46 -1.625 -1.159 -2.156 -2.063 -0.414 -0.705 -0.621 -1.46 -0.688 -2.219 -0.014 -0.092 -0.054 -0.189 -0.063 -0.281 -0.004 0.932 0.242 1.884 0.75 2.75 0.532 0.903 1.283 1.603 2.156 2.063 l 15.25 8.656 c 0.832 0.497 1.799 0.781 2.844 0.781 1.045 0 2.01 -0.284 2.844 -0.781 l 15.25 -8.656 c 0.873 -0.46 1.625 -1.159 2.156 -2.063 0.554 -0.944 0.806 -1.987 0.75 -3 l 0 -0.5 z m -41.813 1.625 c 0.057 0.219 0.132 0.442 0.219 0.656 -0.088 -0.216 -0.16 -0.436 -0.219 -0.656 z m 0.219 0.656 c 0.099 0.243 0.206 0.484 0.344 0.719 -0.139 -0.236 -0.243 -0.472 -0.344 -0.719 z m 41.41 -0.656 c -0.059 0.221 -0.131 0.441 -0.219 0.656 0.087 -0.215 0.161 -0.437 0.219 -0.656 z m -0.219 0.656 c -0.101 0.246 -0.205 0.483 -0.344 0.719 0.138 -0.235 0.245 -0.476 0.344 -0.719 z" opacity="0.1"/><path d="m 3.03 1037.64 c 0.035 0.844 0.259 1.685 0.719 2.469 0.532 0.903 1.283 1.603 2.156 2.063 l 15.25 8.656 c 0.832 0.497 1.799 0.781 2.844 0.781 1.045 0 2.01 -0.284 2.844 -0.781 l 15.25 -8.656 c 0.873 -0.46 1.625 -1.159 2.156 -2.063 0.46 -0.784 0.683 -1.624 0.719 -2.469 -0.067 0.763 -0.303 1.511 -0.719 2.219 -0.532 0.903 -1.283 1.603 -2.156 2.063 l -15.25 8.656 c -0.832 0.497 -1.799 0.781 -2.844 0.781 -1.045 0 -2.01 -0.284 -2.844 -0.781 l -15.25 -8.656 c -0.873 -0.46 -1.625 -1.159 -2.156 -2.063 -0.416 -0.708 -0.651 -1.456 -0.719 -2.219 z" opacity="0.2"/></g></g><g><path d="m 24 46.996 c 1.045 0 2.023 -0.287 2.856 -0.784 l 15.339 -8.708 c 0.017 -0.013 0.035 -0.013 0.052 -0.021 1.852 -1.051 2.847 -3 2.746 -4.968 l 0 -17.02 c 0.056 -1.013 -0.175 -2.049 -0.729 -2.993 -0.532 -0.903 -1.288 -1.602 -2.161 -2.061 l -15.246 -8.653 c -0.832 -0.497 -1.811 -0.784 -2.856 -0.784 -1.045 0 -2.023 0.287 -2.856 0.784 l -15.246 8.653 c -0.873 0.46 -1.629 1.158 -2.161 2.061 -0.554 0.944 -0.785 1.981 -0.729 2.993 l 0 17.01 c -0.056 1.012 0.175 2.051 0.729 2.993 0.532 0.906 1.288 1.604 2.161 2.064 l 15.246 8.653 c 0.832 0.497 1.811 0.785 2.856 0.785 z" fill="url(#linearGradient3764)" fill-opacity="1"/></g><g><g clip-path="url(#clipPath-905599987)"><g opacity="0.25"><g transform="translate(0,1)"><g filter="url(#filter-885490704)"><!-- color: #3e6478 --><g><use xlink:href="#SVGCleanerId_0"/><use xlink:href="#SVGCleanerId_1"/><use xlink:href="#SVGCleanerId_2"/><path d="m 18 19 l 12 0 c 0 4.223 0 6.508 0 11 l -12 0 m 0 -11" fill="#000"/><path d="m 16 19 c 0.555 0 1 -0.215 1 2 c 0 1.18 0 6 0 6 l -2 0 c 0 0 0 -3.785 0 -6 c 0 -2.215 0.445 -2 1 -2 m 0 0" fill="#000"/><path d="m 32 19 c 0.555 0 1 -0.215 1 2 c 0 1.18 0 6 0 6 l -2 0 c 0 0 0 -3.785 0 -6 c 0 -2.215 0.445 -2 1 -2 m 0 0" fill="#000"/><path d="m 18.25 11.441 l -0.344 0.188 l 1.844 3.219 c -1.086 1.086 -1.75 1.496 -1.75 3.152 l 12 0 c 0 -1.688 -0.691 -2.125 -1.813 -3.215 l 1.813 -3.156 l -0.344 -0.188 l -1.781 3.094 c -1.047 -0.887 -2.395 -1.438 -3.875 -1.438 c -1.504 0 -2.883 0.555 -3.938 1.469 m 1.25 1.09 c 0.195 0 0.375 0.18 0.375 0.375 c 0 0.195 -0.18 0.313 -0.375 0.313 c -0.195 0 -0.313 -0.117 -0.313 -0.313 c 0 -0.195 0.117 -0.375 0.313 -0.375 m 5.375 0 c 0.195 0 0.313 0.18 0.313 0.375 c 0 0.195 -0.117 0.313 -0.313 0.313 c -0.195 0 -0.375 -0.117 -0.375 -0.313 c 0 -0.195 0.18 -0.375 0.375 -0.375 m 0 0" fill="#000"/><path d="m 12 24.855 l 0.855 10.289 c 0 0 0 0.855 1.715 0.855 l 18.859 0 c 0 0 1.715 0 1.715 -0.855 l 0.855 -12.859 c 0 -1.715 0 -1.715 -0.855 -1.715 l -6 0 c -0.859 0 -1.715 0.859 -1.715 0.859 l -2.574 1.715 c 0 0 -1.711 0.855 -2.57 0.855 l -9.43 -0.855 c 0 0 -0.855 0 -0.855 1.711 m 0 0" fill="#000"/><path d="m 23.14 29.414 l 3.426 0 l -1.715 1.715 m -1.711 -1.715" fill="#000"/><path d="m 29.383 24.27 c -2.711 0 -4.926 2.305 -4.926 5.145 l 1.098 0 c 0 -0.688 0.191 -1.313 0.48 -1.875 l 0.027 0.027 c 1.102 -1.906 3.453 -2.59 5.277 -1.555 c 0.008 0.004 0.02 -0.004 0.027 0 c 0.043 0.027 0.09 0.051 0.133 0.082 c 0.176 0.109 0.332 0.238 0.48 0.375 c 0.039 0.031 0.074 0.07 0.109 0.105 c 0.016 0.02 0.035 0.035 0.055 0.055 c 0.66 0.719 1.043 1.707 1.043 2.785 c 0 0.266 -0.031 0.523 -0.082 0.777 c 0 0.008 0.004 0.016 0 0.027 c -0.031 0.141 -0.059 0.289 -0.105 0.426 c -0.012 0.039 -0.039 0.07 -0.055 0.109 c -0.078 0.211 -0.148 0.414 -0.266 0.617 c -0.555 0.953 -1.426 1.617 -2.387 1.898 c -0.16 0.051 -0.34 0.055 -0.508 0.082 c -0.137 0.016 -0.258 0.055 -0.402 0.055 c -0.691 0.035 -1.398 -0.117 -2.035 -0.484 l -0.563 0.992 c 0.816 0.473 1.711 0.66 2.598 0.617 l 0 0.027 c 2.191 0 4.03 -1.516 4.66 -3.59 c 0.039 -0.129 0.078 -0.246 0.109 -0.375 c 0.008 -0.039 0.02 -0.07 0.027 -0.109 c 0 -0.008 -0.004 -0.016 0 -0.027 c 0.477 -2.039 -0.301 -4.168 -2.063 -5.301 c -0.063 -0.047 -0.125 -0.094 -0.188 -0.137 c -0.074 -0.039 -0.141 -0.094 -0.215 -0.133 c -0.078 -0.043 -0.164 -0.066 -0.242 -0.105 c -0.637 -0.32 -1.336 -0.512 -2.09 -0.512 m 0 0" fill-rule="evenodd" fill="#000"/><path d="m 29.13 26.5 c -0.305 0.004 -0.547 0.219 -0.543 0.48 l 0 2.605 c 0 0.109 0.047 0.215 0.129 0.301 l 1.379 1.422 c 0.121 0.141 0.324 0.211 0.527 0.188 c 0.203 -0.027 0.367 -0.148 0.438 -0.316 c 0.066 -0.164 0.02 -0.352 -0.121 -0.477 l -1.25 -1.289 l 0 -2.434 c 0.004 -0.129 -0.055 -0.25 -0.16 -0.344 c -0.105 -0.09 -0.25 -0.141 -0.398 -0.137 m 0 0" fill="#000"/></g></g></g></g></g></g><g><g clip-path="url(#clipPath-914925013)"><!-- color: #3e6478 --><g><path d="m 24.14 30.414 l 3.426 0 l -1.715 1.715 m -1.711 -1.715" fill-opacity="0.102" id="SVGCleanerId_0"/><path d="m 30.383 25.27 c -2.711 0 -4.926 2.305 -4.926 5.145 l 1.098 0 c 0 -0.688 0.191 -1.313 0.48 -1.875 l 0.027 0.027 c 1.102 -1.906 3.453 -2.59 5.277 -1.555 c 0.008 0.004 0.02 -0.004 0.027 0 c 0.043 0.027 0.09 0.051 0.133 0.082 c 0.176 0.109 0.332 0.238 0.48 0.375 c 0.039 0.031 0.074 0.07 0.109 0.105 c 0.016 0.02 0.035 0.035 0.055 0.055 c 0.66 0.719 1.043 1.707 1.043 2.785 c 0 0.266 -0.031 0.523 -0.082 0.777 c 0 0.008 0.004 0.016 0 0.027 c -0.031 0.141 -0.059 0.289 -0.105 0.426 c -0.012 0.039 -0.039 0.07 -0.055 0.109 c -0.078 0.211 -0.148 0.414 -0.266 0.617 c -0.555 0.953 -1.426 1.617 -2.387 1.898 c -0.16 0.051 -0.34 0.055 -0.508 0.082 c -0.137 0.016 -0.258 0.055 -0.402 0.055 c -0.691 0.035 -1.398 -0.117 -2.035 -0.484 l -0.563 0.992 c 0.816 0.473 1.711 0.66 2.598 0.617 l 0 0.027 c 2.191 0 4.03 -1.516 4.66 -3.59 c 0.039 -0.129 0.078 -0.246 0.109 -0.375 c 0.008 -0.039 0.02 -0.07 0.027 -0.109 c 0 -0.008 -0.004 -0.016 0 -0.027 c 0.477 -2.039 -0.301 -4.168 -2.063 -5.301 c -0.063 -0.047 -0.125 -0.094 -0.188 -0.137 c -0.074 -0.039 -0.141 -0.094 -0.215 -0.133 c -0.078 -0.043 -0.164 -0.066 -0.242 -0.105 c -0.637 -0.32 -1.336 -0.512 -2.09 -0.512 m 0 0" fill-rule="evenodd" fill-opacity="0.102" id="SVGCleanerId_1"/><path d="m 30.13 27.5 c -0.305 0.004 -0.547 0.219 -0.543 0.48 l 0 2.605 c 0 0.109 0.047 0.215 0.129 0.301 l 1.379 1.422 c 0.121 0.141 0.324 0.211 0.527 0.188 c 0.203 -0.027 0.367 -0.148 0.438 -0.316 c 0.066 -0.164 0.02 -0.352 -0.121 -0.477 l -1.25 -1.289 l 0 -2.434 c 0.004 -0.129 -0.055 -0.25 -0.16 -0.344 c -0.105 -0.09 -0.25 -0.141 -0.398 -0.137 m 0 0" fill-opacity="0.102" id="SVGCleanerId_2"/><path d="m 18 19 l 12 0 c 0 4.223 0 6.508 0 11 l -12 0 m 0 -11" fill="#85b220"/><path d="m 16 19 c 0.555 0 1 -0.215 1 2 c 0 1.18 0 6 0 6 l -2 0 c 0 0 0 -3.785 0 -6 c 0 -2.215 0.445 -2 1 -2 m 0 0" fill="#85b220"/><path d="m 32 19 c 0.555 0 1 -0.215 1 2 c 0 1.18 0 6 0 6 l -2 0 c 0 0 0 -3.785 0 -6 c 0 -2.215 0.445 -2 1 -2 m 0 0" fill="#85b220"/><path d="m 18.25 11.441 l -0.344 0.188 l 1.844 3.219 c -1.086 1.086 -1.75 1.496 -1.75 3.152 l 12 0 c 0 -1.688 -0.691 -2.125 -1.813 -3.215 l 1.813 -3.156 l -0.344 -0.188 l -1.781 3.094 c -1.047 -0.887 -2.395 -1.438 -3.875 -1.438 c -1.504 0 -2.883 0.555 -3.938 1.469 m 1.25 1.09 c 0.195 0 0.375 0.18 0.375 0.375 c 0 0.195 -0.18 0.313 -0.375 0.313 c -0.195 0 -0.313 -0.117 -0.313 -0.313 c 0 -0.195 0.117 -0.375 0.313 -0.375 m 5.375 0 c 0.195 0 0.313 0.18 0.313 0.375 c 0 0.195 -0.117 0.313 -0.313 0.313 c -0.195 0 -0.375 -0.117 -0.375 -0.313 c 0 -0.195 0.18 -0.375 0.375 -0.375 m 0 0" fill="#85b220"/><path d="m 12 24.855 l 0.855 10.289 c 0 0 0 0.855 1.715 0.855 l 18.859 0 c 0 0 1.715 0 1.715 -0.855 l 0.855 -12.859 c 0 -1.715 0 -1.715 -0.855 -1.715 l -6 0 c -0.859 0 -1.715 0.859 -1.715 0.859 l -2.574 1.715 c 0 0 -1.711 0.855 -2.57 0.855 l -9.43 -0.855 c 0 0 -0.855 0 -0.855 1.711 m 0 0" fill="#78a8c1"/><path d="m 23.14 29.414 l 3.426 0 l -1.715 1.715 m -1.711 -1.715" fill="#fff"/><path d="m 29.383 24.27 c -2.711 0 -4.926 2.305 -4.926 5.145 l 1.098 0 c 0 -0.688 0.191 -1.313 0.48 -1.875 l 0.027 0.027 c 1.102 -1.906 3.453 -2.59 5.277 -1.555 c 0.008 0.004 0.02 -0.004 0.027 0 c 0.043 0.027 0.09 0.051 0.133 0.082 c 0.176 0.109 0.332 0.238 0.48 0.375 c 0.039 0.031 0.074 0.07 0.109 0.105 c 0.016 0.02 0.035 0.035 0.055 0.055 c 0.66 0.719 1.043 1.707 1.043 2.785 c 0 0.266 -0.031 0.523 -0.082 0.777 c 0 0.008 0.004 0.016 0 0.027 c -0.031 0.141 -0.059 0.289 -0.105 0.426 c -0.012 0.039 -0.039 0.07 -0.055 0.109 c -0.078 0.211 -0.148 0.414 -0.266 0.617 c -0.555 0.953 -1.426 1.617 -2.387 1.898 c -0.16 0.051 -0.34 0.055 -0.508 0.082 c -0.137 0.016 -0.258 0.055 -0.402 0.055 c -0.691 0.035 -1.398 -0.117 -2.035 -0.484 l -0.563 0.992 c 0.816 0.473 1.711 0.66 2.598 0.617 l 0 0.027 c 2.191 0 4.03 -1.516 4.66 -3.59 c 0.039 -0.129 0.078 -0.246 0.109 -0.375 c 0.008 -0.039 0.02 -0.07 0.027 -0.109 c 0 -0.008 -0.004 -0.016 0 -0.027 c 0.477 -2.039 -0.301 -4.168 -2.063 -5.301 c -0.063 -0.047 -0.125 -0.094 -0.188 -0.137 c -0.074 -0.039 -0.141 -0.094 -0.215 -0.133 c -0.078 -0.043 -0.164 -0.066 -0.242 -0.105 c -0.637 -0.32 -1.336 -0.512 -2.09 -0.512 m 0 0" fill="#fff" fill-rule="evenodd"/><path d="m 29.13 26.5 c -0.305 0.004 -0.547 0.219 -0.543 0.48 l 0 2.605 c 0 0.109 0.047 0.215 0.129 0.301 l 1.379 1.422 c 0.121 0.141 0.324 0.211 0.527 0.188 c 0.203 -0.027 0.367 -0.148 0.438 -0.316 c 0.066 -0.164 0.02 -0.352 -0.121 -0.477 l -1.25 -1.289 l 0 -2.434 c 0.004 -0.129 -0.055 -0.25 -0.16 -0.344 c -0.105 -0.09 -0.25 -0.141 -0.398 -0.137 m 0 0" fill="#fff"/></g></g></g><g><path d="m 24 1 c -1.045 0 -2.01 0.284 -2.844 0.781 l -15.344 8.719 c -0.017 0.013 -0.045 0.023 -0.063 0.031 c -1.852 1.051 -2.851 3 -2.75 4.969 l 0 1 c -0.101 -1.966 0.898 -3.918 2.75 -4.969 c 0.017 -0.008 0.045 -0.018 0.063 -0.031 l 15.344 -8.719 c 0.832 -0.497 1.799 -0.781 2.844 -0.781 c 1.045 0 2.01 0.284 2.844 0.781 l 15.25 8.656 c 0.873 0.46 1.625 1.156 2.156 2.063 c 0.554 0.942 0.806 1.988 0.75 3 l 0 -1 c 0.056 -1.012 -0.196 -2.058 -0.75 -3 c -0.532 -0.906 -1.283 -1.603 -2.156 -2.063 l -15.25 -8.656 c -0.832 -0.497 -1.799 -0.781 -2.844 -0.781 z" opacity="0.2" fill="#fff"/></g></svg>