<svg viewBox="0 0 48 48"><defs><linearGradient id="linearGradient3764" x1="1" x2="47" gradientUnits="userSpaceOnUse" gradientTransform="translate(-48.000001,0.00221467)"><stop stop-color="#e54f43" stop-opacity="1"/><stop offset="1" stop-color="#e75f54" stop-opacity="1"/></linearGradient><clipPath id="clipPath-767624325"><g transform="translate(0,-1004.3622)"><rect rx="4" y="1005.36" x="1" height="46" width="46" fill="#1890d0"/></g></clipPath><clipPath id="clipPath-780479163"><g transform="translate(0,-1004.3622)"><rect rx="4" y="1005.36" x="1" height="46" width="46" fill="#1890d0"/></g></clipPath></defs><g><path d="m 1 43 l 0 0.25 c 0 2.216 1.784 4 4 4 l 38 0 c 2.216 0 4 -1.784 4 -4 l 0 -0.25 c 0 2.216 -1.784 4 -4 4 l -38 0 c -2.216 0 -4 -1.784 -4 -4 z m 0 0.5 l 0 0.5 c 0 2.216 1.784 4 4 4 l 38 0 c 2.216 0 4 -1.784 4 -4 l 0 -0.5 c 0 2.216 -1.784 4 -4 4 l -38 0 c -2.216 0 -4 -1.784 -4 -4 z" opacity="0.02"/><path d="m 1 43.25 l 0 0.25 c 0 2.216 1.784 4 4 4 l 38 0 c 2.216 0 4 -1.784 4 -4 l 0 -0.25 c 0 2.216 -1.784 4 -4 4 l -38 0 c -2.216 0 -4 -1.784 -4 -4 z" opacity="0.05"/><path d="m 1 43 l 0 0.25 c 0 2.216 1.784 4 4 4 l 38 0 c 2.216 0 4 -1.784 4 -4 l 0 -0.25 c 0 2.216 -1.784 4 -4 4 l -38 0 c -2.216 0 -4 -1.784 -4 -4 z" opacity="0.1"/></g><g><rect width="46" height="46" x="-47" y="1" rx="4" transform="matrix(0,-1,1,0,0,0)" fill="url(#linearGradient3764)" fill-opacity="1"/></g><g><g clip-path="url(#clipPath-767624325)"><g opacity="0.1"><!-- color: #e75f54 --><g><g><path d="m 9,0 10,25 0,1 10,0 0,-1 L 39,0 C 35,0 11,0 9,0 z" fill-opacity="0.4" fill="#000"/><path d="m 17 30 14 0 0 1 c 0 1 -1 3 -2 3 l 0 1 -10 0 0 -1 c -1 0 -2 -2 -2 -3 z m 0 0" fill="#000"/><path d="m 19 34 0 14 c 1 0 3.277 0 5 0 1.723 0 4 0 5 0 l 0 -14 z" fill="#000"/><path d="m 17 27 14 0 0 4 -14 0 z m 0 0" fill="#000"/><path d="m 17 25.02 14 0 0 2 -14 0 z m 0 0" fill="#000"/><path d="m 21 27 0 21 c 1 0 1 0 2 0 l 0 -21 z" fill-opacity="0.502" fill="#000"/><path d="m 19 25.02 1 0 0 2 -1 0 z m 0 0" fill-opacity="0.302" fill="#000"/><path d="m 28 25.02 1 0 0 2 -1 0 z m 0 0" fill-opacity="0.302" fill="#000"/><path d="m 25.02 25.02 1 0 0 2 -1 0 z m 0 0" fill-opacity="0.302" fill="#000"/><path d="m 22 25.02 1 0 0 2 -1 0 z m 0 0" fill-opacity="0.302" fill="#000"/></g></g></g></g></g><g><g clip-path="url(#clipPath-780479163)"><g transform="translate(0,-1)"><!-- color: #e75f54 --><g><g><path d="m 9,0 10,25 0,1 10,0 0,-1 L 39,0 C 35,0 11,0 9,0 z" fill="#f8f8f8" fill-opacity="0.4"/><path d="m 17 30 14 0 0 1 c 0 1 -1 3 -2 3 l 0 1 -10 0 0 -1 c -1 0 -2 -2 -2 -3 z m 0 0" fill="#debf5e"/><path d="m 19 34 0 14 c 1 0 3.277 0 5 0 1.723 0 4 0 5 0 l 0 -14 z" fill="#ffd961"/><path d="m 17 27 14 0 0 4 -14 0 z m 0 0" fill="#ffd961"/><path d="m 17 25.02 14 0 0 2 -14 0 z m 0 0" fill="#7d99b0"/><path d="m 21 27 0 21 c 1 0 1 0 2 0 l 0 -21 z" fill="#f8f8f8" fill-opacity="0.502"/><path d="m 19 25.02 1 0 0 2 -1 0 z m 0 0" fill="#f8f8f8" fill-opacity="0.302"/><path d="m 28 25.02 1 0 0 2 -1 0 z m 0 0" fill="#f8f8f8" fill-opacity="0.302"/><path d="m 25.02 25.02 1 0 0 2 -1 0 z m 0 0" fill="#f8f8f8" fill-opacity="0.302"/><path d="m 22 25.02 1 0 0 2 -1 0 z m 0 0" fill="#f8f8f8" fill-opacity="0.302"/></g></g></g></g></g><g><g transform="translate(0,-1004.3622)"><path d="m 1 1043.36 0 4 c 0 2.216 1.784 4 4 4 l 38 0 c 2.216 0 4 -1.784 4 -4 l 0 -4 c 0 2.216 -1.784 4 -4 4 l -38 0 c -2.216 0 -4 -1.784 -4 -4 z" opacity="0.1"/></g></g></svg>