<svg viewBox="0 0 48 48"><defs><linearGradient id="linearGradient3764" x1="1" x2="47" gradientUnits="userSpaceOnUse" gradientTransform="translate(-48.000001,0.00221467)"><stop stop-color="#52617a" stop-opacity="1"/><stop offset="1" stop-color="#5a6a85" stop-opacity="1"/></linearGradient><clipPath id="clipPath-288969314"><g transform="translate(0,-1004.3622)"><rect rx="4" y="1005.36" x="1" height="46" width="46" fill="#1890d0"/></g></clipPath><clipPath id="clipPath-302545301"><g transform="translate(0,-1004.3622)"><rect rx="4" y="1005.36" x="1" height="46" width="46" fill="#1890d0"/></g></clipPath></defs><g><path d="m 1 43 l 0 0.25 c 0 2.216 1.784 4 4 4 l 38 0 c 2.216 0 4 -1.784 4 -4 l 0 -0.25 c 0 2.216 -1.784 4 -4 4 l -38 0 c -2.216 0 -4 -1.784 -4 -4 z m 0 0.5 l 0 0.5 c 0 2.216 1.784 4 4 4 l 38 0 c 2.216 0 4 -1.784 4 -4 l 0 -0.5 c 0 2.216 -1.784 4 -4 4 l -38 0 c -2.216 0 -4 -1.784 -4 -4 z" opacity="0.02"/><path d="m 1 43.25 l 0 0.25 c 0 2.216 1.784 4 4 4 l 38 0 c 2.216 0 4 -1.784 4 -4 l 0 -0.25 c 0 2.216 -1.784 4 -4 4 l -38 0 c -2.216 0 -4 -1.784 -4 -4 z" opacity="0.05"/><path d="m 1 43 l 0 0.25 c 0 2.216 1.784 4 4 4 l 38 0 c 2.216 0 4 -1.784 4 -4 l 0 -0.25 c 0 2.216 -1.784 4 -4 4 l -38 0 c -2.216 0 -4 -1.784 -4 -4 z" opacity="0.1"/></g><g><rect width="46" height="46" x="-47" y="1" rx="4" transform="matrix(0,-1,1,0,0,0)" fill="url(#linearGradient3764)" fill-opacity="1"/></g><g><g clip-path="url(#clipPath-288969314)"><g opacity="0.1"><!-- color: #5a6a85 --><path d="m 24 9 c -8.271 0 -15 6.729 -15 15 0 8.271 6.729 15 15 15 8.271 0 15 -6.729 15 -15 0 -8.271 -6.729 -15 -15 -15 z m 0 2 c 7.19 0 13 5.81 13 13 0 7.19 -5.81 13 -13 13 -7.19 0 -13 -5.81 -13 -13 0 -7.19 5.81 -13 13 -13 z" color="#000" fill="#000"/><path d="m 21.539 29.75 c -0.586 -0.359 -5.156 -5.16 -5.363 -5.633 -0.094 -0.215 -0.172 -0.473 -0.176 -0.574 c -0.008 -0.242 1.387 -1.723 1.75 -1.863 0.5 -0.188 0.953 0.129 2.742 1.918 l 1.762 1.762 3.152 -3.277 c 1.738 -1.801 3.402 -3.457 3.703 -3.676 0.859 -0.625 1.305 -0.551 2.172 0.371 0.398 0.426 0.719 0.852 0.719 0.953 c -0.008 0.453 -0.598 1.387 -1.41 2.234 -0.488 0.504 -2.469 2.52 -4.398 4.484 -3.773 3.824 -3.785 3.836 -4.652 3.305 z m 0 0" fill="#000"/></g></g></g><g><g clip-path="url(#clipPath-302545301)"><g transform="translate(0,-1)"><!-- color: #5a6a85 --><path d="m 24 9 c -8.271 0 -15 6.729 -15 15 0 8.271 6.729 15 15 15 8.271 0 15 -6.729 15 -15 0 -8.271 -6.729 -15 -15 -15 z m 0 2 c 7.19 0 13 5.81 13 13 0 7.19 -5.81 13 -13 13 -7.19 0 -13 -5.81 -13 -13 0 -7.19 5.81 -13 13 -13 z" color="#000" fill="#f9f9f9"/><path d="m 21.539 29.75 c -0.586 -0.359 -5.156 -5.16 -5.363 -5.633 -0.094 -0.215 -0.172 -0.473 -0.176 -0.574 c -0.008 -0.242 1.387 -1.723 1.75 -1.863 0.5 -0.188 0.953 0.129 2.742 1.918 l 1.762 1.762 3.152 -3.277 c 1.738 -1.801 3.402 -3.457 3.703 -3.676 0.859 -0.625 1.305 -0.551 2.172 0.371 0.398 0.426 0.719 0.852 0.719 0.953 c -0.008 0.453 -0.598 1.387 -1.41 2.234 -0.488 0.504 -2.469 2.52 -4.398 4.484 -3.773 3.824 -3.785 3.836 -4.652 3.305 z m 0 0" fill="#fff"/></g></g></g><g><g transform="translate(0,-1004.3622)"><path d="m 1 1043.36 0 4 c 0 2.216 1.784 4 4 4 l 38 0 c 2.216 0 4 -1.784 4 -4 l 0 -4 c 0 2.216 -1.784 4 -4 4 l -38 0 c -2.216 0 -4 -1.784 -4 -4 z" opacity="0.1"/></g></g></svg>