<svg viewBox="0 0 48 48" xmlns:xlink="http://www.w3.org/1999/xlink"><defs><linearGradient id="linearGradient3764" x1="1" x2="47" gradientUnits="userSpaceOnUse" gradientTransform="translate(-48.000001,0.00221467)"><stop stop-color="#127a7c" stop-opacity="1"/><stop offset="1" stop-color="#158d8d" stop-opacity="1"/></linearGradient><clipPath id="clipPath-076754490"><g transform="translate(0,-1004.3622)"><rect rx="4" y="1005.36" x="1" height="46" width="46" fill="#1890d0"/></g></clipPath><clipPath id="clipPath-089496512"><g transform="translate(0,-1004.3622)"><rect rx="4" y="1005.36" x="1" height="46" width="46" fill="#1890d0"/></g></clipPath><linearGradient id="0" gradientUnits="userSpaceOnUse" x1="19.691" y1="26.17" x2="29.25" y2="27.11" gradientTransform="matrix(0.928565,0,0,0.927671,1.714394,1.722366)"><stop stop-color="#f9f9f9"/><stop offset="1" stop-color="#6bd654"/></linearGradient><linearGradient xlink:href="#0" id="1" gradientUnits="userSpaceOnUse" gradientTransform="matrix(0.928565,0,0,0.927671,1.714394,1.722366)" x1="19.691" y1="26.17" x2="29.25" y2="27.11"/><linearGradient id="0" gradientUnits="userSpaceOnUse" x1="19.691" y1="26.17" x2="29.25" y2="27.11" gradientTransform="matrix(0.928565,0,0,0.927671,1.714394,1.722366)"><stop stop-color="#f9f9f9"/><stop offset="1" stop-color="#6bd654"/></linearGradient><linearGradient xlink:href="#0" id="1" gradientUnits="userSpaceOnUse" gradientTransform="matrix(0.928565,0,0,0.927671,1.714394,1.722366)" x1="19.691" y1="26.17" x2="29.25" y2="27.11"/></defs><g><path d="m 1 43 l 0 0.25 c 0 2.216 1.784 4 4 4 l 38 0 c 2.216 0 4 -1.784 4 -4 l 0 -0.25 c 0 2.216 -1.784 4 -4 4 l -38 0 c -2.216 0 -4 -1.784 -4 -4 z m 0 0.5 l 0 0.5 c 0 2.216 1.784 4 4 4 l 38 0 c 2.216 0 4 -1.784 4 -4 l 0 -0.5 c 0 2.216 -1.784 4 -4 4 l -38 0 c -2.216 0 -4 -1.784 -4 -4 z" opacity="0.02"/><path d="m 1 43.25 l 0 0.25 c 0 2.216 1.784 4 4 4 l 38 0 c 2.216 0 4 -1.784 4 -4 l 0 -0.25 c 0 2.216 -1.784 4 -4 4 l -38 0 c -2.216 0 -4 -1.784 -4 -4 z" opacity="0.05"/><path d="m 1 43 l 0 0.25 c 0 2.216 1.784 4 4 4 l 38 0 c 2.216 0 4 -1.784 4 -4 l 0 -0.25 c 0 2.216 -1.784 4 -4 4 l -38 0 c -2.216 0 -4 -1.784 -4 -4 z" opacity="0.1"/></g><g><rect width="46" height="46" x="-47" y="1" rx="4" transform="matrix(0,-1,1,0,0,0)" fill="url(#linearGradient3764)" fill-opacity="1"/></g><g><g clip-path="url(#clipPath-076754490)"><g opacity="0.1"><!-- color: #158d8d --><path d="m 24 10 c -3.585 0 -7.178 1.365 -9.906 4.094 -5.461 5.452 -5.46 14.325 0 19.781 l 0.719 0.719 1.406 -1.438 l -0.719 -0.688 c -4.696 -4.692 -4.696 -12.28 0 -16.969 a 1 1 0 0 0 0.031 0 c 4.692 -4.692 12.246 -4.692 16.938 0 a 1 1 0 0 0 0.031 0 c 4.696 4.688 4.696 12.276 0 16.969 l -0.719 0.688 1.406 1.438 0.719 -0.719 c 5.46 -5.456 5.461 -14.329 0 -19.781 c -2.728 -2.728 -6.321 -4.094 -9.906 -4.094 z" color="#000" fill="#000"/><path d="m 30 17 -8 7 2 2 7 -8 z m 0 0" fill="#000"/></g></g></g><g><g clip-path="url(#clipPath-089496512)"><g transform="translate(0,-1)"><!-- color: #158d8d --><path d="m 24 10 c -3.585 0 -7.178 1.365 -9.906 4.094 -5.461 5.452 -5.46 14.325 0 19.781 l 0.719 0.719 1.406 -1.438 l -0.719 -0.688 c -4.696 -4.692 -4.696 -12.28 0 -16.969 a 1 1 0 0 0 0.031 0 c 4.692 -4.692 12.246 -4.692 16.938 0 a 1 1 0 0 0 0.031 0 c 4.696 4.688 4.696 12.276 0 16.969 l -0.719 0.688 1.406 1.438 0.719 -0.719 c 5.46 -5.456 5.461 -14.329 0 -19.781 c -2.728 -2.728 -6.321 -4.094 -9.906 -4.094 z" color="#000" fill="url(#1)"/><path d="m 30 17 -8 7 2 2 7 -8 z m 0 0" fill="#ececec"/></g></g></g><g><g transform="translate(0,-1004.3622)"><path d="m 1 1043.36 0 4 c 0 2.216 1.784 4 4 4 l 38 0 c 2.216 0 4 -1.784 4 -4 l 0 -4 c 0 2.216 -1.784 4 -4 4 l -38 0 c -2.216 0 -4 -1.784 -4 -4 z" opacity="0.1"/></g></g></svg>