<svg viewBox="0 0 48 48"><defs><linearGradient id="linearGradient3764" x1="1" x2="47" gradientUnits="userSpaceOnUse" gradientTransform="translate(-48.000001,0.00221467)"><stop stop-color="#1ea5e4" stop-opacity="1"/><stop offset="1" stop-color="#2face6" stop-opacity="1"/></linearGradient><clipPath id="clipPath-544385265"><g transform="translate(0,-1004.3622)"><rect rx="4" y="1005.36" x="1" height="46" width="46" fill="#1890d0"/></g></clipPath><clipPath id="clipPath-557134244"><g transform="translate(0,-1004.3622)"><rect rx="4" y="1005.36" x="1" height="46" width="46" fill="#1890d0"/></g></clipPath><linearGradient id="0" gradientUnits="userSpaceOnUse" x1="135" y1="120" x2="160" y2="160" gradientTransform="matrix(0.199239,0,0,0.199239,-0.746294,-1.187015)"><stop stop-color="#edf5fb"/><stop offset="1" stop-color="#fff"/></linearGradient><linearGradient id="0" gradientUnits="userSpaceOnUse" x1="135" y1="120" x2="160" y2="160" gradientTransform="matrix(0.199239,0,0,0.199239,-0.746294,-1.187015)"><stop stop-color="#edf5fb"/><stop offset="1" stop-color="#fff"/></linearGradient></defs><g><path d="m 1 43 l 0 0.25 c 0 2.216 1.784 4 4 4 l 38 0 c 2.216 0 4 -1.784 4 -4 l 0 -0.25 c 0 2.216 -1.784 4 -4 4 l -38 0 c -2.216 0 -4 -1.784 -4 -4 z m 0 0.5 l 0 0.5 c 0 2.216 1.784 4 4 4 l 38 0 c 2.216 0 4 -1.784 4 -4 l 0 -0.5 c 0 2.216 -1.784 4 -4 4 l -38 0 c -2.216 0 -4 -1.784 -4 -4 z" opacity="0.02"/><path d="m 1 43.25 l 0 0.25 c 0 2.216 1.784 4 4 4 l 38 0 c 2.216 0 4 -1.784 4 -4 l 0 -0.25 c 0 2.216 -1.784 4 -4 4 l -38 0 c -2.216 0 -4 -1.784 -4 -4 z" opacity="0.05"/><path d="m 1 43 l 0 0.25 c 0 2.216 1.784 4 4 4 l 38 0 c 2.216 0 4 -1.784 4 -4 l 0 -0.25 c 0 2.216 -1.784 4 -4 4 l -38 0 c -2.216 0 -4 -1.784 -4 -4 z" opacity="0.1"/></g><g><rect width="46" height="46" x="-47" y="1" rx="4" transform="matrix(0,-1,1,0,0,0)" fill="url(#linearGradient3764)" fill-opacity="1"/></g><g><g clip-path="url(#clipPath-544385265)"><g opacity="0.1"><!-- color: #2face6 --><g><path d="m 18.777 33.68 c -0.773 0 -0.641 -0.293 -0.91 -1.031 l -2.277 -7.496 l 14.11 -8.813 l 1.648 0.43 l -1.367 3.75 m -11.199 13.16" fill="#000"/><path d="m 18.777 33.68 c 0.598 0 0.863 -0.273 1.195 -0.598 c 0.516 -0.504 7.176 -6.973 7.176 -6.973 l -4.082 -0.988 l -3.785 2.391 l -0.504 5.969 m 0 0.199" fill="#000"/><path d="m 19.19 27.586 l 9.633 7.117 c 1.102 0.605 1.895 0.293 2.168 -1.02 l 3.922 -18.484 c 0.402 -1.609 -0.613 -2.34 -1.664 -1.863 l -23.03 8.883 c -1.574 0.633 -1.563 1.508 -0.289 1.898 l 5.91 1.848 l 13.684 -8.633 c 0.645 -0.391 1.238 -0.184 0.754 0.25 m -11.09 10" fill="#000"/></g></g></g></g><g><g clip-path="url(#clipPath-557134244)"><g transform="translate(0,-1)"><!-- color: #2face6 --><g><path d="m 18.777 33.68 c -0.773 0 -0.641 -0.293 -0.91 -1.031 l -2.277 -7.496 l 14.11 -8.813 l 1.648 0.43 l -1.367 3.75 m -11.199 13.16" fill="#c8d8ea"/><path d="m 18.777 33.68 c 0.598 0 0.863 -0.273 1.195 -0.598 c 0.516 -0.504 7.176 -6.973 7.176 -6.973 l -4.082 -0.988 l -3.785 2.391 l -0.504 5.969 m 0 0.199" fill="#a5c1cf"/><path d="m 19.19 27.586 l 9.633 7.117 c 1.102 0.605 1.895 0.293 2.168 -1.02 l 3.922 -18.484 c 0.402 -1.609 -0.613 -2.34 -1.664 -1.863 l -23.03 8.883 c -1.574 0.633 -1.563 1.508 -0.289 1.898 l 5.91 1.848 l 13.684 -8.633 c 0.645 -0.391 1.238 -0.184 0.754 0.25 m -11.09 10" fill="url(#0)"/></g></g></g></g><g><g transform="translate(0,-1004.3622)"><path d="m 1 1043.36 0 4 c 0 2.216 1.784 4 4 4 l 38 0 c 2.216 0 4 -1.784 4 -4 l 0 -4 c 0 2.216 -1.784 4 -4 4 l -38 0 c -2.216 0 -4 -1.784 -4 -4 z" opacity="0.1"/></g></g></svg>