<svg viewBox="0 0 48 48"><defs><linearGradient id="linearGradient3764" x1="1" x2="47" gradientUnits="userSpaceOnUse" gradientTransform="translate(-48.000001,0.00221467)"><stop stop-color="#e4e4e4" stop-opacity="1"/><stop offset="1" stop-color="#eee" stop-opacity="1"/></linearGradient><clipPath id="clipPath-810224271"><g transform="translate(0,-1004.3622)"><rect rx="4" y="1005.36" x="1" height="46" width="46" fill="#1890d0"/></g></clipPath><clipPath id="clipPath-837978603"><g transform="translate(0,-1004.3622)"><rect rx="4" y="1005.36" x="1" height="46" width="46" fill="#1890d0"/></g></clipPath></defs><g><path d="m 1 43 l 0 0.25 c 0 2.216 1.784 4 4 4 l 38 0 c 2.216 0 4 -1.784 4 -4 l 0 -0.25 c 0 2.216 -1.784 4 -4 4 l -38 0 c -2.216 0 -4 -1.784 -4 -4 z m 0 0.5 l 0 0.5 c 0 2.216 1.784 4 4 4 l 38 0 c 2.216 0 4 -1.784 4 -4 l 0 -0.5 c 0 2.216 -1.784 4 -4 4 l -38 0 c -2.216 0 -4 -1.784 -4 -4 z" opacity="0.02"/><path d="m 1 43.25 l 0 0.25 c 0 2.216 1.784 4 4 4 l 38 0 c 2.216 0 4 -1.784 4 -4 l 0 -0.25 c 0 2.216 -1.784 4 -4 4 l -38 0 c -2.216 0 -4 -1.784 -4 -4 z" opacity="0.05"/><path d="m 1 43 l 0 0.25 c 0 2.216 1.784 4 4 4 l 38 0 c 2.216 0 4 -1.784 4 -4 l 0 -0.25 c 0 2.216 -1.784 4 -4 4 l -38 0 c -2.216 0 -4 -1.784 -4 -4 z" opacity="0.1"/></g><g><rect width="46" height="46" x="-47" y="1" rx="4" transform="matrix(0,-1,1,0,0,0)" fill="url(#linearGradient3764)" fill-opacity="1"/></g><g><g clip-path="url(#clipPath-810224271)"><g opacity="0.1"><!-- color: #eeeeee --><g><path d="m 30 30 l 0 1 c 2 0 4 -2 4 -4 l -1 0 c 0 1 -2 3 -3 3 m 0 0" fill="#000"/><path d="m 30 32 l 0 1 c 4 0 6 -2 6 -6 l -1 0 c 0 3 -2 5 -5 5 m 0 0" fill="#000"/><path d="m 30 34 l 0 1 c 6 0 8 -2 8 -8 l -1 0 c 0 5 -2 7 -7 7 m 0 0" fill="#000"/><path d="m 19.563 13.563 l -1.563 5.438 l 2 6 l 5 0 l 0 -6 m -5.438 -5.438" fill="#000"/><path d="m 25 19 l -5 6 l -3 9 l 3 8 l 12.5 -17.375 l 0.5 -6.625 m -8 1" fill="#000"/><path d="m 32 10 l -7 9 l 7.406 5.781 l 10.25 -14.219 c -0.137 -0.191 -0.262 -0.375 -0.406 -0.563 m -10.25 0" fill="#000"/><path d="m 5.75 10 c -0.102 0.133 -0.184 0.273 -0.281 0.406 l 14.531 14.594 l 0 -11 l -4 -4 m 4 15 l -10.813 16.594 c 0.164 0.137 0.332 0.273 0.5 0.406 l 10.313 0 m 0 -17" fill="#000"/></g></g></g></g><g><g clip-path="url(#clipPath-837978603)"><g transform="translate(0,-1)"><!-- color: #eeeeee --><g><path d="m 30 30 l 0 1 c 2 0 4 -2 4 -4 l -1 0 c 0 1 -2 3 -3 3 m 0 0" fill="#666"/><path d="m 30 32 l 0 1 c 4 0 6 -2 6 -6 l -1 0 c 0 3 -2 5 -5 5 m 0 0" fill="#666"/><path d="m 30 34 l 0 1 c 6 0 8 -2 8 -8 l -1 0 c 0 5 -2 7 -7 7 m 0 0" fill="#666"/><path d="m 19.563 13.563 l -1.563 5.438 l 2 6 l 5 0 l 0 -6 m -5.438 -5.438" fill="#20b0cf"/><path d="m 25 19 l -5 6 l -3 9 l 3 8 l 12.5 -17.375 l 0.5 -6.625 m -8 1" fill="#1ebbe2"/><path d="m 32 10 l -7 9 l 7.406 5.781 l 10.25 -14.219 c -0.137 -0.191 -0.262 -0.375 -0.406 -0.563 m -10.25 0" fill="#169cc7"/><path d="m 5.75 10 c -0.102 0.133 -0.184 0.273 -0.281 0.406 l 14.531 14.594 l 0 -11 l -4 -4 m 4 15 l -10.813 16.594 c 0.164 0.137 0.332 0.273 0.5 0.406 l 10.313 0 m 0 -17" fill="#169cc7"/></g></g></g></g><g><g transform="translate(0,-1004.3622)"><path d="m 1 1043.36 0 4 c 0 2.216 1.784 4 4 4 l 38 0 c 2.216 0 4 -1.784 4 -4 l 0 -4 c 0 2.216 -1.784 4 -4 4 l -38 0 c -2.216 0 -4 -1.784 -4 -4 z" opacity="0.1"/></g></g></svg>