<svg viewBox="0 0 48 48"><defs><linearGradient id="linearGradient3764" y1="1" x2="0" y2="47" gradientUnits="userSpaceOnUse"><stop stop-color="#8436a2" stop-opacity="1"/><stop offset="1" stop-color="#783193" stop-opacity="1"/></linearGradient><clipPath id="clipPath-081477400"><g transform="translate(0,-1004.3622)"><path d="m 24 1005.37 c -1.045 0 -2.023 0.287 -2.856 0.784 l -15.339 8.708 c -0.017 0.013 -0.035 0.013 -0.052 0.021 -1.852 1.051 -2.847 3 -2.746 4.968 l 0 17.02 c -0.056 1.013 0.175 2.049 0.729 2.993 0.532 0.903 1.288 1.602 2.161 2.061 l 15.246 8.653 c 0.832 0.497 1.811 0.784 2.856 0.784 1.045 0 2.023 -0.287 2.856 -0.784 l 15.246 -8.653 c 0.873 -0.46 1.629 -1.158 2.161 -2.061 0.554 -0.944 0.785 -1.981 0.729 -2.993 l 0 -17.01 c 0.056 -1.012 -0.175 -2.052 -0.729 -2.993 -0.532 -0.906 -1.288 -1.604 -2.161 -2.064 l -15.246 -8.653 c -0.832 -0.497 -1.811 -0.784 -2.856 -0.784 z" fill="#1890d0"/></g></clipPath><clipPath id="clipPath-090055096"><g transform="translate(0,-1004.3622)"><path d="m 24 1005.37 c -1.045 0 -2.023 0.287 -2.856 0.784 l -15.339 8.708 c -0.017 0.013 -0.035 0.013 -0.052 0.021 -1.852 1.051 -2.847 3 -2.746 4.968 l 0 17.02 c -0.056 1.013 0.175 2.049 0.729 2.993 0.532 0.903 1.288 1.602 2.161 2.061 l 15.246 8.653 c 0.832 0.497 1.811 0.784 2.856 0.784 1.045 0 2.023 -0.287 2.856 -0.784 l 15.246 -8.653 c 0.873 -0.46 1.629 -1.158 2.161 -2.061 0.554 -0.944 0.785 -1.981 0.729 -2.993 l 0 -17.01 c 0.056 -1.012 -0.175 -2.052 -0.729 -2.993 -0.532 -0.906 -1.288 -1.604 -2.161 -2.064 l -15.246 -8.653 c -0.832 -0.497 -1.811 -0.784 -2.856 -0.784 z" fill="#1890d0"/></g></clipPath><filter id="filter-063802495"><feGaussianBlur stdDeviation="0.35"/></filter></defs><g><g transform="translate(0,-1004.3622)"><path d="m 45 1037.36 c 0.056 1.013 -0.196 2.056 -0.75 3 -0.532 0.903 -1.283 1.603 -2.156 2.063 l -15.25 8.656 c -0.832 0.497 -1.799 0.781 -2.844 0.781 -1.045 0 -2.01 -0.284 -2.844 -0.781 l -15.25 -8.656 c -0.873 -0.46 -1.625 -1.159 -2.156 -2.063 -0.416 -0.708 -0.677 -1.485 -0.75 -2.25 -0.004 0.932 0.242 1.884 0.75 2.75 0.532 0.903 1.283 1.603 2.156 2.063 l 15.25 8.656 c 0.832 0.497 1.799 0.781 2.844 0.781 1.045 0 2.01 -0.284 2.844 -0.781 l 15.25 -8.656 c 0.873 -0.46 1.625 -1.159 2.156 -2.063 0.554 -0.944 0.806 -1.987 0.75 -3 l 0 -0.5 z" opacity="0.05"/><path d="m 45 1036.86 c 0.015 0.263 -0.004 0.516 -0.031 0.781 -0.036 0.844 -0.259 1.685 -0.719 2.469 -0.532 0.903 -1.283 1.603 -2.156 2.063 l -15.25 8.656 c -0.832 0.497 -1.799 0.781 -2.844 0.781 -1.045 0 -2.01 -0.284 -2.844 -0.781 l -15.25 -8.656 c -0.873 -0.46 -1.625 -1.159 -2.156 -2.063 -0.414 -0.705 -0.621 -1.46 -0.688 -2.219 -0.014 -0.092 -0.054 -0.189 -0.063 -0.281 -0.004 0.932 0.242 1.884 0.75 2.75 0.532 0.903 1.283 1.603 2.156 2.063 l 15.25 8.656 c 0.832 0.497 1.799 0.781 2.844 0.781 1.045 0 2.01 -0.284 2.844 -0.781 l 15.25 -8.656 c 0.873 -0.46 1.625 -1.159 2.156 -2.063 0.554 -0.944 0.806 -1.987 0.75 -3 l 0 -0.5 z m -41.813 1.625 c 0.057 0.219 0.132 0.442 0.219 0.656 -0.088 -0.216 -0.16 -0.436 -0.219 -0.656 z m 0.219 0.656 c 0.099 0.243 0.206 0.484 0.344 0.719 -0.139 -0.236 -0.243 -0.472 -0.344 -0.719 z m 41.41 -0.656 c -0.059 0.221 -0.131 0.441 -0.219 0.656 0.087 -0.215 0.161 -0.437 0.219 -0.656 z m -0.219 0.656 c -0.101 0.246 -0.205 0.483 -0.344 0.719 0.138 -0.235 0.245 -0.476 0.344 -0.719 z" opacity="0.1"/><path d="m 3.03 1037.64 c 0.035 0.844 0.259 1.685 0.719 2.469 0.532 0.903 1.283 1.603 2.156 2.063 l 15.25 8.656 c 0.832 0.497 1.799 0.781 2.844 0.781 1.045 0 2.01 -0.284 2.844 -0.781 l 15.25 -8.656 c 0.873 -0.46 1.625 -1.159 2.156 -2.063 0.46 -0.784 0.683 -1.624 0.719 -2.469 -0.067 0.763 -0.303 1.511 -0.719 2.219 -0.532 0.903 -1.283 1.603 -2.156 2.063 l -15.25 8.656 c -0.832 0.497 -1.799 0.781 -2.844 0.781 -1.045 0 -2.01 -0.284 -2.844 -0.781 l -15.25 -8.656 c -0.873 -0.46 -1.625 -1.159 -2.156 -2.063 -0.416 -0.708 -0.651 -1.456 -0.719 -2.219 z" opacity="0.2"/></g></g><g><path d="m 24 46.996 c 1.045 0 2.023 -0.287 2.856 -0.784 l 15.339 -8.708 c 0.017 -0.013 0.035 -0.013 0.052 -0.021 1.852 -1.051 2.847 -3 2.746 -4.968 l 0 -17.02 c 0.056 -1.013 -0.175 -2.049 -0.729 -2.993 -0.532 -0.903 -1.288 -1.602 -2.161 -2.061 l -15.246 -8.653 c -0.832 -0.497 -1.811 -0.784 -2.856 -0.784 -1.045 0 -2.023 0.287 -2.856 0.784 l -15.246 8.653 c -0.873 0.46 -1.629 1.158 -2.161 2.061 -0.554 0.944 -0.785 1.981 -0.729 2.993 l 0 17.01 c -0.056 1.012 0.175 2.051 0.729 2.993 0.532 0.906 1.288 1.604 2.161 2.064 l 15.246 8.653 c 0.832 0.497 1.811 0.785 2.856 0.785 z" fill="url(#linearGradient3764)" fill-opacity="1"/></g><g><g clip-path="url(#clipPath-081477400)"><g opacity="0.25"><g transform="translate(0,1)"><g filter="url(#filter-063802495)"><!-- color: #8436a2 --><path d="m 26.313 13.03 c -0.359 -0.004 -0.734 0.008 -1.094 0.031 -0.961 0.066 -1.922 0.211 -2.875 0.469 -3.746 1.01 -6.824 3.375 -8.688 6.625 c -3.914 6.832 -1.84 15.188 4.938 19.844 5.406 3 16.03 5 29.406 3 c 0 -1 0 -1 0 -2 -18.348 0.409 -22.13 0.047 -27.531 -3.656 -5.352 -3.672 -7.05 -10.234 -4 -15.563 1.434 -2.492 3.848 -4.316 6.75 -5.094 2.977 -0.805 6.04 -0.383 8.656 1.125 l 1.625 -2.813 c -2.215 -1.277 -4.676 -1.953 -7.188 -1.969 z" fill="#000"/><path d="m 26 17.438 c -1.648 0.055 -3.313 0.5 -4.781 1.344 -3.25 1.875 -5.03 5.273 -5.03 8.781 0 1.625 0.367 3.293 1.188 4.813 0 0.004 0.051 0.074 0.063 0.094 0 0 -0.016 0.039 0 0.063 0.02 0.039 0.09 0.09 0.094 0.094 0.512 0.875 2.504 3.871 6.813 5.438 c 7.241 1.938 19.12 1.454 23.656 0.938 c 0 -0.703 0 -1 0 -2 -5.965 0.012 -17.477 0.484 -22.594 -2 -3.395 -1.234 -4.801 -3.504 -5.063 -3.969 -0.621 -1.082 -0.906 -2.305 -0.906 -3.469 0 -2.379 1.23 -4.691 3.438 -5.969 1.594 -0.914 3.438 -1.164 5.219 -0.688 1.773 0.477 3.266 1.629 4.188 3.219 l 2.906 -1.5 -0.094 -0.094 c -1.352 -2.344 -3.508 -4.04 -6.125 -4.75 c -0.98 -0.262 -1.98 -0.375 -2.969 -0.344 z" fill="#000"/><path d="m 10.539 26.504 c 0.461 14.13 10.461 20.496 37.461 18.496 l 0 3 -21 0 c -10.457 -1.57 -20.691 -10.113 -19.637 -22.406 0.895 -11.512 12.07 -17.406 18.656 -16.793 l 0 3.254 c -0.371 -0.105 -14.156 0.602 -15.48 14.449 z" fill="#000"/></g></g></g></g></g><g><g clip-path="url(#clipPath-090055096)"><!-- color: #8436a2 --><path d="m 26.313 13.03 c -0.359 -0.004 -0.734 0.008 -1.094 0.031 -0.961 0.066 -1.922 0.211 -2.875 0.469 -3.746 1.01 -6.824 3.375 -8.688 6.625 c -3.914 6.832 -1.84 15.188 4.938 19.844 5.406 3 16.03 5 29.406 3 c 0 -1 0 -1 0 -2 -18.348 0.409 -22.13 0.047 -27.531 -3.656 -5.352 -3.672 -7.05 -10.234 -4 -15.563 1.434 -2.492 3.848 -4.316 6.75 -5.094 2.977 -0.805 6.04 -0.383 8.656 1.125 l 1.625 -2.813 c -2.215 -1.277 -4.676 -1.953 -7.188 -1.969 z" fill="#f9f9f9"/><path d="m 26 17.438 c -1.648 0.055 -3.313 0.5 -4.781 1.344 -3.25 1.875 -5.03 5.273 -5.03 8.781 0 1.625 0.367 3.293 1.188 4.813 0 0.004 0.051 0.074 0.063 0.094 0 0 -0.016 0.039 0 0.063 0.02 0.039 0.09 0.09 0.094 0.094 0.512 0.875 2.504 3.871 6.813 5.438 c 7.241 1.938 19.12 1.454 23.656 0.938 c 0 -0.703 0 -1 0 -2 -5.965 0.012 -17.477 0.484 -22.594 -2 -3.395 -1.234 -4.801 -3.504 -5.063 -3.969 -0.621 -1.082 -0.906 -2.305 -0.906 -3.469 0 -2.379 1.23 -4.691 3.438 -5.969 1.594 -0.914 3.438 -1.164 5.219 -0.688 1.773 0.477 3.266 1.629 4.188 3.219 l 2.906 -1.5 -0.094 -0.094 c -1.352 -2.344 -3.508 -4.04 -6.125 -4.75 c -0.98 -0.262 -1.98 -0.375 -2.969 -0.344 z" fill="#f9f9f9"/><path d="m 10.539 26.504 c 0.461 14.13 10.461 20.496 37.461 18.496 l 0 3 -21 0 c -10.457 -1.57 -20.691 -10.113 -19.637 -22.406 0.895 -11.512 12.07 -17.406 18.656 -16.793 l 0 3.254 c -0.371 -0.105 -14.156 0.602 -15.48 14.449 z" fill="#f9f9f9"/></g></g><g><path d="m 24 1 c -1.045 0 -2.01 0.284 -2.844 0.781 l -15.344 8.719 c -0.017 0.013 -0.045 0.023 -0.063 0.031 c -1.852 1.051 -2.851 3 -2.75 4.969 l 0 1 c -0.101 -1.966 0.898 -3.918 2.75 -4.969 c 0.017 -0.008 0.045 -0.018 0.063 -0.031 l 15.344 -8.719 c 0.832 -0.497 1.799 -0.781 2.844 -0.781 c 1.045 0 2.01 0.284 2.844 0.781 l 15.25 8.656 c 0.873 0.46 1.625 1.156 2.156 2.063 c 0.554 0.942 0.806 1.988 0.75 3 l 0 -1 c 0.056 -1.012 -0.196 -2.058 -0.75 -3 c -0.532 -0.906 -1.283 -1.603 -2.156 -2.063 l -15.25 -8.656 c -0.832 -0.497 -1.799 -0.781 -2.844 -0.781 z" opacity="0.2" fill="#fff"/></g></svg>