<svg viewBox="0 0 48 48"><defs><linearGradient id="linearGradient3764" x1="1" x2="47" gradientUnits="userSpaceOnUse" gradientTransform="translate(-48.000001,0.00221467)"><stop stop-color="#783193" stop-opacity="1"/><stop offset="1" stop-color="#8436a2" stop-opacity="1"/></linearGradient><clipPath id="clipPath-786329698"><g transform="translate(0,-1004.3622)"><rect rx="4" y="1005.36" x="1" height="46" width="46" fill="#1890d0"/></g></clipPath><clipPath id="clipPath-801354851"><g transform="translate(0,-1004.3622)"><rect rx="4" y="1005.36" x="1" height="46" width="46" fill="#1890d0"/></g></clipPath></defs><g><path d="m 1 43 l 0 0.25 c 0 2.216 1.784 4 4 4 l 38 0 c 2.216 0 4 -1.784 4 -4 l 0 -0.25 c 0 2.216 -1.784 4 -4 4 l -38 0 c -2.216 0 -4 -1.784 -4 -4 z m 0 0.5 l 0 0.5 c 0 2.216 1.784 4 4 4 l 38 0 c 2.216 0 4 -1.784 4 -4 l 0 -0.5 c 0 2.216 -1.784 4 -4 4 l -38 0 c -2.216 0 -4 -1.784 -4 -4 z" opacity="0.02"/><path d="m 1 43.25 l 0 0.25 c 0 2.216 1.784 4 4 4 l 38 0 c 2.216 0 4 -1.784 4 -4 l 0 -0.25 c 0 2.216 -1.784 4 -4 4 l -38 0 c -2.216 0 -4 -1.784 -4 -4 z" opacity="0.05"/><path d="m 1 43 l 0 0.25 c 0 2.216 1.784 4 4 4 l 38 0 c 2.216 0 4 -1.784 4 -4 l 0 -0.25 c 0 2.216 -1.784 4 -4 4 l -38 0 c -2.216 0 -4 -1.784 -4 -4 z" opacity="0.1"/></g><g><rect width="46" height="46" x="-47" y="1" rx="4" transform="matrix(0,-1,1,0,0,0)" fill="url(#linearGradient3764)" fill-opacity="1"/></g><g><g clip-path="url(#clipPath-786329698)"><g opacity="0.1"><!-- color: #8436a2 --><path d="m 26.313 13.03 c -0.359 -0.004 -0.734 0.008 -1.094 0.031 -0.961 0.066 -1.922 0.211 -2.875 0.469 -3.746 1.01 -6.824 3.375 -8.688 6.625 c -3.914 6.832 -1.84 15.188 4.938 19.844 5.406 3 16.03 5 29.406 3 c 0 -1 0 -1 0 -2 -18.348 0.409 -22.13 0.047 -27.531 -3.656 -5.352 -3.672 -7.05 -10.234 -4 -15.563 1.434 -2.492 3.848 -4.316 6.75 -5.094 2.977 -0.805 6.04 -0.383 8.656 1.125 l 1.625 -2.813 c -2.215 -1.277 -4.676 -1.953 -7.188 -1.969 z" fill="#000"/><path d="m 26 17.438 c -1.648 0.055 -3.313 0.5 -4.781 1.344 -3.25 1.875 -5.03 5.273 -5.03 8.781 0 1.625 0.367 3.293 1.188 4.813 0 0.004 0.051 0.074 0.063 0.094 0 0 -0.016 0.039 0 0.063 0.02 0.039 0.09 0.09 0.094 0.094 0.512 0.875 2.504 3.871 6.813 5.438 c 7.241 1.938 19.12 1.454 23.656 0.938 c 0 -0.703 0 -1 0 -2 -5.965 0.012 -17.477 0.484 -22.594 -2 -3.395 -1.234 -4.801 -3.504 -5.063 -3.969 -0.621 -1.082 -0.906 -2.305 -0.906 -3.469 0 -2.379 1.23 -4.691 3.438 -5.969 1.594 -0.914 3.438 -1.164 5.219 -0.688 1.773 0.477 3.266 1.629 4.188 3.219 l 2.906 -1.5 -0.094 -0.094 c -1.352 -2.344 -3.508 -4.04 -6.125 -4.75 c -0.98 -0.262 -1.98 -0.375 -2.969 -0.344 z" fill="#000"/><path d="m 10.539 26.504 c 0.461 14.13 10.461 20.496 37.461 18.496 l 0 3 -21 0 c -10.457 -1.57 -20.691 -10.113 -19.637 -22.406 0.895 -11.512 12.07 -17.406 18.656 -16.793 l 0 3.254 c -0.371 -0.105 -14.156 0.602 -15.48 14.449 z" fill="#000"/></g></g></g><g><g clip-path="url(#clipPath-801354851)"><g transform="translate(0,-1)"><!-- color: #8436a2 --><path d="m 26.313 13.03 c -0.359 -0.004 -0.734 0.008 -1.094 0.031 -0.961 0.066 -1.922 0.211 -2.875 0.469 -3.746 1.01 -6.824 3.375 -8.688 6.625 c -3.914 6.832 -1.84 15.188 4.938 19.844 5.406 3 16.03 5 29.406 3 c 0 -1 0 -1 0 -2 -18.348 0.409 -22.13 0.047 -27.531 -3.656 -5.352 -3.672 -7.05 -10.234 -4 -15.563 1.434 -2.492 3.848 -4.316 6.75 -5.094 2.977 -0.805 6.04 -0.383 8.656 1.125 l 1.625 -2.813 c -2.215 -1.277 -4.676 -1.953 -7.188 -1.969 z" fill="#f9f9f9"/><path d="m 26 17.438 c -1.648 0.055 -3.313 0.5 -4.781 1.344 -3.25 1.875 -5.03 5.273 -5.03 8.781 0 1.625 0.367 3.293 1.188 4.813 0 0.004 0.051 0.074 0.063 0.094 0 0 -0.016 0.039 0 0.063 0.02 0.039 0.09 0.09 0.094 0.094 0.512 0.875 2.504 3.871 6.813 5.438 c 7.241 1.938 19.12 1.454 23.656 0.938 c 0 -0.703 0 -1 0 -2 -5.965 0.012 -17.477 0.484 -22.594 -2 -3.395 -1.234 -4.801 -3.504 -5.063 -3.969 -0.621 -1.082 -0.906 -2.305 -0.906 -3.469 0 -2.379 1.23 -4.691 3.438 -5.969 1.594 -0.914 3.438 -1.164 5.219 -0.688 1.773 0.477 3.266 1.629 4.188 3.219 l 2.906 -1.5 -0.094 -0.094 c -1.352 -2.344 -3.508 -4.04 -6.125 -4.75 c -0.98 -0.262 -1.98 -0.375 -2.969 -0.344 z" fill="#f9f9f9"/><path d="m 10.539 26.504 c 0.461 14.13 10.461 20.496 37.461 18.496 l 0 3 -21 0 c -10.457 -1.57 -20.691 -10.113 -19.637 -22.406 0.895 -11.512 12.07 -17.406 18.656 -16.793 l 0 3.254 c -0.371 -0.105 -14.156 0.602 -15.48 14.449 z" fill="#f9f9f9"/></g></g></g><g><g transform="translate(0,-1004.3622)"><path d="m 1 1043.36 0 4 c 0 2.216 1.784 4 4 4 l 38 0 c 2.216 0 4 -1.784 4 -4 l 0 -4 c 0 2.216 -1.784 4 -4 4 l -38 0 c -2.216 0 -4 -1.784 -4 -4 z" opacity="0.1"/></g></g></svg>