<svg viewBox="0 0 48 48"><defs><linearGradient id="linearGradient3764" x1="1" x2="47" gradientUnits="userSpaceOnUse" gradientTransform="translate(-48.000001,0.00221467)"><stop stop-color="#1491a4" stop-opacity="1"/><stop offset="1" stop-color="#16a3b6" stop-opacity="1"/></linearGradient><clipPath id="clipPath-264558201"><g transform="translate(0,-1004.3622)"><rect rx="4" y="1005.36" x="1" height="46" width="46" fill="#1890d0"/></g></clipPath><clipPath id="clipPath-286752988"><g transform="translate(0,-1004.3622)"><rect rx="4" y="1005.36" x="1" height="46" width="46" fill="#1890d0"/></g></clipPath></defs><g><path d="m 1 43 l 0 0.25 c 0 2.216 1.784 4 4 4 l 38 0 c 2.216 0 4 -1.784 4 -4 l 0 -0.25 c 0 2.216 -1.784 4 -4 4 l -38 0 c -2.216 0 -4 -1.784 -4 -4 z m 0 0.5 l 0 0.5 c 0 2.216 1.784 4 4 4 l 38 0 c 2.216 0 4 -1.784 4 -4 l 0 -0.5 c 0 2.216 -1.784 4 -4 4 l -38 0 c -2.216 0 -4 -1.784 -4 -4 z" opacity="0.02"/><path d="m 1 43.25 l 0 0.25 c 0 2.216 1.784 4 4 4 l 38 0 c 2.216 0 4 -1.784 4 -4 l 0 -0.25 c 0 2.216 -1.784 4 -4 4 l -38 0 c -2.216 0 -4 -1.784 -4 -4 z" opacity="0.05"/><path d="m 1 43 l 0 0.25 c 0 2.216 1.784 4 4 4 l 38 0 c 2.216 0 4 -1.784 4 -4 l 0 -0.25 c 0 2.216 -1.784 4 -4 4 l -38 0 c -2.216 0 -4 -1.784 -4 -4 z" opacity="0.1"/></g><g><rect width="46" height="46" x="-47" y="1" rx="4" transform="matrix(0,-1,1,0,0,0)" fill="url(#linearGradient3764)" fill-opacity="1"/></g><g><g clip-path="url(#clipPath-264558201)"><g opacity="0.1"><!-- color: #16a3b6 --><g><path d="m 24.684 11.648 c -0.375 1.301 -0.641 2.172 -0.684 3.352 c -0.047 4.383 0.117 8.617 0 13 c -0.008 1.438 -1 1 -2 1 c -2 0 -3.715 0.426 -5.05 1.859 c -1.043 1.141 -1.52 2.945 -0.313 4.141 c 1.07 1.043 2.723 1.234 4.137 1 c 1.516 -0.34 2.922 -0.949 4.059 -1.996 c 0.883 -0.801 1.059 -1.988 1.094 -3.172 c 0.055 -1.641 -0.023 -3.289 0.098 -4.922 c -0.004 -1.195 -0.148 -3.03 1.305 -2.465 c 1.023 0.719 1.934 1.68 2.555 2.773 c 0.563 1.238 1 2.605 0.801 3.98 c -0.129 1.094 1.082 0.793 1.043 -0.074 c 0.664 -1.969 0.121 -4.211 -1.211 -5.77 c -1.375 -1.906 -3.391 -3.344 -4.324 -5.563 c -0.621 -1.34 0.863 -2.172 1.832 -1.086 c 1.01 0.984 2.035 2.043 2.371 3.461 c 0.375 0.977 0.453 2.031 0.359 3.066 c 0.539 1.383 1.25 -0.496 1.242 -1.184 c 0.32 -1.805 -0.352 -3.676 -1.535 -5.04 c -2.461 -2.457 -3.461 -5.01 -5.777 -6.363 m 0 0" fill-rule="evenodd" fill="#000"/></g></g></g></g><g><g clip-path="url(#clipPath-286752988)"><g transform="translate(0,-1)"><!-- color: #16a3b6 --><g><path d="m 24.684 11.648 c -0.375 1.301 -0.641 2.172 -0.684 3.352 c -0.047 4.383 0.117 8.617 0 13 c -0.008 1.438 -1 1 -2 1 c -2 0 -3.715 0.426 -5.05 1.859 c -1.043 1.141 -1.52 2.945 -0.313 4.141 c 1.07 1.043 2.723 1.234 4.137 1 c 1.516 -0.34 2.922 -0.949 4.059 -1.996 c 0.883 -0.801 1.059 -1.988 1.094 -3.172 c 0.055 -1.641 -0.023 -3.289 0.098 -4.922 c -0.004 -1.195 -0.148 -3.03 1.305 -2.465 c 1.023 0.719 1.934 1.68 2.555 2.773 c 0.563 1.238 1 2.605 0.801 3.98 c -0.129 1.094 1.082 0.793 1.043 -0.074 c 0.664 -1.969 0.121 -4.211 -1.211 -5.77 c -1.375 -1.906 -3.391 -3.344 -4.324 -5.563 c -0.621 -1.34 0.863 -2.172 1.832 -1.086 c 1.01 0.984 2.035 2.043 2.371 3.461 c 0.375 0.977 0.453 2.031 0.359 3.066 c 0.539 1.383 1.25 -0.496 1.242 -1.184 c 0.32 -1.805 -0.352 -3.676 -1.535 -5.04 c -2.461 -2.457 -3.461 -5.01 -5.777 -6.363 m 0 0" fill="#fff" fill-rule="evenodd"/></g></g></g></g><g><g transform="translate(0,-1004.3622)"><path d="m 1 1043.36 0 4 c 0 2.216 1.784 4 4 4 l 38 0 c 2.216 0 4 -1.784 4 -4 l 0 -4 c 0 2.216 -1.784 4 -4 4 l -38 0 c -2.216 0 -4 -1.784 -4 -4 z" opacity="0.1"/></g></g></svg>