<svg viewBox="0 0 48 48"><defs><linearGradient id="linearGradient3764" y1="47" x2="0" y2="1" gradientUnits="userSpaceOnUse"><stop stop-color="#e4e4e4" stop-opacity="1"/><stop offset="1" stop-color="#eee" stop-opacity="1"/></linearGradient><clipPath id="clipPath-670597906"><g transform="translate(0,-1004.3622)"><path d="m -24 13 c 0 1.105 -0.672 2 -1.5 2 -0.828 0 -1.5 -0.895 -1.5 -2 0 -1.105 0.672 -2 1.5 -2 0.828 0 1.5 0.895 1.5 2 z" transform="matrix(15.333333,0,0,11.5,414.99999,878.8622)" fill="#1890d0"/></g></clipPath><clipPath id="clipPath-679183793"><g transform="translate(0,-1004.3622)"><path d="m -24 13 c 0 1.105 -0.672 2 -1.5 2 -0.828 0 -1.5 -0.895 -1.5 -2 0 -1.105 0.672 -2 1.5 -2 0.828 0 1.5 0.895 1.5 2 z" transform="matrix(15.333333,0,0,11.5,414.99999,878.8622)" fill="#1890d0"/></g></clipPath></defs><g><path d="m 36.31 5 c 5.859 4.062 9.688 10.831 9.688 18.5 c 0 12.426 -10.07 22.5 -22.5 22.5 c -7.669 0 -14.438 -3.828 -18.5 -9.688 c 1.037 1.822 2.306 3.499 3.781 4.969 c 4.085 3.712 9.514 5.969 15.469 5.969 c 12.703 0 23 -10.298 23 -23 c 0 -5.954 -2.256 -11.384 -5.969 -15.469 c -1.469 -1.475 -3.147 -2.744 -4.969 -3.781 z m 4.969 3.781 c 3.854 4.113 6.219 9.637 6.219 15.719 c 0 12.703 -10.297 23 -23 23 c -6.081 0 -11.606 -2.364 -15.719 -6.219 c 4.16 4.144 9.883 6.719 16.219 6.719 c 12.703 0 23 -10.298 23 -23 c 0 -6.335 -2.575 -12.06 -6.719 -16.219 z" opacity="0.05"/><path d="m 41.28 8.781 c 3.712 4.085 5.969 9.514 5.969 15.469 c 0 12.703 -10.297 23 -23 23 c -5.954 0 -11.384 -2.256 -15.469 -5.969 c 4.113 3.854 9.637 6.219 15.719 6.219 c 12.703 0 23 -10.298 23 -23 c 0 -6.081 -2.364 -11.606 -6.219 -15.719 z" opacity="0.1"/><path d="m 31.25 2.375 c 8.615 3.154 14.75 11.417 14.75 21.13 c 0 12.426 -10.07 22.5 -22.5 22.5 c -9.708 0 -17.971 -6.135 -21.12 -14.75 a 23 23 0 0 0 44.875 -7 a 23 23 0 0 0 -16 -21.875 z" opacity="0.2"/></g><g><path d="m 24 1 c 12.703 0 23 10.297 23 23 c 0 12.703 -10.297 23 -23 23 -12.703 0 -23 -10.297 -23 -23 0 -12.703 10.297 -23 23 -23 z" fill="url(#linearGradient3764)" fill-opacity="1"/></g><g><g clip-path="url(#clipPath-670597906)"><g transform="translate(1,1)"><g opacity="0.1"><!-- color: #eeeeee --><path d="m 9 0 -9 0 0 48 9 0 z" fill="#000"/><path d="m 39 6.563 c 4.898 4.219 8 10.469 8 17.438 0 6.969 -3.102 13.219 -8 17.438 z m 0 0" fill="#000"/><path d="m 39 0 0 15 9 0 c 0 -2 0 -14 0 -15 -2 0 -8.535 0 -9 0 z" fill="#000"/><path d="m 39 15 0 9 9 0 c 0 -3.199 0 -8 0 -9 z" fill="#000"/><path d="m 39 24 0 9 9 0 0 -9 z" fill="#000"/><path d="m 39 33 0 15 9 0 0 -15 z" fill="#000"/><path d="m 23.13 26.688 -3.801 -4.578 -0.457 -4.68 5.488 -1.508 3.617 1.105 l 1.023 2.973 l -0.742 1.754 -4.422 4.98 z m 0 0" fill-opacity="0.941" fill="#000"/><path d="m 14 33 20 0 0 -1 c -0.523 -2.309 -3.207 -5.504 -6.551 -6.871 l -2.184 2.121 -0.691 -0.457 -1.918 -0.043 -0.613 0.707 -2.32 -2.301 c -2.559 1.125 -5.195 4.133 -5.723 6.844 z m 0 0" fill="#000"/><path d="m 23.574 14.797 0.004 0 c 2.219 0 4.02 2.293 4.02 5.121 l 0 0.004 c 0 2.828 -1.801 5.117 -4.02 5.117 l -0.004 0 c -2.223 0 -4.02 -2.289 -4.02 -5.117 l 0 -0.004 c 0 -2.828 1.801 -5.121 4.02 -5.121 z m 0 0" fill="#000"/><path d="m 26.375 23.879 c 0.43 -0.422 1.504 -1.293 1.625 -1.879 l 0.801 -2 -0.809 -1.383 -6.406 -2.383 -1.043 0.883 -1.727 2.25 0.426 2.535 0.223 0.648 1.305 1.324 z m 0 0" fill="#000"/><path d="m 19.5 22.566 0 -3.133 c 0.32 -1.367 1.645 -2.75 2.301 -2.734 1.129 0.145 1.918 1.141 2.59 2.109 0.672 0.801 3.059 0.688 3.609 -0.078 0 1.168 0 2.102 0 3.27 0.629 -0.242 0.867 -1.195 1 -2 0 -9.156 -11 -9.293 -11 -0.566 0.094 1.086 0.867 2.617 1.5 3.133 z m 0 0" fill="#000"/><path d="m 23.578 26.766 2.797 -2.898 1.398 1.449 -2.801 2.898 z m 0 0" fill="#000"/><path d="m 20.781 23.871 2.797 2.898 -1.398 1.449 -2.797 -2.902 z m 0 0" fill="#000"/></g></g></g></g><g><g clip-path="url(#clipPath-679183793)"><!-- color: #eeeeee --><path d="m 9 0 -9 0 0 48 9 0 z" fill="#47a6eb"/><path d="m 39 6.563 c 4.898 4.219 8 10.469 8 17.438 0 6.969 -3.102 13.219 -8 17.438 z m 0 0" fill="#5c4f3a"/><path d="m 39 0 0 15 9 0 c 0 -2 0 -14 0 -15 -2 0 -8.535 0 -9 0 z" fill="#f8e87d"/><path d="m 39 15 0 9 9 0 c 0 -3.199 0 -8 0 -9 z" fill="#59e394"/><path d="m 39 24 0 9 9 0 0 -9 z" fill="#38c7d9"/><path d="m 39 33 0 15 9 0 0 -15 z" fill="#ee6682"/><path d="m 23.13 26.688 -3.801 -4.578 -0.457 -4.68 5.488 -1.508 3.617 1.105 l 1.023 2.973 l -0.742 1.754 -4.422 4.98 z m 0 0" fill="#cf8f91" fill-opacity="0.941"/><path d="m 14 33 20 0 0 -1 c -0.523 -2.309 -3.207 -5.504 -6.551 -6.871 l -2.184 2.121 -0.691 -0.457 -1.918 -0.043 -0.613 0.707 -2.32 -2.301 c -2.559 1.125 -5.195 4.133 -5.723 6.844 z m 0 0" fill="#cf352b"/><path d="m 23.574 14.797 0.004 0 c 2.219 0 4.02 2.293 4.02 5.121 l 0 0.004 c 0 2.828 -1.801 5.117 -4.02 5.117 l -0.004 0 c -2.223 0 -4.02 -2.289 -4.02 -5.117 l 0 -0.004 c 0 -2.828 1.801 -5.121 4.02 -5.121 z m 0 0" fill="#fcc"/><path d="m 26.375 23.879 c 0.43 -0.422 1.504 -1.293 1.625 -1.879 l 0.801 -2 -0.809 -1.383 -6.406 -2.383 -1.043 0.883 -1.727 2.25 0.426 2.535 0.223 0.648 1.305 1.324 z m 0 0" fill="#fcc"/><path d="m 19.5 22.566 0 -3.133 c 0.32 -1.367 1.645 -2.75 2.301 -2.734 1.129 0.145 1.918 1.141 2.59 2.109 0.672 0.801 3.059 0.688 3.609 -0.078 0 1.168 0 2.102 0 3.27 0.629 -0.242 0.867 -1.195 1 -2 0 -9.156 -11 -9.293 -11 -0.566 0.094 1.086 0.867 2.617 1.5 3.133 z m 0 0" fill="#d1382b"/><path d="m 23.578 26.766 2.797 -2.898 1.398 1.449 -2.801 2.898 z m 0 0" fill="#b3d4cf"/><path d="m 20.781 23.871 2.797 2.898 -1.398 1.449 -2.797 -2.902 z m 0 0" fill="#b3d4cf"/></g></g><g><path d="m 40.03 7.531 c 3.712 4.084 5.969 9.514 5.969 15.469 0 12.703 -10.297 23 -23 23 c -5.954 0 -11.384 -2.256 -15.469 -5.969 4.178 4.291 10.01 6.969 16.469 6.969 c 12.703 0 23 -10.298 23 -23 0 -6.462 -2.677 -12.291 -6.969 -16.469 z" opacity="0.1"/></g></svg>