<svg viewBox="0 0 48 48"><defs><linearGradient id="linearGradient3764" x1="1" x2="47" gradientUnits="userSpaceOnUse" gradientTransform="translate(-48.000001,0.00221467)"><stop stop-color="#80be4e" stop-opacity="1"/><stop offset="1" stop-color="#8ac35c" stop-opacity="1"/></linearGradient><clipPath id="clipPath-943694159"><g transform="translate(0,-1004.3622)"><rect rx="4" y="1005.36" x="1" height="46" width="46" fill="#1890d0"/></g></clipPath><clipPath id="clipPath-956560619"><g transform="translate(0,-1004.3622)"><rect rx="4" y="1005.36" x="1" height="46" width="46" fill="#1890d0"/></g></clipPath></defs><g><path d="m 1 43 l 0 0.25 c 0 2.216 1.784 4 4 4 l 38 0 c 2.216 0 4 -1.784 4 -4 l 0 -0.25 c 0 2.216 -1.784 4 -4 4 l -38 0 c -2.216 0 -4 -1.784 -4 -4 z m 0 0.5 l 0 0.5 c 0 2.216 1.784 4 4 4 l 38 0 c 2.216 0 4 -1.784 4 -4 l 0 -0.5 c 0 2.216 -1.784 4 -4 4 l -38 0 c -2.216 0 -4 -1.784 -4 -4 z" opacity="0.02"/><path d="m 1 43.25 l 0 0.25 c 0 2.216 1.784 4 4 4 l 38 0 c 2.216 0 4 -1.784 4 -4 l 0 -0.25 c 0 2.216 -1.784 4 -4 4 l -38 0 c -2.216 0 -4 -1.784 -4 -4 z" opacity="0.05"/><path d="m 1 43 l 0 0.25 c 0 2.216 1.784 4 4 4 l 38 0 c 2.216 0 4 -1.784 4 -4 l 0 -0.25 c 0 2.216 -1.784 4 -4 4 l -38 0 c -2.216 0 -4 -1.784 -4 -4 z" opacity="0.1"/></g><g><rect width="46" height="46" x="-47" y="1" rx="4" transform="matrix(0,-1,1,0,0,0)" fill="url(#linearGradient3764)" fill-opacity="1"/></g><g><g clip-path="url(#clipPath-943694159)"><g opacity="0.1"><!-- color: #8ac35c --><g><path d="m 33.875 9.813 c -0.504 0.027 -1.277 0.168 -2.531 0.406 -2.875 0.547 -3.125 0.656 -3.125 1.25 0 1.301 0.984 4.125 3.25 9.313 1.41 3.234 2.055 5.277 1.906 5.969 -1.852 4.48 -6.328 5.852 -9.813 4.156 c -2.531 -1.238 -3.758 -3.078 -5.844 -8.719 -1.684 -4.551 -3.27 -7.828 -3.938 -8.188 c -0.766 -0.41 -5.211 0.156 -6.875 0.875 -1 0.434 -0.984 0.453 -0.375 2.969 c 0.723 2.988 1.918 6.477 4.469 12.969 1.332 3.387 2.691 6.938 3.03 7.906 1.078 3.078 2.65 9.02 2.58 9.281 2.389 0 8.04 0 10.878 0 -1.051 -1.84 -2.911 -6.262 -3.833 -8.938 l -0.688 -1.969 c 6.508 0.434 10.375 -1.641 14.188 -5.844 0.082 0 0.73 0.133 1.438 0.281 3.277 0.545 5.734 0.954 9.406 1.055 0 -1.551 0 -3.343 0 -5.193 l -2.125 -0.238 c -1.223 -0.145 -2.609 -0.871 -3.406 -1.781 -0.887 -1.01 -2.254 -3.563 -3.563 -6.563 -2.184 -5.01 -3.039 -6.867 -3.625 -7.938 -0.449 -0.82 -0.563 -1.109 -1.406 -1.063 z" fill="#000"/></g></g></g></g><g><g clip-path="url(#clipPath-956560619)"><g transform="translate(0,-1)"><!-- color: #8ac35c --><g><path d="m 33.875 9.813 c -0.504 0.027 -1.277 0.168 -2.531 0.406 -2.875 0.547 -3.125 0.656 -3.125 1.25 0 1.301 0.984 4.125 3.25 9.313 1.41 3.234 2.055 5.277 1.906 5.969 -1.852 4.48 -6.328 5.852 -9.813 4.156 c -2.531 -1.238 -3.758 -3.078 -5.844 -8.719 -1.684 -4.551 -3.27 -7.828 -3.938 -8.188 c -0.766 -0.41 -5.211 0.156 -6.875 0.875 -1 0.434 -0.984 0.453 -0.375 2.969 c 0.723 2.988 1.918 6.477 4.469 12.969 1.332 3.387 2.691 6.938 3.03 7.906 1.078 3.078 2.65 9.02 2.58 9.281 2.389 0 8.04 0 10.878 0 -1.051 -1.84 -2.911 -6.262 -3.833 -8.938 l -0.688 -1.969 c 6.508 0.434 10.375 -1.641 14.188 -5.844 0.082 0 0.73 0.133 1.438 0.281 3.277 0.545 5.734 0.954 9.406 1.055 0 -1.551 0 -3.343 0 -5.193 l -2.125 -0.238 c -1.223 -0.145 -2.609 -0.871 -3.406 -1.781 -0.887 -1.01 -2.254 -3.563 -3.563 -6.563 -2.184 -5.01 -3.039 -6.867 -3.625 -7.938 -0.449 -0.82 -0.563 -1.109 -1.406 -1.063 z" fill="#f8f8f8"/></g></g></g></g><g><g transform="translate(0,-1004.3622)"><path d="m 1 1043.36 0 4 c 0 2.216 1.784 4 4 4 l 38 0 c 2.216 0 4 -1.784 4 -4 l 0 -4 c 0 2.216 -1.784 4 -4 4 l -38 0 c -2.216 0 -4 -1.784 -4 -4 z" opacity="0.1"/></g></g></svg>