<svg viewBox="0 0 48 48"><defs><linearGradient id="linearGradient3764" x1="1" x2="47" gradientUnits="userSpaceOnUse" gradientTransform="translate(-48.000001,0.00221467)"><stop stop-color="#d66032" stop-opacity="1"/><stop offset="1" stop-color="#d96b42" stop-opacity="1"/></linearGradient><clipPath id="clipPath-981567754"><g transform="translate(0,-1004.3622)"><rect rx="4" y="1005.36" x="1" height="46" width="46" fill="#1890d0"/></g></clipPath><clipPath id="clipPath-994464450"><g transform="translate(0,-1004.3622)"><rect rx="4" y="1005.36" x="1" height="46" width="46" fill="#1890d0"/></g></clipPath></defs><g><path d="m 1 43 l 0 0.25 c 0 2.216 1.784 4 4 4 l 38 0 c 2.216 0 4 -1.784 4 -4 l 0 -0.25 c 0 2.216 -1.784 4 -4 4 l -38 0 c -2.216 0 -4 -1.784 -4 -4 z m 0 0.5 l 0 0.5 c 0 2.216 1.784 4 4 4 l 38 0 c 2.216 0 4 -1.784 4 -4 l 0 -0.5 c 0 2.216 -1.784 4 -4 4 l -38 0 c -2.216 0 -4 -1.784 -4 -4 z" opacity="0.02"/><path d="m 1 43.25 l 0 0.25 c 0 2.216 1.784 4 4 4 l 38 0 c 2.216 0 4 -1.784 4 -4 l 0 -0.25 c 0 2.216 -1.784 4 -4 4 l -38 0 c -2.216 0 -4 -1.784 -4 -4 z" opacity="0.05"/><path d="m 1 43 l 0 0.25 c 0 2.216 1.784 4 4 4 l 38 0 c 2.216 0 4 -1.784 4 -4 l 0 -0.25 c 0 2.216 -1.784 4 -4 4 l -38 0 c -2.216 0 -4 -1.784 -4 -4 z" opacity="0.1"/></g><g><rect width="46" height="46" x="-47" y="1" rx="4" transform="matrix(0,-1,1,0,0,0)" fill="url(#linearGradient3764)" fill-opacity="1"/></g><g><g clip-path="url(#clipPath-981567754)"><g opacity="0.1"><!-- color: #d96b42 --><g><path d="m 23.41 36.887 c -0.043 -0.063 -0.18 -0.074 -0.305 -0.027 c -0.527 0.195 -3.422 -2.934 -5.34 -5.773 c -1.379 -2.043 -3.465 -6.07 -4.07 -7.859 c -0.934 -2.754 -0.93 -4.508 0.016 -6.375 c 0.547 -1.078 1.93 -2.453 2.918 -2.902 c 2.113 -0.961 8.367 -1.266 11.672 -0.57 c 3.211 0.676 5.066 1.949 6.191 4.254 c 0.457 0.938 0.512 1.215 0.508 2.512 c -0.008 1.246 -0.098 1.723 -0.633 3.242 c -0.898 2.574 -3.039 6.66 -4.523 8.645 c -1.742 2.32 -3.566 4.355 -4.199 4.68 c -0.531 0.273 -2.094 0.395 -2.234 0.176 m 0 0" fill="#000"/></g></g></g></g><g><g clip-path="url(#clipPath-994464450)"><g transform="translate(0,-1)"><!-- color: #d96b42 --><g><path d="m 23.41 36.887 c -0.043 -0.063 -0.18 -0.074 -0.305 -0.027 c -0.527 0.195 -3.422 -2.934 -5.34 -5.773 c -1.379 -2.043 -3.465 -6.07 -4.07 -7.859 c -0.934 -2.754 -0.93 -4.508 0.016 -6.375 c 0.547 -1.078 1.93 -2.453 2.918 -2.902 c 2.113 -0.961 8.367 -1.266 11.672 -0.57 c 3.211 0.676 5.066 1.949 6.191 4.254 c 0.457 0.938 0.512 1.215 0.508 2.512 c -0.008 1.246 -0.098 1.723 -0.633 3.242 c -0.898 2.574 -3.039 6.66 -4.523 8.645 c -1.742 2.32 -3.566 4.355 -4.199 4.68 c -0.531 0.273 -2.094 0.395 -2.234 0.176 m 0 0" fill="#ffece5"/></g></g></g></g><g><g transform="translate(0,-1004.3622)"><path d="m 1 1043.36 0 4 c 0 2.216 1.784 4 4 4 l 38 0 c 2.216 0 4 -1.784 4 -4 l 0 -4 c 0 2.216 -1.784 4 -4 4 l -38 0 c -2.216 0 -4 -1.784 -4 -4 z" opacity="0.1"/></g></g></svg>