<svg viewBox="0 0 48 48"><defs><linearGradient id="linearGradient3764" x1="1" x2="47" gradientUnits="userSpaceOnUse" gradientTransform="translate(-48.000001,0.00221467)"><stop stop-color="#7d84cb" stop-opacity="1"/><stop offset="1" stop-color="#8c93d1" stop-opacity="1"/></linearGradient><clipPath id="clipPath-225623342"><g transform="translate(0,-1004.3622)"><rect rx="4" y="1005.36" x="1" height="46" width="46" fill="#1890d0"/></g></clipPath><clipPath id="clipPath-238830705"><g transform="translate(0,-1004.3622)"><rect rx="4" y="1005.36" x="1" height="46" width="46" fill="#1890d0"/></g></clipPath></defs><g><path d="m 1 43 l 0 0.25 c 0 2.216 1.784 4 4 4 l 38 0 c 2.216 0 4 -1.784 4 -4 l 0 -0.25 c 0 2.216 -1.784 4 -4 4 l -38 0 c -2.216 0 -4 -1.784 -4 -4 z m 0 0.5 l 0 0.5 c 0 2.216 1.784 4 4 4 l 38 0 c 2.216 0 4 -1.784 4 -4 l 0 -0.5 c 0 2.216 -1.784 4 -4 4 l -38 0 c -2.216 0 -4 -1.784 -4 -4 z" opacity="0.02"/><path d="m 1 43.25 l 0 0.25 c 0 2.216 1.784 4 4 4 l 38 0 c 2.216 0 4 -1.784 4 -4 l 0 -0.25 c 0 2.216 -1.784 4 -4 4 l -38 0 c -2.216 0 -4 -1.784 -4 -4 z" opacity="0.05"/><path d="m 1 43 l 0 0.25 c 0 2.216 1.784 4 4 4 l 38 0 c 2.216 0 4 -1.784 4 -4 l 0 -0.25 c 0 2.216 -1.784 4 -4 4 l -38 0 c -2.216 0 -4 -1.784 -4 -4 z" opacity="0.1"/></g><g><rect width="46" height="46" x="-47" y="1" rx="4" transform="matrix(0,-1,1,0,0,0)" fill="url(#linearGradient3764)" fill-opacity="1"/></g><g><g clip-path="url(#clipPath-225623342)"><g opacity="0.1"><!-- color: #8c93d1 --><g><path d="m 19 13 l -7 7 l 0 13 c 0 1.109 0.891 2 2 2 l 16 0 c 1.109 0 2 -0.891 2 -2 l 0 -20 m -13 0" fill="#000"/><path d="m 35 14.996 c 0.551 0 1 0.449 1 1 l 0 18 c 0 0.555 -0.449 1 -1 1 c -0.551 0 -1 -0.445 -1 -1 l 0 -18 c 0 -0.551 0.449 -1 1 -1 m 0 0" fill="#000"/><path d="m 15.5 20.996 l 5 0 c 0.277 0 0.5 0.227 0.5 0.5 c 0 0.277 -0.223 0.5 -0.5 0.5 l -5 0 c -0.277 0 -0.5 -0.223 -0.5 -0.5 c 0 -0.273 0.223 -0.5 0.5 -0.5 m 0 0" fill="#000"/><path d="m 21 16.496 l 0 5 c 0 0.277 -0.223 0.5 -0.5 0.5 c -0.277 0 -0.5 -0.223 -0.5 -0.5 l 0 -5 c 0 -0.273 0.223 -0.5 0.5 -0.5 c 0.277 0 0.5 0.227 0.5 0.5 m 0 0" fill="#000"/><path d="m 21 30.996 l 6 0 l 0 1 l -6 0 m 0 -1" fill="#000"/><path d="m 21 28.996 l 8 0 l 0 1 l -8 0 m 0 -1" fill="#000"/><path d="m 32 32 c 0 2 2 2 2 0 l 1 3 l -5 0 m 2 -3" fill="#000"/></g></g></g></g><g><g clip-path="url(#clipPath-238830705)"><g transform="translate(0,-1)"><!-- color: #8c93d1 --><g><path d="m 19 13 l -7 7 l 0 13 c 0 1.109 0.891 2 2 2 l 16 0 c 1.109 0 2 -0.891 2 -2 l 0 -20 m -13 0" fill="#546195"/><path d="m 35 14.996 c 0.551 0 1 0.449 1 1 l 0 18 c 0 0.555 -0.449 1 -1 1 c -0.551 0 -1 -0.445 -1 -1 l 0 -18 c 0 -0.551 0.449 -1 1 -1 m 0 0" fill="#546195"/><path d="m 15.5 20.996 l 5 0 c 0.277 0 0.5 0.227 0.5 0.5 c 0 0.277 -0.223 0.5 -0.5 0.5 l -5 0 c -0.277 0 -0.5 -0.223 -0.5 -0.5 c 0 -0.273 0.223 -0.5 0.5 -0.5 m 0 0" fill="#f9f9f9"/><path d="m 21 16.496 l 0 5 c 0 0.277 -0.223 0.5 -0.5 0.5 c -0.277 0 -0.5 -0.223 -0.5 -0.5 l 0 -5 c 0 -0.273 0.223 -0.5 0.5 -0.5 c 0.277 0 0.5 0.227 0.5 0.5 m 0 0" fill="#f9f9f9"/><path d="m 21 30.996 l 6 0 l 0 1 l -6 0 m 0 -1" fill="#f9f9f9"/><path d="m 21 28.996 l 8 0 l 0 1 l -8 0 m 0 -1" fill="#f9f9f9"/><path d="m 32 32 c 0 2 2 2 2 0 l 1 3 l -5 0 m 2 -3" fill="#546195"/></g></g></g></g><g><g transform="translate(0,-1004.3622)"><path d="m 1 1043.36 0 4 c 0 2.216 1.784 4 4 4 l 38 0 c 2.216 0 4 -1.784 4 -4 l 0 -4 c 0 2.216 -1.784 4 -4 4 l -38 0 c -2.216 0 -4 -1.784 -4 -4 z" opacity="0.1"/></g></g></svg>