<svg viewBox="0 0 48 48"><defs><linearGradient id="linearGradient3764" x1="1" x2="47" gradientUnits="userSpaceOnUse" gradientTransform="translate(-48.000001,0.00221467)"><stop stop-color="#8db949" stop-opacity="1"/><stop offset="1" stop-color="#97be57" stop-opacity="1"/></linearGradient><clipPath id="clipPath-426047024"><g transform="translate(0,-1004.3622)"><rect rx="4" y="1005.36" x="1" height="46" width="46" fill="#1890d0"/></g></clipPath><clipPath id="clipPath-439227822"><g transform="translate(0,-1004.3622)"><rect rx="4" y="1005.36" x="1" height="46" width="46" fill="#1890d0"/></g></clipPath></defs><g><path d="m 1 43 l 0 0.25 c 0 2.216 1.784 4 4 4 l 38 0 c 2.216 0 4 -1.784 4 -4 l 0 -0.25 c 0 2.216 -1.784 4 -4 4 l -38 0 c -2.216 0 -4 -1.784 -4 -4 z m 0 0.5 l 0 0.5 c 0 2.216 1.784 4 4 4 l 38 0 c 2.216 0 4 -1.784 4 -4 l 0 -0.5 c 0 2.216 -1.784 4 -4 4 l -38 0 c -2.216 0 -4 -1.784 -4 -4 z" opacity="0.02"/><path d="m 1 43.25 l 0 0.25 c 0 2.216 1.784 4 4 4 l 38 0 c 2.216 0 4 -1.784 4 -4 l 0 -0.25 c 0 2.216 -1.784 4 -4 4 l -38 0 c -2.216 0 -4 -1.784 -4 -4 z" opacity="0.05"/><path d="m 1 43 l 0 0.25 c 0 2.216 1.784 4 4 4 l 38 0 c 2.216 0 4 -1.784 4 -4 l 0 -0.25 c 0 2.216 -1.784 4 -4 4 l -38 0 c -2.216 0 -4 -1.784 -4 -4 z" opacity="0.1"/></g><g><rect width="46" height="46" x="-47" y="1" rx="4" transform="matrix(0,-1,1,0,0,0)" fill="url(#linearGradient3764)" fill-opacity="1"/></g><g><g clip-path="url(#clipPath-426047024)"><g opacity="0.1"><!-- color: #97be57 --><g><path d="m 20.06 14 c -0.422 0 -0.824 0.074 -1.219 0.156 c -1.309 0.188 -2.883 0.633 -4.531 1.688 c -4.078 2.613 -5.82 14.734 -5.184 15.867 c 0.633 1.133 6.348 -1.141 9.34 -5.496 c 0.227 -0.328 0.336 -0.859 0.531 -1.219 l 10 0 c 0.188 0.34 0.316 0.902 0.531 1.219 c 2.992 4.355 8.707 6.629 9.34 5.496 c 0.637 -1.133 -1.105 -13.254 -5.184 -15.867 c -1.176 -0.707 -2.414 -1.23 -3.594 -1.531 c -0.563 -0.168 -1.137 -0.313 -1.75 -0.313 m -11.344 3 l 1 0 l 0 1.996 l 2 0 l 0 1 l -2 0 l 0 2 l -1 0 l 0 -2 l -2 0 l 0 -1 l 2 0 m 12.5 -1.996 c 0.551 0 1 0.445 1 1 c 0 0.551 -0.449 0.996 -1 0.996 c -0.555 0 -1 -0.445 -1 -0.996 c 0 -0.555 0.445 -1 1 -1 m 3 1.496 c 0.551 0 1 0.449 1 1 c 0 0.555 -0.449 1 -1 1 c -0.555 0 -1 -0.445 -1 -1 c 0 -0.551 0.445 -1 1 -1 m -4.5 1 c 0.551 0 1 0.449 1 1 c 0 0.555 -0.449 1 -1 1 c -0.555 0 -1 -0.445 -1 -1 c 0 -0.551 0.445 -1 1 -1 m 3 1.5 c 0.551 0 1 0.449 1 1 c 0 0.551 -0.449 1 -1 1 c -0.555 0 -1 -0.449 -1 -1 c 0 -0.551 0.445 -1 1 -1 m 0 0" fill="#000"/></g></g></g></g><g><g clip-path="url(#clipPath-439227822)"><g transform="translate(0,-1)"><!-- color: #97be57 --><g><path d="m 20.06 14 c -0.422 0 -0.824 0.074 -1.219 0.156 c -1.309 0.188 -2.883 0.633 -4.531 1.688 c -4.078 2.613 -5.82 14.734 -5.184 15.867 c 0.633 1.133 6.348 -1.141 9.34 -5.496 c 0.227 -0.328 0.336 -0.859 0.531 -1.219 l 10 0 c 0.188 0.34 0.316 0.902 0.531 1.219 c 2.992 4.355 8.707 6.629 9.34 5.496 c 0.637 -1.133 -1.105 -13.254 -5.184 -15.867 c -1.176 -0.707 -2.414 -1.23 -3.594 -1.531 c -0.563 -0.168 -1.137 -0.313 -1.75 -0.313 m -11.344 3 l 1 0 l 0 1.996 l 2 0 l 0 1 l -2 0 l 0 2 l -1 0 l 0 -2 l -2 0 l 0 -1 l 2 0 m 12.5 -1.996 c 0.551 0 1 0.445 1 1 c 0 0.551 -0.449 0.996 -1 0.996 c -0.555 0 -1 -0.445 -1 -0.996 c 0 -0.555 0.445 -1 1 -1 m 3 1.496 c 0.551 0 1 0.449 1 1 c 0 0.555 -0.449 1 -1 1 c -0.555 0 -1 -0.445 -1 -1 c 0 -0.551 0.445 -1 1 -1 m -4.5 1 c 0.551 0 1 0.449 1 1 c 0 0.555 -0.449 1 -1 1 c -0.555 0 -1 -0.445 -1 -1 c 0 -0.551 0.445 -1 1 -1 m 3 1.5 c 0.551 0 1 0.449 1 1 c 0 0.551 -0.449 1 -1 1 c -0.555 0 -1 -0.449 -1 -1 c 0 -0.551 0.445 -1 1 -1 m 0 0" fill="#f9f9f9"/></g></g></g></g><g><g transform="translate(0,-1004.3622)"><path d="m 1 1043.36 0 4 c 0 2.216 1.784 4 4 4 l 38 0 c 2.216 0 4 -1.784 4 -4 l 0 -4 c 0 2.216 -1.784 4 -4 4 l -38 0 c -2.216 0 -4 -1.784 -4 -4 z" opacity="0.1"/></g></g></svg>