<svg viewBox="0 0 48 48"><defs><linearGradient id="linearGradient3764" x1="1" x2="47" gradientUnits="userSpaceOnUse" gradientTransform="translate(-48.000001,0.00221467)"><stop stop-color="#00a0dc" stop-opacity="1"/><stop offset="1" stop-color="#00adef" stop-opacity="1"/></linearGradient><clipPath id="clipPath-811945215"><g transform="translate(0,-1004.3622)"><rect rx="4" y="1005.36" x="1" height="46" width="46" fill="#1890d0"/></g></clipPath><clipPath id="clipPath-841365883"><g transform="translate(0,-1004.3622)"><rect rx="4" y="1005.36" x="1" height="46" width="46" fill="#1890d0"/></g></clipPath></defs><g><path d="m 1 43 l 0 0.25 c 0 2.216 1.784 4 4 4 l 38 0 c 2.216 0 4 -1.784 4 -4 l 0 -0.25 c 0 2.216 -1.784 4 -4 4 l -38 0 c -2.216 0 -4 -1.784 -4 -4 z m 0 0.5 l 0 0.5 c 0 2.216 1.784 4 4 4 l 38 0 c 2.216 0 4 -1.784 4 -4 l 0 -0.5 c 0 2.216 -1.784 4 -4 4 l -38 0 c -2.216 0 -4 -1.784 -4 -4 z" opacity="0.02"/><path d="m 1 43.25 l 0 0.25 c 0 2.216 1.784 4 4 4 l 38 0 c 2.216 0 4 -1.784 4 -4 l 0 -0.25 c 0 2.216 -1.784 4 -4 4 l -38 0 c -2.216 0 -4 -1.784 -4 -4 z" opacity="0.05"/><path d="m 1 43 l 0 0.25 c 0 2.216 1.784 4 4 4 l 38 0 c 2.216 0 4 -1.784 4 -4 l 0 -0.25 c 0 2.216 -1.784 4 -4 4 l -38 0 c -2.216 0 -4 -1.784 -4 -4 z" opacity="0.1"/></g><g><rect width="46" height="46" x="-47" y="1" rx="4" transform="matrix(0,-1,1,0,0,0)" fill="url(#linearGradient3764)" fill-opacity="1"/></g><g><g clip-path="url(#clipPath-811945215)"><g opacity="0.1"><!-- color: #00adef --><g><path d="m 34 18 l -20 0 l 10 17 m 1 -5 l 0 -5.5 l 5 -3 m -1 -1.5 l -5 3 l -5 -3 m -1 1.5 l 5 3 l 0 5.5 m -5 -8.5" fill="#000"/><path d="m 24 8.5 l -14 7.5 l 0 16 l 14 7.5 l 14 -7.5 l 0 -16 m -6.5 11 l -1 1.5 l 4.75 2.75 l -11.25 6.25 l -11.25 -6.25 l 4.75 -2.75 l -1 -1.5 l -4.5 3 l 0 -13 l 11 -6 l 0 5 l 2 0 l 0 -5 l 11 6 l 0 13 m -4.5 -3" fill="#000"/></g></g></g></g><g><g clip-path="url(#clipPath-841365883)"><g transform="translate(0,-1)"><!-- color: #00adef --><g><path d="m 34 18 l -20 0 l 10 17 m 1 -5 l 0 -5.5 l 5 -3 m -1 -1.5 l -5 3 l -5 -3 m -1 1.5 l 5 3 l 0 5.5 m -5 -8.5" fill="#f9f9f9"/><path d="m 24 8.5 l -14 7.5 l 0 16 l 14 7.5 l 14 -7.5 l 0 -16 m -6.5 11 l -1 1.5 l 4.75 2.75 l -11.25 6.25 l -11.25 -6.25 l 4.75 -2.75 l -1 -1.5 l -4.5 3 l 0 -13 l 11 -6 l 0 5 l 2 0 l 0 -5 l 11 6 l 0 13 m -4.5 -3" fill="#f9f9f9"/></g></g></g></g><g><g transform="translate(0,-1004.3622)"><path d="m 1 1043.36 0 4 c 0 2.216 1.784 4 4 4 l 38 0 c 2.216 0 4 -1.784 4 -4 l 0 -4 c 0 2.216 -1.784 4 -4 4 l -38 0 c -2.216 0 -4 -1.784 -4 -4 z" opacity="0.1"/></g></g></svg>