<svg viewBox="0 0 48 48"><defs><linearGradient id="linearGradient3764" x1="1" x2="47" gradientUnits="userSpaceOnUse" gradientTransform="translate(-48.000001,0.00221467)"><stop stop-color="#01b584" stop-opacity="1"/><stop offset="1" stop-color="#01c994" stop-opacity="1"/></linearGradient><clipPath id="clipPath-752898477"><g transform="translate(0,-1004.3622)"><rect rx="4" y="1005.36" x="1" height="46" width="46" fill="#1890d0"/></g></clipPath><clipPath id="clipPath-765871707"><g transform="translate(0,-1004.3622)"><rect rx="4" y="1005.36" x="1" height="46" width="46" fill="#1890d0"/></g></clipPath></defs><g><path d="m 1 43 l 0 0.25 c 0 2.216 1.784 4 4 4 l 38 0 c 2.216 0 4 -1.784 4 -4 l 0 -0.25 c 0 2.216 -1.784 4 -4 4 l -38 0 c -2.216 0 -4 -1.784 -4 -4 z m 0 0.5 l 0 0.5 c 0 2.216 1.784 4 4 4 l 38 0 c 2.216 0 4 -1.784 4 -4 l 0 -0.5 c 0 2.216 -1.784 4 -4 4 l -38 0 c -2.216 0 -4 -1.784 -4 -4 z" opacity="0.02"/><path d="m 1 43.25 l 0 0.25 c 0 2.216 1.784 4 4 4 l 38 0 c 2.216 0 4 -1.784 4 -4 l 0 -0.25 c 0 2.216 -1.784 4 -4 4 l -38 0 c -2.216 0 -4 -1.784 -4 -4 z" opacity="0.05"/><path d="m 1 43 l 0 0.25 c 0 2.216 1.784 4 4 4 l 38 0 c 2.216 0 4 -1.784 4 -4 l 0 -0.25 c 0 2.216 -1.784 4 -4 4 l -38 0 c -2.216 0 -4 -1.784 -4 -4 z" opacity="0.1"/></g><g><rect width="46" height="46" x="-47" y="1" rx="4" transform="matrix(0,-1,1,0,0,0)" fill="url(#linearGradient3764)" fill-opacity="1"/></g><g><g clip-path="url(#clipPath-752898477)"><g opacity="0.1"><!-- color: #01c994 --><g><path d="m 22.273 36.59 c 1.043 0.578 2.227 0.551 3.02 -0.105 c 3.188 -2.625 6.484 -7.05 7.418 -9.1 c 1.754 0.16 2.965 -0.25 2.965 -0.25 l -0.012 -3.238 c 0 0 -2.574 0.047 -3.063 0.055 c -3.734 0.051 -6.309 -4.277 -4.793 -7.934 c 1.055 -2.535 2.902 -0.711 3.23 0.078 c 0.332 0.789 0.258 2.898 -0.223 4.445 c 0.586 1.305 3.762 1.996 4.484 0.906 c 0.891 -2.395 1.281 -6.711 -1.027 -8.945 c -1.527 -1.477 -5.355 -2.227 -8.156 -0.543 c -2.801 1.68 -2.746 5.25 -2.527 7.04 c 0.219 1.785 0.824 5.566 4.559 7.668 c 0.332 0.367 -4.094 5.859 -4.34 5.617 c -5.492 -5.406 -6.973 -17.07 -6.973 -17.07 l -4.836 -0.051 c 0 0 2.637 16.961 10.273 21.426 m 0 0" fill="#000"/></g></g></g></g><g><g clip-path="url(#clipPath-765871707)"><g transform="translate(0,-1)"><!-- color: #01c994 --><g><path d="m 22.273 36.59 c 1.043 0.578 2.227 0.551 3.02 -0.105 c 3.188 -2.625 6.484 -7.05 7.418 -9.1 c 1.754 0.16 2.965 -0.25 2.965 -0.25 l -0.012 -3.238 c 0 0 -2.574 0.047 -3.063 0.055 c -3.734 0.051 -6.309 -4.277 -4.793 -7.934 c 1.055 -2.535 2.902 -0.711 3.23 0.078 c 0.332 0.789 0.258 2.898 -0.223 4.445 c 0.586 1.305 3.762 1.996 4.484 0.906 c 0.891 -2.395 1.281 -6.711 -1.027 -8.945 c -1.527 -1.477 -5.355 -2.227 -8.156 -0.543 c -2.801 1.68 -2.746 5.25 -2.527 7.04 c 0.219 1.785 0.824 5.566 4.559 7.668 c 0.332 0.367 -4.094 5.859 -4.34 5.617 c -5.492 -5.406 -6.973 -17.07 -6.973 -17.07 l -4.836 -0.051 c 0 0 2.637 16.961 10.273 21.426 m 0 0" fill="#fff"/></g></g></g></g><g><g transform="translate(0,-1004.3622)"><path d="m 1 1043.36 0 4 c 0 2.216 1.784 4 4 4 l 38 0 c 2.216 0 4 -1.784 4 -4 l 0 -4 c 0 2.216 -1.784 4 -4 4 l -38 0 c -2.216 0 -4 -1.784 -4 -4 z" opacity="0.1"/></g></g></svg>