<svg viewBox="0 0 48 48"><defs><linearGradient id="linearGradient3764" x1="1" x2="47" gradientUnits="userSpaceOnUse" gradientTransform="translate(-48.000001,0.00221467)"><stop stop-color="#4eaa2a" stop-opacity="1"/><stop offset="1" stop-color="#54b92e" stop-opacity="1"/></linearGradient><clipPath id="clipPath-537533319"><g transform="translate(0,-1004.3622)"><rect rx="4" y="1005.36" x="1" height="46" width="46" fill="#1890d0"/></g></clipPath><clipPath id="clipPath-550239618"><g transform="translate(0,-1004.3622)"><rect rx="4" y="1005.36" x="1" height="46" width="46" fill="#1890d0"/></g></clipPath></defs><g><path d="m 1 43 l 0 0.25 c 0 2.216 1.784 4 4 4 l 38 0 c 2.216 0 4 -1.784 4 -4 l 0 -0.25 c 0 2.216 -1.784 4 -4 4 l -38 0 c -2.216 0 -4 -1.784 -4 -4 z m 0 0.5 l 0 0.5 c 0 2.216 1.784 4 4 4 l 38 0 c 2.216 0 4 -1.784 4 -4 l 0 -0.5 c 0 2.216 -1.784 4 -4 4 l -38 0 c -2.216 0 -4 -1.784 -4 -4 z" opacity="0.02"/><path d="m 1 43.25 l 0 0.25 c 0 2.216 1.784 4 4 4 l 38 0 c 2.216 0 4 -1.784 4 -4 l 0 -0.25 c 0 2.216 -1.784 4 -4 4 l -38 0 c -2.216 0 -4 -1.784 -4 -4 z" opacity="0.05"/><path d="m 1 43 l 0 0.25 c 0 2.216 1.784 4 4 4 l 38 0 c 2.216 0 4 -1.784 4 -4 l 0 -0.25 c 0 2.216 -1.784 4 -4 4 l -38 0 c -2.216 0 -4 -1.784 -4 -4 z" opacity="0.1"/></g><g><rect width="46" height="46" x="-47" y="1" rx="4" transform="matrix(0,-1,1,0,0,0)" fill="url(#linearGradient3764)" fill-opacity="1"/></g><g><g clip-path="url(#clipPath-537533319)"><g opacity="0.1"><!-- color: #54b92e --><g><path d="m 45 0 c -3.863 9.07 -13.293 32.12 -18 34 -5 -6 -5 -23 -12.25 -22.625 -2.859 -0.117 -10.129 14.398 -14.75 27.625 0 1 0 6 0 7 4.332 -13.01 12.07 -32.24 14.875 -31.875 2.875 0.375 8.125 22.875 12.13 22.875 3.707 0 17.484 -23.926 21 -34 0 -1 0 -2 0 -3 -1 0 -2 0 -3 0 z" fill="#000"/></g></g></g></g><g><g clip-path="url(#clipPath-550239618)"><g transform="translate(0,-1)"><!-- color: #54b92e --><g><path d="m 45 0 c -3.863 9.07 -13.293 32.12 -18 34 -5 -6 -5 -23 -12.25 -22.625 -2.859 -0.117 -10.129 14.398 -14.75 27.625 0 1 0 6 0 7 4.332 -13.01 12.07 -32.24 14.875 -31.875 2.875 0.375 8.125 22.875 12.13 22.875 3.707 0 17.484 -23.926 21 -34 0 -1 0 -2 0 -3 -1 0 -2 0 -3 0 z" fill="#f8f8f8"/></g></g></g></g><g><g transform="translate(0,-1004.3622)"><path d="m 1 1043.36 0 4 c 0 2.216 1.784 4 4 4 l 38 0 c 2.216 0 4 -1.784 4 -4 l 0 -4 c 0 2.216 -1.784 4 -4 4 l -38 0 c -2.216 0 -4 -1.784 -4 -4 z" opacity="0.1"/></g></g></svg>