<svg viewBox="0 0 48 48"><defs><linearGradient id="linearGradient3764" y1="1" x2="0" y2="47" gradientUnits="userSpaceOnUse"><stop stop-color="#599ed9" stop-opacity="1"/><stop offset="1" stop-color="#4995d5" stop-opacity="1"/></linearGradient><clipPath id="clipPath-977018636"><g transform="translate(0,-1004.3622)"><path d="m 24 1005.37 c -1.045 0 -2.023 0.287 -2.856 0.784 l -15.339 8.708 c -0.017 0.013 -0.035 0.013 -0.052 0.021 -1.852 1.051 -2.847 3 -2.746 4.968 l 0 17.02 c -0.056 1.013 0.175 2.049 0.729 2.993 0.532 0.903 1.288 1.602 2.161 2.061 l 15.246 8.653 c 0.832 0.497 1.811 0.784 2.856 0.784 1.045 0 2.023 -0.287 2.856 -0.784 l 15.246 -8.653 c 0.873 -0.46 1.629 -1.158 2.161 -2.061 0.554 -0.944 0.785 -1.981 0.729 -2.993 l 0 -17.01 c 0.056 -1.012 -0.175 -2.052 -0.729 -2.993 -0.532 -0.906 -1.288 -1.604 -2.161 -2.064 l -15.246 -8.653 c -0.832 -0.497 -1.811 -0.784 -2.856 -0.784 z" fill="#1890d0"/></g></clipPath><clipPath id="clipPath-986102165"><g transform="translate(0,-1004.3622)"><path d="m 24 1005.37 c -1.045 0 -2.023 0.287 -2.856 0.784 l -15.339 8.708 c -0.017 0.013 -0.035 0.013 -0.052 0.021 -1.852 1.051 -2.847 3 -2.746 4.968 l 0 17.02 c -0.056 1.013 0.175 2.049 0.729 2.993 0.532 0.903 1.288 1.602 2.161 2.061 l 15.246 8.653 c 0.832 0.497 1.811 0.784 2.856 0.784 1.045 0 2.023 -0.287 2.856 -0.784 l 15.246 -8.653 c 0.873 -0.46 1.629 -1.158 2.161 -2.061 0.554 -0.944 0.785 -1.981 0.729 -2.993 l 0 -17.01 c 0.056 -1.012 -0.175 -2.052 -0.729 -2.993 -0.532 -0.906 -1.288 -1.604 -2.161 -2.064 l -15.246 -8.653 c -0.832 -0.497 -1.811 -0.784 -2.856 -0.784 z" fill="#1890d0"/></g></clipPath><filter id="filter-958549821"><feGaussianBlur stdDeviation="0.35"/></filter></defs><g><g transform="translate(0,-1004.3622)"><path d="m 45 1037.36 c 0.056 1.013 -0.196 2.056 -0.75 3 -0.532 0.903 -1.283 1.603 -2.156 2.063 l -15.25 8.656 c -0.832 0.497 -1.799 0.781 -2.844 0.781 -1.045 0 -2.01 -0.284 -2.844 -0.781 l -15.25 -8.656 c -0.873 -0.46 -1.625 -1.159 -2.156 -2.063 -0.416 -0.708 -0.677 -1.485 -0.75 -2.25 -0.004 0.932 0.242 1.884 0.75 2.75 0.532 0.903 1.283 1.603 2.156 2.063 l 15.25 8.656 c 0.832 0.497 1.799 0.781 2.844 0.781 1.045 0 2.01 -0.284 2.844 -0.781 l 15.25 -8.656 c 0.873 -0.46 1.625 -1.159 2.156 -2.063 0.554 -0.944 0.806 -1.987 0.75 -3 l 0 -0.5 z" opacity="0.05"/><path d="m 45 1036.86 c 0.015 0.263 -0.004 0.516 -0.031 0.781 -0.036 0.844 -0.259 1.685 -0.719 2.469 -0.532 0.903 -1.283 1.603 -2.156 2.063 l -15.25 8.656 c -0.832 0.497 -1.799 0.781 -2.844 0.781 -1.045 0 -2.01 -0.284 -2.844 -0.781 l -15.25 -8.656 c -0.873 -0.46 -1.625 -1.159 -2.156 -2.063 -0.414 -0.705 -0.621 -1.46 -0.688 -2.219 -0.014 -0.092 -0.054 -0.189 -0.063 -0.281 -0.004 0.932 0.242 1.884 0.75 2.75 0.532 0.903 1.283 1.603 2.156 2.063 l 15.25 8.656 c 0.832 0.497 1.799 0.781 2.844 0.781 1.045 0 2.01 -0.284 2.844 -0.781 l 15.25 -8.656 c 0.873 -0.46 1.625 -1.159 2.156 -2.063 0.554 -0.944 0.806 -1.987 0.75 -3 l 0 -0.5 z m -41.813 1.625 c 0.057 0.219 0.132 0.442 0.219 0.656 -0.088 -0.216 -0.16 -0.436 -0.219 -0.656 z m 0.219 0.656 c 0.099 0.243 0.206 0.484 0.344 0.719 -0.139 -0.236 -0.243 -0.472 -0.344 -0.719 z m 41.41 -0.656 c -0.059 0.221 -0.131 0.441 -0.219 0.656 0.087 -0.215 0.161 -0.437 0.219 -0.656 z m -0.219 0.656 c -0.101 0.246 -0.205 0.483 -0.344 0.719 0.138 -0.235 0.245 -0.476 0.344 -0.719 z" opacity="0.1"/><path d="m 3.03 1037.64 c 0.035 0.844 0.259 1.685 0.719 2.469 0.532 0.903 1.283 1.603 2.156 2.063 l 15.25 8.656 c 0.832 0.497 1.799 0.781 2.844 0.781 1.045 0 2.01 -0.284 2.844 -0.781 l 15.25 -8.656 c 0.873 -0.46 1.625 -1.159 2.156 -2.063 0.46 -0.784 0.683 -1.624 0.719 -2.469 -0.067 0.763 -0.303 1.511 -0.719 2.219 -0.532 0.903 -1.283 1.603 -2.156 2.063 l -15.25 8.656 c -0.832 0.497 -1.799 0.781 -2.844 0.781 -1.045 0 -2.01 -0.284 -2.844 -0.781 l -15.25 -8.656 c -0.873 -0.46 -1.625 -1.159 -2.156 -2.063 -0.416 -0.708 -0.651 -1.456 -0.719 -2.219 z" opacity="0.2"/></g></g><g><path d="m 24 46.996 c 1.045 0 2.023 -0.287 2.856 -0.784 l 15.339 -8.708 c 0.017 -0.013 0.035 -0.013 0.052 -0.021 1.852 -1.051 2.847 -3 2.746 -4.968 l 0 -17.02 c 0.056 -1.013 -0.175 -2.049 -0.729 -2.993 -0.532 -0.903 -1.288 -1.602 -2.161 -2.061 l -15.246 -8.653 c -0.832 -0.497 -1.811 -0.784 -2.856 -0.784 -1.045 0 -2.023 0.287 -2.856 0.784 l -15.246 8.653 c -0.873 0.46 -1.629 1.158 -2.161 2.061 -0.554 0.944 -0.785 1.981 -0.729 2.993 l 0 17.01 c -0.056 1.012 0.175 2.051 0.729 2.993 0.532 0.906 1.288 1.604 2.161 2.064 l 15.246 8.653 c 0.832 0.497 1.811 0.785 2.856 0.785 z" fill="url(#linearGradient3764)" fill-opacity="1"/></g><g><g clip-path="url(#clipPath-977018636)"><g opacity="0.25"><g transform="translate(0,1)"><g filter="url(#filter-958549821)"><!-- color: #599ed9 --><g><path d="m 18.13 15 c -0.363 0.035 -0.652 0.43 -0.418 0.887 c 1.039 2.164 1.656 3.707 2.73 6.086 c 0.191 -0.457 0.309 -0.773 0.598 -1.449 c -1.109 -2.262 -1.266 -3.219 -2.293 -5.145 c -0.164 -0.289 -0.398 -0.402 -0.617 -0.379 m 11.887 0.078 c -0.227 -0.012 -0.469 0.133 -0.617 0.488 c -1.355 3.141 -3.852 9.488 -4.965 12.04 c -0.633 1.328 0.5 1.863 0.93 1.129 c 1.438 -3.074 3.594 -8.961 5.164 -12.715 c 0.195 -0.5 -0.133 -0.922 -0.512 -0.941 m -6.867 4.055 c -0.227 -0.008 -0.453 0.133 -0.598 0.492 c -1.355 3.137 -3.871 9.504 -4.984 12.05 c -0.633 1.332 0.488 1.719 0.977 0.859 c 1.438 -3.074 3.559 -8.711 5.129 -12.465 c 0.195 -0.5 -0.145 -0.922 -0.523 -0.941 m 2.273 0.602 c -0.227 -0.012 -0.453 0.113 -0.602 0.469 c -1.355 3.137 -1.836 4.68 -2.949 7.23 c -0.633 1.332 0.441 1.793 0.871 0.813 c 1.438 -3.074 1.629 -3.82 3.203 -7.574 c 0.195 -0.496 -0.148 -0.922 -0.523 -0.938 m 11.578 0.379 c -2.207 0.539 -3.98 1.492 -5.977 2.797 c -0.59 -0.477 -0.973 -0.871 -1.441 -1.367 c -0.152 0.289 -0.523 1.09 -0.66 1.309 c 0.496 0.496 0.703 0.793 1.094 1.086 c -0.473 0.352 -0.469 0.461 -1.594 1.488 c 0.234 0.461 0.363 0.902 0.598 1.352 c 0.547 -0.605 0.953 -1.094 2.129 -1.898 c 1.629 0.883 3.01 1.809 5.852 2.617 l 0 -1.66 c -1.344 -0.438 -3.305 -1.043 -4.527 -1.926 c 0.953 -0.691 2.234 -1.379 4.527 -1.93 m -26 -1.449 l 0 1.578 c 1.352 0.445 3.316 1.086 4.527 1.961 c -0.953 0.691 -2.234 1.359 -4.527 1.906 l 0 1.887 c 2.211 -0.539 4 -1.512 5.996 -2.816 c 0.59 0.48 0.953 0.895 1.422 1.391 c 0.152 -0.293 0.535 -1.113 0.668 -1.328 c -0.492 -0.496 -0.691 -0.777 -1.082 -1.07 c 0.473 -0.348 0.465 -0.461 1.594 -1.488 c -0.234 -0.461 -0.363 -0.902 -0.598 -1.348 c -0.547 0.605 -0.973 1.09 -2.148 1.898 c -1.609 -0.875 -3.07 -1.77 -5.852 -2.57 m 16.531 5.176 c -0.195 0.457 -0.332 0.75 -0.621 1.43 c 1.113 2.262 1.285 3.234 2.313 5.164 c 0.438 0.766 1.414 0.223 1.035 -0.512 c -1.035 -2.164 -1.652 -3.703 -2.727 -6.082 m 0 0" fill-rule="evenodd" fill="#000"/></g></g></g></g></g></g><g><g clip-path="url(#clipPath-986102165)"><!-- color: #599ed9 --><g><path d="m 18.13 15 c -0.363 0.035 -0.652 0.43 -0.418 0.887 c 1.039 2.164 1.656 3.707 2.73 6.086 c 0.191 -0.457 0.309 -0.773 0.598 -1.449 c -1.109 -2.262 -1.266 -3.219 -2.293 -5.145 c -0.164 -0.289 -0.398 -0.402 -0.617 -0.379 m 11.887 0.078 c -0.227 -0.012 -0.469 0.133 -0.617 0.488 c -1.355 3.141 -3.852 9.488 -4.965 12.04 c -0.633 1.328 0.5 1.863 0.93 1.129 c 1.438 -3.074 3.594 -8.961 5.164 -12.715 c 0.195 -0.5 -0.133 -0.922 -0.512 -0.941 m -6.867 4.055 c -0.227 -0.008 -0.453 0.133 -0.598 0.492 c -1.355 3.137 -3.871 9.504 -4.984 12.05 c -0.633 1.332 0.488 1.719 0.977 0.859 c 1.438 -3.074 3.559 -8.711 5.129 -12.465 c 0.195 -0.5 -0.145 -0.922 -0.523 -0.941 m 2.273 0.602 c -0.227 -0.012 -0.453 0.113 -0.602 0.469 c -1.355 3.137 -1.836 4.68 -2.949 7.23 c -0.633 1.332 0.441 1.793 0.871 0.813 c 1.438 -3.074 1.629 -3.82 3.203 -7.574 c 0.195 -0.496 -0.148 -0.922 -0.523 -0.938 m 11.578 0.379 c -2.207 0.539 -3.98 1.492 -5.977 2.797 c -0.59 -0.477 -0.973 -0.871 -1.441 -1.367 c -0.152 0.289 -0.523 1.09 -0.66 1.309 c 0.496 0.496 0.703 0.793 1.094 1.086 c -0.473 0.352 -0.469 0.461 -1.594 1.488 c 0.234 0.461 0.363 0.902 0.598 1.352 c 0.547 -0.605 0.953 -1.094 2.129 -1.898 c 1.629 0.883 3.01 1.809 5.852 2.617 l 0 -1.66 c -1.344 -0.438 -3.305 -1.043 -4.527 -1.926 c 0.953 -0.691 2.234 -1.379 4.527 -1.93 m -26 -1.449 l 0 1.578 c 1.352 0.445 3.316 1.086 4.527 1.961 c -0.953 0.691 -2.234 1.359 -4.527 1.906 l 0 1.887 c 2.211 -0.539 4 -1.512 5.996 -2.816 c 0.59 0.48 0.953 0.895 1.422 1.391 c 0.152 -0.293 0.535 -1.113 0.668 -1.328 c -0.492 -0.496 -0.691 -0.777 -1.082 -1.07 c 0.473 -0.348 0.465 -0.461 1.594 -1.488 c -0.234 -0.461 -0.363 -0.902 -0.598 -1.348 c -0.547 0.605 -0.973 1.09 -2.148 1.898 c -1.609 -0.875 -3.07 -1.77 -5.852 -2.57 m 16.531 5.176 c -0.195 0.457 -0.332 0.75 -0.621 1.43 c 1.113 2.262 1.285 3.234 2.313 5.164 c 0.438 0.766 1.414 0.223 1.035 -0.512 c -1.035 -2.164 -1.652 -3.703 -2.727 -6.082 m 0 0" fill="#fff" fill-rule="evenodd"/></g></g></g><g><path d="m 24 1 c -1.045 0 -2.01 0.284 -2.844 0.781 l -15.344 8.719 c -0.017 0.013 -0.045 0.023 -0.063 0.031 c -1.852 1.051 -2.851 3 -2.75 4.969 l 0 1 c -0.101 -1.966 0.898 -3.918 2.75 -4.969 c 0.017 -0.008 0.045 -0.018 0.063 -0.031 l 15.344 -8.719 c 0.832 -0.497 1.799 -0.781 2.844 -0.781 c 1.045 0 2.01 0.284 2.844 0.781 l 15.25 8.656 c 0.873 0.46 1.625 1.156 2.156 2.063 c 0.554 0.942 0.806 1.988 0.75 3 l 0 -1 c 0.056 -1.012 -0.196 -2.058 -0.75 -3 c -0.532 -0.906 -1.283 -1.603 -2.156 -2.063 l -15.25 -8.656 c -0.832 -0.497 -1.799 -0.781 -2.844 -0.781 z" opacity="0.2" fill="#fff"/></g></svg>