<svg viewBox="0 0 48 48" xmlns:xlink="http://www.w3.org/1999/xlink"><defs><linearGradient id="linearGradient3764" x1="1" x2="47" gradientUnits="userSpaceOnUse" gradientTransform="translate(-48.000001,0.00221467)"><stop stop-color="#e4e4e4" stop-opacity="1"/><stop offset="1" stop-color="#eee" stop-opacity="1"/></linearGradient><clipPath id="clipPath-487351048"><g transform="translate(0,-1004.3622)"><rect rx="4" y="1005.36" x="1" height="46" width="46" fill="#1890d0"/></g></clipPath><clipPath id="clipPath-518834449"><g transform="translate(0,-1004.3622)"><rect rx="4" y="1005.36" x="1" height="46" width="46" fill="#1890d0"/></g></clipPath></defs><g><path d="m 1 43 l 0 0.25 c 0 2.216 1.784 4 4 4 l 38 0 c 2.216 0 4 -1.784 4 -4 l 0 -0.25 c 0 2.216 -1.784 4 -4 4 l -38 0 c -2.216 0 -4 -1.784 -4 -4 z m 0 0.5 l 0 0.5 c 0 2.216 1.784 4 4 4 l 38 0 c 2.216 0 4 -1.784 4 -4 l 0 -0.5 c 0 2.216 -1.784 4 -4 4 l -38 0 c -2.216 0 -4 -1.784 -4 -4 z" opacity="0.02"/><path d="m 1 43.25 l 0 0.25 c 0 2.216 1.784 4 4 4 l 38 0 c 2.216 0 4 -1.784 4 -4 l 0 -0.25 c 0 2.216 -1.784 4 -4 4 l -38 0 c -2.216 0 -4 -1.784 -4 -4 z" opacity="0.05"/><path d="m 1 43 l 0 0.25 c 0 2.216 1.784 4 4 4 l 38 0 c 2.216 0 4 -1.784 4 -4 l 0 -0.25 c 0 2.216 -1.784 4 -4 4 l -38 0 c -2.216 0 -4 -1.784 -4 -4 z" opacity="0.1"/></g><g><rect width="46" height="46" x="-47" y="1" rx="4" transform="matrix(0,-1,1,0,0,0)" fill="url(#linearGradient3764)" fill-opacity="1"/></g><g><g clip-path="url(#clipPath-487351048)"><g opacity="0.1"><!-- color: #eeeeee --><g><path d="m 5 18 l 5 6 l 28 12 l 5 -6 l -5 -6 l -28 -12 m -5 6" fill-opacity="0.8" fill="#000"/><path d="m 5 30 l 5 -6 l 28 -12 l 5 6 l -5 6 l -28 12 m -5 -6" fill-opacity="0.8" fill="#000"/><path d="M 14 16 L 24 5 L 34 16 L 34 32 L 24 43 L 14 32 Z M 14 16 " fill="#000"/><path d="m 14 16 l 20 0 l 0 16 l -7 0 l 0 3 l 3 -3 l -16 0 m 0 -16" fill-opacity="0.2" id="SVGCleanerId_0"/><path d="m 20 25 l 0 5 l 8 0 l 0 -5 l -2 -2 l 0 5 l -4 0 l 0 -5 m -2 2" fill="#000"/><path d="m 19 25 l -1 -1 l 6 -6 l 6 6 l -1 1 l -5 -5 m -5 5" fill="#000"/><path d="m 27 19 l 2 0 l 0 4 l -2 -0.801 m 0 -3.199" fill="#000"/></g></g></g></g><g><g clip-path="url(#clipPath-518834449)"><g transform="translate(0,-1)"><!-- color: #eeeeee --><g><path d="m 5 18 l 5 6 l 28 12 l 5 -6 l -5 -6 l -28 -12 m -5 6" fill="#85ced5" fill-opacity="0.8"/><path d="m 5 30 l 5 -6 l 28 -12 l 5 6 l -5 6 l -28 12 m -5 -6" fill="#2cafed" fill-opacity="0.8"/><path d="M 14 16 L 24 5 L 34 16 L 34 32 L 24 43 L 14 32 Z M 14 16 " fill="#e73621"/><use xlink:href="#SVGCleanerId_0"/><path d="m 20 25 l 0 5 l 8 0 l 0 -5 l -2 -2 l 0 5 l -4 0 l 0 -5 m -2 2" fill="#f9f9f9"/><path d="m 19 25 l -1 -1 l 6 -6 l 6 6 l -1 1 l -5 -5 m -5 5" fill="#f9f9f9"/><path d="m 27 19 l 2 0 l 0 4 l -2 -0.801 m 0 -3.199" fill="#f9f9f9"/></g></g></g></g><g><g transform="translate(0,-1004.3622)"><path d="m 1 1043.36 0 4 c 0 2.216 1.784 4 4 4 l 38 0 c 2.216 0 4 -1.784 4 -4 l 0 -4 c 0 2.216 -1.784 4 -4 4 l -38 0 c -2.216 0 -4 -1.784 -4 -4 z" opacity="0.1"/></g></g></svg>