<svg viewBox="0 0 48 48"><defs><linearGradient id="linearGradient3764" x1="1" x2="47" gradientUnits="userSpaceOnUse" gradientTransform="translate(-48.000001,0.00221467)"><stop stop-color="#ef8905" stop-opacity="1"/><stop offset="1" stop-color="#fa930d" stop-opacity="1"/></linearGradient><clipPath id="clipPath-209776320"><g transform="translate(0,-1004.3622)"><rect rx="4" y="1005.36" x="1" height="46" width="46" fill="#1890d0"/></g></clipPath><clipPath id="clipPath-222319719"><g transform="translate(0,-1004.3622)"><rect rx="4" y="1005.36" x="1" height="46" width="46" fill="#1890d0"/></g></clipPath></defs><g><path d="m 1 43 l 0 0.25 c 0 2.216 1.784 4 4 4 l 38 0 c 2.216 0 4 -1.784 4 -4 l 0 -0.25 c 0 2.216 -1.784 4 -4 4 l -38 0 c -2.216 0 -4 -1.784 -4 -4 z m 0 0.5 l 0 0.5 c 0 2.216 1.784 4 4 4 l 38 0 c 2.216 0 4 -1.784 4 -4 l 0 -0.5 c 0 2.216 -1.784 4 -4 4 l -38 0 c -2.216 0 -4 -1.784 -4 -4 z" opacity="0.02"/><path d="m 1 43.25 l 0 0.25 c 0 2.216 1.784 4 4 4 l 38 0 c 2.216 0 4 -1.784 4 -4 l 0 -0.25 c 0 2.216 -1.784 4 -4 4 l -38 0 c -2.216 0 -4 -1.784 -4 -4 z" opacity="0.05"/><path d="m 1 43 l 0 0.25 c 0 2.216 1.784 4 4 4 l 38 0 c 2.216 0 4 -1.784 4 -4 l 0 -0.25 c 0 2.216 -1.784 4 -4 4 l -38 0 c -2.216 0 -4 -1.784 -4 -4 z" opacity="0.1"/></g><g><rect width="46" height="46" x="-47" y="1" rx="4" transform="matrix(0,-1,1,0,0,0)" fill="url(#linearGradient3764)" fill-opacity="1"/></g><g><g clip-path="url(#clipPath-209776320)"><g opacity="0.1"><!-- color: #fa930d --><path d="m 24 0 l 0 24 l 24 0 l 0 -24 l -24 0 z" fill-rule="evenodd" fill="#000"/><path d="m 24 24 l 0 24 l 24 0 l 0 -24 l -24 0 z" fill-rule="evenodd" fill="#000"/><path d="m 0 24 l 0 24 l 24 0 l 0 -24 l -24 0 z" fill-rule="evenodd" fill="#000"/><path d="M 0 0 L 0 24 L 24 24 L 24 0 L 0 0 z " fill-rule="evenodd" fill="#000"/><path d="m 19 36 10 0 6 -21.816 -4 -2.184 -7 19 -7 -19 -4 2.184 z m 0 0" fill="#000"/></g></g></g><g><g clip-path="url(#clipPath-222319719)"><g transform="translate(0,-1)"><!-- color: #fa930d --><path d="m 24 0 l 0 24 l 24 0 l 0 -24 l -24 0 z" fill="#faa114" fill-rule="evenodd"/><path d="m 24 24 l 0 24 l 24 0 l 0 -24 l -24 0 z" fill="#fa910a" fill-rule="evenodd"/><path d="m 0 24 l 0 24 l 24 0 l 0 -24 l -24 0 z" fill="#faa114" fill-rule="evenodd"/><path d="M 0 0 L 0 24 L 24 24 L 24 0 L 0 0 z " fill="#fa910a" fill-rule="evenodd"/><path d="m 19 36 10 0 6 -21.816 -4 -2.184 -7 19 -7 -19 -4 2.184 z m 0 0" fill="#f8f8f8"/></g></g></g><g><g transform="translate(0,-1004.3622)"><path d="m 1 1043.36 0 4 c 0 2.216 1.784 4 4 4 l 38 0 c 2.216 0 4 -1.784 4 -4 l 0 -4 c 0 2.216 -1.784 4 -4 4 l -38 0 c -2.216 0 -4 -1.784 -4 -4 z" opacity="0.1"/></g></g></svg>