<svg viewBox="0 0 48 48"><defs><linearGradient id="linearGradient3764" x1="1" x2="47" gradientUnits="userSpaceOnUse" gradientTransform="translate(-48.000001,0.00221467)"><stop stop-color="#896372" stop-opacity="1"/><stop offset="1" stop-color="#946b7b" stop-opacity="1"/></linearGradient><clipPath id="clipPath-492608100"><g transform="translate(0,-1004.3622)"><rect rx="4" y="1005.36" x="1" height="46" width="46" fill="#1890d0"/></g></clipPath><clipPath id="clipPath-522739390"><g transform="translate(0,-1004.3622)"><rect rx="4" y="1005.36" x="1" height="46" width="46" fill="#1890d0"/></g></clipPath></defs><g><path d="m 1 43 l 0 0.25 c 0 2.216 1.784 4 4 4 l 38 0 c 2.216 0 4 -1.784 4 -4 l 0 -0.25 c 0 2.216 -1.784 4 -4 4 l -38 0 c -2.216 0 -4 -1.784 -4 -4 z m 0 0.5 l 0 0.5 c 0 2.216 1.784 4 4 4 l 38 0 c 2.216 0 4 -1.784 4 -4 l 0 -0.5 c 0 2.216 -1.784 4 -4 4 l -38 0 c -2.216 0 -4 -1.784 -4 -4 z" opacity="0.02"/><path d="m 1 43.25 l 0 0.25 c 0 2.216 1.784 4 4 4 l 38 0 c 2.216 0 4 -1.784 4 -4 l 0 -0.25 c 0 2.216 -1.784 4 -4 4 l -38 0 c -2.216 0 -4 -1.784 -4 -4 z" opacity="0.05"/><path d="m 1 43 l 0 0.25 c 0 2.216 1.784 4 4 4 l 38 0 c 2.216 0 4 -1.784 4 -4 l 0 -0.25 c 0 2.216 -1.784 4 -4 4 l -38 0 c -2.216 0 -4 -1.784 -4 -4 z" opacity="0.1"/></g><g><rect width="46" height="46" x="-47" y="1" rx="4" transform="matrix(0,-1,1,0,0,0)" fill="url(#linearGradient3764)" fill-opacity="1"/></g><g><g clip-path="url(#clipPath-492608100)"><g opacity="0.1"><!-- color: #946b7b --><g><path d="M 11.6875 8 C 10.75 8 10 8.75 10 9.6875 L 10 15 L 18 15 L 18 9.6875 C 18 8.75 17.25 8 16.3125 8 Z M 10 16 L 10 32 L 18 32 L 18 16 Z M 10 33 L 10 38.3125 C 10 39.25 10.75 40 11.6875 40 L 16.3125 40 C 17.25 40 18 39.25 18 38.3125 L 18 33 Z M 10 33 " fill="#000"/><path d="m 20.996 17.996 l 3 0 c 0.551 0 0.996 0.449 0.996 1 l 0 20 c 0 0.555 -0.445 1 -0.996 1 l -3 0 c -0.551 0 -0.996 -0.445 -0.996 -1 l 0 -20 c 0 -0.551 0.445 -1 0.996 -1 m 0 0" fill="#000"/><path d="m 24.5 14.13 c 2.09 0.793 2.984 -0.305 2.984 -0.305 l 2.641 25.867 c -2.094 -0.793 -2.984 0.305 -2.984 0.305 m -2.641 -25.867" fill="#000"/><path d="m 28 20.668 c 2.641 -1.742 5.797 -1.555 5.797 -1.555 l 5.176 19.32 c 0 0 -2.641 1.742 -5.797 1.551 m -5.176 -19.316" fill="#000"/></g></g></g></g><g><g clip-path="url(#clipPath-522739390)"><g transform="translate(0,-1)"><!-- color: #946b7b --><g><path d="M 11.6875 8 C 10.75 8 10 8.75 10 9.6875 L 10 15 L 18 15 L 18 9.6875 C 18 8.75 17.25 8 16.3125 8 Z M 10 16 L 10 32 L 18 32 L 18 16 Z M 10 33 L 10 38.3125 C 10 39.25 10.75 40 11.6875 40 L 16.3125 40 C 17.25 40 18 39.25 18 38.3125 L 18 33 Z M 10 33 " fill="#fff472"/><path d="m 20.996 17.996 l 3 0 c 0.551 0 0.996 0.449 0.996 1 l 0 20 c 0 0.555 -0.445 1 -0.996 1 l -3 0 c -0.551 0 -0.996 -0.445 -0.996 -1 l 0 -20 c 0 -0.551 0.445 -1 0.996 -1 m 0 0" fill="#ff947c"/><path d="m 24.5 14.13 c 2.09 0.793 2.984 -0.305 2.984 -0.305 l 2.641 25.867 c -2.094 -0.793 -2.984 0.305 -2.984 0.305 m -2.641 -25.867" fill="#8bc8ff"/><path d="m 28 20.668 c 2.641 -1.742 5.797 -1.555 5.797 -1.555 l 5.176 19.32 c 0 0 -2.641 1.742 -5.797 1.551 m -5.176 -19.316" fill="#f9994c"/></g></g></g></g><g><g transform="translate(0,-1004.3622)"><path d="m 1 1043.36 0 4 c 0 2.216 1.784 4 4 4 l 38 0 c 2.216 0 4 -1.784 4 -4 l 0 -4 c 0 2.216 -1.784 4 -4 4 l -38 0 c -2.216 0 -4 -1.784 -4 -4 z" opacity="0.1"/></g></g></svg>