<svg viewBox="0 0 48 48" xmlns:xlink="http://www.w3.org/1999/xlink"><defs><linearGradient id="linearGradient3764" x1="1" x2="47" gradientUnits="userSpaceOnUse" gradientTransform="translate(-48.000001,0.00221467)"><stop stop-color="#21a8e7" stop-opacity="1"/><stop offset="1" stop-color="#33b0e9" stop-opacity="1"/></linearGradient><clipPath id="clipPath-106903558"><g transform="translate(0,-1004.3622)"><rect rx="4" y="1005.36" x="1" height="46" width="46" fill="#1890d0"/></g></clipPath><clipPath id="clipPath-125575221"><g transform="translate(0,-1004.3622)"><rect rx="4" y="1005.36" x="1" height="46" width="46" fill="#1890d0"/></g></clipPath><linearGradient id="0"><stop stop-color="#108fc9"/><stop offset="1" stop-color="#26afee"/></linearGradient><clipPath><rect width="44" height="44" x="2" y="1006.36" rx="4" fill="#000"/></clipPath><linearGradient xlink:href="#0" id="1" gradientUnits="userSpaceOnUse" y1="1050.36" x2="0" y2="1006.36"/><linearGradient id="0"><stop stop-color="#108fc9"/><stop offset="1" stop-color="#26afee"/></linearGradient><clipPath><rect width="44" height="44" x="2" y="1006.36" rx="4" fill="url(#1)"/></clipPath><linearGradient xlink:href="#0" id="1" gradientUnits="userSpaceOnUse" y1="1050.36" x2="0" y2="1006.36"/></defs><g><path d="m 1 43 l 0 0.25 c 0 2.216 1.784 4 4 4 l 38 0 c 2.216 0 4 -1.784 4 -4 l 0 -0.25 c 0 2.216 -1.784 4 -4 4 l -38 0 c -2.216 0 -4 -1.784 -4 -4 z m 0 0.5 l 0 0.5 c 0 2.216 1.784 4 4 4 l 38 0 c 2.216 0 4 -1.784 4 -4 l 0 -0.5 c 0 2.216 -1.784 4 -4 4 l -38 0 c -2.216 0 -4 -1.784 -4 -4 z" opacity="0.02"/><path d="m 1 43.25 l 0 0.25 c 0 2.216 1.784 4 4 4 l 38 0 c 2.216 0 4 -1.784 4 -4 l 0 -0.25 c 0 2.216 -1.784 4 -4 4 l -38 0 c -2.216 0 -4 -1.784 -4 -4 z" opacity="0.05"/><path d="m 1 43 l 0 0.25 c 0 2.216 1.784 4 4 4 l 38 0 c 2.216 0 4 -1.784 4 -4 l 0 -0.25 c 0 2.216 -1.784 4 -4 4 l -38 0 c -2.216 0 -4 -1.784 -4 -4 z" opacity="0.1"/></g><g><rect width="46" height="46" x="-47" y="1" rx="4" transform="matrix(0,-1,1,0,0,0)" fill="url(#linearGradient3764)" fill-opacity="1"/></g><g><g clip-path="url(#clipPath-106903558)"><g opacity="0.1"><!-- color: #33b0e9 --><path d="m 16 1.906 l -0.844 0.25 l -0.969 0.063 l -0.594 0.438 l -0.781 -0.031 l 0.063 0.5 l 1.125 -0.031 l 0.406 1.094 l 0.156 0.594 l -0.625 0.344 l -0.25 0.469 l 0.188 1.063 l 0.75 0.125 l 0.719 -0.688 l 0.625 -0.656 l 0.969 -0.25 l 1.219 -0.594 l 0.719 -0.875 l 1.031 -1.25 l 0.719 -0.188 l -0.031 -0.281 l -1.125 0 l -3.469 -0.094 z m -2.219 0.063 l -0.813 0.031 l -1.406 0.375 l -0.813 0.25 l -0.938 -0.375 l -0.125 0.563 l 1.125 0.656 c 0 0 2.045 -1.125 2.156 -1.125 l 0.813 -0.375 z m 21.06 0.219 l -0.188 0.313 l 1.156 0.156 l 0.063 -0.281 l -1.031 -0.188 z m -8.875 0.188 c -0.056 0.022 -1.531 0.031 -1.531 0.031 l -0.375 0.094 l 0.5 0.594 l 0.531 -0.5 l 0.344 0.219 l 0.5 -0.25 c 0 0 0.088 -0.21 0.031 -0.188 z m 5.625 0.469 l -0.469 0.063 l -0.406 0.25 l -0.469 0.344 l -0.281 0.5 l 0.438 0.438 l 0.375 0.031 l 0.156 -0.25 l -0.375 -0.313 l 0.219 -0.188 l 0.031 -0.156 l 0.469 -0.313 c 0 0 0.608 0.008 0.656 0 c 0.048 -0.008 0.188 -0.188 0.188 -0.188 l -0.156 -0.219 l -0.375 0 z m -25.875 0.188 l -0.094 0.313 l 0.469 0.156 l 0.531 -0.25 l -0.906 -0.219 z m 31.781 0.094 l -2.125 0.094 l -0.563 0.375 l -0.625 0.375 l -0.531 0.438 l 0.063 0.188 l -0.281 0.031 l 0 0.031 l -4 0.656 l -3.656 2.688 l -0.375 0.281 l -0.031 0 l -0.25 -0.094 c 0 0 -0.155 0.008 -0.219 0.063 c -0.064 0.055 -0.121 0.102 -0.313 0.125 c -0.191 0.023 -0.562 0 -0.594 0 l -0.219 0 l 0.031 -0.219 l 0.156 -0.25 l -0.281 -0.219 c 0 0 -0.18 0.227 -0.188 0.281 c -0.008 0.055 0.125 0.281 0.125 0.281 c 0 0 -0.062 0.18 -0.094 0.219 c -0.032 0.039 -0.313 0.125 -0.313 0.125 l -0.438 -0.219 c 0 0 -0.18 -0.039 -0.156 0.063 c 0.024 0.102 0.219 0.195 0.219 0.281 c 0 0.086 -0.125 0.281 -0.125 0.281 l -0.156 0.188 l -0.25 0.25 l -0.344 0.094 c 0 0 -0.249 0.07 -0.313 0.094 c -0.064 0.023 -0.25 0.063 -0.25 0.063 l -0.25 0.031 l -0.156 0.219 l 0.281 0.188 l 0.188 0.313 c 0 0 0.124 0.219 0.156 0.219 c 0.032 0 0.094 0.219 0.094 0.219 l -0.188 0.25 l -0.063 0 l -0.031 0 l -0.656 0.125 l -0.125 -0.281 l -0.438 0.438 l -0.188 0.719 l 0 0.594 l 0.75 0.406 l 0.594 -0.219 l 0.594 -1.063 l 0.531 -0.656 l 0.969 -0.156 l 0.219 -0.188 l 1.094 1.281 l 0.125 0.438 l 0.313 -0.156 l -0.094 -0.375 l 0.188 0 l -0.125 -0.25 l -1.063 -1 l 0.094 -0.188 l 0.344 -0.031 l 0.75 0.75 l 0.375 0.438 l 0 0.688 l 0.188 0.125 l 0.375 0.375 l 0.281 -0.094 l -0.156 -0.563 l 0.094 -0.344 l 0.188 -0.219 l 0.438 0.156 l 0.156 0.063 l -0.031 -0.5 l 0.25 -0.469 l 0.156 -0.688 l 0.563 0.094 l 0.094 0.313 l 0.219 0.156 l 0.25 -0.219 l -0.156 -0.344 l 0.656 0 l -0.219 0.375 l 0.438 0.375 l 0.375 0.188 l 0.219 0.438 l -0.5 0.125 l -0.719 -0.156 l -0.625 0 l -0.594 0.313 l -0.125 0.188 l -0.438 0.094 l 0.188 0.469 l 0.344 0.406 l 0.625 -0.219 l 0.156 0.281 l 0.281 -0.219 l 0.375 0.063 l 0.031 0.406 l -0.125 0.781 l -0.344 -0.031 l -0.406 -0.063 l -0.188 0.469 l -1.375 -0.25 l -0.25 -0.313 l -0.313 0.281 l -0.344 0.469 l -0.875 -0.5 l -0.875 -0.531 l 0 -0.938 l -0.563 0.031 l -0.031 0.313 l -1.375 -0.063 l -0.438 0.406 l -0.844 0.031 l -0.563 0.5 l -0.344 0.969 l -0.875 0.688 l -0.625 0.844 l -0.031 1.625 l -0.188 0.5 l -0.063 0.594 l 0.375 0.656 l 0.219 0.625 l 0.75 0.906 l 0.438 0.375 l 0.438 0.094 l 0.094 -0.375 l 1.563 0 l 0.406 -0.188 l 0.5 0.063 l 0.156 0.313 l 0.531 0.031 l 0.344 0.25 l 0 0.531 l -0.125 0.438 l -0.125 0.344 l 0.313 0.563 l 0.406 0.469 l 0.188 1.188 l 0.031 0.781 l -0.281 0.656 l -0.031 0.625 l 0.219 1.156 l 0.188 0.188 l 0.281 1.094 l 0.031 0.469 l 0.563 0.75 l 0.063 0.594 l 0.094 0.688 l 0.344 -0.344 l 0.875 -0.094 l 0.531 0 l 0.969 -1.5 l 0.063 -0.594 l 0.656 -0.656 l 0.031 -0.75 l 0.344 -0.75 l 0.813 -0.781 l 0 -0.875 l -0.188 -0.813 l -0.125 -1.125 l 0.594 -0.938 l 1.063 -1.313 l 0.406 -0.406 l 0.156 -0.531 l 0.25 -0.469 l 0.063 -0.688 l -0.594 0 l -0.281 0.281 l -0.563 -0.156 l -0.344 -0.563 l -0.281 -0.563 l -0.656 -0.5 l -0.156 -0.813 l -0.281 -0.469 l -0.313 -0.594 l -0.406 -0.719 l -0.094 -0.469 l 0.438 -0.063 l 0.25 0.531 l 0.5 0.938 l 0.375 0.688 l 0.406 0.75 l 0.438 0.719 l 0.594 0.594 l 0.531 -0.5 l 0.594 -0.156 l 0.438 -0.531 l 0.594 -0.344 l 0.344 -0.594 l 0.031 -0.5 l -0.281 -0.313 l -0.375 -0.438 l -0.25 0.156 l -0.156 0.25 l -0.406 -0.188 l -0.125 -0.313 l -0.281 -0.406 l -0.438 -0.406 l 0 -0.813 l 0.281 0.531 l 0.344 0.531 l 0.594 0.344 l 0.406 -0.094 l 0.25 0.281 l 1.781 -0.031 l -0.031 0.031 l 0.563 0.5 l 0.406 0.563 l 0.125 0.281 l 0.281 0 l 0.094 -0.313 l 0.094 0.469 l 0.156 0.844 l 0.344 0.813 l 0.188 0.688 l 0.281 0.656 l 0.219 0.281 l 0.313 -0.188 l 0.094 -0.313 l 0.125 -0.781 l -0.031 -0.688 l 0.25 -0.313 c 0 0 0.265 -0.363 0.313 -0.375 c 0.048 -0.012 0.625 -0.656 0.625 -0.656 l 0.281 -0.344 l 0.313 -0.188 l 0.375 -0.219 l 0.156 0 l 0.063 0.344 l 0.156 0.406 l 0.5 0.656 l 0 0.25 l 0.094 0.281 l 0.344 -0.156 l -0.031 -0.375 l 0.313 0.063 l 0.063 0.344 l -0.031 0.531 l 0.094 0.375 l 0.281 0.063 l 0.094 -0.313 l 0.344 0.219 l 0.063 0.313 l 0.313 0.469 l 0.313 0.344 l 0.219 0.188 l 0.531 -0.469 l 0.219 -0.438 l -0.094 -0.5 l -0.094 -0.656 l -0.594 -0.563 l -0.094 -0.563 l 0.25 -0.406 c 0 0 0.16 -0.322 0.313 -0.156 c 0.152 0.166 0.224 0.193 0.156 0.375 c -0.068 0.182 -0.188 0.594 -0.188 0.594 l 0.375 0.156 l 0.156 -0.531 l -0.156 -0.375 l 0.375 -0.156 l 0.688 -0.344 l 0.438 -0.531 l 0.344 -0.813 l -0.031 -0.594 l -0.344 -0.781 l -0.688 -0.813 l -0.438 -0.406 l -0.219 -0.625 l 0.406 -0.094 c 0 0 0.235 -0.403 0.438 -0.188 c 0.203 0.215 0.5 0.531 0.5 0.531 c 0 0 0.356 0.559 0.406 0.625 c 0.051 0.066 0.418 0.402 0.469 0.469 c 0.051 0.066 0.281 0.313 0.281 0.313 l 0.375 -0.531 l 0.094 -0.094 l 0 -0.188 l -0.531 -0.313 l -0.469 -0.438 l 0.344 -0.75 l 0.563 -0.281 l 0.094 -0.25 l 0 -1.469 l -0.281 -0.563 l -0.313 -0.438 c 0 0 -0.322 -0.048 -0.406 -0.031 c -0.085 0.017 -0.781 -0.5 -0.781 -0.5 l 0.063 -0.5 l 0.25 -0.438 l 1.188 -0.156 l 0.281 0.031 l 0 -0.313 l -1.719 -2.25 l -1.656 -0.188 l -1.281 -0.313 c 0 0 -0.391 0.296 -0.594 0.313 c -0.203 0.017 -0.906 0.125 -0.906 0.125 l -0.719 -0.438 l -1.5 -0.125 l -0.063 -0.031 l -1.281 -0.063 l -0.781 -0.438 z m -11.719 4.875 l 3.563 -2.688 l -1.219 0.656 l -0.313 -0.219 l -0.156 -0.25 l 0.063 -0.25 l 0.688 0.031 l 0.313 -0.125 l -0.625 -0.313 l -0.875 -0.313 l -0.875 -0.156 l -0.938 0.188 l -0.969 0.781 l -0.438 0.438 l -0.656 0.719 l -0.25 0.031 l -0.094 0.344 l 0.125 0.344 c 0 0 0.134 0.156 0.156 0.156 c 0.023 0 0.25 -0.125 0.25 -0.125 c 0 0 0.027 -0.118 0.156 -0.156 c 0.13 -0.039 0.25 -0.063 0.25 -0.063 l 0.188 0.375 l 0.219 0.313 l 0.094 0.25 c 0 0 0.364 -0.222 0.375 -0.25 c 0.011 -0.028 0.031 -0.406 0.031 -0.406 l 0.281 -0.188 c 0 0 0.074 -0.134 0.063 -0.156 c -0.011 -0.022 -0.188 -0.219 -0.188 -0.219 l -0.156 -0.063 l 0.063 -0.313 c 0 0 0.125 -0.05 0.125 -0.094 c 0 -0.044 0.188 -0.188 0.188 -0.188 l 0.219 -0.281 l 0.156 -0.188 l 0.219 -0.156 l 0.25 0.188 l 0 0.125 l -0.219 0.25 l -0.063 0.25 l 0 0.344 l 0.188 0.156 l 0.344 -0.031 l 0.313 -0.063 l 0.281 0.156 l -0.063 0.219 c 0 0 -0.194 0.188 -0.25 0.219 c -0.056 0.031 -0.412 -0.063 -0.5 -0.031 c -0.088 0.031 -0.313 0.313 -0.313 0.313 c 0 0 -0.024 0.25 0 0.313 c 0.009 0.025 0.009 0.064 0 0.125 z m 3.656 -2.688 l 4 -0.688 l -0.031 -0.156 l -0.313 -0.438 l -0.656 -0.063 c 0 0 0.156 0.667 0.156 0.75 c 0 0.083 -0.438 0.031 -0.438 0.031 l -0.75 0.031 c 0 0 -1.084 0.25 -1.219 0.25 c -0.13 0 -0.763 0.261 -0.813 0.281 l 0.063 0 z m -25.16 -1.813 l -0.5 0.563 l 0.438 0.219 l 0.563 -0.25 l 0.031 0.625 l 0.469 0.313 l 0.5 -0.469 l 0.688 0.125 l 0.281 -0.656 l -1.125 -0.094 l -1.344 -0.375 z m 3.125 0.094 l 0.438 1.094 l -0.531 0.063 l -0.406 0.5 l -0.906 -0.281 l -0.813 0.313 l -0.781 -0.188 l -0.906 -0.563 l -1.25 0.031 l -1.094 0.469 l -0.719 -0.344 l -0.438 -0.031 l 0 13.594 l 0.844 0.469 l 0.5 -0.063 l 0.719 0.344 l 1.094 0.594 l 0.156 0.719 l 0.875 0.844 l 0.5 -0.375 l 0.406 0.313 l -0.063 -0.719 l -0.781 0.188 l -0.25 -0.906 l -0.094 -0.406 l -0.688 -0.625 l 0 -0.438 l 0.531 -0.563 l -0.344 -0.406 l -0.563 0.094 l -0.844 0.844 l -0.688 -0.094 c 0 0 -0.311 -0.531 -0.375 -0.656 c -0.064 -0.125 0.188 -0.563 0.188 -0.563 l -0.063 -1.281 l 0.719 -0.5 l 0.563 -0.188 l 0.813 0 l 1.125 -0.25 l 0.406 0.531 l -0.063 0.625 l 0.469 0.406 l 0.063 -0.438 c 0 0 -0.03 -0.719 -0.094 -0.906 c -0.064 -0.187 0.563 -0.625 0.563 -0.625 l 0.5 -0.625 l 0.594 -0.719 l 0.281 -0.563 l 0.938 -0.5 l 0.625 -0.688 c 0 0 0.934 -0.156 1.125 -0.25 c 0.191 -0.094 0.066 -0.438 -0.125 -0.75 c -0.191 -0.312 0.094 -0.625 0.094 -0.625 l 0.719 -0.438 l 0.625 0.125 l 0.063 0.75 c 0 0 0.59 0.562 0.781 0.469 c 0.191 -0.094 0.281 -0.406 0.281 -0.406 l -0.313 -0.813 l 0.188 -0.813 l -0.844 0.125 l 0 -0.844 l 0 -0.531 l -0.25 0.25 l -0.656 0.031 l -0.094 -0.688 l -0.438 -0.531 c 0 0 -0.429 0.25 -0.844 0.406 c -0.415 0.156 -0.313 0.469 -0.313 0.469 l -0.031 0.844 l -0.688 0.563 l -0.438 0.656 c 0 0 -0.281 -0.188 -0.281 -0.313 c 0 -0.125 -0.063 -0.469 -0.063 -0.469 l -0.719 -0.563 c 0 0 -0.562 -0.406 -0.594 -0.531 c -0.032 -0.125 0.344 -0.688 0.344 -0.688 c 0 0 0.809 -0.5 1 -0.656 c 0.191 -0.156 1.216 0.344 1.344 0.25 c 0.128 -0.094 0.625 -0.875 0.625 -0.875 l 0.438 -0.594 l -0.438 0.5 l -0.75 -0.719 l 0.125 -0.719 l -1.031 -0.156 z m 2.5 0.031 l -0.25 0.625 l 0.156 0.344 l 0.563 -0.063 l 0.25 0.469 l -0.5 0.531 l -0.563 0.063 l 0.5 0.219 l 0.531 0.469 l 0.531 0.125 l 0.188 -0.719 l 0.031 -0.438 l 0.625 0.094 c 0 0 -0.189 0.313 -0.094 0.313 c 0.096 0 0.469 -0.406 0.469 -0.406 l -1.063 -1.094 c 0 0 -0.435 -0.344 -0.563 -0.25 c -0.128 0.094 -0.469 0.063 -0.469 0.063 l -0.344 -0.344 z m 8.688 1.781 l -0.125 0.406 c 0.454 0.351 0.625 0.344 0.625 0.344 l 0.531 -0.125 l 0.344 -0.344 l -0.219 -0.281 l -0.719 0 l -0.438 0 z m 2.781 1.781 l -0.25 0.219 c -0.072 0.305 -0.156 0.625 -0.156 0.625 l 0.469 0.219 l 0.063 0.281 l -0.25 0.25 l -0.219 0.375 l 0.156 0.156 l 0.563 -0.094 l 0.5 -0.219 l -0.281 -0.375 l -0.094 -0.656 l -0.344 -0.375 l -0.156 -0.406 z m -0.781 1.188 l -0.281 0.469 l 0.375 0.156 l 0.156 -0.281 l -0.25 -0.344 z m -15.438 1.094 l 0.656 0.281 l 0.438 0.563 l 0.281 0.438 c 0 0 -0.249 0.844 -0.313 1 c -0.064 0.156 -0.25 -0.313 -0.25 -0.313 l -0.156 -0.813 l -0.531 0.219 l -0.406 0.969 l 0.094 -0.813 l 0.125 -0.563 l -0.656 -0.25 l 0.563 -0.531 l 0.156 -0.188 z m 26.375 0.75 c 0.135 -0.044 0.375 0.156 0.375 0.156 l -0.25 0.219 l 0.094 0.313 l 0.281 0.75 l 0.281 0.469 l 0.375 0.594 l -0.406 0.188 l -0.531 -0.344 l -0.219 -0.656 c 0 0 -0.302 -0.402 -0.438 -0.469 c -0.135 -0.066 -0.25 -0.281 -0.25 -0.281 l 0.125 -0.531 c 0 0 0.427 -0.362 0.563 -0.406 z m -7.906 1.188 l -0.375 0.719 l 0.281 0.281 l 0.25 -0.219 l 0.031 -0.313 l -0.188 -0.469 z m -1.25 0.75 l 0 0.188 l 0.156 -0.031 l -0.156 -0.156 z m 2.156 0.469 l -0.188 0.063 l 0.313 0.531 l 0.281 -0.219 l -0.406 -0.375 z m -20.12 4.188 l -0.313 0.156 l 0.531 0.281 l 0.594 0.125 l 0.344 0.469 l 0.406 -0.25 l -0.063 -0.281 l -0.688 -0.5 l -0.813 0 z m 1.688 3.094 l -0.813 0.438 l -0.094 0.906 l -0.188 1 l -0.563 0.75 l 0.031 1.125 l 0.469 1.156 l 0.5 1.406 l 1.313 1.313 l 0.063 0.75 l 0.094 3.375 l 0.469 1.906 c 0 0 0.286 1.099 0.219 1.188 c -0.068 0.088 0.375 0.906 0.375 0.906 l 0.875 1.375 l 1.219 0.531 l -0.5 -0.594 l -0.25 -0.688 l 0.25 -0.719 l -0.656 -0.344 c 0 0 0.432 -0.287 0.5 -0.375 c 0.068 -0.088 -0.094 -0.469 -0.094 -0.469 l -0.188 -0.469 l 0.5 -0.656 l 0.781 -0.188 l 0.125 -0.594 l -0.469 -0.219 l 0.188 -0.5 l 0.75 -0.094 l 0.656 -1.594 l 0.469 -1.094 l 0.969 -0.469 c 0 0 0.313 -0.93 0.313 -1.063 c 0 -0.133 0.094 -1.531 0.094 -1.531 l 0.75 -1.031 l 0.094 -0.688 l -0.563 -0.344 l -0.469 -0.563 l -0.844 0.063 l -1.344 -0.781 l -0.281 -0.656 c 0 0 -0.472 -0.813 -0.563 -0.813 c -0.09 0 -0.656 0.031 -0.656 0.031 l -0.531 -0.531 l -0.344 -0.656 l -1.344 -0.281 l -0.438 -0.219 l -0.875 0 z m 36.438 0.5 c 0.113 0.133 0.816 2.219 0.906 2.219 c 0.09 0 0.625 0.063 0.625 0.063 l -0.281 -0.844 l -1.25 -1.438 z m -3.594 0.063 l -0.313 0.406 l 0.156 0.594 l 0.344 -0.375 l -0.063 -0.469 l -0.125 -0.156 z m 8.094 0.719 l -1.469 0.813 c 0 0.088 -0.719 0.688 -0.719 0.688 l 0.188 0.625 l 0.406 0.469 l 0.281 0.688 l 1.875 -1.219 l -0.563 -2.063 z m -4.594 0.438 l -0.438 0.063 l 2 3 l 0.531 0.594 l 1.313 0.063 l 0.813 0.25 l -0.875 -0.625 l -1.25 -0.344 l -0.313 -1.156 l -0.688 -0.563 l -1.094 -1.281 z m -10.5 4.875 l 0 0.438 c -0.023 0.066 -0.406 0.375 -0.406 0.375 l -0.469 0.219 l -0.344 0.281 l 0.25 0.344 l 0.156 0.156 l -0.406 0.344 l 0 0.563 l 0.156 0.594 l 0.344 0.094 l 0.406 -0.625 l 0.25 -0.406 l -0.063 -0.5 l 0.375 -0.594 l 0.125 -0.281 l 0 -0.563 l -0.094 -0.438 l -0.281 0 z m 16.06 0.719 c -0.003 0.002 -0.031 0.031 -0.031 0.031 l -0.5 1.031 c 0 0 -1.102 0.162 -1.125 0.25 c -0.023 0.088 -0.563 0.375 -0.563 0.375 c -0.113 0 -0.469 0.656 -0.469 0.656 l -0.063 2.063 l -0.125 0.75 l 0.313 0.406 l 1.531 -0.531 l 0.5 -0.563 l 0.531 0 l 0 -4.469 z m -36.531 8.75 l -0.219 0.156 l -0.094 0.031 l 0.5 0.25 l -0.188 -0.438 z m -0.844 0.188 l -0.219 0.5 l 0.438 -0.094 l -0.219 -0.406 z m 1.5 4.125 l -0.469 0.719 l -0.875 0.406 l 0.5 0.625 l -0.75 0.375 l -2.469 -0.125 l -0.75 -0.75 l -0.656 -0.125 l 0.656 1.375 l -1.156 -0.219 l -3.969 0.125 l -0.844 1.094 l -1.219 -0.125 l -0.125 0.25 l 0 4.094 l 45.28 0 l 2.719 -1.781 l 0 -1.906 l -0.125 -1.188 l -0.969 -0.219 l -1.219 0.156 l -0.875 0.781 l -1.469 0.594 l 0.625 -0.75 l 1.344 -0.781 l 2.156 -0.5 l 0.25 -0.875 l -1 0 c 0 0 -1.344 -0.667 -1.344 -0.844 c 0 -0.177 -1.5 -0.125 -1.5 -0.125 l -1.719 0.188 l -1.656 -0.094 l -3.313 0.125 l -3.063 0.625 c 0 0 -1.476 0.794 -1.656 0.75 c -0.18 -0.044 0.625 -1.031 0.625 -1.031 l -1.438 0.094 l -0.906 -0.75 l -0.906 0.625 c 0 0 -1.216 0.094 -1.531 0.094 c -0.316 0 -0.719 0.563 -0.719 0.563 l -2.469 -0.094 l -4.25 0.188 l -1.125 0.969 l -0.281 0.031 l -3.219 -0.219 l -2.219 0.219 l -0.781 -0.375 l 0.031 -0.063 c 0 0 -0.656 -1.323 -0.656 -1.5 c 0 -0.177 -0.5 -0.625 -0.5 -0.625 z m 0.344 3.188 l 1.344 0.438 l -1.656 0 l -0.656 -0.344 l 0.969 -0.094 z" fill="#000"/></g></g></g><g><g clip-path="url(#clipPath-125575221)"><g transform="translate(0,-1)"><!-- color: #33b0e9 --><path d="m 16 1.906 l -0.844 0.25 l -0.969 0.063 l -0.594 0.438 l -0.781 -0.031 l 0.063 0.5 l 1.125 -0.031 l 0.406 1.094 l 0.156 0.594 l -0.625 0.344 l -0.25 0.469 l 0.188 1.063 l 0.75 0.125 l 0.719 -0.688 l 0.625 -0.656 l 0.969 -0.25 l 1.219 -0.594 l 0.719 -0.875 l 1.031 -1.25 l 0.719 -0.188 l -0.031 -0.281 l -1.125 0 l -3.469 -0.094 z m -2.219 0.063 l -0.813 0.031 l -1.406 0.375 l -0.813 0.25 l -0.938 -0.375 l -0.125 0.563 l 1.125 0.656 c 0 0 2.045 -1.125 2.156 -1.125 l 0.813 -0.375 z m 21.06 0.219 l -0.188 0.313 l 1.156 0.156 l 0.063 -0.281 l -1.031 -0.188 z m -8.875 0.188 c -0.056 0.022 -1.531 0.031 -1.531 0.031 l -0.375 0.094 l 0.5 0.594 l 0.531 -0.5 l 0.344 0.219 l 0.5 -0.25 c 0 0 0.088 -0.21 0.031 -0.188 z m 5.625 0.469 l -0.469 0.063 l -0.406 0.25 l -0.469 0.344 l -0.281 0.5 l 0.438 0.438 l 0.375 0.031 l 0.156 -0.25 l -0.375 -0.313 l 0.219 -0.188 l 0.031 -0.156 l 0.469 -0.313 c 0 0 0.608 0.008 0.656 0 c 0.048 -0.008 0.188 -0.188 0.188 -0.188 l -0.156 -0.219 l -0.375 0 z m -25.875 0.188 l -0.094 0.313 l 0.469 0.156 l 0.531 -0.25 l -0.906 -0.219 z m 31.781 0.094 l -2.125 0.094 l -0.563 0.375 l -0.625 0.375 l -0.531 0.438 l 0.063 0.188 l -0.281 0.031 l 0 0.031 l -4 0.656 l -3.656 2.688 l -0.375 0.281 l -0.031 0 l -0.25 -0.094 c 0 0 -0.155 0.008 -0.219 0.063 c -0.064 0.055 -0.121 0.102 -0.313 0.125 c -0.191 0.023 -0.562 0 -0.594 0 l -0.219 0 l 0.031 -0.219 l 0.156 -0.25 l -0.281 -0.219 c 0 0 -0.18 0.227 -0.188 0.281 c -0.008 0.055 0.125 0.281 0.125 0.281 c 0 0 -0.062 0.18 -0.094 0.219 c -0.032 0.039 -0.313 0.125 -0.313 0.125 l -0.438 -0.219 c 0 0 -0.18 -0.039 -0.156 0.063 c 0.024 0.102 0.219 0.195 0.219 0.281 c 0 0.086 -0.125 0.281 -0.125 0.281 l -0.156 0.188 l -0.25 0.25 l -0.344 0.094 c 0 0 -0.249 0.07 -0.313 0.094 c -0.064 0.023 -0.25 0.063 -0.25 0.063 l -0.25 0.031 l -0.156 0.219 l 0.281 0.188 l 0.188 0.313 c 0 0 0.124 0.219 0.156 0.219 c 0.032 0 0.094 0.219 0.094 0.219 l -0.188 0.25 l -0.063 0 l -0.031 0 l -0.656 0.125 l -0.125 -0.281 l -0.438 0.438 l -0.188 0.719 l 0 0.594 l 0.75 0.406 l 0.594 -0.219 l 0.594 -1.063 l 0.531 -0.656 l 0.969 -0.156 l 0.219 -0.188 l 1.094 1.281 l 0.125 0.438 l 0.313 -0.156 l -0.094 -0.375 l 0.188 0 l -0.125 -0.25 l -1.063 -1 l 0.094 -0.188 l 0.344 -0.031 l 0.75 0.75 l 0.375 0.438 l 0 0.688 l 0.188 0.125 l 0.375 0.375 l 0.281 -0.094 l -0.156 -0.563 l 0.094 -0.344 l 0.188 -0.219 l 0.438 0.156 l 0.156 0.063 l -0.031 -0.5 l 0.25 -0.469 l 0.156 -0.688 l 0.563 0.094 l 0.094 0.313 l 0.219 0.156 l 0.25 -0.219 l -0.156 -0.344 l 0.656 0 l -0.219 0.375 l 0.438 0.375 l 0.375 0.188 l 0.219 0.438 l -0.5 0.125 l -0.719 -0.156 l -0.625 0 l -0.594 0.313 l -0.125 0.188 l -0.438 0.094 l 0.188 0.469 l 0.344 0.406 l 0.625 -0.219 l 0.156 0.281 l 0.281 -0.219 l 0.375 0.063 l 0.031 0.406 l -0.125 0.781 l -0.344 -0.031 l -0.406 -0.063 l -0.188 0.469 l -1.375 -0.25 l -0.25 -0.313 l -0.313 0.281 l -0.344 0.469 l -0.875 -0.5 l -0.875 -0.531 l 0 -0.938 l -0.563 0.031 l -0.031 0.313 l -1.375 -0.063 l -0.438 0.406 l -0.844 0.031 l -0.563 0.5 l -0.344 0.969 l -0.875 0.688 l -0.625 0.844 l -0.031 1.625 l -0.188 0.5 l -0.063 0.594 l 0.375 0.656 l 0.219 0.625 l 0.75 0.906 l 0.438 0.375 l 0.438 0.094 l 0.094 -0.375 l 1.563 0 l 0.406 -0.188 l 0.5 0.063 l 0.156 0.313 l 0.531 0.031 l 0.344 0.25 l 0 0.531 l -0.125 0.438 l -0.125 0.344 l 0.313 0.563 l 0.406 0.469 l 0.188 1.188 l 0.031 0.781 l -0.281 0.656 l -0.031 0.625 l 0.219 1.156 l 0.188 0.188 l 0.281 1.094 l 0.031 0.469 l 0.563 0.75 l 0.063 0.594 l 0.094 0.688 l 0.344 -0.344 l 0.875 -0.094 l 0.531 0 l 0.969 -1.5 l 0.063 -0.594 l 0.656 -0.656 l 0.031 -0.75 l 0.344 -0.75 l 0.813 -0.781 l 0 -0.875 l -0.188 -0.813 l -0.125 -1.125 l 0.594 -0.938 l 1.063 -1.313 l 0.406 -0.406 l 0.156 -0.531 l 0.25 -0.469 l 0.063 -0.688 l -0.594 0 l -0.281 0.281 l -0.563 -0.156 l -0.344 -0.563 l -0.281 -0.563 l -0.656 -0.5 l -0.156 -0.813 l -0.281 -0.469 l -0.313 -0.594 l -0.406 -0.719 l -0.094 -0.469 l 0.438 -0.063 l 0.25 0.531 l 0.5 0.938 l 0.375 0.688 l 0.406 0.75 l 0.438 0.719 l 0.594 0.594 l 0.531 -0.5 l 0.594 -0.156 l 0.438 -0.531 l 0.594 -0.344 l 0.344 -0.594 l 0.031 -0.5 l -0.281 -0.313 l -0.375 -0.438 l -0.25 0.156 l -0.156 0.25 l -0.406 -0.188 l -0.125 -0.313 l -0.281 -0.406 l -0.438 -0.406 l 0 -0.813 l 0.281 0.531 l 0.344 0.531 l 0.594 0.344 l 0.406 -0.094 l 0.25 0.281 l 1.781 -0.031 l -0.031 0.031 l 0.563 0.5 l 0.406 0.563 l 0.125 0.281 l 0.281 0 l 0.094 -0.313 l 0.094 0.469 l 0.156 0.844 l 0.344 0.813 l 0.188 0.688 l 0.281 0.656 l 0.219 0.281 l 0.313 -0.188 l 0.094 -0.313 l 0.125 -0.781 l -0.031 -0.688 l 0.25 -0.313 c 0 0 0.265 -0.363 0.313 -0.375 c 0.048 -0.012 0.625 -0.656 0.625 -0.656 l 0.281 -0.344 l 0.313 -0.188 l 0.375 -0.219 l 0.156 0 l 0.063 0.344 l 0.156 0.406 l 0.5 0.656 l 0 0.25 l 0.094 0.281 l 0.344 -0.156 l -0.031 -0.375 l 0.313 0.063 l 0.063 0.344 l -0.031 0.531 l 0.094 0.375 l 0.281 0.063 l 0.094 -0.313 l 0.344 0.219 l 0.063 0.313 l 0.313 0.469 l 0.313 0.344 l 0.219 0.188 l 0.531 -0.469 l 0.219 -0.438 l -0.094 -0.5 l -0.094 -0.656 l -0.594 -0.563 l -0.094 -0.563 l 0.25 -0.406 c 0 0 0.16 -0.322 0.313 -0.156 c 0.152 0.166 0.224 0.193 0.156 0.375 c -0.068 0.182 -0.188 0.594 -0.188 0.594 l 0.375 0.156 l 0.156 -0.531 l -0.156 -0.375 l 0.375 -0.156 l 0.688 -0.344 l 0.438 -0.531 l 0.344 -0.813 l -0.031 -0.594 l -0.344 -0.781 l -0.688 -0.813 l -0.438 -0.406 l -0.219 -0.625 l 0.406 -0.094 c 0 0 0.235 -0.403 0.438 -0.188 c 0.203 0.215 0.5 0.531 0.5 0.531 c 0 0 0.356 0.559 0.406 0.625 c 0.051 0.066 0.418 0.402 0.469 0.469 c 0.051 0.066 0.281 0.313 0.281 0.313 l 0.375 -0.531 l 0.094 -0.094 l 0 -0.188 l -0.531 -0.313 l -0.469 -0.438 l 0.344 -0.75 l 0.563 -0.281 l 0.094 -0.25 l 0 -1.469 l -0.281 -0.563 l -0.313 -0.438 c 0 0 -0.322 -0.048 -0.406 -0.031 c -0.085 0.017 -0.781 -0.5 -0.781 -0.5 l 0.063 -0.5 l 0.25 -0.438 l 1.188 -0.156 l 0.281 0.031 l 0 -0.313 l -1.719 -2.25 l -1.656 -0.188 l -1.281 -0.313 c 0 0 -0.391 0.296 -0.594 0.313 c -0.203 0.017 -0.906 0.125 -0.906 0.125 l -0.719 -0.438 l -1.5 -0.125 l -0.063 -0.031 l -1.281 -0.063 l -0.781 -0.438 z m -11.719 4.875 l 3.563 -2.688 l -1.219 0.656 l -0.313 -0.219 l -0.156 -0.25 l 0.063 -0.25 l 0.688 0.031 l 0.313 -0.125 l -0.625 -0.313 l -0.875 -0.313 l -0.875 -0.156 l -0.938 0.188 l -0.969 0.781 l -0.438 0.438 l -0.656 0.719 l -0.25 0.031 l -0.094 0.344 l 0.125 0.344 c 0 0 0.134 0.156 0.156 0.156 c 0.023 0 0.25 -0.125 0.25 -0.125 c 0 0 0.027 -0.118 0.156 -0.156 c 0.13 -0.039 0.25 -0.063 0.25 -0.063 l 0.188 0.375 l 0.219 0.313 l 0.094 0.25 c 0 0 0.364 -0.222 0.375 -0.25 c 0.011 -0.028 0.031 -0.406 0.031 -0.406 l 0.281 -0.188 c 0 0 0.074 -0.134 0.063 -0.156 c -0.011 -0.022 -0.188 -0.219 -0.188 -0.219 l -0.156 -0.063 l 0.063 -0.313 c 0 0 0.125 -0.05 0.125 -0.094 c 0 -0.044 0.188 -0.188 0.188 -0.188 l 0.219 -0.281 l 0.156 -0.188 l 0.219 -0.156 l 0.25 0.188 l 0 0.125 l -0.219 0.25 l -0.063 0.25 l 0 0.344 l 0.188 0.156 l 0.344 -0.031 l 0.313 -0.063 l 0.281 0.156 l -0.063 0.219 c 0 0 -0.194 0.188 -0.25 0.219 c -0.056 0.031 -0.412 -0.063 -0.5 -0.031 c -0.088 0.031 -0.313 0.313 -0.313 0.313 c 0 0 -0.024 0.25 0 0.313 c 0.009 0.025 0.009 0.064 0 0.125 z m 3.656 -2.688 l 4 -0.688 l -0.031 -0.156 l -0.313 -0.438 l -0.656 -0.063 c 0 0 0.156 0.667 0.156 0.75 c 0 0.083 -0.438 0.031 -0.438 0.031 l -0.75 0.031 c 0 0 -1.084 0.25 -1.219 0.25 c -0.13 0 -0.763 0.261 -0.813 0.281 l 0.063 0 z m -25.16 -1.813 l -0.5 0.563 l 0.438 0.219 l 0.563 -0.25 l 0.031 0.625 l 0.469 0.313 l 0.5 -0.469 l 0.688 0.125 l 0.281 -0.656 l -1.125 -0.094 l -1.344 -0.375 z m 3.125 0.094 l 0.438 1.094 l -0.531 0.063 l -0.406 0.5 l -0.906 -0.281 l -0.813 0.313 l -0.781 -0.188 l -0.906 -0.563 l -1.25 0.031 l -1.094 0.469 l -0.719 -0.344 l -0.438 -0.031 l 0 13.594 l 0.844 0.469 l 0.5 -0.063 l 0.719 0.344 l 1.094 0.594 l 0.156 0.719 l 0.875 0.844 l 0.5 -0.375 l 0.406 0.313 l -0.063 -0.719 l -0.781 0.188 l -0.25 -0.906 l -0.094 -0.406 l -0.688 -0.625 l 0 -0.438 l 0.531 -0.563 l -0.344 -0.406 l -0.563 0.094 l -0.844 0.844 l -0.688 -0.094 c 0 0 -0.311 -0.531 -0.375 -0.656 c -0.064 -0.125 0.188 -0.563 0.188 -0.563 l -0.063 -1.281 l 0.719 -0.5 l 0.563 -0.188 l 0.813 0 l 1.125 -0.25 l 0.406 0.531 l -0.063 0.625 l 0.469 0.406 l 0.063 -0.438 c 0 0 -0.03 -0.719 -0.094 -0.906 c -0.064 -0.187 0.563 -0.625 0.563 -0.625 l 0.5 -0.625 l 0.594 -0.719 l 0.281 -0.563 l 0.938 -0.5 l 0.625 -0.688 c 0 0 0.934 -0.156 1.125 -0.25 c 0.191 -0.094 0.066 -0.438 -0.125 -0.75 c -0.191 -0.312 0.094 -0.625 0.094 -0.625 l 0.719 -0.438 l 0.625 0.125 l 0.063 0.75 c 0 0 0.59 0.562 0.781 0.469 c 0.191 -0.094 0.281 -0.406 0.281 -0.406 l -0.313 -0.813 l 0.188 -0.813 l -0.844 0.125 l 0 -0.844 l 0 -0.531 l -0.25 0.25 l -0.656 0.031 l -0.094 -0.688 l -0.438 -0.531 c 0 0 -0.429 0.25 -0.844 0.406 c -0.415 0.156 -0.313 0.469 -0.313 0.469 l -0.031 0.844 l -0.688 0.563 l -0.438 0.656 c 0 0 -0.281 -0.188 -0.281 -0.313 c 0 -0.125 -0.063 -0.469 -0.063 -0.469 l -0.719 -0.563 c 0 0 -0.562 -0.406 -0.594 -0.531 c -0.032 -0.125 0.344 -0.688 0.344 -0.688 c 0 0 0.809 -0.5 1 -0.656 c 0.191 -0.156 1.216 0.344 1.344 0.25 c 0.128 -0.094 0.625 -0.875 0.625 -0.875 l 0.438 -0.594 l -0.438 0.5 l -0.75 -0.719 l 0.125 -0.719 l -1.031 -0.156 z m 2.5 0.031 l -0.25 0.625 l 0.156 0.344 l 0.563 -0.063 l 0.25 0.469 l -0.5 0.531 l -0.563 0.063 l 0.5 0.219 l 0.531 0.469 l 0.531 0.125 l 0.188 -0.719 l 0.031 -0.438 l 0.625 0.094 c 0 0 -0.189 0.313 -0.094 0.313 c 0.096 0 0.469 -0.406 0.469 -0.406 l -1.063 -1.094 c 0 0 -0.435 -0.344 -0.563 -0.25 c -0.128 0.094 -0.469 0.063 -0.469 0.063 l -0.344 -0.344 z m 8.688 1.781 l -0.125 0.406 c 0.454 0.351 0.625 0.344 0.625 0.344 l 0.531 -0.125 l 0.344 -0.344 l -0.219 -0.281 l -0.719 0 l -0.438 0 z m 2.781 1.781 l -0.25 0.219 c -0.072 0.305 -0.156 0.625 -0.156 0.625 l 0.469 0.219 l 0.063 0.281 l -0.25 0.25 l -0.219 0.375 l 0.156 0.156 l 0.563 -0.094 l 0.5 -0.219 l -0.281 -0.375 l -0.094 -0.656 l -0.344 -0.375 l -0.156 -0.406 z m -0.781 1.188 l -0.281 0.469 l 0.375 0.156 l 0.156 -0.281 l -0.25 -0.344 z m -15.438 1.094 l 0.656 0.281 l 0.438 0.563 l 0.281 0.438 c 0 0 -0.249 0.844 -0.313 1 c -0.064 0.156 -0.25 -0.313 -0.25 -0.313 l -0.156 -0.813 l -0.531 0.219 l -0.406 0.969 l 0.094 -0.813 l 0.125 -0.563 l -0.656 -0.25 l 0.563 -0.531 l 0.156 -0.188 z m 26.375 0.75 c 0.135 -0.044 0.375 0.156 0.375 0.156 l -0.25 0.219 l 0.094 0.313 l 0.281 0.75 l 0.281 0.469 l 0.375 0.594 l -0.406 0.188 l -0.531 -0.344 l -0.219 -0.656 c 0 0 -0.302 -0.402 -0.438 -0.469 c -0.135 -0.066 -0.25 -0.281 -0.25 -0.281 l 0.125 -0.531 c 0 0 0.427 -0.362 0.563 -0.406 z m -7.906 1.188 l -0.375 0.719 l 0.281 0.281 l 0.25 -0.219 l 0.031 -0.313 l -0.188 -0.469 z m -1.25 0.75 l 0 0.188 l 0.156 -0.031 l -0.156 -0.156 z m 2.156 0.469 l -0.188 0.063 l 0.313 0.531 l 0.281 -0.219 l -0.406 -0.375 z m -20.12 4.188 l -0.313 0.156 l 0.531 0.281 l 0.594 0.125 l 0.344 0.469 l 0.406 -0.25 l -0.063 -0.281 l -0.688 -0.5 l -0.813 0 z m 1.688 3.094 l -0.813 0.438 l -0.094 0.906 l -0.188 1 l -0.563 0.75 l 0.031 1.125 l 0.469 1.156 l 0.5 1.406 l 1.313 1.313 l 0.063 0.75 l 0.094 3.375 l 0.469 1.906 c 0 0 0.286 1.099 0.219 1.188 c -0.068 0.088 0.375 0.906 0.375 0.906 l 0.875 1.375 l 1.219 0.531 l -0.5 -0.594 l -0.25 -0.688 l 0.25 -0.719 l -0.656 -0.344 c 0 0 0.432 -0.287 0.5 -0.375 c 0.068 -0.088 -0.094 -0.469 -0.094 -0.469 l -0.188 -0.469 l 0.5 -0.656 l 0.781 -0.188 l 0.125 -0.594 l -0.469 -0.219 l 0.188 -0.5 l 0.75 -0.094 l 0.656 -1.594 l 0.469 -1.094 l 0.969 -0.469 c 0 0 0.313 -0.93 0.313 -1.063 c 0 -0.133 0.094 -1.531 0.094 -1.531 l 0.75 -1.031 l 0.094 -0.688 l -0.563 -0.344 l -0.469 -0.563 l -0.844 0.063 l -1.344 -0.781 l -0.281 -0.656 c 0 0 -0.472 -0.813 -0.563 -0.813 c -0.09 0 -0.656 0.031 -0.656 0.031 l -0.531 -0.531 l -0.344 -0.656 l -1.344 -0.281 l -0.438 -0.219 l -0.875 0 z m 36.438 0.5 c 0.113 0.133 0.816 2.219 0.906 2.219 c 0.09 0 0.625 0.063 0.625 0.063 l -0.281 -0.844 l -1.25 -1.438 z m -3.594 0.063 l -0.313 0.406 l 0.156 0.594 l 0.344 -0.375 l -0.063 -0.469 l -0.125 -0.156 z m 8.094 0.719 l -1.469 0.813 c 0 0.088 -0.719 0.688 -0.719 0.688 l 0.188 0.625 l 0.406 0.469 l 0.281 0.688 l 1.875 -1.219 l -0.563 -2.063 z m -4.594 0.438 l -0.438 0.063 l 2 3 l 0.531 0.594 l 1.313 0.063 l 0.813 0.25 l -0.875 -0.625 l -1.25 -0.344 l -0.313 -1.156 l -0.688 -0.563 l -1.094 -1.281 z m -10.5 4.875 l 0 0.438 c -0.023 0.066 -0.406 0.375 -0.406 0.375 l -0.469 0.219 l -0.344 0.281 l 0.25 0.344 l 0.156 0.156 l -0.406 0.344 l 0 0.563 l 0.156 0.594 l 0.344 0.094 l 0.406 -0.625 l 0.25 -0.406 l -0.063 -0.5 l 0.375 -0.594 l 0.125 -0.281 l 0 -0.563 l -0.094 -0.438 l -0.281 0 z m 16.06 0.719 c -0.003 0.002 -0.031 0.031 -0.031 0.031 l -0.5 1.031 c 0 0 -1.102 0.162 -1.125 0.25 c -0.023 0.088 -0.563 0.375 -0.563 0.375 c -0.113 0 -0.469 0.656 -0.469 0.656 l -0.063 2.063 l -0.125 0.75 l 0.313 0.406 l 1.531 -0.531 l 0.5 -0.563 l 0.531 0 l 0 -4.469 z m -36.531 8.75 l -0.219 0.156 l -0.094 0.031 l 0.5 0.25 l -0.188 -0.438 z m -0.844 0.188 l -0.219 0.5 l 0.438 -0.094 l -0.219 -0.406 z m 1.5 4.125 l -0.469 0.719 l -0.875 0.406 l 0.5 0.625 l -0.75 0.375 l -2.469 -0.125 l -0.75 -0.75 l -0.656 -0.125 l 0.656 1.375 l -1.156 -0.219 l -3.969 0.125 l -0.844 1.094 l -1.219 -0.125 l -0.125 0.25 l 0 4.094 l 45.28 0 l 2.719 -1.781 l 0 -1.906 l -0.125 -1.188 l -0.969 -0.219 l -1.219 0.156 l -0.875 0.781 l -1.469 0.594 l 0.625 -0.75 l 1.344 -0.781 l 2.156 -0.5 l 0.25 -0.875 l -1 0 c 0 0 -1.344 -0.667 -1.344 -0.844 c 0 -0.177 -1.5 -0.125 -1.5 -0.125 l -1.719 0.188 l -1.656 -0.094 l -3.313 0.125 l -3.063 0.625 c 0 0 -1.476 0.794 -1.656 0.75 c -0.18 -0.044 0.625 -1.031 0.625 -1.031 l -1.438 0.094 l -0.906 -0.75 l -0.906 0.625 c 0 0 -1.216 0.094 -1.531 0.094 c -0.316 0 -0.719 0.563 -0.719 0.563 l -2.469 -0.094 l -4.25 0.188 l -1.125 0.969 l -0.281 0.031 l -3.219 -0.219 l -2.219 0.219 l -0.781 -0.375 l 0.031 -0.063 c 0 0 -0.656 -1.323 -0.656 -1.5 c 0 -0.177 -0.5 -0.625 -0.5 -0.625 z m 0.344 3.188 l 1.344 0.438 l -1.656 0 l -0.656 -0.344 l 0.969 -0.094 z" fill="#afdbef"/></g></g></g><g><g transform="translate(0,-1004.3622)"><path d="m 1 1043.36 0 4 c 0 2.216 1.784 4 4 4 l 38 0 c 2.216 0 4 -1.784 4 -4 l 0 -4 c 0 2.216 -1.784 4 -4 4 l -38 0 c -2.216 0 -4 -1.784 -4 -4 z" opacity="0.1"/></g></g></svg>