<svg viewBox="0 0 48 48"><defs><linearGradient id="linearGradient3764" y1="1" x2="0" y2="47" gradientUnits="userSpaceOnUse"><stop stop-color="#eee" stop-opacity="1"/><stop offset="1" stop-color="#e4e4e4" stop-opacity="1"/></linearGradient><clipPath id="clipPath-659410064"><g transform="translate(0,-1004.3622)"><path d="m 24 1005.37 c -1.045 0 -2.023 0.287 -2.856 0.784 l -15.339 8.708 c -0.017 0.013 -0.035 0.013 -0.052 0.021 -1.852 1.051 -2.847 3 -2.746 4.968 l 0 17.02 c -0.056 1.013 0.175 2.049 0.729 2.993 0.532 0.903 1.288 1.602 2.161 2.061 l 15.246 8.653 c 0.832 0.497 1.811 0.784 2.856 0.784 1.045 0 2.023 -0.287 2.856 -0.784 l 15.246 -8.653 c 0.873 -0.46 1.629 -1.158 2.161 -2.061 0.554 -0.944 0.785 -1.981 0.729 -2.993 l 0 -17.01 c 0.056 -1.012 -0.175 -2.052 -0.729 -2.993 -0.532 -0.906 -1.288 -1.604 -2.161 -2.064 l -15.246 -8.653 c -0.832 -0.497 -1.811 -0.784 -2.856 -0.784 z" fill="#1890d0"/></g></clipPath><clipPath id="clipPath-667998252"><g transform="translate(0,-1004.3622)"><path d="m 24 1005.37 c -1.045 0 -2.023 0.287 -2.856 0.784 l -15.339 8.708 c -0.017 0.013 -0.035 0.013 -0.052 0.021 -1.852 1.051 -2.847 3 -2.746 4.968 l 0 17.02 c -0.056 1.013 0.175 2.049 0.729 2.993 0.532 0.903 1.288 1.602 2.161 2.061 l 15.246 8.653 c 0.832 0.497 1.811 0.784 2.856 0.784 1.045 0 2.023 -0.287 2.856 -0.784 l 15.246 -8.653 c 0.873 -0.46 1.629 -1.158 2.161 -2.061 0.554 -0.944 0.785 -1.981 0.729 -2.993 l 0 -17.01 c 0.056 -1.012 -0.175 -2.052 -0.729 -2.993 -0.532 -0.906 -1.288 -1.604 -2.161 -2.064 l -15.246 -8.653 c -0.832 -0.497 -1.811 -0.784 -2.856 -0.784 z" fill="#1890d0"/></g></clipPath><filter id="filter-641498263"><feGaussianBlur stdDeviation="0.35"/></filter></defs><g><g transform="translate(0,-1004.3622)"><path d="m 45 1037.36 c 0.056 1.013 -0.196 2.056 -0.75 3 -0.532 0.903 -1.283 1.603 -2.156 2.063 l -15.25 8.656 c -0.832 0.497 -1.799 0.781 -2.844 0.781 -1.045 0 -2.01 -0.284 -2.844 -0.781 l -15.25 -8.656 c -0.873 -0.46 -1.625 -1.159 -2.156 -2.063 -0.416 -0.708 -0.677 -1.485 -0.75 -2.25 -0.004 0.932 0.242 1.884 0.75 2.75 0.532 0.903 1.283 1.603 2.156 2.063 l 15.25 8.656 c 0.832 0.497 1.799 0.781 2.844 0.781 1.045 0 2.01 -0.284 2.844 -0.781 l 15.25 -8.656 c 0.873 -0.46 1.625 -1.159 2.156 -2.063 0.554 -0.944 0.806 -1.987 0.75 -3 l 0 -0.5 z" opacity="0.05"/><path d="m 45 1036.86 c 0.015 0.263 -0.004 0.516 -0.031 0.781 -0.036 0.844 -0.259 1.685 -0.719 2.469 -0.532 0.903 -1.283 1.603 -2.156 2.063 l -15.25 8.656 c -0.832 0.497 -1.799 0.781 -2.844 0.781 -1.045 0 -2.01 -0.284 -2.844 -0.781 l -15.25 -8.656 c -0.873 -0.46 -1.625 -1.159 -2.156 -2.063 -0.414 -0.705 -0.621 -1.46 -0.688 -2.219 -0.014 -0.092 -0.054 -0.189 -0.063 -0.281 -0.004 0.932 0.242 1.884 0.75 2.75 0.532 0.903 1.283 1.603 2.156 2.063 l 15.25 8.656 c 0.832 0.497 1.799 0.781 2.844 0.781 1.045 0 2.01 -0.284 2.844 -0.781 l 15.25 -8.656 c 0.873 -0.46 1.625 -1.159 2.156 -2.063 0.554 -0.944 0.806 -1.987 0.75 -3 l 0 -0.5 z m -41.813 1.625 c 0.057 0.219 0.132 0.442 0.219 0.656 -0.088 -0.216 -0.16 -0.436 -0.219 -0.656 z m 0.219 0.656 c 0.099 0.243 0.206 0.484 0.344 0.719 -0.139 -0.236 -0.243 -0.472 -0.344 -0.719 z m 41.41 -0.656 c -0.059 0.221 -0.131 0.441 -0.219 0.656 0.087 -0.215 0.161 -0.437 0.219 -0.656 z m -0.219 0.656 c -0.101 0.246 -0.205 0.483 -0.344 0.719 0.138 -0.235 0.245 -0.476 0.344 -0.719 z" opacity="0.1"/><path d="m 3.03 1037.64 c 0.035 0.844 0.259 1.685 0.719 2.469 0.532 0.903 1.283 1.603 2.156 2.063 l 15.25 8.656 c 0.832 0.497 1.799 0.781 2.844 0.781 1.045 0 2.01 -0.284 2.844 -0.781 l 15.25 -8.656 c 0.873 -0.46 1.625 -1.159 2.156 -2.063 0.46 -0.784 0.683 -1.624 0.719 -2.469 -0.067 0.763 -0.303 1.511 -0.719 2.219 -0.532 0.903 -1.283 1.603 -2.156 2.063 l -15.25 8.656 c -0.832 0.497 -1.799 0.781 -2.844 0.781 -1.045 0 -2.01 -0.284 -2.844 -0.781 l -15.25 -8.656 c -0.873 -0.46 -1.625 -1.159 -2.156 -2.063 -0.416 -0.708 -0.651 -1.456 -0.719 -2.219 z" opacity="0.2"/></g></g><g><path d="m 24 46.996 c 1.045 0 2.023 -0.287 2.856 -0.784 l 15.339 -8.708 c 0.017 -0.013 0.035 -0.013 0.052 -0.021 1.852 -1.051 2.847 -3 2.746 -4.968 l 0 -17.02 c 0.056 -1.013 -0.175 -2.049 -0.729 -2.993 -0.532 -0.903 -1.288 -1.602 -2.161 -2.061 l -15.246 -8.653 c -0.832 -0.497 -1.811 -0.784 -2.856 -0.784 -1.045 0 -2.023 0.287 -2.856 0.784 l -15.246 8.653 c -0.873 0.46 -1.629 1.158 -2.161 2.061 -0.554 0.944 -0.785 1.981 -0.729 2.993 l 0 17.01 c -0.056 1.012 0.175 2.051 0.729 2.993 0.532 0.906 1.288 1.604 2.161 2.064 l 15.246 8.653 c 0.832 0.497 1.811 0.785 2.856 0.785 z" fill="url(#linearGradient3764)" fill-opacity="1"/></g><g><g clip-path="url(#clipPath-659410064)"><g opacity="0.25"><g transform="translate(0,1)"><g filter="url(#filter-641498263)"><!-- color: #eeeeee --><path d="m 9 0 -9 0 0 48 9 0 z" fill="#000"/><path d="m 39 6.563 c 4.898 4.219 8 10.469 8 17.438 0 6.969 -3.102 13.219 -8 17.438 z m 0 0" fill="#000"/><path d="m 39 0 0 15 9 0 c 0 -2 0 -14 0 -15 -2 0 -8.535 0 -9 0 z" fill="#000"/><path d="m 39 15 0 9 9 0 c 0 -3.199 0 -8 0 -9 z" fill="#000"/><path d="m 39 24 0 9 9 0 0 -9 z" fill="#000"/><path d="m 39 33 0 15 9 0 0 -15 z" fill="#000"/><path d="m 23.13 26.688 -3.801 -4.578 -0.457 -4.68 5.488 -1.508 3.617 1.105 l 1.023 2.973 l -0.742 1.754 -4.422 4.98 z m 0 0" fill-opacity="0.941" fill="#000"/><path d="m 14 33 20 0 0 -1 c -0.523 -2.309 -3.207 -5.504 -6.551 -6.871 l -2.184 2.121 -0.691 -0.457 -1.918 -0.043 -0.613 0.707 -2.32 -2.301 c -2.559 1.125 -5.195 4.133 -5.723 6.844 z m 0 0" fill="#000"/><path d="m 23.574 14.797 0.004 0 c 2.219 0 4.02 2.293 4.02 5.121 l 0 0.004 c 0 2.828 -1.801 5.117 -4.02 5.117 l -0.004 0 c -2.223 0 -4.02 -2.289 -4.02 -5.117 l 0 -0.004 c 0 -2.828 1.801 -5.121 4.02 -5.121 z m 0 0" fill="#000"/><path d="m 26.375 23.879 c 0.43 -0.422 1.504 -1.293 1.625 -1.879 l 0.801 -2 -0.809 -1.383 -6.406 -2.383 -1.043 0.883 -1.727 2.25 0.426 2.535 0.223 0.648 1.305 1.324 z m 0 0" fill="#000"/><path d="m 19.5 22.566 0 -3.133 c 0.32 -1.367 1.645 -2.75 2.301 -2.734 1.129 0.145 1.918 1.141 2.59 2.109 0.672 0.801 3.059 0.688 3.609 -0.078 0 1.168 0 2.102 0 3.27 0.629 -0.242 0.867 -1.195 1 -2 0 -9.156 -11 -9.293 -11 -0.566 0.094 1.086 0.867 2.617 1.5 3.133 z m 0 0" fill="#000"/><path d="m 23.578 26.766 2.797 -2.898 1.398 1.449 -2.801 2.898 z m 0 0" fill="#000"/><path d="m 20.781 23.871 2.797 2.898 -1.398 1.449 -2.797 -2.902 z m 0 0" fill="#000"/></g></g></g></g></g><g><g clip-path="url(#clipPath-667998252)"><!-- color: #eeeeee --><path d="m 9 0 -9 0 0 48 9 0 z" fill="#47a6eb"/><path d="m 39 6.563 c 4.898 4.219 8 10.469 8 17.438 0 6.969 -3.102 13.219 -8 17.438 z m 0 0" fill="#5c4f3a"/><path d="m 39 0 0 15 9 0 c 0 -2 0 -14 0 -15 -2 0 -8.535 0 -9 0 z" fill="#f8e87d"/><path d="m 39 15 0 9 9 0 c 0 -3.199 0 -8 0 -9 z" fill="#59e394"/><path d="m 39 24 0 9 9 0 0 -9 z" fill="#38c7d9"/><path d="m 39 33 0 15 9 0 0 -15 z" fill="#ee6682"/><path d="m 23.13 26.688 -3.801 -4.578 -0.457 -4.68 5.488 -1.508 3.617 1.105 l 1.023 2.973 l -0.742 1.754 -4.422 4.98 z m 0 0" fill="#cf8f91" fill-opacity="0.941"/><path d="m 14 33 20 0 0 -1 c -0.523 -2.309 -3.207 -5.504 -6.551 -6.871 l -2.184 2.121 -0.691 -0.457 -1.918 -0.043 -0.613 0.707 -2.32 -2.301 c -2.559 1.125 -5.195 4.133 -5.723 6.844 z m 0 0" fill="#cf352b"/><path d="m 23.574 14.797 0.004 0 c 2.219 0 4.02 2.293 4.02 5.121 l 0 0.004 c 0 2.828 -1.801 5.117 -4.02 5.117 l -0.004 0 c -2.223 0 -4.02 -2.289 -4.02 -5.117 l 0 -0.004 c 0 -2.828 1.801 -5.121 4.02 -5.121 z m 0 0" fill="#fcc"/><path d="m 26.375 23.879 c 0.43 -0.422 1.504 -1.293 1.625 -1.879 l 0.801 -2 -0.809 -1.383 -6.406 -2.383 -1.043 0.883 -1.727 2.25 0.426 2.535 0.223 0.648 1.305 1.324 z m 0 0" fill="#fcc"/><path d="m 19.5 22.566 0 -3.133 c 0.32 -1.367 1.645 -2.75 2.301 -2.734 1.129 0.145 1.918 1.141 2.59 2.109 0.672 0.801 3.059 0.688 3.609 -0.078 0 1.168 0 2.102 0 3.27 0.629 -0.242 0.867 -1.195 1 -2 0 -9.156 -11 -9.293 -11 -0.566 0.094 1.086 0.867 2.617 1.5 3.133 z m 0 0" fill="#d1382b"/><path d="m 23.578 26.766 2.797 -2.898 1.398 1.449 -2.801 2.898 z m 0 0" fill="#b3d4cf"/><path d="m 20.781 23.871 2.797 2.898 -1.398 1.449 -2.797 -2.902 z m 0 0" fill="#b3d4cf"/></g></g><g><path d="m 24 1 c -1.045 0 -2.01 0.284 -2.844 0.781 l -15.344 8.719 c -0.017 0.013 -0.045 0.023 -0.063 0.031 c -1.852 1.051 -2.851 3 -2.75 4.969 l 0 1 c -0.101 -1.966 0.898 -3.918 2.75 -4.969 c 0.017 -0.008 0.045 -0.018 0.063 -0.031 l 15.344 -8.719 c 0.832 -0.497 1.799 -0.781 2.844 -0.781 c 1.045 0 2.01 0.284 2.844 0.781 l 15.25 8.656 c 0.873 0.46 1.625 1.156 2.156 2.063 c 0.554 0.942 0.806 1.988 0.75 3 l 0 -1 c 0.056 -1.012 -0.196 -2.058 -0.75 -3 c -0.532 -0.906 -1.283 -1.603 -2.156 -2.063 l -15.25 -8.656 c -0.832 -0.497 -1.799 -0.781 -2.844 -0.781 z" opacity="0.2" fill="#fff"/></g></svg>