<svg viewBox="0 0 48 48"><defs><linearGradient id="linearGradient3764" x1="1" x2="47" gradientUnits="userSpaceOnUse" gradientTransform="translate(-48.000001,0.00221467)"><stop stop-color="#108abc" stop-opacity="1"/><stop offset="1" stop-color="#1197ce" stop-opacity="1"/></linearGradient><clipPath id="clipPath-526920149"><g transform="translate(0,-1004.3622)"><rect rx="4" y="1005.36" x="1" height="46" width="46" fill="#1890d0"/></g></clipPath><clipPath id="clipPath-539937471"><g transform="translate(0,-1004.3622)"><rect rx="4" y="1005.36" x="1" height="46" width="46" fill="#1890d0"/></g></clipPath></defs><g><path d="m 1 43 l 0 0.25 c 0 2.216 1.784 4 4 4 l 38 0 c 2.216 0 4 -1.784 4 -4 l 0 -0.25 c 0 2.216 -1.784 4 -4 4 l -38 0 c -2.216 0 -4 -1.784 -4 -4 z m 0 0.5 l 0 0.5 c 0 2.216 1.784 4 4 4 l 38 0 c 2.216 0 4 -1.784 4 -4 l 0 -0.5 c 0 2.216 -1.784 4 -4 4 l -38 0 c -2.216 0 -4 -1.784 -4 -4 z" opacity="0.02"/><path d="m 1 43.25 l 0 0.25 c 0 2.216 1.784 4 4 4 l 38 0 c 2.216 0 4 -1.784 4 -4 l 0 -0.25 c 0 2.216 -1.784 4 -4 4 l -38 0 c -2.216 0 -4 -1.784 -4 -4 z" opacity="0.05"/><path d="m 1 43 l 0 0.25 c 0 2.216 1.784 4 4 4 l 38 0 c 2.216 0 4 -1.784 4 -4 l 0 -0.25 c 0 2.216 -1.784 4 -4 4 l -38 0 c -2.216 0 -4 -1.784 -4 -4 z" opacity="0.1"/></g><g><rect width="46" height="46" x="-47" y="1" rx="4" transform="matrix(0,-1,1,0,0,0)" fill="url(#linearGradient3764)" fill-opacity="1"/></g><g><g clip-path="url(#clipPath-526920149)"><g opacity="0.1"><!-- color: #1197ce --><g><path d="m 17.53 0 c -2.75 4.965 -5.932 14.832 -2.467 20.16 4.945 7.855 12.922 7.855 17.938 0 2.141 -3.352 1.996 -9.148 -4.438 -12.06 c -3.664 -1.66 -6.483 -5.832 -8.171 -8.094 -1.168 0 -2.392 0 -2.862 0 z" fill="#000"/></g></g></g></g><g><g clip-path="url(#clipPath-539937471)"><g transform="translate(0,-1)"><!-- color: #1197ce --><g><path d="m 17.53 0 c -2.75 4.965 -5.932 14.832 -2.467 20.16 4.945 7.855 12.922 7.855 17.938 0 2.141 -3.352 1.996 -9.148 -4.438 -12.06 c -3.664 -1.66 -6.483 -5.832 -8.171 -8.094 -1.168 0 -2.392 0 -2.862 0 z" fill="#f8f8f8"/></g></g></g></g><g><g transform="translate(0,-1004.3622)"><path d="m 1 1043.36 0 4 c 0 2.216 1.784 4 4 4 l 38 0 c 2.216 0 4 -1.784 4 -4 l 0 -4 c 0 2.216 -1.784 4 -4 4 l -38 0 c -2.216 0 -4 -1.784 -4 -4 z" opacity="0.1"/></g></g></svg>