<svg viewBox="0 0 48 48"><defs><linearGradient id="linearGradient3764" x1="1" x2="47" gradientUnits="userSpaceOnUse" gradientTransform="translate(-48.000001,0.00221467)"><stop stop-color="#5c5c5c" stop-opacity="1"/><stop offset="1" stop-color="#666" stop-opacity="1"/></linearGradient><clipPath id="clipPath-870322398"><g transform="translate(0,-1004.3622)"><rect rx="4" y="1005.36" x="1" height="46" width="46" fill="#1890d0"/></g></clipPath><clipPath id="clipPath-896375442"><g transform="translate(0,-1004.3622)"><rect rx="4" y="1005.36" x="1" height="46" width="46" fill="#1890d0"/></g></clipPath></defs><g><path d="m 1 43 l 0 0.25 c 0 2.216 1.784 4 4 4 l 38 0 c 2.216 0 4 -1.784 4 -4 l 0 -0.25 c 0 2.216 -1.784 4 -4 4 l -38 0 c -2.216 0 -4 -1.784 -4 -4 z m 0 0.5 l 0 0.5 c 0 2.216 1.784 4 4 4 l 38 0 c 2.216 0 4 -1.784 4 -4 l 0 -0.5 c 0 2.216 -1.784 4 -4 4 l -38 0 c -2.216 0 -4 -1.784 -4 -4 z" opacity="0.02"/><path d="m 1 43.25 l 0 0.25 c 0 2.216 1.784 4 4 4 l 38 0 c 2.216 0 4 -1.784 4 -4 l 0 -0.25 c 0 2.216 -1.784 4 -4 4 l -38 0 c -2.216 0 -4 -1.784 -4 -4 z" opacity="0.05"/><path d="m 1 43 l 0 0.25 c 0 2.216 1.784 4 4 4 l 38 0 c 2.216 0 4 -1.784 4 -4 l 0 -0.25 c 0 2.216 -1.784 4 -4 4 l -38 0 c -2.216 0 -4 -1.784 -4 -4 z" opacity="0.1"/></g><g><rect width="46" height="46" x="-47" y="1" rx="4" transform="matrix(0,-1,1,0,0,0)" fill="url(#linearGradient3764)" fill-opacity="1"/></g><g><g clip-path="url(#clipPath-870322398)"><g opacity="0.1"><!-- color: #666666 --><g><path d="m 21.332 37 l -7.332 -4.332 l 14.668 -8.668 l 7.332 4.332 m -14.668 8.668" fill-rule="evenodd" fill="#000"/><path d="m 20.996 19.668 l -1 0.332 l 0 -8 l 1 -1 l 15 8.668 l 0 8.664 m -15 -8.664" fill-rule="evenodd" fill="#000"/><path d="m 14 32.668 l 6.996 -4.04 l 0 -17.633 l -6.996 4.332 m 0 17.336" fill-rule="evenodd" fill="#000"/></g></g></g></g><g><g clip-path="url(#clipPath-896375442)"><g transform="translate(0,-1)"><!-- color: #666666 --><g><path d="m 21.332 37 l -7.332 -4.332 l 14.668 -8.668 l 7.332 4.332 m -14.668 8.668" fill="#6bcdea" fill-rule="evenodd"/><path d="m 20.996 19.668 l -1 0.332 l 0 -8 l 1 -1 l 15 8.668 l 0 8.664 m -15 -8.664" fill="#52c1bb" fill-rule="evenodd"/><path d="m 14 32.668 l 6.996 -4.04 l 0 -17.633 l -6.996 4.332 m 0 17.336" fill="#95ec9b" fill-rule="evenodd"/></g></g></g></g><g><g transform="translate(0,-1004.3622)"><path d="m 1 1043.36 0 4 c 0 2.216 1.784 4 4 4 l 38 0 c 2.216 0 4 -1.784 4 -4 l 0 -4 c 0 2.216 -1.784 4 -4 4 l -38 0 c -2.216 0 -4 -1.784 -4 -4 z" opacity="0.1"/></g></g></svg>