<svg viewBox="0 0 48 48"><defs><linearGradient id="linearGradient3764" x1="1" x2="47" gradientUnits="userSpaceOnUse" gradientTransform="translate(-48.000001,0.00221467)"><stop stop-color="#373563" stop-opacity="1"/><stop offset="1" stop-color="#3f3c71" stop-opacity="1"/></linearGradient><clipPath id="clipPath-757401457"><g transform="translate(0,-1004.3622)"><rect rx="4" y="1005.36" x="1" height="46" width="46" fill="#1890d0"/></g></clipPath><clipPath id="clipPath-785237768"><g transform="translate(0,-1004.3622)"><rect rx="4" y="1005.36" x="1" height="46" width="46" fill="#1890d0"/></g></clipPath></defs><g><path d="m 1 43 l 0 0.25 c 0 2.216 1.784 4 4 4 l 38 0 c 2.216 0 4 -1.784 4 -4 l 0 -0.25 c 0 2.216 -1.784 4 -4 4 l -38 0 c -2.216 0 -4 -1.784 -4 -4 z m 0 0.5 l 0 0.5 c 0 2.216 1.784 4 4 4 l 38 0 c 2.216 0 4 -1.784 4 -4 l 0 -0.5 c 0 2.216 -1.784 4 -4 4 l -38 0 c -2.216 0 -4 -1.784 -4 -4 z" opacity="0.02"/><path d="m 1 43.25 l 0 0.25 c 0 2.216 1.784 4 4 4 l 38 0 c 2.216 0 4 -1.784 4 -4 l 0 -0.25 c 0 2.216 -1.784 4 -4 4 l -38 0 c -2.216 0 -4 -1.784 -4 -4 z" opacity="0.05"/><path d="m 1 43 l 0 0.25 c 0 2.216 1.784 4 4 4 l 38 0 c 2.216 0 4 -1.784 4 -4 l 0 -0.25 c 0 2.216 -1.784 4 -4 4 l -38 0 c -2.216 0 -4 -1.784 -4 -4 z" opacity="0.1"/></g><g><rect width="46" height="46" x="-47" y="1" rx="4" transform="matrix(0,-1,1,0,0,0)" fill="url(#linearGradient3764)" fill-opacity="1"/></g><g><g clip-path="url(#clipPath-757401457)"><g opacity="0.1"><!-- color: #3f3c71 --><g><path d="m 20.785 29.21 c -0.883 -0.652 -1.969 0.691 -0.879 1.742 c 7.91 5.219 7.03 2.609 13.184 -3.48 c 1.07 -1.66 -0.469 -2.441 -1.758 -0.867 c -5.273 6.086 -4.395 8.695 -10.547 2.605 m 0 0" fill="#000"/><path d="m 13.922 17 c 0 1.105 -0.895 2 -2 2 c -1.105 0 -2 -0.895 -2 -2 c 0 -1.105 0.895 -2 2 -2 c 1.105 0 2 0.895 2 2 m 0 0" fill="#000"/><path d="m 23.922 9 c -4.273 0 -8.09 1.773 -10.75 4.5 c -1 1.031 -1.828 2.227 -2.5 3.5 l 2.531 0 c 0.543 -0.914 1.18 -1.758 1.906 -2.5 c 2.34 -2.398 5.449 -3.813 8.813 -3.813 c 3.363 0 6.473 1.414 8.813 3.813 c 2.34 2.398 3.844 5.75 3.844 9.5 c 0 3.75 -1.504 7.102 -3.844 9.5 c -2.34 2.398 -5.449 3.813 -8.813 3.813 c -3.363 0 -6.473 -1.414 -8.813 -3.813 c -1.898 -1.945 -3.219 -4.531 -3.656 -7.438 l -2.375 0 c 0.441 3.242 1.891 6.18 4.094 8.438 c 2.664 2.727 6.477 4.5 10.75 4.5 c 4.273 0 8.09 -1.773 10.75 -4.5 c 2.664 -2.727 4.25 -6.43 4.25 -10.5 c 0 -4.07 -1.586 -7.773 -4.25 -10.5 c -2.664 -2.727 -6.477 -4.5 -10.75 -4.5 m 0 0" fill="#000"/><path d="m 21.496 15 l 0.004 0 c 0.828 0 1.5 0.668 1.5 1.496 l 0 7 c 0 0.828 -0.672 1.496 -1.5 1.496 l -0.004 0 c -0.828 0 -1.496 -0.668 -1.496 -1.496 l 0 -7 c 0 -0.828 0.668 -1.496 1.496 -1.496 m 0 0" fill="#000"/><path d="m 25.496 19 l 0.004 0 c 0.828 0 1.5 0.445 1.5 1 l 0 4 c 0 0.551 -0.672 0.996 -1.5 0.996 l -0.004 0 c -0.828 0 -1.496 -0.445 -1.496 -0.996 l 0 -4 c 0 -0.555 0.668 -1 1.496 -1 m 0 0" fill="#000"/><path d="m 28.887 21 l 0.227 0 c 0.488 0 0.883 0.398 0.883 0.887 l 0 2.23 c 0 0.488 -0.395 0.883 -0.883 0.883 l -0.227 0 c -0.492 0 -0.887 -0.395 -0.887 -0.883 l 0 -2.23 c 0 -0.488 0.395 -0.887 0.887 -0.887 m 0 0" fill="#000"/><path d="m 32 21 c 0.551 0 1 0.449 1 1 l 0 2 c 0 0.551 -0.449 0.996 -1 0.996 c -0.551 0 -1 -0.445 -1 -0.996 l 0 -2 c 0 -0.551 0.449 -1 1 -1 m 0 0" fill="#000"/><path d="m 15.375 23.445 l 0 -0.004 c 0.699 -0.445 1.504 -0.43 1.801 0.035 l 2.16 3.367 c 0.301 0.465 -0.023 1.203 -0.723 1.648 l 0 0.004 c -0.699 0.445 -1.504 0.43 -1.801 -0.035 l -2.16 -3.367 c -0.301 -0.461 0.023 -1.203 0.723 -1.648 m 0 0" fill="#000"/></g></g></g></g><g><g clip-path="url(#clipPath-785237768)"><g transform="translate(0,-1)"><!-- color: #3f3c71 --><g><path d="m 20.785 29.21 c -0.883 -0.652 -1.969 0.691 -0.879 1.742 c 7.91 5.219 7.03 2.609 13.184 -3.48 c 1.07 -1.66 -0.469 -2.441 -1.758 -0.867 c -5.273 6.086 -4.395 8.695 -10.547 2.605 m 0 0" fill="#e5f5f9"/><path d="m 13.922 17 c 0 1.105 -0.895 2 -2 2 c -1.105 0 -2 -0.895 -2 -2 c 0 -1.105 0.895 -2 2 -2 c 1.105 0 2 0.895 2 2 m 0 0" fill="#eb76b0"/><path d="m 23.922 9 c -4.273 0 -8.09 1.773 -10.75 4.5 c -1 1.031 -1.828 2.227 -2.5 3.5 l 2.531 0 c 0.543 -0.914 1.18 -1.758 1.906 -2.5 c 2.34 -2.398 5.449 -3.813 8.813 -3.813 c 3.363 0 6.473 1.414 8.813 3.813 c 2.34 2.398 3.844 5.75 3.844 9.5 c 0 3.75 -1.504 7.102 -3.844 9.5 c -2.34 2.398 -5.449 3.813 -8.813 3.813 c -3.363 0 -6.473 -1.414 -8.813 -3.813 c -1.898 -1.945 -3.219 -4.531 -3.656 -7.438 l -2.375 0 c 0.441 3.242 1.891 6.18 4.094 8.438 c 2.664 2.727 6.477 4.5 10.75 4.5 c 4.273 0 8.09 -1.773 10.75 -4.5 c 2.664 -2.727 4.25 -6.43 4.25 -10.5 c 0 -4.07 -1.586 -7.773 -4.25 -10.5 c -2.664 -2.727 -6.477 -4.5 -10.75 -4.5 m 0 0" fill="#eb76b0"/><path d="m 21.496 15 l 0.004 0 c 0.828 0 1.5 0.668 1.5 1.496 l 0 7 c 0 0.828 -0.672 1.496 -1.5 1.496 l -0.004 0 c -0.828 0 -1.496 -0.668 -1.496 -1.496 l 0 -7 c 0 -0.828 0.668 -1.496 1.496 -1.496 m 0 0" fill="#e5f5f9"/><path d="m 25.496 19 l 0.004 0 c 0.828 0 1.5 0.445 1.5 1 l 0 4 c 0 0.551 -0.672 0.996 -1.5 0.996 l -0.004 0 c -0.828 0 -1.496 -0.445 -1.496 -0.996 l 0 -4 c 0 -0.555 0.668 -1 1.496 -1 m 0 0" fill="#e5f5f9"/><path d="m 28.887 21 l 0.227 0 c 0.488 0 0.883 0.398 0.883 0.887 l 0 2.23 c 0 0.488 -0.395 0.883 -0.883 0.883 l -0.227 0 c -0.492 0 -0.887 -0.395 -0.887 -0.883 l 0 -2.23 c 0 -0.488 0.395 -0.887 0.887 -0.887 m 0 0" fill="#e5f5f9"/><path d="m 32 21 c 0.551 0 1 0.449 1 1 l 0 2 c 0 0.551 -0.449 0.996 -1 0.996 c -0.551 0 -1 -0.445 -1 -0.996 l 0 -2 c 0 -0.551 0.449 -1 1 -1 m 0 0" fill="#e5f5f9"/><path d="m 15.375 23.445 l 0 -0.004 c 0.699 -0.445 1.504 -0.43 1.801 0.035 l 2.16 3.367 c 0.301 0.465 -0.023 1.203 -0.723 1.648 l 0 0.004 c -0.699 0.445 -1.504 0.43 -1.801 -0.035 l -2.16 -3.367 c -0.301 -0.461 0.023 -1.203 0.723 -1.648 m 0 0" fill="#e5f5f9"/></g></g></g></g><g><g transform="translate(0,-1004.3622)"><path d="m 1 1043.36 0 4 c 0 2.216 1.784 4 4 4 l 38 0 c 2.216 0 4 -1.784 4 -4 l 0 -4 c 0 2.216 -1.784 4 -4 4 l -38 0 c -2.216 0 -4 -1.784 -4 -4 z" opacity="0.1"/></g></g></svg>