<svg viewBox="0 0 48 48"><defs><linearGradient id="linearGradient3764" x1="1" x2="47" gradientUnits="userSpaceOnUse" gradientTransform="translate(-48.000001,0.00221467)"><stop stop-color="#a2e26e" stop-opacity="1"/><stop offset="1" stop-color="#ace57e" stop-opacity="1"/></linearGradient><clipPath id="clipPath-580122531"><g transform="translate(0,-1004.3622)"><rect rx="4" y="1005.36" x="1" height="46" width="46" fill="#1890d0"/></g></clipPath><clipPath id="clipPath-593641607"><g transform="translate(0,-1004.3622)"><rect rx="4" y="1005.36" x="1" height="46" width="46" fill="#1890d0"/></g></clipPath></defs><g><path d="m 1 43 l 0 0.25 c 0 2.216 1.784 4 4 4 l 38 0 c 2.216 0 4 -1.784 4 -4 l 0 -0.25 c 0 2.216 -1.784 4 -4 4 l -38 0 c -2.216 0 -4 -1.784 -4 -4 z m 0 0.5 l 0 0.5 c 0 2.216 1.784 4 4 4 l 38 0 c 2.216 0 4 -1.784 4 -4 l 0 -0.5 c 0 2.216 -1.784 4 -4 4 l -38 0 c -2.216 0 -4 -1.784 -4 -4 z" opacity="0.02"/><path d="m 1 43.25 l 0 0.25 c 0 2.216 1.784 4 4 4 l 38 0 c 2.216 0 4 -1.784 4 -4 l 0 -0.25 c 0 2.216 -1.784 4 -4 4 l -38 0 c -2.216 0 -4 -1.784 -4 -4 z" opacity="0.05"/><path d="m 1 43 l 0 0.25 c 0 2.216 1.784 4 4 4 l 38 0 c 2.216 0 4 -1.784 4 -4 l 0 -0.25 c 0 2.216 -1.784 4 -4 4 l -38 0 c -2.216 0 -4 -1.784 -4 -4 z" opacity="0.1"/></g><g><rect width="46" height="46" x="-47" y="1" rx="4" transform="matrix(0,-1,1,0,0,0)" fill="url(#linearGradient3764)" fill-opacity="1"/></g><g><g clip-path="url(#clipPath-580122531)"><g opacity="0.1"><!-- color: #ace57e --><g><path d="m 33.438 19 c -0.867 0 -1.438 0.758 -1.438 1.691 l 0 6.617 c 0 0.934 0.57 1.691 1.438 1.691 c 0.863 0 1.563 -0.758 1.563 -1.691 l 0 -6.617 c 0 -0.934 -0.699 -1.691 -1.563 -1.691 m -18.871 0 c -0.867 0 -1.566 0.758 -1.566 1.691 l 0 6.617 c 0 0.934 0.699 1.691 1.566 1.691 c 0.863 0 1.434 -0.758 1.434 -1.691 l 0 -6.617 c 0 -0.934 -0.57 -1.691 -1.434 -1.691 m 0 0" fill="#000"/><path d="m 17 19 l 0 11.594 c 0 0.688 0.324 1.406 1 1.406 l 2 0 l 0 3.375 c 0 0.898 0.316 1.625 1.188 1.625 c 0.867 0 1.813 -0.727 1.813 -1.625 l 0 -3.375 l 2 0 l 0 3.375 c 0 0.898 0.945 1.625 1.813 1.625 c 0.867 0 1.188 -0.727 1.188 -1.625 l 0 -3.375 l 2 0 c 0.676 0 1 -0.719 1 -1.406 l 0 -11.594 m -10.5 2 l 1.25 0 l 2.25 3.594 l 2.5 -3.594 l 1.25 0 l -2.75 4.5 l 3 4.5 l -1.25 0 l -2.75 -3.594 l -2.75 3.594 l -1.25 0 l 3 -4.5 m -2.5 -4.5" fill="#000"/><path d="m 27.316 13.199 l 1.297 -1.844 c 0.074 -0.109 0.055 -0.254 -0.043 -0.32 c -0.102 -0.066 -0.246 -0.035 -0.324 0.074 l -1.34 1.914 c -0.887 -0.344 -1.871 -0.531 -2.906 -0.531 c -1.035 0 -2.02 0.188 -2.906 0.531 l -1.344 -1.914 c -0.074 -0.109 -0.219 -0.141 -0.32 -0.074 c -0.098 0.066 -0.117 0.211 -0.043 0.32 l 1.293 1.844 c -2.055 0.938 -3.496 2.719 -3.68 4.801 l 14 0 c -0.184 -2.082 -1.625 -3.863 -3.684 -4.801 m -6.27 2.902 c -0.43 0 -0.773 -0.34 -0.773 -0.762 c 0 -0.418 0.344 -0.758 0.773 -0.758 c 0.43 0 0.773 0.34 0.773 0.758 c 0 0.422 -0.348 0.762 -0.773 0.762 m 6 0 c -0.43 0 -0.773 -0.34 -0.773 -0.762 c 0 -0.418 0.344 -0.758 0.773 -0.758 c 0.426 0 0.773 0.34 0.773 0.758 c 0 0.422 -0.348 0.762 -0.773 0.762 m 0 0" fill="#000"/></g></g></g></g><g><g clip-path="url(#clipPath-593641607)"><g transform="translate(0,-1)"><!-- color: #ace57e --><g><path d="m 33.438 19 c -0.867 0 -1.438 0.758 -1.438 1.691 l 0 6.617 c 0 0.934 0.57 1.691 1.438 1.691 c 0.863 0 1.563 -0.758 1.563 -1.691 l 0 -6.617 c 0 -0.934 -0.699 -1.691 -1.563 -1.691 m -18.871 0 c -0.867 0 -1.566 0.758 -1.566 1.691 l 0 6.617 c 0 0.934 0.699 1.691 1.566 1.691 c 0.863 0 1.434 -0.758 1.434 -1.691 l 0 -6.617 c 0 -0.934 -0.57 -1.691 -1.434 -1.691 m 0 0" fill="#535353"/><path d="m 17 19 l 0 11.594 c 0 0.688 0.324 1.406 1 1.406 l 2 0 l 0 3.375 c 0 0.898 0.316 1.625 1.188 1.625 c 0.867 0 1.813 -0.727 1.813 -1.625 l 0 -3.375 l 2 0 l 0 3.375 c 0 0.898 0.945 1.625 1.813 1.625 c 0.867 0 1.188 -0.727 1.188 -1.625 l 0 -3.375 l 2 0 c 0.676 0 1 -0.719 1 -1.406 l 0 -11.594 m -10.5 2 l 1.25 0 l 2.25 3.594 l 2.5 -3.594 l 1.25 0 l -2.75 4.5 l 3 4.5 l -1.25 0 l -2.75 -3.594 l -2.75 3.594 l -1.25 0 l 3 -4.5 m -2.5 -4.5" fill="#535353"/><path d="m 27.316 13.199 l 1.297 -1.844 c 0.074 -0.109 0.055 -0.254 -0.043 -0.32 c -0.102 -0.066 -0.246 -0.035 -0.324 0.074 l -1.34 1.914 c -0.887 -0.344 -1.871 -0.531 -2.906 -0.531 c -1.035 0 -2.02 0.188 -2.906 0.531 l -1.344 -1.914 c -0.074 -0.109 -0.219 -0.141 -0.32 -0.074 c -0.098 0.066 -0.117 0.211 -0.043 0.32 l 1.293 1.844 c -2.055 0.938 -3.496 2.719 -3.68 4.801 l 14 0 c -0.184 -2.082 -1.625 -3.863 -3.684 -4.801 m -6.27 2.902 c -0.43 0 -0.773 -0.34 -0.773 -0.762 c 0 -0.418 0.344 -0.758 0.773 -0.758 c 0.43 0 0.773 0.34 0.773 0.758 c 0 0.422 -0.348 0.762 -0.773 0.762 m 6 0 c -0.43 0 -0.773 -0.34 -0.773 -0.762 c 0 -0.418 0.344 -0.758 0.773 -0.758 c 0.426 0 0.773 0.34 0.773 0.758 c 0 0.422 -0.348 0.762 -0.773 0.762 m 0 0" fill="#535353"/></g></g></g></g><g><g transform="translate(0,-1004.3622)"><path d="m 1 1043.36 0 4 c 0 2.216 1.784 4 4 4 l 38 0 c 2.216 0 4 -1.784 4 -4 l 0 -4 c 0 2.216 -1.784 4 -4 4 l -38 0 c -2.216 0 -4 -1.784 -4 -4 z" opacity="0.1"/></g></g></svg>