<svg viewBox="0 0 48 48"><defs><linearGradient id="linearGradient3764" x1="1" x2="47" gradientUnits="userSpaceOnUse" gradientTransform="translate(-48.000001,0.00221467)"><stop stop-color="#e4e4e4" stop-opacity="1"/><stop offset="1" stop-color="#eee" stop-opacity="1"/></linearGradient><clipPath id="clipPath-891755838"><g transform="translate(0,-1004.3622)"><rect rx="4" y="1005.36" x="1" height="46" width="46" fill="#1890d0"/></g></clipPath><clipPath id="clipPath-905059963"><g transform="translate(0,-1004.3622)"><rect rx="4" y="1005.36" x="1" height="46" width="46" fill="#1890d0"/></g></clipPath></defs><g><path d="m 1 43 l 0 0.25 c 0 2.216 1.784 4 4 4 l 38 0 c 2.216 0 4 -1.784 4 -4 l 0 -0.25 c 0 2.216 -1.784 4 -4 4 l -38 0 c -2.216 0 -4 -1.784 -4 -4 z m 0 0.5 l 0 0.5 c 0 2.216 1.784 4 4 4 l 38 0 c 2.216 0 4 -1.784 4 -4 l 0 -0.5 c 0 2.216 -1.784 4 -4 4 l -38 0 c -2.216 0 -4 -1.784 -4 -4 z" opacity="0.02"/><path d="m 1 43.25 l 0 0.25 c 0 2.216 1.784 4 4 4 l 38 0 c 2.216 0 4 -1.784 4 -4 l 0 -0.25 c 0 2.216 -1.784 4 -4 4 l -38 0 c -2.216 0 -4 -1.784 -4 -4 z" opacity="0.05"/><path d="m 1 43 l 0 0.25 c 0 2.216 1.784 4 4 4 l 38 0 c 2.216 0 4 -1.784 4 -4 l 0 -0.25 c 0 2.216 -1.784 4 -4 4 l -38 0 c -2.216 0 -4 -1.784 -4 -4 z" opacity="0.1"/></g><g><rect width="46" height="46" x="-47" y="1" rx="4" transform="matrix(0,-1,1,0,0,0)" fill="url(#linearGradient3764)" fill-opacity="1"/></g><g><g clip-path="url(#clipPath-891755838)"><g opacity="0.1"><!-- color: #eeeeee --><path d="m 9 0 -9 0 0 48 9 0 z" fill="#000"/><path d="m 39 6.563 c 4.898 4.219 8 10.469 8 17.438 0 6.969 -3.102 13.219 -8 17.438 z m 0 0" fill="#000"/><path d="m 39 0 0 15 9 0 c 0 -2 0 -14 0 -15 -2 0 -8.535 0 -9 0 z" fill="#000"/><path d="m 39 15 0 9 9 0 c 0 -3.199 0 -8 0 -9 z" fill="#000"/><path d="m 39 24 0 9 9 0 0 -9 z" fill="#000"/><path d="m 39 33 0 15 9 0 0 -15 z" fill="#000"/><path d="m 23.13 26.688 -3.801 -4.578 -0.457 -4.68 5.488 -1.508 3.617 1.105 l 1.023 2.973 l -0.742 1.754 -4.422 4.98 z m 0 0" fill-opacity="0.941" fill="#000"/><path d="m 14 33 20 0 0 -1 c -0.523 -2.309 -3.207 -5.504 -6.551 -6.871 l -2.184 2.121 -0.691 -0.457 -1.918 -0.043 -0.613 0.707 -2.32 -2.301 c -2.559 1.125 -5.195 4.133 -5.723 6.844 z m 0 0" fill="#000"/><path d="m 23.574 14.797 0.004 0 c 2.219 0 4.02 2.293 4.02 5.121 l 0 0.004 c 0 2.828 -1.801 5.117 -4.02 5.117 l -0.004 0 c -2.223 0 -4.02 -2.289 -4.02 -5.117 l 0 -0.004 c 0 -2.828 1.801 -5.121 4.02 -5.121 z m 0 0" fill="#000"/><path d="m 26.375 23.879 c 0.43 -0.422 1.504 -1.293 1.625 -1.879 l 0.801 -2 -0.809 -1.383 -6.406 -2.383 -1.043 0.883 -1.727 2.25 0.426 2.535 0.223 0.648 1.305 1.324 z m 0 0" fill="#000"/><path d="m 19.5 22.566 0 -3.133 c 0.32 -1.367 1.645 -2.75 2.301 -2.734 1.129 0.145 1.918 1.141 2.59 2.109 0.672 0.801 3.059 0.688 3.609 -0.078 0 1.168 0 2.102 0 3.27 0.629 -0.242 0.867 -1.195 1 -2 0 -9.156 -11 -9.293 -11 -0.566 0.094 1.086 0.867 2.617 1.5 3.133 z m 0 0" fill="#000"/><path d="m 23.578 26.766 2.797 -2.898 1.398 1.449 -2.801 2.898 z m 0 0" fill="#000"/><path d="m 20.781 23.871 2.797 2.898 -1.398 1.449 -2.797 -2.902 z m 0 0" fill="#000"/></g></g></g><g><g clip-path="url(#clipPath-905059963)"><g transform="translate(0,-1)"><!-- color: #eeeeee --><path d="m 9 0 -9 0 0 48 9 0 z" fill="#47a6eb"/><path d="m 39 6.563 c 4.898 4.219 8 10.469 8 17.438 0 6.969 -3.102 13.219 -8 17.438 z m 0 0" fill="#5c4f3a"/><path d="m 39 0 0 15 9 0 c 0 -2 0 -14 0 -15 -2 0 -8.535 0 -9 0 z" fill="#f8e87d"/><path d="m 39 15 0 9 9 0 c 0 -3.199 0 -8 0 -9 z" fill="#59e394"/><path d="m 39 24 0 9 9 0 0 -9 z" fill="#38c7d9"/><path d="m 39 33 0 15 9 0 0 -15 z" fill="#ee6682"/><path d="m 23.13 26.688 -3.801 -4.578 -0.457 -4.68 5.488 -1.508 3.617 1.105 l 1.023 2.973 l -0.742 1.754 -4.422 4.98 z m 0 0" fill="#cf8f91" fill-opacity="0.941"/><path d="m 14 33 20 0 0 -1 c -0.523 -2.309 -3.207 -5.504 -6.551 -6.871 l -2.184 2.121 -0.691 -0.457 -1.918 -0.043 -0.613 0.707 -2.32 -2.301 c -2.559 1.125 -5.195 4.133 -5.723 6.844 z m 0 0" fill="#cf352b"/><path d="m 23.574 14.797 0.004 0 c 2.219 0 4.02 2.293 4.02 5.121 l 0 0.004 c 0 2.828 -1.801 5.117 -4.02 5.117 l -0.004 0 c -2.223 0 -4.02 -2.289 -4.02 -5.117 l 0 -0.004 c 0 -2.828 1.801 -5.121 4.02 -5.121 z m 0 0" fill="#fcc"/><path d="m 26.375 23.879 c 0.43 -0.422 1.504 -1.293 1.625 -1.879 l 0.801 -2 -0.809 -1.383 -6.406 -2.383 -1.043 0.883 -1.727 2.25 0.426 2.535 0.223 0.648 1.305 1.324 z m 0 0" fill="#fcc"/><path d="m 19.5 22.566 0 -3.133 c 0.32 -1.367 1.645 -2.75 2.301 -2.734 1.129 0.145 1.918 1.141 2.59 2.109 0.672 0.801 3.059 0.688 3.609 -0.078 0 1.168 0 2.102 0 3.27 0.629 -0.242 0.867 -1.195 1 -2 0 -9.156 -11 -9.293 -11 -0.566 0.094 1.086 0.867 2.617 1.5 3.133 z m 0 0" fill="#d1382b"/><path d="m 23.578 26.766 2.797 -2.898 1.398 1.449 -2.801 2.898 z m 0 0" fill="#b3d4cf"/><path d="m 20.781 23.871 2.797 2.898 -1.398 1.449 -2.797 -2.902 z m 0 0" fill="#b3d4cf"/></g></g></g><g><g transform="translate(0,-1004.3622)"><path d="m 1 1043.36 0 4 c 0 2.216 1.784 4 4 4 l 38 0 c 2.216 0 4 -1.784 4 -4 l 0 -4 c 0 2.216 -1.784 4 -4 4 l -38 0 c -2.216 0 -4 -1.784 -4 -4 z" opacity="0.1"/></g></g></svg>