<svg viewBox="0 0 48 48"><defs><linearGradient id="linearGradient3764" x1="1" x2="47" gradientUnits="userSpaceOnUse" gradientTransform="translate(-48.000001,0.00221467)"><stop stop-color="#23629d" stop-opacity="1"/><stop offset="1" stop-color="#276dae" stop-opacity="1"/></linearGradient><clipPath id="clipPath-347126011"><g transform="translate(0,-1004.3622)"><rect rx="4" y="1005.36" x="1" height="46" width="46" fill="#1890d0"/></g></clipPath><clipPath id="clipPath-359940596"><g transform="translate(0,-1004.3622)"><rect rx="4" y="1005.36" x="1" height="46" width="46" fill="#1890d0"/></g></clipPath></defs><g><path d="m 1 43 l 0 0.25 c 0 2.216 1.784 4 4 4 l 38 0 c 2.216 0 4 -1.784 4 -4 l 0 -0.25 c 0 2.216 -1.784 4 -4 4 l -38 0 c -2.216 0 -4 -1.784 -4 -4 z m 0 0.5 l 0 0.5 c 0 2.216 1.784 4 4 4 l 38 0 c 2.216 0 4 -1.784 4 -4 l 0 -0.5 c 0 2.216 -1.784 4 -4 4 l -38 0 c -2.216 0 -4 -1.784 -4 -4 z" opacity="0.02"/><path d="m 1 43.25 l 0 0.25 c 0 2.216 1.784 4 4 4 l 38 0 c 2.216 0 4 -1.784 4 -4 l 0 -0.25 c 0 2.216 -1.784 4 -4 4 l -38 0 c -2.216 0 -4 -1.784 -4 -4 z" opacity="0.05"/><path d="m 1 43 l 0 0.25 c 0 2.216 1.784 4 4 4 l 38 0 c 2.216 0 4 -1.784 4 -4 l 0 -0.25 c 0 2.216 -1.784 4 -4 4 l -38 0 c -2.216 0 -4 -1.784 -4 -4 z" opacity="0.1"/></g><g><rect width="46" height="46" x="-47" y="1" rx="4" transform="matrix(0,-1,1,0,0,0)" fill="url(#linearGradient3764)" fill-opacity="1"/></g><g><g clip-path="url(#clipPath-347126011)"><g opacity="0.1"><!-- color: #276dae --><g><path d="m 23.941 12 c -0.242 0 -0.477 0.016 -0.719 0.031 c -1.617 0.109 -3.23 0.555 -4.656 1.313 c -2.766 1.469 -4.75 4 -5.379 6.906 c -0.172 0.793 -0.188 1.145 -0.188 2.125 c 0 0.691 -0.004 0.914 0.031 1.156 c 0.25 1.754 0.824 3.141 1.813 4.531 c 0.941 1.324 2.219 2.457 3.691 3.25 c 1.523 0.82 3.164 1.273 4.906 1.344 c 0.258 0.012 0.547 0.023 0.563 0.031 l 0 3.313 c 0 -0.004 0.719 -0.195 1.563 -0.625 c 1.594 -0.836 3 -1.75 4.254 -2.813 c 3.117 -2.656 4.871 -5.855 5.16 -9.375 c 0.035 -0.473 0.02 -1.625 -0.031 -2.031 c -0.309 -2.305 -1.344 -4.371 -3.035 -6 c -1.586 -1.527 -3.563 -2.523 -5.785 -2.938 c -0.719 -0.133 -1.453 -0.219 -2.188 -0.219 m -0.438 5 l 1 0 l -0.5 3 l 2.254 0 l 0.75 -3 l 1 0 l -0.75 3 l 2.75 0 l 0 1 l -3 0 l -0.75 4 l 2.75 0 l 0 1 l -3 0 l -0.75 3 l -1 0 l 0.75 -3 l -2.281 0 l -0.719 3 l -1 0 l 0.75 -3 l -2.75 0 l 0 -1 l 3 0 l 0.75 -4 l -2.75 0 l 0 -1 l 3 0 m 0.75 1 l -0.75 4 l 2.25 0 l 0.75 -4 m -2.25 0" fill="#000"/></g></g></g></g><g><g clip-path="url(#clipPath-359940596)"><g transform="translate(0,-1)"><!-- color: #276dae --><g><path d="m 23.941 12 c -0.242 0 -0.477 0.016 -0.719 0.031 c -1.617 0.109 -3.23 0.555 -4.656 1.313 c -2.766 1.469 -4.75 4 -5.379 6.906 c -0.172 0.793 -0.188 1.145 -0.188 2.125 c 0 0.691 -0.004 0.914 0.031 1.156 c 0.25 1.754 0.824 3.141 1.813 4.531 c 0.941 1.324 2.219 2.457 3.691 3.25 c 1.523 0.82 3.164 1.273 4.906 1.344 c 0.258 0.012 0.547 0.023 0.563 0.031 l 0 3.313 c 0 -0.004 0.719 -0.195 1.563 -0.625 c 1.594 -0.836 3 -1.75 4.254 -2.813 c 3.117 -2.656 4.871 -5.855 5.16 -9.375 c 0.035 -0.473 0.02 -1.625 -0.031 -2.031 c -0.309 -2.305 -1.344 -4.371 -3.035 -6 c -1.586 -1.527 -3.563 -2.523 -5.785 -2.938 c -0.719 -0.133 -1.453 -0.219 -2.188 -0.219 m -0.438 5 l 1 0 l -0.5 3 l 2.254 0 l 0.75 -3 l 1 0 l -0.75 3 l 2.75 0 l 0 1 l -3 0 l -0.75 4 l 2.75 0 l 0 1 l -3 0 l -0.75 3 l -1 0 l 0.75 -3 l -2.281 0 l -0.719 3 l -1 0 l 0.75 -3 l -2.75 0 l 0 -1 l 3 0 l 0.75 -4 l -2.75 0 l 0 -1 l 3 0 m 0.75 1 l -0.75 4 l 2.25 0 l 0.75 -4 m -2.25 0" fill="#f9f9f9"/></g></g></g></g><g><g transform="translate(0,-1004.3622)"><path d="m 1 1043.36 0 4 c 0 2.216 1.784 4 4 4 l 38 0 c 2.216 0 4 -1.784 4 -4 l 0 -4 c 0 2.216 -1.784 4 -4 4 l -38 0 c -2.216 0 -4 -1.784 -4 -4 z" opacity="0.1"/></g></g></svg>