<svg viewBox="0 0 48 48"><defs><linearGradient id="linearGradient3764" x1="1" x2="47" gradientUnits="userSpaceOnUse" gradientTransform="translate(-48.000001,0.00221467)"><stop stop-color="#fbb215" stop-opacity="1"/><stop offset="1" stop-color="#fbb729" stop-opacity="1"/></linearGradient><clipPath id="clipPath-734143164"><g transform="translate(0,-1004.3622)"><rect rx="4" y="1005.36" x="1" height="46" width="46" fill="#1890d0"/></g></clipPath><clipPath id="clipPath-746835143"><g transform="translate(0,-1004.3622)"><rect rx="4" y="1005.36" x="1" height="46" width="46" fill="#1890d0"/></g></clipPath></defs><g><path d="m 1 43 l 0 0.25 c 0 2.216 1.784 4 4 4 l 38 0 c 2.216 0 4 -1.784 4 -4 l 0 -0.25 c 0 2.216 -1.784 4 -4 4 l -38 0 c -2.216 0 -4 -1.784 -4 -4 z m 0 0.5 l 0 0.5 c 0 2.216 1.784 4 4 4 l 38 0 c 2.216 0 4 -1.784 4 -4 l 0 -0.5 c 0 2.216 -1.784 4 -4 4 l -38 0 c -2.216 0 -4 -1.784 -4 -4 z" opacity="0.02"/><path d="m 1 43.25 l 0 0.25 c 0 2.216 1.784 4 4 4 l 38 0 c 2.216 0 4 -1.784 4 -4 l 0 -0.25 c 0 2.216 -1.784 4 -4 4 l -38 0 c -2.216 0 -4 -1.784 -4 -4 z" opacity="0.05"/><path d="m 1 43 l 0 0.25 c 0 2.216 1.784 4 4 4 l 38 0 c 2.216 0 4 -1.784 4 -4 l 0 -0.25 c 0 2.216 -1.784 4 -4 4 l -38 0 c -2.216 0 -4 -1.784 -4 -4 z" opacity="0.1"/></g><g><rect width="46" height="46" x="-47" y="1" rx="4" transform="matrix(0,-1,1,0,0,0)" fill="url(#linearGradient3764)" fill-opacity="1"/></g><g><g clip-path="url(#clipPath-734143164)"><g opacity="0.1"><!-- color: #fbb729 --><g><path d="m 17.13 31.02 c -4.938 -5.04 -4.938 -13.203 0 -18.238 c 4.938 -5.04 12.938 -5.04 17.875 0 m -17.875 18.238" fill="#000"/><path d="m 13 35.22 c 4.938 5.04 12.938 5.04 17.875 0 c 4.938 -5.04 4.938 -13.199 0 -18.238 m -17.875 18.238" fill="#000"/><path d="M 17.125 30.8125 L 30 16 L 31.101562 17.351562 L 18 34 Z M 17.125 30.8125 " fill="#000"/></g></g></g></g><g><g clip-path="url(#clipPath-746835143)"><g transform="translate(0,-1)"><!-- color: #fbb729 --><g><path d="m 17.13 31.02 c -4.938 -5.04 -4.938 -13.203 0 -18.238 c 4.938 -5.04 12.938 -5.04 17.875 0 m -17.875 18.238" fill="#a5451f"/><path d="m 13 35.22 c 4.938 5.04 12.938 5.04 17.875 0 c 4.938 -5.04 4.938 -13.199 0 -18.238 m -17.875 18.238" fill="#a5451f"/><path d="M 17.125 30.8125 L 30 16 L 31.101562 17.351562 L 18 34 Z M 17.125 30.8125 " fill="#a5451f"/></g></g></g></g><g><g transform="translate(0,-1004.3622)"><path d="m 1 1043.36 0 4 c 0 2.216 1.784 4 4 4 l 38 0 c 2.216 0 4 -1.784 4 -4 l 0 -4 c 0 2.216 -1.784 4 -4 4 l -38 0 c -2.216 0 -4 -1.784 -4 -4 z" opacity="0.1"/></g></g></svg>