<svg viewBox="0 0 48 48"><defs><linearGradient id="linearGradient3764" x1="1" x2="47" gradientUnits="userSpaceOnUse" gradientTransform="translate(-48.000001,0.00221467)"><stop stop-color="#ed7a09" stop-opacity="1"/><stop offset="1" stop-color="#f68414" stop-opacity="1"/></linearGradient><clipPath id="clipPath-014110156"><g transform="translate(0,-1004.3622)"><rect rx="4" y="1005.36" x="1" height="46" width="46" fill="#1890d0"/></g></clipPath><clipPath id="clipPath-043228504"><g transform="translate(0,-1004.3622)"><rect rx="4" y="1005.36" x="1" height="46" width="46" fill="#1890d0"/></g></clipPath></defs><g><path d="m 1 43 l 0 0.25 c 0 2.216 1.784 4 4 4 l 38 0 c 2.216 0 4 -1.784 4 -4 l 0 -0.25 c 0 2.216 -1.784 4 -4 4 l -38 0 c -2.216 0 -4 -1.784 -4 -4 z m 0 0.5 l 0 0.5 c 0 2.216 1.784 4 4 4 l 38 0 c 2.216 0 4 -1.784 4 -4 l 0 -0.5 c 0 2.216 -1.784 4 -4 4 l -38 0 c -2.216 0 -4 -1.784 -4 -4 z" opacity="0.02"/><path d="m 1 43.25 l 0 0.25 c 0 2.216 1.784 4 4 4 l 38 0 c 2.216 0 4 -1.784 4 -4 l 0 -0.25 c 0 2.216 -1.784 4 -4 4 l -38 0 c -2.216 0 -4 -1.784 -4 -4 z" opacity="0.05"/><path d="m 1 43 l 0 0.25 c 0 2.216 1.784 4 4 4 l 38 0 c 2.216 0 4 -1.784 4 -4 l 0 -0.25 c 0 2.216 -1.784 4 -4 4 l -38 0 c -2.216 0 -4 -1.784 -4 -4 z" opacity="0.1"/></g><g><rect width="46" height="46" x="-47" y="1" rx="4" transform="matrix(0,-1,1,0,0,0)" fill="url(#linearGradient3764)" fill-opacity="1"/></g><g><g clip-path="url(#clipPath-014110156)"><g opacity="0.1"><!-- color: #f68414 --><path d="m 24 14 c -6.611 0 -12 5.389 -12 12 0 6.611 5.389 12 12 12 6.611 0 12 -5.389 12 -12 0 -6.611 -5.389 -12 -12 -12 z m 0 3 c 4.991 0 9 4.01 9 9 0 4.991 -4.01 9 -9 9 -4.991 0 -9 -4.01 -9 -9 0 -4.991 4.01 -9 9 -9 z" color="#000" fill="#000"/><path d="m 21 26 c 0 1.105 -0.895 2 -2 2 -1.105 0 -2 -0.895 -2 -2 0 -1.105 0.895 -2 2 -2 1.105 0 2 0.895 2 2 z m 0 0" fill="#000"/><path d="m 13.5 10.11 c 0.828 0 1.5 0.895 1.5 2 l 0 12.895 c 0 1.105 -0.672 2 -1.5 2 -0.828 0 -1.5 -0.895 -1.5 -2 l 0 -12.895 c 0 -1.105 0.672 -2 1.5 -2 z m 0 0" fill="#000"/></g></g></g><g><g clip-path="url(#clipPath-043228504)"><g transform="translate(0,-1)"><!-- color: #f68414 --><path d="m 24 14 c -6.611 0 -12 5.389 -12 12 0 6.611 5.389 12 12 12 6.611 0 12 -5.389 12 -12 0 -6.611 -5.389 -12 -12 -12 z m 0 3 c 4.991 0 9 4.01 9 9 0 4.991 -4.01 9 -9 9 -4.991 0 -9 -4.01 -9 -9 0 -4.991 4.01 -9 9 -9 z" color="#000" fill="#f9f9f9"/><path d="m 21 26 c 0 1.105 -0.895 2 -2 2 -1.105 0 -2 -0.895 -2 -2 0 -1.105 0.895 -2 2 -2 1.105 0 2 0.895 2 2 z m 0 0" fill="#f9f9f9"/><path d="m 13.5 10.11 c 0.828 0 1.5 0.895 1.5 2 l 0 12.895 c 0 1.105 -0.672 2 -1.5 2 -0.828 0 -1.5 -0.895 -1.5 -2 l 0 -12.895 c 0 -1.105 0.672 -2 1.5 -2 z m 0 0" fill="#f9f9f9"/></g></g></g><g><g transform="translate(0,-1004.3622)"><path d="m 1 1043.36 0 4 c 0 2.216 1.784 4 4 4 l 38 0 c 2.216 0 4 -1.784 4 -4 l 0 -4 c 0 2.216 -1.784 4 -4 4 l -38 0 c -2.216 0 -4 -1.784 -4 -4 z" opacity="0.1"/></g></g></svg>