<svg viewBox="0 0 48 48"><defs><linearGradient id="linearGradient3764" x1="1" x2="47" gradientUnits="userSpaceOnUse" gradientTransform="translate(-48.000001,0.00221467)"><stop stop-color="#12a4b6" stop-opacity="1"/><stop offset="1" stop-color="#14b4c7" stop-opacity="1"/></linearGradient><clipPath id="clipPath-682496307"><g transform="translate(0,-1004.3622)"><rect rx="4" y="1005.36" x="1" height="46" width="46" fill="#1890d0"/></g></clipPath><clipPath id="clipPath-695755389"><g transform="translate(0,-1004.3622)"><rect rx="4" y="1005.36" x="1" height="46" width="46" fill="#1890d0"/></g></clipPath></defs><g><path d="m 1 43 l 0 0.25 c 0 2.216 1.784 4 4 4 l 38 0 c 2.216 0 4 -1.784 4 -4 l 0 -0.25 c 0 2.216 -1.784 4 -4 4 l -38 0 c -2.216 0 -4 -1.784 -4 -4 z m 0 0.5 l 0 0.5 c 0 2.216 1.784 4 4 4 l 38 0 c 2.216 0 4 -1.784 4 -4 l 0 -0.5 c 0 2.216 -1.784 4 -4 4 l -38 0 c -2.216 0 -4 -1.784 -4 -4 z" opacity="0.02"/><path d="m 1 43.25 l 0 0.25 c 0 2.216 1.784 4 4 4 l 38 0 c 2.216 0 4 -1.784 4 -4 l 0 -0.25 c 0 2.216 -1.784 4 -4 4 l -38 0 c -2.216 0 -4 -1.784 -4 -4 z" opacity="0.05"/><path d="m 1 43 l 0 0.25 c 0 2.216 1.784 4 4 4 l 38 0 c 2.216 0 4 -1.784 4 -4 l 0 -0.25 c 0 2.216 -1.784 4 -4 4 l -38 0 c -2.216 0 -4 -1.784 -4 -4 z" opacity="0.1"/></g><g><rect width="46" height="46" x="-47" y="1" rx="4" transform="matrix(0,-1,1,0,0,0)" fill="url(#linearGradient3764)" fill-opacity="1"/></g><g><g clip-path="url(#clipPath-682496307)"><g opacity="0.1"><!-- color: #14b4c7 --><g><path d="m 23.563 16 c -0.223 0.012 -0.43 0.059 -0.656 0.094 c -2.215 0.34 -3.887 1.613 -4.875 3.188 c -0.598 0.957 -1 2.133 -1.031 3.594 c -0.027 1.492 0.438 2.633 1 3.625 c 0.285 0.496 0.52 1.02 0.813 1.5 c 0.883 1.434 1.836 2.801 2.656 4.281 c 1.109 1.992 2.043 4.133 2.563 6.719 c 0.75 -3.922 2.457 -6.789 4.281 -9.594 c 0.613 -0.941 1.23 -1.879 1.719 -2.906 c 0.246 -0.527 0.512 -1 0.688 -1.594 c 0.172 -0.582 0.297 -1.305 0.281 -2.063 c -0.035 -1.48 -0.461 -2.602 -1.063 -3.563 c -0.582 -0.922 -1.328 -1.695 -2.313 -2.281 c -1.055 -0.625 -2.508 -1.086 -4.063 -1 m 0.438 3 c 1.656 0 3 1.344 3 3 c 0 1.656 -1.344 3 -3 3 c -1.656 0 -3 -1.344 -3 -3 c 0 -1.656 1.344 -3 3 -3 m 0 0" fill-rule="evenodd" fill="#000"/><path d="m 17 9 l 4 0 l 0 14 l -4 0 m 0 -14" fill="#000"/></g></g></g></g><g><g clip-path="url(#clipPath-695755389)"><g transform="translate(0,-1)"><!-- color: #14b4c7 --><g><path d="m 23.563 16 c -0.223 0.012 -0.43 0.059 -0.656 0.094 c -2.215 0.34 -3.887 1.613 -4.875 3.188 c -0.598 0.957 -1 2.133 -1.031 3.594 c -0.027 1.492 0.438 2.633 1 3.625 c 0.285 0.496 0.52 1.02 0.813 1.5 c 0.883 1.434 1.836 2.801 2.656 4.281 c 1.109 1.992 2.043 4.133 2.563 6.719 c 0.75 -3.922 2.457 -6.789 4.281 -9.594 c 0.613 -0.941 1.23 -1.879 1.719 -2.906 c 0.246 -0.527 0.512 -1 0.688 -1.594 c 0.172 -0.582 0.297 -1.305 0.281 -2.063 c -0.035 -1.48 -0.461 -2.602 -1.063 -3.563 c -0.582 -0.922 -1.328 -1.695 -2.313 -2.281 c -1.055 -0.625 -2.508 -1.086 -4.063 -1 m 0.438 3 c 1.656 0 3 1.344 3 3 c 0 1.656 -1.344 3 -3 3 c -1.656 0 -3 -1.344 -3 -3 c 0 -1.656 1.344 -3 3 -3 m 0 0" fill="#e7e7e7" fill-rule="evenodd"/><path d="m 17 9 l 4 0 l 0 14 l -4 0 m 0 -14" fill="#e7e7e7"/></g></g></g></g><g><g transform="translate(0,-1004.3622)"><path d="m 1 1043.36 0 4 c 0 2.216 1.784 4 4 4 l 38 0 c 2.216 0 4 -1.784 4 -4 l 0 -4 c 0 2.216 -1.784 4 -4 4 l -38 0 c -2.216 0 -4 -1.784 -4 -4 z" opacity="0.1"/></g></g></svg>