<svg viewBox="0 0 48 48"><defs><linearGradient id="linearGradient3764" x1="1" x2="47" gradientUnits="userSpaceOnUse" gradientTransform="translate(-48.000001,0.00221467)"><stop stop-color="#4995d5" stop-opacity="1"/><stop offset="1" stop-color="#599ed9" stop-opacity="1"/></linearGradient><clipPath id="clipPath-877903695"><g transform="translate(0,-1004.3622)"><rect rx="4" y="1005.36" x="1" height="46" width="46" fill="#1890d0"/></g></clipPath><clipPath id="clipPath-891766836"><g transform="translate(0,-1004.3622)"><rect rx="4" y="1005.36" x="1" height="46" width="46" fill="#1890d0"/></g></clipPath></defs><g><path d="m 1 43 l 0 0.25 c 0 2.216 1.784 4 4 4 l 38 0 c 2.216 0 4 -1.784 4 -4 l 0 -0.25 c 0 2.216 -1.784 4 -4 4 l -38 0 c -2.216 0 -4 -1.784 -4 -4 z m 0 0.5 l 0 0.5 c 0 2.216 1.784 4 4 4 l 38 0 c 2.216 0 4 -1.784 4 -4 l 0 -0.5 c 0 2.216 -1.784 4 -4 4 l -38 0 c -2.216 0 -4 -1.784 -4 -4 z" opacity="0.02"/><path d="m 1 43.25 l 0 0.25 c 0 2.216 1.784 4 4 4 l 38 0 c 2.216 0 4 -1.784 4 -4 l 0 -0.25 c 0 2.216 -1.784 4 -4 4 l -38 0 c -2.216 0 -4 -1.784 -4 -4 z" opacity="0.05"/><path d="m 1 43 l 0 0.25 c 0 2.216 1.784 4 4 4 l 38 0 c 2.216 0 4 -1.784 4 -4 l 0 -0.25 c 0 2.216 -1.784 4 -4 4 l -38 0 c -2.216 0 -4 -1.784 -4 -4 z" opacity="0.1"/></g><g><rect width="46" height="46" x="-47" y="1" rx="4" transform="matrix(0,-1,1,0,0,0)" fill="url(#linearGradient3764)" fill-opacity="1"/></g><g><g clip-path="url(#clipPath-877903695)"><g opacity="0.1"><!-- color: #599ed9 --><g><path d="m 18.13 15 c -0.363 0.035 -0.652 0.43 -0.418 0.887 c 1.039 2.164 1.656 3.707 2.73 6.086 c 0.191 -0.457 0.309 -0.773 0.598 -1.449 c -1.109 -2.262 -1.266 -3.219 -2.293 -5.145 c -0.164 -0.289 -0.398 -0.402 -0.617 -0.379 m 11.887 0.078 c -0.227 -0.012 -0.469 0.133 -0.617 0.488 c -1.355 3.141 -3.852 9.488 -4.965 12.04 c -0.633 1.328 0.5 1.863 0.93 1.129 c 1.438 -3.074 3.594 -8.961 5.164 -12.715 c 0.195 -0.5 -0.133 -0.922 -0.512 -0.941 m -6.867 4.055 c -0.227 -0.008 -0.453 0.133 -0.598 0.492 c -1.355 3.137 -3.871 9.504 -4.984 12.05 c -0.633 1.332 0.488 1.719 0.977 0.859 c 1.438 -3.074 3.559 -8.711 5.129 -12.465 c 0.195 -0.5 -0.145 -0.922 -0.523 -0.941 m 2.273 0.602 c -0.227 -0.012 -0.453 0.113 -0.602 0.469 c -1.355 3.137 -1.836 4.68 -2.949 7.23 c -0.633 1.332 0.441 1.793 0.871 0.813 c 1.438 -3.074 1.629 -3.82 3.203 -7.574 c 0.195 -0.496 -0.148 -0.922 -0.523 -0.938 m 11.578 0.379 c -2.207 0.539 -3.98 1.492 -5.977 2.797 c -0.59 -0.477 -0.973 -0.871 -1.441 -1.367 c -0.152 0.289 -0.523 1.09 -0.66 1.309 c 0.496 0.496 0.703 0.793 1.094 1.086 c -0.473 0.352 -0.469 0.461 -1.594 1.488 c 0.234 0.461 0.363 0.902 0.598 1.352 c 0.547 -0.605 0.953 -1.094 2.129 -1.898 c 1.629 0.883 3.01 1.809 5.852 2.617 l 0 -1.66 c -1.344 -0.438 -3.305 -1.043 -4.527 -1.926 c 0.953 -0.691 2.234 -1.379 4.527 -1.93 m -26 -1.449 l 0 1.578 c 1.352 0.445 3.316 1.086 4.527 1.961 c -0.953 0.691 -2.234 1.359 -4.527 1.906 l 0 1.887 c 2.211 -0.539 4 -1.512 5.996 -2.816 c 0.59 0.48 0.953 0.895 1.422 1.391 c 0.152 -0.293 0.535 -1.113 0.668 -1.328 c -0.492 -0.496 -0.691 -0.777 -1.082 -1.07 c 0.473 -0.348 0.465 -0.461 1.594 -1.488 c -0.234 -0.461 -0.363 -0.902 -0.598 -1.348 c -0.547 0.605 -0.973 1.09 -2.148 1.898 c -1.609 -0.875 -3.07 -1.77 -5.852 -2.57 m 16.531 5.176 c -0.195 0.457 -0.332 0.75 -0.621 1.43 c 1.113 2.262 1.285 3.234 2.313 5.164 c 0.438 0.766 1.414 0.223 1.035 -0.512 c -1.035 -2.164 -1.652 -3.703 -2.727 -6.082 m 0 0" fill-rule="evenodd" fill="#000"/></g></g></g></g><g><g clip-path="url(#clipPath-891766836)"><g transform="translate(0,-1)"><!-- color: #599ed9 --><g><path d="m 18.13 15 c -0.363 0.035 -0.652 0.43 -0.418 0.887 c 1.039 2.164 1.656 3.707 2.73 6.086 c 0.191 -0.457 0.309 -0.773 0.598 -1.449 c -1.109 -2.262 -1.266 -3.219 -2.293 -5.145 c -0.164 -0.289 -0.398 -0.402 -0.617 -0.379 m 11.887 0.078 c -0.227 -0.012 -0.469 0.133 -0.617 0.488 c -1.355 3.141 -3.852 9.488 -4.965 12.04 c -0.633 1.328 0.5 1.863 0.93 1.129 c 1.438 -3.074 3.594 -8.961 5.164 -12.715 c 0.195 -0.5 -0.133 -0.922 -0.512 -0.941 m -6.867 4.055 c -0.227 -0.008 -0.453 0.133 -0.598 0.492 c -1.355 3.137 -3.871 9.504 -4.984 12.05 c -0.633 1.332 0.488 1.719 0.977 0.859 c 1.438 -3.074 3.559 -8.711 5.129 -12.465 c 0.195 -0.5 -0.145 -0.922 -0.523 -0.941 m 2.273 0.602 c -0.227 -0.012 -0.453 0.113 -0.602 0.469 c -1.355 3.137 -1.836 4.68 -2.949 7.23 c -0.633 1.332 0.441 1.793 0.871 0.813 c 1.438 -3.074 1.629 -3.82 3.203 -7.574 c 0.195 -0.496 -0.148 -0.922 -0.523 -0.938 m 11.578 0.379 c -2.207 0.539 -3.98 1.492 -5.977 2.797 c -0.59 -0.477 -0.973 -0.871 -1.441 -1.367 c -0.152 0.289 -0.523 1.09 -0.66 1.309 c 0.496 0.496 0.703 0.793 1.094 1.086 c -0.473 0.352 -0.469 0.461 -1.594 1.488 c 0.234 0.461 0.363 0.902 0.598 1.352 c 0.547 -0.605 0.953 -1.094 2.129 -1.898 c 1.629 0.883 3.01 1.809 5.852 2.617 l 0 -1.66 c -1.344 -0.438 -3.305 -1.043 -4.527 -1.926 c 0.953 -0.691 2.234 -1.379 4.527 -1.93 m -26 -1.449 l 0 1.578 c 1.352 0.445 3.316 1.086 4.527 1.961 c -0.953 0.691 -2.234 1.359 -4.527 1.906 l 0 1.887 c 2.211 -0.539 4 -1.512 5.996 -2.816 c 0.59 0.48 0.953 0.895 1.422 1.391 c 0.152 -0.293 0.535 -1.113 0.668 -1.328 c -0.492 -0.496 -0.691 -0.777 -1.082 -1.07 c 0.473 -0.348 0.465 -0.461 1.594 -1.488 c -0.234 -0.461 -0.363 -0.902 -0.598 -1.348 c -0.547 0.605 -0.973 1.09 -2.148 1.898 c -1.609 -0.875 -3.07 -1.77 -5.852 -2.57 m 16.531 5.176 c -0.195 0.457 -0.332 0.75 -0.621 1.43 c 1.113 2.262 1.285 3.234 2.313 5.164 c 0.438 0.766 1.414 0.223 1.035 -0.512 c -1.035 -2.164 -1.652 -3.703 -2.727 -6.082 m 0 0" fill="#fff" fill-rule="evenodd"/></g></g></g></g><g><g transform="translate(0,-1004.3622)"><path d="m 1 1043.36 0 4 c 0 2.216 1.784 4 4 4 l 38 0 c 2.216 0 4 -1.784 4 -4 l 0 -4 c 0 2.216 -1.784 4 -4 4 l -38 0 c -2.216 0 -4 -1.784 -4 -4 z" opacity="0.1"/></g></g></svg>