<svg viewBox="0 0 48 48"><defs><linearGradient id="linearGradient3764" x1="1" x2="47" gradientUnits="userSpaceOnUse" gradientTransform="translate(-48.000001,0.00221467)"><stop stop-color="#a4b9e0" stop-opacity="1"/><stop offset="1" stop-color="#b4c5e5" stop-opacity="1"/></linearGradient><clipPath id="clipPath-301836297"><g transform="translate(0,-1004.3622)"><rect rx="4" y="1005.36" x="1" height="46" width="46" fill="#1890d0"/></g></clipPath><clipPath id="clipPath-316907942"><g transform="translate(0,-1004.3622)"><rect rx="4" y="1005.36" x="1" height="46" width="46" fill="#1890d0"/></g></clipPath></defs><g><path d="m 1 43 l 0 0.25 c 0 2.216 1.784 4 4 4 l 38 0 c 2.216 0 4 -1.784 4 -4 l 0 -0.25 c 0 2.216 -1.784 4 -4 4 l -38 0 c -2.216 0 -4 -1.784 -4 -4 z m 0 0.5 l 0 0.5 c 0 2.216 1.784 4 4 4 l 38 0 c 2.216 0 4 -1.784 4 -4 l 0 -0.5 c 0 2.216 -1.784 4 -4 4 l -38 0 c -2.216 0 -4 -1.784 -4 -4 z" opacity="0.02"/><path d="m 1 43.25 l 0 0.25 c 0 2.216 1.784 4 4 4 l 38 0 c 2.216 0 4 -1.784 4 -4 l 0 -0.25 c 0 2.216 -1.784 4 -4 4 l -38 0 c -2.216 0 -4 -1.784 -4 -4 z" opacity="0.05"/><path d="m 1 43 l 0 0.25 c 0 2.216 1.784 4 4 4 l 38 0 c 2.216 0 4 -1.784 4 -4 l 0 -0.25 c 0 2.216 -1.784 4 -4 4 l -38 0 c -2.216 0 -4 -1.784 -4 -4 z" opacity="0.1"/></g><g><rect width="46" height="46" x="-47" y="1" rx="4" transform="matrix(0,-1,1,0,0,0)" fill="url(#linearGradient3764)" fill-opacity="1"/></g><g><g clip-path="url(#clipPath-301836297)"><g opacity="0.1"><!-- color: #b4c5e5 --><g><path d="m 20 12 l -6 6 l 0 16.219 c 0 0.98 0.801 1.781 1.781 1.781 l 16.438 0 c 0.98 0 1.781 -0.801 1.781 -1.781 l 0 -20.438 c 0 -0.98 -0.801 -1.781 -1.781 -1.781 m -12.219 0" fill="#000"/><path d="m 16.887 23 l 3.113 0 l 0 5 l -4 0 l 0 -4.113 c 0 -0.492 0.395 -0.887 0.887 -0.887 m 0 0" fill="#000"/><path d="m 16 30 l 2 0 l 0 5 l -1.645 0 c -0.199 0 -0.355 -0.156 -0.355 -0.355 m 0 -4.645" fill="#000"/><path d="m 30 23 l 1.645 0 c 0.199 0 0.355 0.156 0.355 0.355 l 0 4.645 l -2 0 m 0 -5" fill="#000"/><path d="m 19.875 30 c -0.492 0 -0.875 0.383 -0.875 0.875 l 0 3.25 c 0 0.492 0.383 0.875 0.875 0.875 l 3.125 0 l 0 -3 l -1.125 0 c -0.492 0 -0.875 -0.383 -0.875 -0.875 l 0 -1.125 m 7 0 l 0 1.125 c 0 0.492 -0.383 0.875 -0.875 0.875 l -1.125 0 l 0 3 l 5.125 0 c 0.492 0 0.875 -0.383 0.875 -0.875 l 0 -3.25 c 0 -0.492 -0.383 -0.875 -0.875 -0.875 m -3.125 0" fill="#000"/><path d="m 21.887 23 l 5.23 0 c 0.488 0 0.887 0.395 0.887 0.887 l 0 3.227 c 0 0.488 -0.398 0.887 -0.887 0.887 l -5.23 0 c -0.488 0 -0.887 -0.398 -0.887 -0.887 l 0 -3.227 c 0 -0.492 0.398 -0.887 0.887 -0.887 m 0 0" fill="#000"/></g></g></g></g><g><g clip-path="url(#clipPath-316907942)"><g transform="translate(0,-1)"><!-- color: #b4c5e5 --><g><path d="m 20 12 l -6 6 l 0 16.219 c 0 0.98 0.801 1.781 1.781 1.781 l 16.438 0 c 0.98 0 1.781 -0.801 1.781 -1.781 l 0 -20.438 c 0 -0.98 -0.801 -1.781 -1.781 -1.781 m -12.219 0" fill="#df765c"/><path d="m 16.887 23 l 3.113 0 l 0 5 l -4 0 l 0 -4.113 c 0 -0.492 0.395 -0.887 0.887 -0.887 m 0 0" fill="#f3eb5f"/><path d="m 16 30 l 2 0 l 0 5 l -1.645 0 c -0.199 0 -0.355 -0.156 -0.355 -0.355 m 0 -4.645" fill="#f3eb5f"/><path d="m 30 23 l 1.645 0 c 0.199 0 0.355 0.156 0.355 0.355 l 0 4.645 l -2 0 m 0 -5" fill="#f3eb5f"/><path d="m 19.875 30 c -0.492 0 -0.875 0.383 -0.875 0.875 l 0 3.25 c 0 0.492 0.383 0.875 0.875 0.875 l 3.125 0 l 0 -3 l -1.125 0 c -0.492 0 -0.875 -0.383 -0.875 -0.875 l 0 -1.125 m 7 0 l 0 1.125 c 0 0.492 -0.383 0.875 -0.875 0.875 l -1.125 0 l 0 3 l 5.125 0 c 0.492 0 0.875 -0.383 0.875 -0.875 l 0 -3.25 c 0 -0.492 -0.383 -0.875 -0.875 -0.875 m -3.125 0" fill="#f3eb5f"/><path d="m 21.887 23 l 5.23 0 c 0.488 0 0.887 0.395 0.887 0.887 l 0 3.227 c 0 0.488 -0.398 0.887 -0.887 0.887 l -5.23 0 c -0.488 0 -0.887 -0.398 -0.887 -0.887 l 0 -3.227 c 0 -0.492 0.398 -0.887 0.887 -0.887 m 0 0" fill="#f3eb5f"/></g></g></g></g><g><g transform="translate(0,-1004.3622)"><path d="m 1 1043.36 0 4 c 0 2.216 1.784 4 4 4 l 38 0 c 2.216 0 4 -1.784 4 -4 l 0 -4 c 0 2.216 -1.784 4 -4 4 l -38 0 c -2.216 0 -4 -1.784 -4 -4 z" opacity="0.1"/></g></g></svg>