<svg viewBox="0 0 48 48" xmlns:xlink="http://www.w3.org/1999/xlink"><defs><linearGradient id="linearGradient3764" x1="1" x2="47" gradientUnits="userSpaceOnUse" gradientTransform="translate(-48.000001,0.00221467)"><stop stop-color="#e5e5e5" stop-opacity="1"/><stop offset="1" stop-color="#efefef" stop-opacity="1"/></linearGradient><clipPath id="clipPath-570779126"><g transform="translate(0,-1004.3622)"><rect rx="4" y="1005.36" x="1" height="46" width="46" fill="#1890d0"/></g></clipPath><clipPath id="clipPath-598327703"><g transform="translate(0,-1004.3622)"><rect rx="4" y="1005.36" x="1" height="46" width="46" fill="#1890d0"/></g></clipPath></defs><g><path d="m 1 43 l 0 0.25 c 0 2.216 1.784 4 4 4 l 38 0 c 2.216 0 4 -1.784 4 -4 l 0 -0.25 c 0 2.216 -1.784 4 -4 4 l -38 0 c -2.216 0 -4 -1.784 -4 -4 z m 0 0.5 l 0 0.5 c 0 2.216 1.784 4 4 4 l 38 0 c 2.216 0 4 -1.784 4 -4 l 0 -0.5 c 0 2.216 -1.784 4 -4 4 l -38 0 c -2.216 0 -4 -1.784 -4 -4 z" opacity="0.02"/><path d="m 1 43.25 l 0 0.25 c 0 2.216 1.784 4 4 4 l 38 0 c 2.216 0 4 -1.784 4 -4 l 0 -0.25 c 0 2.216 -1.784 4 -4 4 l -38 0 c -2.216 0 -4 -1.784 -4 -4 z" opacity="0.05"/><path d="m 1 43 l 0 0.25 c 0 2.216 1.784 4 4 4 l 38 0 c 2.216 0 4 -1.784 4 -4 l 0 -0.25 c 0 2.216 -1.784 4 -4 4 l -38 0 c -2.216 0 -4 -1.784 -4 -4 z" opacity="0.1"/></g><g><rect width="46" height="46" x="-47" y="1" rx="4" transform="matrix(0,-1,1,0,0,0)" fill="url(#linearGradient3764)" fill-opacity="1"/></g><g><g clip-path="url(#clipPath-570779126)"><g opacity="0.1"><!-- color: #efefef --><g><path d="m 12 22.934 c -0.008 4.141 2.141 8.172 5.988 10.395 c 0.086 0.051 0.18 0.105 0.27 0.156 c 1.813 0.984 3.773 1.453 5.711 1.449 l 0 -6.652 c -0.902 0.004 -1.82 -0.227 -2.66 -0.711 c -2.543 -1.469 -3.414 -4.719 -1.945 -7.262 l -5.484 -3.172 c -0.098 -0.055 -0.184 -0.117 -0.254 -0.184 c -0.008 0.012 -0.012 0.02 -0.016 0.031 c -1.086 1.875 -1.605 3.926 -1.609 5.949 m 0 0" fill="#000"/><path d="m 29.922 33.35 c 3.59 -2.066 6.01 -5.941 6.01 -10.383 c 0 -0.102 0.004 -0.207 0.004 -0.313 c -0.055 -2.063 -0.633 -3.996 -1.602 -5.672 l -5.762 3.328 c 0.453 0.781 0.711 1.691 0.711 2.66 c 0 2.934 -2.375 5.316 -5.313 5.316 l -0.004 6.336 c 0 0.109 -0.012 0.211 -0.031 0.309 c 0.012 0 0.023 0 0.031 0 c 2.168 0 4.203 -0.574 5.957 -1.582 m 0 0" fill="#000"/><path d="m 23.598 34.926 c 0.121 0.004 0.246 0.008 0.371 0.008 l -0.004 -6.652 c -0.746 0 -1.5 -0.16 -2.215 -0.488 l 1.855 7.05 m -0.008 0.086" fill-opacity="0.2" id="SVGCleanerId_0"/><path d="m 34.512 17.309 c -0.059 -0.109 -0.121 -0.223 -0.184 -0.328 l -5.758 3.328 c 0.375 0.648 0.613 1.379 0.684 2.16 l 5.176 -5.129 m 0.082 -0.031" fill-opacity="0.2" id="SVGCleanerId_1"/><path d="m 29.98 12.617 c -3.582 -2.078 -8.148 -2.23 -11.996 -0.012 c -0.09 0.051 -0.184 0.102 -0.27 0.156 c -1.762 1.074 -3.145 2.543 -4.113 4.223 l 5.762 3.324 c 0.449 -0.785 1.109 -1.461 1.945 -1.945 c 2.547 -1.469 5.797 -0.602 7.266 1.941 l 5.488 -3.164 c 0.094 -0.055 0.188 -0.098 0.281 -0.125 c -0.004 -0.012 -0.008 -0.02 -0.016 -0.031 c -1.082 -1.875 -2.598 -3.352 -4.348 -4.367 m 0 0" fill="#000"/><path d="m 13.793 16.664 c -0.063 0.105 -0.129 0.215 -0.191 0.32 l 5.762 3.324 c 0.375 -0.648 0.887 -1.223 1.531 -1.676 l -7.03 -1.914 m -0.07 -0.055" fill-opacity="0.2" id="SVGCleanerId_2"/><path d="m 29.418 33.12 l 4.703 -4.703 l 1.879 6.582 m -6.582 -1.879" fill="#000"/></g></g></g></g><g><g clip-path="url(#clipPath-598327703)"><g transform="translate(0,-1)"><!-- color: #efefef --><g><path d="m 12 22.934 c -0.008 4.141 2.141 8.172 5.988 10.395 c 0.086 0.051 0.18 0.105 0.27 0.156 c 1.813 0.984 3.773 1.453 5.711 1.449 l 0 -6.652 c -0.902 0.004 -1.82 -0.227 -2.66 -0.711 c -2.543 -1.469 -3.414 -4.719 -1.945 -7.262 l -5.484 -3.172 c -0.098 -0.055 -0.184 -0.117 -0.254 -0.184 c -0.008 0.012 -0.012 0.02 -0.016 0.031 c -1.086 1.875 -1.605 3.926 -1.609 5.949 m 0 0" fill="#537ebf"/><path d="m 29.922 33.35 c 3.59 -2.066 6.01 -5.941 6.01 -10.383 c 0 -0.102 0.004 -0.207 0.004 -0.313 c -0.055 -2.063 -0.633 -3.996 -1.602 -5.672 l -5.762 3.328 c 0.453 0.781 0.711 1.691 0.711 2.66 c 0 2.934 -2.375 5.316 -5.313 5.316 l -0.004 6.336 c 0 0.109 -0.012 0.211 -0.031 0.309 c 0.012 0 0.023 0 0.031 0 c 2.168 0 4.203 -0.574 5.957 -1.582 m 0 0" fill="#fac63e"/><use xlink:href="#SVGCleanerId_0"/><use xlink:href="#SVGCleanerId_1"/><path d="m 29.98 12.617 c -3.582 -2.078 -8.148 -2.23 -11.996 -0.012 c -0.09 0.051 -0.184 0.102 -0.27 0.156 c -1.762 1.074 -3.145 2.543 -4.113 4.223 l 5.762 3.324 c 0.449 -0.785 1.109 -1.461 1.945 -1.945 c 2.547 -1.469 5.797 -0.602 7.266 1.941 l 5.488 -3.164 c 0.094 -0.055 0.188 -0.098 0.281 -0.125 c -0.004 -0.012 -0.008 -0.02 -0.016 -0.031 c -1.082 -1.875 -2.598 -3.352 -4.348 -4.367 m 0 0" fill="#0f934c"/><use xlink:href="#SVGCleanerId_2"/><path d="m 29.418 33.12 l 4.703 -4.703 l 1.879 6.582 m -6.582 -1.879" fill="#fac63e"/></g></g></g></g><g><g transform="translate(0,-1004.3622)"><path d="m 1 1043.36 0 4 c 0 2.216 1.784 4 4 4 l 38 0 c 2.216 0 4 -1.784 4 -4 l 0 -4 c 0 2.216 -1.784 4 -4 4 l -38 0 c -2.216 0 -4 -1.784 -4 -4 z" opacity="0.1"/></g></g></svg>