<svg viewBox="0 0 48 48"><defs><linearGradient id="linearGradient3764" x1="1" x2="47" gradientUnits="userSpaceOnUse" gradientTransform="translate(-48.000001,0.00221467)"><stop stop-color="#4ba2d9" stop-opacity="1"/><stop offset="1" stop-color="#5ba9dc" stop-opacity="1"/></linearGradient><clipPath id="clipPath-559435077"><g transform="translate(0,-1004.3622)"><rect rx="4" y="1005.36" x="1" height="46" width="46" fill="#1890d0"/></g></clipPath><clipPath id="clipPath-571982744"><g transform="translate(0,-1004.3622)"><rect rx="4" y="1005.36" x="1" height="46" width="46" fill="#1890d0"/></g></clipPath></defs><g><path d="m 1 43 l 0 0.25 c 0 2.216 1.784 4 4 4 l 38 0 c 2.216 0 4 -1.784 4 -4 l 0 -0.25 c 0 2.216 -1.784 4 -4 4 l -38 0 c -2.216 0 -4 -1.784 -4 -4 z m 0 0.5 l 0 0.5 c 0 2.216 1.784 4 4 4 l 38 0 c 2.216 0 4 -1.784 4 -4 l 0 -0.5 c 0 2.216 -1.784 4 -4 4 l -38 0 c -2.216 0 -4 -1.784 -4 -4 z" opacity="0.02"/><path d="m 1 43.25 l 0 0.25 c 0 2.216 1.784 4 4 4 l 38 0 c 2.216 0 4 -1.784 4 -4 l 0 -0.25 c 0 2.216 -1.784 4 -4 4 l -38 0 c -2.216 0 -4 -1.784 -4 -4 z" opacity="0.05"/><path d="m 1 43 l 0 0.25 c 0 2.216 1.784 4 4 4 l 38 0 c 2.216 0 4 -1.784 4 -4 l 0 -0.25 c 0 2.216 -1.784 4 -4 4 l -38 0 c -2.216 0 -4 -1.784 -4 -4 z" opacity="0.1"/></g><g><rect width="46" height="46" x="-47" y="1" rx="4" transform="matrix(0,-1,1,0,0,0)" fill="url(#linearGradient3764)" fill-opacity="1"/></g><g><g clip-path="url(#clipPath-559435077)"><g opacity="0.1"><!-- color: #5ba9dc --><g><path d="m 31.887 16 l 1.227 0 c 0.492 0 0.887 0.395 0.887 0.887 l 0 6.113 l -1 0 l -2 -1.887 l 0 -4.227 c 0 -0.492 0.395 -0.887 0.887 -0.887 m 0 0" fill="#000"/><path d="m 24 17 l -9 8 l 0 10 l 6 0 l 0 -7.75 c 0 -0.137 0.113 -0.25 0.25 -0.25 l 5.5 0 c 0.137 0 0.25 0.113 0.25 0.25 l 0 7.75 l 6 0 l 0 -10 m -9 -8" fill="#000"/><path d="m 12 26 l -1 -1 l 13 -12 l 13 12 l -1 1 l -12 -11 m -12 11" fill="#000"/></g></g></g></g><g><g clip-path="url(#clipPath-571982744)"><g transform="translate(0,-1)"><!-- color: #5ba9dc --><g><path d="m 31.887 16 l 1.227 0 c 0.492 0 0.887 0.395 0.887 0.887 l 0 6.113 l -1 0 l -2 -1.887 l 0 -4.227 c 0 -0.492 0.395 -0.887 0.887 -0.887 m 0 0" fill="#ececec"/><path d="m 24 17 l -9 8 l 0 10 l 6 0 l 0 -7.75 c 0 -0.137 0.113 -0.25 0.25 -0.25 l 5.5 0 c 0.137 0 0.25 0.113 0.25 0.25 l 0 7.75 l 6 0 l 0 -10 m -9 -8" fill="#ececec"/><path d="m 12 26 l -1 -1 l 13 -12 l 13 12 l -1 1 l -12 -11 m -12 11" fill="#ececec"/></g></g></g></g><g><g transform="translate(0,-1004.3622)"><path d="m 1 1043.36 0 4 c 0 2.216 1.784 4 4 4 l 38 0 c 2.216 0 4 -1.784 4 -4 l 0 -4 c 0 2.216 -1.784 4 -4 4 l -38 0 c -2.216 0 -4 -1.784 -4 -4 z" opacity="0.1"/></g></g></svg>