<svg viewBox="0 0 48 48" xmlns:xlink="http://www.w3.org/1999/xlink"><defs><linearGradient id="linearGradient3764" y1="1" x2="0" y2="47" gradientUnits="userSpaceOnUse"><stop stop-color="#efefef" stop-opacity="1"/><stop offset="1" stop-color="#e5e5e5" stop-opacity="1"/></linearGradient><clipPath id="clipPath-292812257"><g transform="translate(0,-1004.3622)"><path d="m 24 1005.37 c -1.045 0 -2.023 0.287 -2.856 0.784 l -15.339 8.708 c -0.017 0.013 -0.035 0.013 -0.052 0.021 -1.852 1.051 -2.847 3 -2.746 4.968 l 0 17.02 c -0.056 1.013 0.175 2.049 0.729 2.993 0.532 0.903 1.288 1.602 2.161 2.061 l 15.246 8.653 c 0.832 0.497 1.811 0.784 2.856 0.784 1.045 0 2.023 -0.287 2.856 -0.784 l 15.246 -8.653 c 0.873 -0.46 1.629 -1.158 2.161 -2.061 0.554 -0.944 0.785 -1.981 0.729 -2.993 l 0 -17.01 c 0.056 -1.012 -0.175 -2.052 -0.729 -2.993 -0.532 -0.906 -1.288 -1.604 -2.161 -2.064 l -15.246 -8.653 c -0.832 -0.497 -1.811 -0.784 -2.856 -0.784 z" fill="#1890d0"/></g></clipPath><clipPath id="clipPath-301345911"><g transform="translate(0,-1004.3622)"><path d="m 24 1005.37 c -1.045 0 -2.023 0.287 -2.856 0.784 l -15.339 8.708 c -0.017 0.013 -0.035 0.013 -0.052 0.021 -1.852 1.051 -2.847 3 -2.746 4.968 l 0 17.02 c -0.056 1.013 0.175 2.049 0.729 2.993 0.532 0.903 1.288 1.602 2.161 2.061 l 15.246 8.653 c 0.832 0.497 1.811 0.784 2.856 0.784 1.045 0 2.023 -0.287 2.856 -0.784 l 15.246 -8.653 c 0.873 -0.46 1.629 -1.158 2.161 -2.061 0.554 -0.944 0.785 -1.981 0.729 -2.993 l 0 -17.01 c 0.056 -1.012 -0.175 -2.052 -0.729 -2.993 -0.532 -0.906 -1.288 -1.604 -2.161 -2.064 l -15.246 -8.653 c -0.832 -0.497 -1.811 -0.784 -2.856 -0.784 z" fill="#1890d0"/></g></clipPath><filter id="filter-274758820"><feGaussianBlur stdDeviation="0.35"/></filter></defs><g><g transform="translate(0,-1004.3622)"><path d="m 45 1037.36 c 0.056 1.013 -0.196 2.056 -0.75 3 -0.532 0.903 -1.283 1.603 -2.156 2.063 l -15.25 8.656 c -0.832 0.497 -1.799 0.781 -2.844 0.781 -1.045 0 -2.01 -0.284 -2.844 -0.781 l -15.25 -8.656 c -0.873 -0.46 -1.625 -1.159 -2.156 -2.063 -0.416 -0.708 -0.677 -1.485 -0.75 -2.25 -0.004 0.932 0.242 1.884 0.75 2.75 0.532 0.903 1.283 1.603 2.156 2.063 l 15.25 8.656 c 0.832 0.497 1.799 0.781 2.844 0.781 1.045 0 2.01 -0.284 2.844 -0.781 l 15.25 -8.656 c 0.873 -0.46 1.625 -1.159 2.156 -2.063 0.554 -0.944 0.806 -1.987 0.75 -3 l 0 -0.5 z" opacity="0.05"/><path d="m 45 1036.86 c 0.015 0.263 -0.004 0.516 -0.031 0.781 -0.036 0.844 -0.259 1.685 -0.719 2.469 -0.532 0.903 -1.283 1.603 -2.156 2.063 l -15.25 8.656 c -0.832 0.497 -1.799 0.781 -2.844 0.781 -1.045 0 -2.01 -0.284 -2.844 -0.781 l -15.25 -8.656 c -0.873 -0.46 -1.625 -1.159 -2.156 -2.063 -0.414 -0.705 -0.621 -1.46 -0.688 -2.219 -0.014 -0.092 -0.054 -0.189 -0.063 -0.281 -0.004 0.932 0.242 1.884 0.75 2.75 0.532 0.903 1.283 1.603 2.156 2.063 l 15.25 8.656 c 0.832 0.497 1.799 0.781 2.844 0.781 1.045 0 2.01 -0.284 2.844 -0.781 l 15.25 -8.656 c 0.873 -0.46 1.625 -1.159 2.156 -2.063 0.554 -0.944 0.806 -1.987 0.75 -3 l 0 -0.5 z m -41.813 1.625 c 0.057 0.219 0.132 0.442 0.219 0.656 -0.088 -0.216 -0.16 -0.436 -0.219 -0.656 z m 0.219 0.656 c 0.099 0.243 0.206 0.484 0.344 0.719 -0.139 -0.236 -0.243 -0.472 -0.344 -0.719 z m 41.41 -0.656 c -0.059 0.221 -0.131 0.441 -0.219 0.656 0.087 -0.215 0.161 -0.437 0.219 -0.656 z m -0.219 0.656 c -0.101 0.246 -0.205 0.483 -0.344 0.719 0.138 -0.235 0.245 -0.476 0.344 -0.719 z" opacity="0.1"/><path d="m 3.03 1037.64 c 0.035 0.844 0.259 1.685 0.719 2.469 0.532 0.903 1.283 1.603 2.156 2.063 l 15.25 8.656 c 0.832 0.497 1.799 0.781 2.844 0.781 1.045 0 2.01 -0.284 2.844 -0.781 l 15.25 -8.656 c 0.873 -0.46 1.625 -1.159 2.156 -2.063 0.46 -0.784 0.683 -1.624 0.719 -2.469 -0.067 0.763 -0.303 1.511 -0.719 2.219 -0.532 0.903 -1.283 1.603 -2.156 2.063 l -15.25 8.656 c -0.832 0.497 -1.799 0.781 -2.844 0.781 -1.045 0 -2.01 -0.284 -2.844 -0.781 l -15.25 -8.656 c -0.873 -0.46 -1.625 -1.159 -2.156 -2.063 -0.416 -0.708 -0.651 -1.456 -0.719 -2.219 z" opacity="0.2"/></g></g><g><path d="m 24 46.996 c 1.045 0 2.023 -0.287 2.856 -0.784 l 15.339 -8.708 c 0.017 -0.013 0.035 -0.013 0.052 -0.021 1.852 -1.051 2.847 -3 2.746 -4.968 l 0 -17.02 c 0.056 -1.013 -0.175 -2.049 -0.729 -2.993 -0.532 -0.903 -1.288 -1.602 -2.161 -2.061 l -15.246 -8.653 c -0.832 -0.497 -1.811 -0.784 -2.856 -0.784 -1.045 0 -2.023 0.287 -2.856 0.784 l -15.246 8.653 c -0.873 0.46 -1.629 1.158 -2.161 2.061 -0.554 0.944 -0.785 1.981 -0.729 2.993 l 0 17.01 c -0.056 1.012 0.175 2.051 0.729 2.993 0.532 0.906 1.288 1.604 2.161 2.064 l 15.246 8.653 c 0.832 0.497 1.811 0.785 2.856 0.785 z" fill="url(#linearGradient3764)" fill-opacity="1"/></g><g><g clip-path="url(#clipPath-292812257)"><g opacity="0.25"><g transform="translate(0,1)"><g filter="url(#filter-274758820)"><!-- color: #efefef --><g><path d="m 12 22.934 c -0.008 4.141 2.141 8.172 5.988 10.395 c 0.086 0.051 0.18 0.105 0.27 0.156 c 1.813 0.984 3.773 1.453 5.711 1.449 l 0 -6.652 c -0.902 0.004 -1.82 -0.227 -2.66 -0.711 c -2.543 -1.469 -3.414 -4.719 -1.945 -7.262 l -5.484 -3.172 c -0.098 -0.055 -0.184 -0.117 -0.254 -0.184 c -0.008 0.012 -0.012 0.02 -0.016 0.031 c -1.086 1.875 -1.605 3.926 -1.609 5.949 m 0 0" fill="#000"/><path d="m 29.922 33.35 c 3.59 -2.066 6.01 -5.941 6.01 -10.383 c 0 -0.102 0.004 -0.207 0.004 -0.313 c -0.055 -2.063 -0.633 -3.996 -1.602 -5.672 l -5.762 3.328 c 0.453 0.781 0.711 1.691 0.711 2.66 c 0 2.934 -2.375 5.316 -5.313 5.316 l -0.004 6.336 c 0 0.109 -0.012 0.211 -0.031 0.309 c 0.012 0 0.023 0 0.031 0 c 2.168 0 4.203 -0.574 5.957 -1.582 m 0 0" fill="#000"/><use xlink:href="#SVGCleanerId_0"/><use xlink:href="#SVGCleanerId_1"/><path d="m 29.98 12.617 c -3.582 -2.078 -8.148 -2.23 -11.996 -0.012 c -0.09 0.051 -0.184 0.102 -0.27 0.156 c -1.762 1.074 -3.145 2.543 -4.113 4.223 l 5.762 3.324 c 0.449 -0.785 1.109 -1.461 1.945 -1.945 c 2.547 -1.469 5.797 -0.602 7.266 1.941 l 5.488 -3.164 c 0.094 -0.055 0.188 -0.098 0.281 -0.125 c -0.004 -0.012 -0.008 -0.02 -0.016 -0.031 c -1.082 -1.875 -2.598 -3.352 -4.348 -4.367 m 0 0" fill="#000"/><use xlink:href="#SVGCleanerId_2"/><path d="m 29.418 33.12 l 4.703 -4.703 l 1.879 6.582 m -6.582 -1.879" fill="#000"/></g></g></g></g></g></g><g><g clip-path="url(#clipPath-301345911)"><!-- color: #efefef --><g><path d="m 12 22.934 c -0.008 4.141 2.141 8.172 5.988 10.395 c 0.086 0.051 0.18 0.105 0.27 0.156 c 1.813 0.984 3.773 1.453 5.711 1.449 l 0 -6.652 c -0.902 0.004 -1.82 -0.227 -2.66 -0.711 c -2.543 -1.469 -3.414 -4.719 -1.945 -7.262 l -5.484 -3.172 c -0.098 -0.055 -0.184 -0.117 -0.254 -0.184 c -0.008 0.012 -0.012 0.02 -0.016 0.031 c -1.086 1.875 -1.605 3.926 -1.609 5.949 m 0 0" fill="#537ebf"/><path d="m 29.922 33.35 c 3.59 -2.066 6.01 -5.941 6.01 -10.383 c 0 -0.102 0.004 -0.207 0.004 -0.313 c -0.055 -2.063 -0.633 -3.996 -1.602 -5.672 l -5.762 3.328 c 0.453 0.781 0.711 1.691 0.711 2.66 c 0 2.934 -2.375 5.316 -5.313 5.316 l -0.004 6.336 c 0 0.109 -0.012 0.211 -0.031 0.309 c 0.012 0 0.023 0 0.031 0 c 2.168 0 4.203 -0.574 5.957 -1.582 m 0 0" fill="#fac63e"/><path d="m 23.598 34.926 c 0.121 0.004 0.246 0.008 0.371 0.008 l -0.004 -6.652 c -0.746 0 -1.5 -0.16 -2.215 -0.488 l 1.855 7.05 m -0.008 0.086" fill-opacity="0.2" id="SVGCleanerId_0"/><path d="m 34.512 17.309 c -0.059 -0.109 -0.121 -0.223 -0.184 -0.328 l -5.758 3.328 c 0.375 0.648 0.613 1.379 0.684 2.16 l 5.176 -5.129 m 0.082 -0.031" fill-opacity="0.2" id="SVGCleanerId_1"/><path d="m 29.98 12.617 c -3.582 -2.078 -8.148 -2.23 -11.996 -0.012 c -0.09 0.051 -0.184 0.102 -0.27 0.156 c -1.762 1.074 -3.145 2.543 -4.113 4.223 l 5.762 3.324 c 0.449 -0.785 1.109 -1.461 1.945 -1.945 c 2.547 -1.469 5.797 -0.602 7.266 1.941 l 5.488 -3.164 c 0.094 -0.055 0.188 -0.098 0.281 -0.125 c -0.004 -0.012 -0.008 -0.02 -0.016 -0.031 c -1.082 -1.875 -2.598 -3.352 -4.348 -4.367 m 0 0" fill="#0f934c"/><path d="m 13.793 16.664 c -0.063 0.105 -0.129 0.215 -0.191 0.32 l 5.762 3.324 c 0.375 -0.648 0.887 -1.223 1.531 -1.676 l -7.03 -1.914 m -0.07 -0.055" fill-opacity="0.2" id="SVGCleanerId_2"/><path d="m 29.418 33.12 l 4.703 -4.703 l 1.879 6.582 m -6.582 -1.879" fill="#fac63e"/></g></g></g><g><path d="m 24 1 c -1.045 0 -2.01 0.284 -2.844 0.781 l -15.344 8.719 c -0.017 0.013 -0.045 0.023 -0.063 0.031 c -1.852 1.051 -2.851 3 -2.75 4.969 l 0 1 c -0.101 -1.966 0.898 -3.918 2.75 -4.969 c 0.017 -0.008 0.045 -0.018 0.063 -0.031 l 15.344 -8.719 c 0.832 -0.497 1.799 -0.781 2.844 -0.781 c 1.045 0 2.01 0.284 2.844 0.781 l 15.25 8.656 c 0.873 0.46 1.625 1.156 2.156 2.063 c 0.554 0.942 0.806 1.988 0.75 3 l 0 -1 c 0.056 -1.012 -0.196 -2.058 -0.75 -3 c -0.532 -0.906 -1.283 -1.603 -2.156 -2.063 l -15.25 -8.656 c -0.832 -0.497 -1.799 -0.781 -2.844 -0.781 z" opacity="0.2" fill="#fff"/></g></svg>