<?xml version="1.0" encoding="UTF-8" standalone="no"?>
<!-- Created with Inkscape (http://www.inkscape.org/) -->

<svg
   xmlns:dc="http://purl.org/dc/elements/1.1/"
   xmlns:cc="http://creativecommons.org/ns#"
   xmlns:rdf="http://www.w3.org/1999/02/22-rdf-syntax-ns#"
   xmlns:svg="http://www.w3.org/2000/svg"
   xmlns="http://www.w3.org/2000/svg"
   xmlns:xlink="http://www.w3.org/1999/xlink"
   xmlns:sodipodi="http://sodipodi.sourceforge.net/DTD/sodipodi-0.dtd"
   xmlns:inkscape="http://www.inkscape.org/namespaces/inkscape"
   width="48"
   height="48"
   id="svg2"
   version="1.1"
   inkscape:version="0.48.5 r10040"
   sodipodi:docname="rename_me_google_people.svg"
   inkscape:export-filename="/media/Data/Main/Visuals/Icons/Numix/Desktop/repos/Android/Hexagon/rename_me_google_people.png"
   inkscape:export-xdpi="360"
   inkscape:export-ydpi="360">
  <defs
     id="defs4">
    <linearGradient
       id="linearGradient4226">
      <stop
         style="stop-color:#1890d0;stop-opacity:1;"
         offset="0"
         id="stop4228" />
      <stop
         style="stop-color:#2face6;stop-opacity:1;"
         offset="1"
         id="stop4230" />
    </linearGradient>
    <linearGradient
       inkscape:collect="always"
       xlink:href="#linearGradient4226"
       id="linearGradient4116"
       x1="86.596764"
       y1="1046.0466"
       x2="86.596764"
       y2="1010.7034"
       gradientUnits="userSpaceOnUse"
       gradientTransform="matrix(1.3211884,0,0,1.2988368,-222.59905,-210.30838)" />
    <linearGradient
       id="4-2-8">
      <stop
         stop-color="#eff7fc"
         id="stop67-0" />
      <stop
         offset="1"
         stop-color="#ffffff"
         id="stop69-2" />
    </linearGradient>
    <linearGradient
       inkscape:collect="always"
       xlink:href="#linearGradient4226"
       id="linearGradient4036"
       gradientUnits="userSpaceOnUse"
       gradientTransform="matrix(1.2582749,0,0,1.2423656,-217.64202,-151.23565)"
       x1="86.596764"
       y1="1046.0466"
       x2="86.596764"
       y2="1010.7034" />
    <linearGradient
       inkscape:collect="always"
       xlink:href="#linearGradient4226"
       id="linearGradient4038"
       gradientUnits="userSpaceOnUse"
       gradientTransform="matrix(1.2582749,0,0,1.2423656,-75.14202,-1253.5979)"
       x1="86.596764"
       y1="1046.0466"
       x2="86.596764"
       y2="1010.7034" />
    <linearGradient
       inkscape:collect="always"
       xlink:href="#linearGradient4226"
       id="linearGradient4045"
       gradientUnits="userSpaceOnUse"
       gradientTransform="matrix(1.2582749,0,0,1.2423656,-217.64202,-150.23565)"
       x1="86.596764"
       y1="1046.0466"
       x2="86.596764"
       y2="1010.7034" />
    <linearGradient
       inkscape:collect="always"
       xlink:href="#linearGradient4226"
       id="linearGradient4047"
       gradientUnits="userSpaceOnUse"
       gradientTransform="matrix(1.2582749,0,0,1.2423656,-75.14202,-1253.5979)"
       x1="86.596764"
       y1="1046.0466"
       x2="86.596764"
       y2="1010.7034" />
    <linearGradient
       inkscape:collect="always"
       xlink:href="#linearGradient4226"
       id="linearGradient4054"
       gradientUnits="userSpaceOnUse"
       gradientTransform="matrix(1.2582749,0,0,1.2423656,-217.64202,-149.23565)"
       x1="86.596764"
       y1="1046.0466"
       x2="86.596764"
       y2="1010.7034" />
    <linearGradient
       inkscape:collect="always"
       xlink:href="#linearGradient4226"
       id="linearGradient4056"
       gradientUnits="userSpaceOnUse"
       gradientTransform="matrix(1.2582749,0,0,1.2423656,-75.14202,-1253.5979)"
       x1="86.596764"
       y1="1046.0466"
       x2="86.596764"
       y2="1010.7034" />
    <linearGradient
       inkscape:collect="always"
       xlink:href="#linearGradient4226-1"
       id="linearGradient4116-5"
       x1="86.596764"
       y1="1046.0466"
       x2="86.596764"
       y2="1010.7034"
       gradientUnits="userSpaceOnUse"
       gradientTransform="matrix(1.3211884,0,0,1.2988368,-222.59905,-210.30838)" />
    <linearGradient
       id="linearGradient4226-1">
      <stop
         style="stop-color:#1890d0;stop-opacity:1;"
         offset="0"
         id="stop4228-4" />
      <stop
         style="stop-color:#2face6;stop-opacity:1;"
         offset="1"
         id="stop4230-9" />
    </linearGradient>
    <linearGradient
       y2="1010.7034"
       x2="86.596764"
       y1="1046.0466"
       x1="86.596764"
       gradientTransform="matrix(1.3211884,0,0,1.2988368,-80.099051,-1311.6706)"
       gradientUnits="userSpaceOnUse"
       id="linearGradient4088"
       xlink:href="#linearGradient4226-1"
       inkscape:collect="always" />
    <linearGradient
       y2="1010.7034"
       x2="86.596764"
       y1="1046.0466"
       x1="86.596764"
       gradientTransform="matrix(1.3211884,0,0,1.2988368,-80.099051,-1311.6706)"
       gradientUnits="userSpaceOnUse"
       id="linearGradient4088-8"
       xlink:href="#linearGradient4226-1-1"
       inkscape:collect="always" />
    <linearGradient
       id="linearGradient4226-1-1">
      <stop
         style="stop-color:#1890d0;stop-opacity:1;"
         offset="0"
         id="stop4228-4-0" />
      <stop
         style="stop-color:#2face6;stop-opacity:1;"
         offset="1"
         id="stop4230-9-5" />
    </linearGradient>
    <linearGradient
       y2="1010.7034"
       x2="86.596764"
       y1="1046.0466"
       x1="86.596764"
       gradientTransform="matrix(1.3211884,0,0,1.2988368,-80.099051,-1311.6706)"
       gradientUnits="userSpaceOnUse"
       id="linearGradient4122"
       xlink:href="#linearGradient4226-1-1"
       inkscape:collect="always" />
    <linearGradient
       y2="1010.7034"
       x2="86.596764"
       y1="1046.0466"
       x1="86.596764"
       gradientTransform="matrix(1.3211884,0,0,1.2988368,-80.099051,-1311.6706)"
       gradientUnits="userSpaceOnUse"
       id="linearGradient4122-9"
       xlink:href="#linearGradient4226-1-1-6"
       inkscape:collect="always" />
    <linearGradient
       id="linearGradient4226-1-1-6">
      <stop
         style="stop-color:#1890d0;stop-opacity:1;"
         offset="0"
         id="stop4228-4-0-7" />
      <stop
         style="stop-color:#2face6;stop-opacity:1;"
         offset="1"
         id="stop4230-9-5-7" />
    </linearGradient>
    <linearGradient
       y2="1010.7034"
       x2="86.596764"
       y1="1046.0466"
       x1="86.596764"
       gradientTransform="matrix(1.3211884,0,0,1.2988368,-222.59905,-210.3084)"
       gradientUnits="userSpaceOnUse"
       id="linearGradient4173"
       xlink:href="#linearGradient4073-2"
       inkscape:collect="always" />
    <linearGradient
       inkscape:collect="always"
       xlink:href="#linearGradient4226-1-1-6"
       id="linearGradient4232"
       gradientUnits="userSpaceOnUse"
       gradientTransform="matrix(1.3211884,0,0,1.2988368,-222.59905,-209.3084)"
       x1="86.596764"
       y1="1046.0466"
       x2="86.596764"
       y2="1010.7034" />
    <linearGradient
       inkscape:collect="always"
       xlink:href="#linearGradient4226-1-1-6"
       id="linearGradient4234"
       gradientUnits="userSpaceOnUse"
       gradientTransform="matrix(1.3211884,0,0,1.2988368,-80.09905,-1311.6706)"
       x1="86.596764"
       y1="1046.0466"
       x2="86.596764"
       y2="1010.7034" />
    <linearGradient
       inkscape:collect="always"
       xlink:href="#linearGradient4226-1-1-6"
       id="linearGradient4241"
       gradientUnits="userSpaceOnUse"
       gradientTransform="matrix(1.3211884,0,0,1.2988368,-222.59905,-208.3084)"
       x1="86.596764"
       y1="1046.0466"
       x2="86.596764"
       y2="1010.7034" />
    <linearGradient
       inkscape:collect="always"
       xlink:href="#linearGradient4226-1-1-6"
       id="linearGradient4243"
       gradientUnits="userSpaceOnUse"
       gradientTransform="matrix(1.3211884,0,0,1.2988368,-80.09905,-1311.6706)"
       x1="86.596764"
       y1="1046.0466"
       x2="86.596764"
       y2="1010.7034" />
    <filter
       inkscape:collect="always"
       id="filter3823"
       x="-0.12"
       width="1.24"
       y="-0.12"
       height="1.24">
      <feGaussianBlur
         inkscape:collect="always"
         stdDeviation="0.9"
         id="feGaussianBlur3825" />
    </filter>
    <linearGradient
       inkscape:collect="always"
       xlink:href="#linearGradient4073"
       id="linearGradient4079"
       x1="-25.499998"
       y1="15"
       x2="-25.499998"
       y2="11"
       gradientUnits="userSpaceOnUse" />
    <linearGradient
       id="linearGradient4073">
      <stop
         style="stop-color:#4283e5;stop-opacity:1;"
         offset="0"
         id="stop4075" />
      <stop
         style="stop-color:#6ca4f8;stop-opacity:1;"
         offset="1"
         id="stop4077" />
    </linearGradient>
    <linearGradient
       y2="11"
       x2="-25.499998"
       y1="15"
       x1="-25.499998"
       gradientUnits="userSpaceOnUse"
       id="linearGradient3272"
       xlink:href="#linearGradient4073"
       inkscape:collect="always" />
    <filter
       inkscape:collect="always"
       id="filter3853"
       x="-0.12"
       width="1.24"
       y="-0.12"
       height="1.24">
      <feGaussianBlur
         inkscape:collect="always"
         stdDeviation="0.33866666"
         id="feGaussianBlur3855" />
    </filter>
    <linearGradient
       inkscape:collect="always"
       xlink:href="#linearGradient4073-2"
       id="linearGradient4075"
       x1="24"
       y1="1051.36"
       x2="24"
       y2="1005.36"
       gradientUnits="userSpaceOnUse" />
    <linearGradient
       id="linearGradient4073-2">
      <stop
         style="stop-color:#aa8479;stop-opacity:1;"
         offset="0"
         id="stop4075-2" />
      <stop
         style="stop-color:#c19d93;stop-opacity:1;"
         offset="1"
         id="stop4077-5" />
    </linearGradient>
    <linearGradient
       inkscape:collect="always"
       xlink:href="#linearGradient4073-2"
       id="linearGradient4029"
       x1="24"
       y1="1051.36"
       x2="24"
       y2="1005.36"
       gradientUnits="userSpaceOnUse" />
    <linearGradient
       id="linearGradient4031">
      <stop
         style="stop-color:#aa8479;stop-opacity:1;"
         offset="0"
         id="stop4033" />
      <stop
         style="stop-color:#c19d93;stop-opacity:1;"
         offset="1"
         id="stop4035" />
    </linearGradient>
    <linearGradient
       y2="1005.36"
       x2="24"
       y1="1051.36"
       x1="24"
       gradientUnits="userSpaceOnUse"
       id="linearGradient4039"
       xlink:href="#linearGradient4073-2"
       inkscape:collect="always" />
    <linearGradient
       y2="1005.36"
       x2="24"
       y1="1051.36"
       x1="24"
       gradientUnits="userSpaceOnUse"
       id="linearGradient4041"
       xlink:href="#linearGradient4073-2"
       inkscape:collect="always" />
  </defs>
  <sodipodi:namedview
     id="base"
     pagecolor="#ffffff"
     bordercolor="#666666"
     borderopacity="1.0"
     inkscape:pageopacity="0.0"
     inkscape:pageshadow="2"
     inkscape:zoom="9.808165"
     inkscape:cx="10.384368"
     inkscape:cy="31.107001"
     inkscape:document-units="px"
     inkscape:current-layer="layer2"
     showgrid="true"
     inkscape:window-width="1920"
     inkscape:window-height="1052"
     inkscape:window-x="0"
     inkscape:window-y="28"
     inkscape:window-maximized="1"
     showguides="true"
     inkscape:guide-bbox="true"
     inkscape:showpageshadow="false"
     borderlayer="true"
     fit-margin-top="0"
     fit-margin-left="0"
     fit-margin-right="0"
     fit-margin-bottom="0">
    <inkscape:grid
       type="xygrid"
       id="grid3009"
       empspacing="5"
       visible="true"
       enabled="true"
       snapvisiblegridlinesonly="true" />
  </sodipodi:namedview>
  <metadata
     id="metadata7">
    <rdf:RDF>
      <cc:Work
         rdf:about="">
        <dc:format>image/svg+xml</dc:format>
        <dc:type
           rdf:resource="http://purl.org/dc/dcmitype/StillImage" />
        <dc:title></dc:title>
      </cc:Work>
    </rdf:RDF>
  </metadata>
  <g
     inkscape:groupmode="layer"
     id="layer3"
     inkscape:label="Shadow"
     sodipodi:insensitive="true">
    <path
       style="opacity:0.05;fill:#000000;fill-opacity:1;stroke:none;display:inline"
       d="m 45,33 c 0.056,1.0126 -0.195947,2.0557 -0.75,3 -0.531645,0.9035 -1.283268,1.6029 -2.15625,2.0625 l -15.25,8.65625 C 26.01135,47.21605 25.04515,47.5 24,47.5 c -1.04515,0 -2.01134,-0.28395 -2.84375,-0.78125 L 5.90625,38.0625 C 5.03328,37.6029 4.28165,36.9035 3.75,36 3.334485,35.291775 3.0731859,34.514827 3,33.75 c -0.00444,0.932053 0.2421483,1.884392 0.75,2.75 0.53165,0.9035 1.28328,1.6029 2.15625,2.0625 l 15.25,8.65625 C 21.98866,47.71605 22.95485,48 24,48 c 1.04515,0 2.01135,-0.28395 2.84375,-0.78125 l 15.25,-8.65625 C 42.966729,38.1029 43.71836,37.4035 44.25,36.5 44.80406,35.5557 45.056,34.5126 45,33.5 L 45,33 z"
       id="path4192"
       inkscape:connector-curvature="0" />
    <path
       style="opacity:0.1;fill:#000000;fill-opacity:1;stroke:none;display:inline"
       d="m 45,32.5 c 0.01455,0.263023 -0.0043,0.516377 -0.03125,0.78125 -0.03552,0.844289 -0.258957,1.685102 -0.71875,2.46875 -0.531645,0.9035 -1.283268,1.6029 -2.15625,2.0625 l -15.25,8.65625 C 26.01135,46.96605 25.04515,47.25 24,47.25 c -1.04515,0 -2.01134,-0.28395 -2.84375,-0.78125 L 5.90625,37.8125 C 5.03328,37.3529 4.28165,36.6535 3.75,35.75 3.3363246,35.044911 3.1287635,34.289789 3.0625,33.53125 3.0486732,33.439204 3.0088198,33.342171 3,33.25 c -0.00444,0.932053 0.2421483,1.884392 0.75,2.75 0.53165,0.9035 1.28328,1.6029 2.15625,2.0625 l 15.25,8.65625 C 21.98866,47.21605 22.95485,47.5 24,47.5 c 1.04515,0 2.01135,-0.28395 2.84375,-0.78125 l 15.25,-8.65625 C 42.966732,37.6029 43.718355,36.9035 44.25,36 44.804053,35.0557 45.055998,34.0126 45,33 l 0,-0.5 z M 3.1875,34.125 c 0.05727,0.21935 0.1315049,0.441696 0.21875,0.65625 C 3.3181613,34.565646 3.2464767,34.345613 3.1875,34.125 z m 0.21875,0.65625 C 3.5049616,35.024002 3.6121448,35.265033 3.75,35.5 3.611495,35.263925 3.5069228,35.027655 3.40625,34.78125 z M 44.8125,34.125 c -0.05896,0.220613 -0.130674,0.440646 -0.21875,0.65625 0.08724,-0.214554 0.161483,-0.4369 0.21875,-0.65625 z m -0.21875,0.65625 C 44.493091,35.027655 44.388513,35.263925 44.25,35.5 c 0.137863,-0.234967 0.245041,-0.475998 0.34375,-0.71875 z"
       id="path4150"
       inkscape:connector-curvature="0" />
    <path
       inkscape:connector-curvature="0"
       style="opacity:0.2;fill:#000000;fill-opacity:1;stroke:none;display:inline"
       d="m 3.0309365,33.28125 c 0.035454,0.844289 0.2589842,1.685102 0.71875,2.46875 0.53165,0.9035 1.28328,1.6029 2.15625,2.0625 l 15.2499995,8.65625 c 0.83241,0.4973 1.7986,0.78125 2.84375,0.78125 1.04515,0 2.01135,-0.28395 2.84375,-0.78125 l 15.25,-8.65625 c 0.872982,-0.4596 1.624605,-1.159 2.15625,-2.0625 0.459793,-0.783648 0.68323,-1.624461 0.71875,-2.46875 -0.06742,0.76297 -0.30321,1.510525 -0.71875,2.21875 -0.531645,0.9035 -1.283268,1.6029 -2.15625,2.0625 l -15.25,8.65625 C 26.011036,46.71605 25.044836,47 23.999686,47 c -1.04515,0 -2.01134,-0.28395 -2.84375,-0.78125 L 5.9059365,37.5625 c -0.87297,-0.4596 -1.6246,-1.159 -2.15625,-2.0625 -0.415515,-0.708225 -0.6513578,-1.45578 -0.71875,-2.21875 z"
       id="path4141" />
  </g>
  <g
     inkscape:label="Base"
     inkscape:groupmode="layer"
     id="layer1"
     transform="translate(142.5,-1101.3622)">
    <rect
       style="fill:none;stroke:none"
       id="rect3259"
       width="47.994476"
       height="47.994476"
       x="-142.49724"
       y="1101.3676" />
    <path
       sodipodi:nodetypes="sccccccccsccccccccs"
       style="fill:url(#linearGradient4173);fill-opacity:1.0;stroke:none;display:inline"
       d="m -118.49992,1102.3662 c -1.04516,0 -2.02343,0.2872 -2.85582,0.7844 l -15.33869,8.7079 c -0.0173,0.013 -0.0346,0.013 -0.0517,0.021 -1.85189,1.051 -2.84681,3.0013 -2.74567,4.9676 l 0,17.0231 c -0.0562,1.0126 0.17538,2.0491 0.7294,2.9934 0.53165,0.9035 1.28783,1.6017 2.1608,2.0613 l 15.24578,8.6528 c 0.83241,0.4973 1.81067,0.7845 2.85582,0.7845 1.04515,0 2.02341,-0.2872 2.85581,-0.7845 l 15.24579,-8.6528 c 0.872979,-0.4596 1.629149,-1.1578 2.160789,-2.0613 0.55406,-0.9443 0.78542,-1.9808 0.72942,-2.9934 l 0,-17.0134 c 0.0562,-1.0123 -0.17536,-2.0515 -0.72942,-2.9932 -0.53164,-0.9062 -1.28781,-1.6042 -2.160789,-2.0638 l -15.24579,-8.6531 c -0.8324,-0.4973 -1.81066,-0.7845 -2.85581,-0.7845 z"
       id="path4071"
       inkscape:connector-curvature="0" />
    <path
       style="fill:#000000;fill-opacity:1;stroke:none;display:inline;opacity:0.1"
       d="M 24 1 C 22.95484 1 21.98864 1.28405 21.15625 1.78125 L 5.8125 10.5 C 5.7952 10.513 5.7671 10.52325 5.75 10.53125 C 3.89811 11.58225 2.89886 13.5337 3 15.5 L 3 17.5 C 2.89886 15.5337 3.89811 13.58225 5.75 12.53125 C 5.7671 12.52325 5.7952 12.513 5.8125 12.5 L 21.15625 3.78125 C 21.98864 3.28405 22.95484 3 24 3 C 25.04515 3 26.01135 3.28395 26.84375 3.78125 L 42.09375 12.4375 C 42.966729 12.8971 43.71836 13.5938 44.25 14.5 C 44.80406 15.4417 45.0562 16.4877 45 17.5 L 45 15.5 C 45.0562 14.4877 44.80406 13.4417 44.25 12.5 C 43.71836 11.5938 42.966729 10.8971 42.09375 10.4375 L 26.84375 1.78125 C 26.01135 1.28395 25.04515 1 24 1 z "
       transform="translate(-142.5,1101.3622)"
       id="path4237" />
  </g>
  <g
     inkscape:groupmode="layer"
     id="layer2"
     inkscape:label="Symbol">
    <g
       id="g4149"
       transform="scale(3.543307,3.543307)"
       style="opacity:0.2;fill:#000000;fill-opacity:1;filter:url(#filter3853)">
      <rect
         style="fill:#000000;fill-opacity:1;stroke:none"
         id="rect4131"
         width="0.84666723"
         height="1.1288891"
         x="9.3133326"
         y="8.1844444"
         rx="0.25"
         ry="0.25" />
      <rect
         ry="0.25"
         rx="0.25"
         y="6.20889"
         x="9.3133326"
         height="1.128888"
         width="0.84666723"
         id="rect4133"
         style="fill:#000000;fill-opacity:1;stroke:none" />
      <rect
         style="fill:#000000;fill-opacity:1;stroke:none"
         id="rect4135"
         width="0.84666699"
         height="1.1288887"
         x="9.3133326"
         y="4.2333336"
         rx="0.25"
         ry="0.25" />
      <rect
         style="fill:#000000;fill-opacity:1;stroke:none"
         id="rect4137"
         width="5.6444445"
         height="6.7733335"
         x="3.9511113"
         y="3.3866668"
         rx="1"
         ry="1" />
      <rect
         ry="0.15000001"
         rx="0.15000001"
         y="5.3622227"
         x="3.3866668"
         height="0.56444448"
         width="1.1288887"
         id="rect4139"
         style="fill:#000000;fill-opacity:1;stroke:none" />
      <rect
         style="fill:#000000;fill-opacity:1;stroke:none"
         id="rect4141"
         width="1.1288887"
         height="0.56444448"
         x="3.3866668"
         y="6.4911118"
         rx="0.15000001"
         ry="0.15000001" />
      <rect
         ry="0.15000001"
         rx="0.15000001"
         y="7.6200008"
         x="3.3866668"
         height="0.56444448"
         width="1.1288887"
         id="rect4143"
         style="fill:#000000;fill-opacity:1;stroke:none" />
      <rect
         style="fill:#000000;fill-opacity:1;stroke:none"
         id="rect4145"
         width="1.1288887"
         height="0.56444448"
         x="3.3866668"
         y="8.7488899"
         rx="0.15000001"
         ry="0.15000001" />
      <rect
         style="fill:#000000;fill-opacity:1;stroke:none"
         id="rect4147"
         width="1.1288887"
         height="0.56444448"
         x="3.3866668"
         y="4.2333336"
         rx="0.15000001"
         ry="0.15000001" />
    </g>
    <rect
       style="fill:#45485b;fill-opacity:1;stroke:none"
       id="rect4091"
       width="3.0000019"
       height="4.0000005"
       x="32.999996"
       y="29"
       rx="0.88582677"
       ry="0.88582677" />
    <rect
       ry="0.88582677"
       rx="0.88582677"
       y="22.000004"
       x="32.999996"
       height="3.9999969"
       width="3.0000019"
       id="rect4089"
       style="fill:#e44933;fill-opacity:1;stroke:none" />
    <rect
       style="fill:#ffca08;fill-opacity:1;stroke:none"
       id="rect4087"
       width="3.0000012"
       height="3.9999993"
       x="32.999996"
       y="15.000001"
       rx="0.88582677"
       ry="0.88582677" />
    <rect
       style="fill:#f9f9f9;fill-opacity:1;stroke:none"
       id="rect3293"
       width="20"
       height="24"
       x="14"
       y="12"
       rx="3.5433071"
       ry="3.5433071" />
    <path
       style="fill:#b1c9c9;fill-opacity:1;stroke:none"
       d="M 17.53125,12 C 15.568258,12.000001 14,13.568258 14,15.53125 l 0,16.9375 c 0,1.962992 1.568258,3.531249 3.53125,3.531249 l 0.46875,0 L 18,12 z"
       id="rect4063"
       inkscape:connector-curvature="0"
       sodipodi:nodetypes="ssssccs" />
    <rect
       ry="0.53149605"
       rx="0.53149605"
       y="19.000002"
       x="12"
       height="2"
       width="3.9999993"
       id="rect4116"
       style="fill:#81584a;fill-opacity:1;stroke:none" />
    <rect
       style="fill:#81584a;fill-opacity:1;stroke:none"
       id="rect4118"
       width="3.9999993"
       height="2"
       x="12"
       y="23.000002"
       rx="0.53149605"
       ry="0.53149605" />
    <rect
       ry="0.53149605"
       rx="0.53149605"
       y="27.000004"
       x="12"
       height="2"
       width="3.9999993"
       id="rect4120"
       style="fill:#81584a;fill-opacity:1;stroke:none" />
    <rect
       style="fill:#81584a;fill-opacity:1;stroke:none"
       id="rect4122"
       width="3.9999993"
       height="2"
       x="12"
       y="31.000004"
       rx="0.53149605"
       ry="0.53149605" />
    <rect
       style="fill:#81584a;fill-opacity:1;stroke:none"
       id="rect4114"
       width="3.9999993"
       height="2"
       x="12"
       y="15.000001"
       rx="0.53149605"
       ry="0.53149605" />
    <path
       style="fill:#6a6e84;fill-opacity:1"
       d="m 24.163542,30.990715 c -1.459351,-0.05854 -2.447019,-0.169438 -3.210345,-0.360463 -0.873858,-0.218686 -1.497305,-0.549956 -1.754629,-0.932325 -0.177871,-0.264308 -0.207704,-0.400982 -0.196488,-0.900194 0.0095,-0.420367 0.01017,-0.424543 0.110749,-0.632107 0.245856,-0.507409 0.699897,-0.937557 1.541208,-1.460109 0.415985,-0.258374 1.270582,-0.675524 1.881096,-0.918209 0.607307,-0.241409 0.742803,-0.33734 0.876301,-0.620415 0.06733,-0.14277 0.0814,-0.209072 0.0814,-0.383484 0,-0.333262 -0.06156,-0.501816 -0.267191,-0.731644 -0.86582,-0.967672 -1.420494,-2.402011 -1.420494,-3.673269 0,-1.406559 0.60796,-2.505966 1.677866,-3.034179 0.451999,-0.223154 0.849152,-0.320265 1.396462,-0.341462 1.499226,-0.05807 2.73535,0.773595 3.157284,2.124216 0.22259,0.712522 0.228001,1.665908 0.01417,2.505561 -0.207616,0.815427 -0.676589,1.743313 -1.159576,2.294283 -0.252344,0.287862 -0.276247,0.329723 -0.327979,0.574332 -0.06192,0.29278 -0.04557,0.588322 0.04289,0.775046 0.09852,0.207967 0.227665,0.301156 0.604933,0.436493 1.978951,0.709907 3.376771,1.649126 3.723776,2.502069 0.0593,0.145778 0.06498,0.202266 0.06501,0.647253 2.8e-5,0.473252 -0.0022,0.492312 -0.07691,0.650503 -0.320379,0.678657 -1.325767,1.115281 -3.08638,1.340375 -0.775657,0.09917 -2.770176,0.173955 -3.673188,0.137732 z"
       id="path3146"
       inkscape:connector-curvature="0" />
  </g>
</svg>
