<svg viewBox="0 0 48 48"><defs><linearGradient id="linearGradient3764" x1="1" x2="47" gradientUnits="userSpaceOnUse" gradientTransform="translate(-48.000001,0.00221467)"><stop stop-color="#25549b" stop-opacity="1"/><stop offset="1" stop-color="#295dab" stop-opacity="1"/></linearGradient><clipPath id="clipPath-828067658"><g transform="translate(0,-1004.3622)"><rect rx="4" y="1005.36" x="1" height="46" width="46" fill="#1890d0"/></g></clipPath><clipPath id="clipPath-841893516"><g transform="translate(0,-1004.3622)"><rect rx="4" y="1005.36" x="1" height="46" width="46" fill="#1890d0"/></g></clipPath></defs><g><path d="m 1 43 l 0 0.25 c 0 2.216 1.784 4 4 4 l 38 0 c 2.216 0 4 -1.784 4 -4 l 0 -0.25 c 0 2.216 -1.784 4 -4 4 l -38 0 c -2.216 0 -4 -1.784 -4 -4 z m 0 0.5 l 0 0.5 c 0 2.216 1.784 4 4 4 l 38 0 c 2.216 0 4 -1.784 4 -4 l 0 -0.5 c 0 2.216 -1.784 4 -4 4 l -38 0 c -2.216 0 -4 -1.784 -4 -4 z" opacity="0.02"/><path d="m 1 43.25 l 0 0.25 c 0 2.216 1.784 4 4 4 l 38 0 c 2.216 0 4 -1.784 4 -4 l 0 -0.25 c 0 2.216 -1.784 4 -4 4 l -38 0 c -2.216 0 -4 -1.784 -4 -4 z" opacity="0.05"/><path d="m 1 43 l 0 0.25 c 0 2.216 1.784 4 4 4 l 38 0 c 2.216 0 4 -1.784 4 -4 l 0 -0.25 c 0 2.216 -1.784 4 -4 4 l -38 0 c -2.216 0 -4 -1.784 -4 -4 z" opacity="0.1"/></g><g><rect width="46" height="46" x="-47" y="1" rx="4" transform="matrix(0,-1,1,0,0,0)" fill="url(#linearGradient3764)" fill-opacity="1"/></g><g><g clip-path="url(#clipPath-828067658)"><g opacity="0.1"><!-- color: #295dab --><g><path d="m 28.488 23.875 c -0.145 -2.996 -2.281 -4.797 -4.855 -4.797 l -0.098 0 c -2.973 0 -4.625 2.438 -4.625 5.207 c 0 3.098 1.996 5.059 4.613 5.059 c 2.918 0 4.836 -2.227 4.973 -4.863 m -4.945 -8.08 c 1.984 0 3.855 0.914 5.227 2.348 l 0 0.008 c 0 -0.691 0.441 -1.207 1.059 -1.207 l 0.156 -0.004 c 0.965 0 1.164 0.953 1.164 1.254 l 0.004 10.699 c -0.066 0.699 0.695 1.063 1.117 0.613 c 1.648 -1.766 3.621 -9.08 -1.027 -13.313 c -4.328 -3.949 -10.137 -3.297 -13.223 -1.078 c -3.285 2.359 -5.387 7.586 -3.344 12.492 c 2.223 5.352 8.59 6.949 12.375 5.355 c 1.914 -0.805 2.801 1.895 0.809 2.777 c -3 1.332 -11.375 1.199 -15.285 -5.859 c -2.641 -4.766 -2.5 -13.152 4.504 -17.5 c 5.359 -3.324 12.426 -2.402 16.688 2.234 c 4.453 4.852 4.195 13.93 -0.148 17.461 c -1.969 1.602 -4.895 0.043 -4.875 -2.297 l -0.02 -0.762 c -1.371 1.418 -3.195 2.242 -5.18 2.242 c -3.93 0 -7.383 -3.598 -7.383 -7.691 c 0 -4.133 3.453 -7.773 7.383 -7.773" fill-rule="evenodd" fill="#000"/></g></g></g></g><g><g clip-path="url(#clipPath-841893516)"><g transform="translate(0,-1)"><!-- color: #295dab --><g><path d="m 28.488 23.875 c -0.145 -2.996 -2.281 -4.797 -4.855 -4.797 l -0.098 0 c -2.973 0 -4.625 2.438 -4.625 5.207 c 0 3.098 1.996 5.059 4.613 5.059 c 2.918 0 4.836 -2.227 4.973 -4.863 m -4.945 -8.08 c 1.984 0 3.855 0.914 5.227 2.348 l 0 0.008 c 0 -0.691 0.441 -1.207 1.059 -1.207 l 0.156 -0.004 c 0.965 0 1.164 0.953 1.164 1.254 l 0.004 10.699 c -0.066 0.699 0.695 1.063 1.117 0.613 c 1.648 -1.766 3.621 -9.08 -1.027 -13.313 c -4.328 -3.949 -10.137 -3.297 -13.223 -1.078 c -3.285 2.359 -5.387 7.586 -3.344 12.492 c 2.223 5.352 8.59 6.949 12.375 5.355 c 1.914 -0.805 2.801 1.895 0.809 2.777 c -3 1.332 -11.375 1.199 -15.285 -5.859 c -2.641 -4.766 -2.5 -13.152 4.504 -17.5 c 5.359 -3.324 12.426 -2.402 16.688 2.234 c 4.453 4.852 4.195 13.93 -0.148 17.461 c -1.969 1.602 -4.895 0.043 -4.875 -2.297 l -0.02 -0.762 c -1.371 1.418 -3.195 2.242 -5.18 2.242 c -3.93 0 -7.383 -3.598 -7.383 -7.691 c 0 -4.133 3.453 -7.773 7.383 -7.773" fill="#ffb400" fill-rule="evenodd"/></g></g></g></g><g><g transform="translate(0,-1004.3622)"><path d="m 1 1043.36 0 4 c 0 2.216 1.784 4 4 4 l 38 0 c 2.216 0 4 -1.784 4 -4 l 0 -4 c 0 2.216 -1.784 4 -4 4 l -38 0 c -2.216 0 -4 -1.784 -4 -4 z" opacity="0.1"/></g></g></svg>