<svg viewBox="0 0 48 48"><defs><linearGradient id="linearGradient3764" y1="1" x2="0" y2="47" gradientUnits="userSpaceOnUse"><stop stop-color="#295dab" stop-opacity="1"/><stop offset="1" stop-color="#25549b" stop-opacity="1"/></linearGradient><clipPath id="clipPath-160584952"><g transform="translate(0,-1004.3622)"><path d="m 24 1005.37 c -1.045 0 -2.023 0.287 -2.856 0.784 l -15.339 8.708 c -0.017 0.013 -0.035 0.013 -0.052 0.021 -1.852 1.051 -2.847 3 -2.746 4.968 l 0 17.02 c -0.056 1.013 0.175 2.049 0.729 2.993 0.532 0.903 1.288 1.602 2.161 2.061 l 15.246 8.653 c 0.832 0.497 1.811 0.784 2.856 0.784 1.045 0 2.023 -0.287 2.856 -0.784 l 15.246 -8.653 c 0.873 -0.46 1.629 -1.158 2.161 -2.061 0.554 -0.944 0.785 -1.981 0.729 -2.993 l 0 -17.01 c 0.056 -1.012 -0.175 -2.052 -0.729 -2.993 -0.532 -0.906 -1.288 -1.604 -2.161 -2.064 l -15.246 -8.653 c -0.832 -0.497 -1.811 -0.784 -2.856 -0.784 z" fill="#1890d0"/></g></clipPath><clipPath id="clipPath-168914084"><g transform="translate(0,-1004.3622)"><path d="m 24 1005.37 c -1.045 0 -2.023 0.287 -2.856 0.784 l -15.339 8.708 c -0.017 0.013 -0.035 0.013 -0.052 0.021 -1.852 1.051 -2.847 3 -2.746 4.968 l 0 17.02 c -0.056 1.013 0.175 2.049 0.729 2.993 0.532 0.903 1.288 1.602 2.161 2.061 l 15.246 8.653 c 0.832 0.497 1.811 0.784 2.856 0.784 1.045 0 2.023 -0.287 2.856 -0.784 l 15.246 -8.653 c 0.873 -0.46 1.629 -1.158 2.161 -2.061 0.554 -0.944 0.785 -1.981 0.729 -2.993 l 0 -17.01 c 0.056 -1.012 -0.175 -2.052 -0.729 -2.993 -0.532 -0.906 -1.288 -1.604 -2.161 -2.064 l -15.246 -8.653 c -0.832 -0.497 -1.811 -0.784 -2.856 -0.784 z" fill="#1890d0"/></g></clipPath><filter id="filter-143327272"><feGaussianBlur stdDeviation="0.35"/></filter></defs><g><g transform="translate(0,-1004.3622)"><path d="m 45 1037.36 c 0.056 1.013 -0.196 2.056 -0.75 3 -0.532 0.903 -1.283 1.603 -2.156 2.063 l -15.25 8.656 c -0.832 0.497 -1.799 0.781 -2.844 0.781 -1.045 0 -2.01 -0.284 -2.844 -0.781 l -15.25 -8.656 c -0.873 -0.46 -1.625 -1.159 -2.156 -2.063 -0.416 -0.708 -0.677 -1.485 -0.75 -2.25 -0.004 0.932 0.242 1.884 0.75 2.75 0.532 0.903 1.283 1.603 2.156 2.063 l 15.25 8.656 c 0.832 0.497 1.799 0.781 2.844 0.781 1.045 0 2.01 -0.284 2.844 -0.781 l 15.25 -8.656 c 0.873 -0.46 1.625 -1.159 2.156 -2.063 0.554 -0.944 0.806 -1.987 0.75 -3 l 0 -0.5 z" opacity="0.05"/><path d="m 45 1036.86 c 0.015 0.263 -0.004 0.516 -0.031 0.781 -0.036 0.844 -0.259 1.685 -0.719 2.469 -0.532 0.903 -1.283 1.603 -2.156 2.063 l -15.25 8.656 c -0.832 0.497 -1.799 0.781 -2.844 0.781 -1.045 0 -2.01 -0.284 -2.844 -0.781 l -15.25 -8.656 c -0.873 -0.46 -1.625 -1.159 -2.156 -2.063 -0.414 -0.705 -0.621 -1.46 -0.688 -2.219 -0.014 -0.092 -0.054 -0.189 -0.063 -0.281 -0.004 0.932 0.242 1.884 0.75 2.75 0.532 0.903 1.283 1.603 2.156 2.063 l 15.25 8.656 c 0.832 0.497 1.799 0.781 2.844 0.781 1.045 0 2.01 -0.284 2.844 -0.781 l 15.25 -8.656 c 0.873 -0.46 1.625 -1.159 2.156 -2.063 0.554 -0.944 0.806 -1.987 0.75 -3 l 0 -0.5 z m -41.813 1.625 c 0.057 0.219 0.132 0.442 0.219 0.656 -0.088 -0.216 -0.16 -0.436 -0.219 -0.656 z m 0.219 0.656 c 0.099 0.243 0.206 0.484 0.344 0.719 -0.139 -0.236 -0.243 -0.472 -0.344 -0.719 z m 41.41 -0.656 c -0.059 0.221 -0.131 0.441 -0.219 0.656 0.087 -0.215 0.161 -0.437 0.219 -0.656 z m -0.219 0.656 c -0.101 0.246 -0.205 0.483 -0.344 0.719 0.138 -0.235 0.245 -0.476 0.344 -0.719 z" opacity="0.1"/><path d="m 3.03 1037.64 c 0.035 0.844 0.259 1.685 0.719 2.469 0.532 0.903 1.283 1.603 2.156 2.063 l 15.25 8.656 c 0.832 0.497 1.799 0.781 2.844 0.781 1.045 0 2.01 -0.284 2.844 -0.781 l 15.25 -8.656 c 0.873 -0.46 1.625 -1.159 2.156 -2.063 0.46 -0.784 0.683 -1.624 0.719 -2.469 -0.067 0.763 -0.303 1.511 -0.719 2.219 -0.532 0.903 -1.283 1.603 -2.156 2.063 l -15.25 8.656 c -0.832 0.497 -1.799 0.781 -2.844 0.781 -1.045 0 -2.01 -0.284 -2.844 -0.781 l -15.25 -8.656 c -0.873 -0.46 -1.625 -1.159 -2.156 -2.063 -0.416 -0.708 -0.651 -1.456 -0.719 -2.219 z" opacity="0.2"/></g></g><g><path d="m 24 46.996 c 1.045 0 2.023 -0.287 2.856 -0.784 l 15.339 -8.708 c 0.017 -0.013 0.035 -0.013 0.052 -0.021 1.852 -1.051 2.847 -3 2.746 -4.968 l 0 -17.02 c 0.056 -1.013 -0.175 -2.049 -0.729 -2.993 -0.532 -0.903 -1.288 -1.602 -2.161 -2.061 l -15.246 -8.653 c -0.832 -0.497 -1.811 -0.784 -2.856 -0.784 -1.045 0 -2.023 0.287 -2.856 0.784 l -15.246 8.653 c -0.873 0.46 -1.629 1.158 -2.161 2.061 -0.554 0.944 -0.785 1.981 -0.729 2.993 l 0 17.01 c -0.056 1.012 0.175 2.051 0.729 2.993 0.532 0.906 1.288 1.604 2.161 2.064 l 15.246 8.653 c 0.832 0.497 1.811 0.785 2.856 0.785 z" fill="url(#linearGradient3764)" fill-opacity="1"/></g><g><g clip-path="url(#clipPath-160584952)"><g opacity="0.25"><g transform="translate(0,1)"><g filter="url(#filter-143327272)"><!-- color: #295dab --><g><path d="m 28.488 23.875 c -0.145 -2.996 -2.281 -4.797 -4.855 -4.797 l -0.098 0 c -2.973 0 -4.625 2.438 -4.625 5.207 c 0 3.098 1.996 5.059 4.613 5.059 c 2.918 0 4.836 -2.227 4.973 -4.863 m -4.945 -8.08 c 1.984 0 3.855 0.914 5.227 2.348 l 0 0.008 c 0 -0.691 0.441 -1.207 1.059 -1.207 l 0.156 -0.004 c 0.965 0 1.164 0.953 1.164 1.254 l 0.004 10.699 c -0.066 0.699 0.695 1.063 1.117 0.613 c 1.648 -1.766 3.621 -9.08 -1.027 -13.313 c -4.328 -3.949 -10.137 -3.297 -13.223 -1.078 c -3.285 2.359 -5.387 7.586 -3.344 12.492 c 2.223 5.352 8.59 6.949 12.375 5.355 c 1.914 -0.805 2.801 1.895 0.809 2.777 c -3 1.332 -11.375 1.199 -15.285 -5.859 c -2.641 -4.766 -2.5 -13.152 4.504 -17.5 c 5.359 -3.324 12.426 -2.402 16.688 2.234 c 4.453 4.852 4.195 13.93 -0.148 17.461 c -1.969 1.602 -4.895 0.043 -4.875 -2.297 l -0.02 -0.762 c -1.371 1.418 -3.195 2.242 -5.18 2.242 c -3.93 0 -7.383 -3.598 -7.383 -7.691 c 0 -4.133 3.453 -7.773 7.383 -7.773" fill-rule="evenodd" fill="#000"/></g></g></g></g></g></g><g><g clip-path="url(#clipPath-168914084)"><!-- color: #295dab --><g><path d="m 28.488 23.875 c -0.145 -2.996 -2.281 -4.797 -4.855 -4.797 l -0.098 0 c -2.973 0 -4.625 2.438 -4.625 5.207 c 0 3.098 1.996 5.059 4.613 5.059 c 2.918 0 4.836 -2.227 4.973 -4.863 m -4.945 -8.08 c 1.984 0 3.855 0.914 5.227 2.348 l 0 0.008 c 0 -0.691 0.441 -1.207 1.059 -1.207 l 0.156 -0.004 c 0.965 0 1.164 0.953 1.164 1.254 l 0.004 10.699 c -0.066 0.699 0.695 1.063 1.117 0.613 c 1.648 -1.766 3.621 -9.08 -1.027 -13.313 c -4.328 -3.949 -10.137 -3.297 -13.223 -1.078 c -3.285 2.359 -5.387 7.586 -3.344 12.492 c 2.223 5.352 8.59 6.949 12.375 5.355 c 1.914 -0.805 2.801 1.895 0.809 2.777 c -3 1.332 -11.375 1.199 -15.285 -5.859 c -2.641 -4.766 -2.5 -13.152 4.504 -17.5 c 5.359 -3.324 12.426 -2.402 16.688 2.234 c 4.453 4.852 4.195 13.93 -0.148 17.461 c -1.969 1.602 -4.895 0.043 -4.875 -2.297 l -0.02 -0.762 c -1.371 1.418 -3.195 2.242 -5.18 2.242 c -3.93 0 -7.383 -3.598 -7.383 -7.691 c 0 -4.133 3.453 -7.773 7.383 -7.773" fill="#ffb400" fill-rule="evenodd"/></g></g></g><g><path d="m 24 1 c -1.045 0 -2.01 0.284 -2.844 0.781 l -15.344 8.719 c -0.017 0.013 -0.045 0.023 -0.063 0.031 c -1.852 1.051 -2.851 3 -2.75 4.969 l 0 1 c -0.101 -1.966 0.898 -3.918 2.75 -4.969 c 0.017 -0.008 0.045 -0.018 0.063 -0.031 l 15.344 -8.719 c 0.832 -0.497 1.799 -0.781 2.844 -0.781 c 1.045 0 2.01 0.284 2.844 0.781 l 15.25 8.656 c 0.873 0.46 1.625 1.156 2.156 2.063 c 0.554 0.942 0.806 1.988 0.75 3 l 0 -1 c 0.056 -1.012 -0.196 -2.058 -0.75 -3 c -0.532 -0.906 -1.283 -1.603 -2.156 -2.063 l -15.25 -8.656 c -0.832 -0.497 -1.799 -0.781 -2.844 -0.781 z" opacity="0.2" fill="#fff"/></g></svg>