<svg viewBox="0 0 48 48"><defs><linearGradient id="linearGradient3764" x1="1" x2="47" gradientUnits="userSpaceOnUse" gradientTransform="translate(-48.000001,0.00221467)"><stop stop-color="#efefef" stop-opacity="1"/><stop offset="1" stop-color="#f9f9f9" stop-opacity="1"/></linearGradient><clipPath id="clipPath-625628903"><g transform="translate(0,-1004.3622)"><rect rx="4" y="1005.36" x="1" height="46" width="46" fill="#1890d0"/></g></clipPath><clipPath id="clipPath-640864264"><g transform="translate(0,-1004.3622)"><rect rx="4" y="1005.36" x="1" height="46" width="46" fill="#1890d0"/></g></clipPath></defs><g><path d="m 1 43 l 0 0.25 c 0 2.216 1.784 4 4 4 l 38 0 c 2.216 0 4 -1.784 4 -4 l 0 -0.25 c 0 2.216 -1.784 4 -4 4 l -38 0 c -2.216 0 -4 -1.784 -4 -4 z m 0 0.5 l 0 0.5 c 0 2.216 1.784 4 4 4 l 38 0 c 2.216 0 4 -1.784 4 -4 l 0 -0.5 c 0 2.216 -1.784 4 -4 4 l -38 0 c -2.216 0 -4 -1.784 -4 -4 z" opacity="0.02"/><path d="m 1 43.25 l 0 0.25 c 0 2.216 1.784 4 4 4 l 38 0 c 2.216 0 4 -1.784 4 -4 l 0 -0.25 c 0 2.216 -1.784 4 -4 4 l -38 0 c -2.216 0 -4 -1.784 -4 -4 z" opacity="0.05"/><path d="m 1 43 l 0 0.25 c 0 2.216 1.784 4 4 4 l 38 0 c 2.216 0 4 -1.784 4 -4 l 0 -0.25 c 0 2.216 -1.784 4 -4 4 l -38 0 c -2.216 0 -4 -1.784 -4 -4 z" opacity="0.1"/></g><g><rect width="46" height="46" x="-47" y="1" rx="4" transform="matrix(0,-1,1,0,0,0)" fill="url(#linearGradient3764)" fill-opacity="1"/></g><g><g clip-path="url(#clipPath-625628903)"><g opacity="0.1"><!-- color: #f9f9f9 --><path d="m 36 0 0 48 c 4 0 7 0 12 0 0 -4 0 -42 0 -48 -4 0 -9 0 -12 0 z" fill="#000"/><path d="m 24 0 c -4.391 0 -9 0 -12 0 l 0 48 c 3 0 7.609 0 12 0 z" fill="#000"/><path d="m 24 0 0 48 c 2 0 9 0 12 0 l 0 -48 c -3 0 -7.609 0 -12 0 z" fill="#000"/><path d="M 12,0 C 7,0 5,0 0,0 c 0,4.736255 0,46 0,48 4,0 9,0 12,0 z" fill="#000"/><path d="m 33.438 19 c -0.867 0 -1.438 0.758 -1.438 1.691 l 0 6.617 c 0 0.934 0.57 1.691 1.438 1.691 0.863 0 1.563 -0.758 1.563 -1.691 l 0 -6.617 c 0 -0.934 -0.699 -1.691 -1.563 -1.691 z m -18.871 0 c -0.867 0 -1.566 0.758 -1.566 1.691 l 0 6.617 c 0 0.934 0.699 1.691 1.566 1.691 0.863 0 1.434 -0.758 1.434 -1.691 l 0 -6.617 c 0 -0.934 -0.57 -1.691 -1.434 -1.691 z m 0 0" fill="#000"/><path d="m 17 19 0 11.594 c 0 0.688 0.324 1.406 1 1.406 l 2 0 0 3.375 c 0 0.898 0.316 1.625 1.188 1.625 0.867 0 1.813 -0.727 1.813 -1.625 l 0 -3.375 l 2 0 0 3.375 c 0 0.898 0.945 1.625 1.813 1.625 0.867 0 1.188 -0.727 1.188 -1.625 l 0 -3.375 l 2 0 c 0.676 0 1 -0.719 1 -1.406 l 0 -11.594 z m 0 0" fill="#000"/><path d="m 27.316 13.199 1.297 -1.844 c 0.074 -0.109 0.055 -0.254 -0.043 -0.32 c -0.102 -0.066 -0.246 -0.035 -0.324 0.074 l -1.34 1.914 c -0.887 -0.344 -1.871 -0.531 -2.906 -0.531 c -1.035 0 -2.02 0.188 -2.906 0.531 l -1.344 -1.914 c -0.074 -0.109 -0.219 -0.141 -0.32 -0.074 c -0.098 0.066 -0.117 0.211 -0.043 0.32 l 1.293 1.844 c -2.055 0.937 -3.496 2.719 -3.68 4.801 l 14 0 c -0.184 -2.082 -1.625 -3.863 -3.684 -4.801 z m -6.27 2.902 c -0.43 0 -0.773 -0.34 -0.773 -0.762 0 -0.418 0.344 -0.758 0.773 -0.758 0.43 0 0.773 0.34 0.773 0.758 0 0.422 -0.348 0.762 -0.773 0.762 z m 6 0 c -0.43 0 -0.773 -0.34 -0.773 -0.762 0 -0.418 0.344 -0.758 0.773 -0.758 0.426 0 0.773 0.34 0.773 0.758 0 0.422 -0.348 0.762 -0.773 0.762 z m 0 0" fill="#000"/></g></g></g><g><g clip-path="url(#clipPath-640864264)"><g transform="translate(0,-1)"><!-- color: #f9f9f9 --><path d="m 36 0 0 48 c 4 0 7 0 12 0 0 -4 0 -42 0 -48 -4 0 -9 0 -12 0 z" fill="#ffa135"/><path d="m 24 0 c -4.391 0 -9 0 -12 0 l 0 48 c 3 0 7.609 0 12 0 z" fill="#5ea3bf"/><path d="m 24 0 0 48 c 2 0 9 0 12 0 l 0 -48 c -3 0 -7.609 0 -12 0 z" fill="#fa616b"/><path d="M 12,0 C 7,0 5,0 0,0 c 0,4.736255 0,46 0,48 4,0 9,0 12,0 z" fill="#6ec77d"/><path d="m 33.438 19 c -0.867 0 -1.438 0.758 -1.438 1.691 l 0 6.617 c 0 0.934 0.57 1.691 1.438 1.691 0.863 0 1.563 -0.758 1.563 -1.691 l 0 -6.617 c 0 -0.934 -0.699 -1.691 -1.563 -1.691 z m -18.871 0 c -0.867 0 -1.566 0.758 -1.566 1.691 l 0 6.617 c 0 0.934 0.699 1.691 1.566 1.691 0.863 0 1.434 -0.758 1.434 -1.691 l 0 -6.617 c 0 -0.934 -0.57 -1.691 -1.434 -1.691 z m 0 0" fill="#f8f8f8"/><path d="m 17 19 0 11.594 c 0 0.688 0.324 1.406 1 1.406 l 2 0 0 3.375 c 0 0.898 0.316 1.625 1.188 1.625 0.867 0 1.813 -0.727 1.813 -1.625 l 0 -3.375 l 2 0 0 3.375 c 0 0.898 0.945 1.625 1.813 1.625 0.867 0 1.188 -0.727 1.188 -1.625 l 0 -3.375 l 2 0 c 0.676 0 1 -0.719 1 -1.406 l 0 -11.594 z m 0 0" fill="#f8f8f8"/><path d="m 27.316 13.199 1.297 -1.844 c 0.074 -0.109 0.055 -0.254 -0.043 -0.32 c -0.102 -0.066 -0.246 -0.035 -0.324 0.074 l -1.34 1.914 c -0.887 -0.344 -1.871 -0.531 -2.906 -0.531 c -1.035 0 -2.02 0.188 -2.906 0.531 l -1.344 -1.914 c -0.074 -0.109 -0.219 -0.141 -0.32 -0.074 c -0.098 0.066 -0.117 0.211 -0.043 0.32 l 1.293 1.844 c -2.055 0.937 -3.496 2.719 -3.68 4.801 l 14 0 c -0.184 -2.082 -1.625 -3.863 -3.684 -4.801 z m -6.27 2.902 c -0.43 0 -0.773 -0.34 -0.773 -0.762 0 -0.418 0.344 -0.758 0.773 -0.758 0.43 0 0.773 0.34 0.773 0.758 0 0.422 -0.348 0.762 -0.773 0.762 z m 6 0 c -0.43 0 -0.773 -0.34 -0.773 -0.762 0 -0.418 0.344 -0.758 0.773 -0.758 0.426 0 0.773 0.34 0.773 0.758 0 0.422 -0.348 0.762 -0.773 0.762 z m 0 0" fill="#f8f8f8"/></g></g></g><g><g transform="translate(0,-1004.3622)"><path d="m 1 1043.36 0 4 c 0 2.216 1.784 4 4 4 l 38 0 c 2.216 0 4 -1.784 4 -4 l 0 -4 c 0 2.216 -1.784 4 -4 4 l -38 0 c -2.216 0 -4 -1.784 -4 -4 z" opacity="0.1"/></g></g></svg>