<svg viewBox="0 0 48 48"><defs><linearGradient id="linearGradient3764" x1="1" x2="47" gradientUnits="userSpaceOnUse" gradientTransform="translate(-48.000001,0.00221467)"><stop stop-color="#ad7247" stop-opacity="1"/><stop offset="1" stop-color="#b87d51" stop-opacity="1"/></linearGradient><clipPath id="clipPath-155477723"><g transform="translate(0,-1004.3622)"><rect rx="4" y="1005.36" x="1" height="46" width="46" fill="#1890d0"/></g></clipPath><clipPath id="clipPath-169108148"><g transform="translate(0,-1004.3622)"><rect rx="4" y="1005.36" x="1" height="46" width="46" fill="#1890d0"/></g></clipPath></defs><g><path d="m 1 43 l 0 0.25 c 0 2.216 1.784 4 4 4 l 38 0 c 2.216 0 4 -1.784 4 -4 l 0 -0.25 c 0 2.216 -1.784 4 -4 4 l -38 0 c -2.216 0 -4 -1.784 -4 -4 z m 0 0.5 l 0 0.5 c 0 2.216 1.784 4 4 4 l 38 0 c 2.216 0 4 -1.784 4 -4 l 0 -0.5 c 0 2.216 -1.784 4 -4 4 l -38 0 c -2.216 0 -4 -1.784 -4 -4 z" opacity="0.02"/><path d="m 1 43.25 l 0 0.25 c 0 2.216 1.784 4 4 4 l 38 0 c 2.216 0 4 -1.784 4 -4 l 0 -0.25 c 0 2.216 -1.784 4 -4 4 l -38 0 c -2.216 0 -4 -1.784 -4 -4 z" opacity="0.05"/><path d="m 1 43 l 0 0.25 c 0 2.216 1.784 4 4 4 l 38 0 c 2.216 0 4 -1.784 4 -4 l 0 -0.25 c 0 2.216 -1.784 4 -4 4 l -38 0 c -2.216 0 -4 -1.784 -4 -4 z" opacity="0.1"/></g><g><rect width="46" height="46" x="-47" y="1" rx="4" transform="matrix(0,-1,1,0,0,0)" fill="url(#linearGradient3764)" fill-opacity="1"/></g><g><g clip-path="url(#clipPath-155477723)"><g opacity="0.1"><!-- color: #b87d51 --><g><path d="m 11.965 20 c -0.57 0.027 -0.965 0.168 -0.965 0.816 l 0 13.625 c 0 0.863 0.699 1.555 1.574 1.555 l 22.824 0 c 0.879 0 1.602 -0.691 1.602 -1.555 l 0 -13.625 c 0 -0.863 -0.723 -0.816 -1.602 -0.816 l -22.824 0 c -0.219 0 -0.422 -0.012 -0.609 0 m 0 0" fill="#000"/><path d="m 15 13.402 l -4 4.598 l 12 0 l 0 -7 l -5.508 0 c -0.813 0 -2.492 2.402 -2.492 2.402 m 10 -2.402 l 0 7 l 12 0 l -4 -4.598 c 0 0 -1.695 -2.402 -2.508 -2.402 m -5.492 0" fill="#000"/><path d="m 27.06 26.03 c 0.543 0.176 0.066 0.984 0.844 1.379 c 0.891 0.453 1.332 -0.688 1.867 0.125 c 0.535 0.816 -0.738 0.688 -0.699 1.648 c 0.035 0.957 1.293 0.754 0.82 1.602 c -0.473 0.848 -0.996 -0.266 -1.852 0.242 c -0.852 0.508 -0.035 1.445 -1.043 1.477 c -1 0.031 -0.258 -0.953 -1.148 -1.406 c -0.891 -0.453 -1.332 0.691 -1.867 -0.125 c -0.531 -0.816 0.738 -0.688 0.703 -1.648 c -0.035 -0.957 -1.293 -0.754 -0.82 -1.602 c 0.473 -0.848 0.996 0.266 1.848 -0.242 c 0.855 -0.508 0.039 -1.445 1.043 -1.477 c 0.129 -0.004 0.227 0.004 0.305 0.027 m -0.008 2.445 c -0.449 -0.094 -0.891 0.18 -0.988 0.613 c -0.094 0.43 0.191 0.852 0.641 0.945 c 0.449 0.09 0.891 -0.184 0.984 -0.617 c 0.098 -0.43 -0.191 -0.852 -0.637 -0.941 m 0 0" fill="#000"/><path d="m 22.742 22.03 c 0.543 0.176 0.066 0.984 0.848 1.379 c 0.887 0.453 1.328 -0.688 1.863 0.125 c 0.535 0.816 -0.738 0.688 -0.699 1.648 c 0.035 0.957 1.293 0.754 0.82 1.602 c -0.473 0.848 -0.996 -0.266 -1.852 0.242 c -0.852 0.508 -0.035 1.445 -1.043 1.477 c -1 0.031 -0.258 -0.953 -1.148 -1.406 c -0.887 -0.453 -1.332 0.691 -1.863 -0.125 c -0.535 -0.816 0.734 -0.688 0.699 -1.648 c -0.035 -0.957 -1.293 -0.754 -0.82 -1.602 c 0.473 -0.848 0.996 0.266 1.848 -0.242 c 0.855 -0.508 0.039 -1.445 1.047 -1.477 c 0.125 -0.004 0.223 0.004 0.301 0.027 m -0.008 2.445 c -0.449 -0.094 -0.891 0.18 -0.988 0.613 c -0.094 0.43 0.191 0.852 0.641 0.945 c 0.449 0.09 0.891 -0.184 0.984 -0.617 c 0.098 -0.43 -0.191 -0.852 -0.637 -0.941 m 0 0" fill="#000"/><path d="m 21.305 27.527 c 0.543 0.176 0.066 0.984 0.844 1.379 c 0.891 0.453 1.332 -0.688 1.867 0.125 c 0.531 0.816 -0.738 0.688 -0.703 1.648 c 0.035 0.957 1.293 0.754 0.82 1.602 c -0.473 0.848 -0.996 -0.266 -1.848 0.242 c -0.855 0.508 -0.039 1.445 -1.043 1.477 c -1.01 0.031 -0.262 -0.953 -1.148 -1.406 c -0.891 -0.453 -1.332 0.691 -1.867 -0.125 c -0.535 -0.816 0.738 -0.688 0.699 -1.648 c -0.035 -0.957 -1.293 -0.754 -0.82 -1.602 c 0.473 -0.848 0.996 0.266 1.852 -0.242 c 0.852 -0.508 0.035 -1.445 1.043 -1.477 c 0.125 -0.004 0.227 0.004 0.305 0.027 m -0.012 2.445 c -0.449 -0.094 -0.891 0.18 -0.984 0.613 c -0.098 0.43 0.191 0.852 0.637 0.945 c 0.449 0.09 0.891 -0.184 0.988 -0.617 c 0.094 -0.43 -0.191 -0.852 -0.641 -0.941 m 0 0" fill="#000"/></g></g></g></g><g><g clip-path="url(#clipPath-169108148)"><g transform="translate(0,-1)"><!-- color: #b87d51 --><g><path d="m 11.965 20 c -0.57 0.027 -0.965 0.168 -0.965 0.816 l 0 13.625 c 0 0.863 0.699 1.555 1.574 1.555 l 22.824 0 c 0.879 0 1.602 -0.691 1.602 -1.555 l 0 -13.625 c 0 -0.863 -0.723 -0.816 -1.602 -0.816 l -22.824 0 c -0.219 0 -0.422 -0.012 -0.609 0 m 0 0" fill="#f9f9f9"/><path d="m 15 13.402 l -4 4.598 l 12 0 l 0 -7 l -5.508 0 c -0.813 0 -2.492 2.402 -2.492 2.402 m 10 -2.402 l 0 7 l 12 0 l -4 -4.598 c 0 0 -1.695 -2.402 -2.508 -2.402 m -5.492 0" fill="#f9f9f9"/><path d="m 27.06 26.03 c 0.543 0.176 0.066 0.984 0.844 1.379 c 0.891 0.453 1.332 -0.688 1.867 0.125 c 0.535 0.816 -0.738 0.688 -0.699 1.648 c 0.035 0.957 1.293 0.754 0.82 1.602 c -0.473 0.848 -0.996 -0.266 -1.852 0.242 c -0.852 0.508 -0.035 1.445 -1.043 1.477 c -1 0.031 -0.258 -0.953 -1.148 -1.406 c -0.891 -0.453 -1.332 0.691 -1.867 -0.125 c -0.531 -0.816 0.738 -0.688 0.703 -1.648 c -0.035 -0.957 -1.293 -0.754 -0.82 -1.602 c 0.473 -0.848 0.996 0.266 1.848 -0.242 c 0.855 -0.508 0.039 -1.445 1.043 -1.477 c 0.129 -0.004 0.227 0.004 0.305 0.027 m -0.008 2.445 c -0.449 -0.094 -0.891 0.18 -0.988 0.613 c -0.094 0.43 0.191 0.852 0.641 0.945 c 0.449 0.09 0.891 -0.184 0.984 -0.617 c 0.098 -0.43 -0.191 -0.852 -0.637 -0.941 m 0 0" fill="#e3b392"/><path d="m 22.742 22.03 c 0.543 0.176 0.066 0.984 0.848 1.379 c 0.887 0.453 1.328 -0.688 1.863 0.125 c 0.535 0.816 -0.738 0.688 -0.699 1.648 c 0.035 0.957 1.293 0.754 0.82 1.602 c -0.473 0.848 -0.996 -0.266 -1.852 0.242 c -0.852 0.508 -0.035 1.445 -1.043 1.477 c -1 0.031 -0.258 -0.953 -1.148 -1.406 c -0.887 -0.453 -1.332 0.691 -1.863 -0.125 c -0.535 -0.816 0.734 -0.688 0.699 -1.648 c -0.035 -0.957 -1.293 -0.754 -0.82 -1.602 c 0.473 -0.848 0.996 0.266 1.848 -0.242 c 0.855 -0.508 0.039 -1.445 1.047 -1.477 c 0.125 -0.004 0.223 0.004 0.301 0.027 m -0.008 2.445 c -0.449 -0.094 -0.891 0.18 -0.988 0.613 c -0.094 0.43 0.191 0.852 0.641 0.945 c 0.449 0.09 0.891 -0.184 0.984 -0.617 c 0.098 -0.43 -0.191 -0.852 -0.637 -0.941 m 0 0" fill="#e3b392"/><path d="m 21.305 27.527 c 0.543 0.176 0.066 0.984 0.844 1.379 c 0.891 0.453 1.332 -0.688 1.867 0.125 c 0.531 0.816 -0.738 0.688 -0.703 1.648 c 0.035 0.957 1.293 0.754 0.82 1.602 c -0.473 0.848 -0.996 -0.266 -1.848 0.242 c -0.855 0.508 -0.039 1.445 -1.043 1.477 c -1.01 0.031 -0.262 -0.953 -1.148 -1.406 c -0.891 -0.453 -1.332 0.691 -1.867 -0.125 c -0.535 -0.816 0.738 -0.688 0.699 -1.648 c -0.035 -0.957 -1.293 -0.754 -0.82 -1.602 c 0.473 -0.848 0.996 0.266 1.852 -0.242 c 0.852 -0.508 0.035 -1.445 1.043 -1.477 c 0.125 -0.004 0.227 0.004 0.305 0.027 m -0.012 2.445 c -0.449 -0.094 -0.891 0.18 -0.984 0.613 c -0.098 0.43 0.191 0.852 0.637 0.945 c 0.449 0.09 0.891 -0.184 0.988 -0.617 c 0.094 -0.43 -0.191 -0.852 -0.641 -0.941 m 0 0" fill="#e3b392"/></g></g></g></g><g><g transform="translate(0,-1004.3622)"><path d="m 1 1043.36 0 4 c 0 2.216 1.784 4 4 4 l 38 0 c 2.216 0 4 -1.784 4 -4 l 0 -4 c 0 2.216 -1.784 4 -4 4 l -38 0 c -2.216 0 -4 -1.784 -4 -4 z" opacity="0.1"/></g></g></svg>