<svg viewBox="0 0 48 48"><defs><linearGradient id="linearGradient3764" y1="47" x2="0" y2="1" gradientUnits="userSpaceOnUse"><stop stop-color="#f86210" stop-opacity="1"/><stop offset="1" stop-color="#f96f23" stop-opacity="1"/></linearGradient><clipPath id="clipPath-213650113"><g transform="translate(0,-1004.3622)"><path d="m -24 13 c 0 1.105 -0.672 2 -1.5 2 -0.828 0 -1.5 -0.895 -1.5 -2 0 -1.105 0.672 -2 1.5 -2 0.828 0 1.5 0.895 1.5 2 z" transform="matrix(15.333333,0,0,11.5,414.99999,878.8622)" fill="#1890d0"/></g></clipPath><clipPath id="clipPath-233575852"><g transform="translate(0,-1004.3622)"><path d="m -24 13 c 0 1.105 -0.672 2 -1.5 2 -0.828 0 -1.5 -0.895 -1.5 -2 0 -1.105 0.672 -2 1.5 -2 0.828 0 1.5 0.895 1.5 2 z" transform="matrix(15.333333,0,0,11.5,414.99999,878.8622)" fill="#1890d0"/></g></clipPath></defs><g><path d="m 36.31 5 c 5.859 4.062 9.688 10.831 9.688 18.5 c 0 12.426 -10.07 22.5 -22.5 22.5 c -7.669 0 -14.438 -3.828 -18.5 -9.688 c 1.037 1.822 2.306 3.499 3.781 4.969 c 4.085 3.712 9.514 5.969 15.469 5.969 c 12.703 0 23 -10.298 23 -23 c 0 -5.954 -2.256 -11.384 -5.969 -15.469 c -1.469 -1.475 -3.147 -2.744 -4.969 -3.781 z m 4.969 3.781 c 3.854 4.113 6.219 9.637 6.219 15.719 c 0 12.703 -10.297 23 -23 23 c -6.081 0 -11.606 -2.364 -15.719 -6.219 c 4.16 4.144 9.883 6.719 16.219 6.719 c 12.703 0 23 -10.298 23 -23 c 0 -6.335 -2.575 -12.06 -6.719 -16.219 z" opacity="0.05"/><path d="m 41.28 8.781 c 3.712 4.085 5.969 9.514 5.969 15.469 c 0 12.703 -10.297 23 -23 23 c -5.954 0 -11.384 -2.256 -15.469 -5.969 c 4.113 3.854 9.637 6.219 15.719 6.219 c 12.703 0 23 -10.298 23 -23 c 0 -6.081 -2.364 -11.606 -6.219 -15.719 z" opacity="0.1"/><path d="m 31.25 2.375 c 8.615 3.154 14.75 11.417 14.75 21.13 c 0 12.426 -10.07 22.5 -22.5 22.5 c -9.708 0 -17.971 -6.135 -21.12 -14.75 a 23 23 0 0 0 44.875 -7 a 23 23 0 0 0 -16 -21.875 z" opacity="0.2"/></g><g><path d="m 24 1 c 12.703 0 23 10.297 23 23 c 0 12.703 -10.297 23 -23 23 -12.703 0 -23 -10.297 -23 -23 0 -12.703 10.297 -23 23 -23 z" fill="url(#linearGradient3764)" fill-opacity="1"/></g><g><g clip-path="url(#clipPath-213650113)"><g transform="translate(1,1)"><g opacity="0.1"><!-- color: #f96f23 --><g><path d="m 11.445 24.03 c -0.063 0 -0.113 0.051 -0.121 0.129 l -0.219 1.789 l 0.219 1.762 c 0.008 0.074 0.059 0.125 0.121 0.125 c 0.059 0 0.109 -0.051 0.117 -0.125 l 0.262 -1.762 l -0.262 -1.793 c -0.008 -0.074 -0.117 -0.184 -0.117 -0.125 m 4 5.578 c 0 0.109 0.195 -0.09 0.203 -0.211 l 0.281 -3.445 l -0.281 -3.277 c -0.008 -0.121 -0.094 -0.211 -0.203 -0.211 c -0.105 0 -0.176 0.094 -0.199 0.211 l -0.25 3.277 l 0.25 3.445 c 0.008 0.121 0.094 0.211 0.199 0.211 m -2 -0.188 c 0.078 0 0.141 -0.066 0.148 -0.156 l 0.32 -3.313 l -0.32 -3.438 c -0.008 -0.09 -0.07 -0.156 -0.148 -0.156 c -0.078 0 -0.145 0.066 -0.152 0.156 c 0 0 -0.277 3.438 -0.277 3.438 l 0.277 3.309 c 0.008 0.094 0.152 0.238 0.152 0.16 m 8.01 -10.73 c -0.195 0 -0.352 0.168 -0.355 0.383 l -0.156 6.883 l 0.156 3.313 c 0.004 0.211 0.16 0.379 0.355 0.379 c 0.195 0 0.57 -0.379 0.355 -0.379 l 0.18 -3.316 l -0.18 -6.883 c -0.004 -0.215 -0.355 -0.574 -0.355 -0.383 m -4 10.957 c 0.137 0 0.246 -0.117 0.254 -0.27 l 0.246 -3.418 l -0.246 -6.551 c -0.008 -0.148 -0.117 -0.266 -0.254 -0.266 c -0.137 0 -0.246 0.117 -0.254 0.266 c 0 0.004 -0.219 6.551 -0.219 6.551 l 0.219 3.422 c 0.012 0.148 0.117 0.266 0.254 0.266 m 2.305 0.035 l 0.215 -3.363 l -0.215 -7.336 c -0.004 -0.18 -0.137 -0.324 -0.301 -0.324 c -0.168 0 -0.301 0.145 -0.305 0.324 l -0.188 7.336 l 0.188 3.363 c 0.012 0.18 0.137 0.324 0.305 0.324 c 0.164 0 0.297 -0.141 0.305 -0.324 m 15.516 -7.949 c -0.504 0 -0.988 0.109 -1.426 0.305 c -0.293 -3.574 -3.082 -6.379 -6.484 -6.379 c -0.832 0 -1.645 0.176 -2.359 0.477 c -0.281 0.113 -0.355 0.234 -0.355 0.465 l 0 12.59 c 0 0.242 0.176 0.445 0.398 0.469 c 0.008 0 10.16 0 10.227 0 c 2.039 0 3.691 -1.777 3.691 -3.965 c 0 -2.191 -1.652 -3.969 -3.691 -3.969 m -11.816 -5.137 c -0.223 0 -0.402 0.195 -0.406 0.438 l -0.168 8.934 l 0.168 3.246 c 0.004 0.234 0.184 0.43 0.406 0.43 c 0.223 0 0.402 -0.195 0.406 -0.434 l 0.18 -3.246 l -0.18 -8.934 c -0.004 -0.242 -0.184 -0.438 -0.406 -0.438 m 0 0.004" fill="#000"/></g></g></g></g></g><g><g clip-path="url(#clipPath-233575852)"><!-- color: #f96f23 --><g><path d="m 11.445 24.03 c -0.063 0 -0.113 0.051 -0.121 0.129 l -0.219 1.789 l 0.219 1.762 c 0.008 0.074 0.059 0.125 0.121 0.125 c 0.059 0 0.109 -0.051 0.117 -0.125 l 0.262 -1.762 l -0.262 -1.793 c -0.008 -0.074 -0.117 -0.184 -0.117 -0.125 m 4 5.578 c 0 0.109 0.195 -0.09 0.203 -0.211 l 0.281 -3.445 l -0.281 -3.277 c -0.008 -0.121 -0.094 -0.211 -0.203 -0.211 c -0.105 0 -0.176 0.094 -0.199 0.211 l -0.25 3.277 l 0.25 3.445 c 0.008 0.121 0.094 0.211 0.199 0.211 m -2 -0.188 c 0.078 0 0.141 -0.066 0.148 -0.156 l 0.32 -3.313 l -0.32 -3.438 c -0.008 -0.09 -0.07 -0.156 -0.148 -0.156 c -0.078 0 -0.145 0.066 -0.152 0.156 c 0 0 -0.277 3.438 -0.277 3.438 l 0.277 3.309 c 0.008 0.094 0.152 0.238 0.152 0.16 m 8.01 -10.73 c -0.195 0 -0.352 0.168 -0.355 0.383 l -0.156 6.883 l 0.156 3.313 c 0.004 0.211 0.16 0.379 0.355 0.379 c 0.195 0 0.57 -0.379 0.355 -0.379 l 0.18 -3.316 l -0.18 -6.883 c -0.004 -0.215 -0.355 -0.574 -0.355 -0.383 m -4 10.957 c 0.137 0 0.246 -0.117 0.254 -0.27 l 0.246 -3.418 l -0.246 -6.551 c -0.008 -0.148 -0.117 -0.266 -0.254 -0.266 c -0.137 0 -0.246 0.117 -0.254 0.266 c 0 0.004 -0.219 6.551 -0.219 6.551 l 0.219 3.422 c 0.012 0.148 0.117 0.266 0.254 0.266 m 2.305 0.035 l 0.215 -3.363 l -0.215 -7.336 c -0.004 -0.18 -0.137 -0.324 -0.301 -0.324 c -0.168 0 -0.301 0.145 -0.305 0.324 l -0.188 7.336 l 0.188 3.363 c 0.012 0.18 0.137 0.324 0.305 0.324 c 0.164 0 0.297 -0.141 0.305 -0.324 m 15.516 -7.949 c -0.504 0 -0.988 0.109 -1.426 0.305 c -0.293 -3.574 -3.082 -6.379 -6.484 -6.379 c -0.832 0 -1.645 0.176 -2.359 0.477 c -0.281 0.113 -0.355 0.234 -0.355 0.465 l 0 12.59 c 0 0.242 0.176 0.445 0.398 0.469 c 0.008 0 10.16 0 10.227 0 c 2.039 0 3.691 -1.777 3.691 -3.965 c 0 -2.191 -1.652 -3.969 -3.691 -3.969 m -11.816 -5.137 c -0.223 0 -0.402 0.195 -0.406 0.438 l -0.168 8.934 l 0.168 3.246 c 0.004 0.234 0.184 0.43 0.406 0.43 c 0.223 0 0.402 -0.195 0.406 -0.434 l 0.18 -3.246 l -0.18 -8.934 c -0.004 -0.242 -0.184 -0.438 -0.406 -0.438 m 0 0.004" fill="#f9f9f9"/></g></g></g><g><path d="m 40.03 7.531 c 3.712 4.084 5.969 9.514 5.969 15.469 0 12.703 -10.297 23 -23 23 c -5.954 0 -11.384 -2.256 -15.469 -5.969 4.178 4.291 10.01 6.969 16.469 6.969 c 12.703 0 23 -10.298 23 -23 0 -6.462 -2.677 -12.291 -6.969 -16.469 z" opacity="0.1"/></g></svg>