<svg viewBox="0 0 48 48"><defs><linearGradient id="linearGradient3764" y1="47" x2="0" y2="1" gradientUnits="userSpaceOnUse"><stop stop-color="#efefef" stop-opacity="1"/><stop offset="1" stop-color="#f9f9f9" stop-opacity="1"/></linearGradient><clipPath id="clipPath-381413964"><g transform="translate(0,-1004.3622)"><path d="m -24 13 c 0 1.105 -0.672 2 -1.5 2 -0.828 0 -1.5 -0.895 -1.5 -2 0 -1.105 0.672 -2 1.5 -2 0.828 0 1.5 0.895 1.5 2 z" transform="matrix(15.333333,0,0,11.5,414.99999,878.8622)" fill="#1890d0"/></g></clipPath><clipPath id="clipPath-389848059"><g transform="translate(0,-1004.3622)"><path d="m -24 13 c 0 1.105 -0.672 2 -1.5 2 -0.828 0 -1.5 -0.895 -1.5 -2 0 -1.105 0.672 -2 1.5 -2 0.828 0 1.5 0.895 1.5 2 z" transform="matrix(15.333333,0,0,11.5,414.99999,878.8622)" fill="#1890d0"/></g></clipPath><clipPath><rect rx="4" y="1006.36" x="2" height="44" width="44" fill="none"/></clipPath><clipPath><rect rx="4" y="1006.36" x="2" height="44" width="44" fill="none"/></clipPath><clipPath><rect rx="4" y="1006.36" x="2" height="44" width="44" fill="none"/></clipPath><clipPath><rect rx="4" y="1006.36" x="2" height="44" width="44" fill="#000"/></clipPath><clipPath><rect rx="4" y="1006.36" x="2" height="44" width="44" fill="#000"/></clipPath><clipPath><rect rx="4" y="1006.36" x="2" height="44" width="44" fill="#000"/></clipPath></defs><g><path d="m 36.31 5 c 5.859 4.062 9.688 10.831 9.688 18.5 c 0 12.426 -10.07 22.5 -22.5 22.5 c -7.669 0 -14.438 -3.828 -18.5 -9.688 c 1.037 1.822 2.306 3.499 3.781 4.969 c 4.085 3.712 9.514 5.969 15.469 5.969 c 12.703 0 23 -10.298 23 -23 c 0 -5.954 -2.256 -11.384 -5.969 -15.469 c -1.469 -1.475 -3.147 -2.744 -4.969 -3.781 z m 4.969 3.781 c 3.854 4.113 6.219 9.637 6.219 15.719 c 0 12.703 -10.297 23 -23 23 c -6.081 0 -11.606 -2.364 -15.719 -6.219 c 4.16 4.144 9.883 6.719 16.219 6.719 c 12.703 0 23 -10.298 23 -23 c 0 -6.335 -2.575 -12.06 -6.719 -16.219 z" opacity="0.05"/><path d="m 41.28 8.781 c 3.712 4.085 5.969 9.514 5.969 15.469 c 0 12.703 -10.297 23 -23 23 c -5.954 0 -11.384 -2.256 -15.469 -5.969 c 4.113 3.854 9.637 6.219 15.719 6.219 c 12.703 0 23 -10.298 23 -23 c 0 -6.081 -2.364 -11.606 -6.219 -15.719 z" opacity="0.1"/><path d="m 31.25 2.375 c 8.615 3.154 14.75 11.417 14.75 21.13 c 0 12.426 -10.07 22.5 -22.5 22.5 c -9.708 0 -17.971 -6.135 -21.12 -14.75 a 23 23 0 0 0 44.875 -7 a 23 23 0 0 0 -16 -21.875 z" opacity="0.2"/></g><g><path d="m 24 1 c 12.703 0 23 10.297 23 23 c 0 12.703 -10.297 23 -23 23 -12.703 0 -23 -10.297 -23 -23 0 -12.703 10.297 -23 23 -23 z" fill="url(#linearGradient3764)" fill-opacity="1"/></g><g><g clip-path="url(#clipPath-381413964)"><g transform="translate(1,1)"><g opacity="0.1"><!-- color: #f9f9f9 --><path d="m 32 24 c 0 4.418 -3.582 8 -8 8 -4.418 0 -8 -3.582 -8 -8 0 -4.418 3.582 -8 8 -8 4.418 0 8 3.582 8 8 z" fill="#000"/><path d="m 32.525 24 a 9 9 0 1 1 -18 0 9 9 0 1 1 18 0 z" transform="matrix(1.1075372,0,0,1.1075372,-2.0543223,-2.5808366)" fill="#000"/><path d="m 39 23 a 8 8 0 1 1 -16 0 8 8 0 1 1 16 0 z" transform="matrix(0.9967835,0,0,0.9967835,-6.9002879,1.0740366)" fill="#000"/><path d="m 31.36 19.04 16.64 -0.037 c 0 -6 0 -13 0 -19 -15.333 0 -30.667 0 -46 0 l 13.14 22.662 c 0.202 -1.3 0.67 -2.553 1.406 -3.656 0.736 -1.103 1.741 -2.041 2.969 -2.75 1.076 -0.621 2.215 -1.012 3.375 -1.156 1.16 -0.144 2.356 -0.048 3.469 0.25 1.112 0.298 2.161 0.795 3.094 1.5 0.759 0.573 1.345 1.366 1.906 2.187 z" fill="#000"/><path d="m 24.675 32.897 -8.675 15.1 c 9 0 29 0 32 0 0 -4 0 -25 0 -31 l -18.444 0 c 1.025 0.825 1.965 1.895 2.552 3.085 0.587 1.189 0.897 2.528 0.897 3.946 0 1.243 -0.231 2.424 -0.686 3.501 -0.455 1.077 -1.137 2.065 -1.951 2.879 -0.814 0.814 -1.769 1.474 -2.846 1.929 -0.876 0.371 -1.856 0.482 -2.848 0.557 z" fill="#000"/><path d="m 16.01 20.18 -12.01 -20.18 c -2 0 -3 0 -4 0 c 0 8 0 41 0 48 7 0 12 0 18 0 l 9.263 -15.589 c -1.227 0.475 -2.546 0.696 -3.87 0.61 -1.324 -0.086 -2.638 -0.487 -3.866 -1.196 -1.076 -0.621 -1.984 -1.412 -2.689 -2.345 -0.705 -0.933 -1.22 -2.02 -1.518 -3.129 -0.298 -1.112 -0.392 -2.269 -0.248 -3.429 0.117 -0.944 0.51 -1.848 0.941 -2.745 z" fill="#000"/><path d="m 33 24 a 9 9 0 0 1 -18 0 9 9 0 1 1 18 0 z" fill="#000"/><path d="m 31 24 a 7 7 0 0 1 -14 0 7 7 0 1 1 14 0 z" fill="#000"/></g></g></g></g><g><g clip-path="url(#clipPath-389848059)"><!-- color: #f9f9f9 --><path d="m 32 24 c 0 4.418 -3.582 8 -8 8 -4.418 0 -8 -3.582 -8 -8 0 -4.418 3.582 -8 8 -8 4.418 0 8 3.582 8 8 z" fill="#219eca"/><path d="m 32.525 24 a 9 9 0 1 1 -18 0 9 9 0 1 1 18 0 z" transform="matrix(1.1075372,0,0,1.1075372,-2.0543223,-2.5808366)" fill="#f9f9f9"/><path d="m 39 23 a 8 8 0 1 1 -16 0 8 8 0 1 1 16 0 z" transform="matrix(0.9967835,0,0,0.9967835,-6.9002879,1.0740366)" fill="#23a0cb"/><path d="m 31.36 19.04 16.64 -0.037 c 0 -6 0 -13 0 -19 -15.333 0 -30.667 0 -46 0 l 13.14 22.662 c 0.202 -1.3 0.67 -2.553 1.406 -3.656 0.736 -1.103 1.741 -2.041 2.969 -2.75 1.076 -0.621 2.215 -1.012 3.375 -1.156 1.16 -0.144 2.356 -0.048 3.469 0.25 1.112 0.298 2.161 0.795 3.094 1.5 0.759 0.573 1.345 1.366 1.906 2.187 z" fill="#da4337"/><path d="m 24.675 32.897 -8.675 15.1 c 9 0 29 0 32 0 0 -4 0 -25 0 -31 l -18.444 0 c 1.025 0.825 1.965 1.895 2.552 3.085 0.587 1.189 0.897 2.528 0.897 3.946 0 1.243 -0.231 2.424 -0.686 3.501 -0.455 1.077 -1.137 2.065 -1.951 2.879 -0.814 0.814 -1.769 1.474 -2.846 1.929 -0.876 0.371 -1.856 0.482 -2.848 0.557 z" fill="#e3a700"/><path d="m 16.01 20.18 -12.01 -20.18 c -2 0 -3 0 -4 0 c 0 8 0 41 0 48 7 0 12 0 18 0 l 9.263 -15.589 c -1.227 0.475 -2.546 0.696 -3.87 0.61 -1.324 -0.086 -2.638 -0.487 -3.866 -1.196 -1.076 -0.621 -1.984 -1.412 -2.689 -2.345 -0.705 -0.933 -1.22 -2.02 -1.518 -3.129 -0.298 -1.112 -0.392 -2.269 -0.248 -3.429 0.117 -0.944 0.51 -1.848 0.941 -2.745 z" fill="#0f9052"/><path d="m 33 24 a 9 9 0 0 1 -18 0 9 9 0 1 1 18 0 z" fill="#f9f9f9"/><path d="m 31 24 a 7 7 0 0 1 -14 0 7 7 0 1 1 14 0 z" fill="#3d7de6"/></g></g><g><path d="m 40.03 7.531 c 3.712 4.084 5.969 9.514 5.969 15.469 0 12.703 -10.297 23 -23 23 c -5.954 0 -11.384 -2.256 -15.469 -5.969 4.178 4.291 10.01 6.969 16.469 6.969 c 12.703 0 23 -10.298 23 -23 0 -6.462 -2.677 -12.291 -6.969 -16.469 z" opacity="0.1"/></g></svg>