<svg viewBox="0 0 48 48"><defs><linearGradient id="linearGradient3764" y1="47" x2="0" y2="1" gradientUnits="userSpaceOnUse"><stop stop-color="#ac002d" stop-opacity="1"/><stop offset="1" stop-color="#c00033" stop-opacity="1"/></linearGradient><clipPath id="clipPath-709528990"><g transform="translate(0,-1004.3622)"><path d="m -24 13 c 0 1.105 -0.672 2 -1.5 2 -0.828 0 -1.5 -0.895 -1.5 -2 0 -1.105 0.672 -2 1.5 -2 0.828 0 1.5 0.895 1.5 2 z" transform="matrix(15.333333,0,0,11.5,414.99999,878.8622)" fill="#1890d0"/></g></clipPath><clipPath id="clipPath-717965479"><g transform="translate(0,-1004.3622)"><path d="m -24 13 c 0 1.105 -0.672 2 -1.5 2 -0.828 0 -1.5 -0.895 -1.5 -2 0 -1.105 0.672 -2 1.5 -2 0.828 0 1.5 0.895 1.5 2 z" transform="matrix(15.333333,0,0,11.5,414.99999,878.8622)" fill="#1890d0"/></g></clipPath></defs><g><path d="m 36.31 5 c 5.859 4.062 9.688 10.831 9.688 18.5 c 0 12.426 -10.07 22.5 -22.5 22.5 c -7.669 0 -14.438 -3.828 -18.5 -9.688 c 1.037 1.822 2.306 3.499 3.781 4.969 c 4.085 3.712 9.514 5.969 15.469 5.969 c 12.703 0 23 -10.298 23 -23 c 0 -5.954 -2.256 -11.384 -5.969 -15.469 c -1.469 -1.475 -3.147 -2.744 -4.969 -3.781 z m 4.969 3.781 c 3.854 4.113 6.219 9.637 6.219 15.719 c 0 12.703 -10.297 23 -23 23 c -6.081 0 -11.606 -2.364 -15.719 -6.219 c 4.16 4.144 9.883 6.719 16.219 6.719 c 12.703 0 23 -10.298 23 -23 c 0 -6.335 -2.575 -12.06 -6.719 -16.219 z" opacity="0.05"/><path d="m 41.28 8.781 c 3.712 4.085 5.969 9.514 5.969 15.469 c 0 12.703 -10.297 23 -23 23 c -5.954 0 -11.384 -2.256 -15.469 -5.969 c 4.113 3.854 9.637 6.219 15.719 6.219 c 12.703 0 23 -10.298 23 -23 c 0 -6.081 -2.364 -11.606 -6.219 -15.719 z" opacity="0.1"/><path d="m 31.25 2.375 c 8.615 3.154 14.75 11.417 14.75 21.13 c 0 12.426 -10.07 22.5 -22.5 22.5 c -9.708 0 -17.971 -6.135 -21.12 -14.75 a 23 23 0 0 0 44.875 -7 a 23 23 0 0 0 -16 -21.875 z" opacity="0.2"/></g><g><path d="m 24 1 c 12.703 0 23 10.297 23 23 c 0 12.703 -10.297 23 -23 23 -12.703 0 -23 -10.297 -23 -23 0 -12.703 10.297 -23 23 -23 z" fill="url(#linearGradient3764)" fill-opacity="1"/></g><g><g clip-path="url(#clipPath-709528990)"><g transform="translate(1,1)"><g opacity="0.1"><!-- color: #c00033 --><g><path d="m 20.07 11.25 c -0.113 0 -4.598 2.66 -4.77 2.832 c -0.094 0.09 -0.074 0.16 0.141 0.516 c 2.367 3.898 3.945 6.594 3.891 6.641 c -0.035 0.035 -1.465 0.016 -3.168 -0.035 c -1.707 -0.055 -3.496 -0.102 -3.98 -0.105 l -0.875 -0.004 l -0.043 2.848 c -0.027 1.676 -0.02 2.875 0.023 2.918 c 0.063 0.07 5.04 -0.043 7.086 -0.16 c 0.707 -0.039 0.855 -0.027 0.891 0.066 c 0.027 0.066 -0.293 0.68 -0.742 1.426 c -0.43 0.719 -1.355 2.266 -2.051 3.43 c -0.695 1.164 -1.25 2.156 -1.23 2.207 c 0.047 0.129 4.594 2.797 4.773 2.801 c 0.141 0.004 1.176 -1.879 3.543 -6.43 c 0.176 -0.34 0.371 -0.617 0.434 -0.617 c 0.066 0 0.762 1.25 1.793 3.215 c 2.129 4.066 2.07 3.953 2.109 3.953 c 0.02 0 0.52 -0.293 1.113 -0.648 c 0.59 -0.352 1.68 -1 2.418 -1.441 c 0.738 -0.438 1.344 -0.828 1.344 -0.867 c 0 -0.039 -0.703 -1.246 -1.566 -2.684 c -0.863 -1.438 -1.797 -2.996 -2.074 -3.465 c -0.289 -0.48 -0.484 -0.883 -0.449 -0.922 c 0.039 -0.039 1.781 -0.016 3.988 0.047 c 2.156 0.066 3.953 0.094 3.988 0.059 c 0.086 -0.082 0.133 -5.719 0.051 -5.773 c -0.035 -0.023 -1.68 0.012 -3.648 0.074 c -4.281 0.141 -4.375 0.141 -4.375 0.039 c 0 -0.047 0.688 -1.223 1.527 -2.617 c 2.504 -4.164 2.629 -4.379 2.594 -4.434 c -0.016 -0.031 -0.449 -0.301 -0.961 -0.602 c -0.512 -0.297 -1.582 -0.934 -2.379 -1.406 c -0.801 -0.473 -1.488 -0.859 -1.527 -0.859 c -0.063 0 -1.59 2.82 -3.234 5.984 c -0.391 0.75 -0.633 1.137 -0.707 1.125 c -0.059 -0.012 -0.945 -1.613 -1.965 -3.563 c -1.059 -2.02 -1.902 -3.547 -1.961 -3.547 m 0 0" stroke="#f9f9f9" stroke-width="0.5" fill="#000"/></g></g></g></g></g><g><g clip-path="url(#clipPath-717965479)"><!-- color: #c00033 --><g><path d="m 20.07 11.25 c -0.113 0 -4.598 2.66 -4.77 2.832 c -0.094 0.09 -0.074 0.16 0.141 0.516 c 2.367 3.898 3.945 6.594 3.891 6.641 c -0.035 0.035 -1.465 0.016 -3.168 -0.035 c -1.707 -0.055 -3.496 -0.102 -3.98 -0.105 l -0.875 -0.004 l -0.043 2.848 c -0.027 1.676 -0.02 2.875 0.023 2.918 c 0.063 0.07 5.04 -0.043 7.086 -0.16 c 0.707 -0.039 0.855 -0.027 0.891 0.066 c 0.027 0.066 -0.293 0.68 -0.742 1.426 c -0.43 0.719 -1.355 2.266 -2.051 3.43 c -0.695 1.164 -1.25 2.156 -1.23 2.207 c 0.047 0.129 4.594 2.797 4.773 2.801 c 0.141 0.004 1.176 -1.879 3.543 -6.43 c 0.176 -0.34 0.371 -0.617 0.434 -0.617 c 0.066 0 0.762 1.25 1.793 3.215 c 2.129 4.066 2.07 3.953 2.109 3.953 c 0.02 0 0.52 -0.293 1.113 -0.648 c 0.59 -0.352 1.68 -1 2.418 -1.441 c 0.738 -0.438 1.344 -0.828 1.344 -0.867 c 0 -0.039 -0.703 -1.246 -1.566 -2.684 c -0.863 -1.438 -1.797 -2.996 -2.074 -3.465 c -0.289 -0.48 -0.484 -0.883 -0.449 -0.922 c 0.039 -0.039 1.781 -0.016 3.988 0.047 c 2.156 0.066 3.953 0.094 3.988 0.059 c 0.086 -0.082 0.133 -5.719 0.051 -5.773 c -0.035 -0.023 -1.68 0.012 -3.648 0.074 c -4.281 0.141 -4.375 0.141 -4.375 0.039 c 0 -0.047 0.688 -1.223 1.527 -2.617 c 2.504 -4.164 2.629 -4.379 2.594 -4.434 c -0.016 -0.031 -0.449 -0.301 -0.961 -0.602 c -0.512 -0.297 -1.582 -0.934 -2.379 -1.406 c -0.801 -0.473 -1.488 -0.859 -1.527 -0.859 c -0.063 0 -1.59 2.82 -3.234 5.984 c -0.391 0.75 -0.633 1.137 -0.707 1.125 c -0.059 -0.012 -0.945 -1.613 -1.965 -3.563 c -1.059 -2.02 -1.902 -3.547 -1.961 -3.547 m 0 0" fill="#f9f9f9" stroke="#f9f9f9" stroke-width="0.5"/></g></g></g><g><path d="m 40.03 7.531 c 3.712 4.084 5.969 9.514 5.969 15.469 0 12.703 -10.297 23 -23 23 c -5.954 0 -11.384 -2.256 -15.469 -5.969 4.178 4.291 10.01 6.969 16.469 6.969 c 12.703 0 23 -10.298 23 -23 0 -6.462 -2.677 -12.291 -6.969 -16.469 z" opacity="0.1"/></g></svg>