<svg viewBox="0 0 48 48"><defs><linearGradient id="linearGradient3764" y1="47" x2="0" y2="1" gradientUnits="userSpaceOnUse"><stop stop-color="#184a74" stop-opacity="1"/><stop offset="1" stop-color="#1c5484" stop-opacity="1"/></linearGradient><clipPath id="clipPath-396840310"><g transform="translate(0,-1004.3622)"><path d="m -24 13 c 0 1.105 -0.672 2 -1.5 2 -0.828 0 -1.5 -0.895 -1.5 -2 0 -1.105 0.672 -2 1.5 -2 0.828 0 1.5 0.895 1.5 2 z" transform="matrix(15.333333,0,0,11.5,414.99999,878.8622)" fill="#1890d0"/></g></clipPath><clipPath id="clipPath-406012125"><g transform="translate(0,-1004.3622)"><path d="m -24 13 c 0 1.105 -0.672 2 -1.5 2 -0.828 0 -1.5 -0.895 -1.5 -2 0 -1.105 0.672 -2 1.5 -2 0.828 0 1.5 0.895 1.5 2 z" transform="matrix(15.333333,0,0,11.5,414.99999,878.8622)" fill="#1890d0"/></g></clipPath></defs><g><path d="m 36.31 5 c 5.859 4.062 9.688 10.831 9.688 18.5 c 0 12.426 -10.07 22.5 -22.5 22.5 c -7.669 0 -14.438 -3.828 -18.5 -9.688 c 1.037 1.822 2.306 3.499 3.781 4.969 c 4.085 3.712 9.514 5.969 15.469 5.969 c 12.703 0 23 -10.298 23 -23 c 0 -5.954 -2.256 -11.384 -5.969 -15.469 c -1.469 -1.475 -3.147 -2.744 -4.969 -3.781 z m 4.969 3.781 c 3.854 4.113 6.219 9.637 6.219 15.719 c 0 12.703 -10.297 23 -23 23 c -6.081 0 -11.606 -2.364 -15.719 -6.219 c 4.16 4.144 9.883 6.719 16.219 6.719 c 12.703 0 23 -10.298 23 -23 c 0 -6.335 -2.575 -12.06 -6.719 -16.219 z" opacity="0.05"/><path d="m 41.28 8.781 c 3.712 4.085 5.969 9.514 5.969 15.469 c 0 12.703 -10.297 23 -23 23 c -5.954 0 -11.384 -2.256 -15.469 -5.969 c 4.113 3.854 9.637 6.219 15.719 6.219 c 12.703 0 23 -10.298 23 -23 c 0 -6.081 -2.364 -11.606 -6.219 -15.719 z" opacity="0.1"/><path d="m 31.25 2.375 c 8.615 3.154 14.75 11.417 14.75 21.13 c 0 12.426 -10.07 22.5 -22.5 22.5 c -9.708 0 -17.971 -6.135 -21.12 -14.75 a 23 23 0 0 0 44.875 -7 a 23 23 0 0 0 -16 -21.875 z" opacity="0.2"/></g><g><path d="m 24 1 c 12.703 0 23 10.297 23 23 c 0 12.703 -10.297 23 -23 23 -12.703 0 -23 -10.297 -23 -23 0 -12.703 10.297 -23 23 -23 z" fill="url(#linearGradient3764)" fill-opacity="1"/></g><g><g clip-path="url(#clipPath-396840310)"><g transform="translate(1,1)"><g opacity="0.1"><!-- color: #1c5484 --><g><path d="m 36.48 16.12 c 0.082 0.488 0.109 1 0.109 1.543 c 0 0.004 0 0.008 0 0.016 c 0 3.102 -1.359 5.75 -3.926 7.629 c -2.582 1.902 -6.102 2.793 -10.504 2.797 l -1.01 0 c -0.309 0 -0.762 0.383 -0.82 0.656 l 0 0.016 l -1.211 5.199 c -0.27 1.188 -1.32 2 -2.527 2 l -3.035 0 c 0.012 0.578 0.461 1.023 1.09 1.02 l 3.52 -0.012 c 0.746 0.004 1.504 -0.59 1.68 -1.32 l 1.195 -5.211 c 0.168 -0.73 0.922 -1.34 1.68 -1.332 l 1.01 0 c 4.289 0 7.613 -0.879 9.996 -2.633 c 2.379 -1.762 3.574 -4.07 3.574 -6.945 c -0.008 -1.258 -0.223 -2.32 -0.672 -3.16 c -0.047 -0.09 -0.094 -0.18 -0.148 -0.266 m -12.617 0.199 c -0.289 -0.004 -0.758 0.379 -0.816 0.66 l -0.016 0.012 l -1.047 4.543 c -0.035 0.148 0.004 0.188 0.027 0.215 c 0.023 0.027 0.051 0.066 0.199 0.066 l 0.82 0 l 0.727 -3.156 c 0.156 -0.723 0.922 -1.324 1.664 -1.316 l 1.156 -0.016 c 0.57 0.004 1.07 0.039 1.52 0.121 c -0.102 -0.25 -0.266 -0.43 -0.512 -0.59 c -0.469 -0.313 -1.324 -0.539 -2.566 -0.539 m -1.156 0" fill="#000"/><path d="m 35.06 14.512 c -0.438 -0.848 -1.09 -1.539 -1.922 -2.059 c -0.867 -0.535 -1.871 -0.902 -3.043 -1.125 c -1.18 -0.211 -2.555 -0.313 -4.137 -0.328 l -7.313 0.004 c -0.762 0.012 -1.508 0.605 -1.68 1.336 l -4.934 21.445 c -0.172 0.73 0.305 1.34 1.063 1.34 l 3.504 0 c 0.758 0 1.508 -0.594 1.68 -1.34 l 1.207 -5.207 c 0.16 -0.727 0.91 -1.328 1.668 -1.328 l 1 0 c 4.285 -0.004 7.609 -0.879 9.996 -2.637 c 2.387 -1.75 3.578 -4.07 3.574 -6.941 c 0.004 -1.262 -0.215 -2.316 -0.668 -3.16 m -7.566 7.01 c -1.059 0.77 -2.523 1.16 -4.422 1.16 l -0.859 0 c -0.758 0 -1.234 -0.602 -1.07 -1.34 l 1.055 -4.547 c 0.16 -0.73 0.918 -1.34 1.676 -1.332 l 1.145 -0.008 c 1.34 0 2.359 0.23 3.047 0.688 c 0.676 0.441 1.02 1.145 1.01 2.086 c 0.02 1.418 -0.52 2.516 -1.578 3.293" fill="#000"/></g></g></g></g></g><g><g clip-path="url(#clipPath-406012125)"><!-- color: #1c5484 --><g><path d="m 36.48 16.12 c 0.082 0.488 0.109 1 0.109 1.543 c 0 0.004 0 0.008 0 0.016 c 0 3.102 -1.359 5.75 -3.926 7.629 c -2.582 1.902 -6.102 2.793 -10.504 2.797 l -1.01 0 c -0.309 0 -0.762 0.383 -0.82 0.656 l 0 0.016 l -1.211 5.199 c -0.27 1.188 -1.32 2 -2.527 2 l -3.035 0 c 0.012 0.578 0.461 1.023 1.09 1.02 l 3.52 -0.012 c 0.746 0.004 1.504 -0.59 1.68 -1.32 l 1.195 -5.211 c 0.168 -0.73 0.922 -1.34 1.68 -1.332 l 1.01 0 c 4.289 0 7.613 -0.879 9.996 -2.633 c 2.379 -1.762 3.574 -4.07 3.574 -6.945 c -0.008 -1.258 -0.223 -2.32 -0.672 -3.16 c -0.047 -0.09 -0.094 -0.18 -0.148 -0.266 m -12.617 0.199 c -0.289 -0.004 -0.758 0.379 -0.816 0.66 l -0.016 0.012 l -1.047 4.543 c -0.035 0.148 0.004 0.188 0.027 0.215 c 0.023 0.027 0.051 0.066 0.199 0.066 l 0.82 0 l 0.727 -3.156 c 0.156 -0.723 0.922 -1.324 1.664 -1.316 l 1.156 -0.016 c 0.57 0.004 1.07 0.039 1.52 0.121 c -0.102 -0.25 -0.266 -0.43 -0.512 -0.59 c -0.469 -0.313 -1.324 -0.539 -2.566 -0.539 m -1.156 0" fill="#9cc7e5"/><path d="m 35.06 14.512 c -0.438 -0.848 -1.09 -1.539 -1.922 -2.059 c -0.867 -0.535 -1.871 -0.902 -3.043 -1.125 c -1.18 -0.211 -2.555 -0.313 -4.137 -0.328 l -7.313 0.004 c -0.762 0.012 -1.508 0.605 -1.68 1.336 l -4.934 21.445 c -0.172 0.73 0.305 1.34 1.063 1.34 l 3.504 0 c 0.758 0 1.508 -0.594 1.68 -1.34 l 1.207 -5.207 c 0.16 -0.727 0.91 -1.328 1.668 -1.328 l 1 0 c 4.285 -0.004 7.609 -0.879 9.996 -2.637 c 2.387 -1.75 3.578 -4.07 3.574 -6.941 c 0.004 -1.262 -0.215 -2.316 -0.668 -3.16 m -7.566 7.01 c -1.059 0.77 -2.523 1.16 -4.422 1.16 l -0.859 0 c -0.758 0 -1.234 -0.602 -1.07 -1.34 l 1.055 -4.547 c 0.16 -0.73 0.918 -1.34 1.676 -1.332 l 1.145 -0.008 c 1.34 0 2.359 0.23 3.047 0.688 c 0.676 0.441 1.02 1.145 1.01 2.086 c 0.02 1.418 -0.52 2.516 -1.578 3.293" fill="#f9f9f9"/></g></g></g><g><path d="m 40.03 7.531 c 3.712 4.084 5.969 9.514 5.969 15.469 0 12.703 -10.297 23 -23 23 c -5.954 0 -11.384 -2.256 -15.469 -5.969 4.178 4.291 10.01 6.969 16.469 6.969 c 12.703 0 23 -10.298 23 -23 0 -6.462 -2.677 -12.291 -6.969 -16.469 z" opacity="0.1"/></g></svg>