<svg viewBox="0 0 48 48"><defs><linearGradient id="linearGradient3764" y1="47" x2="0" y2="1" gradientUnits="userSpaceOnUse"><stop stop-color="#d84430" stop-opacity="1"/><stop offset="1" stop-color="#db5441" stop-opacity="1"/></linearGradient><clipPath id="clipPath-847799655"><g transform="translate(0,-1004.3622)"><path d="m -24 13 c 0 1.105 -0.672 2 -1.5 2 -0.828 0 -1.5 -0.895 -1.5 -2 0 -1.105 0.672 -2 1.5 -2 0.828 0 1.5 0.895 1.5 2 z" transform="matrix(15.333333,0,0,11.5,414.99999,878.8622)" fill="#1890d0"/></g></clipPath><clipPath id="clipPath-856800663"><g transform="translate(0,-1004.3622)"><path d="m -24 13 c 0 1.105 -0.672 2 -1.5 2 -0.828 0 -1.5 -0.895 -1.5 -2 0 -1.105 0.672 -2 1.5 -2 0.828 0 1.5 0.895 1.5 2 z" transform="matrix(15.333333,0,0,11.5,414.99999,878.8622)" fill="#1890d0"/></g></clipPath></defs><g><path d="m 36.31 5 c 5.859 4.062 9.688 10.831 9.688 18.5 c 0 12.426 -10.07 22.5 -22.5 22.5 c -7.669 0 -14.438 -3.828 -18.5 -9.688 c 1.037 1.822 2.306 3.499 3.781 4.969 c 4.085 3.712 9.514 5.969 15.469 5.969 c 12.703 0 23 -10.298 23 -23 c 0 -5.954 -2.256 -11.384 -5.969 -15.469 c -1.469 -1.475 -3.147 -2.744 -4.969 -3.781 z m 4.969 3.781 c 3.854 4.113 6.219 9.637 6.219 15.719 c 0 12.703 -10.297 23 -23 23 c -6.081 0 -11.606 -2.364 -15.719 -6.219 c 4.16 4.144 9.883 6.719 16.219 6.719 c 12.703 0 23 -10.298 23 -23 c 0 -6.335 -2.575 -12.06 -6.719 -16.219 z" opacity="0.05"/><path d="m 41.28 8.781 c 3.712 4.085 5.969 9.514 5.969 15.469 c 0 12.703 -10.297 23 -23 23 c -5.954 0 -11.384 -2.256 -15.469 -5.969 c 4.113 3.854 9.637 6.219 15.719 6.219 c 12.703 0 23 -10.298 23 -23 c 0 -6.081 -2.364 -11.606 -6.219 -15.719 z" opacity="0.1"/><path d="m 31.25 2.375 c 8.615 3.154 14.75 11.417 14.75 21.13 c 0 12.426 -10.07 22.5 -22.5 22.5 c -9.708 0 -17.971 -6.135 -21.12 -14.75 a 23 23 0 0 0 44.875 -7 a 23 23 0 0 0 -16 -21.875 z" opacity="0.2"/></g><g><path d="m 24 1 c 12.703 0 23 10.297 23 23 c 0 12.703 -10.297 23 -23 23 -12.703 0 -23 -10.297 -23 -23 0 -12.703 10.297 -23 23 -23 z" fill="url(#linearGradient3764)" fill-opacity="1"/></g><g><g clip-path="url(#clipPath-847799655)"><g transform="translate(1,1)"><g opacity="0.1"><!-- color: #db5441 --><g><path d="m 21.04 13.13 c 0.191 0.148 0.418 0.348 0.676 0.598 c 0.258 0.23 0.508 0.527 0.742 0.883 c 0.238 0.336 0.441 0.734 0.613 1.195 c 0.172 0.465 0.258 0.988 0.258 1.578 c 0 0.586 -0.074 1.102 -0.227 1.543 c -0.148 0.441 -0.355 0.84 -0.613 1.195 c -0.258 0.336 -0.547 0.652 -0.871 0.945 c -0.32 0.273 -0.656 0.535 -1 0.789 c -0.215 0.207 -0.418 0.43 -0.613 0.66 c -0.191 0.23 -0.289 0.523 -0.289 0.883 c 0 0.355 0.098 0.641 0.289 0.848 c 0.195 0.191 0.379 0.359 0.551 0.504 l 1.16 0.883 c 0.344 0.293 0.68 0.59 1 0.883 c 0.344 0.293 0.637 0.609 0.871 0.945 c 0.258 0.336 0.465 0.715 0.613 1.133 c 0.152 0.422 0.227 0.902 0.227 1.449 c 0 0.734 -0.184 1.461 -0.547 2.172 c -0.367 0.715 -0.906 1.344 -1.613 1.891 c -0.711 0.566 -1.605 1.02 -2.68 1.355 c -1.055 0.355 -2.27 0.535 -3.645 0.535 c -1.164 0 -2.184 -0.125 -3.066 -0.379 c -0.859 -0.25 -1.582 -0.586 -2.16 -1.01 c -0.582 -0.418 -1.012 -0.902 -1.293 -1.449 c -0.277 -0.523 -0.418 -1.082 -0.418 -1.668 c 0 -0.566 0.184 -1.219 0.547 -1.953 c 0.348 -0.715 0.992 -1.344 1.938 -1.891 c 0.496 -0.293 1.023 -0.535 1.582 -0.723 c 0.578 -0.168 1.148 -0.305 1.707 -0.41 c 0.563 -0.105 1.086 -0.18 1.582 -0.223 c 0.496 -0.039 0.926 -0.07 1.289 -0.094 c -0.234 -0.293 -0.461 -0.598 -0.676 -0.914 c -0.195 -0.336 -0.289 -0.742 -0.289 -1.227 c 0 -0.273 0.031 -0.492 0.094 -0.66 c 0.066 -0.191 0.141 -0.379 0.227 -0.566 c -0.172 0.02 -0.344 0.039 -0.516 0.063 c -0.172 0 -0.344 0 -0.516 0 c -0.859 0 -1.625 -0.137 -2.289 -0.41 c -0.668 -0.293 -1.227 -0.672 -1.68 -1.133 c -0.453 -0.465 -0.797 -0.988 -1.031 -1.578 c -0.238 -0.609 -0.355 -1.215 -0.355 -1.824 c 0 -0.734 0.172 -1.473 0.516 -2.207 c 0.344 -0.754 0.859 -1.426 1.551 -2.02 c 0.922 -0.734 1.891 -1.207 2.902 -1.418 c 1.031 -0.207 1.988 -0.313 2.871 -0.313 l 6.645 0 l -2.063 1.133 l -2 0 m -3.551 8.883 c 0.41 0 0.809 -0.086 1.195 -0.254 c 0.406 -0.168 0.742 -0.375 1 -0.629 c 0.363 -0.355 0.59 -0.754 0.676 -1.195 c 0.086 -0.441 0.129 -0.809 0.129 -1.105 c 0 -0.566 -0.086 -1.184 -0.258 -1.855 c -0.172 -0.672 -0.43 -1.305 -0.773 -1.891 c -0.344 -0.59 -0.773 -1.07 -1.289 -1.449 c -0.496 -0.398 -1.078 -0.598 -1.742 -0.598 c -0.43 0 -0.852 0.094 -1.258 0.281 c -0.41 0.191 -0.742 0.441 -1 0.758 c -0.277 0.336 -0.473 0.703 -0.578 1.102 c -0.086 0.398 -0.129 0.809 -0.129 1.23 c 0 0.523 0.074 1.109 0.227 1.762 c 0.172 0.652 0.418 1.262 0.742 1.828 c 0.344 0.566 0.762 1.051 1.258 1.449 c 0.516 0.375 1.117 0.566 1.805 0.566 m 4.777 9.258 c 0 -0.398 -0.078 -0.766 -0.227 -1.102 c -0.129 -0.313 -0.336 -0.629 -0.613 -0.945 c -0.281 -0.313 -0.645 -0.641 -1.098 -0.977 c -0.453 -0.336 -0.98 -0.711 -1.582 -1.133 c -0.129 -0.02 -0.246 -0.031 -0.355 -0.031 c -0.086 0 -0.215 0 -0.387 0 c -0.063 0 -0.215 0 -0.449 0 c -0.238 0.02 -0.516 0.043 -0.84 0.063 c -0.324 0.043 -0.668 0.094 -1.031 0.16 c -0.367 0.082 -0.723 0.176 -1.066 0.281 c -0.172 0.063 -0.418 0.156 -0.742 0.285 c -0.301 0.145 -0.602 0.344 -0.902 0.598 c -0.301 0.25 -0.57 0.566 -0.809 0.945 c -0.215 0.379 -0.32 0.848 -0.32 1.418 c 0 1.133 0.504 2.055 1.516 2.77 c 1.031 0.715 2.418 1.07 4.16 1.07 c 1.551 0 2.723 -0.324 3.52 -0.977 c 0.816 -0.629 1.227 -1.438 1.227 -2.426" fill="#000"/><path d="m 34 16.723 l 0 5.262 l 5 0 l 0 2 l -5 0 l 0 5 l -2 0 l 0 -5 l -5 0 l 0 -2 l 5 0 l 0 -5.262" fill="#000"/></g></g></g></g></g><g><g clip-path="url(#clipPath-856800663)"><!-- color: #db5441 --><g><path d="m 21.04 13.13 c 0.191 0.148 0.418 0.348 0.676 0.598 c 0.258 0.23 0.508 0.527 0.742 0.883 c 0.238 0.336 0.441 0.734 0.613 1.195 c 0.172 0.465 0.258 0.988 0.258 1.578 c 0 0.586 -0.074 1.102 -0.227 1.543 c -0.148 0.441 -0.355 0.84 -0.613 1.195 c -0.258 0.336 -0.547 0.652 -0.871 0.945 c -0.32 0.273 -0.656 0.535 -1 0.789 c -0.215 0.207 -0.418 0.43 -0.613 0.66 c -0.191 0.23 -0.289 0.523 -0.289 0.883 c 0 0.355 0.098 0.641 0.289 0.848 c 0.195 0.191 0.379 0.359 0.551 0.504 l 1.16 0.883 c 0.344 0.293 0.68 0.59 1 0.883 c 0.344 0.293 0.637 0.609 0.871 0.945 c 0.258 0.336 0.465 0.715 0.613 1.133 c 0.152 0.422 0.227 0.902 0.227 1.449 c 0 0.734 -0.184 1.461 -0.547 2.172 c -0.367 0.715 -0.906 1.344 -1.613 1.891 c -0.711 0.566 -1.605 1.02 -2.68 1.355 c -1.055 0.355 -2.27 0.535 -3.645 0.535 c -1.164 0 -2.184 -0.125 -3.066 -0.379 c -0.859 -0.25 -1.582 -0.586 -2.16 -1.01 c -0.582 -0.418 -1.012 -0.902 -1.293 -1.449 c -0.277 -0.523 -0.418 -1.082 -0.418 -1.668 c 0 -0.566 0.184 -1.219 0.547 -1.953 c 0.348 -0.715 0.992 -1.344 1.938 -1.891 c 0.496 -0.293 1.023 -0.535 1.582 -0.723 c 0.578 -0.168 1.148 -0.305 1.707 -0.41 c 0.563 -0.105 1.086 -0.18 1.582 -0.223 c 0.496 -0.039 0.926 -0.07 1.289 -0.094 c -0.234 -0.293 -0.461 -0.598 -0.676 -0.914 c -0.195 -0.336 -0.289 -0.742 -0.289 -1.227 c 0 -0.273 0.031 -0.492 0.094 -0.66 c 0.066 -0.191 0.141 -0.379 0.227 -0.566 c -0.172 0.02 -0.344 0.039 -0.516 0.063 c -0.172 0 -0.344 0 -0.516 0 c -0.859 0 -1.625 -0.137 -2.289 -0.41 c -0.668 -0.293 -1.227 -0.672 -1.68 -1.133 c -0.453 -0.465 -0.797 -0.988 -1.031 -1.578 c -0.238 -0.609 -0.355 -1.215 -0.355 -1.824 c 0 -0.734 0.172 -1.473 0.516 -2.207 c 0.344 -0.754 0.859 -1.426 1.551 -2.02 c 0.922 -0.734 1.891 -1.207 2.902 -1.418 c 1.031 -0.207 1.988 -0.313 2.871 -0.313 l 6.645 0 l -2.063 1.133 l -2 0 m -3.551 8.883 c 0.41 0 0.809 -0.086 1.195 -0.254 c 0.406 -0.168 0.742 -0.375 1 -0.629 c 0.363 -0.355 0.59 -0.754 0.676 -1.195 c 0.086 -0.441 0.129 -0.809 0.129 -1.105 c 0 -0.566 -0.086 -1.184 -0.258 -1.855 c -0.172 -0.672 -0.43 -1.305 -0.773 -1.891 c -0.344 -0.59 -0.773 -1.07 -1.289 -1.449 c -0.496 -0.398 -1.078 -0.598 -1.742 -0.598 c -0.43 0 -0.852 0.094 -1.258 0.281 c -0.41 0.191 -0.742 0.441 -1 0.758 c -0.277 0.336 -0.473 0.703 -0.578 1.102 c -0.086 0.398 -0.129 0.809 -0.129 1.23 c 0 0.523 0.074 1.109 0.227 1.762 c 0.172 0.652 0.418 1.262 0.742 1.828 c 0.344 0.566 0.762 1.051 1.258 1.449 c 0.516 0.375 1.117 0.566 1.805 0.566 m 4.777 9.258 c 0 -0.398 -0.078 -0.766 -0.227 -1.102 c -0.129 -0.313 -0.336 -0.629 -0.613 -0.945 c -0.281 -0.313 -0.645 -0.641 -1.098 -0.977 c -0.453 -0.336 -0.98 -0.711 -1.582 -1.133 c -0.129 -0.02 -0.246 -0.031 -0.355 -0.031 c -0.086 0 -0.215 0 -0.387 0 c -0.063 0 -0.215 0 -0.449 0 c -0.238 0.02 -0.516 0.043 -0.84 0.063 c -0.324 0.043 -0.668 0.094 -1.031 0.16 c -0.367 0.082 -0.723 0.176 -1.066 0.281 c -0.172 0.063 -0.418 0.156 -0.742 0.285 c -0.301 0.145 -0.602 0.344 -0.902 0.598 c -0.301 0.25 -0.57 0.566 -0.809 0.945 c -0.215 0.379 -0.32 0.848 -0.32 1.418 c 0 1.133 0.504 2.055 1.516 2.77 c 1.031 0.715 2.418 1.07 4.16 1.07 c 1.551 0 2.723 -0.324 3.52 -0.977 c 0.816 -0.629 1.227 -1.438 1.227 -2.426" fill="#f9f9f9"/><path d="m 34 16.723 l 0 5.262 l 5 0 l 0 2 l -5 0 l 0 5 l -2 0 l 0 -5 l -5 0 l 0 -2 l 5 0 l 0 -5.262" fill="#f9f9f9"/></g></g></g><g><path d="m 40.03 7.531 c 3.712 4.084 5.969 9.514 5.969 15.469 0 12.703 -10.297 23 -23 23 c -5.954 0 -11.384 -2.256 -15.469 -5.969 4.178 4.291 10.01 6.969 16.469 6.969 c 12.703 0 23 -10.298 23 -23 0 -6.462 -2.677 -12.291 -6.969 -16.469 z" opacity="0.1"/></g></svg>