<svg viewBox="0 0 48 48" xmlns:xlink="http://www.w3.org/1999/xlink"><defs><linearGradient id="linearGradient3764" y1="47" x2="0" y2="1" gradientUnits="userSpaceOnUse"><stop stop-color="#5ab133" stop-opacity="1"/><stop offset="1" stop-color="#63c038" stop-opacity="1"/></linearGradient><clipPath id="clipPath-163307018"><g transform="translate(0,-1004.3622)"><path d="m -24 13 c 0 1.105 -0.672 2 -1.5 2 -0.828 0 -1.5 -0.895 -1.5 -2 0 -1.105 0.672 -2 1.5 -2 0.828 0 1.5 0.895 1.5 2 z" transform="matrix(15.333333,0,0,11.5,414.99999,878.8622)" fill="#1890d0"/></g></clipPath><clipPath id="clipPath-171745484"><g transform="translate(0,-1004.3622)"><path d="m -24 13 c 0 1.105 -0.672 2 -1.5 2 -0.828 0 -1.5 -0.895 -1.5 -2 0 -1.105 0.672 -2 1.5 -2 0.828 0 1.5 0.895 1.5 2 z" transform="matrix(15.333333,0,0,11.5,414.99999,878.8622)" fill="#1890d0"/></g></clipPath></defs><g><path d="m 36.31 5 c 5.859 4.062 9.688 10.831 9.688 18.5 c 0 12.426 -10.07 22.5 -22.5 22.5 c -7.669 0 -14.438 -3.828 -18.5 -9.688 c 1.037 1.822 2.306 3.499 3.781 4.969 c 4.085 3.712 9.514 5.969 15.469 5.969 c 12.703 0 23 -10.298 23 -23 c 0 -5.954 -2.256 -11.384 -5.969 -15.469 c -1.469 -1.475 -3.147 -2.744 -4.969 -3.781 z m 4.969 3.781 c 3.854 4.113 6.219 9.637 6.219 15.719 c 0 12.703 -10.297 23 -23 23 c -6.081 0 -11.606 -2.364 -15.719 -6.219 c 4.16 4.144 9.883 6.719 16.219 6.719 c 12.703 0 23 -10.298 23 -23 c 0 -6.335 -2.575 -12.06 -6.719 -16.219 z" opacity="0.05"/><path d="m 41.28 8.781 c 3.712 4.085 5.969 9.514 5.969 15.469 c 0 12.703 -10.297 23 -23 23 c -5.954 0 -11.384 -2.256 -15.469 -5.969 c 4.113 3.854 9.637 6.219 15.719 6.219 c 12.703 0 23 -10.298 23 -23 c 0 -6.081 -2.364 -11.606 -6.219 -15.719 z" opacity="0.1"/><path d="m 31.25 2.375 c 8.615 3.154 14.75 11.417 14.75 21.13 c 0 12.426 -10.07 22.5 -22.5 22.5 c -9.708 0 -17.971 -6.135 -21.12 -14.75 a 23 23 0 0 0 44.875 -7 a 23 23 0 0 0 -16 -21.875 z" opacity="0.2"/></g><g><path d="m 24 1 c 12.703 0 23 10.297 23 23 c 0 12.703 -10.297 23 -23 23 -12.703 0 -23 -10.297 -23 -23 0 -12.703 10.297 -23 23 -23 z" fill="url(#linearGradient3764)" fill-opacity="1"/></g><g><g clip-path="url(#clipPath-163307018)"><g transform="translate(1,1)"><g opacity="0.1"><!-- color: #63c038 --><path d="M 25.375 29.125 L 1.25 48 L 41.25 48 L 25.375 29.125 z " fill="#000"/><path d="m 25.08 28.909 -15.807 12.766 c 3.987 3.322 9.122 5.325 14.746 5.325 c 4.854 0 9.333 -1.485 13.04 -4.03 l -11.975 -14.06 z" fill="#000"/><g transform="matrix(3.879452,0,0,3.8702596,-2.3716881,-2.174614)" fill="#000"><use xlink:href="#SVGCleanerId_0"/><use xlink:href="#SVGCleanerId_1"/></g><path d="m 15.864 34.948 c -0.451 -2.209 -1.247 -4.048 -2.21 -5.752 -0.715 -1.264 -1.542 -2.431 -2.308 -3.656 -0.256 -0.409 -0.476 -0.841 -0.722 -1.266 -0.491 -0.849 -0.89 -1.834 -0.864 -3.111 0.023 -1.248 0.386 -2.249 0.908 -3.067 0.858 -1.346 2.295 -2.45 4.223 -2.74 1.576 -0.237 3.055 0.163 4.103 0.775 0.857 0.5 1.52 1.167 2.024 1.954 0.526 0.821 0.889 1.791 0.919 3.056 0.016 0.648 -0.091 1.248 -0.241 1.746 -0.152 0.504 -0.396 0.925 -0.613 1.375 -0.424 0.878 -0.955 1.683 -1.488 2.489 -1.588 2.399 -3.078 4.845 -3.731 8.197 z" fill-rule="evenodd" fill="#000"/><circle cx="729.55" cy="651.05" r="183.33" transform="matrix(0.01493004,0,0,0.01489465,4.8872724,11.597267)" fill-rule="evenodd" fill="#000"/></g></g></g></g><g><g clip-path="url(#clipPath-171745484)"><!-- color: #63c038 --><path d="M 25.375 29.125 L 1.25 48 L 41.25 48 L 25.375 29.125 z " fill="#868bec"/><path d="m 25.08 28.909 -15.807 12.766 c 3.987 3.322 9.122 5.325 14.746 5.325 c 4.854 0 9.333 -1.485 13.04 -4.03 l -11.975 -14.06 z" fill="#868bec"/><g transform="matrix(3.879452,0,0,3.8702596,-2.3716881,-2.174614)" fill="#ffe991"><path transform="scale(0.28222223,0.28222223)" d="m 46.01 8.4 -43.841 35.705 c 0 0.545 0 1.38 0 1.831 0.913 0 2.74 0 3.653 0 l 40.19 -32.959 z" id="SVGCleanerId_0"/><path transform="scale(0.28222223,0.28222223)" d="m 26.813 27.469 -2.406 2.281 13.381 16.186 c 0.913 0 2.74 0 3.653 0 z" id="SVGCleanerId_1"/></g><path d="m 15.864 34.948 c -0.451 -2.209 -1.247 -4.048 -2.21 -5.752 -0.715 -1.264 -1.542 -2.431 -2.308 -3.656 -0.256 -0.409 -0.476 -0.841 -0.722 -1.266 -0.491 -0.849 -0.89 -1.834 -0.864 -3.111 0.023 -1.248 0.386 -2.249 0.908 -3.067 0.858 -1.346 2.295 -2.45 4.223 -2.74 1.576 -0.237 3.055 0.163 4.103 0.775 0.857 0.5 1.52 1.167 2.024 1.954 0.526 0.821 0.889 1.791 0.919 3.056 0.016 0.648 -0.091 1.248 -0.241 1.746 -0.152 0.504 -0.396 0.925 -0.613 1.375 -0.424 0.878 -0.955 1.683 -1.488 2.489 -1.588 2.399 -3.078 4.845 -3.731 8.197 z" fill="#f3543f" fill-rule="evenodd"/><circle cx="729.55" cy="651.05" r="183.33" transform="matrix(0.01493004,0,0,0.01489465,4.8872724,11.597267)" fill="#c32f20" fill-rule="evenodd"/></g></g><g><path d="m 40.03 7.531 c 3.712 4.084 5.969 9.514 5.969 15.469 0 12.703 -10.297 23 -23 23 c -5.954 0 -11.384 -2.256 -15.469 -5.969 4.178 4.291 10.01 6.969 16.469 6.969 c 12.703 0 23 -10.298 23 -23 0 -6.462 -2.677 -12.291 -6.969 -16.469 z" opacity="0.1"/></g></svg>