<svg viewBox="0 0 48 48"><defs><linearGradient id="linearGradient3764" y1="47" x2="0" y2="1" gradientUnits="userSpaceOnUse"><stop stop-color="#e5e5e5" stop-opacity="1"/><stop offset="1" stop-color="#efefef" stop-opacity="1"/></linearGradient><clipPath id="clipPath-804893963"><g transform="translate(0,-1004.3622)"><path d="m -24 13 c 0 1.105 -0.672 2 -1.5 2 -0.828 0 -1.5 -0.895 -1.5 -2 0 -1.105 0.672 -2 1.5 -2 0.828 0 1.5 0.895 1.5 2 z" transform="matrix(15.333333,0,0,11.5,414.99999,878.8622)" fill="#1890d0"/></g></clipPath><clipPath id="clipPath-813487635"><g transform="translate(0,-1004.3622)"><path d="m -24 13 c 0 1.105 -0.672 2 -1.5 2 -0.828 0 -1.5 -0.895 -1.5 -2 0 -1.105 0.672 -2 1.5 -2 0.828 0 1.5 0.895 1.5 2 z" transform="matrix(15.333333,0,0,11.5,414.99999,878.8622)" fill="#1890d0"/></g></clipPath></defs><g><path d="m 36.31 5 c 5.859 4.062 9.688 10.831 9.688 18.5 c 0 12.426 -10.07 22.5 -22.5 22.5 c -7.669 0 -14.438 -3.828 -18.5 -9.688 c 1.037 1.822 2.306 3.499 3.781 4.969 c 4.085 3.712 9.514 5.969 15.469 5.969 c 12.703 0 23 -10.298 23 -23 c 0 -5.954 -2.256 -11.384 -5.969 -15.469 c -1.469 -1.475 -3.147 -2.744 -4.969 -3.781 z m 4.969 3.781 c 3.854 4.113 6.219 9.637 6.219 15.719 c 0 12.703 -10.297 23 -23 23 c -6.081 0 -11.606 -2.364 -15.719 -6.219 c 4.16 4.144 9.883 6.719 16.219 6.719 c 12.703 0 23 -10.298 23 -23 c 0 -6.335 -2.575 -12.06 -6.719 -16.219 z" opacity="0.05"/><path d="m 41.28 8.781 c 3.712 4.085 5.969 9.514 5.969 15.469 c 0 12.703 -10.297 23 -23 23 c -5.954 0 -11.384 -2.256 -15.469 -5.969 c 4.113 3.854 9.637 6.219 15.719 6.219 c 12.703 0 23 -10.298 23 -23 c 0 -6.081 -2.364 -11.606 -6.219 -15.719 z" opacity="0.1"/><path d="m 31.25 2.375 c 8.615 3.154 14.75 11.417 14.75 21.13 c 0 12.426 -10.07 22.5 -22.5 22.5 c -9.708 0 -17.971 -6.135 -21.12 -14.75 a 23 23 0 0 0 44.875 -7 a 23 23 0 0 0 -16 -21.875 z" opacity="0.2"/></g><g><path d="m 24 1 c 12.703 0 23 10.297 23 23 c 0 12.703 -10.297 23 -23 23 -12.703 0 -23 -10.297 -23 -23 0 -12.703 10.297 -23 23 -23 z" fill="url(#linearGradient3764)" fill-opacity="1"/></g><g><g clip-path="url(#clipPath-804893963)"><g transform="translate(1,1)"><g opacity="0.1"><!-- color: #efefef --><path d="M 0 0 L 0 17 L 48 17 L 48 0 L 0 0 z " fill-rule="evenodd" fill="#000"/><g><path d="m 31 12 c 0 1.105 -0.895 2 -2 2 c -1.105 0 -2 -0.895 -2 -2 c 0 -1.102 0.895 -2 2 -2 c 1.105 0 2 0.898 2 2 m 0 0" fill="#000"/><path d="m 36 12 c 0 1.105 -0.895 2 -2 2 c -1.105 0 -2 -0.895 -2 -2 c 0 -1.102 0.895 -2 2 -2 c 1.105 0 2 0.898 2 2 m 0 0" fill="#000"/><path d="m 34 13 c 1 0 1 -1 1 -1 c 0 0 0 -1 -1 -1 l -5 0 c -1 0 -1 1 -1 1 c 0 0 0 1 1 1 m 5 0" fill="#000"/><path d="m 16 12 c 0 1.105 -0.895 2 -2 2 c -1.105 0 -2 -0.895 -2 -2 c 0 -1.102 0.895 -2 2 -2 c 1.105 0 2 0.898 2 2 m 0 0" fill="#000"/><path d="m 21 12 c 0 1.105 -0.895 2 -2 2 c -1.105 0 -2 -0.895 -2 -2 c 0 -1.102 0.895 -2 2 -2 c 1.105 0 2 0.898 2 2 m 0 0" fill="#000"/><path d="m 14 13 c -1 0 -1 -1 -1 -1 c 0 0 0 -1 1 -1 l 5 0 c 1 0 1 1 1 1 c 0 0 0 1 -1 1 m -5 0" fill="#000"/><path d="m 19.16 34.816 l -1.586 0 l 0 -9.707 c 0 -0.809 0.027 -1.57 0.078 -2.293 c -0.137 0.133 -0.289 0.27 -0.461 0.41 c -0.168 0.145 -0.945 0.75 -2.324 1.816 l -0.863 -1.059 l 3.785 -2.785 l 1.371 0 l 0 13.617" fill="#000"/><path d="m 34 27.01 c 0 5.328 -2.164 7.992 -6.492 7.992 c -0.758 0 -1.355 -0.059 -1.801 -0.184 l 0 -1.332 c 0.523 0.16 1.117 0.242 1.781 0.242 c 1.563 0 2.746 -0.461 3.539 -1.379 c 0.801 -0.926 1.238 -2.34 1.313 -4.25 l -0.117 0 c -0.359 0.516 -0.836 0.91 -1.43 1.184 c -0.594 0.27 -1.262 0.402 -2 0.402 c -1.266 0 -2.27 -0.359 -3.01 -1.082 c -0.746 -0.719 -1.117 -1.727 -1.117 -3.02 c 0 -1.418 0.414 -2.535 1.242 -3.355 c 0.836 -0.82 1.93 -1.23 3.285 -1.23 c 0.973 0 1.82 0.242 2.543 0.719 c 0.73 0.473 1.293 1.164 1.684 2.078 c 0.391 0.906 0.586 1.977 0.586 3.211 m -4.813 -4.684 c -0.93 0 -1.652 0.285 -2.16 0.855 c -0.508 0.574 -0.762 1.367 -0.762 2.387 c 0 0.895 0.234 1.598 0.703 2.113 c 0.469 0.512 1.184 0.766 2.141 0.766 c 0.594 0 1.141 -0.117 1.637 -0.348 c 0.5 -0.227 0.895 -0.543 1.184 -0.938 c 0.285 -0.398 0.43 -0.816 0.43 -1.25 c 0 -0.652 -0.137 -1.254 -0.402 -1.805 c -0.266 -0.555 -0.641 -0.988 -1.125 -1.305 c -0.477 -0.316 -1.023 -0.477 -1.645 -0.477" fill="#000"/></g></g></g></g></g><g><g clip-path="url(#clipPath-813487635)"><!-- color: #efefef --><path d="M 0 0 L 0 17 L 48 17 L 48 0 L 0 0 z " fill="#d64937" fill-rule="evenodd"/><g><path d="m 31 12 c 0 1.105 -0.895 2 -2 2 c -1.105 0 -2 -0.895 -2 -2 c 0 -1.102 0.895 -2 2 -2 c 1.105 0 2 0.898 2 2 m 0 0" fill="#802c20"/><path d="m 36 12 c 0 1.105 -0.895 2 -2 2 c -1.105 0 -2 -0.895 -2 -2 c 0 -1.102 0.895 -2 2 -2 c 1.105 0 2 0.898 2 2 m 0 0" fill="#802c20"/><path d="m 34 13 c 1 0 1 -1 1 -1 c 0 0 0 -1 -1 -1 l -5 0 c -1 0 -1 1 -1 1 c 0 0 0 1 1 1 m 5 0" fill="#dcdcdc"/><path d="m 16 12 c 0 1.105 -0.895 2 -2 2 c -1.105 0 -2 -0.895 -2 -2 c 0 -1.102 0.895 -2 2 -2 c 1.105 0 2 0.898 2 2 m 0 0" fill="#802c20"/><path d="m 21 12 c 0 1.105 -0.895 2 -2 2 c -1.105 0 -2 -0.895 -2 -2 c 0 -1.102 0.895 -2 2 -2 c 1.105 0 2 0.898 2 2 m 0 0" fill="#802c20"/><path d="m 14 13 c -1 0 -1 -1 -1 -1 c 0 0 0 -1 1 -1 l 5 0 c 1 0 1 1 1 1 c 0 0 0 1 -1 1 m -5 0" fill="#dcdcdc"/><path d="m 19.16 34.816 l -1.586 0 l 0 -9.707 c 0 -0.809 0.027 -1.57 0.078 -2.293 c -0.137 0.133 -0.289 0.27 -0.461 0.41 c -0.168 0.145 -0.945 0.75 -2.324 1.816 l -0.863 -1.059 l 3.785 -2.785 l 1.371 0 l 0 13.617" fill="#868686"/><path d="m 34 27.01 c 0 5.328 -2.164 7.992 -6.492 7.992 c -0.758 0 -1.355 -0.059 -1.801 -0.184 l 0 -1.332 c 0.523 0.16 1.117 0.242 1.781 0.242 c 1.563 0 2.746 -0.461 3.539 -1.379 c 0.801 -0.926 1.238 -2.34 1.313 -4.25 l -0.117 0 c -0.359 0.516 -0.836 0.91 -1.43 1.184 c -0.594 0.27 -1.262 0.402 -2 0.402 c -1.266 0 -2.27 -0.359 -3.01 -1.082 c -0.746 -0.719 -1.117 -1.727 -1.117 -3.02 c 0 -1.418 0.414 -2.535 1.242 -3.355 c 0.836 -0.82 1.93 -1.23 3.285 -1.23 c 0.973 0 1.82 0.242 2.543 0.719 c 0.73 0.473 1.293 1.164 1.684 2.078 c 0.391 0.906 0.586 1.977 0.586 3.211 m -4.813 -4.684 c -0.93 0 -1.652 0.285 -2.16 0.855 c -0.508 0.574 -0.762 1.367 -0.762 2.387 c 0 0.895 0.234 1.598 0.703 2.113 c 0.469 0.512 1.184 0.766 2.141 0.766 c 0.594 0 1.141 -0.117 1.637 -0.348 c 0.5 -0.227 0.895 -0.543 1.184 -0.938 c 0.285 -0.398 0.43 -0.816 0.43 -1.25 c 0 -0.652 -0.137 -1.254 -0.402 -1.805 c -0.266 -0.555 -0.641 -0.988 -1.125 -1.305 c -0.477 -0.316 -1.023 -0.477 -1.645 -0.477" fill="#868686"/></g></g></g><g><path d="m 40.03 7.531 c 3.712 4.084 5.969 9.514 5.969 15.469 0 12.703 -10.297 23 -23 23 c -5.954 0 -11.384 -2.256 -15.469 -5.969 4.178 4.291 10.01 6.969 16.469 6.969 c 12.703 0 23 -10.298 23 -23 0 -6.462 -2.677 -12.291 -6.969 -16.469 z" opacity="0.1"/></g></svg>