<svg viewBox="0 0 48 48"><defs><linearGradient id="linearGradient3764" y1="47" x2="0" y2="1" gradientUnits="userSpaceOnUse"><stop stop-color="#60c3e0" stop-opacity="1"/><stop offset="1" stop-color="#71cae3" stop-opacity="1"/></linearGradient><clipPath id="clipPath-234422893"><g transform="translate(0,-1004.3622)"><path d="m -24 13 c 0 1.105 -0.672 2 -1.5 2 -0.828 0 -1.5 -0.895 -1.5 -2 0 -1.105 0.672 -2 1.5 -2 0.828 0 1.5 0.895 1.5 2 z" transform="matrix(15.333333,0,0,11.5,414.99999,878.8622)" fill="#1890d0"/></g></clipPath><clipPath id="clipPath-246100665"><g transform="translate(0,-1004.3622)"><path d="m -24 13 c 0 1.105 -0.672 2 -1.5 2 -0.828 0 -1.5 -0.895 -1.5 -2 0 -1.105 0.672 -2 1.5 -2 0.828 0 1.5 0.895 1.5 2 z" transform="matrix(15.333333,0,0,11.5,414.99999,878.8622)" fill="#1890d0"/></g></clipPath></defs><g><path d="m 36.31 5 c 5.859 4.062 9.688 10.831 9.688 18.5 c 0 12.426 -10.07 22.5 -22.5 22.5 c -7.669 0 -14.438 -3.828 -18.5 -9.688 c 1.037 1.822 2.306 3.499 3.781 4.969 c 4.085 3.712 9.514 5.969 15.469 5.969 c 12.703 0 23 -10.298 23 -23 c 0 -5.954 -2.256 -11.384 -5.969 -15.469 c -1.469 -1.475 -3.147 -2.744 -4.969 -3.781 z m 4.969 3.781 c 3.854 4.113 6.219 9.637 6.219 15.719 c 0 12.703 -10.297 23 -23 23 c -6.081 0 -11.606 -2.364 -15.719 -6.219 c 4.16 4.144 9.883 6.719 16.219 6.719 c 12.703 0 23 -10.298 23 -23 c 0 -6.335 -2.575 -12.06 -6.719 -16.219 z" opacity="0.05"/><path d="m 41.28 8.781 c 3.712 4.085 5.969 9.514 5.969 15.469 c 0 12.703 -10.297 23 -23 23 c -5.954 0 -11.384 -2.256 -15.469 -5.969 c 4.113 3.854 9.637 6.219 15.719 6.219 c 12.703 0 23 -10.298 23 -23 c 0 -6.081 -2.364 -11.606 -6.219 -15.719 z" opacity="0.1"/><path d="m 31.25 2.375 c 8.615 3.154 14.75 11.417 14.75 21.13 c 0 12.426 -10.07 22.5 -22.5 22.5 c -9.708 0 -17.971 -6.135 -21.12 -14.75 a 23 23 0 0 0 44.875 -7 a 23 23 0 0 0 -16 -21.875 z" opacity="0.2"/></g><g><path d="m 24 1 c 12.703 0 23 10.297 23 23 c 0 12.703 -10.297 23 -23 23 -12.703 0 -23 -10.297 -23 -23 0 -12.703 10.297 -23 23 -23 z" fill="url(#linearGradient3764)" fill-opacity="1"/></g><g><g clip-path="url(#clipPath-234422893)"><g transform="translate(1,1)"><g opacity="0.1"><!-- color: #71cae3 --><path d="m 16 1.906 -0.844 0.25 -0.969 0.063 -0.594 0.438 -0.781 -0.031 0.063 0.5 1.125 -0.031 0.406 1.094 0.156 0.594 -0.625 0.344 -0.25 0.469 0.188 1.062 0.75 0.125 0.719 -0.687 0.625 -0.656 0.969 -0.25 1.219 -0.594 0.719 -0.875 1.031 -1.25 0.719 -0.188 -0.031 -0.281 -1.125 0 l -3.469 -0.094 z m -2.219 0.063 -0.813 0.031 -1.406 0.375 -0.813 0.25 -0.938 -0.375 -0.125 0.563 1.125 0.656 c 0 0 2.045 -1.125 2.156 -1.125 l 0.813 -0.375 z m 21.06 0.219 -0.188 0.313 1.156 0.156 0.063 -0.281 -1.031 -0.188 z m -8.875 0.188 c -0.056 0.022 -1.531 0.031 -1.531 0.031 l -0.375 0.094 0.5 0.594 0.531 -0.5 0.344 0.219 0.5 -0.25 c 0 0 0.088 -0.21 0.031 -0.188 z m 5.625 0.469 -0.469 0.063 -0.406 0.25 -0.469 0.344 -0.281 0.5 0.438 0.438 0.375 0.031 0.156 -0.25 -0.375 -0.313 0.219 -0.188 0.031 -0.156 0.469 -0.313 c 0 0 0.608 0.008 0.656 0 0.048 -0.008 0.188 -0.188 0.188 -0.188 l -0.156 -0.219 -0.375 0 z m -25.875 0.188 -0.094 0.313 0.469 0.156 0.531 -0.25 -0.906 -0.219 z m 31.781 0.094 l -2.125 0.094 -0.563 0.375 -0.625 0.375 -0.531 0.437 0.063 0.188 -0.281 0.031 0 0.031 -4 0.656 l -3.656 2.687 l -0.375 0.281 -0.031 0 -0.25 -0.094 c 0 0 -0.155 0.008 -0.219 0.063 -0.064 0.055 -0.121 0.102 -0.313 0.125 -0.191 0.023 -0.562 0 -0.594 0 l -0.219 0 0.031 -0.219 0.156 -0.25 l -0.281 -0.219 c 0 0 -0.18 0.227 -0.188 0.281 -0.008 0.055 0.125 0.281 0.125 0.281 0 0 -0.062 0.18 -0.094 0.219 -0.032 0.039 -0.313 0.125 -0.313 0.125 l -0.438 -0.219 c 0 0 -0.18 -0.039 -0.156 0.063 0.024 0.102 0.219 0.195 0.219 0.281 0 0.086 -0.125 0.281 -0.125 0.281 l -0.156 0.188 -0.25 0.25 -0.344 0.094 c 0 0 -0.249 0.07 -0.313 0.094 -0.064 0.023 -0.25 0.063 -0.25 0.063 l -0.25 0.031 l -0.156 0.219 l 0.281 0.188 0.188 0.313 c 0 0 0.124 0.219 0.156 0.219 0.032 0 0.094 0.219 0.094 0.219 l -0.188 0.25 -0.063 0 -0.031 0 -0.656 0.125 -0.125 -0.281 -0.438 0.438 -0.188 0.719 0 0.594 0.75 0.406 0.594 -0.219 0.594 -1.063 0.531 -0.656 0.969 -0.156 0.219 -0.188 1.094 1.281 0.125 0.438 0.313 -0.156 -0.094 -0.375 0.188 0 -0.125 -0.25 -1.063 -1 0.094 -0.188 0.344 -0.031 0.75 0.75 0.375 0.438 0 0.688 0.188 0.125 0.375 0.375 0.281 -0.094 -0.156 -0.563 0.094 -0.344 0.188 -0.219 0.438 0.156 0.156 0.063 -0.031 -0.5 0.25 -0.469 0.156 -0.688 0.563 0.094 0.094 0.313 0.219 0.156 0.25 -0.219 -0.156 -0.344 0.656 0 -0.219 0.375 0.438 0.375 0.375 0.188 0.219 0.438 -0.5 0.125 -0.719 -0.156 -0.625 0 -0.594 0.313 -0.125 0.188 -0.438 0.094 0.188 0.469 0.344 0.406 0.625 -0.219 0.156 0.281 0.281 -0.219 0.375 0.063 0.031 0.406 -0.125 0.781 l -0.344 -0.031 -0.406 -0.063 -0.188 0.469 -1.375 -0.25 -0.25 -0.313 -0.313 0.281 -0.344 0.469 l -0.875 -0.5 -0.875 -0.531 0 -0.938 -0.563 0.031 l -0.031 0.313 -1.375 -0.063 -0.438 0.406 -0.844 0.031 l -0.563 0.5 -0.344 0.969 -0.875 0.688 -0.625 0.844 -0.031 1.625 -0.188 0.5 -0.063 0.594 0.375 0.656 0.219 0.625 0.75 0.906 0.438 0.375 0.438 0.094 0.094 -0.375 1.563 0 0.406 -0.188 0.5 0.063 0.156 0.313 0.531 0.031 0.344 0.25 0 0.531 -0.125 0.438 -0.125 0.344 0.313 0.563 l 0.406 0.469 0.188 1.188 0.031 0.781 -0.281 0.656 l -0.031 0.625 0.219 1.156 0.188 0.188 l 0.281 1.094 0.031 0.469 0.563 0.75 0.063 0.594 0.094 0.688 0.344 -0.344 l 0.875 -0.094 0.531 0 0.969 -1.5 0.063 -0.594 0.656 -0.656 0.031 -0.75 0.344 -0.75 0.813 -0.781 0 -0.875 -0.188 -0.813 -0.125 -1.125 0.594 -0.938 1.063 -1.313 0.406 -0.406 0.156 -0.531 0.25 -0.469 0.063 -0.688 -0.594 0 l -0.281 0.281 -0.563 -0.156 -0.344 -0.563 -0.281 -0.563 -0.656 -0.5 -0.156 -0.813 -0.281 -0.469 -0.313 -0.594 -0.406 -0.719 -0.094 -0.469 l 0.438 -0.063 0.25 0.531 0.5 0.938 0.375 0.688 0.406 0.75 0.438 0.719 0.594 0.594 0.531 -0.5 0.594 -0.156 0.438 -0.531 0.594 -0.344 0.344 -0.594 0.031 -0.5 -0.281 -0.313 -0.375 -0.438 -0.25 0.156 l -0.156 0.25 -0.406 -0.188 -0.125 -0.313 -0.281 -0.406 -0.438 -0.406 l 0 -0.813 0.281 0.531 0.344 0.531 0.594 0.344 0.406 -0.094 0.25 0.281 1.781 -0.031 -0.031 0.031 0.563 0.5 0.406 0.563 0.125 0.281 0.281 0 0.094 -0.313 0.094 0.469 0.156 0.844 0.344 0.813 0.188 0.688 0.281 0.656 0.219 0.281 0.313 -0.188 0.094 -0.313 0.125 -0.781 -0.031 -0.688 0.25 -0.313 c 0 0 0.265 -0.363 0.313 -0.375 0.048 -0.012 0.625 -0.656 0.625 -0.656 l 0.281 -0.344 0.313 -0.188 0.375 -0.219 0.156 0 0.063 0.344 0.156 0.406 0.5 0.656 0 0.25 0.094 0.281 0.344 -0.156 -0.031 -0.375 0.313 0.063 0.063 0.344 -0.031 0.531 0.094 0.375 0.281 0.063 0.094 -0.313 0.344 0.219 0.063 0.313 0.313 0.469 0.313 0.344 0.219 0.188 0.531 -0.469 0.219 -0.438 -0.094 -0.5 l -0.094 -0.656 -0.594 -0.563 -0.094 -0.563 0.25 -0.406 c 0 0 0.16 -0.322 0.313 -0.156 0.152 0.166 0.224 0.193 0.156 0.375 -0.068 0.182 -0.188 0.594 -0.188 0.594 l 0.375 0.156 0.156 -0.531 -0.156 -0.375 l 0.375 -0.156 0.688 -0.344 0.438 -0.531 0.344 -0.813 -0.031 -0.594 -0.344 -0.781 -0.688 -0.813 -0.438 -0.406 -0.219 -0.625 0.406 -0.094 c 0 0 0.235 -0.403 0.438 -0.188 0.203 0.215 0.5 0.531 0.5 0.531 0 0 0.356 0.559 0.406 0.625 0.051 0.066 0.418 0.402 0.469 0.469 0.051 0.066 0.281 0.313 0.281 0.313 l 0.375 -0.531 l 0.094 -0.094 0 -0.188 -0.531 -0.313 -0.469 -0.438 l 0.344 -0.75 0.563 -0.281 l 0.094 -0.25 0 -1.469 -0.281 -0.563 -0.313 -0.438 c 0 0 -0.322 -0.048 -0.406 -0.031 -0.085 0.017 -0.781 -0.5 -0.781 -0.5 l 0.063 -0.5 0.25 -0.438 l 1.188 -0.156 0.281 0.031 l 0 -0.313 -1.719 -2.25 -1.656 -0.188 -1.281 -0.313 c 0 0 -0.391 0.296 -0.594 0.313 -0.203 0.017 -0.906 0.125 -0.906 0.125 l -0.719 -0.438 -1.5 -0.125 -0.063 -0.031 -1.281 -0.063 l -0.781 -0.437 z m -11.719 4.875 l 3.563 -2.687 -1.219 0.656 -0.313 -0.219 -0.156 -0.25 0.063 -0.25 0.688 0.031 0.313 -0.125 -0.625 -0.313 -0.875 -0.313 -0.875 -0.156 -0.938 0.188 -0.969 0.781 l -0.438 0.438 -0.656 0.719 -0.25 0.031 -0.094 0.344 0.125 0.344 c 0 0 0.134 0.156 0.156 0.156 0.023 0 0.25 -0.125 0.25 -0.125 0 0 0.027 -0.118 0.156 -0.156 0.13 -0.039 0.25 -0.063 0.25 -0.063 l 0.188 0.375 0.219 0.313 0.094 0.25 c 0 0 0.364 -0.222 0.375 -0.25 c 0.011 -0.028 0.031 -0.406 0.031 -0.406 l 0.281 -0.188 c 0 0 0.074 -0.134 0.063 -0.156 c -0.011 -0.022 -0.188 -0.219 -0.188 -0.219 l -0.156 -0.063 0.063 -0.313 c 0 0 0.125 -0.05 0.125 -0.094 0 -0.044 0.188 -0.187 0.188 -0.187 l 0.219 -0.281 0.156 -0.188 0.219 -0.156 0.25 0.188 0 0.125 -0.219 0.25 -0.063 0.25 0 0.344 0.188 0.156 l 0.344 -0.031 0.313 -0.063 0.281 0.156 -0.063 0.219 c 0 0 -0.194 0.188 -0.25 0.219 -0.056 0.031 -0.412 -0.063 -0.5 -0.031 -0.088 0.031 -0.313 0.313 -0.313 0.313 0 0 -0.024 0.25 0 0.313 0.009 0.025 0.009 0.064 0 0.125 z m 3.656 -2.687 4 -0.688 -0.031 -0.156 -0.313 -0.438 -0.656 -0.063 c 0 0 0.156 0.667 0.156 0.75 0 0.083 -0.438 0.031 -0.438 0.031 l -0.75 0.031 c 0 0 -1.084 0.25 -1.219 0.25 -0.13 0 -0.763 0.261 -0.813 0.281 l 0.063 0 z m -25.16 -1.813 -0.5 0.563 0.438 0.219 0.563 -0.25 0.031 0.625 0.469 0.313 0.5 -0.469 0.688 0.125 0.281 -0.656 -1.125 -0.094 -1.344 -0.375 z m 3.125 0.094 0.438 1.094 -0.531 0.063 -0.406 0.5 -0.906 -0.281 -0.813 0.313 -0.781 -0.188 -0.906 -0.563 l -1.25 0.031 -1.094 0.469 -0.719 -0.344 -0.438 -0.031 0 13.594 l 0.844 0.469 0.5 -0.063 l 0.719 0.344 l 1.094 0.594 0.156 0.719 0.875 0.844 0.5 -0.375 0.406 0.313 -0.063 -0.719 -0.781 0.188 -0.25 -0.906 -0.094 -0.406 -0.688 -0.625 0 -0.438 0.531 -0.563 -0.344 -0.406 l -0.562 0.094 -0.844 0.844 -0.688 -0.094 c 0 0 -0.311 -0.531 -0.375 -0.656 -0.064 -0.125 0.188 -0.563 0.188 -0.563 l -0.063 -1.281 0.719 -0.5 0.563 -0.188 0.812 0 1.125 -0.25 0.406 0.531 -0.063 0.625 0.469 0.406 0.063 -0.438 c 0 0 -0.03 -0.719 -0.094 -0.906 -0.064 -0.187 0.563 -0.625 0.563 -0.625 l 0.5 -0.625 0.594 -0.719 0.281 -0.563 0.938 -0.5 0.625 -0.688 c 0 0 0.934 -0.156 1.125 -0.25 0.191 -0.094 0.066 -0.438 -0.125 -0.75 c -0.191 -0.312 0.094 -0.625 0.094 -0.625 l 0.719 -0.438 0.625 0.125 l 0.063 0.75 c 0 0 0.59 0.562 0.781 0.469 c 0.191 -0.094 0.281 -0.406 0.281 -0.406 l -0.313 -0.813 0.188 -0.813 -0.844 0.125 l 0 -0.844 0 -0.531 -0.25 0.25 l -0.656 0.031 -0.094 -0.688 -0.438 -0.531 c 0 0 -0.429 0.25 -0.844 0.406 -0.415 0.156 -0.313 0.469 -0.313 0.469 l -0.031 0.844 -0.688 0.563 -0.438 0.656 c 0 0 -0.281 -0.188 -0.281 -0.313 0 -0.125 -0.063 -0.469 -0.063 -0.469 l -0.719 -0.563 c 0 0 -0.562 -0.406 -0.594 -0.531 -0.032 -0.125 0.344 -0.688 0.344 -0.688 0 0 0.809 -0.5 1 -0.656 0.191 -0.156 1.216 0.344 1.344 0.25 0.128 -0.094 0.625 -0.875 0.625 -0.875 l 0.438 -0.594 -0.438 0.5 -0.75 -0.719 0.125 -0.719 -1.031 -0.156 z m 2.5 0.031 -0.25 0.625 0.156 0.344 0.563 -0.063 0.25 0.469 -0.5 0.531 -0.563 0.063 0.5 0.219 0.531 0.469 0.531 0.125 0.188 -0.719 0.031 -0.438 0.625 0.094 c 0 0 -0.189 0.313 -0.094 0.313 0.096 0 0.469 -0.406 0.469 -0.406 l -1.063 -1.094 c 0 0 -0.435 -0.344 -0.563 -0.25 -0.128 0.094 -0.469 0.063 -0.469 0.063 l -0.344 -0.344 z m 8.688 1.781 -0.125 0.406 c 0.454 0.351 0.625 0.344 0.625 0.344 l 0.531 -0.125 0.344 -0.344 -0.219 -0.281 -0.719 0 -0.438 0 z m 2.781 1.781 -0.25 0.219 c -0.072 0.305 -0.156 0.625 -0.156 0.625 l 0.469 0.219 0.063 0.281 l -0.25 0.25 -0.219 0.375 l 0.156 0.156 0.563 -0.094 0.5 -0.219 -0.281 -0.375 -0.094 -0.656 -0.344 -0.375 -0.156 -0.406 z m -0.781 1.188 -0.281 0.469 0.375 0.156 0.156 -0.281 -0.25 -0.344 z m -15.438 1.094 0.656 0.281 l 0.438 0.563 0.281 0.438 c 0 0 -0.249 0.844 -0.313 1 -0.064 0.156 -0.25 -0.313 -0.25 -0.313 l -0.156 -0.813 -0.531 0.219 -0.406 0.969 0.094 -0.813 0.125 -0.563 -0.656 -0.25 0.563 -0.531 0.156 -0.188 z m 26.375 0.75 c 0.135 -0.044 0.375 0.156 0.375 0.156 l -0.25 0.219 0.094 0.313 0.281 0.75 0.281 0.469 0.375 0.594 -0.406 0.188 l -0.531 -0.344 -0.219 -0.656 c 0 0 -0.302 -0.402 -0.438 -0.469 -0.135 -0.066 -0.25 -0.281 -0.25 -0.281 l 0.125 -0.531 c 0 0 0.427 -0.362 0.563 -0.406 z m -7.906 1.188 -0.375 0.719 0.281 0.281 0.25 -0.219 0.031 -0.313 -0.188 -0.469 z m -1.25 0.75 0 0.188 0.156 -0.031 -0.156 -0.156 z m 2.156 0.469 -0.188 0.063 0.313 0.531 l 0.281 -0.219 -0.406 -0.375 z m -20.13 4.188 -0.313 0.156 0.531 0.281 0.594 0.125 0.344 0.469 0.406 -0.25 -0.063 -0.281 -0.688 -0.5 -0.813 0 z m 1.688 3.094 -0.813 0.438 -0.094 0.906 -0.188 1 -0.563 0.75 0.031 1.125 0.469 1.156 0.5 1.406 1.313 1.313 0.063 0.75 0.094 3.375 0.469 1.906 c 0 0 0.286 1.099 0.219 1.188 -0.068 0.088 0.375 0.906 0.375 0.906 l 0.875 1.375 1.219 0.531 -0.5 -0.594 -0.25 -0.688 0.25 -0.719 -0.656 -0.344 c 0 0 0.432 -0.287 0.5 -0.375 0.068 -0.088 -0.094 -0.469 -0.094 -0.469 l -0.188 -0.469 0.5 -0.656 0.781 -0.188 0.125 -0.594 -0.469 -0.219 0.188 -0.5 l 0.75 -0.094 0.656 -1.594 0.469 -1.094 0.969 -0.469 c 0 0 0.313 -0.93 0.313 -1.063 c 0 -0.133 0.094 -1.531 0.094 -1.531 l 0.75 -1.031 0.094 -0.688 l -0.563 -0.344 -0.469 -0.563 -0.844 0.063 -1.344 -0.781 -0.281 -0.656 c 0 0 -0.472 -0.813 -0.563 -0.813 -0.09 0 -0.656 0.031 -0.656 0.031 l -0.531 -0.531 -0.344 -0.656 -1.344 -0.281 -0.438 -0.219 -0.875 0 z m 36.438 0.5 c 0.113 0.133 0.816 2.219 0.906 2.219 0.09 0 0.625 0.063 0.625 0.063 l -0.281 -0.844 -1.25 -1.438 z m -3.594 0.063 -0.313 0.406 0.156 0.594 0.344 -0.375 -0.063 -0.469 -0.125 -0.156 z m 8.094 0.719 -1.469 0.813 c 0 0.088 -0.719 0.688 -0.719 0.688 l 0.188 0.625 0.406 0.469 0.281 0.688 1.875 -1.219 -0.563 -2.063 z m -4.594 0.438 -0.438 0.063 l 2 3 0.531 0.594 1.313 0.063 0.813 0.25 -0.875 -0.625 -1.25 -0.344 -0.313 -1.156 -0.688 -0.563 l -1.094 -1.281 z m -10.5 4.875 0 0.438 c -0.023 0.066 -0.406 0.375 -0.406 0.375 l -0.469 0.219 -0.344 0.281 0.25 0.344 0.156 0.156 -0.406 0.344 0 0.563 0.156 0.594 0.344 0.094 0.406 -0.625 0.25 -0.406 -0.063 -0.5 0.375 -0.594 0.125 -0.281 0 -0.563 -0.094 -0.438 -0.281 0 z m 16.06 0.719 c -0.003 0.002 -0.031 0.031 -0.031 0.031 l -0.5 1.031 c 0 0 -1.102 0.162 -1.125 0.25 -0.023 0.088 -0.563 0.375 -0.563 0.375 -0.113 0 -0.469 0.656 -0.469 0.656 l -0.063 2.063 -0.125 0.75 0.313 0.406 1.531 -0.531 0.5 -0.563 0.531 0 0 -4.469 z m -36.531 8.75 -0.219 0.156 -0.094 0.031 0.5 0.25 -0.188 -0.438 z m -0.844 0.188 -0.219 0.5 0.438 -0.094 -0.219 -0.406 z m 1.5 4.125 l -0.469 0.719 l -0.875 0.406 0.5 0.625 -0.75 0.375 -2.469 -0.125 -0.75 -0.75 -0.656 -0.125 0.656 1.375 l -1.156 -0.219 -3.969 0.125 -0.844 1.094 -1.219 -0.125 -0.125 0.25 0 4.094 45.28 0 2.719 -1.781 0 -1.906 -0.125 -1.188 -0.969 -0.219 -1.219 0.156 l -0.875 0.781 -1.469 0.594 0.625 -0.75 1.344 -0.781 2.156 -0.5 0.25 -0.875 -1 0 c 0 0 -1.344 -0.667 -1.344 -0.844 0 -0.177 -1.5 -0.125 -1.5 -0.125 l -1.719 0.188 -1.656 -0.094 l -3.313 0.125 -3.063 0.625 c 0 0 -1.476 0.794 -1.656 0.75 -0.18 -0.044 0.625 -1.031 0.625 -1.031 l -1.438 0.094 -0.906 -0.75 -0.906 0.625 c 0 0 -1.216 0.094 -1.531 0.094 -0.316 0 -0.719 0.563 -0.719 0.563 l -2.469 -0.094 -4.25 0.188 -1.125 0.969 -0.281 0.031 -3.219 -0.219 l -2.219 0.219 -0.781 -0.375 0.031 -0.063 c 0 0 -0.656 -1.323 -0.656 -1.5 0 -0.177 -0.5 -0.625 -0.5 -0.625 z m 0.344 3.188 1.344 0.438 -1.656 0 l -0.656 -0.344 0.969 -0.094 z" fill="#000"/><g><path d="m 29.05 6.816 c 1.137 0.219 2.117 0.473 2.898 0.816 c 1.203 0.516 1.977 1.199 2.344 1.984 c -1.117 -0.199 -2.105 -0.148 -2.996 0.188 c 6.383 2.434 9.402 5.34 9.05 8.684 c -0.465 -0.699 -1.098 -1.152 -1.887 -1.383 c 0.977 3.668 1.082 6.672 0.293 9.06 c -0.543 -1.594 -1.055 -2.527 -1.5 -2.863 c 0.621 4.918 -0.219 8.551 -2.508 10.918 c 0.434 -1.445 0.621 -2.621 0.52 -3.555 c -2.688 3.891 -5.754 5.883 -9.184 6.01 c -1.355 -0.016 -2.641 -0.188 -3.844 -0.566 c -1.77 -0.57 -3.367 -1.57 -4.789 -2.957 c 2.219 0.176 4.242 -0.199 6.03 -1.07 l 2.93 -1.824 c 0.371 -0.266 0.727 -0.238 1.074 -0.074 c 0.719 -0.098 0.902 -0.305 0.699 -0.953 c -0.457 -0.383 -0.859 -0.887 -1.531 -1.254 c -1.465 -0.734 -2.988 -0.785 -4.574 0.336 c -1.52 0.828 -2.977 0.785 -4.398 -0.094 c -0.934 -0.617 -1.836 -1.449 -2.703 -2.488 l -0.324 -0.469 l 0 -0.039 c 0.043 -1.027 0.457 -1.574 1.301 -1.699 c 0.957 0.082 2.055 0.285 3.289 0.629 c 0.207 -1.141 -0.063 -2.328 -0.813 -3.555 l 0.027 -0.137 c 1.16 -1.035 2.121 -1.66 3 -2.145 c 0.316 -0.414 0.449 -0.563 0.68 -0.934 c -0.051 -0.109 0.051 -0.168 0.117 -0.113 c 0.07 -0.313 0.074 -0.273 -0.215 -0.676 c -0.852 0.203 -1.816 -0.039 -2.469 -0.203 c -0.336 -0.094 -0.793 -0.301 -1.313 -0.781 l -1.336 -1.258 l -0.348 -0.434 l 0.031 -0.16 c 0.148 -0.988 0.645 -1.793 1.043 -2.547 c 0.434 -0.691 1.246 -1.438 2.477 -2.234 c -2.281 0.273 -4.324 1.258 -6.16 2.957 c -1.52 -0.535 -3.332 -0.418 -5.406 0.348 l -0.566 0.09 c -0.035 0.016 0.273 0.117 0.242 0.133 l 0.324 -0.223 c -1.289 -0.586 -1.23 -1.387 -1.652 -4.066 c -7.648 8.18 -7.727 20.461 -1.668 29.344 c 4.59 5.734 10.352 8.781 17.297 9.188 c 16.15 0.723 26.734 -13.195 24.14 -27.313 c -0.063 -1.117 -1.441 -5.957 -3.977 -9.238 c 0.449 1.699 0.477 3.555 0.492 4.52 c -0.949 -3.211 -3.578 -5.867 -7.395 -6.984 c -1.891 -0.547 -4.152 -0.84 -6.746 -0.914 m 0.004 0" fill="#000"/><path d="m 41.04 15.418 c 0.055 0.098 0.098 0.195 0.148 0.289 c -0.004 0.02 0.004 0.043 0 0.055 c -0.012 -0.016 -0.031 -0.039 -0.031 -0.055 c -0.043 -0.098 -0.07 -0.191 -0.117 -0.289 m 0 0" fill="#000"/><path d="m 26.598 30.16 c 0.328 -0.184 0.746 -0.082 1.059 0 c 0.309 -0.027 0.91 -0.195 0.672 -0.973 c -0.398 -0.469 -1 -1.027 -2.188 -1.438 m 0.457 2.41" fill="#000"/><path d="m 19.773 16.465 l 1.723 1.805 c 0.242 -0.16 0.535 -0.293 0.652 -0.852 c 0.023 -0.039 0.055 -0.063 0.109 -0.07 c 0.207 -0.41 0 -0.551 -0.254 -0.746 c -0.73 0.012 -1.258 -0.023 -2.23 -0.137 m 0 0" fill="#000"/><path d="m 18.703 20.363 c -0.215 -0.504 -0.605 -1.195 -1.082 -1.574 l 2.969 -1.477 l 0.918 0.945 c -1.047 0.637 -1.992 1.281 -2.805 2.105 m 0 0" fill="#000"/><path d="m 17.02 14.258 c -0.531 1.66 -0.199 3.156 0.594 4.531 l 2.977 -1.477 c -0.395 -0.426 -0.805 -0.844 -0.805 -0.844 c -0.305 -0.082 -0.695 -0.332 -1.172 -0.773 l -1.219 -1.156 m -0.375 -0.281" fill="#000"/></g></g></g></g></g><g><g clip-path="url(#clipPath-246100665)"><!-- color: #71cae3 --><path d="m 16 1.906 -0.844 0.25 -0.969 0.063 -0.594 0.438 -0.781 -0.031 0.063 0.5 1.125 -0.031 0.406 1.094 0.156 0.594 -0.625 0.344 -0.25 0.469 0.188 1.062 0.75 0.125 0.719 -0.687 0.625 -0.656 0.969 -0.25 1.219 -0.594 0.719 -0.875 1.031 -1.25 0.719 -0.188 -0.031 -0.281 -1.125 0 l -3.469 -0.094 z m -2.219 0.063 -0.813 0.031 -1.406 0.375 -0.813 0.25 -0.938 -0.375 -0.125 0.563 1.125 0.656 c 0 0 2.045 -1.125 2.156 -1.125 l 0.813 -0.375 z m 21.06 0.219 -0.188 0.313 1.156 0.156 0.063 -0.281 -1.031 -0.188 z m -8.875 0.188 c -0.056 0.022 -1.531 0.031 -1.531 0.031 l -0.375 0.094 0.5 0.594 0.531 -0.5 0.344 0.219 0.5 -0.25 c 0 0 0.088 -0.21 0.031 -0.188 z m 5.625 0.469 -0.469 0.063 -0.406 0.25 -0.469 0.344 -0.281 0.5 0.438 0.438 0.375 0.031 0.156 -0.25 -0.375 -0.313 0.219 -0.188 0.031 -0.156 0.469 -0.313 c 0 0 0.608 0.008 0.656 0 0.048 -0.008 0.188 -0.188 0.188 -0.188 l -0.156 -0.219 -0.375 0 z m -25.875 0.188 -0.094 0.313 0.469 0.156 0.531 -0.25 -0.906 -0.219 z m 31.781 0.094 l -2.125 0.094 -0.563 0.375 -0.625 0.375 -0.531 0.437 0.063 0.188 -0.281 0.031 0 0.031 -4 0.656 l -3.656 2.687 l -0.375 0.281 -0.031 0 -0.25 -0.094 c 0 0 -0.155 0.008 -0.219 0.063 -0.064 0.055 -0.121 0.102 -0.313 0.125 -0.191 0.023 -0.562 0 -0.594 0 l -0.219 0 0.031 -0.219 0.156 -0.25 l -0.281 -0.219 c 0 0 -0.18 0.227 -0.188 0.281 -0.008 0.055 0.125 0.281 0.125 0.281 0 0 -0.062 0.18 -0.094 0.219 -0.032 0.039 -0.313 0.125 -0.313 0.125 l -0.438 -0.219 c 0 0 -0.18 -0.039 -0.156 0.063 0.024 0.102 0.219 0.195 0.219 0.281 0 0.086 -0.125 0.281 -0.125 0.281 l -0.156 0.188 -0.25 0.25 -0.344 0.094 c 0 0 -0.249 0.07 -0.313 0.094 -0.064 0.023 -0.25 0.063 -0.25 0.063 l -0.25 0.031 l -0.156 0.219 l 0.281 0.188 0.188 0.313 c 0 0 0.124 0.219 0.156 0.219 0.032 0 0.094 0.219 0.094 0.219 l -0.188 0.25 -0.063 0 -0.031 0 -0.656 0.125 -0.125 -0.281 -0.438 0.438 -0.188 0.719 0 0.594 0.75 0.406 0.594 -0.219 0.594 -1.063 0.531 -0.656 0.969 -0.156 0.219 -0.188 1.094 1.281 0.125 0.438 0.313 -0.156 -0.094 -0.375 0.188 0 -0.125 -0.25 -1.063 -1 0.094 -0.188 0.344 -0.031 0.75 0.75 0.375 0.438 0 0.688 0.188 0.125 0.375 0.375 0.281 -0.094 -0.156 -0.563 0.094 -0.344 0.188 -0.219 0.438 0.156 0.156 0.063 -0.031 -0.5 0.25 -0.469 0.156 -0.688 0.563 0.094 0.094 0.313 0.219 0.156 0.25 -0.219 -0.156 -0.344 0.656 0 -0.219 0.375 0.438 0.375 0.375 0.188 0.219 0.438 -0.5 0.125 -0.719 -0.156 -0.625 0 -0.594 0.313 -0.125 0.188 -0.438 0.094 0.188 0.469 0.344 0.406 0.625 -0.219 0.156 0.281 0.281 -0.219 0.375 0.063 0.031 0.406 -0.125 0.781 l -0.344 -0.031 -0.406 -0.063 -0.188 0.469 -1.375 -0.25 -0.25 -0.313 -0.313 0.281 -0.344 0.469 l -0.875 -0.5 -0.875 -0.531 0 -0.938 -0.563 0.031 l -0.031 0.313 -1.375 -0.063 -0.438 0.406 -0.844 0.031 l -0.563 0.5 -0.344 0.969 -0.875 0.688 -0.625 0.844 -0.031 1.625 -0.188 0.5 -0.063 0.594 0.375 0.656 0.219 0.625 0.75 0.906 0.438 0.375 0.438 0.094 0.094 -0.375 1.563 0 0.406 -0.188 0.5 0.063 0.156 0.313 0.531 0.031 0.344 0.25 0 0.531 -0.125 0.438 -0.125 0.344 0.313 0.563 l 0.406 0.469 0.188 1.188 0.031 0.781 -0.281 0.656 l -0.031 0.625 0.219 1.156 0.188 0.188 l 0.281 1.094 0.031 0.469 0.563 0.75 0.063 0.594 0.094 0.688 0.344 -0.344 l 0.875 -0.094 0.531 0 0.969 -1.5 0.063 -0.594 0.656 -0.656 0.031 -0.75 0.344 -0.75 0.813 -0.781 0 -0.875 -0.188 -0.813 -0.125 -1.125 0.594 -0.938 1.063 -1.313 0.406 -0.406 0.156 -0.531 0.25 -0.469 0.063 -0.688 -0.594 0 l -0.281 0.281 -0.563 -0.156 -0.344 -0.563 -0.281 -0.563 -0.656 -0.5 -0.156 -0.813 -0.281 -0.469 -0.313 -0.594 -0.406 -0.719 -0.094 -0.469 l 0.438 -0.063 0.25 0.531 0.5 0.938 0.375 0.688 0.406 0.75 0.438 0.719 0.594 0.594 0.531 -0.5 0.594 -0.156 0.438 -0.531 0.594 -0.344 0.344 -0.594 0.031 -0.5 -0.281 -0.313 -0.375 -0.438 -0.25 0.156 l -0.156 0.25 -0.406 -0.188 -0.125 -0.313 -0.281 -0.406 -0.438 -0.406 l 0 -0.813 0.281 0.531 0.344 0.531 0.594 0.344 0.406 -0.094 0.25 0.281 1.781 -0.031 -0.031 0.031 0.563 0.5 0.406 0.563 0.125 0.281 0.281 0 0.094 -0.313 0.094 0.469 0.156 0.844 0.344 0.813 0.188 0.688 0.281 0.656 0.219 0.281 0.313 -0.188 0.094 -0.313 0.125 -0.781 -0.031 -0.688 0.25 -0.313 c 0 0 0.265 -0.363 0.313 -0.375 0.048 -0.012 0.625 -0.656 0.625 -0.656 l 0.281 -0.344 0.313 -0.188 0.375 -0.219 0.156 0 0.063 0.344 0.156 0.406 0.5 0.656 0 0.25 0.094 0.281 0.344 -0.156 -0.031 -0.375 0.313 0.063 0.063 0.344 -0.031 0.531 0.094 0.375 0.281 0.063 0.094 -0.313 0.344 0.219 0.063 0.313 0.313 0.469 0.313 0.344 0.219 0.188 0.531 -0.469 0.219 -0.438 -0.094 -0.5 l -0.094 -0.656 -0.594 -0.563 -0.094 -0.563 0.25 -0.406 c 0 0 0.16 -0.322 0.313 -0.156 0.152 0.166 0.224 0.193 0.156 0.375 -0.068 0.182 -0.188 0.594 -0.188 0.594 l 0.375 0.156 0.156 -0.531 -0.156 -0.375 l 0.375 -0.156 0.688 -0.344 0.438 -0.531 0.344 -0.813 -0.031 -0.594 -0.344 -0.781 -0.688 -0.813 -0.438 -0.406 -0.219 -0.625 0.406 -0.094 c 0 0 0.235 -0.403 0.438 -0.188 0.203 0.215 0.5 0.531 0.5 0.531 0 0 0.356 0.559 0.406 0.625 0.051 0.066 0.418 0.402 0.469 0.469 0.051 0.066 0.281 0.313 0.281 0.313 l 0.375 -0.531 l 0.094 -0.094 0 -0.188 -0.531 -0.313 -0.469 -0.438 l 0.344 -0.75 0.563 -0.281 l 0.094 -0.25 0 -1.469 -0.281 -0.563 -0.313 -0.438 c 0 0 -0.322 -0.048 -0.406 -0.031 -0.085 0.017 -0.781 -0.5 -0.781 -0.5 l 0.063 -0.5 0.25 -0.438 l 1.188 -0.156 0.281 0.031 l 0 -0.313 -1.719 -2.25 -1.656 -0.188 -1.281 -0.313 c 0 0 -0.391 0.296 -0.594 0.313 -0.203 0.017 -0.906 0.125 -0.906 0.125 l -0.719 -0.438 -1.5 -0.125 -0.063 -0.031 -1.281 -0.063 l -0.781 -0.437 z m -11.719 4.875 l 3.563 -2.687 -1.219 0.656 -0.313 -0.219 -0.156 -0.25 0.063 -0.25 0.688 0.031 0.313 -0.125 -0.625 -0.313 -0.875 -0.313 -0.875 -0.156 -0.938 0.188 -0.969 0.781 l -0.438 0.438 -0.656 0.719 -0.25 0.031 -0.094 0.344 0.125 0.344 c 0 0 0.134 0.156 0.156 0.156 0.023 0 0.25 -0.125 0.25 -0.125 0 0 0.027 -0.118 0.156 -0.156 0.13 -0.039 0.25 -0.063 0.25 -0.063 l 0.188 0.375 0.219 0.313 0.094 0.25 c 0 0 0.364 -0.222 0.375 -0.25 c 0.011 -0.028 0.031 -0.406 0.031 -0.406 l 0.281 -0.188 c 0 0 0.074 -0.134 0.063 -0.156 c -0.011 -0.022 -0.188 -0.219 -0.188 -0.219 l -0.156 -0.063 0.063 -0.313 c 0 0 0.125 -0.05 0.125 -0.094 0 -0.044 0.188 -0.187 0.188 -0.187 l 0.219 -0.281 0.156 -0.188 0.219 -0.156 0.25 0.188 0 0.125 -0.219 0.25 -0.063 0.25 0 0.344 0.188 0.156 l 0.344 -0.031 0.313 -0.063 0.281 0.156 -0.063 0.219 c 0 0 -0.194 0.188 -0.25 0.219 -0.056 0.031 -0.412 -0.063 -0.5 -0.031 -0.088 0.031 -0.313 0.313 -0.313 0.313 0 0 -0.024 0.25 0 0.313 0.009 0.025 0.009 0.064 0 0.125 z m 3.656 -2.687 4 -0.688 -0.031 -0.156 -0.313 -0.438 -0.656 -0.063 c 0 0 0.156 0.667 0.156 0.75 0 0.083 -0.438 0.031 -0.438 0.031 l -0.75 0.031 c 0 0 -1.084 0.25 -1.219 0.25 -0.13 0 -0.763 0.261 -0.813 0.281 l 0.063 0 z m -25.16 -1.813 -0.5 0.563 0.438 0.219 0.563 -0.25 0.031 0.625 0.469 0.313 0.5 -0.469 0.688 0.125 0.281 -0.656 -1.125 -0.094 -1.344 -0.375 z m 3.125 0.094 0.438 1.094 -0.531 0.063 -0.406 0.5 -0.906 -0.281 -0.813 0.313 -0.781 -0.188 -0.906 -0.563 l -1.25 0.031 -1.094 0.469 -0.719 -0.344 -0.438 -0.031 0 13.594 l 0.844 0.469 0.5 -0.063 l 0.719 0.344 l 1.094 0.594 0.156 0.719 0.875 0.844 0.5 -0.375 0.406 0.313 -0.063 -0.719 -0.781 0.188 -0.25 -0.906 -0.094 -0.406 -0.688 -0.625 0 -0.438 0.531 -0.563 -0.344 -0.406 l -0.562 0.094 -0.844 0.844 -0.688 -0.094 c 0 0 -0.311 -0.531 -0.375 -0.656 -0.064 -0.125 0.188 -0.563 0.188 -0.563 l -0.063 -1.281 0.719 -0.5 0.563 -0.188 0.812 0 1.125 -0.25 0.406 0.531 -0.063 0.625 0.469 0.406 0.063 -0.438 c 0 0 -0.03 -0.719 -0.094 -0.906 -0.064 -0.187 0.563 -0.625 0.563 -0.625 l 0.5 -0.625 0.594 -0.719 0.281 -0.563 0.938 -0.5 0.625 -0.688 c 0 0 0.934 -0.156 1.125 -0.25 0.191 -0.094 0.066 -0.438 -0.125 -0.75 c -0.191 -0.312 0.094 -0.625 0.094 -0.625 l 0.719 -0.438 0.625 0.125 l 0.063 0.75 c 0 0 0.59 0.562 0.781 0.469 c 0.191 -0.094 0.281 -0.406 0.281 -0.406 l -0.313 -0.813 0.188 -0.813 -0.844 0.125 l 0 -0.844 0 -0.531 -0.25 0.25 l -0.656 0.031 -0.094 -0.688 -0.438 -0.531 c 0 0 -0.429 0.25 -0.844 0.406 -0.415 0.156 -0.313 0.469 -0.313 0.469 l -0.031 0.844 -0.688 0.563 -0.438 0.656 c 0 0 -0.281 -0.188 -0.281 -0.313 0 -0.125 -0.063 -0.469 -0.063 -0.469 l -0.719 -0.563 c 0 0 -0.562 -0.406 -0.594 -0.531 -0.032 -0.125 0.344 -0.688 0.344 -0.688 0 0 0.809 -0.5 1 -0.656 0.191 -0.156 1.216 0.344 1.344 0.25 0.128 -0.094 0.625 -0.875 0.625 -0.875 l 0.438 -0.594 -0.438 0.5 -0.75 -0.719 0.125 -0.719 -1.031 -0.156 z m 2.5 0.031 -0.25 0.625 0.156 0.344 0.563 -0.063 0.25 0.469 -0.5 0.531 -0.563 0.063 0.5 0.219 0.531 0.469 0.531 0.125 0.188 -0.719 0.031 -0.438 0.625 0.094 c 0 0 -0.189 0.313 -0.094 0.313 0.096 0 0.469 -0.406 0.469 -0.406 l -1.063 -1.094 c 0 0 -0.435 -0.344 -0.563 -0.25 -0.128 0.094 -0.469 0.063 -0.469 0.063 l -0.344 -0.344 z m 8.688 1.781 -0.125 0.406 c 0.454 0.351 0.625 0.344 0.625 0.344 l 0.531 -0.125 0.344 -0.344 -0.219 -0.281 -0.719 0 -0.438 0 z m 2.781 1.781 -0.25 0.219 c -0.072 0.305 -0.156 0.625 -0.156 0.625 l 0.469 0.219 0.063 0.281 l -0.25 0.25 -0.219 0.375 l 0.156 0.156 0.563 -0.094 0.5 -0.219 -0.281 -0.375 -0.094 -0.656 -0.344 -0.375 -0.156 -0.406 z m -0.781 1.188 -0.281 0.469 0.375 0.156 0.156 -0.281 -0.25 -0.344 z m -15.438 1.094 0.656 0.281 l 0.438 0.563 0.281 0.438 c 0 0 -0.249 0.844 -0.313 1 -0.064 0.156 -0.25 -0.313 -0.25 -0.313 l -0.156 -0.813 -0.531 0.219 -0.406 0.969 0.094 -0.813 0.125 -0.563 -0.656 -0.25 0.563 -0.531 0.156 -0.188 z m 26.375 0.75 c 0.135 -0.044 0.375 0.156 0.375 0.156 l -0.25 0.219 0.094 0.313 0.281 0.75 0.281 0.469 0.375 0.594 -0.406 0.188 l -0.531 -0.344 -0.219 -0.656 c 0 0 -0.302 -0.402 -0.438 -0.469 -0.135 -0.066 -0.25 -0.281 -0.25 -0.281 l 0.125 -0.531 c 0 0 0.427 -0.362 0.563 -0.406 z m -7.906 1.188 -0.375 0.719 0.281 0.281 0.25 -0.219 0.031 -0.313 -0.188 -0.469 z m -1.25 0.75 0 0.188 0.156 -0.031 -0.156 -0.156 z m 2.156 0.469 -0.188 0.063 0.313 0.531 l 0.281 -0.219 -0.406 -0.375 z m -20.13 4.188 -0.313 0.156 0.531 0.281 0.594 0.125 0.344 0.469 0.406 -0.25 -0.063 -0.281 -0.688 -0.5 -0.813 0 z m 1.688 3.094 -0.813 0.438 -0.094 0.906 -0.188 1 -0.563 0.75 0.031 1.125 0.469 1.156 0.5 1.406 1.313 1.313 0.063 0.75 0.094 3.375 0.469 1.906 c 0 0 0.286 1.099 0.219 1.188 -0.068 0.088 0.375 0.906 0.375 0.906 l 0.875 1.375 1.219 0.531 -0.5 -0.594 -0.25 -0.688 0.25 -0.719 -0.656 -0.344 c 0 0 0.432 -0.287 0.5 -0.375 0.068 -0.088 -0.094 -0.469 -0.094 -0.469 l -0.188 -0.469 0.5 -0.656 0.781 -0.188 0.125 -0.594 -0.469 -0.219 0.188 -0.5 l 0.75 -0.094 0.656 -1.594 0.469 -1.094 0.969 -0.469 c 0 0 0.313 -0.93 0.313 -1.063 c 0 -0.133 0.094 -1.531 0.094 -1.531 l 0.75 -1.031 0.094 -0.688 l -0.563 -0.344 -0.469 -0.563 -0.844 0.063 -1.344 -0.781 -0.281 -0.656 c 0 0 -0.472 -0.813 -0.563 -0.813 -0.09 0 -0.656 0.031 -0.656 0.031 l -0.531 -0.531 -0.344 -0.656 -1.344 -0.281 -0.438 -0.219 -0.875 0 z m 36.438 0.5 c 0.113 0.133 0.816 2.219 0.906 2.219 0.09 0 0.625 0.063 0.625 0.063 l -0.281 -0.844 -1.25 -1.438 z m -3.594 0.063 -0.313 0.406 0.156 0.594 0.344 -0.375 -0.063 -0.469 -0.125 -0.156 z m 8.094 0.719 -1.469 0.813 c 0 0.088 -0.719 0.688 -0.719 0.688 l 0.188 0.625 0.406 0.469 0.281 0.688 1.875 -1.219 -0.563 -2.063 z m -4.594 0.438 -0.438 0.063 l 2 3 0.531 0.594 1.313 0.063 0.813 0.25 -0.875 -0.625 -1.25 -0.344 -0.313 -1.156 -0.688 -0.563 l -1.094 -1.281 z m -10.5 4.875 0 0.438 c -0.023 0.066 -0.406 0.375 -0.406 0.375 l -0.469 0.219 -0.344 0.281 0.25 0.344 0.156 0.156 -0.406 0.344 0 0.563 0.156 0.594 0.344 0.094 0.406 -0.625 0.25 -0.406 -0.063 -0.5 0.375 -0.594 0.125 -0.281 0 -0.563 -0.094 -0.438 -0.281 0 z m 16.06 0.719 c -0.003 0.002 -0.031 0.031 -0.031 0.031 l -0.5 1.031 c 0 0 -1.102 0.162 -1.125 0.25 -0.023 0.088 -0.563 0.375 -0.563 0.375 -0.113 0 -0.469 0.656 -0.469 0.656 l -0.063 2.063 -0.125 0.75 0.313 0.406 1.531 -0.531 0.5 -0.563 0.531 0 0 -4.469 z m -36.531 8.75 -0.219 0.156 -0.094 0.031 0.5 0.25 -0.188 -0.438 z m -0.844 0.188 -0.219 0.5 0.438 -0.094 -0.219 -0.406 z m 1.5 4.125 l -0.469 0.719 l -0.875 0.406 0.5 0.625 -0.75 0.375 -2.469 -0.125 -0.75 -0.75 -0.656 -0.125 0.656 1.375 l -1.156 -0.219 -3.969 0.125 -0.844 1.094 -1.219 -0.125 -0.125 0.25 0 4.094 45.28 0 2.719 -1.781 0 -1.906 -0.125 -1.188 -0.969 -0.219 -1.219 0.156 l -0.875 0.781 -1.469 0.594 0.625 -0.75 1.344 -0.781 2.156 -0.5 0.25 -0.875 -1 0 c 0 0 -1.344 -0.667 -1.344 -0.844 0 -0.177 -1.5 -0.125 -1.5 -0.125 l -1.719 0.188 -1.656 -0.094 l -3.313 0.125 -3.063 0.625 c 0 0 -1.476 0.794 -1.656 0.75 -0.18 -0.044 0.625 -1.031 0.625 -1.031 l -1.438 0.094 -0.906 -0.75 -0.906 0.625 c 0 0 -1.216 0.094 -1.531 0.094 -0.316 0 -0.719 0.563 -0.719 0.563 l -2.469 -0.094 -4.25 0.188 -1.125 0.969 -0.281 0.031 -3.219 -0.219 l -2.219 0.219 -0.781 -0.375 0.031 -0.063 c 0 0 -0.656 -1.323 -0.656 -1.5 0 -0.177 -0.5 -0.625 -0.5 -0.625 z m 0.344 3.188 1.344 0.438 -1.656 0 l -0.656 -0.344 0.969 -0.094 z" fill="#afdbef"/><g><path d="m 29.05 6.816 c 1.137 0.219 2.117 0.473 2.898 0.816 c 1.203 0.516 1.977 1.199 2.344 1.984 c -1.117 -0.199 -2.105 -0.148 -2.996 0.188 c 6.383 2.434 9.402 5.34 9.05 8.684 c -0.465 -0.699 -1.098 -1.152 -1.887 -1.383 c 0.977 3.668 1.082 6.672 0.293 9.06 c -0.543 -1.594 -1.055 -2.527 -1.5 -2.863 c 0.621 4.918 -0.219 8.551 -2.508 10.918 c 0.434 -1.445 0.621 -2.621 0.52 -3.555 c -2.688 3.891 -5.754 5.883 -9.184 6.01 c -1.355 -0.016 -2.641 -0.188 -3.844 -0.566 c -1.77 -0.57 -3.367 -1.57 -4.789 -2.957 c 2.219 0.176 4.242 -0.199 6.03 -1.07 l 2.93 -1.824 c 0.371 -0.266 0.727 -0.238 1.074 -0.074 c 0.719 -0.098 0.902 -0.305 0.699 -0.953 c -0.457 -0.383 -0.859 -0.887 -1.531 -1.254 c -1.465 -0.734 -2.988 -0.785 -4.574 0.336 c -1.52 0.828 -2.977 0.785 -4.398 -0.094 c -0.934 -0.617 -1.836 -1.449 -2.703 -2.488 l -0.324 -0.469 l 0 -0.039 c 0.043 -1.027 0.457 -1.574 1.301 -1.699 c 0.957 0.082 2.055 0.285 3.289 0.629 c 0.207 -1.141 -0.063 -2.328 -0.813 -3.555 l 0.027 -0.137 c 1.16 -1.035 2.121 -1.66 3 -2.145 c 0.316 -0.414 0.449 -0.563 0.68 -0.934 c -0.051 -0.109 0.051 -0.168 0.117 -0.113 c 0.07 -0.313 0.074 -0.273 -0.215 -0.676 c -0.852 0.203 -1.816 -0.039 -2.469 -0.203 c -0.336 -0.094 -0.793 -0.301 -1.313 -0.781 l -1.336 -1.258 l -0.348 -0.434 l 0.031 -0.16 c 0.148 -0.988 0.645 -1.793 1.043 -2.547 c 0.434 -0.691 1.246 -1.438 2.477 -2.234 c -2.281 0.273 -4.324 1.258 -6.16 2.957 c -1.52 -0.535 -3.332 -0.418 -5.406 0.348 l -0.566 0.09 c -0.035 0.016 0.273 0.117 0.242 0.133 l 0.324 -0.223 c -1.289 -0.586 -1.23 -1.387 -1.652 -4.066 c -7.648 8.18 -7.727 20.461 -1.668 29.344 c 4.59 5.734 10.352 8.781 17.297 9.188 c 16.15 0.723 26.734 -13.195 24.14 -27.313 c -0.063 -1.117 -1.441 -5.957 -3.977 -9.238 c 0.449 1.699 0.477 3.555 0.492 4.52 c -0.949 -3.211 -3.578 -5.867 -7.395 -6.984 c -1.891 -0.547 -4.152 -0.84 -6.746 -0.914 m 0.004 0" fill="#d05225"/><path d="m 41.04 15.418 c 0.055 0.098 0.098 0.195 0.148 0.289 c -0.004 0.02 0.004 0.043 0 0.055 c -0.012 -0.016 -0.031 -0.039 -0.031 -0.055 c -0.043 -0.098 -0.07 -0.191 -0.117 -0.289 m 0 0" fill="#ed7f43"/><path d="m 26.598 30.16 c 0.328 -0.184 0.746 -0.082 1.059 0 c 0.309 -0.027 0.91 -0.195 0.672 -0.973 c -0.398 -0.469 -1 -1.027 -2.188 -1.438 m 0.457 2.41" fill="#fcf5ce"/><path d="m 19.773 16.465 l 1.723 1.805 c 0.242 -0.16 0.535 -0.293 0.652 -0.852 c 0.023 -0.039 0.055 -0.063 0.109 -0.07 c 0.207 -0.41 0 -0.551 -0.254 -0.746 c -0.73 0.012 -1.258 -0.023 -2.23 -0.137 m 0 0" fill="#2d2d2d"/><path d="m 18.703 20.363 c -0.215 -0.504 -0.605 -1.195 -1.082 -1.574 l 2.969 -1.477 l 0.918 0.945 c -1.047 0.637 -1.992 1.281 -2.805 2.105 m 0 0" fill="#fcf5ce"/><path d="m 17.02 14.258 c -0.531 1.66 -0.199 3.156 0.594 4.531 l 2.977 -1.477 c -0.395 -0.426 -0.805 -0.844 -0.805 -0.844 c -0.305 -0.082 -0.695 -0.332 -1.172 -0.773 l -1.219 -1.156 m -0.375 -0.281" fill="#b93720"/></g></g></g><g><path d="m 40.03 7.531 c 3.712 4.084 5.969 9.514 5.969 15.469 0 12.703 -10.297 23 -23 23 c -5.954 0 -11.384 -2.256 -15.469 -5.969 4.178 4.291 10.01 6.969 16.469 6.969 c 12.703 0 23 -10.298 23 -23 0 -6.462 -2.677 -12.291 -6.969 -16.469 z" opacity="0.1"/></g></svg>