<svg viewBox="0 0 48 48"><defs><linearGradient id="linearGradient3764" y1="47" x2="0" y2="1" gradientUnits="userSpaceOnUse"><stop stop-color="#e1e1e1" stop-opacity="1"/><stop offset="1" stop-color="#ebebeb" stop-opacity="1"/></linearGradient><clipPath id="clipPath-591381826"><g transform="translate(0,-1004.3622)"><path d="m -24 13 c 0 1.105 -0.672 2 -1.5 2 -0.828 0 -1.5 -0.895 -1.5 -2 0 -1.105 0.672 -2 1.5 -2 0.828 0 1.5 0.895 1.5 2 z" transform="matrix(15.333333,0,0,11.5,414.99999,878.8622)" fill="#1890d0"/></g></clipPath><clipPath id="clipPath-600116658"><g transform="translate(0,-1004.3622)"><path d="m -24 13 c 0 1.105 -0.672 2 -1.5 2 -0.828 0 -1.5 -0.895 -1.5 -2 0 -1.105 0.672 -2 1.5 -2 0.828 0 1.5 0.895 1.5 2 z" transform="matrix(15.333333,0,0,11.5,414.99999,878.8622)" fill="#1890d0"/></g></clipPath></defs><g><path d="m 36.31 5 c 5.859 4.062 9.688 10.831 9.688 18.5 c 0 12.426 -10.07 22.5 -22.5 22.5 c -7.669 0 -14.438 -3.828 -18.5 -9.688 c 1.037 1.822 2.306 3.499 3.781 4.969 c 4.085 3.712 9.514 5.969 15.469 5.969 c 12.703 0 23 -10.298 23 -23 c 0 -5.954 -2.256 -11.384 -5.969 -15.469 c -1.469 -1.475 -3.147 -2.744 -4.969 -3.781 z m 4.969 3.781 c 3.854 4.113 6.219 9.637 6.219 15.719 c 0 12.703 -10.297 23 -23 23 c -6.081 0 -11.606 -2.364 -15.719 -6.219 c 4.16 4.144 9.883 6.719 16.219 6.719 c 12.703 0 23 -10.298 23 -23 c 0 -6.335 -2.575 -12.06 -6.719 -16.219 z" opacity="0.05"/><path d="m 41.28 8.781 c 3.712 4.085 5.969 9.514 5.969 15.469 c 0 12.703 -10.297 23 -23 23 c -5.954 0 -11.384 -2.256 -15.469 -5.969 c 4.113 3.854 9.637 6.219 15.719 6.219 c 12.703 0 23 -10.298 23 -23 c 0 -6.081 -2.364 -11.606 -6.219 -15.719 z" opacity="0.1"/><path d="m 31.25 2.375 c 8.615 3.154 14.75 11.417 14.75 21.13 c 0 12.426 -10.07 22.5 -22.5 22.5 c -9.708 0 -17.971 -6.135 -21.12 -14.75 a 23 23 0 0 0 44.875 -7 a 23 23 0 0 0 -16 -21.875 z" opacity="0.2"/></g><g><path d="m 24 1 c 12.703 0 23 10.297 23 23 c 0 12.703 -10.297 23 -23 23 -12.703 0 -23 -10.297 -23 -23 0 -12.703 10.297 -23 23 -23 z" fill="url(#linearGradient3764)" fill-opacity="1"/></g><g><g clip-path="url(#clipPath-591381826)"><g transform="translate(1,1)"><g opacity="0.1"><!-- color: #ebebeb --><g><path d="m 20.922 19.727 c 0 0 -0.371 -0.77 -0.5 -1.023 c -0.848 -1.707 -0.828 -1.801 -1.688 -1.914 c -0.238 -0.031 -0.363 -0.063 -0.363 -0.184 l 0 -0.539 l 0.074 -0.055 c 1.547 0 4.992 0 4.992 0 l 0.129 0.043 l 0 0.539 c 0 0.121 -0.086 0.184 -0.262 0.184 l -0.359 0.055 c -0.914 0.07 -0.766 0.453 -0.16 1.68 l 5.77 11.992 l 0.199 0.055 l 5.121 -12.348 c 0.176 -0.496 0.148 -0.852 -0.078 -1.059 c -0.23 -0.203 -0.391 -0.32 -0.984 -0.348 l -0.48 -0.023 c -0.059 0 -0.117 -0.02 -0.172 -0.063 c -0.051 -0.035 -0.078 -0.086 -0.078 -0.148 l 0 -0.516 l 0.074 -0.051 c 1.441 0 5.785 0 5.785 0 l 0.059 0.051 l 0 0.516 c 0 0.141 -0.078 0.211 -0.234 0.211 c -0.758 0.031 -1.32 0.199 -1.684 0.5 c -0.363 0.301 -0.648 0.715 -0.852 1.25 c 0 0 -4.711 10.953 -6.324 14.594 c -0.613 1.191 -1.223 1.082 -1.754 -0.035 c -1.129 -2.355 -4.301 -9.512 -4.301 -9.512 l -1.93 -3.848 m 0 -0.004" fill="#000"/><path d="m 30.16 16 c 0 0 -3.254 -0.012 -4.703 0 l -0.07 0.055 l 0 0.512 c 0 0.063 0.023 0.113 0.078 0.148 c 0.055 0.043 0.109 0.063 0.168 0.063 l 0.23 0.027 c 0.594 0.023 0.867 0.184 0.949 0.281 c 0.141 0.176 0.211 0.363 -0.133 1.125 l -6.078 12.313 l -0.156 -0.043 c 0 0 -4.355 -9.324 -5.613 -12.441 c -0.133 -0.324 -0.191 -0.563 -0.191 -0.711 c 0 -0.316 0.281 -0.488 0.844 -0.512 l 0.656 -0.027 c 0.176 0 0.262 -0.07 0.262 -0.211 l 0 -0.512 l -0.059 -0.051 c 0 0 -5.211 -0.008 -6.289 0 l -0.059 0.051 l 0 0.539 c 0 0.098 0.121 0.156 0.363 0.184 c 0.66 0.035 1.098 0.145 1.305 0.32 c 0.211 0.18 0.43 0.637 0.723 1.348 c 1.582 3.863 4.945 10.754 6.582 14.676 c 0.473 1.074 1.063 1.238 1.781 -0.031 c 1.246 -2.348 4.625 -9.516 4.625 -9.516 l 2.66 -5.05 c 0.309 -0.535 0.609 -1.012 0.762 -1.234 c 0.277 -0.406 0.43 -0.48 1.191 -0.516 c 0.152 0 0.23 -0.07 0.23 -0.211 l 0 -0.516 m -0.059 -0.055" fill="#000"/></g></g></g></g></g><g><g clip-path="url(#clipPath-600116658)"><!-- color: #ebebeb --><g><path d="m 20.922 19.727 c 0 0 -0.371 -0.77 -0.5 -1.023 c -0.848 -1.707 -0.828 -1.801 -1.688 -1.914 c -0.238 -0.031 -0.363 -0.063 -0.363 -0.184 l 0 -0.539 l 0.074 -0.055 c 1.547 0 4.992 0 4.992 0 l 0.129 0.043 l 0 0.539 c 0 0.121 -0.086 0.184 -0.262 0.184 l -0.359 0.055 c -0.914 0.07 -0.766 0.453 -0.16 1.68 l 5.77 11.992 l 0.199 0.055 l 5.121 -12.348 c 0.176 -0.496 0.148 -0.852 -0.078 -1.059 c -0.23 -0.203 -0.391 -0.32 -0.984 -0.348 l -0.48 -0.023 c -0.059 0 -0.117 -0.02 -0.172 -0.063 c -0.051 -0.035 -0.078 -0.086 -0.078 -0.148 l 0 -0.516 l 0.074 -0.051 c 1.441 0 5.785 0 5.785 0 l 0.059 0.051 l 0 0.516 c 0 0.141 -0.078 0.211 -0.234 0.211 c -0.758 0.031 -1.32 0.199 -1.684 0.5 c -0.363 0.301 -0.648 0.715 -0.852 1.25 c 0 0 -4.711 10.953 -6.324 14.594 c -0.613 1.191 -1.223 1.082 -1.754 -0.035 c -1.129 -2.355 -4.301 -9.512 -4.301 -9.512 l -1.93 -3.848 m 0 -0.004" fill="#2d2d2d"/><path d="m 30.16 16 c 0 0 -3.254 -0.012 -4.703 0 l -0.07 0.055 l 0 0.512 c 0 0.063 0.023 0.113 0.078 0.148 c 0.055 0.043 0.109 0.063 0.168 0.063 l 0.23 0.027 c 0.594 0.023 0.867 0.184 0.949 0.281 c 0.141 0.176 0.211 0.363 -0.133 1.125 l -6.078 12.313 l -0.156 -0.043 c 0 0 -4.355 -9.324 -5.613 -12.441 c -0.133 -0.324 -0.191 -0.563 -0.191 -0.711 c 0 -0.316 0.281 -0.488 0.844 -0.512 l 0.656 -0.027 c 0.176 0 0.262 -0.07 0.262 -0.211 l 0 -0.512 l -0.059 -0.051 c 0 0 -5.211 -0.008 -6.289 0 l -0.059 0.051 l 0 0.539 c 0 0.098 0.121 0.156 0.363 0.184 c 0.66 0.035 1.098 0.145 1.305 0.32 c 0.211 0.18 0.43 0.637 0.723 1.348 c 1.582 3.863 4.945 10.754 6.582 14.676 c 0.473 1.074 1.063 1.238 1.781 -0.031 c 1.246 -2.348 4.625 -9.516 4.625 -9.516 l 2.66 -5.05 c 0.309 -0.535 0.609 -1.012 0.762 -1.234 c 0.277 -0.406 0.43 -0.48 1.191 -0.516 c 0.152 0 0.23 -0.07 0.23 -0.211 l 0 -0.516 m -0.059 -0.055" fill="#2d2d2d"/></g></g></g><g><path d="m 40.03 7.531 c 3.712 4.084 5.969 9.514 5.969 15.469 0 12.703 -10.297 23 -23 23 c -5.954 0 -11.384 -2.256 -15.469 -5.969 4.178 4.291 10.01 6.969 16.469 6.969 c 12.703 0 23 -10.298 23 -23 0 -6.462 -2.677 -12.291 -6.969 -16.469 z" opacity="0.1"/></g></svg>